<?xml version="1.0" encoding="UTF-8" standalone="no"?>
<!-- Created with Inkscape (http://www.inkscape.org/) -->

<svg
   xmlns:dc="http://purl.org/dc/elements/1.1/"
   xmlns:cc="http://creativecommons.org/ns#"
   xmlns:rdf="http://www.w3.org/1999/02/22-rdf-syntax-ns#"
   xmlns:svg="http://www.w3.org/2000/svg"
   xmlns="http://www.w3.org/2000/svg"
   xmlns:xlink="http://www.w3.org/1999/xlink"
   xmlns:sodipodi="http://sodipodi.sourceforge.net/DTD/sodipodi-0.dtd"
   xmlns:inkscape="http://www.inkscape.org/namespaces/inkscape"
   version="1.0"
   width="96"
   height="96"
   id="svg2408"
   inkscape:version="0.48.4 r9939"
   sodipodi:docname="amarok.svg">
  <sodipodi:namedview
     pagecolor="#ffffff"
     bordercolor="#666666"
     borderopacity="1"
     objecttolerance="10"
     gridtolerance="10"
     guidetolerance="10"
     inkscape:pageopacity="0"
     inkscape:pageshadow="2"
     inkscape:window-width="1680"
     inkscape:window-height="991"
     id="namedview156"
     showgrid="false"
     inkscape:zoom="10.236384"
     inkscape:cx="66.430121"
     inkscape:cy="35.452445"
     inkscape:window-x="0"
     inkscape:window-y="-3"
     inkscape:window-maximized="1"
     inkscape:current-layer="svg2408" />
  <defs
     id="defs2410">
    <radialGradient
       cx="622.72803"
       cy="621.17328"
       r="510.71881"
       fx="622.72803"
       fy="621.17328"
       id="radialGradient3809"
       gradientUnits="userSpaceOnUse">
      <stop
         id="stop3811"
         style="stop-color:#f0f0f0;stop-opacity:1"
         offset="0" />
      <stop
         id="stop3813"
         style="stop-color:#e1e1e1;stop-opacity:1"
         offset="0.2814" />
      <stop
         id="stop3815"
         style="stop-color:#c0c0c0;stop-opacity:1"
         offset="0.75150001" />
      <stop
         id="stop3817"
         style="stop-color:#b2b2b2;stop-opacity:1"
         offset="1" />
    </radialGradient>
    <linearGradient
       id="linearGradient3985">
      <stop
         id="stop3987"
         style="stop-color:#000000;stop-opacity:1"
         offset="0" />
      <stop
         id="stop3989"
         style="stop-color:#000000;stop-opacity:0"
         offset="1" />
    </linearGradient>
    <linearGradient
       x1="45.447727"
       y1="92.539597"
       x2="45.447727"
       y2="7.0165396"
       id="ButtonShadow"
       gradientUnits="userSpaceOnUse"
       gradientTransform="scale(1.0058652,0.994169)">
      <stop
         id="stop3750"
         style="stop-color:#000000;stop-opacity:1"
         offset="0" />
      <stop
         id="stop3752"
         style="stop-color:#000000;stop-opacity:0.58823532"
         offset="1" />
    </linearGradient>
    <linearGradient
       id="linearGradient3737">
      <stop
         id="stop3739"
         style="stop-color:#ffffff;stop-opacity:1"
         offset="0" />
      <stop
         id="stop3741"
         style="stop-color:#ffffff;stop-opacity:0"
         offset="1" />
    </linearGradient>
    <filter
       color-interpolation-filters="sRGB"
       id="filter3174">
      <feGaussianBlur
         id="feGaussianBlur3176"
         stdDeviation="1.71" />
    </filter>
    <linearGradient
       x1="36.357143"
       y1="6"
       x2="36.357143"
       y2="63.893143"
       id="linearGradient3188"
       xlink:href="#linearGradient3737"
       gradientUnits="userSpaceOnUse" />
    <filter
       x="-0.192"
       y="-0.192"
       width="1.3839999"
       height="1.3839999"
       color-interpolation-filters="sRGB"
       id="filter3794">
      <feGaussianBlur
         id="feGaussianBlur3796"
         stdDeviation="5.28" />
    </filter>
    <linearGradient
       x1="48"
       y1="20.220806"
       x2="48"
       y2="138.66119"
       id="linearGradient3613"
       xlink:href="#linearGradient3737"
       gradientUnits="userSpaceOnUse" />
    <radialGradient
       cx="48"
       cy="90.171875"
       r="42"
       fx="48"
       fy="90.171875"
       id="radialGradient3619"
       xlink:href="#linearGradient3737"
       gradientUnits="userSpaceOnUse"
       gradientTransform="matrix(1.1573129,0,0,0.99590774,-7.5510206,0.19713193)" />
    <clipPath
       id="clipPath3613">
      <rect
         width="84"
         height="84"
         rx="6"
         ry="6"
         x="6"
         y="6"
         id="rect3615"
         style="fill:#ffffff;fill-opacity:1;fill-rule:nonzero;stroke:none" />
    </clipPath>
    <linearGradient
       x1="48"
       y1="90"
       x2="48"
       y2="5.9877172"
       id="linearGradient3617"
       xlink:href="#radialGradient3809"
       gradientUnits="userSpaceOnUse"
       gradientTransform="translate(0,-96)" />
    <radialGradient
       cx="622.72803"
       cy="621.17328"
       r="510.71881"
       fx="622.72803"
       fy="621.17328"
       id="XMLID_22_"
       gradientUnits="userSpaceOnUse">
      <stop
         id="stop14"
         style="stop-color:#ffffff;stop-opacity:1"
         offset="0" />
      <stop
         id="stop16"
         style="stop-color:#e6e6e6;stop-opacity:1"
         offset="0.2814" />
      <stop
         id="stop18"
         style="stop-color:#c0c0c0;stop-opacity:1"
         offset="0.75150001" />
      <stop
         id="stop20"
         style="stop-color:#b2b2b2;stop-opacity:1"
         offset="1" />
    </radialGradient>
    <mask
       id="XMLID_23_">
      <g
         id="g31"
         style="filter:url(#Adobe_OpacityMaskFilter)">
        <radialGradient
           cx="88.977501"
           cy="-20.899401"
           r="673.11609"
           fx="88.977501"
           fy="-20.899401"
           id="XMLID_24_"
           gradientUnits="userSpaceOnUse">
          <stop
             id="stop34"
             style="stop-color:#ffffff;stop-opacity:1"
             offset="0.30899999" />
          <stop
             id="stop36"
             style="stop-color:#000000;stop-opacity:1"
             offset="1" />
        </radialGradient>
        <ellipse
           cx="295.89499"
           cy="286.172"
           rx="512.93402"
           ry="349.10599"
           id="ellipse38"
           style="fill:url(#XMLID_24_) #000000" />
      </g>
    </mask>
    <mask
       id="XMLID_13_">
      <g
         id="g193"
         style="filter:url(#Adobe_OpacityMaskFilter_4_)">
        <linearGradient
           x1="340.0488"
           y1="266.93359"
           x2="372.38071"
           y2="417.81519"
           id="XMLID_14_"
           gradientUnits="userSpaceOnUse">
          <stop
             id="stop196"
             style="stop-color:#ffffff;stop-opacity:1"
             offset="0" />
          <stop
             id="stop198"
             style="stop-color:#f8f8f8;stop-opacity:1"
             offset="0.0867" />
          <stop
             id="stop200"
             style="stop-color:#e4e4e4;stop-opacity:1"
             offset="0.2156" />
          <stop
             id="stop202"
             style="stop-color:#c2c2c2;stop-opacity:1"
             offset="0.37079999" />
          <stop
             id="stop204"
             style="stop-color:#949494;stop-opacity:1"
             offset="0.54650003" />
          <stop
             id="stop206"
             style="stop-color:#595959;stop-opacity:1"
             offset="0.73940003" />
          <stop
             id="stop208"
             style="stop-color:#151515;stop-opacity:1"
             offset="0.94379997" />
          <stop
             id="stop210"
             style="stop-color:#000000;stop-opacity:1"
             offset="0.99440002" />
        </linearGradient>
        <ellipse
           cx="363.052"
           cy="374.28201"
           rx="215.32401"
           ry="183.32201"
           id="ellipse212"
           style="fill:url(#XMLID_14_) #000000" />
      </g>
    </mask>
    <mask
       id="XMLID_10_">
      <g
         id="g159">
        <radialGradient
           cx="657.2124"
           cy="155.23289"
           r="606.95343"
           fx="657.2124"
           fy="155.23289"
           id="XMLID_11_"
           gradientUnits="userSpaceOnUse"
           gradientTransform="matrix(0.931,0,0,0.9299,28.7459,21.6629)">
          <stop
             id="stop162"
             style="stop-color:#c9c9c8;stop-opacity:1"
             offset="0" />
          <stop
             id="stop164"
             style="stop-color:#c4c4c4;stop-opacity:1"
             offset="0.0881" />
          <stop
             id="stop166"
             style="stop-color:#b8b8b7;stop-opacity:1"
             offset="0.2192" />
          <stop
             id="stop168"
             style="stop-color:#a1a0a0;stop-opacity:1"
             offset="0.37689999" />
          <stop
             id="stop170"
             style="stop-color:#7f7f7e;stop-opacity:1"
             offset="0.55559999" />
          <stop
             id="stop172"
             style="stop-color:#4f4f4e;stop-opacity:1"
             offset="0.75169998" />
          <stop
             id="stop174"
             style="stop-color:#121212;stop-opacity:1"
             offset="0.95950001" />
          <stop
             id="stop176"
             style="stop-color:#000000;stop-opacity:1"
             offset="1" />
        </radialGradient>
        <circle
           cx="408.427"
           cy="444.22601"
           r="302.95401"
           id="circle178"
           style="fill:url(#XMLID_11_) #000000" />
      </g>
    </mask>
    <linearGradient
       x1="220.9512"
       y1="634.63232"
       x2="278.14471"
       y2="560.35498"
       id="XMLID_5_"
       gradientUnits="userSpaceOnUse">
      <stop
         id="stop119"
         style="stop-color:#ffffff;stop-opacity:1"
         offset="0" />
      <stop
         id="stop121"
         style="stop-color:#193d6b;stop-opacity:1"
         offset="1" />
    </linearGradient>
    <linearGradient
       x1="429.84909"
       y1="815.45459"
       x2="480.12021"
       y2="643.30768"
       id="XMLID_4_"
       gradientUnits="userSpaceOnUse"
       gradientTransform="matrix(-1.12563,0,0,1.12563,1028.91,-39.5467)">
      <stop
         id="stop112"
         style="stop-color:#ffffff;stop-opacity:1"
         offset="0" />
      <stop
         id="stop114"
         style="stop-color:#e5eaf2;stop-opacity:1"
         offset="1" />
    </linearGradient>
    <mask
       id="XMLID_2_">
      <g
         id="g86">
        <linearGradient
           x1="206.09081"
           y1="397.62061"
           x2="186.92191"
           y2="563.47321"
           id="XMLID_3_"
           gradientUnits="userSpaceOnUse">
          <stop
             id="stop89"
             style="stop-color:#ffffff;stop-opacity:1"
             offset="0" />
          <stop
             id="stop91"
             style="stop-color:#cbcbcb;stop-opacity:1"
             offset="0.1111" />
          <stop
             id="stop93"
             style="stop-color:#969696;stop-opacity:1"
             offset="0.2396" />
          <stop
             id="stop95"
             style="stop-color:#686868;stop-opacity:1"
             offset="0.3698" />
          <stop
             id="stop97"
             style="stop-color:#424242;stop-opacity:1"
             offset="0.4991" />
          <stop
             id="stop99"
             style="stop-color:#252525;stop-opacity:1"
             offset="0.62730002" />
          <stop
             id="stop101"
             style="stop-color:#111111;stop-opacity:1"
             offset="0.75419998" />
          <stop
             id="stop103"
             style="stop-color:#040404;stop-opacity:1"
             offset="0.87919998" />
          <stop
             id="stop105"
             style="stop-color:#000000;stop-opacity:1"
             offset="1" />
        </linearGradient>
        <ellipse
           cx="194.76401"
           cy="495.62299"
           rx="160.94"
           ry="123.604"
           id="ellipse107"
           style="fill:url(#XMLID_3_) #000000" />
      </g>
    </mask>
    <mask
       id="XMLID_26_">
      <g
         id="g69">
        <linearGradient
           x1="211.7222"
           y1="562.85791"
           x2="200.0733"
           y2="466.75449"
           id="XMLID_1_"
           gradientUnits="userSpaceOnUse">
          <stop
             id="stop72"
             style="stop-color:#ffffff;stop-opacity:1"
             offset="0" />
          <stop
             id="stop74"
             style="stop-color:#000000;stop-opacity:1"
             offset="1" />
        </linearGradient>
        <ellipse
           cx="203.617"
           cy="495.98801"
           rx="80.542"
           ry="59.682999"
           id="ellipse76"
           style="fill:url(#XMLID_1_) #000000" />
      </g>
    </mask>
    <linearGradient
       id="linearGradient5498">
      <stop
         id="stop5500"
         style="stop-color:#eeeeee;stop-opacity:1"
         offset="0" />
      <stop
         id="stop5502"
         style="stop-color:#eeeeee;stop-opacity:0"
         offset="1" />
    </linearGradient>
    <radialGradient
       cx="375.21439"
       cy="783.16357"
       r="300.5752"
       fx="375.21439"
       fy="783.16357"
       id="radialGradient29545"
       gradientUnits="userSpaceOnUse"
       gradientTransform="matrix(1.12563,0,0,1.12563,-41.8734,-39.5467)">
      <stop
         id="stop29547"
         style="stop-color:#eeeeef;stop-opacity:0.941176"
         offset="0.0112" />
      <stop
         id="stop29549"
         style="stop-color:#6193cf;stop-opacity:1"
         offset="0.29210001" />
      <stop
         id="stop29551"
         style="stop-color:#2c72c7;stop-opacity:1"
         offset="0.45750001" />
      <stop
         id="stop29553"
         style="stop-color:#0057ae;stop-opacity:1"
         offset="0.6767" />
      <stop
         id="stop29555"
         style="stop-color:#004d9a;stop-opacity:1"
         offset="0.8653" />
      <stop
         id="stop29557"
         style="stop-color:#00438a;stop-opacity:1"
         offset="1" />
    </radialGradient>
    <linearGradient
       x1="220.36789"
       y1="756.76105"
       x2="185.21225"
       y2="491.06723"
       id="linearGradient3928"
       xlink:href="#linearGradient5498"
       gradientUnits="userSpaceOnUse"
       gradientTransform="matrix(0.08428564,0,0,0.08428564,12.002509,12.007535)" />
    <linearGradient
       x1="247.47713"
       y1="274.88394"
       x2="130.31757"
       y2="580.54669"
       id="linearGradient3931"
       xlink:href="#linearGradient5498"
       gradientUnits="userSpaceOnUse"
       gradientTransform="matrix(0.08428564,0,0,0.08428564,12.002509,12.007535)" />
    <linearGradient
       x1="370.62177"
       y1="-309.6048"
       x2="370.20648"
       y2="458.38397"
       id="linearGradient3934"
       xlink:href="#linearGradient5498"
       gradientUnits="userSpaceOnUse"
       gradientTransform="matrix(0.08428564,0,0,0.08428564,12.002509,12.007535)" />
    <linearGradient
       x1="1508.4957"
       y1="-363.42487"
       x2="361.1441"
       y2="630.52039"
       id="linearGradient3937"
       xlink:href="#linearGradient5498"
       gradientUnits="userSpaceOnUse"
       gradientTransform="matrix(0.08428564,0,0,0.08428564,12.002509,12.007535)" />
    <linearGradient
       x1="331.49609"
       y1="790.51508"
       x2="409.85471"
       y2="688.75092"
       id="linearGradient3940"
       xlink:href="#XMLID_5_"
       gradientUnits="userSpaceOnUse"
       gradientTransform="matrix(0.09487444,0,0,0.09487444,8.473189,8.6743156)" />
    <linearGradient
       x1="319.186"
       y1="713.54639"
       x2="373.12509"
       y2="626.00598"
       id="linearGradient3943"
       xlink:href="#XMLID_5_"
       gradientUnits="userSpaceOnUse"
       gradientTransform="matrix(0.09487444,0,0,0.09487444,8.473189,8.6743156)" />
    <linearGradient
       x1="264.5405"
       y1="704.23578"
       x2="335.09619"
       y2="612.60522"
       id="linearGradient3946"
       xlink:href="#XMLID_5_"
       gradientUnits="userSpaceOnUse"
       gradientTransform="matrix(0.09487444,0,0,0.09487444,8.473189,8.6743156)" />
    <linearGradient
       x1="237.20799"
       y1="684.01898"
       x2="328.18469"
       y2="565.86761"
       id="linearGradient3949"
       xlink:href="#XMLID_5_"
       gradientUnits="userSpaceOnUse"
       gradientTransform="matrix(0.09487444,0,0,0.09487444,8.473189,8.6743156)" />
    <linearGradient
       x1="220.9512"
       y1="634.63232"
       x2="278.14471"
       y2="560.35498"
       id="linearGradient3952"
       xlink:href="#XMLID_5_"
       gradientUnits="userSpaceOnUse"
       gradientTransform="matrix(0.09487444,0,0,0.09487444,8.473189,8.6743156)" />
    <linearGradient
       x1="429.84909"
       y1="815.45459"
       x2="480.12021"
       y2="643.30768"
       id="linearGradient3955"
       xlink:href="#XMLID_4_"
       gradientUnits="userSpaceOnUse"
       gradientTransform="matrix(-0.09487444,0,0,0.09487444,98.72485,8.6743156)" />
    <radialGradient
       cx="375.21439"
       cy="783.16357"
       r="300.5752"
       fx="375.21439"
       fy="783.16357"
       id="radialGradient3959"
       xlink:href="#radialGradient29545"
       gradientUnits="userSpaceOnUse"
       gradientTransform="matrix(0.09487444,0,0,0.09487444,8.473189,8.6743156)" />
    <radialGradient
       cx="663.91144"
       cy="649.22662"
       r="427.12018"
       fx="663.91144"
       fy="649.22662"
       id="radialGradient3972"
       xlink:href="#XMLID_22_"
       gradientUnits="userSpaceOnUse"
       gradientTransform="matrix(0.08428564,0,0,0.08428564,12.002509,12.007534)" />
    <linearGradient
       x1="13.1875"
       y1="48"
       x2="82.8125"
       y2="48"
       id="linearGradient3991"
       xlink:href="#linearGradient3985"
       gradientUnits="userSpaceOnUse"
       gradientTransform="matrix(0,1,-1,0,96,0)" />
    <linearGradient
       x1="45.447727"
       y1="92.539597"
       x2="45.447727"
       y2="7.0165396"
       id="ButtonShadow-0"
       gradientUnits="userSpaceOnUse"
       gradientTransform="matrix(1.0058652,0,0,0.994169,100,0)">
      <stop
         id="stop3750-8"
         style="stop-color:#000000;stop-opacity:1"
         offset="0" />
      <stop
         id="stop3752-5"
         style="stop-color:#000000;stop-opacity:0.58823532"
         offset="1" />
    </linearGradient>
    <linearGradient
       x1="32.251034"
       y1="6.1317081"
       x2="32.251034"
       y2="90.238609"
       id="linearGradient3780"
       xlink:href="#ButtonShadow-0"
       gradientUnits="userSpaceOnUse"
       gradientTransform="matrix(1.0238095,0,0,1.0119048,-1.1428571,-98.071429)" />
    <linearGradient
       x1="32.251034"
       y1="6.1317081"
       x2="32.251034"
       y2="90.238609"
       id="linearGradient3772"
       xlink:href="#ButtonShadow-0"
       gradientUnits="userSpaceOnUse"
       gradientTransform="matrix(1.0238095,0,0,1.0119048,-1.1428571,-98.071429)" />
    <linearGradient
       x1="32.251034"
       y1="6.1317081"
       x2="32.251034"
       y2="90.238609"
       id="linearGradient3725"
       xlink:href="#ButtonShadow-0"
       gradientUnits="userSpaceOnUse"
       gradientTransform="matrix(1.0238095,0,0,1.0119048,-1.1428571,-98.071429)" />
    <linearGradient
       x1="32.251034"
       y1="6.1317081"
       x2="32.251034"
       y2="90.238609"
       id="linearGradient3721"
       xlink:href="#ButtonShadow-0"
       gradientUnits="userSpaceOnUse"
       gradientTransform="translate(0,-97)" />
    <linearGradient
       x1="32.251034"
       y1="6.1317081"
       x2="32.251034"
       y2="90.238609"
       id="linearGradient3059"
       xlink:href="#ButtonShadow-0"
       gradientUnits="userSpaceOnUse"
       gradientTransform="matrix(1.0238095,0,0,1.0119048,-1.1428571,-98.071429)" />
    <linearGradient
       inkscape:collect="always"
       xlink:href="#ButtonShadow-0"
       id="linearGradient3112"
       gradientUnits="userSpaceOnUse"
       gradientTransform="matrix(1.0238095,0,0,1.0119048,-1.1428571,-98.071429)"
       x1="32.251034"
       y1="6.1317081"
       x2="32.251034"
       y2="90.238609" />
    <linearGradient
       inkscape:collect="always"
       xlink:href="#ButtonShadow-0"
       id="linearGradient3114"
       gradientUnits="userSpaceOnUse"
       gradientTransform="matrix(1.0238095,0,0,1.0119048,-1.1428571,-98.071429)"
       x1="32.251034"
       y1="6.1317081"
       x2="32.251034"
       y2="90.238609" />
    <linearGradient
       inkscape:collect="always"
       xlink:href="#ButtonShadow-0"
       id="linearGradient3116"
       gradientUnits="userSpaceOnUse"
       gradientTransform="matrix(1.0238095,0,0,1.0119048,-1.1428571,-98.071429)"
       x1="32.251034"
       y1="6.1317081"
       x2="32.251034"
       y2="90.238609" />
    <linearGradient
       inkscape:collect="always"
       xlink:href="#ButtonShadow-0"
       id="linearGradient3118"
       gradientUnits="userSpaceOnUse"
       gradientTransform="matrix(1.0238095,0,0,1.0119048,-1.1428571,-98.071429)"
       x1="32.251034"
       y1="6.1317081"
       x2="32.251034"
       y2="90.238609" />
    <linearGradient
       inkscape:collect="always"
       xlink:href="#ButtonShadow-0"
       id="linearGradient3122"
       gradientUnits="userSpaceOnUse"
       gradientTransform="matrix(1.0238095,0,0,1.0119048,-1.1428571,-98.071429)"
       x1="32.251034"
       y1="6.1317081"
       x2="32.251034"
       y2="90.238609" />
    <linearGradient
       inkscape:collect="always"
       xlink:href="#ButtonShadow-0"
       id="linearGradient3125"
       gradientUnits="userSpaceOnUse"
       gradientTransform="matrix(1.0238095,0,0,-1.0119048,-1.1428571,98.071429)"
       x1="32.251034"
       y1="6.1317081"
       x2="32.251034"
       y2="90.238609" />
    <linearGradient
       inkscape:collect="always"
       xlink:href="#ButtonShadow-0"
       id="linearGradient3128"
       gradientUnits="userSpaceOnUse"
       gradientTransform="matrix(1.0238095,0,0,-1.0119048,-1.1428571,98.071429)"
       x1="32.251034"
       y1="6.1317081"
       x2="32.251034"
       y2="90.238609" />
    <linearGradient
       inkscape:collect="always"
       xlink:href="#ButtonShadow-0"
       id="linearGradient3131"
       gradientUnits="userSpaceOnUse"
       gradientTransform="matrix(1.0238095,0,0,-1.0119048,-1.1428571,98.071429)"
       x1="32.251034"
       y1="6.1317081"
       x2="32.251034"
       y2="90.238609" />
  </defs>
  <metadata
     id="metadata2413">
    <rdf:RDF>
      <cc:Work
         rdf:about="">
        <dc:format>image/svg+xml</dc:format>
        <dc:type
           rdf:resource="http://purl.org/dc/dcmitype/StillImage" />
      </cc:Work>
    </rdf:RDF>
  </metadata>
  <g
     id="layer2"
     style="display:none">
    <rect
       width="86"
       height="85"
       rx="6"
       ry="6"
       x="5"
       y="7"
       id="rect3745"
       style="opacity:0.9;fill:url(#ButtonShadow);fill-opacity:1;fill-rule:nonzero;stroke:none;filter:url(#filter3174)" />
  </g>
  <rect
     style="fill:#ececec;fill-opacity:1;fill-rule:nonzero;stroke:none;display:inline"
     id="rect3716"
     transform="scale(1,-1)"
     y="-91"
     x="6"
     ry="0"
     rx="6"
     height="84"
     width="84" />
  <g
     id="layer3">
    <path
       d="m 66.71875,33.375 c -0.293778,0.198652 -0.610172,0.399525 -0.96875,0.6875 -0.473721,0.380447 -0.966925,0.807717 -1.4375,1.1875 -0.470575,0.379783 -0.807883,0.703879 -1.53125,1.03125 0.166621,-0.07537 -0.734239,0.423523 -1.65625,1 -0.922011,0.576477 -2.075581,1.30635 -3.21875,2.0625 C 56.763081,40.0999 55.625549,40.875356 54.75,41.5 c -0.437775,0.312322 -0.831184,0.60626 -1.09375,0.8125 -0.262566,0.20624 -0.462108,0.436925 -0.28125,0.21875 -1.229517,1.483772 -3.129182,2.150605 -4.84375,2.03125 -0.427756,-0.02978 -1.60014,-0.05751 -2.6875,0 -1.08736,0.05751 -2.296526,0.369957 -2.125,0.28125 0.170829,-0.08833 -0.524852,0.404447 -1.21875,0.96875 -0.693898,0.564303 -1.567504,1.267976 -2.4375,2 -0.869996,0.732024 -1.749057,1.476427 -2.53125,2.09375 -0.782193,0.617323 -1.281825,1.073079 -2.15625,1.46875 -1.788066,0.808829 -3.667495,1.14368 -4.84375,1.25 0.875508,-0.07932 0.436405,-0.129683 0.125,0.09375 -0.311405,0.223433 -0.772218,0.583364 -1.21875,0.96875 -0.893063,0.770771 -1.603185,1.506375 -2.4375,2.09375 -0.663953,0.467095 -1.053075,0.598975 -1.75,0.90625 -0.696925,0.307275 -1.513322,0.656223 -2.34375,1 -0.607501,0.251491 -1.146239,0.49438 -1.6875,0.71875 0.367308,0.547243 0.723467,1.08302 1.21875,1.71875 0.727573,0.933889 1.525968,1.867989 2.15625,2.53125 0.315141,0.33163 0.587703,0.582105 0.75,0.71875 0.162297,0.136645 0.482478,0.05442 -0.5,-0.09375 0.315305,0.04759 0.717092,-0.03548 1.4375,0.625 0.360204,0.330238 0.742496,1.053354 0.71875,1.75 -0.02375,0.696646 -0.319375,1.151257 -0.53125,1.40625 -0.42375,0.509985 -0.696299,0.597906 -0.9375,0.71875 -0.241201,0.120844 -0.454571,0.203653 -0.6875,0.28125 -0.0084,0.0028 -0.02277,-0.0028 -0.03125,0 0.342741,0.562792 0.554735,1.017354 1.09375,1.71875 1.903682,2.477176 5.067829,5.614442 10.0625,8.09375 8.465254,4.201867 14.81993,1.725012 18.625,0.5625 1.085699,-0.331676 1.49297,-0.550436 1.59375,-0.59375 0.0943,-1.29368 0.238709,-2.323753 0.40625,-3.6875 0.03609,-0.293753 0.303168,-3.982576 0.78125,-7.65625 0.239041,-1.836837 0.524863,-3.751173 0.9375,-5.46875 0.412637,-1.717577 0.855818,-3.211905 1.78125,-4.5 1.476456,-2.055717 3.81523,-3.819732 6.15625,-5.3125 1.02448,-0.653267 1.977331,-1.176154 2.90625,-1.65625 -0.57871,0.04516 -1.07805,0.10837 -1.8125,0.09375 -0.63346,-0.01261 -1.283916,-0.05726 -1.9375,-0.1875 -0.653584,-0.130238 -1.486477,-0.09825 -2.3125,-1.34375 -0.481427,-0.726212 -0.395736,-1.251726 -0.375,-1.59375 0.02074,-0.342024 0.05956,-0.572624 0.125,-0.8125 0.130882,-0.479752 0.315892,-0.941192 0.53125,-1.4375 C 63.805716,43.288633 64.380268,42.150572 65,41 c 1.239464,-2.301144 2.534646,-4.451611 2.96875,-5.125 0.145004,-0.225025 0.18704,-0.38594 0.1875,-0.46875 4.6e-4,-0.08281 0.01119,-0.185141 -0.28125,-0.53125 -0.49948,-0.590931 -0.830306,-1.071842 -1.15625,-1.5 z"
       id="path4002"
       style="opacity:0.4;fill:#323232" />
    <path
       d="m 699.57098,390.89499 c 0,162.14779 -129.16018,293.746 -288.30398,293.746 -159.1438,0 -288.30399,-131.59821 -288.30399,-293.746 0,-162.14779 129.16019,-293.746003 288.30399,-293.746003 159.1438,0 288.30398,131.598213 288.30398,293.746003 z"
       inkscape:connector-curvature="0"
       transform="matrix(0.09487444,0,0,0.09487444,8.473189,8.6743156)"
       mask="url(#XMLID_23_)"
       id="ellipse40"
       style="opacity:0.86000001;fill:#eeeeee" />
    <path
       d="M 82.8125,48 C 82.8125,28.78264 67.217366,13.1875 48,13.1875 28.782635,13.1875 13.1875,28.78264 13.1875,48 13.1875,67.217366 28.782635,82.8125 48,82.8125 67.217366,82.8125 82.8125,67.217366 82.8125,48 z m -2.28125,0 C 80.53125,65.962757 65.962757,80.53125 48,80.53125 30.037245,80.53125 15.4375,65.962757 15.4375,48 15.4375,30.037249 30.037245,15.46875 48,15.46875 65.962757,15.46875 80.53125,30.037249 80.53125,48 z"
       inkscape:connector-curvature="0"
       id="path3980"
       style="opacity:0.4;fill:url(#linearGradient3991);fill-opacity:1;stroke:none" />
    <path
       d="m 64.101278,26.575025 c -1.405374,0 -4.133868,3.238634 -5.156519,3.749912 -1.022651,0.511372 -9.118758,6.306206 -9.885723,7.328953 -0.766965,1.022556 -1.789712,1.448732 -2.897464,1.363535 -1.107754,-0.0851 -4.609947,-0.120206 -5.802997,0.561561 -1.193237,0.681863 -6.63912,6.256114 -8.002648,6.937975 -1.36344,0.681579 -3.142342,1.030811 -3.994592,1.116103 -0.852077,0.0851 -3.675251,3.229905 -4.442215,3.826569 -0.766964,0.596666 -6.827542,3.219184 -7.679705,3.730273 -0.852251,0.511372 6.217221,7.672777 7.239872,7.843077 1.022651,0.170678 -0.969666,3.064114 -2.671952,4.050853 -2.986834,1.731335 1.252692,6.808875 11.579262,12.473011 8.927219,4.896591 19.282502,3.865211 22.79997,2.677757 2.487418,-0.840022 0.362827,-2.819466 0.448214,-4.182906 0.085,-1.363636 0.156637,-3.156569 0.327127,-4.690403 0.170585,-1.533929 0.76687,-14.40241 2.982755,-17.811151 2.215603,-3.408553 8.54847,-7.500676 10.764261,-7.926756 2.215887,-0.426082 1.789616,-1.278339 1.789616,-2.045208 0,-0.76687 -0.340789,-2.471384 -0.937453,-2.72707 -0.596477,-0.255593 -2.924124,1.279666 -3.691089,1.45006 -0.766965,0.170395 -4.431489,0.426176 -4.942956,-0.425987 -0.511279,-0.852351 4.134055,-9.544838 4.730627,-10.56749 0.596665,-1.022746 0.852161,-2.386376 -0.255781,-3.834918 -1.107471,-1.449017 -1.874529,-2.89775 -2.30061,-2.89775 z"
       inkscape:connector-curvature="0"
       id="path58"
       style="fill:#1c5eaa;fill-opacity:1" />
    <path
       d="m 47.101777,42.63935 c 0,0 -3.3762,-0.519532 -5.324257,1.428619 -1.948145,1.948056 -3.63672,6.233628 -3.506465,7.532363 0.129698,1.298737 4.025902,-4.415549 5.714002,-4.805009 1.68848,-0.389743 3.506559,-3.247076 3.11672,-4.155973 z"
       inkscape:connector-curvature="0"
       id="path60"
       style="fill:#ffffff" />
    <path
       d="M 48,12 C 28.140916,12 12,28.140917 12,48 12,67.859081 28.140916,84 48,84 67.859081,84 84,67.859081 84,48 84,28.140917 67.859081,12 48,12 z m 0,2.373047 C 66.575649,14.373047 81.626953,29.424351 81.626953,48 81.626953,66.575649 66.575649,81.626956 48,81.626956 29.424349,81.626956 14.373044,66.575649 14.373044,48 14.373044,29.424351 29.424349,14.373047 48,14.373047 z"
       inkscape:connector-curvature="0"
       id="path3966"
       style="font-size:medium;font-style:normal;font-variant:normal;font-weight:normal;font-stretch:normal;text-indent:0;text-align:start;text-decoration:none;line-height:normal;letter-spacing:normal;word-spacing:normal;text-transform:none;direction:ltr;block-progression:tb;writing-mode:lr-tb;text-anchor:start;color:#000000;fill:#1c5eaa;fill-opacity:1;fill-rule:nonzero;stroke:none;stroke-width:4.21699429;marker:none;visibility:visible;display:inline;overflow:visible;enable-background:accumulate;font-family:Abandoned Bitplane;-inkscape-font-specification:Abandoned Bitplane" />
    <path
       d="M 85,48 C 85,68.434536 68.434536,85 48,85 27.565464,85 11,68.434536 11,48 11,27.565464 27.565464,11 48,11 68.434536,11 85,27.565464 85,48 z m -1,0 C 84,28.117749 67.882251,12 48,12 28.117749,12 12,28.117749 12,48 12,67.882251 28.117749,84 48,84 67.882251,84 84,67.882251 84,48 z"
       inkscape:connector-curvature="0"
       id="path3819"
       style="fill:#ffffff;fill-opacity:1;stroke:none" />
  </g>
</svg>
