<?xml version="1.0" encoding="UTF-8" standalone="no"?>
<!-- Created with Inkscape (http://www.inkscape.org/) -->

<svg
   xmlns:dc="http://purl.org/dc/elements/1.1/"
   xmlns:cc="http://creativecommons.org/ns#"
   xmlns:rdf="http://www.w3.org/1999/02/22-rdf-syntax-ns#"
   xmlns:svg="http://www.w3.org/2000/svg"
   xmlns="http://www.w3.org/2000/svg"
   xmlns:xlink="http://www.w3.org/1999/xlink"
   xmlns:sodipodi="http://sodipodi.sourceforge.net/DTD/sodipodi-0.dtd"
   xmlns:inkscape="http://www.inkscape.org/namespaces/inkscape"
   version="1.0"
   width="96"
   height="96"
   id="svg2408"
   style="display:inline"
   inkscape:version="0.91 r13725"
   sodipodi:docname="baloo.svg">
  <sodipodi:namedview
     pagecolor="#ffffff"
     bordercolor="#666666"
     borderopacity="1"
     objecttolerance="10"
     gridtolerance="10"
     guidetolerance="10"
     inkscape:pageopacity="0"
     inkscape:pageshadow="2"
     inkscape:window-width="1366"
     inkscape:window-height="701"
     id="namedview105"
     showgrid="false"
     inkscape:zoom="0.99627015"
     inkscape:cx="90.544995"
     inkscape:cy="41.276121"
     inkscape:window-x="-4"
     inkscape:window-y="0"
     inkscape:window-maximized="1"
     inkscape:current-layer="svg2408" />
  <defs
     id="defs2410">
    <linearGradient
       inkscape:collect="always"
       id="linearGradient3866">
      <stop
         style="stop-color:#81a4cf;stop-opacity:1;"
         offset="0"
         id="stop3868" />
      <stop
         style="stop-color:#81a4cf;stop-opacity:0;"
         offset="1"
         id="stop3870" />
    </linearGradient>
    <linearGradient
       id="linearGradient4042">
      <stop
         id="stop4044"
         style="stop-color:#000000;stop-opacity:1"
         offset="0" />
      <stop
         id="stop4046"
         style="stop-color:#000000;stop-opacity:0"
         offset="1" />
    </linearGradient>
    <linearGradient
       id="linearGradient4007">
      <stop
         id="stop4009"
         style="stop-color:#000000;stop-opacity:1"
         offset="0" />
      <stop
         id="stop4011"
         style="stop-color:#000000;stop-opacity:0"
         offset="1" />
    </linearGradient>
    <linearGradient
       x1="45.447727"
       y1="92.539597"
       x2="45.447727"
       y2="7.0165396"
       id="ButtonShadow"
       gradientUnits="userSpaceOnUse"
       gradientTransform="scale(1.0058652,0.994169)">
      <stop
         id="stop3750"
         style="stop-color:#000000;stop-opacity:1"
         offset="0" />
      <stop
         id="stop3752"
         style="stop-color:#000000;stop-opacity:0.58823532"
         offset="1" />
    </linearGradient>
    <linearGradient
       id="linearGradient3737">
      <stop
         id="stop3739"
         style="stop-color:#ffffff;stop-opacity:1"
         offset="0" />
      <stop
         id="stop3741"
         style="stop-color:#ffffff;stop-opacity:0"
         offset="1" />
    </linearGradient>
    <linearGradient
       id="linearGradient3700">
      <stop
         id="stop3702"
         style="stop-color:#ebebeb;stop-opacity:1"
         offset="0" />
      <stop
         id="stop3704"
         style="stop-color:#fafafa;stop-opacity:1"
         offset="1" />
    </linearGradient>
    <filter
       color-interpolation-filters="sRGB"
       id="filter3174">
      <feGaussianBlur
         id="feGaussianBlur3176"
         stdDeviation="1.71" />
    </filter>
    <linearGradient
       x1="36.357143"
       y1="6"
       x2="36.357143"
       y2="63.893143"
       id="linearGradient3188"
       xlink:href="#linearGradient3737"
       gradientUnits="userSpaceOnUse" />
    <linearGradient
       id="linearGradient3405">
      <stop
         id="stop3407"
         style="stop-color:#d0d0d0;stop-opacity:1"
         offset="0" />
      <stop
         id="stop3409"
         style="stop-color:#a1a1a1;stop-opacity:1"
         offset="1" />
    </linearGradient>
    <linearGradient
       id="linearGradient3553">
      <stop
         id="stop3555"
         style="stop-color:#5496b4;stop-opacity:0.78431374"
         offset="0" />
      <stop
         id="stop3557"
         style="stop-color:#dfecf2;stop-opacity:0.50196081"
         offset="1" />
    </linearGradient>
    <linearGradient
       id="linearGradient3192">
      <stop
         id="stop3194"
         style="stop-color:#404040;stop-opacity:1"
         offset="0" />
      <stop
         id="stop3200"
         style="stop-color:#b7b7b7;stop-opacity:1"
         offset="0.5" />
      <stop
         id="stop3196"
         style="stop-color:#404040;stop-opacity:1"
         offset="1" />
    </linearGradient>
    <filter
       color-interpolation-filters="sRGB"
       id="filter3274">
      <feGaussianBlur
         id="feGaussianBlur3276"
         stdDeviation="1.9857422" />
    </filter>
    <linearGradient
       id="linearGradient5452">
      <stop
         id="stop5454"
         style="stop-color:#ffffff;stop-opacity:1"
         offset="0" />
      <stop
         id="stop5456"
         style="stop-color:#ffffff;stop-opacity:0"
         offset="1" />
    </linearGradient>
    <linearGradient
       id="linearGradient3425">
      <stop
         id="stop3427"
         style="stop-color:#000000;stop-opacity:1"
         offset="0" />
      <stop
         id="stop3429"
         style="stop-color:#000000;stop-opacity:0"
         offset="1" />
    </linearGradient>
    <linearGradient
       id="linearGradient3363">
      <stop
         id="stop3365"
         style="stop-color:#000000;stop-opacity:1"
         offset="0" />
      <stop
         id="stop3377"
         style="stop-color:#646464;stop-opacity:1"
         offset="0.2" />
      <stop
         id="stop3371"
         style="stop-color:#c8c8c8;stop-opacity:1"
         offset="0.30000001" />
      <stop
         id="stop3373"
         style="stop-color:#646464;stop-opacity:1"
         offset="0.40000001" />
      <stop
         id="stop3367"
         style="stop-color:#000000;stop-opacity:1"
         offset="1" />
    </linearGradient>
    <filter
       x="-0.09372972"
       y="-0.16673079"
       width="1.1874593"
       height="1.3334616"
       color-interpolation-filters="sRGB"
       id="filter3439">
      <feGaussianBlur
         id="feGaussianBlur3441"
         stdDeviation="0.31930287" />
    </filter>
    <radialGradient
       cx="63.937504"
       cy="95.865532"
       r="20.6875"
       fx="63.937504"
       fy="95.865532"
       id="radialGradient3217"
       xlink:href="#linearGradient3405"
       gradientUnits="userSpaceOnUse"
       gradientTransform="matrix(0.1433207,-0.1433132,0.8374475,0.8374024,38.231607,-15.647539)" />
    <linearGradient
       x1="40.113346"
       y1="2.60251"
       x2="40.113346"
       y2="75.039833"
       id="linearGradient3219"
       xlink:href="#linearGradient3553"
       gradientUnits="userSpaceOnUse" />
    <linearGradient
       x1="12.75"
       y1="11.75"
       x2="63.25"
       y2="64"
       id="linearGradient3221"
       xlink:href="#linearGradient3192"
       gradientUnits="userSpaceOnUse" />
    <linearGradient
       x1="34.795921"
       y1="2.4125435"
       x2="26.033436"
       y2="49.632542"
       id="linearGradient3223"
       xlink:href="#linearGradient5452"
       gradientUnits="userSpaceOnUse"
       gradientTransform="matrix(0.9931034,0,0,0.9931034,0.512069,0.5103448)" />
    <linearGradient
       x1="124.34372"
       y1="42.893944"
       x2="10.007462"
       y2="21.098124"
       id="linearGradient3225"
       xlink:href="#linearGradient5452"
       gradientUnits="userSpaceOnUse" />
    <radialGradient
       cx="31.357048"
       cy="22.817865"
       r="7.3570485"
       fx="31.357048"
       fy="22.817865"
       id="radialGradient3227"
       xlink:href="#linearGradient5452"
       gradientUnits="userSpaceOnUse"
       gradientTransform="matrix(1.0000002,4.8290072e-8,-3.4809718e-8,0.7208464,-6.5191416e-6,6.3696886)" />
    <linearGradient
       x1="53.797203"
       y1="73.685364"
       x2="61.486988"
       y2="81.817085"
       id="linearGradient3229"
       xlink:href="#linearGradient3425"
       gradientUnits="userSpaceOnUse"
       gradientTransform="matrix(0.6875241,-0.6874876,0.6875241,0.6874876,23.861388,39.569248)" />
    <linearGradient
       x1="72"
       y1="129.125"
       x2="55.941025"
       y2="129.125"
       id="linearGradient3231"
       xlink:href="#linearGradient3363"
       gradientUnits="userSpaceOnUse"
       gradientTransform="matrix(0.97228013,0,0,0.97228013,-11.10833,44.852525)" />
    <linearGradient
       x1="64.414215"
       y1="87.40625"
       x2="64.414215"
       y2="75.81768"
       id="linearGradient3233"
       xlink:href="#linearGradient5452"
       gradientUnits="userSpaceOnUse"
       gradientTransform="matrix(0.6875241,-0.6874876,0.6875241,0.6874876,23.861388,39.569248)" />
    <linearGradient
       x1="22.221363"
       y1="14.907595"
       x2="83.446823"
       y2="78.167587"
       id="linearGradient4029"
       xlink:href="#linearGradient4007"
       gradientUnits="userSpaceOnUse"
       gradientTransform="matrix(0.99635096,-0.08535079,0.08535079,0.99635096,-0.3317144,16.320707)" />
    <linearGradient
       x1="22.221363"
       y1="14.907595"
       x2="83.446823"
       y2="78.167587"
       id="linearGradient4132"
       xlink:href="#linearGradient4007"
       gradientUnits="userSpaceOnUse"
       gradientTransform="matrix(0.99035174,0.13857643,-0.13857643,0.99035174,5.2104084,8.0650361)" />
    <linearGradient
       id="linearGradient3737-5">
      <stop
         id="stop3739-3"
         style="stop-color:#ffffff;stop-opacity:1"
         offset="0" />
      <stop
         id="stop3741-5"
         style="stop-color:#ffffff;stop-opacity:0"
         offset="1" />
    </linearGradient>
    <radialGradient
       cx="48"
       cy="90.171875"
       r="42"
       fx="48"
       fy="90.171875"
       id="radialGradient2858"
       xlink:href="#linearGradient3737-5"
       gradientUnits="userSpaceOnUse"
       gradientTransform="matrix(1.1573129,0,0,0.99590774,-7.551021,0.1971319)" />
    <linearGradient
       x1="45.447727"
       y1="92.539597"
       x2="45.447727"
       y2="7.0165396"
       id="ButtonShadow-0"
       gradientUnits="userSpaceOnUse"
       gradientTransform="matrix(1.0058652,0,0,0.994169,100,0)">
      <stop
         id="stop3750-8"
         style="stop-color:#000000;stop-opacity:1"
         offset="0" />
      <stop
         id="stop3752-5"
         style="stop-color:#000000;stop-opacity:0.58823532"
         offset="1" />
    </linearGradient>
    <linearGradient
       x1="32.251034"
       y1="6.1317081"
       x2="32.251034"
       y2="90.238609"
       id="linearGradient3780"
       xlink:href="#ButtonShadow-0"
       gradientUnits="userSpaceOnUse"
       gradientTransform="matrix(1.0238095,0,0,1.0119048,-1.1428571,-98.071429)" />
    <linearGradient
       x1="32.251034"
       y1="6.1317081"
       x2="32.251034"
       y2="90.238609"
       id="linearGradient3772"
       xlink:href="#ButtonShadow-0"
       gradientUnits="userSpaceOnUse"
       gradientTransform="matrix(1.0238095,0,0,1.0119048,-1.1428571,-98.071429)" />
    <linearGradient
       x1="32.251034"
       y1="6.1317081"
       x2="32.251034"
       y2="90.238609"
       id="linearGradient3721"
       xlink:href="#ButtonShadow-0"
       gradientUnits="userSpaceOnUse"
       gradientTransform="matrix(1,0,0,-1,0,97)" />
    <linearGradient
       x1="32.251034"
       y1="6.1317081"
       x2="32.251034"
       y2="90.238609"
       id="linearGradient2918"
       xlink:href="#ButtonShadow-0"
       gradientUnits="userSpaceOnUse"
       gradientTransform="matrix(1.0238095,0,0,1.0119048,-1.1428571,-98.071429)" />
    <linearGradient
       x1="48"
       y1="90"
       x2="48"
       y2="5.9877172"
       id="linearGradient3979"
       xlink:href="#linearGradient3700"
       gradientUnits="userSpaceOnUse" />
    <linearGradient
       x1="32.251034"
       y1="6.1317081"
       x2="32.251034"
       y2="90.238609"
       id="linearGradient3987"
       xlink:href="#ButtonShadow-0"
       gradientUnits="userSpaceOnUse"
       gradientTransform="matrix(1.0238095,0,0,-1.0119048,-1.1428571,98.071429)" />
    <linearGradient
       x1="40.543461"
       y1="83.183121"
       x2="40.543461"
       y2="-52.934109"
       id="linearGradient7949"
       xlink:href="#linearGradient4042"
       gradientUnits="userSpaceOnUse"
       gradientTransform="matrix(1.0642373,0,0,1.0642373,-1.0152197,-4.4276623)" />
    <linearGradient
       inkscape:collect="always"
       xlink:href="#linearGradient4042"
       id="linearGradient3070"
       gradientUnits="userSpaceOnUse"
       gradientTransform="matrix(1.0642373,0,0,1.0642373,-1.0152197,-4.4276623)"
       x1="40.543461"
       y1="83.183121"
       x2="40.543461"
       y2="-52.934109" />
    <radialGradient
       inkscape:collect="always"
       xlink:href="#linearGradient3866"
       id="radialGradient3872"
       cx="38"
       cy="37.75"
       fx="38"
       fy="37.75"
       r="38.173105"
       gradientUnits="userSpaceOnUse"
       gradientTransform="matrix(-0.64219139,-1.588017,1.7537562,-0.70929134,-3.8010231,124.87039)" />
    <radialGradient
       inkscape:collect="always"
       xlink:href="#linearGradient3866"
       id="radialGradient3876"
       gradientUnits="userSpaceOnUse"
       gradientTransform="matrix(0.16306876,-0.43055264,0.90039726,0.34105529,-2.1866081,41.236159)"
       cx="45.800728"
       cy="19.667021"
       fx="45.800728"
       fy="19.667021"
       r="38.173105" />
  </defs>
  <metadata
     id="metadata2413">
    <rdf:RDF>
      <cc:Work
         rdf:about="">
        <dc:format>image/svg+xml</dc:format>
        <dc:type
           rdf:resource="http://purl.org/dc/dcmitype/StillImage" />
        <dc:title />
      </cc:Work>
    </rdf:RDF>
  </metadata>
  <rect
     style="fill:#16a085;fill-opacity:1;stroke:none"
     id="rect907-7"
     width="85.612999"
     height="84.205963"
     x="5.1935005"
     y="5.8970184" />
  <rect
     y="82.365341"
     x="5.1935105"
     height="7.7830014"
     width="85.612976"
     id="rect920-0"
     style="fill:#292f34;fill-opacity:1;stroke:none" />
  <rect
     y="85.197197"
     x="72.950325"
     height="2.1286306"
     width="2.6377521"
     id="rect827-9"
     style="fill:#f7f7f7;fill-opacity:1;stroke:none" />
  <rect
     y="84.246948"
     x="18.66065"
     height="3.2549388"
     width="3.1368015"
     id="rect5248-6"
     style="fill:#d45500;fill-opacity:1;stroke:none" />
  <rect
     style="fill:#349ba3;fill-opacity:1;stroke:none"
     id="rect5250-6"
     width="3.1368015"
     height="3.2549388"
     x="24.658619"
     y="84.246948" />
  <rect
     style="fill:#cccccc;fill-opacity:1;stroke:none"
     id="rect5252-5"
     width="3.1368015"
     height="3.2549388"
     x="13.024117"
     y="84.246948" />
  <rect
     y="84.246948"
     x="29.75493"
     height="3.2549388"
     width="3.1368015"
     id="rect5254-3"
     style="fill:#16a085;fill-opacity:1;stroke:none" />
  <path
     inkscape:connector-curvature="0"
     style="fill:#f7f7f7;fill-opacity:1;stroke:none"
     d="m 9.2551589,83.823292 -0.7459966,0.07209 0,3.085147 0.7386519,-0.111414 0,-1.31565 0.9924838,1.459011 0.778645,-0.247398 -1.016972,-1.402489 1.025134,-1.323846 -0.794967,-0.183504 -0.9843238,1.323846 0.00734,-1.355795 z m -1.6919585,0.752036 c -0.00839,8.47e-4 -0.016597,0.0051 -0.022857,0.01148 l -0.2930115,0.294098 c -0.012239,0.01245 -0.014846,0.03168 -0.00576,0.0467 l 0.342798,0.566895 C 7.5235252,85.597176 7.474753,85.707866 7.4399085,85.82464 l -0.6292812,0.131066 c -0.017531,0.0037 -0.030196,0.01963 -0.030196,0.03769 l 0,0.41534 c 0,0.01751 0.011713,0.03277 0.028571,0.03687 l 0.6113244,0.14992 c 0.032589,0.135249 0.083422,0.263916 0.150175,0.381754 l -0.3542264,0.541497 c -0.00979,0.01518 -0.00786,0.03477 0.00488,0.04753 l 0.2930116,0.294095 c 0.012239,0.01245 0.031505,0.01479 0.046517,0.0056 l 0.5550078,-0.337512 c 0.1089192,0.06308 0.2260076,0.112154 0.3501461,0.145815 l 0.1289624,0.624236 c 0.00368,0.01771 0.019675,0.03031 0.037536,0.03031 l 0.4146232,0 c 0.017473,0 0.032572,-0.01148 0.036732,-0.02868 L 9.235512,87.674348 c 0.1279662,-0.03467 0.2491929,-0.08643 0.360755,-0.152372 l 0.546847,0.359631 c 0.01502,0.0099 0.03458,0.008 0.04734,-0.0051 l 0.293014,-0.293986 c 0.01241,-0.01245 0.01485,-0.0309 0.0058,-0.04588 l -0.199968,-0.330141 -0.06448,0.02047 c -0.0094,0.0029 -0.01976,-8.46e-4 -0.0253,-0.0091 0,0 -0.127075,-0.187084 -0.2913798,-0.428444 -0.1964198,0.385846 -0.5963016,0.650453 -1.0577793,0.650453 -0.6556431,0 -1.186739,-0.533844 -1.186739,-1.191952 0,-0.484128 0.2872854,-0.900582 0.7002905,-1.087092 l 0,-0.307203 c -0.075176,0.02638 -0.1472738,0.05812 -0.2162917,0.09585 -6.13e-5,-5.3e-5 -6.223e-4,1.03e-4 -8.196e-4,0 L 7.5876672,84.58165 c -0.00751,-0.0051 -0.016072,-0.0074 -0.024481,-0.0066 z"
     id="path5692_2_-9" />
  <path
     d="m 78.717798,87.369708 0,-0.379781 c 0.07618,-0.136339 0.169027,-0.25903 0.278536,-0.368101 0.109526,-0.110363 0.22378,-0.210988 0.342816,-0.301878 0.120617,-0.09219 0.23965,-0.177238 0.357097,-0.255136 0.119041,-0.07921 0.225369,-0.155154 0.319008,-0.227869 0.09522,-0.074 0.172199,-0.148033 0.230924,-0.222028 0.05872,-0.074 0.08808,-0.152566 0.08808,-0.235661 -6e-6,-0.122038 -0.0373,-0.212285 -0.1119,-0.270716 -0.07458,-0.05841 -0.184107,-0.08764 -0.328527,-0.08764 -0.142837,2e-6 -0.252352,0.03183 -0.328532,0.09542 -0.0746,0.0623 -0.12301,0.156458 -0.145231,0.282402 l -0.673725,-0.03115 c 0.01596,-0.107756 0.04841,-0.209042 0.0976,-0.303827 0.04919,-0.0948 0.119041,-0.177881 0.209499,-0.249292 0.09205,-0.07141 0.206324,-0.127232 0.342814,-0.16749 0.138071,-0.04154 0.302343,-0.0623 0.492797,-0.0623 0.180915,2e-6 0.341226,0.01751 0.480894,0.05259 0.139666,0.03376 0.257105,0.08375 0.352338,0.149959 0.09522,0.06621 0.167432,0.147371 0.216638,0.24345 0.04919,0.0948 0.0738,0.203204 0.0738,0.32525 -5e-6,0.128555 -0.03096,0.244754 -0.09283,0.348624 -0.06191,0.103883 -0.141262,0.199955 -0.238065,0.288245 -0.09682,0.087 -0.204738,0.168794 -0.323773,0.245398 -0.117445,0.0766 -0.231713,0.151263 -0.342812,0.223975 -0.111102,0.07271 -0.212674,0.146068 -0.304724,0.22008 -0.09048,0.074 -0.157917,0.153209 -0.202356,0.237608 l 1.556951,0 0,0.449896 -2.34733,0"
     inkscape:connector-curvature="0"
     id="text3830-3"
     style="font-style:normal;font-variant:normal;font-weight:bold;font-stretch:normal;font-size:9px;line-height:100%;font-family:'Liberation Sans';-inkscape-font-specification:'Liberation Sans Bold';text-align:start;writing-mode:lr-tb;text-anchor:start;display:inline;fill:#f7f7f7;fill-opacity:1;stroke:none" />
  <path
     d="m 83.661278,86.58106 c 0,0.122291 -0.02296,0.232484 -0.06888,0.330573 -0.0445,0.09684 -0.111919,0.179613 -0.202323,0.248409 -0.0904,0.0688 -0.203043,0.121648 -0.337922,0.158598 -0.13344,0.03566 -0.289129,0.05351 -0.46706,0.05351 -0.198019,0 -0.365188,-0.0223 -0.5015,-0.06688 -0.134879,-0.04458 -0.246086,-0.103183 -0.333616,-0.175798 -0.08608,-0.07388 -0.151379,-0.157314 -0.195865,-0.250319 -0.04306,-0.09299 -0.07102,-0.187259 -0.08396,-0.282801 l 0.615579,-0.04777 c 0.0086,0.05732 0.02438,0.110187 0.04734,0.158598 0.02438,0.04715 0.05668,0.08789 0.09686,0.12229 0.04018,0.0344 0.08896,0.06115 0.14636,0.08026 0.05884,0.01771 0.127699,0.02675 0.206623,0.02675 0.144919,0 0.25757,-0.03185 0.33792,-0.09554 0.08036,-0.06368 0.120539,-0.161147 0.120539,-0.292357 -5e-6,-0.08024 -0.01946,-0.144588 -0.05812,-0.192999 -0.0373,-0.04841 -0.08536,-0.08534 -0.1442,-0.11083 -0.0574,-0.02675 -0.119819,-0.04458 -0.187259,-0.05351 -0.06744,-0.0089 -0.131299,-0.01362 -0.191559,-0.01362 l -0.210925,0 0,-0.43376 0.198019,0 c 0.06026,2e-6 0.12124,-0.0049 0.18294,-0.01498 0.06312,-0.01012 0.119819,-0.02866 0.170039,-0.05541 0.05022,-0.02675 0.09112,-0.06368 0.122679,-0.110829 0.03156,-0.04841 0.04734,-0.109546 0.04734,-0.183446 0,-0.11083 -0.03514,-0.197456 -0.105459,-0.259874 -0.06888,-0.06368 -0.170039,-0.09554 -0.303481,-0.09554 -0.124839,2e-6 -0.226001,0.03057 -0.303485,0.09172 -0.07606,0.06115 -0.119819,0.14778 -0.131299,0.259873 l -0.604813,-0.03822 c 0.01712,-0.126104 0.05598,-0.235671 0.11622,-0.328668 0.0617,-0.09299 0.138459,-0.170059 0.230307,-0.23121 0.09328,-0.06115 0.200169,-0.106374 0.320698,-0.135658 0.120539,-0.03057 0.248243,-0.04586 0.383124,-0.04586 0.17792,6e-6 0.330745,0.01907 0.458458,0.05732 0.127699,0.03821 0.232449,0.08982 0.314242,0.154784 0.0818,0.06497 0.14204,0.140775 0.1808,0.22739 0.03874,0.08662 0.05812,0.179009 0.05812,0.277073 0,0.07898 -0.01304,0.152878 -0.03874,0.221656 -0.02584,0.06752 -0.06528,0.128673 -0.118379,0.183446 -0.05166,0.05351 -0.11838,0.09999 -0.200167,0.13949 -0.0818,0.03821 -0.178659,0.06688 -0.290571,0.08598 l 0,0.0076 c 0.12482,0.01265 0.233175,0.03821 0.325007,0.07643 0.09184,0.03693 0.167159,0.08343 0.225995,0.13949 0.05882,0.05606 0.102599,0.119742 0.131299,0.191093 0.0287,0.07007 0.04306,0.144588 0.04306,0.223568"
     inkscape:connector-curvature="0"
     id="text3834-4"
     style="font-style:normal;font-variant:normal;font-weight:bold;font-stretch:normal;font-size:9px;line-height:100%;font-family:'Liberation Sans';-inkscape-font-specification:'Liberation Sans Bold';text-align:start;writing-mode:lr-tb;text-anchor:start;display:inline;fill:#f7f7f7;fill-opacity:1;stroke:none" />
  <rect
     style="fill:#f7f7f7;fill-opacity:1;stroke:none"
     id="rect5274-7"
     width="0.44634369"
     height="0.46033263"
     x="84.292503"
     y="85.301338" />
  <rect
     y="86.276871"
     x="84.306641"
     height="0.46033263"
     width="0.44634369"
     id="rect5276-2"
     style="fill:#f7f7f7;fill-opacity:1;stroke:none" />
  <path
     style="font-style:normal;font-variant:normal;font-weight:bold;font-stretch:normal;font-size:9px;line-height:100%;font-family:'Liberation Sans';-inkscape-font-specification:'Liberation Sans Bold';text-align:start;writing-mode:lr-tb;text-anchor:start;display:inline;fill:#f7f7f7;fill-opacity:1;stroke:none"
     id="path5278-1"
     inkscape:connector-curvature="0"
     d="m 85.299059,87.341432 0,-0.379781 c 0.07618,-0.136339 0.169027,-0.25903 0.278536,-0.368101 0.109526,-0.110363 0.223781,-0.210987 0.342816,-0.301877 0.120617,-0.09219 0.23965,-0.177239 0.357097,-0.255137 0.119041,-0.07921 0.225369,-0.155154 0.319008,-0.227869 0.09522,-0.074 0.172199,-0.148032 0.230924,-0.222027 0.05872,-0.074 0.08808,-0.152567 0.08808,-0.235662 -6e-6,-0.122037 -0.0373,-0.212285 -0.1119,-0.270716 -0.07458,-0.05841 -0.184107,-0.08764 -0.328527,-0.08764 -0.142837,10e-7 -0.252352,0.03183 -0.328532,0.09542 -0.0746,0.0623 -0.12301,0.156458 -0.145231,0.282402 l -0.673725,-0.03115 c 0.01596,-0.107756 0.04841,-0.209042 0.0976,-0.303827 0.04919,-0.0948 0.119041,-0.17788 0.209498,-0.249291 0.09205,-0.07141 0.206324,-0.127233 0.342814,-0.167491 0.138071,-0.04154 0.302343,-0.0623 0.492797,-0.0623 0.180916,2e-6 0.341226,0.01751 0.480894,0.05259 0.139666,0.03376 0.257105,0.08375 0.352338,0.149959 0.09522,0.06621 0.167432,0.147371 0.216638,0.24345 0.04919,0.0948 0.0738,0.203205 0.0738,0.32525 -5e-6,0.128556 -0.03096,0.244754 -0.09283,0.348624 -0.06191,0.103884 -0.141262,0.199955 -0.238065,0.288245 -0.09682,0.087 -0.204737,0.168794 -0.323773,0.245398 -0.117445,0.07661 -0.231713,0.151263 -0.342812,0.223976 -0.111102,0.07271 -0.212674,0.146067 -0.304724,0.22008 -0.09048,0.074 -0.157917,0.153208 -0.202356,0.237607 l 1.556951,0 0,0.449896 -2.34733,0" />
  <path
     style="font-style:normal;font-variant:normal;font-weight:bold;font-stretch:normal;font-size:9px;line-height:100%;font-family:'Liberation Sans';-inkscape-font-specification:'Liberation Sans Bold';text-align:start;writing-mode:lr-tb;text-anchor:start;display:inline;fill:#f7f7f7;fill-opacity:1;stroke:none"
     id="path5280-1"
     inkscape:connector-curvature="0"
     d="m 90.448117,86.584457 c 0,0.122291 -0.02296,0.232485 -0.06888,0.330574 -0.0445,0.09684 -0.11192,0.179612 -0.202323,0.248408 -0.0904,0.0688 -0.203043,0.121648 -0.337923,0.158598 -0.133439,0.03567 -0.289129,0.05351 -0.46706,0.05351 -0.198019,0 -0.365188,-0.0223 -0.501499,-0.06687 -0.13488,-0.04458 -0.246087,-0.103184 -0.333617,-0.175799 -0.08608,-0.07388 -0.151379,-0.157314 -0.195865,-0.250319 -0.04306,-0.09299 -0.07102,-0.187259 -0.08396,-0.282801 l 0.615579,-0.04777 c 0.0086,0.05732 0.02438,0.110188 0.04734,0.158598 0.02438,0.04715 0.05668,0.08789 0.09686,0.12229 0.04018,0.0344 0.08896,0.06115 0.146359,0.08026 0.05884,0.01771 0.1277,0.02675 0.206623,0.02675 0.14492,0 0.257571,-0.03185 0.337921,-0.09554 0.08036,-0.06368 0.120539,-0.161147 0.120539,-0.292356 -6e-6,-0.08024 -0.01946,-0.144589 -0.05812,-0.192999 -0.0373,-0.04841 -0.08536,-0.08534 -0.144199,-0.11083 -0.0574,-0.02675 -0.11982,-0.04458 -0.187259,-0.05351 -0.06744,-0.009 -0.1313,-0.01362 -0.191559,-0.01362 l -0.210926,0 0,-0.43376 0.198019,0 c 0.06026,2e-6 0.12124,-0.0049 0.18294,-0.01498 0.06312,-0.01012 0.119819,-0.02866 0.170039,-0.05541 0.05022,-0.02675 0.09112,-0.06368 0.122679,-0.11083 0.03156,-0.04841 0.04734,-0.109546 0.04734,-0.183446 0,-0.110829 -0.03514,-0.197456 -0.10546,-0.259874 -0.06888,-0.06368 -0.170039,-0.09554 -0.303481,-0.09554 -0.124839,2e-6 -0.226001,0.03057 -0.303484,0.09172 -0.07606,0.06115 -0.11982,0.14778 -0.131299,0.259873 l -0.604814,-0.03821 c 0.01712,-0.126104 0.05598,-0.235671 0.11622,-0.328668 0.0617,-0.09299 0.13846,-0.170059 0.230307,-0.23121 0.09328,-0.06115 0.200169,-0.106374 0.320698,-0.135657 0.12054,-0.03057 0.248243,-0.04586 0.383125,-0.04586 0.177919,6e-6 0.330744,0.01907 0.458457,0.05732 0.1277,0.03822 0.232449,0.08982 0.314243,0.154785 0.0818,0.06497 0.14204,0.140775 0.180799,0.22739 0.03874,0.08662 0.05812,0.179009 0.05812,0.277073 0,0.07898 -0.01304,0.152877 -0.03874,0.221656 -0.02584,0.06752 -0.06528,0.128672 -0.11838,0.183445 -0.05166,0.05351 -0.118379,0.09999 -0.200167,0.139491 -0.0818,0.03821 -0.178659,0.06688 -0.290571,0.08598 l 0,0.0076 c 0.12482,0.01265 0.233175,0.03821 0.325007,0.07643 0.09184,0.03693 0.167159,0.08343 0.225995,0.139491 0.05882,0.05606 0.102599,0.119741 0.131299,0.191092 0.0287,0.07007 0.04306,0.144589 0.04306,0.223569" />
  <rect
     style="fill:#f7f7f7;fill-opacity:1;stroke:none"
     id="rect5282-3"
     width="2.6377521"
     height="2.1286306"
     x="69.033943"
     y="85.222076" />
  <rect
     y="85.246956"
     x="65.1922"
     height="2.1286306"
     width="2.6377521"
     id="rect5284-6"
     style="fill:#f7f7f7;fill-opacity:1;stroke:none" />
  <path
     sodipodi:type="star"
     style="fill:#f7f7f7;fill-opacity:1;fill-rule:evenodd;stroke:none"
     id="path5286-6"
     sodipodi:sides="3"
     sodipodi:cx="38.975643"
     sodipodi:cy="40.712048"
     sodipodi:r1="0.27668685"
     sodipodi:r2="0.13834342"
     sodipodi:arg1="2.6191892"
     sodipodi:arg2="3.6663868"
     inkscape:flatsided="true"
     inkscape:rounded="0"
     inkscape:randomized="0"
     d="m 38.73586,40.850104 0.240114,-0.414743 0.239121,0.415316 z"
     inkscape:transform-center-x="0.00013789124"
     inkscape:transform-center-y="-0.052120772"
     transform="matrix(1.6212348,0,0,1.4691651,14.156173,26.360824)" />
  <rect
     y="15.75124"
     x="9.2099781"
     height="3.9208996"
     width="3.9238462"
     id="rect5288-9"
     style="fill:#1abc9c;fill-opacity:1;stroke:none" />
  <rect
     style="fill:#1abc9c;fill-opacity:1;stroke:none"
     id="rect5290-5"
     width="3.9238462"
     height="3.9208996"
     x="9.2099781"
     y="23.534241" />
  <rect
     y="31.317238"
     x="9.2099781"
     height="3.9208996"
     width="3.9238462"
     id="rect5292-6"
     style="fill:#1abc9c;fill-opacity:1;stroke:none" />
  <g
     id="layer2"
     style="display:none">
    <rect
       width="86"
       height="85"
       rx="6"
       ry="6"
       x="5"
       y="7"
       id="rect3745"
       style="opacity:0.9;fill:url(#ButtonShadow);fill-opacity:1;fill-rule:nonzero;stroke:none;filter:url(#filter3174)" />
  </g>
  <g
     id="g3965"
     transform="matrix(0.95574646,-0.07189858,0.06928071,0.92094716,0.58667376,2.5863226)">
    <g
       id="g3854"
       style="opacity:0.3;fill:#000000;display:inline"
       transform="matrix(0.91776789,0.34256579,-0.35104743,0.96449219,16.379944,-23.05478)">
      <g
         style="fill:#000000"
         transform="matrix(0.50677982,-0.13579125,0.13579125,0.50677982,-10.251985,45.89415)"
         id="g3856">
        <path
           d="m 101.03596,56.584567 c 0,0 14.86816,-7.132238 24.66538,2.664461 l 5.84395,-5.671773 c -9.8966,-9.896076 -2.75054,-24.750002 -2.75054,-24.75 -2.1751,6.421196 -2.96877,10.530978 -10.05504,17.61687 -7.12919,7.12881 -17.70375,10.140442 -17.70375,10.140442 z"
           inkscape:connector-curvature="0"
           id="path3858"
           style="fill:#000000;fill-opacity:1;fill-rule:evenodd;stroke:#1e1e1e;stroke-width:2.02037954;stroke-linecap:butt;stroke-linejoin:miter;stroke-miterlimit:4;stroke-opacity:1;stroke-dasharray:none;display:inline" />
        <path
           transform="matrix(0.9911353,0,0,0.9910827,55.641208,-16.409904)"
           d="m 74.25,37.75 a 36.25,36.25 0 1 1 -72.5,0 36.25,36.25 0 1 1 72.5,0 z"
           id="path3860"
           style="fill:#000000;fill-opacity:1;stroke:#1e1e1e;stroke-width:4.07700777;stroke-linecap:butt;stroke-linejoin:miter;stroke-miterlimit:4;stroke-opacity:1;stroke-dasharray:none;display:inline"
           inkscape:connector-curvature="0" />
        <g
           style="fill:#000000"
           id="g3862" />
        <rect
           width="12.976847"
           height="61.423706"
           rx="1.7302462"
           ry="1.7302452"
           x="44.640461"
           y="129.75027"
           transform="matrix(0.70713196,-0.7070816,0.70713167,0.70708189,0,0)"
           id="rect3864"
           style="fill:#000000;fill-opacity:1;stroke:#1e1e1e;stroke-width:1.79770875;stroke-linecap:butt;stroke-linejoin:miter;stroke-miterlimit:4;stroke-opacity:1;stroke-dasharray:none;display:inline" />
      </g>
    </g>
    <g
       transform="matrix(0.9311536,0.36462718,-0.36462718,0.9311536,15.677999,-23.881024)"
       style="display:inline"
       id="layer3">
      <g
         id="g3204"
         transform="matrix(0.50677982,-0.13579125,0.13579125,0.50677982,-10.251985,45.89415)">
        <path
           style="fill:#1e1e1e;fill-opacity:1;fill-rule:evenodd;stroke:#1e1e1e;stroke-width:2.02586436;stroke-linecap:butt;stroke-linejoin:miter;stroke-miterlimit:4;stroke-opacity:1;stroke-dasharray:none;display:inline"
           id="path3310"
           inkscape:connector-curvature="0"
           d="m 101.03596,56.584567 c 0,0 14.86816,-7.132238 24.66538,2.664461 l 5.84395,-5.671773 c -9.8966,-9.896076 -2.75054,-24.750002 -2.75054,-24.75 -2.1751,6.421196 -2.96877,10.530978 -10.05504,17.61687 -7.12919,7.12881 -17.70375,10.140442 -17.70375,10.140442 z" />
        <path
           inkscape:connector-curvature="0"
           transform="matrix(0.9911353,0,0,0.9910827,55.641208,-16.409904)"
           style="fill:#16a085;fill-opacity:1;stroke:#1e1e1e;stroke-width:4.08807516;stroke-linecap:butt;stroke-linejoin:miter;stroke-miterlimit:4;stroke-opacity:1;stroke-dasharray:none;display:inline"
           id="path2420"
           d="m 74.25,37.75 a 36.25,36.25 0 1 1 -72.5,0 36.25,36.25 0 1 1 72.5,0 z" />
        <g
           id="g3184" />
        <rect
           style="fill:#1e1e1e;fill-opacity:1;stroke:#1e1e1e;stroke-width:1.80258906;stroke-linecap:butt;stroke-linejoin:miter;stroke-miterlimit:4;stroke-opacity:1;stroke-dasharray:none;display:inline"
           id="rect3361"
           transform="matrix(0.70713183,-0.70708173,0.70713176,0.7070818,0,0)"
           y="130.05972"
           x="44.571445"
           ry="1.7302446"
           rx="1.7302468"
           height="61.423683"
           width="12.976851" />
      </g>
    </g>
  </g>
  <path
     inkscape:connector-curvature="0"
     id="path3874"
     d="m 29.135574,43.029556 c 8.000821,4.74211 18.471372,2.304908 23.370293,-5.440434 4.898922,-7.745345 2.380709,-17.88102 -5.620112,-22.62313 -8.000827,-4.74211 -18.47137,-2.304909 -23.370293,5.440434 -4.898921,7.74534 -2.380713,17.881017 5.620112,22.62313 z m 0.470361,-0.415439 C 28.450562,41.936355 27.354349,41.105883 26.366209,40.127585 20.042127,33.866472 20.156033,23.82174 26.62393,17.699841 c 6.467896,-6.121898 16.844369,-6.011632 23.168455,0.249481 4.648862,4.602572 5.964276,11.481466 3.325077,17.389825 l -9.563503,-4.005835 c -0.110894,0.246329 -0.233087,0.48787 -0.382124,0.723502 -0.263547,0.416675 -0.585269,0.783492 -0.929522,1.111551 l 7.29235,7.208698 c -5.457286,5.165352 -13.689723,5.896963 -19.928728,2.237054 z"
     style="fill:#e6e6e6;fill-opacity:1;fill-rule:evenodd;stroke:none;display:inline" />
  <path
     style="fill:#e6e6e6;fill-opacity:1;fill-rule:evenodd;stroke:none;display:inline"
     d="m 48.207219,15.894782 c -7.50217,-5.497106 -18.159995,-4.088857 -23.788346,3.143806 -5.628351,7.232667 -4.106935,17.565071 3.395235,23.062178 7.502178,5.497106 18.159994,4.088858 23.788347,-3.143806 5.62835,-7.232661 4.106939,-17.565069 -3.395236,-23.062178 z m -0.508503,0.367768 c 1.084048,0.786822 2.094377,1.719883 2.98278,2.789568 5.685765,6.845993 4.596355,16.832123 -2.435797,22.29657 C 41.213547,46.813133 30.896892,45.69511 25.211123,38.849117 21.03149,33.816598 20.39072,26.842437 23.591543,21.218488 l 9.129002,4.91616 c 0.13433,-0.234373 0.279388,-0.462913 0.450617,-0.682948 0.30279,-0.389093 0.658631,-0.722914 1.033132,-1.015969 l -6.557374,-7.88318 c 5.933377,-4.610627 14.197946,-4.538832 20.051796,-0.290001 z"
     id="path3099"
     inkscape:connector-curvature="0" />
  <path
     style="fill:#e6e6e6;fill-opacity:1;fill-rule:evenodd;stroke:none;display:inline"
     d="m 43.100667,13.194293 c -8.931522,-2.593968 -18.461762,2.38066 -21.271369,11.103954 -2.809607,8.723297 2.159842,17.909041 11.091363,20.503008 8.931527,2.593966 18.46176,-2.380659 21.271369,-11.103954 2.809608,-8.723292 -2.159837,-17.909039 -11.091363,-20.503008 z m -0.35172,0.519733 c 1.288018,0.367775 2.556882,0.898202 3.758012,1.598756 7.687217,4.483551 10.085223,14.238508 5.35095,21.781585 -4.734272,7.543075 -14.809551,10.027445 -22.496772,5.543894 -5.650909,-3.295879 -8.642402,-9.628371 -7.56221,-16.008595 l 10.26084,1.490795 c 0.04587,-0.266217 0.10388,-0.530619 0.189332,-0.796007 0.15115,-0.469285 0.37108,-0.90482 0.622506,-1.308451 l -8.861417,-5.159324 c 3.994541,-6.364469 11.783479,-9.128653 18.738759,-7.142653 z"
     id="path3869"
     inkscape:connector-curvature="0" />
</svg>
