<?xml version="1.0" encoding="UTF-8" standalone="no"?>
<!-- Created with Inkscape (http://www.inkscape.org/) -->

<svg
   xmlns:dc="http://purl.org/dc/elements/1.1/"
   xmlns:cc="http://creativecommons.org/ns#"
   xmlns:rdf="http://www.w3.org/1999/02/22-rdf-syntax-ns#"
   xmlns:svg="http://www.w3.org/2000/svg"
   xmlns="http://www.w3.org/2000/svg"
   xmlns:xlink="http://www.w3.org/1999/xlink"
   xmlns:sodipodi="http://sodipodi.sourceforge.net/DTD/sodipodi-0.dtd"
   xmlns:inkscape="http://www.inkscape.org/namespaces/inkscape"
   version="1.0"
   width="96"
   height="96"
   id="svg2408"
   inkscape:version="0.48.4 r9939"
   sodipodi:docname="calligra-stage.svg"
   inkscape:export-filename="/home/tago/.kde4/share/icons/KFaenza/apps/256/libreoffice-base.png"
   inkscape:export-xdpi="240"
   inkscape:export-ydpi="240">
  <sodipodi:namedview
     pagecolor="#ffffff"
     bordercolor="#666666"
     borderopacity="1"
     objecttolerance="10"
     gridtolerance="10"
     guidetolerance="10"
     inkscape:pageopacity="0"
     inkscape:pageshadow="2"
     inkscape:window-width="713"
     inkscape:window-height="478"
     id="namedview200"
     showgrid="false"
     inkscape:zoom="6.6441219"
     inkscape:cx="61.509208"
     inkscape:cy="50.847472"
     inkscape:window-x="571"
     inkscape:window-y="324"
     inkscape:window-maximized="0"
     inkscape:current-layer="svg2408"
     showguides="true"
     inkscape:guide-bbox="true">
    <sodipodi:guide
       orientation="1,0"
       position="89.915489,26.734872"
       id="guide3156" />
    <sodipodi:guide
       orientation="0,1"
       position="74.569912,91.953573"
       id="guide3158" />
  </sodipodi:namedview>
  <defs
     id="defs2410">
    <linearGradient
       id="linearGradient4508">
      <stop
         id="stop4510"
         style="stop-color:#ffffff;stop-opacity:1"
         offset="0" />
      <stop
         id="stop4512"
         style="stop-color:#ffffff;stop-opacity:0"
         offset="1" />
    </linearGradient>
    <linearGradient
       id="linearGradient4110">
      <stop
         id="stop4112"
         style="stop-color:#a240b0;stop-opacity:1"
         offset="0" />
      <stop
         id="stop4114"
         style="stop-color:#70247c;stop-opacity:1"
         offset="1" />
    </linearGradient>
    <linearGradient
       id="linearGradient4036">
      <stop
         id="stop4038"
         style="stop-color:#b1d5ac;stop-opacity:1"
         offset="0" />
      <stop
         id="stop4040"
         style="stop-color:#f1faef;stop-opacity:1"
         offset="1" />
    </linearGradient>
    <linearGradient
       id="linearGradient4030">
      <stop
         id="stop4032"
         style="stop-color:#97c08f;stop-opacity:1"
         offset="0" />
      <stop
         id="stop4034"
         style="stop-color:#b4d6af;stop-opacity:1"
         offset="1" />
    </linearGradient>
    <linearGradient
       id="linearGradient3914">
      <stop
         id="stop3916"
         style="stop-color:#000000;stop-opacity:1"
         offset="0" />
      <stop
         id="stop3918"
         style="stop-color:#000000;stop-opacity:0"
         offset="1" />
    </linearGradient>
    <linearGradient
       id="linearGradient3873">
      <stop
         id="stop3875"
         style="stop-color:#dfdfdf;stop-opacity:1"
         offset="0" />
      <stop
         id="stop3877"
         style="stop-color:#fefefe;stop-opacity:1"
         offset="1" />
    </linearGradient>
    <linearGradient
       id="linearGradient3856">
      <stop
         id="stop3858"
         style="stop-color:#b3b3b3;stop-opacity:1"
         offset="0" />
      <stop
         id="stop3860"
         style="stop-color:#e6e6e6;stop-opacity:1"
         offset="1" />
    </linearGradient>
    <linearGradient
       x1="45.447727"
       y1="92.539597"
       x2="45.447727"
       y2="7.0165396"
       id="ButtonShadow"
       gradientUnits="userSpaceOnUse"
       gradientTransform="scale(1.0058652,0.994169)">
      <stop
         id="stop3750"
         style="stop-color:#000000;stop-opacity:1"
         offset="0" />
      <stop
         id="stop3752"
         style="stop-color:#000000;stop-opacity:0.58823532"
         offset="1" />
    </linearGradient>
    <linearGradient
       id="linearGradient3737">
      <stop
         id="stop3739"
         style="stop-color:#ffffff;stop-opacity:1"
         offset="0" />
      <stop
         id="stop3741"
         style="stop-color:#ffffff;stop-opacity:0"
         offset="1" />
    </linearGradient>
    <linearGradient
       id="linearGradient3700">
      <stop
         id="stop3702"
         style="stop-color:#2276c5;stop-opacity:1"
         offset="0" />
      <stop
         id="stop3704"
         style="stop-color:#68baf4;stop-opacity:1"
         offset="1" />
    </linearGradient>
    <filter
       color-interpolation-filters="sRGB"
       id="filter3174">
      <feGaussianBlur
         id="feGaussianBlur3176"
         stdDeviation="1.71" />
    </filter>
    <filter
       x="-0.192"
       y="-0.192"
       width="1.3839999"
       height="1.3839999"
       color-interpolation-filters="sRGB"
       id="filter3794">
      <feGaussianBlur
         id="feGaussianBlur3796"
         stdDeviation="5.28" />
    </filter>
    <linearGradient
       x1="48"
       y1="20.220806"
       x2="48"
       y2="138.66119"
       id="linearGradient3613"
       xlink:href="#linearGradient3737"
       gradientUnits="userSpaceOnUse" />
    <clipPath
       id="clipPath3613">
      <rect
         width="84"
         height="84"
         rx="6"
         ry="6"
         x="6"
         y="6"
         id="rect3615"
         style="fill:#ffffff;fill-opacity:1;fill-rule:nonzero;stroke:none" />
    </clipPath>
    <linearGradient
       x1="45.447727"
       y1="92.539597"
       x2="45.447727"
       y2="7.0165396"
       id="ButtonShadow-0"
       gradientUnits="userSpaceOnUse"
       gradientTransform="matrix(1.0058652,0,0,0.994169,100,0)">
      <stop
         id="stop3750-8"
         style="stop-color:#000000;stop-opacity:1"
         offset="0" />
      <stop
         id="stop3752-5"
         style="stop-color:#000000;stop-opacity:0.58823532"
         offset="1" />
    </linearGradient>
    <linearGradient
       x1="48"
       y1="90"
       x2="48"
       y2="5.9877172"
       id="linearGradient3047"
       xlink:href="#linearGradient3700"
       gradientUnits="userSpaceOnUse"
       gradientTransform="translate(100,0)" />
    <linearGradient
       x1="72"
       y1="8"
       x2="72"
       y2="88"
       id="linearGradient3074"
       xlink:href="#linearGradient4110"
       gradientUnits="userSpaceOnUse" />
    <linearGradient
       x1="32"
       y1="6"
       x2="32"
       y2="90"
       id="linearGradient3872"
       xlink:href="#linearGradient4110"
       gradientUnits="userSpaceOnUse" />
    <radialGradient
       cx="48"
       cy="90.171875"
       r="42"
       fx="48"
       fy="90.171875"
       id="radialGradient3879"
       xlink:href="#linearGradient3737"
       gradientUnits="userSpaceOnUse"
       gradientTransform="matrix(1.1573129,0,0,0.99590774,-7.551021,0.19713193)" />
    <linearGradient
       x1="36.357143"
       y1="6"
       x2="36.357143"
       y2="63.893143"
       id="linearGradient3885"
       xlink:href="#linearGradient3737"
       gradientUnits="userSpaceOnUse" />
    <linearGradient
       x1="32"
       y1="26"
       x2="32"
       y2="84"
       id="linearGradient3901"
       xlink:href="#linearGradient3737"
       gradientUnits="userSpaceOnUse"
       gradientTransform="translate(0,-20)" />
    <linearGradient
       x1="48"
       y1="80"
       x2="48"
       y2="16"
       id="linearGradient3879"
       xlink:href="#linearGradient3873"
       gradientUnits="userSpaceOnUse" />
    <radialGradient
       cx="47.999981"
       cy="47.999424"
       r="34.937546"
       fx="47.999981"
       fy="47.999424"
       id="radialGradient3920"
       xlink:href="#linearGradient3914"
       gradientUnits="userSpaceOnUse"
       gradientTransform="matrix(1.3452582,-3.8835319e-8,3.3050848e-8,1.1448837,-16.572388,-6.9543292)" />
    <linearGradient
       x1="49"
       y1="91"
       x2="49"
       y2="7"
       id="linearGradient3920"
       xlink:href="#ButtonShadow-0"
       gradientUnits="userSpaceOnUse" />
    <linearGradient
       x1="38"
       y1="94"
       x2="38"
       y2="5"
       id="linearGradient3927"
       xlink:href="#ButtonShadow-0"
       gradientUnits="userSpaceOnUse" />
    <linearGradient
       x1="45"
       y1="95"
       x2="45"
       y2="4"
       id="linearGradient3929"
       xlink:href="#ButtonShadow-0"
       gradientUnits="userSpaceOnUse" />
    <linearGradient
       x1="50"
       y1="92"
       x2="50"
       y2="7"
       id="linearGradient3933"
       xlink:href="#ButtonShadow-0"
       gradientUnits="userSpaceOnUse" />
    <linearGradient
       x1="47"
       y1="93"
       x2="47"
       y2="6"
       id="linearGradient3940"
       xlink:href="#ButtonShadow-0"
       gradientUnits="userSpaceOnUse" />
    <linearGradient
       x1="32"
       y1="88"
       x2="32"
       y2="8"
       id="linearGradient3949"
       xlink:href="#linearGradient3856"
       gradientUnits="userSpaceOnUse" />
    <linearGradient
       x1="48"
       y1="80"
       x2="48"
       y2="16"
       id="linearGradient4018"
       xlink:href="#linearGradient4036"
       gradientUnits="userSpaceOnUse" />
    <radialGradient
       cx="47.999981"
       cy="47.999424"
       r="34.937546"
       fx="47.999981"
       fy="47.999424"
       id="radialGradient4020"
       xlink:href="#linearGradient3914"
       gradientUnits="userSpaceOnUse"
       gradientTransform="matrix(1.3452582,-3.8835319e-8,3.3050848e-8,1.1448837,-16.572388,-6.9543292)" />
    <linearGradient
       x1="32"
       y1="88"
       x2="32"
       y2="8"
       id="linearGradient4022"
       xlink:href="#linearGradient4030"
       gradientUnits="userSpaceOnUse" />
    <linearGradient
       id="linearGradient8074-2">
      <stop
         id="stop8076-1"
         style="stop-color:#000000;stop-opacity:0"
         offset="0" />
      <stop
         id="stop8078-94"
         style="stop-color:#000000;stop-opacity:1"
         offset="0.49305555" />
      <stop
         id="stop8080-0"
         style="stop-color:#000000;stop-opacity:0"
         offset="1" />
    </linearGradient>
    <linearGradient
       x1="-17"
       y1="-1194.6378"
       x2="144"
       y2="-1194.6378"
       id="linearGradient5188"
       xlink:href="#linearGradient8074-2"
       gradientUnits="userSpaceOnUse"
       gradientTransform="matrix(0.0458673,0,0,1,-271.91178,3045.2778)" />
    <linearGradient
       x1="-17"
       y1="-1194.6378"
       x2="144"
       y2="-1194.6378"
       id="linearGradient5193"
       xlink:href="#linearGradient8074-2"
       gradientUnits="userSpaceOnUse"
       gradientTransform="matrix(0.07453431,0,0,1,-655.73308,2938.2756)" />
    <linearGradient
       id="linearGradient8754">
      <stop
         id="stop8756"
         style="stop-color:#dc85e9;stop-opacity:1"
         offset="0" />
      <stop
         id="stop8758"
         style="stop-color:#f8dcfb;stop-opacity:1"
         offset="1" />
    </linearGradient>
    <linearGradient
       id="linearGradient8742">
      <stop
         id="stop8744"
         style="stop-color:#9200ff;stop-opacity:1"
         offset="0" />
      <stop
         id="stop8746"
         style="stop-color:#ff00ff;stop-opacity:0"
         offset="1" />
    </linearGradient>
    <linearGradient
       id="linearGradient8717">
      <stop
         id="stop8719"
         style="stop-color:#800080;stop-opacity:1"
         offset="0" />
      <stop
         id="stop8723"
         style="stop-color:#800080;stop-opacity:1"
         offset="0.7268371" />
      <stop
         id="stop8721"
         style="stop-color:#ff00ff;stop-opacity:0"
         offset="1" />
    </linearGradient>
    <linearGradient
       id="linearGradient8964">
      <stop
         id="stop8966"
         style="stop-color:#e196fb;stop-opacity:1"
         offset="0" />
      <stop
         id="stop8968"
         style="stop-color:#f4c7fa;stop-opacity:1"
         offset="0.13010512" />
      <stop
         id="stop8970"
         style="stop-color:#e091f3;stop-opacity:1"
         offset="0.31360075" />
      <stop
         id="stop8972"
         style="stop-color:#d764e9;stop-opacity:1"
         offset="0.44078669" />
      <stop
         id="stop8974"
         style="stop-color:#e7adf0;stop-opacity:1"
         offset="0.68364757" />
      <stop
         id="stop8976"
         style="stop-color:#e6a9f8;stop-opacity:1"
         offset="0.75620717" />
      <stop
         id="stop8978"
         style="stop-color:#e595f2;stop-opacity:1"
         offset="0.88021636" />
      <stop
         id="stop8980"
         style="stop-color:#f2cbf8;stop-opacity:1"
         offset="1" />
    </linearGradient>
    <linearGradient
       id="linearGradient8663">
      <stop
         id="stop8665"
         style="stop-color:#9207a7;stop-opacity:1"
         offset="0" />
      <stop
         id="stop8667"
         style="stop-color:#c658bc;stop-opacity:1"
         offset="0.27254906" />
      <stop
         id="stop8669"
         style="stop-color:#a42eb6;stop-opacity:1"
         offset="0.50966245" />
      <stop
         id="stop8671"
         style="stop-color:#b415cd;stop-opacity:1"
         offset="0.83376038" />
      <stop
         id="stop8673"
         style="stop-color:#950ba8;stop-opacity:1"
         offset="1" />
    </linearGradient>
    <linearGradient
       id="linearGradient14494">
      <stop
         id="stop14496"
         style="stop-color:#dc85e9;stop-opacity:1"
         offset="0" />
      <stop
         id="stop14498"
         style="stop-color:#f2cbf8;stop-opacity:1"
         offset="1" />
    </linearGradient>
    <linearGradient
       id="linearGradient8984">
      <stop
         id="stop8986"
         style="stop-color:#ffffff;stop-opacity:1"
         offset="0" />
      <stop
         id="stop8988"
         style="stop-color:#ffffff;stop-opacity:0"
         offset="1" />
    </linearGradient>
    <linearGradient
       x1="26.993208"
       y1="992.62183"
       x2="26.993208"
       y2="1008.6921"
       id="linearGradient21863"
       xlink:href="#linearGradient14486-9"
       gradientUnits="userSpaceOnUse"
       gradientTransform="matrix(15.9995,0,0,15.9955,-279.247,-17311.2)" />
    <linearGradient
       id="linearGradient14486-9">
      <stop
         id="stop14488-1"
         style="stop-color:#8e03a3;stop-opacity:1"
         offset="0" />
      <stop
         id="stop14490-5"
         style="stop-color:#530260;stop-opacity:1"
         offset="1" />
    </linearGradient>
    <linearGradient
       x1="26.993208"
       y1="992.62183"
       x2="26.993208"
       y2="1008.6921"
       id="linearGradient21859"
       xlink:href="#linearGradient14486-9"
       gradientUnits="userSpaceOnUse"
       gradientTransform="matrix(15.9995,0,0,15.9955,-279.247,-17311.2)" />
    <linearGradient
       x1="26.993208"
       y1="992.62183"
       x2="26.993208"
       y2="1008.6921"
       id="linearGradient21861"
       xlink:href="#linearGradient14486-9"
       gradientUnits="userSpaceOnUse"
       gradientTransform="matrix(15.9995,0,0,15.9955,-279.247,-17311.2)" />
    <radialGradient
       cx="152.3331"
       cy="-754.6377"
       r="15"
       fx="152.3331"
       fy="-754.6377"
       id="radialGradient4155"
       xlink:href="#linearGradient8717"
       gradientUnits="userSpaceOnUse"
       gradientTransform="matrix(1.2696438e-6,0.47379733,-1.3366718,0,-960.75315,-7.278409)" />
    <linearGradient
       x1="1199.2002"
       y1="-1083.6361"
       x2="1199.2002"
       y2="-1131.6356"
       id="linearGradient4301"
       xlink:href="#linearGradient8754"
       gradientUnits="userSpaceOnUse"
       gradientTransform="matrix(0.85714285,0,0,0.66667325,-990.28584,794.43123)" />
    <linearGradient
       x1="1559.5"
       y1="184"
       x2="1542.0002"
       y2="184"
       id="linearGradient4323"
       xlink:href="#linearGradient8742"
       gradientUnits="userSpaceOnUse"
       gradientTransform="matrix(0.53333333,0,0,4.25,-762.93333,-952.25935)" />
    <linearGradient
       x1="1559.5"
       y1="184"
       x2="1542.0002"
       y2="184"
       id="linearGradient4328"
       xlink:href="#linearGradient8742"
       gradientUnits="userSpaceOnUse"
       gradientTransform="matrix(-0.53333333,0,0,4.25,858.93333,-952.25935)" />
    <linearGradient
       x1="453.50003"
       y1="970.5"
       x2="404.49997"
       y2="970.5"
       id="linearGradient4448"
       xlink:href="#linearGradient8964"
       gradientUnits="userSpaceOnUse"
       gradientTransform="matrix(0.59554669,0,0,0.59554669,-207.49419,-524.27124)" />
    <linearGradient
       x1="453.50003"
       y1="970.5"
       x2="404.49997"
       y2="970.5"
       id="linearGradient4460"
       xlink:href="#linearGradient8964"
       gradientUnits="userSpaceOnUse"
       gradientTransform="matrix(0.59554669,0,0,0.59554669,-207.49419,-524.91132)" />
    <linearGradient
       x1="453.50003"
       y1="970.5"
       x2="404.49997"
       y2="970.5"
       id="linearGradient4462"
       xlink:href="#linearGradient8964"
       gradientUnits="userSpaceOnUse"
       gradientTransform="matrix(0.59554669,0,0,0.59554669,-207.49419,-525.5514)" />
    <linearGradient
       x1="453.50003"
       y1="970.5"
       x2="404.49997"
       y2="970.5"
       id="linearGradient4482"
       xlink:href="#linearGradient8663"
       gradientUnits="userSpaceOnUse"
       gradientTransform="matrix(0.59554669,0,0,0.59554669,-207.49419,-526.17287)" />
    <radialGradient
       cx="47.995335"
       cy="46.440277"
       r="13.995334"
       fx="47.995335"
       fy="46.440277"
       id="radialGradient4484"
       xlink:href="#linearGradient14494"
       gradientUnits="userSpaceOnUse"
       gradientTransform="matrix(1,0,0,0.25495832,0,34.599943)" />
    <linearGradient
       x1="1510.4767"
       y1="169.00002"
       x2="1485.8766"
       y2="193.9996"
       id="linearGradient4488"
       xlink:href="#linearGradient8984"
       gradientUnits="userSpaceOnUse"
       gradientTransform="matrix(0.39211044,0,0,0.30769216,-538.81119,-9.3084927)" />
    <linearGradient
       x1="34"
       y1="50.26075"
       x2="62"
       y2="50.26075"
       id="linearGradient4514"
       xlink:href="#linearGradient4508"
       gradientUnits="userSpaceOnUse" />
    <linearGradient
       x1="34"
       y1="50.26075"
       x2="62"
       y2="50.26075"
       id="linearGradient4518"
       xlink:href="#linearGradient4508"
       gradientUnits="userSpaceOnUse"
       gradientTransform="translate(0,6)" />
    <linearGradient
       x1="34"
       y1="50.26075"
       x2="62"
       y2="50.26075"
       id="linearGradient4522"
       xlink:href="#linearGradient4508"
       gradientUnits="userSpaceOnUse"
       gradientTransform="translate(0,12)" />
    <linearGradient
       inkscape:collect="always"
       xlink:href="#linearGradient3856"
       id="linearGradient3162"
       gradientUnits="userSpaceOnUse"
       x1="32"
       y1="88"
       x2="32"
       y2="8" />
    <radialGradient
       inkscape:collect="always"
       xlink:href="#linearGradient3914"
       id="radialGradient3164"
       gradientUnits="userSpaceOnUse"
       gradientTransform="matrix(1.3452582,-3.8835319e-8,3.3050848e-8,1.1448837,-16.572388,-6.9543292)"
       cx="47.999981"
       cy="47.999424"
       fx="47.999981"
       fy="47.999424"
       r="34.937546" />
    <linearGradient
       inkscape:collect="always"
       xlink:href="#linearGradient3873"
       id="linearGradient3166"
       gradientUnits="userSpaceOnUse"
       x1="48"
       y1="80"
       x2="48"
       y2="16" />
    <linearGradient
       inkscape:collect="always"
       xlink:href="#linearGradient3856"
       id="linearGradient3168"
       gradientUnits="userSpaceOnUse"
       x1="32"
       y1="88"
       x2="32"
       y2="8" />
    <radialGradient
       inkscape:collect="always"
       xlink:href="#linearGradient3914"
       id="radialGradient3170"
       gradientUnits="userSpaceOnUse"
       gradientTransform="matrix(1.3452582,-3.8835319e-8,3.3050848e-8,1.1448837,-16.572388,-6.9543292)"
       cx="47.999981"
       cy="47.999424"
       fx="47.999981"
       fy="47.999424"
       r="34.937546" />
    <linearGradient
       inkscape:collect="always"
       xlink:href="#linearGradient8074-2"
       id="linearGradient3960"
       gradientUnits="userSpaceOnUse"
       gradientTransform="matrix(0.0458673,0,0,1,-271.91178,3045.2778)"
       x1="-17"
       y1="-1194.6378"
       x2="144"
       y2="-1194.6378" />
    <linearGradient
       inkscape:collect="always"
       xlink:href="#linearGradient8074-2"
       id="linearGradient3963"
       gradientUnits="userSpaceOnUse"
       gradientTransform="matrix(0.07453431,0,0,1,-655.73308,2938.2756)"
       x1="-17"
       y1="-1194.6378"
       x2="144"
       y2="-1194.6378" />
  </defs>
  <metadata
     id="metadata2413">
    <rdf:RDF>
      <cc:Work
         rdf:about="">
        <dc:format>image/svg+xml</dc:format>
        <dc:type
           rdf:resource="http://purl.org/dc/dcmitype/StillImage" />
        <dc:title></dc:title>
      </cc:Work>
    </rdf:RDF>
  </metadata>
  <rect
     style="fill:#4d4d4d;fill-opacity:1;fill-rule:evenodd;stroke:none"
     id="rect3160"
     width="85.359764"
     height="85.719429"
     x="4.5557179"
     y="4.0464268"
     rx="1.9788908e-07" />
  <g
     id="layer2"
     style="display:none">
    <rect
       width="86"
       height="85"
       rx="6"
       ry="6"
       x="5"
       y="7"
       id="rect3745"
       style="opacity:0.9;fill:url(#ButtonShadow);fill-opacity:1;fill-rule:nonzero;stroke:none;filter:url(#filter3174)" />
  </g>
  <g
     id="layer7"
     style="display:none">
    <path
       d="m 14,12.03125 c -1.155927,0 -1.96875,0.812823 -1.96875,1.96875 l 0,9 0,33 0,17 0,8.28125 0,0.71875 c 0,1.077732 0.717552,1.836973 1.75,1.9375 0.07491,0.0073 0.140555,0.03125 0.21875,0.03125 l 5,0 58,0 5,0 c 0.07224,0 0.1493,-0.0086 0.21875,-0.03125 1.032448,-0.100527 1.75,-0.859768 1.75,-1.9375 l 0,-0.71875 0,-8.28125 0,-17 0,-16.0625 C 74.652678,30.64918 65.364507,21.333257 56.0625,12.03125 l -41.34375,0 -0.71875,0 z"
       inkscape:connector-curvature="0"
       id="path4006"
       style="fill:url(#linearGradient4022);fill-opacity:1;fill-rule:nonzero;stroke:none;display:inline" />
    <path
       d="M 17.90625,17.0625 C 17.446299,17.10552 17.057,17.538075 17.0625,18 l 0,9 0,42 0,9 c -0.0037,0.491884 0.445616,0.941233 0.9375,0.9375 l 5,0 55,0 C 78.491884,78.9412 78.941233,78.491884 78.9375,78 l 0,-9 0,-27.40625 C 78.9348,41.349509 78.83124,41.10791 78.65625,40.9375 L 55.0625,17.34375 C 54.89209,17.16876 54.650491,17.065218 54.40625,17.0625 L 18,17.0625 c -0.03122,-0.0016 -0.06253,-0.0016 -0.09375,0 z"
       inkscape:connector-curvature="0"
       id="path4008"
       style="opacity:0.6;fill:url(#radialGradient4020);fill-opacity:1;fill-rule:nonzero;stroke:none;display:inline" />
    <path
       d="m 18,18 0,9 0,42 0,9 5,0 55,0 0,-9 L 78,41.59375 54.40625,18 z"
       inkscape:connector-curvature="0"
       id="path4010"
       style="fill:url(#linearGradient4018);fill-opacity:1;fill-rule:nonzero;stroke:none;display:inline" />
    <path
       d="m 18,18 0,9 0,42 0,9 5,0 55,0 0,-9 L 78,41.59375 54.40625,18 z m 1,1 35.03125,0 L 77,41.96875 77,69 l 0,8 -54,0 -4,0 0,-8 0,-42 z"
       inkscape:connector-curvature="0"
       id="path4012"
       style="opacity:0.5;fill:#ffffff;fill-opacity:1;fill-rule:nonzero;stroke:none;display:inline" />
    <path
       d="m 14,12.03125 c -1.155927,0 -1.96875,0.812823 -1.96875,1.96875 l 0,9 0,33 0,17 0,8.28125 0,0.71875 c 0,1.077732 0.717552,1.836973 1.75,1.9375 0.07491,0.0073 0.140555,0.03125 0.21875,0.03125 l 5,0 58,0 5,0 c 0.07224,0 0.1493,-0.0086 0.21875,-0.03125 1.032448,-0.100527 1.75,-0.859768 1.75,-1.9375 l 0,-0.71875 0,-8.28125 0,-17 0,-16.0625 C 74.652678,30.64918 65.364507,21.333257 56.0625,12.03125 l -41.34375,0 -0.71875,0 z M 14,13 l 0.71875,0 40.9375,0 C 64.769843,22.114133 73.870942,31.240801 83,40.34375 L 83,56 83,73 83,81.28125 83,82 c 0,0.648416 -0.267049,0.909555 -0.875,0.96875 A 0.96731774,0.96731774 0 0 0 82,83 l -5,0 -58,0 -5,0 c 0.119302,0 0.09888,-0.0094 -0.125,-0.03125 C 13.267049,82.909555 13,82.648416 13,82 L 13,81.28125 13,73 13,56 13,23 13,14 c 0,-0.702508 0.297492,-1 1,-1 z"
       inkscape:connector-curvature="0"
       id="path4014"
       style="opacity:0.1;fill:#000000;fill-opacity:1;fill-rule:nonzero;stroke:none;display:inline" />
    <path
       d="m 14,12.03125 c -1.155927,0 -1.96875,0.812823 -1.96875,1.96875 l 0,1 c 0,-1.155927 0.812823,-1.96875 1.96875,-1.96875 l 0.71875,0 41.34375,0 c 9.302007,9.302007 18.590178,18.61793 27.90625,27.90625 l 0,-1 C 74.652678,30.64918 65.364507,21.333257 56.0625,12.03125 l -41.34375,0 -0.71875,0 z"
       inkscape:connector-curvature="0"
       id="path4016"
       style="opacity:0.2;fill:#117002;fill-opacity:1;fill-rule:nonzero;stroke:none;display:inline" />
  </g>
  <g
     id="layer5"
     style="display:none">
    <rect
       width="66"
       height="66"
       rx="12"
       ry="12"
       x="15"
       y="15"
       clip-path="url(#clipPath3613)"
       id="rect3171"
       style="opacity:0.1;fill:url(#linearGradient3613);fill-opacity:1;fill-rule:nonzero;stroke:#ffffff;stroke-width:0.5;stroke-linecap:round;stroke-linejoin:miter;stroke-miterlimit:4;stroke-opacity:1;stroke-dasharray:none;stroke-dashoffset:0;filter:url(#filter3794)" />
  </g>
  <rect
     style="opacity:0.5;color:#000000;fill:url(#linearGradient3963);fill-opacity:1;fill-rule:nonzero;stroke:none;stroke-width:1;marker:none;visibility:visible;display:inline;overflow:visible"
     id="use9342"
     y="1743.6378"
     x="-657"
     height="1.0000159"
     width="12" />
  <rect
     style="opacity:0.5;color:#000000;fill:url(#linearGradient3960);fill-opacity:1;fill-rule:nonzero;stroke:none;stroke-width:1;marker:none;visibility:visible;display:inline;overflow:visible"
     id="use9314"
     transform="matrix(0,1,-1,0,0,0)"
     y="1850.64"
     x="-272.69141"
     height="1.0000159"
     width="7.3846202" />
  <use
     xlink:href="#use9311"
     height="1085"
     width="5033"
     y="0"
     x="0"
     id="use14790"
     transform="translate(-230,1516.64)" />
  <use
     xlink:href="#path6866"
     height="1085"
     width="5033"
     y="0"
     x="0"
     id="use14792"
     transform="translate(-230,1516.64)" />
  <use
     xlink:href="#path6868"
     height="1085"
     width="5033"
     y="0"
     x="0"
     id="use14794"
     transform="translate(-230,1516.64)" />
  <use
     xlink:href="#path6960"
     height="1085"
     width="5033"
     y="0"
     x="0"
     id="use14796"
     transform="translate(-230,1516.64)" />
  <use
     xlink:href="#rect7927"
     height="1085"
     width="5033"
     y="0"
     x="0"
     id="use14798"
     transform="translate(-230,1516.64)" />
  <use
     xlink:href="#rect8070"
     height="1085"
     width="5033"
     y="0"
     x="0"
     id="use14800"
     transform="translate(-230,1516.64)" />
  <use
     xlink:href="#rect8098"
     height="1085"
     width="5033"
     y="0"
     x="0"
     id="use14802"
     transform="translate(-230,1516.64)" />
  <use
     xlink:href="#rect7221"
     height="1085"
     width="5033"
     y="0"
     x="0"
     id="use14804"
     transform="translate(-230,1516.64)" />
  <use
     xlink:href="#rect7225"
     height="1085"
     width="5033"
     y="0"
     x="0"
     id="use14806"
     transform="translate(-230,1516.64)" />
  <use
     xlink:href="#path7319"
     height="1085"
     width="5033"
     y="0"
     x="0"
     id="use14808"
     transform="translate(-230,1516.64)" />
  <use
     xlink:href="#path7323"
     height="1085"
     width="5033"
     y="0"
     x="0"
     id="use14810"
     transform="translate(-230,1516.64)" />
  <use
     xlink:href="#rect7436"
     height="1085"
     width="5033"
     y="0"
     x="0"
     id="use14812"
     transform="translate(-230,1516.64)" />
  <use
     xlink:href="#rect7438"
     height="1085"
     width="5033"
     y="0"
     x="0"
     id="use14814"
     transform="translate(-230,1516.64)" />
  <use
     xlink:href="#rect7440"
     height="1085"
     width="5033"
     y="0"
     x="0"
     id="use14816"
     transform="translate(-230,1516.64)" />
  <use
     xlink:href="#rect9509"
     height="1085"
     width="5033"
     y="0"
     x="0"
     id="use14818"
     transform="translate(-230,1516.64)" />
  <use
     xlink:href="#rect9521"
     height="1085"
     width="5033"
     y="0"
     x="0"
     id="use14820"
     transform="translate(-230,1516.64)" />
  <use
     xlink:href="#use14642"
     height="1085"
     width="5033"
     y="0"
     x="0"
     id="use14822"
     transform="translate(-230,1516.64)" />
  <use
     xlink:href="#use14644"
     height="1085"
     width="5033"
     y="0"
     x="0"
     id="use14824"
     transform="translate(-230,1516.64)" />
  <rect
     rx="1.834365e-07"
     y="7.1766305"
     x="7.6727881"
     height="79.459023"
     width="79.125626"
     id="rect3155"
     style="fill:#ffffff;fill-opacity:1;fill-rule:evenodd;stroke:none" />
  <path
     inkscape:connector-curvature="0"
     d="m 23.399434,44.46279 c 0.985553,2.507379 -0.349409,5.022653 0.89698,7.496206 0.568349,2.777517 2.09985,5.241758 2.479772,8.084216 0.372018,2.420867 1.677125,4.515965 2.451771,6.844786 1.818016,5.590271 6.812204,10.083257 12.545634,11.452805 2.792953,0.897748 5.846082,-0.831746 4.712449,-3.95318 0.294833,-1.310614 1.645434,-2.305012 1.11476,-0.228771 -1.36995,3.405599 2.659186,4.267281 5.19066,3.710036 3.132413,0.862979 4.62699,-2.081663 7.019832,-2.953484 2.435688,-1.502968 4.219042,-3.462291 5.336888,-6.19266 1.7341,-2.020495 2.302635,-4.768548 2.641743,-7.335683 -0.0078,-3.191324 2.918528,-5.596636 3.245168,-8.828388 0.495189,-2.533073 0.271687,-5.245058 0.889244,-7.702699 1.251971,-2.363117 0.643436,-5.326429 -0.797614,-7.46859 -0.63512,-2.636568 -1.981213,-5.248982 -3.829137,-7.291967 -2.134093,-2.392497 -3.750919,-5.194128 -5.936883,-7.551043 -2.967547,-1.673677 -5.618902,-4.796466 -9.361989,-4.444302 -2.277352,0.583273 -3.325407,3.888043 -3.289799,6.016355 1.096125,1.14376 -0.67192,5.403487 -0.756547,2.131921 -0.277029,-2.898464 -0.420053,-5.966357 -2.035458,-8.498323 -2.606488,-1.097758 -6.10281,0.747219 -7.703737,2.825206 -2.785097,0.470441 -4.357822,2.935708 -6.038624,4.947963 -1.83367,1.937863 -3.764609,3.816795 -4.66661,6.402454 -1.165109,2.633844 -2.885455,5.048856 -3.469207,7.925717 -0.387592,1.504639 -0.664146,3.053418 -0.639292,4.611424 h -4e-6 v 2e-6 z m 0.492099,0.07861 c -0.247633,-1.596547 1.40705,-3.561187 0.85806,-4.634548 0.637492,-2.108337 1.884922,-4.856788 3.262646,-6.312208 2.565643,0.19335 -1.608677,-1.005793 0.274479,-2.100393 0.814347,-0.639454 2.298097,-0.509325 0.783119,-1.245275 0.15545,-0.691567 2.866576,-1.889866 1.064527,-1.83696 1.453284,-1.710319 3.817152,-2.045893 4.319187,-3.804015 1.487062,-1.625872 3.185623,-0.439646 3.878314,1.11295 -0.508243,1.136902 -1.605914,1.88083 -0.359643,2.712859 -0.08083,1.366182 -2.924426,3.962728 -1.392854,4.095473 1.255173,-2.102056 2.586786,-4.252772 2.934197,-6.285464 0.818979,-0.658266 3.031407,-2.161033 0.679515,-1.045676 -2.352843,0.718339 -3.451696,-2.387915 -0.847345,-2.796433 1.886024,-0.841636 1.424429,0.548018 0.745269,0.757163 2.493968,1.227747 0.734115,-3.345334 3.101794,-1.325278 2.414085,0.194954 -2.254329,-1.970345 0.497439,-1.924132 2.063588,-0.228637 1.946202,3.127601 1.421818,3.456905 -1.104198,-0.601612 -4.553283,-0.4249 -1.813147,0.484267 1.198319,0.567809 3.904865,1.887854 1.466565,2.927202 -0.750018,0.94164 2.455392,1.440948 0.495302,2.862635 -2.605892,1.131489 -6.168922,1.477237 -7.218048,4.749523 -0.465154,1.366482 0.429194,5.311672 -2.165625,3.321575 -1.545757,-1.727222 -5.607535,-0.02407 -5.277913,-3.085666 -0.969242,1.268894 -2.816884,2.229133 -3.653878,3.702998 -1.354893,1.317194 2.097488,1.673559 1.177429,-0.264551 1.499954,-2.404874 5.540473,-0.758 7.510399,0.563648 1.467172,0.349341 1.130441,5.020249 2.15072,1.894747 0.275842,-2.31016 4.000651,-1.54338 1.577544,-3.676137 -2.162104,-2.308617 0.868829,-5.146207 3.278286,-5.375247 2.098246,-1.128202 5.575819,-0.332487 3.510331,1.925688 -1.403538,-1.315556 -2.392722,-0.239459 -2.781795,0.909781 -1.895877,-2.272622 0.412455,4.654573 1.77196,1.24538 2.031541,-0.897466 1.298852,3.331052 -0.546818,3.232131 -1.491252,2.347865 -4.983777,1.467489 -6.576989,3.794552 -2.206695,0.802989 -3.359567,-1.220193 -3.927996,-2.696086 -1.125468,2.198005 -4.227695,3.703799 -4.743015,6.536591 -0.05297,0.947841 -0.963581,4.985528 0.474831,3.121436 0.07486,-2.63019 0.708701,-5.995834 3.622745,-6.884861 2.135742,0.622662 4.928206,2.549102 6.613878,-0.327536 2.23593,-1.172553 5.164074,-1.447064 7.262796,-1.162688 0.315246,2.543433 -0.641652,5.160067 -0.169612,7.734156 -1.787391,0.813832 -2.450882,2.584343 -2.736812,4.388443 0.977908,0.05928 3.507245,-1.91218 3.317099,0.840941 -0.398093,1.098111 -0.142905,2.572319 -0.184329,3.167518 -0.554531,1.663139 0.373881,5.741253 -2.298837,6.359907 -1.721397,-1.706865 -2.907729,3.504956 -0.551921,1.295531 3.474843,-1.537734 1.683298,4.164388 1.032745,5.827762 -0.846041,1.126869 0.804972,5.584853 -1.927329,5.177875 -1.132328,-2.027917 1.411015,-5.683852 -2.39937,-5.675956 0.334831,0.786369 0.785269,2.681106 -0.493168,3.327336 2.108218,0.69338 1.538968,2.733434 -0.466343,2.447032 -1.45517,0.711295 -1.672971,-0.86781 -1.254104,-1.723009 -0.689605,-1.692839 -2.860134,-3.505544 -0.582543,-4.786226 1.545376,-1.301774 -0.435484,-2.643035 1.434754,-3.768846 2.038427,-2.566072 -0.790372,-4.556631 -2.002937,-6.598692 -0.953098,-0.814656 -1.077371,-6.309932 -1.663832,-3.083367 0.117507,1.015494 -0.626303,2.350624 0.370085,3.06887 1.03856,2.071644 3.194134,4.348605 1.932196,6.738241 -1.296836,2.993322 -2.321984,-3.181427 -2.962294,-0.838699 1.318639,2.076714 -4.046537,2.697722 -0.603502,3.07936 1.326544,-0.539572 3.890892,-0.652836 1.77235,1.214086 -3.63866,-0.181742 1.262533,3.934794 0.01282,4.878155 -0.792627,-1.743166 -4.669316,-2.38763 -3.387636,-4.49723 -1.151805,-0.513992 -2.567106,-0.504679 -2.8744,-1.973699 -0.953648,-1.304606 -1.379788,-2.847882 -1.159019,-3.981354 -2.962353,-0.200952 -0.05209,-2.29676 -0.140868,-3.207 -2.032727,-0.02546 -2.800857,-1.897214 -1.985332,-3.18461 -1.028494,-2.073058 -3.507686,-4.282602 -2.163016,-6.85622 -2.627556,-1.802451 0.793754,-4.501942 0.363162,-6.836065 -0.110273,-0.865572 -1.201955,0.749244 -1.656092,0.841411 z m 3.133528,6.841017 c 1.604247,1.953194 0.814061,-1.758018 0,0 z m 0.746635,9.986374 c 0.124091,-0.870875 0.147144,0.868641 0,0 z m 1.968374,-7.430675 c 1.583084,1.116853 0.649685,2.250559 0.526034,3.718049 0.152943,1.960385 0.863498,1.42612 1.023766,-0.146031 0.388674,-2.913056 3.892179,-3.515562 5.773764,-5.286779 1.232502,-2.493943 4.067118,-3.773208 5.030427,-6.465274 1.130666,-2.545331 5.229592,3.042113 3.299532,-0.712825 0.418036,-3.014182 -3.65561,-0.577638 -4.677435,0.64965 -1.361046,1.450754 -3.144163,2.840807 -4.908575,3.133104 0.5147,2.676861 -2.718653,5.634352 -5.462979,5.089127 l -0.314629,-0.01249 -0.289905,0.03347 z M 29.847531,39.93575 c 1.205229,0.835353 0.819974,-1.2764 0,0 z m 0.639161,24.151507 c 0.18047,2.944766 2.669633,-3.382021 0.08224,-0.512928 l -0.08225,0.512928 h 1e-5 z m 0.226251,-2.887006 c 0.970016,1.760491 0.704857,-1.421524 0,0 z m 0.152713,-26.897966 c 1.618525,-0.274558 2.653107,-3.538835 1.458561,-4.341056 -2.863348,-0.132916 0.592299,2.488172 -1.32062,3.89045 l -0.137941,0.450607 z m 0.231912,-5.813221 c 1.794793,-0.65704 1.435217,-1.439402 0,0 z m 0.469474,39.389441 c 1.698645,0.586122 0.995216,-1.622362 0,0 z m 0.904984,-17.877773 c 0.779288,1.184034 4.073277,-1.782532 1.640389,-2.577623 -1.656316,-2.32599 -0.867571,0.02734 -0.501794,1.104478 -0.4098,0.461542 -1.01824,0.826676 -1.138595,1.473145 z m 0.07354,14.79417 c 1.704165,1.529838 1.767297,-1.723602 0,0 z m 0.27151,-4.263037 c 1.276467,0.519178 4.419848,0.194588 1.530445,-0.85591 -1.109453,-0.79945 -1.202294,-0.08144 -1.530445,0.85591 z m 0.92762,-33.548062 c 1.432073,-0.293499 0.506935,-0.838617 0,0 z m 1.968372,-4.4259 c 0.388363,-0.65254 0.505038,0.395753 0,0 z m 1.668544,-0.685234 c 1.493389,-1.444966 1.826795,0.561031 0,0 z m 2.217295,-1.52773 c 1.264314,-1.083646 0.809959,0.8435 0,0 z m 0.130089,31.801455 c -0.248187,2.533307 1.927802,4.270343 2.703695,6.088353 1.046512,0.165595 3.11817,4.768191 2.849452,2.414626 -0.847228,-2.733911 -2.843874,-4.667542 -4.323969,-6.918453 2.316879,-0.757614 0.216733,-5.600058 -1.140041,-2.581396 l -0.06932,0.456594 -0.01982,0.540276 z m 1.595107,-23.21362 c 1.396061,1.583016 1.26194,-1.500006 0,0 z m 0.395839,39.636634 c 1.276775,1.632258 5.200157,-1.217509 1.630718,-0.367613 -0.524623,0.160175 -1.176243,0.01957 -1.630718,0.367613 z m 1.991067,-30.093976 c 0.791322,0.258859 0.321893,-0.307265 0,0 z m 2.386907,-3.594647 c 0.611503,-0.544142 0.582541,0.801126 0,0 z m 2.330409,11.542275 c 0.837732,-2.737563 0.152401,-5.518344 0.311449,-8.334437 -0.297681,-3.526076 3.699645,-3.395356 5.337008,-1.159294 2.781086,0.554325 0.207357,-2.296843 -0.79073,-3.112502 -1.341581,-0.516892 -3.605522,0.791663 -4.510077,-0.942488 -0.783134,-2.413389 0.500051,-6.02353 3.417869,-3.906536 1.076304,0.359115 4.543904,2.573032 2.541087,0.251422 -2.597585,-2.711074 2.083766,-0.867878 3.536206,-0.755311 1.266686,0.348371 3.814185,-0.194095 3.791633,1.546694 -1.44437,-0.95665 1.435825,2.323289 -0.372696,3.212163 -2.072606,1.86962 2.568627,0.671515 2.739425,2.839606 0.366879,1.391846 1.386922,3.445399 3.084696,3.581624 -0.146582,-0.924138 0.135786,-3.529871 -1.415761,-2.949039 -1.932789,-0.07883 -3.948902,-5.674403 -0.59014,-5.433729 1.439386,-0.392632 2.233674,1.574765 3.084582,2.383893 1.536711,2.005408 1.144908,4.401975 3.206955,6.228847 0.990488,2.205901 -0.493168,4.542027 -0.902185,6.314896 -1.317248,-2.09463 -1.736945,2.105824 -0.54551,2.877344 0.250677,1.699677 -1.285084,2.755477 -0.773636,4.67402 -0.823611,1.928564 -1.269181,5.806549 -3.579767,6.007268 -0.209019,-1.002531 -1.43084,-5.480073 -1.957358,-2.892668 0.915354,1.31262 0.64533,3.766134 1.546206,4.646203 1.815048,-0.549583 1.463241,0.723314 1.093395,2.11443 -0.46302,1.583934 -0.974465,4.67343 -2.420852,4.717982 -0.337086,-1.939642 1.946676,-5.064024 -0.04237,-6.147403 -0.542901,2.250444 -1.688163,3.918057 -1.122832,6.265264 -0.295664,1.011725 2.434621,-0.02086 0.56901,1.628724 -1.281164,0.49584 -1.308584,3.297288 -3.334901,2.550164 0.385036,-0.835164 3.296564,-3.99927 0.961051,-2.514331 -2.313196,1.666436 -2.021688,4.789875 -5.032087,5.544187 -1.831187,0.714122 -4.60966,-2.110184 -5.951243,0.427126 -1.643653,0.28487 -1.385021,-3.039165 -1.719973,-4.232035 1.139449,-2.659186 -0.25495,-5.75186 0.874765,-8.240616 2.279014,-0.374446 -2.009939,-2.73804 0.222902,-4.286851 0.255309,-1.111549 -0.82325,-2.295109 -0.710375,-3.50307 -0.395362,-1.938225 0.165578,-3.992782 2.395572,-3.236702 -3.176923,-0.225822 -2.82037,-3.525582 -2.940131,-5.865715 l -0.0012,-0.29913 z m 0.678682,25.813952 c 1.173989,1.376262 0.743016,-1.320513 0,0 z M 49.683972,37.11621 c 0.991676,2.164167 3.039478,5.461626 5.632317,4.818813 2.315808,-2.536101 4.086937,1.225874 5.10176,2.295464 2.563639,-2.370424 3.789851,2.680397 3.563981,4.637602 0.292456,1.045662 4.16848,2.45151 2.698946,0.969758 -2.135277,-1.894144 -1.807329,-5.539001 -4.361001,-7.430673 -0.415064,-1.667028 -4.214058,-0.106192 -2.53088,-2.656779 0.947288,-1.479346 2.42287,-0.329988 3.659766,0.09385 2.045903,-0.02104 2.997935,4.523783 3.911749,3.832645 -0.289374,-2.247294 -2.186791,-4.604707 -3.592585,-5.476679 -0.864321,-1.866284 -5.691307,1.892662 -4.335243,-1.891354 -0.0056,-1.215762 -1.696237,-2.242709 -0.72094,-3.395203 0.803428,-0.959697 1.413864,-4.601418 -0.401301,-2.33675 -2.388093,2.680952 -5.342943,0.508181 -7.725932,-0.814458 -1.481757,1.734905 3.142622,2.111861 4.122428,3.448644 2.781561,0.724255 4.092401,4.122652 2.255869,6.298369 -1.971126,-0.153726 -3.294666,2.988465 -4.68954,0.132311 -0.573046,-0.644912 -1.514991,-3.620897 -2.589396,-2.525564 z m 0.627883,-10.604205 c -0.03834,-3.302234 4.051688,-2.46779 5.974389,-1.392422 3.191404,1.454016 0.381359,-1.873405 -1.239744,-1.581134 -1.969227,0.326831 -2.844347,-3.773503 -0.882835,-1.603994 0.605332,1.668314 2.715921,-0.124897 3.561725,1.598256 1.870712,0.550777 3.571578,4.405026 0.307178,3.242843 -2.382279,-0.643874 -5.10366,-2.253447 -7.352054,-0.485114 0.615658,0.248132 3.027491,0.776633 0.84521,1.105443 -0.495067,-0.03812 -1.273808,-0.234415 -1.213869,-0.883877 z m 0.15264,39.299568 c 2.333019,1.868922 3.588194,-1.365773 5.580564,-1.932923 -2.963394,-0.483465 0.271807,-3.620813 -1.200219,-5.558334 -1.763057,-2.694778 1.145976,-5.419962 -0.212339,-8.064296 -1.277131,2.45552 -2.487676,4.973152 -0.80711,7.55997 1.104433,2.436778 -1.737064,3.949411 -0.628239,6.395853 -0.559872,0.92745 -1.812553,1.148676 -2.732657,1.59973 z m 0.09056,4.352848 c 1.26004,1.140777 4.657136,0.300782 1.771961,-0.872762 -0.556431,0.0072 -1.329595,0.497137 -1.771961,0.872762 z m 0.181006,2.398357 c 0.896603,2.892431 2.495272,-1.248502 0,0 z m 0.356315,-23.000135 c 2.376581,-1.562722 6.160501,-0.887849 7.261254,2.210484 1.64496,2.569257 -0.848531,4.975393 0.01056,7.692564 0.02244,2.886773 -0.791322,5.55032 -2.427259,7.940425 -1.936468,1.505679 1.542169,3.961787 -1.190606,5.409356 -1.865373,1.406318 1.458613,3.426813 0.822894,0.62278 0.608537,-1.521944 2.804944,-2.349919 1.124257,-4.113121 -0.03941,-1.642275 1.02657,-4.174524 2.559011,-4.92648 1.478197,0.140964 4.407053,0.14002 1.422292,-0.716124 -2.24044,-0.343327 -0.549665,-2.592237 -1.358198,-3.959426 -0.769838,-2.519167 0.653993,-5.040334 0.712511,-7.571167 2.369341,0.32624 4.805269,1.875524 6.245599,3.832609 0.493763,1.498133 1.190372,3.443314 1.139688,0.7186 -0.279521,-1.716411 1.443776,-4.630765 -1.348349,-4.129973 -2.762093,-1.165411 -5.085025,-3.312606 -8.155242,-3.677506 -4.374888,-0.713648 -0.221244,-4.301813 -0.73922,-6.551784 -1.23903,1.108368 -2.981909,3.47113 -4.263552,3.65794 -1.207102,-0.858854 -1.481282,2.816645 -1.815641,3.560823 z m 8.150618,17.450995 c 0.878559,1.199827 3.061078,-0.592723 0.489487,-0.238434 -0.141364,0.03736 -0.470615,0.0099 -0.489487,0.238434 z m 0.661829,-19.484221 c 1.508581,0.230655 1.871189,-1.969931 0.299578,-0.318107 l -0.299578,0.318107 z M 61.058749,24.90565 c 1.111203,0.377179 3.221317,2.560285 0.67999,0.955358 -0.302545,-0.239233 -0.648654,-0.53978 -0.67999,-0.955358 z m 0.74088,33.946928 c 0.54219,2.724832 1.765196,-0.202485 0.11644,-0.526252 l -0.110742,0.419469 -0.0057,0.106783 z m 0.373406,-31.020657 c 1.598908,-0.79515 4.736428,3.559337 1.081885,2.725726 -1.079864,-0.482132 -0.348246,-1.926123 -1.081885,-2.725726 z m 5.758129,12.811521 c 1.061946,1.595663 3.061915,-0.853681 0.508483,-0.445563 -0.212104,0.04397 -0.528778,0.172525 -0.508483,0.445563 z m 0,-6.425426 c 0.515131,1.068589 1.246867,-0.734675 0,0 z m 0.18089,15.83894 c 2.396639,1.252039 1.33161,-1.196529 0,0 z m 2.715092,-10.255997 c 0.435244,0.7182 0.286643,-0.668661 0,0 z"
     id="path8"
     style="fill:#4d4d4d" />
</svg>
