<?xml version="1.0" encoding="UTF-8" standalone="no"?>
<!-- Created with Inkscape (http://www.inkscape.org/) -->

<svg
   xmlns:dc="http://purl.org/dc/elements/1.1/"
   xmlns:cc="http://creativecommons.org/ns#"
   xmlns:rdf="http://www.w3.org/1999/02/22-rdf-syntax-ns#"
   xmlns:svg="http://www.w3.org/2000/svg"
   xmlns="http://www.w3.org/2000/svg"
   xmlns:xlink="http://www.w3.org/1999/xlink"
   xmlns:sodipodi="http://sodipodi.sourceforge.net/DTD/sodipodi-0.dtd"
   xmlns:inkscape="http://www.inkscape.org/namespaces/inkscape"
   version="1.0"
   width="96"
   height="96"
   id="svg2408"
   inkscape:version="0.48.5 r10040"
   sodipodi:docname="scilabbackend.svg">
  <sodipodi:namedview
     pagecolor="#ffffff"
     bordercolor="#666666"
     borderopacity="1"
     objecttolerance="10"
     gridtolerance="10"
     guidetolerance="10"
     inkscape:pageopacity="0"
     inkscape:pageshadow="2"
     inkscape:window-width="1680"
     inkscape:window-height="988"
     id="namedview62"
     showgrid="false"
     inkscape:zoom="3.3474369"
     inkscape:cx="20.244871"
     inkscape:cy="47.162871"
     inkscape:window-x="0"
     inkscape:window-y="-3"
     inkscape:window-maximized="1"
     inkscape:current-layer="svg2408" />
  <defs
     id="defs2410">
    <linearGradient
       id="ButtonColor">
      <stop
         id="stop3189"
         style="stop-color:#1d5282;stop-opacity:1"
         offset="0" />
      <stop
         id="stop3191"
         style="stop-color:#568ec2;stop-opacity:1"
         offset="1" />
    </linearGradient>
    <linearGradient
       x1="45.447727"
       y1="92.539597"
       x2="45.447727"
       y2="7.0165396"
       id="ButtonShadow"
       gradientUnits="userSpaceOnUse"
       gradientTransform="scale(1.0058652,0.994169)">
      <stop
         id="stop3750"
         style="stop-color:#000000;stop-opacity:1"
         offset="0" />
      <stop
         id="stop3752"
         style="stop-color:#000000;stop-opacity:0.58823532"
         offset="1" />
    </linearGradient>
    <linearGradient
       id="linearGradient3737">
      <stop
         id="stop3739"
         style="stop-color:#ffffff;stop-opacity:1"
         offset="0" />
      <stop
         id="stop3741"
         style="stop-color:#ffffff;stop-opacity:0"
         offset="1" />
    </linearGradient>
    <linearGradient
       x1="48"
       y1="90"
       x2="48"
       y2="5.9877172"
       id="linearGradient3706"
       xlink:href="#ButtonColor"
       gradientUnits="userSpaceOnUse" />
    <filter
       color-interpolation-filters="sRGB"
       id="filter3218">
      <feGaussianBlur
         id="feGaussianBlur3220"
         stdDeviation="1.71" />
    </filter>
    <linearGradient
       x1="124.39286"
       y1="6"
       x2="124.39286"
       y2="63.606895"
       id="linearGradient3230"
       xlink:href="#linearGradient3737"
       gradientUnits="userSpaceOnUse"
       gradientTransform="translate(-100,0)" />
    <linearGradient
       id="linearGradient3737-6">
      <stop
         id="stop3739-6"
         style="stop-color:#ffffff;stop-opacity:1"
         offset="0" />
      <stop
         id="stop3741-4"
         style="stop-color:#ffffff;stop-opacity:0"
         offset="1" />
    </linearGradient>
    <radialGradient
       cx="48"
       cy="90.171875"
       r="42"
       fx="48"
       fy="90.171875"
       id="radialGradient2874"
       xlink:href="#linearGradient3737-6"
       gradientUnits="userSpaceOnUse"
       gradientTransform="matrix(1.1573129,0,0,0.99590774,-7.551021,0.1971319)" />
    <linearGradient
       id="linearGradient3737-2">
      <stop
         id="stop3739-5"
         style="stop-color:#ffffff;stop-opacity:1"
         offset="0" />
      <stop
         id="stop3741-8"
         style="stop-color:#ffffff;stop-opacity:0"
         offset="1" />
    </linearGradient>
    <clipPath
       id="clipPath3613">
      <rect
         width="84"
         height="84"
         rx="6"
         ry="6"
         x="6"
         y="6"
         id="rect3615"
         style="fill:#ffffff;fill-opacity:1;fill-rule:nonzero;stroke:none" />
    </clipPath>
    <filter
       x="-0.192"
       y="-0.192"
       width="1.3839999"
       height="1.3839999"
       color-interpolation-filters="sRGB"
       id="filter3794">
      <feGaussianBlur
         id="feGaussianBlur3796"
         stdDeviation="5.28" />
    </filter>
    <linearGradient
       x1="48"
       y1="20.220806"
       x2="48"
       y2="138.66119"
       id="linearGradient2908"
       xlink:href="#linearGradient3737-2"
       gradientUnits="userSpaceOnUse" />
    <linearGradient
       x1="45.447727"
       y1="92.539597"
       x2="45.447727"
       y2="7.0165396"
       id="ButtonShadow-0"
       gradientUnits="userSpaceOnUse"
       gradientTransform="matrix(1.0058652,0,0,0.994169,100,0)">
      <stop
         id="stop3750-8"
         style="stop-color:#000000;stop-opacity:1"
         offset="0" />
      <stop
         id="stop3752-5"
         style="stop-color:#000000;stop-opacity:0.58823532"
         offset="1" />
    </linearGradient>
    <linearGradient
       x1="32.251034"
       y1="6.1317081"
       x2="32.251034"
       y2="90.238609"
       id="linearGradient3780"
       xlink:href="#ButtonShadow-0"
       gradientUnits="userSpaceOnUse"
       gradientTransform="matrix(1.0238095,0,0,1.0119048,-1.1428571,-98.071429)" />
    <linearGradient
       x1="32.251034"
       y1="6.1317081"
       x2="32.251034"
       y2="90.238609"
       id="linearGradient3772"
       xlink:href="#ButtonShadow-0"
       gradientUnits="userSpaceOnUse"
       gradientTransform="matrix(1.0238095,0,0,1.0119048,-1.1428571,-98.071429)" />
    <linearGradient
       x1="32.251034"
       y1="6.1317081"
       x2="32.251034"
       y2="90.238609"
       id="linearGradient3725"
       xlink:href="#ButtonShadow-0"
       gradientUnits="userSpaceOnUse"
       gradientTransform="matrix(1.0238095,0,0,1.0119048,-1.1428571,-98.071429)" />
    <linearGradient
       x1="32.251034"
       y1="6.1317081"
       x2="32.251034"
       y2="90.238609"
       id="linearGradient3721"
       xlink:href="#ButtonShadow-0"
       gradientUnits="userSpaceOnUse"
       gradientTransform="translate(0,-97)" />
    <linearGradient
       x1="32.251034"
       y1="6.1317081"
       x2="32.251034"
       y2="90.238609"
       id="linearGradient3071"
       xlink:href="#ButtonShadow-0"
       gradientUnits="userSpaceOnUse"
       gradientTransform="matrix(1.0238095,0,0,1.0119048,-1.1428571,-98.071429)" />
    <radialGradient
       inkscape:collect="always"
       xlink:href="#linearGradient4132"
       id="radialGradient3152"
       gradientUnits="userSpaceOnUse"
       gradientTransform="matrix(1.090012,0,0,0.84044811,-22.037756,-5.285582)"
       cx="63.98003"
       cy="61.948856"
       fx="63.98003"
       fy="61.948856"
       r="58.01997" />
    <linearGradient
       id="linearGradient4132">
      <stop
         id="stop4134"
         style="stop-color:#7bb8f0;stop-opacity:1"
         offset="0" />
      <stop
         id="stop4136"
         style="stop-color:#b5d5f2;stop-opacity:0.1221374"
         offset="1" />
    </linearGradient>
  </defs>
  <metadata
     id="metadata2413">
    <rdf:RDF>
      <cc:Work
         rdf:about="">
        <dc:format>image/svg+xml</dc:format>
        <dc:type
           rdf:resource="http://purl.org/dc/dcmitype/StillImage" />
        <dc:title></dc:title>
      </cc:Work>
    </rdf:RDF>
  </metadata>
  <rect
     style="fill:#1a1a1a;fill-opacity:1;fill-rule:nonzero;stroke:none;display:inline"
     id="rect2419-8"
     y="6"
     x="6"
     ry="0"
     rx="6"
     height="84"
     width="84" />
  <g
     id="layer2"
     style="display:none">
    <rect
       width="86"
       height="85"
       rx="7"
       ry="7"
       x="5"
       y="7"
       id="rect3745"
       style="opacity:0.9;fill:url(#ButtonShadow);fill-opacity:1;fill-rule:nonzero;stroke:none;filter:url(#filter3218)" />
  </g>
  <g
     id="layer3" />
  <g
     id="g3043"
     transform="translate(0.203125,1.6054946)">
    <path
       id="rect3028"
       d="m 19.71875,21.90625 c -2.151497,0 -3.875,1.870503 -3.875,4.1875 l 0,0.3125 c 0,2.316997 1.723503,4.15625 3.875,4.15625 l 56.15625,0 c 2.151497,0 3.875,-1.839253 3.875,-4.15625 l 0,-0.3125 c 0,-2.316997 -1.723503,-4.1875 -3.875,-4.1875 l -56.15625,0 z M 23.59375,22.5 72,22.5 c 1.854739,0 3.34375,1.627589 3.34375,3.625 l 0,0.25 c 0,1.997411 -1.489011,3.59375 -3.34375,3.59375 l -48.40625,0 C 21.739011,29.96875 20.25,28.372411 20.25,26.375 l 0,-0.25 c 0,-1.997411 1.489011,-3.625 3.34375,-3.625 z"
       style="color:#000000;fill:#6b88e6;fill-opacity:1;fill-rule:nonzero;stroke:none;stroke-width:2;marker:none;visibility:visible;display:inline;overflow:visible;enable-background:accumulate"
       inkscape:connector-curvature="0" />
    <path
       transform="translate(9.5595529,8.9620808)"
       d="m 30.769811,17.432425 c 0,4.124683 -3.343717,7.4684 -7.4684,7.4684 -4.124684,0 -7.468401,-3.343717 -7.468401,-7.4684 0,-4.124684 3.343717,-7.4684009 7.468401,-7.4684009 4.124683,0 7.4684,3.3437169 7.4684,7.4684009 z"
       sodipodi:ry="7.4684005"
       sodipodi:rx="7.4684005"
       sodipodi:cy="17.432425"
       sodipodi:cx="23.301411"
       id="path3030"
       style="color:#000000;fill:#6b88e6;fill-opacity:1;fill-rule:nonzero;stroke:none;stroke-width:2;marker:none;visibility:visible;display:inline;overflow:visible;enable-background:accumulate"
       sodipodi:type="arc" />
    <path
       inkscape:connector-curvature="0"
       style="color:#000000;fill:#6b88e6;fill-opacity:1;fill-rule:nonzero;stroke:none;stroke-width:2;marker:none;visibility:visible;display:inline;overflow:visible;enable-background:accumulate"
       d="m 19.71875,41.90625 c -2.151497,0 -3.875,1.870503 -3.875,4.1875 l 0,0.3125 c 0,2.316997 1.723503,4.15625 3.875,4.15625 l 56.15625,0 c 2.151497,0 3.875,-1.839253 3.875,-4.15625 l 0,-0.3125 c 0,-2.316997 -1.723503,-4.1875 -3.875,-4.1875 l -56.15625,0 z M 23.59375,42.5 72,42.5 c 1.854739,0 3.34375,1.627589 3.34375,3.625 l 0,0.25 c 0,1.997411 -1.489011,3.59375 -3.34375,3.59375 l -48.40625,0 C 21.739011,49.96875 20.25,48.372411 20.25,46.375 l 0,-0.25 c 0,-1.997411 1.489011,-3.625 3.34375,-3.625 z"
       id="path3035" />
    <path
       sodipodi:type="arc"
       style="color:#000000;fill:#6b88e6;fill-opacity:1;fill-rule:nonzero;stroke:none;stroke-width:2;marker:none;visibility:visible;display:inline;overflow:visible;enable-background:accumulate"
       id="path3037"
       sodipodi:cx="23.301411"
       sodipodi:cy="17.432425"
       sodipodi:rx="7.4684005"
       sodipodi:ry="7.4684005"
       d="m 30.769811,17.432425 c 0,4.124683 -3.343717,7.4684 -7.4684,7.4684 -4.124684,0 -7.468401,-3.343717 -7.468401,-7.4684 0,-4.124684 3.343717,-7.4684009 7.468401,-7.4684009 4.124683,0 7.4684,3.3437169 7.4684,7.4684009 z"
       transform="translate(29.559553,28.962081)" />
    <path
       id="path3039"
       d="m 19.71875,61.90625 c -2.151497,0 -3.875,1.870503 -3.875,4.1875 l 0,0.3125 c 0,2.316997 1.723503,4.15625 3.875,4.15625 l 56.15625,0 c 2.151497,0 3.875,-1.839253 3.875,-4.15625 l 0,-0.3125 c 0,-2.316997 -1.723503,-4.1875 -3.875,-4.1875 l -56.15625,0 z M 23.59375,62.5 72,62.5 c 1.854739,0 3.34375,1.627589 3.34375,3.625 l 0,0.25 c 0,1.997411 -1.489011,3.59375 -3.34375,3.59375 l -48.40625,0 C 21.739011,69.96875 20.25,68.372411 20.25,66.375 l 0,-0.25 c 0,-1.997411 1.489011,-3.625 3.34375,-3.625 z"
       style="color:#000000;fill:#6b88e6;fill-opacity:1;fill-rule:nonzero;stroke:none;stroke-width:2;marker:none;visibility:visible;display:inline;overflow:visible;enable-background:accumulate"
       inkscape:connector-curvature="0" />
    <path
       transform="translate(13.559553,48.962081)"
       d="m 30.769811,17.432425 c 0,4.124683 -3.343717,7.4684 -7.4684,7.4684 -4.124684,0 -7.468401,-3.343717 -7.468401,-7.4684 0,-4.124684 3.343717,-7.4684009 7.468401,-7.4684009 4.124683,0 7.4684,3.3437169 7.4684,7.4684009 z"
       sodipodi:ry="7.4684005"
       sodipodi:rx="7.4684005"
       sodipodi:cy="17.432425"
       sodipodi:cx="23.301411"
       id="path3041"
       style="color:#000000;fill:#6b88e6;fill-opacity:1;fill-rule:nonzero;stroke:none;stroke-width:2;marker:none;visibility:visible;display:inline;overflow:visible;enable-background:accumulate"
       sodipodi:type="arc" />
  </g>
</svg>
