<?xml version="1.0" encoding="UTF-8" standalone="no"?>
<!-- Created with Inkscape (http://www.inkscape.org/) -->

<svg
   xmlns:dc="http://purl.org/dc/elements/1.1/"
   xmlns:cc="http://creativecommons.org/ns#"
   xmlns:rdf="http://www.w3.org/1999/02/22-rdf-syntax-ns#"
   xmlns:svg="http://www.w3.org/2000/svg"
   xmlns="http://www.w3.org/2000/svg"
   xmlns:xlink="http://www.w3.org/1999/xlink"
   xmlns:sodipodi="http://sodipodi.sourceforge.net/DTD/sodipodi-0.dtd"
   xmlns:inkscape="http://www.inkscape.org/namespaces/inkscape"
   version="1.0"
   width="96"
   height="96"
   id="svg2408"
   inkscape:version="0.48.5 r10040"
   sodipodi:docname="dropbox.svg">
  <sodipodi:namedview
     pagecolor="#ffffff"
     bordercolor="#666666"
     borderopacity="1"
     objecttolerance="10"
     gridtolerance="10"
     guidetolerance="10"
     inkscape:pageopacity="0"
     inkscape:pageshadow="2"
     inkscape:window-width="1680"
     inkscape:window-height="991"
     id="namedview105"
     showgrid="false"
     inkscape:zoom="5.5589806"
     inkscape:cx="-26.410565"
     inkscape:cy="28.265519"
     inkscape:window-x="-2"
     inkscape:window-y="-3"
     inkscape:window-maximized="1"
     inkscape:current-layer="svg2408" />
  <defs
     id="defs2410">
    <linearGradient
       id="linearGradient3853">
      <stop
         id="stop3855"
         style="stop-color:#000000;stop-opacity:1"
         offset="0" />
      <stop
         id="stop3857"
         style="stop-color:#313131;stop-opacity:1"
         offset="1" />
    </linearGradient>
    <linearGradient
       x1="45.447727"
       y1="92.539597"
       x2="45.447727"
       y2="7.0165396"
       id="ButtonShadow"
       gradientUnits="userSpaceOnUse"
       gradientTransform="scale(1.0058652,0.994169)">
      <stop
         id="stop3750"
         style="stop-color:#000000;stop-opacity:1"
         offset="0" />
      <stop
         id="stop3752"
         style="stop-color:#000000;stop-opacity:0.58823532"
         offset="1" />
    </linearGradient>
    <linearGradient
       id="linearGradient3737">
      <stop
         id="stop3739"
         style="stop-color:#ffffff;stop-opacity:1"
         offset="0" />
      <stop
         id="stop3741"
         style="stop-color:#ffffff;stop-opacity:0"
         offset="1" />
    </linearGradient>
    <linearGradient
       id="linearGradient3700">
      <stop
         id="stop3702"
         style="stop-color:#da8714;stop-opacity:1"
         offset="0" />
      <stop
         id="stop3704"
         style="stop-color:#f4d468;stop-opacity:1"
         offset="1" />
    </linearGradient>
    <filter
       color-interpolation-filters="sRGB"
       id="filter3174">
      <feGaussianBlur
         id="feGaussianBlur3176"
         stdDeviation="1.71" />
    </filter>
    <linearGradient
       x1="36.357143"
       y1="6"
       x2="36.357143"
       y2="63.893143"
       id="linearGradient3188"
       xlink:href="#linearGradient3737"
       gradientUnits="userSpaceOnUse" />
    <filter
       x="-0.192"
       y="-0.192"
       width="1.3839999"
       height="1.3839999"
       color-interpolation-filters="sRGB"
       id="filter3794">
      <feGaussianBlur
         id="feGaussianBlur3796"
         stdDeviation="5.28" />
    </filter>
    <linearGradient
       x1="48"
       y1="20.220806"
       x2="48"
       y2="138.66119"
       id="linearGradient3613"
       xlink:href="#linearGradient3737"
       gradientUnits="userSpaceOnUse" />
    <radialGradient
       cx="48"
       cy="90.171875"
       r="42"
       fx="48"
       fy="90.171875"
       id="radialGradient3619"
       xlink:href="#linearGradient3737"
       gradientUnits="userSpaceOnUse"
       gradientTransform="matrix(1.1573129,0,0,0.99590774,-7.5510206,0.19713193)" />
    <clipPath
       id="clipPath3613">
      <rect
         width="84"
         height="84"
         rx="6"
         ry="6"
         x="6"
         y="6"
         id="rect3615"
         style="fill:#ffffff;fill-opacity:1;fill-rule:nonzero;stroke:none" />
    </clipPath>
    <linearGradient
       x1="48"
       y1="90"
       x2="48"
       y2="5.9877172"
       id="linearGradient3617"
       xlink:href="#linearGradient3700"
       gradientUnits="userSpaceOnUse" />
    <linearGradient
       id="linearGradient5060">
      <stop
         id="stop5062"
         style="stop-color:#000000;stop-opacity:1"
         offset="0" />
      <stop
         id="stop5064"
         style="stop-color:#000000;stop-opacity:0"
         offset="1" />
    </linearGradient>
    <linearGradient
       id="linearGradient6954">
      <stop
         id="stop6960"
         style="stop-color:#f5f5f5;stop-opacity:1"
         offset="0" />
      <stop
         id="stop6962"
         style="stop-color:#d2d2d2;stop-opacity:1"
         offset="1" />
    </linearGradient>
    <linearGradient
       id="linearGradient3785">
      <stop
         id="stop3787"
         style="stop-color:#bdbdbd;stop-opacity:1"
         offset="0" />
      <stop
         id="stop3789"
         style="stop-color:#8c8c8c;stop-opacity:1"
         offset="1" />
    </linearGradient>
    <linearGradient
       id="linearGradient3341">
      <stop
         id="stop3343"
         style="stop-color:#ffffff;stop-opacity:1"
         offset="0" />
      <stop
         id="stop3345"
         style="stop-color:#ffffff;stop-opacity:0"
         offset="1" />
    </linearGradient>
    <linearGradient
       id="linearGradient2895">
      <stop
         id="stop2897"
         style="stop-color:#000000;stop-opacity:1"
         offset="0" />
      <stop
         id="stop2899"
         style="stop-color:#000000;stop-opacity:0"
         offset="1" />
    </linearGradient>
    <linearGradient
       x1="27.055927"
       y1="5.134068"
       x2="43.429096"
       y2="5.134068"
       id="linearGradient2949"
       xlink:href="#linearGradient2895"
       gradientUnits="userSpaceOnUse"
       gradientTransform="matrix(0.85509232,0,0,1.178723,-69.95703,42.805784)" />
    <radialGradient
       cx="30"
       cy="33.1875"
       r="4.6875"
       fx="30"
       fy="33.1875"
       id="radialGradient2952"
       xlink:href="#linearGradient5060"
       gradientUnits="userSpaceOnUse"
       gradientTransform="matrix(1.5279732,-7.0647448e-7,2.1308638e-7,0.46086628,-85.660631,57.562164)" />
    <linearGradient
       x1="38"
       y1="39"
       x2="43"
       y2="38.599998"
       id="linearGradient2955"
       xlink:href="#linearGradient5060"
       gradientUnits="userSpaceOnUse"
       gradientTransform="translate(-69.821429,42.857143)" />
    <linearGradient
       x1="22"
       y1="39"
       x2="17"
       y2="37.4375"
       id="linearGradient2958"
       xlink:href="#linearGradient5060"
       gradientUnits="userSpaceOnUse"
       gradientTransform="translate(-69.821429,42.857143)" />
    <radialGradient
       cx="26.375898"
       cy="12.31301"
       r="8"
       fx="26.375898"
       fy="12.31301"
       id="radialGradient2961"
       xlink:href="#linearGradient6954"
       gradientUnits="userSpaceOnUse"
       gradientTransform="matrix(1.640165,-0.1325824,0.12811381,1.5848844,-88.21778,37.629717)" />
    <linearGradient
       x1="30"
       y1="5"
       x2="30"
       y2="44.678879"
       id="linearGradient2963"
       xlink:href="#linearGradient3785"
       gradientUnits="userSpaceOnUse"
       gradientTransform="translate(-69.821429,42.857143)" />
    <linearGradient
       x1="24.786562"
       y1="53.869164"
       x2="24.87495"
       y2="83.5"
       id="linearGradient2966"
       xlink:href="#linearGradient3341"
       gradientUnits="userSpaceOnUse"
       gradientTransform="translate(-65.69638,3.357143)" />
    <radialGradient
       cx="24.999998"
       cy="28.659998"
       r="16"
       fx="24.999998"
       fy="28.659998"
       id="radialGradient2969"
       xlink:href="#linearGradient6954"
       gradientUnits="userSpaceOnUse"
       gradientTransform="matrix(1.3125,0,0,0.37326701,-77.633927,63.159311)" />
    <linearGradient
       x1="30"
       y1="25.084745"
       x2="30"
       y2="45"
       id="linearGradient2971"
       xlink:href="#linearGradient3785"
       gradientUnits="userSpaceOnUse"
       gradientTransform="translate(-69.821429,42.857143)" />
    <radialGradient
       cx="32"
       cy="41.5"
       r="21"
       fx="32"
       fy="41.5"
       id="radialGradient2974"
       xlink:href="#linearGradient5060"
       gradientUnits="userSpaceOnUse"
       gradientTransform="matrix(0.85714286,0,0,0.28571429,-67.25,72)" />
    <filter
       x="-0.20689654"
       y="-0.2857143"
       width="1.4137931"
       height="1.5714287"
       color-interpolation-filters="sRGB"
       id="filter3842">
      <feGaussianBlur
         id="feGaussianBlur3844"
         stdDeviation="5" />
    </filter>
    <clipPath
       id="clipPath3846">
      <path
         d="m 102,6 c -3.324,0 -6,2.676 -6,6 l 0,72 c 0,3.324 2.676,6 6,6 l 72,0 c 3.324,0 6,-2.676 6,-6 l 0,-72 c 0,-3.324 -2.676,-6 -6,-6 l -72,0 z m 36,21 c 4.27575,0 7.7501,3.22498 7.75,7.21875 -0.017,0.50192 -0.053,1.06898 -0.0937,1.65625 0.5842,0.43883 0.63569,1.74219 0.0625,3.09375 -0.20688,0.48783 -0.46974,0.90718 -0.75,1.25 -0.0907,0.424 -0.13328,0.75622 -0.25,1.25 -0.31758,0.95347 -1.58219,2.81614 -2.53125,4.28125 -0.0612,0.9744 -0.0577,1.9482 0.0625,2.9375 1.59781,1.39047 4.55784,2.451439 6.96875,3.46875 0.99952,-0.415702 1.91915,-0.840829 2.5625,-1.375 0.1571,-0.91653 0.1406,-1.7255 0.0625,-2.53125 -0.78289,-1.0445 -1.65985,-2.26031 -1.875,-2.90625 -0.0694,-0.31812 -0.0988,-0.53048 -0.15625,-0.8125 -0.008,-0.0088 -0.0232,-0.02225 -0.0312,-0.03125 -0.24058,-0.27087 -0.48169,-0.61965 -0.65625,-1.03125 -0.45269,-1.06743 -0.3825,-2.10425 0.125,-2.375 -0.0357,-0.42697 -0.0545,-0.81298 -0.0625,-1.15625 0,-2.99532 2.60569,-5.4375 5.8125,-5.4375 3.20682,0 5.8125,2.44217 5.8125,5.4375 -0.0127,0.37644 -0.0632,0.7783 -0.0937,1.21875 0.43815,0.32912 0.49239,1.29882 0.0625,2.3125 -0.15516,0.36587 -0.35231,0.68039 -0.5625,0.9375 -0.068,0.318 -0.1,0.56717 -0.1875,0.9375 -0.23818,0.7151 -1.1632,2.11991 -1.875,3.21875 -0.0459,0.7308 -0.0589,1.47678 0.0312,2.21875 2.22581,1.93697 8.02225,2.96722 8.03125,4.625 L 167,60.46875 c 0,1.01728 -1.51441,1.92514 -3.90625,2.5625 l -0.4375,1.4375 a 0.84317393,0.843822 0 0 1 -0.5,0.53125 c -0.10882,0.04212 -0.1705,0.13205 -0.46875,0.21875 C 160.11641,65.67522 157.68988,66 155,66 c -2.51238,0 -4.74599,-0.278913 -6.3125,-0.6875 l -0.46875,1.65625 a 1.1242319,1.125096 0 0 1 -0.65625,0.71875 c -0.1451,0.05616 -0.25859,0.16571 -0.65625,0.28125 C 144.81146,68.57738 141.58651,69 138,69 c -3.58651,0 -6.78021,-0.42262 -8.875,-1.03125 -0.39766,-0.11554 -0.51115,-0.22505 -0.65625,-0.28125 a 1.1242319,1.125096 0 0 1 -0.6875,-0.75 L 127.375,65.28125 C 125.80443,65.695778 123.53462,66 121,66 118.31012,66 115.91484,65.67522 114.34375,65.21875 114.0455,65.1321 113.98382,65.0421 113.875,65 a 0.84317393,0.843822 0 0 1 -0.53125,-0.5625 L 113,63.0625 c -2.45175,-0.63836 -4,-1.56194 -4,-2.59375 l 0.78125,-5.0625 c -0.009,-1.93697 5.74656,-2.75398 8,-4.625 0.1571,-0.91653 0.1406,-1.7255 0.0625,-2.53125 -0.78289,-1.0445 -1.65985,-2.26031 -1.875,-2.90625 -0.0695,-0.31812 -0.0988,-0.53048 -0.15625,-0.8125 -0.008,-0.0088 -0.0233,-0.02225 -0.0312,-0.03125 -0.24058,-0.27087 -0.48169,-0.61965 -0.65625,-1.03125 -0.45269,-1.06743 -0.3825,-2.10425 0.125,-2.375 -0.0357,-0.42697 -0.0545,-0.81298 -0.0625,-1.15625 0,-2.99532 2.60569,-5.4375 5.8125,-5.4375 3.20682,0 5.8125,2.44217 5.8125,5.4375 -0.0127,0.37644 -0.0631,0.7783 -0.0937,1.21875 0.43815,0.32912 0.49239,1.29882 0.0625,2.3125 -0.15516,0.36587 -0.35231,0.68039 -0.5625,0.9375 -0.068,0.318 -0.1,0.56717 -0.1875,0.9375 -0.23818,0.7151 -1.1632,2.11991 -1.875,3.21875 -0.0459,0.7308 -0.0589,1.47678 0.0312,2.21875 0.56995,0.49599 1.36884,0.938591 2.25,1.34375 2.44969,-1.03953 5.58983,-2.033128 7.28125,-3.4375 0.20939,-1.22203 0.19785,-2.26942 0.0937,-3.34375 -1.04386,-1.39267 -2.24438,-3.01374 -2.53125,-3.875 -0.0926,-0.42416 -0.14215,-0.71772 -0.21875,-1.09375 -0.0107,-0.0118 -0.0205,-0.01925 -0.0312,-0.03125 -0.32077,-0.36116 -0.64226,-0.82619 -0.875,-1.375 -0.60358,-1.42323 -0.52042,-2.82649 0.15625,-3.1875 -0.0476,-0.56929 -0.0521,-1.10481 -0.0625,-1.5625 C 130.25,30.22497 133.72425,27 138,27 z"
         inkscape:connector-curvature="0"
         id="path3849"
         style="fill:url(#linearGradient3851);fill-opacity:1;fill-rule:nonzero;stroke:none" />
    </clipPath>
    <linearGradient
       x1="48"
       y1="90"
       x2="48"
       y2="5.9877172"
       id="linearGradient3851"
       xlink:href="#linearGradient3700"
       gradientUnits="userSpaceOnUse"
       gradientTransform="translate(90,0)" />
    <linearGradient
       x1="48"
       y1="27"
       x2="48"
       y2="69"
       id="linearGradient3859"
       xlink:href="#linearGradient3853"
       gradientUnits="userSpaceOnUse" />
    <linearGradient
       x1="45.447727"
       y1="92.539597"
       x2="45.447727"
       y2="7.0165396"
       id="ButtonShadow-0"
       gradientUnits="userSpaceOnUse"
       gradientTransform="matrix(1.0058652,0,0,0.994169,100,0)">
      <stop
         id="stop3750-8"
         style="stop-color:#000000;stop-opacity:1"
         offset="0" />
      <stop
         id="stop3752-5"
         style="stop-color:#000000;stop-opacity:0.58823532"
         offset="1" />
    </linearGradient>
    <linearGradient
       x1="32.251034"
       y1="6.1317081"
       x2="32.251034"
       y2="90.238609"
       id="linearGradient3780"
       xlink:href="#ButtonShadow-0"
       gradientUnits="userSpaceOnUse"
       gradientTransform="matrix(1.0238095,0,0,1.0119048,-1.1428571,-98.071429)" />
    <linearGradient
       x1="32.251034"
       y1="6.1317081"
       x2="32.251034"
       y2="90.238609"
       id="linearGradient3772"
       xlink:href="#ButtonShadow-0"
       gradientUnits="userSpaceOnUse"
       gradientTransform="matrix(1.0238095,0,0,1.0119048,-1.1428571,-98.071429)" />
    <linearGradient
       x1="32.251034"
       y1="6.1317081"
       x2="32.251034"
       y2="90.238609"
       id="linearGradient3725"
       xlink:href="#ButtonShadow-0"
       gradientUnits="userSpaceOnUse"
       gradientTransform="matrix(1.0238095,0,0,1.0119048,-1.1428571,-98.071429)" />
    <linearGradient
       x1="32.251034"
       y1="6.1317081"
       x2="32.251034"
       y2="90.238609"
       id="linearGradient3721"
       xlink:href="#ButtonShadow-0"
       gradientUnits="userSpaceOnUse"
       gradientTransform="translate(0,-97)" />
    <linearGradient
       x1="32.251034"
       y1="6.1317081"
       x2="32.251034"
       y2="90.238609"
       id="linearGradient3059"
       xlink:href="#ButtonShadow-0"
       gradientUnits="userSpaceOnUse"
       gradientTransform="matrix(1.0238095,0,0,1.0119048,-1.1428571,-98.071429)" />
    <inkscape:path-effect
       effect="spiro"
       id="path-effect3047"
       is_visible="true" />
    <inkscape:path-effect
       effect="skeletal"
       id="path-effect3049"
       is_visible="true"
       pattern="M 0,0 0,10 10,5 z"
       copytype="single_stretched"
       prop_scale="1"
       scale_y_rel="false"
       spacing="0"
       normal_offset="0"
       tang_offset="0"
       prop_units="false"
       vertical_pattern="false"
       fuse_tolerance="0" />
    <inkscape:path-effect
       is_visible="true"
       id="path-effect3053"
       effect="spiro" />
    <inkscape:path-effect
       fuse_tolerance="0"
       vertical_pattern="false"
       prop_units="false"
       tang_offset="0"
       normal_offset="0"
       spacing="0"
       scale_y_rel="false"
       prop_scale="1"
       copytype="single_stretched"
       pattern="m -6.8374375,9.2793777 0,10.0000003 10,-5 z"
       is_visible="true"
       id="path-effect3055"
       effect="skeletal" />
  </defs>
  <metadata
     id="metadata2413">
    <rdf:RDF>
      <cc:Work
         rdf:about="">
        <dc:format>image/svg+xml</dc:format>
        <dc:type
           rdf:resource="http://purl.org/dc/dcmitype/StillImage" />
        <dc:title></dc:title>
      </cc:Work>
    </rdf:RDF>
  </metadata>
  <g
     id="layer2"
     style="display:none">
    <rect
       width="86"
       height="85"
       rx="6"
       ry="6"
       x="5"
       y="7"
       id="rect3745"
       style="opacity:0.9;fill:url(#ButtonShadow);fill-opacity:1;fill-rule:nonzero;stroke:none;filter:url(#filter3174)" />
  </g>
  <g
     id="layer1">
    <rect
       width="84"
       height="84"
       rx="6"
       ry="0.036197715"
       x="6"
       y="6"
       id="rect2419"
       style="fill:#e19c2b;fill-opacity:1;fill-rule:nonzero;stroke:none" />
  </g>
  <g
     id="layer5" />
  <g
     id="g3057"
     transform="matrix(0.36056738,0,0,0.36056738,39.092599,-5.8851137)">
    <path
       inkscape:connector-curvature="0"
       id="path2990"
       d="m 33.458834,234.61361 c 0,0 0.92942,-34.38825 -0.4647,-47.16767 0,0 -0.923382,-0.15892 -0.458672,-1.32069 0.46471,-1.16176 -0.238388,-2.1646 -1.632508,-4.48813 -1.39412,-2.32354 -38.0627756,-40.73065 -35.5500163,-63.43238 0,0 3.2271972,-23.648525 10.455887,-48.097085 C 1.7442549,62.416836 -11.3853,57.560591 -11.3853,57.560591 c 0,0 -38.570605,4.879414 -48.09708,12.547064 0,0 -23.235305,15.335301 -24.39707,21.37648 0,0 -1.394119,-3.717648 6.505885,-13.01177 l 9.294122,-7.900004 c 0,0 19.750009,-17.658831 59.7147317,-18.820596 0,0 7.90000396,-16.264713 24.3970753,-11.152946 0,0 10.22353,1.161765 10.22353,16.961772 0,0 -5.11177,36.944134 -4.18236,41.358842 0,0 30.43825,6.041177 35.55002,11.385297 l 74.585326,50.18826 c 0,0 2.78823,6.50588 -0.23236,8.59706 -3.02059,2.09118 -3.02059,-9.06177 -7.66765,-10.22353 0,0 4.41471,6.50588 4.87942,10.45588 0.4647,3.95001 -10.45589,3.71765 -13.01177,1.16177 -2.55589,-2.55588 6.73824,2.09118 7.43529,-0.92941 0.69706,-3.02059 -11.15294,-8.82942 -13.47647,-9.06177 -2.32353,-0.23235 -30.438246,-0.69706 -31.832366,0.69706 -1.39412,1.39412 -2.55588,2.32353 -1.16176,2.32353 1.39411,0 4.4147,0.69706 4.64706,-0.46471 0.23235,-1.16176 1.62647,0.69706 0.23235,1.62647 -1.39412,0.92942 -22.07354,4.18236 -26.02354,6.50589 -3.95,2.32353 -2.615986,2.60646 -3.475037,5.597 0,0 -0.970404,3.87443 2.835058,7.41101 3.338067,3.10222 0.756154,11.50523 -0.289431,17.43024 0,0 -4.41471,18.58824 -3.71765,37.64119 l -3.71765,0.23235 1.39412,-4.4147 c 0,0 3.02059,-58.08827 1.62647,-62.03827 l -16.49707,-1.16176 c 0,0 -0.23236,6.50588 0,7.9 0.11618,0.69706 4.006588,3.80315 4.674603,6.53329 0.668015,2.73015 -1.886363,5.08437 -1.189303,9.26672 0,0 1.39412,8.13235 0,19.98236 0,0 -2.09118,18.12354 -0.69706,19.98236 1.39412,1.85883 1.62647,4.18236 -0.69706,3.4853 -2.32353,-0.69706 -2.78824,-4.41471 -2.78824,-4.41471 z"
       style="fill:#000000;stroke:#000000;stroke-width:1px;stroke-linecap:butt;stroke-linejoin:miter;stroke-opacity:1"
       sodipodi:nodetypes="ccsscccccccccccccscssssssssscsccccccssccssc" />
    <path
       transform="translate(-1.2949882e-6,0)"
       inkscape:connector-curvature="0"
       inkscape:original-d="m 22.95425,226.29046 c -1.438781,-0.0549 -3.621081,-0.0837 -4.395495,1.46517 -3.363469,6.72693 14.986138,17.97861 19.047144,18.55875 4.19463,0.59923 11.674055,0.70614 15.628426,0 7.356297,-1.31362 41.543113,-15.61839 21.000697,-22.46586"
       inkscape:path-effect="#path-effect3047;#path-effect3049"
       id="path3045"
       d="m 22.840512,231.28917 0.227476,-9.99742 c -2.769098,0.0357 -5.358106,1.00956 -7.433901,2.74375 -1.882893,1.61592 -3.158962,3.66685 -3.773373,5.89263 -10e-7,0 -2e-6,0 -2e-6,1e-5 -0.60489,2.21328 -0.608451,4.44726 -0.09296,6.51881 0,0 0,0 0,0 1.107125,4.12139 3.730852,7.28849 6.92831,9.20449 1e-6,1e-5 2e-6,1e-5 2e-6,1e-5 3.140534,1.89343 6.495397,2.79432 9.694617,3.12333 3.183499,0.34949 6.191513,0.2821 9.043863,0.28946 5.127498,0.0513 10.680506,0.35913 16.138842,-0.9143 2e-6,0 3e-6,0 5e-6,0 5.741364,-1.37951 10.882774,-4.60256 14.543341,-8.97222 3.6587,-4.3714 5.7962,-9.84248 6.118292,-15.3292 -0.940168,5.41516 -3.646153,10.4086 -7.481904,14.05452 -3.833883,3.64766 -8.807091,5.96177 -13.857857,6.57578 -10e-7,0 -10e-7,0 -2e-6,0 -4.816562,0.62455 -9.817005,-0.31572 -15.118003,-0.9143 -2.949061,-0.35416 -5.770779,-0.5976 -8.321331,-1.20086 -2.534523,-0.62368 -4.872613,-1.49473 -6.52602,-2.88787 -1e-6,0 -2e-6,-1e-5 -3e-6,-1e-5 -1.594407,-1.36915 -2.809867,-3.1362 -2.854656,-4.70931 0,0 0,0 0,0 -0.06069,-0.77683 0.04224,-1.54206 0.325909,-2.09565 0,0 1e-6,0 1e-6,0 0.27408,-0.54089 0.680756,-1.01504 1.082267,-1.19506 0.400422,-0.21255 0.977173,-0.29396 1.357089,-0.18659 z"
       style="fill:#000000;fill-rule:evenodd;stroke:none" />
    <path
       style="fill:#000000;fill-rule:evenodd;stroke:none"
       d="m 6.1074791,240.45678 2.1145632,-9.77388 c -3.7441083,-0.68367 -7.46064003,0.30066 -10.3357927,2.6498 -2.3342028,1.97933 -3.820638,4.58722 -4.3643779,7.38846 -0.5296527,2.78037 -0.2200657,5.53635 0.7732557,7.98052 5e-7,0 1e-6,0 1.5e-6,0 0.9905266,2.42857 2.5173667,4.48852 4.3693574,6.08628 10e-7,0 1.9e-6,0 2.8e-6,0 1.84465856,1.59166 3.9163054,2.7529 6.0585486,3.51923 1e-6,0 2.1e-6,0 3.2e-6,0 4.2867162,1.49237 8.5981101,1.67773 12.5820591,1.32729 3.973764,-0.31397 7.66578,-1.01047 11.224953,-1.31427 2e-6,0 4e-6,0 6e-6,0 7.171428,-0.62252 14.981357,0.28994 22.781909,-1.00669 6.79893,-1.15442 13.19998,-4.05815 18.453372,-8.29029 5.252813,-4.23293 9.334463,-9.77571 11.795506,-15.89533 -2.9872,5.88074 -7.469881,10.91139 -12.824328,14.5001 -5.353869,3.58948 -11.585153,5.74238 -17.86073,6.246 -7.20988,0.6069 -14.617182,-0.99008 -22.564265,-1.00669 -2e-6,0 -4e-6,0 -6e-6,0 -3.943994,-0.003 -7.709554,0.36816 -11.240045,0.3264 -3.519938,-0.0783 -6.88664,-0.45246 -9.5605241,-1.77655 -1.4e-6,0 -2.7e-6,0 -4.1e-6,0 -1.338138,-0.64194 -2.5370017,-1.45144 -3.436341,-2.42235 -9e-7,0 -1.8e-6,-1e-5 -2.7e-6,-1e-5 -0.891887,-0.96469 -1.5736811,-2.06949 -1.8655957,-3.16943 -3e-7,0 -6e-7,0 -8e-7,0 -0.2890129,-1.08405 -0.3145955,-2.22384 -8.554e-4,-3.10153 0.299535,-0.85631 0.8614524,-1.65044 1.4815082,-1.98652 0.6679534,-0.42778 1.7620695,-0.54878 2.4178227,-0.28054 z"
       id="path3051"
       inkscape:path-effect="#path-effect3053;#path-effect3055"
       inkscape:original-d="m 7.1647607,235.56984 c -2.0873257,-0.0549 -5.2533189,-0.0837 -6.37680766,1.46517 -4.87958654,6.72693 21.74128696,17.97861 27.63283196,18.55875 6.085401,0.59923 16.93625,0.70614 22.673093,0 10.67222,-1.31362 60.269082,-15.61839 30.466968,-22.46586"
       inkscape:connector-curvature="0" />
  </g>
</svg>
