<?xml version="1.0" encoding="UTF-8" standalone="no"?>
<!-- Created with Inkscape (http://www.inkscape.org/) -->

<svg
   xmlns:dc="http://purl.org/dc/elements/1.1/"
   xmlns:cc="http://creativecommons.org/ns#"
   xmlns:rdf="http://www.w3.org/1999/02/22-rdf-syntax-ns#"
   xmlns:svg="http://www.w3.org/2000/svg"
   xmlns="http://www.w3.org/2000/svg"
   xmlns:xlink="http://www.w3.org/1999/xlink"
   xmlns:sodipodi="http://sodipodi.sourceforge.net/DTD/sodipodi-0.dtd"
   xmlns:inkscape="http://www.inkscape.org/namespaces/inkscape"
   version="1.0"
   width="96"
   height="96"
   id="svg2408"
   inkscape:version="0.48.4 r9939"
   sodipodi:docname="flashplayer.svg">
  <sodipodi:namedview
     pagecolor="#ffffff"
     bordercolor="#666666"
     borderopacity="1"
     objecttolerance="10"
     gridtolerance="10"
     guidetolerance="10"
     inkscape:pageopacity="0"
     inkscape:pageshadow="2"
     inkscape:window-width="1680"
     inkscape:window-height="991"
     id="namedview108"
     showgrid="false"
     inkscape:zoom="9.1976848"
     inkscape:cx="44.351886"
     inkscape:cy="47.121284"
     inkscape:window-x="0"
     inkscape:window-y="-3"
     inkscape:window-maximized="1"
     inkscape:current-layer="svg2408" />
  <defs
     id="defs2410">
    <linearGradient
       id="linearGradient3865">
      <stop
         id="stop3867"
         style="stop-color:#a9d5f6;stop-opacity:1"
         offset="0" />
      <stop
         id="stop3869"
         style="stop-color:#a9d5f6;stop-opacity:0"
         offset="1" />
    </linearGradient>
    <linearGradient
       id="linearGradient4314">
      <stop
         id="stop4316"
         style="stop-color:#ffffff;stop-opacity:1"
         offset="0" />
      <stop
         id="stop4322"
         style="stop-color:#ffffff;stop-opacity:0.49803922"
         offset="0.30000001" />
      <stop
         id="stop4318"
         style="stop-color:#ffffff;stop-opacity:0"
         offset="1" />
    </linearGradient>
    <linearGradient
       x1="45.447727"
       y1="92.539597"
       x2="45.447727"
       y2="7.0165396"
       id="ButtonShadow"
       gradientUnits="userSpaceOnUse"
       gradientTransform="scale(1.0058652,0.994169)">
      <stop
         id="stop3750"
         style="stop-color:#000000;stop-opacity:1"
         offset="0" />
      <stop
         id="stop3752"
         style="stop-color:#000000;stop-opacity:0.58823532"
         offset="1" />
    </linearGradient>
    <linearGradient
       id="linearGradient3737">
      <stop
         id="stop3739"
         style="stop-color:#ffffff;stop-opacity:1"
         offset="0" />
      <stop
         id="stop3741"
         style="stop-color:#ffffff;stop-opacity:0"
         offset="1" />
    </linearGradient>
    <filter
       color-interpolation-filters="sRGB"
       id="filter3174">
      <feGaussianBlur
         id="feGaussianBlur3176"
         stdDeviation="1.71" />
    </filter>
    <linearGradient
       x1="36.357143"
       y1="6"
       x2="36.357143"
       y2="63.893143"
       id="linearGradient3188"
       xlink:href="#linearGradient3737"
       gradientUnits="userSpaceOnUse" />
    <filter
       x="-0.192"
       y="-0.192"
       width="1.3839999"
       height="1.3839999"
       color-interpolation-filters="sRGB"
       id="filter3794">
      <feGaussianBlur
         id="feGaussianBlur3796"
         stdDeviation="5.28" />
    </filter>
    <linearGradient
       x1="48"
       y1="20.220806"
       x2="48"
       y2="138.66119"
       id="linearGradient3613"
       xlink:href="#linearGradient3737"
       gradientUnits="userSpaceOnUse" />
    <radialGradient
       cx="48"
       cy="90.171875"
       r="42"
       fx="48"
       fy="90.171875"
       id="radialGradient3619"
       xlink:href="#linearGradient3737"
       gradientUnits="userSpaceOnUse"
       gradientTransform="matrix(1.1573129,0,0,0.99590774,-7.5510206,0.19713193)" />
    <clipPath
       id="clipPath3613">
      <rect
         width="84"
         height="84"
         rx="6"
         ry="6"
         x="6"
         y="6"
         id="rect3615"
         style="fill:#ffffff;fill-opacity:1;fill-rule:nonzero;stroke:none" />
    </clipPath>
    <linearGradient
       x1="48"
       y1="90"
       x2="48"
       y2="5.9877172"
       id="linearGradient3617"
       xlink:href="#linearGradient3187"
       gradientUnits="userSpaceOnUse" />
    <linearGradient
       id="linearGradient3187">
      <stop
         id="stop3189"
         style="stop-color:#282828;stop-opacity:1"
         offset="0" />
      <stop
         id="stop3191"
         style="stop-color:#5a5a5a;stop-opacity:1"
         offset="1" />
    </linearGradient>
    <linearGradient
       id="linearGradient3299">
      <stop
         id="stop3301"
         style="stop-color:#dfdfdf;stop-opacity:1"
         offset="0" />
      <stop
         id="stop3303"
         style="stop-color:#434343;stop-opacity:1"
         offset="1" />
    </linearGradient>
    <linearGradient
       id="linearGradient3273">
      <stop
         id="stop3275"
         style="stop-color:#5d5d5d;stop-opacity:1"
         offset="0" />
      <stop
         id="stop3277"
         style="stop-color:#171717;stop-opacity:1"
         offset="1" />
    </linearGradient>
    <linearGradient
       id="linearGradient3289">
      <stop
         id="stop3291"
         style="stop-color:#919191;stop-opacity:1"
         offset="0" />
      <stop
         id="stop3293"
         style="stop-color:#232323;stop-opacity:1"
         offset="1" />
    </linearGradient>
    <linearGradient
       id="linearGradient3260"
       gradientUnits="userSpaceOnUse">
      <stop
         id="stop3262"
         style="stop-color:#000000;stop-opacity:1"
         offset="0" />
      <stop
         id="stop3266"
         style="stop-color:#000000;stop-opacity:0.3548387"
         offset="0.2" />
      <stop
         id="stop3268"
         style="stop-color:#000000;stop-opacity:0"
         offset="0.55254942" />
      <stop
         id="stop3264"
         style="stop-color:#000000;stop-opacity:0"
         offset="1" />
    </linearGradient>
    <linearGradient
       x1="43.476658"
       y1="26"
       x2="43.476658"
       y2="34.001266"
       id="linearGradient4262"
       xlink:href="#linearGradient3260"
       gradientUnits="userSpaceOnUse"
       gradientTransform="matrix(0.72413795,0,0,0.75,1.6551725,4.5)" />
    <linearGradient
       x1="48"
       y1="16"
       x2="48"
       y2="11.924657"
       id="linearGradient4310"
       xlink:href="#linearGradient3260"
       gradientUnits="userSpaceOnUse"
       gradientTransform="matrix(1,0,0,1.25,0,-4.5982122)" />
    <linearGradient
       x1="50.464287"
       y1="16.035713"
       x2="50.464287"
       y2="20.329885"
       id="linearGradient4320"
       xlink:href="#linearGradient4314"
       gradientUnits="userSpaceOnUse"
       gradientTransform="translate(0,-0.67856979)" />
    <linearGradient
       x1="48"
       y1="16"
       x2="48"
       y2="11.924657"
       id="linearGradient4326"
       xlink:href="#linearGradient3260"
       gradientUnits="userSpaceOnUse"
       gradientTransform="matrix(1,0,0,1.25,0,4.4017878)" />
    <linearGradient
       x1="11"
       y1="10.441942"
       x2="16"
       y2="24"
       id="linearGradient4371"
       xlink:href="#linearGradient3273"
       gradientUnits="userSpaceOnUse"
       gradientTransform="matrix(0.81330712,0,0,0.81132563,3.9935431,2.0281849)" />
    <linearGradient
       x1="13.125"
       y1="9.9419422"
       x2="19.25"
       y2="24.5"
       id="linearGradient4373"
       xlink:href="#linearGradient3289"
       gradientUnits="userSpaceOnUse"
       gradientTransform="matrix(0.81330712,0,0,0.81132563,3.9935431,2.0281849)" />
    <radialGradient
       cx="11.3125"
       cy="14.9375"
       r="1.4375"
       fx="11.3125"
       fy="14.9375"
       id="radialGradient4375"
       xlink:href="#linearGradient3299"
       gradientUnits="userSpaceOnUse" />
    <radialGradient
       cx="11.3125"
       cy="14.9375"
       r="1.4375"
       fx="11.3125"
       fy="14.9375"
       id="radialGradient4377"
       xlink:href="#linearGradient3299"
       gradientUnits="userSpaceOnUse" />
    <radialGradient
       cx="11.3125"
       cy="14.9375"
       r="1.4375"
       fx="11.3125"
       fy="14.9375"
       id="radialGradient4379"
       xlink:href="#linearGradient3299"
       gradientUnits="userSpaceOnUse" />
    <linearGradient
       id="linearGradient3224">
      <stop
         id="stop3226"
         style="stop-color:#44b0ff;stop-opacity:1"
         offset="0" />
      <stop
         id="stop3228"
         style="stop-color:#0a3859;stop-opacity:1"
         offset="1" />
    </linearGradient>
    <radialGradient
       cx="48"
       cy="85.131531"
       r="36"
       fx="48"
       fy="85.131531"
       id="radialGradient3792"
       xlink:href="#linearGradient3224"
       gradientUnits="userSpaceOnUse"
       gradientTransform="matrix(1.4018647,1.2754473e-8,-1.1111112e-8,1.2212402,-19.289505,-25.867403)" />
    <linearGradient
       x1="31.642857"
       y1="25.779018"
       x2="31.642857"
       y2="69.410355"
       id="linearGradient3871"
       xlink:href="#linearGradient3865"
       gradientUnits="userSpaceOnUse" />
    <linearGradient
       x1="45.447727"
       y1="92.539597"
       x2="45.447727"
       y2="7.0165396"
       id="ButtonShadow-0"
       gradientUnits="userSpaceOnUse"
       gradientTransform="matrix(1.0058652,0,0,0.994169,100,0)">
      <stop
         id="stop3750-8"
         style="stop-color:#000000;stop-opacity:1"
         offset="0" />
      <stop
         id="stop3752-5"
         style="stop-color:#000000;stop-opacity:0.58823532"
         offset="1" />
    </linearGradient>
    <linearGradient
       x1="32.251034"
       y1="6.1317081"
       x2="32.251034"
       y2="90.238609"
       id="linearGradient3780"
       xlink:href="#ButtonShadow-0"
       gradientUnits="userSpaceOnUse"
       gradientTransform="matrix(1.0238095,0,0,1.0119048,-1.1428571,-98.071429)" />
    <linearGradient
       x1="32.251034"
       y1="6.1317081"
       x2="32.251034"
       y2="90.238609"
       id="linearGradient3772"
       xlink:href="#ButtonShadow-0"
       gradientUnits="userSpaceOnUse"
       gradientTransform="matrix(1.0238095,0,0,1.0119048,-1.1428571,-98.071429)" />
    <linearGradient
       x1="32.251034"
       y1="6.1317081"
       x2="32.251034"
       y2="90.238609"
       id="linearGradient3725"
       xlink:href="#ButtonShadow-0"
       gradientUnits="userSpaceOnUse"
       gradientTransform="matrix(1.0238095,0,0,1.0119048,-1.1428571,-98.071429)" />
    <linearGradient
       x1="32.251034"
       y1="6.1317081"
       x2="32.251034"
       y2="90.238609"
       id="linearGradient3721"
       xlink:href="#ButtonShadow-0"
       gradientUnits="userSpaceOnUse"
       gradientTransform="translate(0,-97)" />
    <linearGradient
       x1="32.251034"
       y1="6.1317081"
       x2="32.251034"
       y2="90.238609"
       id="linearGradient3071"
       xlink:href="#ButtonShadow-0"
       gradientUnits="userSpaceOnUse"
       gradientTransform="matrix(1.0238095,0,0,1.0119048,-1.1428571,-98.071429)" />
    <linearGradient
       inkscape:collect="always"
       xlink:href="#linearGradient3737"
       id="linearGradient3085"
       gradientUnits="userSpaceOnUse"
       x1="48"
       y1="20.220806"
       x2="48"
       y2="138.66119" />
    <linearGradient
       x1="62.336792"
       y1="79.015236"
       x2="62.336792"
       y2="12.797539"
       id="linearGradient2936"
       xlink:href="#linearGradient3694"
       gradientUnits="userSpaceOnUse"
       gradientTransform="matrix(0.87485882,0,0,0.90698611,2.762671,6.33428)" />
    <linearGradient
       id="linearGradient3694">
      <stop
         id="stop3696"
         style="stop-color:#e6e6e6;stop-opacity:1"
         offset="0" />
      <stop
         id="stop3698"
         style="stop-color:#f5f5f5;stop-opacity:1"
         offset="1" />
    </linearGradient>
    <linearGradient
       x1="55"
       y1="18"
       x2="55"
       y2="112"
       id="linearGradient3831"
       xlink:href="#linearGradient3825"
       gradientUnits="userSpaceOnUse" />
    <linearGradient
       id="linearGradient3825">
      <stop
         id="stop3827"
         style="stop-color:#501616;stop-opacity:1"
         offset="0" />
      <stop
         id="stop3829"
         style="stop-color:#501616;stop-opacity:0"
         offset="1" />
    </linearGradient>
  </defs>
  <metadata
     id="metadata2413">
    <rdf:RDF>
      <cc:Work
         rdf:about="">
        <dc:format>image/svg+xml</dc:format>
        <dc:type
           rdf:resource="http://purl.org/dc/dcmitype/StillImage" />
        <dc:title />
      </cc:Work>
    </rdf:RDF>
  </metadata>
  <g
     id="layer2"
     style="display:none">
    <rect
       width="86"
       height="85"
       rx="6"
       ry="6"
       x="5"
       y="7"
       id="rect3745"
       style="opacity:0.9;fill:url(#ButtonShadow);fill-opacity:1;fill-rule:nonzero;stroke:none;filter:url(#filter3174)" />
  </g>
  <g
     id="layer1">
    <rect
       width="84"
       height="84"
       rx="6"
       ry="0.020234315"
       x="6"
       y="6"
       id="rect2419"
       style="fill:#1a1a1a;fill-opacity:1;fill-rule:nonzero;stroke:none" />
  </g>
  <g
     id="layer5" />
  <g
     id="layer3">
    <path
       d="M 12,6 C 8.676,6 6,8.676 6,12 l 0,12 84,0 0,-12 C 90,5.9579247 89.933352,6 84,6 z"
       inkscape:connector-curvature="0"
       id="rect4237"
       style="fill:#000000;fill-opacity:1;fill-rule:nonzero;stroke:none"
       sodipodi:nodetypes="ssccsss" />
    <rect
       width="84"
       height="6"
       x="6"
       y="24"
       id="rect3250"
       style="opacity:0.8;fill:url(#linearGradient4262);fill-opacity:1;fill-rule:evenodd;stroke:none" />
    <rect
       width="84"
       height="5"
       x="6"
       y="15"
       id="rect4289"
       style="opacity:0.29999999999999999;fill:#1a1a1a;fill-opacity:1;fill-rule:evenodd;stroke:none" />
    <g
       transform="translate(1,0)"
       id="g4299">
      <path
         d="M 28.333333,6 23,15 28.333333,24 39,24 33.666667,15 39,6 28.333333,6 z"
         inkscape:connector-curvature="0"
         id="path4293"
         style="fill:#f0f0f0;fill-opacity:1;fill-rule:evenodd;stroke:none" />
      <path
         d="M 50.333333,6 45,15 50.333333,24 61,24 55.666667,15 61,6 50.333333,6 z"
         inkscape:connector-curvature="0"
         id="path4295"
         style="fill:#f0f0f0;fill-opacity:1;fill-rule:evenodd;stroke:none" />
      <path
         d="M 72.333333,6 67,15 72.333333,24 83,24 77.666667,15 83,6 72.333333,6 z"
         inkscape:connector-curvature="0"
         id="path4297"
         style="fill:#f0f0f0;fill-opacity:1;fill-rule:evenodd;stroke:none" />
    </g>
    <path
       d="m 12.75,14.9375 a 1.4375,1.4375 0 1 1 -2.875,0 1.4375,1.4375 0 1 1 2.875,0 z"
       transform="matrix(0.81330712,0,0,0.81132563,3.5868895,1.0746776)"
       id="path4335"
       style="fill:#b3b3b3;fill-opacity:1;fill-rule:evenodd;stroke:none" />
    <path
       d="m 12.75,14.9375 a 1.4375,1.4375 0 1 1 -2.875,0 1.4375,1.4375 0 1 1 2.875,0 z"
       transform="matrix(0.81330712,0,0,0.81132563,3.5868895,7.09897)"
       id="path4337"
       style="fill:#b3b3b3;fill-opacity:1;fill-rule:evenodd;stroke:none" />
  </g>
  <g
     id="layer4" />
  <g
     id="layer6"
     style="display:inline" />
  <g
     transform="matrix(0.86837958,0,0,0.64744529,6.3592359,25.89717)"
     id="layer1-9">
    <rect
       width="84"
       height="84"
       rx="6"
       ry="6"
       x="6"
       y="6"
       id="rect2419-2"
       style="fill:#cd2518;fill-opacity:1;fill-rule:nonzero;stroke:none" />
  </g>
  <g
     transform="matrix(0.73127497,0,0,0.67414658,11.755673,24.413412)"
     id="layer4-0">
    <path
       d="m 72,18.019752 0,12.070101 C 59.948935,30.301609 56.987234,42.054076 56.987234,42.054076 l 9.089362,0 0,12.070102 -14.093617,0 C 43.506385,80.276063 24,77.946746 24,77.946746 l 0,-12.070102 c 0,0 12.378009,2.29621 18.689364,-20.752103 C 50.584291,16.293201 72,18.019752 72,18.019752 z"
       inkscape:connector-curvature="0"
       id="path3727"
       style="fill:url(#linearGradient2936);fill-opacity:1;stroke:none" />
    <path
       d="M 71.0625,18 C 66.855461,18.063706 49.595561,19.897577 42.6875,45.125 36.376145,68.173313 24,65.875 24,65.875 l 0,12.0625 c 0,0 19.492156,2.339385 27.96875,-23.8125 l 14.09375,0 0,-12.0625 -9.0625,0 c 0,0 2.948935,-11.756994 15,-11.96875 l 0,-12.0625 c 0,0 -0.336494,-0.04035 -0.9375,-0.03125 z M 71,19.062499 71,29.21875 c -5.756652,0.421836 -9.573527,3.384171 -11.8125,6.34375 -2.370885,3.133948 -3.15625,6.25 -3.15625,6.25 A 0.99278244,0.99278244 0 0 0 57,43.0625 l 8.0625,0 0,10.0625 -13.09375,0 a 0.99278244,0.99278244 0 0 0 -0.9375,0.6875 c -4.166805,12.855375 -10.927727,18.547337 -16.625,21.125 -4.866511,2.201794 -8.328029,2.072249 -9.40625,2 L 25,66.875 c 0.40845,0.02126 0.476194,0.07815 1.15625,0 1.378738,-0.158437 3.24037,-0.644163 5.3125,-1.875 4.144259,-2.461674 8.985949,-7.933321 12.1875,-19.625 C 47.54198,31.184772 54.64108,24.70964 60.75,21.656249 66.015834,19.024253 69.86141,19.026542 71,19.062499 z"
       inkscape:connector-curvature="0"
       id="path2902"
       style="opacity:0.25;fill:url(#linearGradient3831);fill-opacity:1;stroke:none" />
    <path
       d="M 72,30.09375 C 59.948935,30.305506 57,42.0625 57,42.0625 l 0.3125,0 C 58.303766,39.289815 62.016365,31.269178 72,31.09375 l 0,-1 z M 51.96875,54.125 C 43.492156,80.276885 24,77.9375 24,77.9375 l 0,1 c 0,0 19.492156,2.339385 27.96875,-23.8125 l 14.09375,0 0,-1 -14.09375,0 z"
       inkscape:connector-curvature="0"
       id="path3758"
       style="opacity:0.4;fill:#69352f;fill-opacity:1;stroke:none" />
  </g>
</svg>
