<?xml version="1.0" encoding="UTF-8" standalone="no"?>
<!-- Created with Inkscape (http://www.inkscape.org/) -->

<svg
   xmlns:dc="http://purl.org/dc/elements/1.1/"
   xmlns:cc="http://creativecommons.org/ns#"
   xmlns:rdf="http://www.w3.org/1999/02/22-rdf-syntax-ns#"
   xmlns:svg="http://www.w3.org/2000/svg"
   xmlns="http://www.w3.org/2000/svg"
   xmlns:xlink="http://www.w3.org/1999/xlink"
   xmlns:sodipodi="http://sodipodi.sourceforge.net/DTD/sodipodi-0.dtd"
   xmlns:inkscape="http://www.inkscape.org/namespaces/inkscape"
   version="1.0"
   width="96"
   height="96"
   id="svg2408"
   inkscape:version="0.48.5 r10040"
   sodipodi:docname="addressbook.svg">
  <sodipodi:namedview
     pagecolor="#ffffff"
     bordercolor="#666666"
     borderopacity="1"
     objecttolerance="10"
     gridtolerance="10"
     guidetolerance="10"
     inkscape:pageopacity="0"
     inkscape:pageshadow="2"
     inkscape:window-width="1680"
     inkscape:window-height="991"
     id="namedview95"
     showgrid="false"
     inkscape:zoom="3.1782931"
     inkscape:cx="53.507335"
     inkscape:cy="25.824047"
     inkscape:current-layer="svg2408"
     inkscape:window-x="-2"
     inkscape:window-y="-3"
     inkscape:window-maximized="1" />
  <defs
     id="defs2410">
    <linearGradient
       id="linearGradient3778">
      <stop
         id="stop3780"
         style="stop-color:#000000;stop-opacity:1"
         offset="0" />
      <stop
         id="stop3786"
         style="stop-color:#000000;stop-opacity:0"
         offset="0.5" />
      <stop
         id="stop3782"
         style="stop-color:#ffffff;stop-opacity:1"
         offset="1" />
    </linearGradient>
    <linearGradient
       id="linearGradient3761">
      <stop
         id="stop3763"
         style="stop-color:#000000;stop-opacity:1"
         offset="0" />
      <stop
         id="stop3769"
         style="stop-color:#000000;stop-opacity:0.19379845"
         offset="0.5" />
      <stop
         id="stop3765"
         style="stop-color:#000000;stop-opacity:0"
         offset="1" />
    </linearGradient>
    <linearGradient
       id="linearGradient3745">
      <stop
         id="stop3747"
         style="stop-color:#8a8a8a;stop-opacity:1"
         offset="0" />
      <stop
         id="stop3753"
         style="stop-color:#d5d5d5;stop-opacity:1"
         offset="0.40964222" />
      <stop
         id="stop3755"
         style="stop-color:#6f6f6f;stop-opacity:1"
         offset="0.72741055" />
      <stop
         id="stop3749"
         style="stop-color:#373737;stop-opacity:1"
         offset="1" />
    </linearGradient>
    <linearGradient
       id="linearGradient3640">
      <stop
         id="stop3642"
         style="stop-color:#1a1a1a;stop-opacity:1"
         offset="0" />
      <stop
         id="stop3644"
         style="stop-color:#2a2a2a;stop-opacity:1"
         offset="1" />
    </linearGradient>
    <linearGradient
       id="linearGradient3627">
      <stop
         id="stop3629"
         style="stop-color:#5f101a;stop-opacity:1"
         offset="0" />
      <stop
         id="stop3631"
         style="stop-color:#811524;stop-opacity:1"
         offset="1" />
    </linearGradient>
    <linearGradient
       x1="45.447727"
       y1="92.539597"
       x2="45.447727"
       y2="7.0165396"
       id="ButtonShadow"
       gradientUnits="userSpaceOnUse"
       gradientTransform="scale(1.0058652,0.994169)">
      <stop
         id="stop3750"
         style="stop-color:#000000;stop-opacity:1"
         offset="0" />
      <stop
         id="stop3752"
         style="stop-color:#000000;stop-opacity:0.58823532"
         offset="1" />
    </linearGradient>
    <linearGradient
       id="linearGradient3737">
      <stop
         id="stop3739"
         style="stop-color:#ffffff;stop-opacity:1"
         offset="0" />
      <stop
         id="stop3741"
         style="stop-color:#ffffff;stop-opacity:0"
         offset="1" />
    </linearGradient>
    <filter
       color-interpolation-filters="sRGB"
       id="filter3174">
      <feGaussianBlur
         id="feGaussianBlur3176"
         stdDeviation="1.71" />
    </filter>
    <linearGradient
       x1="36.357143"
       y1="6"
       x2="36.357143"
       y2="63.893143"
       id="linearGradient3188"
       xlink:href="#linearGradient3737"
       gradientUnits="userSpaceOnUse" />
    <filter
       x="-0.192"
       y="-0.192"
       width="1.3839999"
       height="1.3839999"
       color-interpolation-filters="sRGB"
       id="filter3794">
      <feGaussianBlur
         id="feGaussianBlur3796"
         stdDeviation="5.28" />
    </filter>
    <linearGradient
       x1="48"
       y1="20.220806"
       x2="48"
       y2="138.66119"
       id="linearGradient3613"
       xlink:href="#linearGradient3737"
       gradientUnits="userSpaceOnUse" />
    <radialGradient
       cx="48"
       cy="90.171875"
       r="42"
       fx="48"
       fy="90.171875"
       id="radialGradient3619"
       xlink:href="#linearGradient3737"
       gradientUnits="userSpaceOnUse"
       gradientTransform="matrix(1.1573129,0,0,0.99590774,-7.5510206,0.19713193)" />
    <clipPath
       id="clipPath3613">
      <rect
         width="84"
         height="84"
         rx="6"
         ry="6"
         x="6"
         y="6"
         id="rect3615"
         style="fill:#ffffff;fill-opacity:1;fill-rule:nonzero;stroke:none" />
    </clipPath>
    <linearGradient
       x1="54.75"
       y1="90"
       x2="54.75"
       y2="5.9794726"
       id="linearGradient3633"
       xlink:href="#linearGradient3627"
       gradientUnits="userSpaceOnUse" />
    <linearGradient
       x1="16"
       y1="88"
       x2="16"
       y2="8"
       id="linearGradient3646"
       xlink:href="#linearGradient3640"
       gradientUnits="userSpaceOnUse" />
    <clipPath
       id="clipPath3674">
      <g
         transform="translate(0,-0.500001)"
         id="g3676"
         style="font-size:44.84671402px;font-style:normal;font-variant:normal;font-weight:normal;font-stretch:normal;text-align:start;line-height:125%;writing-mode:lr-tb;text-anchor:start;fill:#ffffff;fill-opacity:1;stroke:none;font-family:Droid Sans;-inkscape-font-specification:Abandoned Bitplane">
        <path
           d="m 73.036498,46.0073 c -3.7e-5,0.905125 -0.07303,1.817532 -0.218978,2.737226 -0.131423,0.905122 -0.335803,1.773734 -0.613139,2.60584 -0.262809,0.817528 -0.605874,1.58395 -1.029197,2.29927 -0.408793,0.700737 -0.890545,1.313875 -1.445255,1.839416 -0.554778,0.525553 -1.189813,0.941611 -1.90511,1.248175 -0.70076,0.291976 -1.474482,0.437961 -2.321168,0.437956 -0.656962,5e-6 -1.255502,-0.109484 -1.79562,-0.328467 -0.525574,-0.218973 -0.978128,-0.510943 -1.357664,-0.875913 -0.379588,-0.364957 -0.693456,-0.781015 -0.941606,-1.248175 -0.233601,-0.481744 -0.394185,-0.978094 -0.481752,-1.489051 l -0.08759,0 c -0.262798,0.540154 -0.591265,1.051103 -0.985402,1.532847 -0.394183,0.481758 -0.854037,0.905116 -1.379562,1.270073 -0.51097,0.35037 -1.094911,0.627742 -1.751824,0.832117 -0.642356,0.204384 -1.350384,0.306574 -2.124088,0.306569 -1.124104,5e-6 -2.124103,-0.204375 -3,-0.613139 -0.861328,-0.408753 -1.591254,-0.978095 -2.189781,-1.708029 -0.598552,-0.744518 -1.058406,-1.635028 -1.379562,-2.671533 -0.30658,-1.036485 -0.459865,-2.182469 -0.459854,-3.437956 -1.1e-5,-1.474438 0.211668,-2.824801 0.635037,-4.051095 0.437944,-1.226258 1.058381,-2.284651 1.861314,-3.175182 C 50.8832,40.62776 51.8686,39.93433 53.0219,39.437957 c 1.153267,-0.496327 2.445236,-0.744502 3.875912,-0.744525 0.656913,2.3e-5 1.313847,0.02922 1.970803,0.08759 0.656911,0.05842 1.284648,0.138709 1.883212,0.240876 0.598515,0.102212 1.14596,0.219001 1.642335,0.350365 0.510923,0.116811 0.93428,0.233599 1.270073,0.350365 l -0.503649,9.109488 c -0.01463,0.321181 -0.02922,0.583955 -0.0438,0.788322 -2.6e-5,0.189793 -2.6e-5,0.343077 0,0.459854 -2.6e-5,0.1168 -2.6e-5,0.204391 0,0.262773 -2.6e-5,0.05841 -2.6e-5,0.109501 0,0.153285 -2.6e-5,0.773733 0.07297,1.408769 0.218978,1.905109 0.160557,0.49636 0.364937,0.89052 0.613139,1.182482 0.248147,0.291979 0.525519,0.496358 0.832117,0.613139 0.321139,0.102197 0.649606,0.153292 0.985401,0.153284 0.671503,8e-6 1.262743,-0.21897 1.773723,-0.656934 0.510917,-0.452546 0.934274,-1.058385 1.270073,-1.817518 0.350332,-0.759113 0.613105,-1.649623 0.788321,-2.671533 0.175149,-1.021884 0.26274,-2.102175 0.262773,-3.240876 -3.3e-5,-2.072974 -0.313901,-3.912388 -0.941605,-5.518248 -0.627769,-1.620414 -1.496382,-2.985376 -2.60584,-4.09489 -1.109517,-1.109462 -2.430684,-1.948877 -3.963503,-2.518248 -1.518273,-0.583913 -3.175205,-0.875883 -4.970803,-0.875912 -2.467172,2.9e-5 -4.642352,0.408787 -6.525547,1.226277 -1.883224,0.802947 -3.467164,1.934332 -4.751825,3.39416 -1.270081,1.445279 -2.233584,3.167905 -2.890511,5.167883 -0.65694,1.985419 -0.985407,4.160599 -0.985401,6.525548 -6e-6,2.20439 0.284665,4.160592 0.854014,5.868613 0.583935,1.708034 1.430649,3.145989 2.540146,4.313868 1.124078,1.167885 2.510938,2.051095 4.160584,2.649635 1.664219,0.59854 3.569326,0.897809 5.715328,0.89781 0.890491,-1e-6 1.766403,-0.0511 2.627738,-0.153284 0.875889,-0.102191 1.715305,-0.240877 2.518248,-0.416059 0.817493,-0.175182 1.591215,-0.372263 2.321167,-0.591241 0.7299,-0.233576 1.408732,-0.474452 2.036497,-0.722627 l 0,3.087591 c -1.255502,0.554742 -2.671559,0.992697 -4.248175,1.313868 -1.576665,0.321164 -3.31389,0.481748 -5.211679,0.481752 -2.613155,-4e-6 -4.948919,-0.372266 -7.007299,-1.116788 -2.043806,-0.744528 -3.78103,-1.824819 -5.211679,-3.240876 -1.416063,-1.430655 -2.496354,-3.167879 -3.240876,-5.211679 -0.744528,-2.058386 -1.11679,-4.39415 -1.116788,-7.007299 -2e-6,-2.74451 0.430654,-5.299252 1.291971,-7.664233 0.861309,-2.379539 2.087585,-4.437931 3.678832,-6.175182 1.60583,-1.737198 3.540135,-3.10216 5.802919,-4.094891 2.277357,-0.992669 4.8248,-1.489019 7.642336,-1.489051 2.277349,3.2e-5 4.372237,0.372295 6.284671,1.116789 1.91238,0.729957 3.562013,1.78835 4.948905,3.175182 1.401427,1.372289 2.489017,3.051119 3.262774,5.036496 0.773686,1.970824 1.160547,4.197099 1.160584,6.678832 m -21.963503,2.824817 c -1.5e-5,1.941618 0.364948,3.350375 1.09489,4.226278 0.74451,0.861322 1.737209,1.291978 2.978102,1.29197 0.802901,8e-6 1.489031,-0.160576 2.058395,-0.481751 0.569321,-0.335758 1.036474,-0.802911 1.401459,-1.40146 0.364941,-0.613129 0.642313,-1.335756 0.832117,-2.167883 0.189758,-0.846703 0.313846,-1.773709 0.372263,-2.781022 l 0.306569,-5.540146 c -0.408782,-0.116768 -0.897833,-0.218958 -1.467153,-0.306569 -0.554766,-0.10217 -1.138707,-0.153264 -1.751825,-0.153285 -1.080311,2.1e-5 -1.992719,0.211699 -2.737226,0.635037 -0.729944,0.423377 -1.328483,0.978121 -1.79562,1.664233 -0.45257,0.686149 -0.781037,1.46717 -0.985402,2.343066 -0.204394,0.875927 -0.306584,1.766437 -0.306569,2.671532"
           inkscape:connector-curvature="0"
           id="path3678" />
      </g>
    </clipPath>
    <clipPath
       id="clipPath3724">
      <path
         d="m 32,24 0,48 48,0 0,-48 -48,0 z m 25.375,6 c 2.277349,3.2e-5 4.368816,0.380506 6.28125,1.125 1.91238,0.729957 3.581858,1.769418 4.96875,3.15625 1.401427,1.372289 2.476243,3.077123 3.25,5.0625 0.773686,1.970824 1.156213,4.174517 1.15625,6.65625 -3.7e-5,0.905125 -0.0728,1.830306 -0.21875,2.75 -0.131423,0.905122 -0.316414,1.761644 -0.59375,2.59375 -0.262809,0.817528 -0.607927,1.59718 -1.03125,2.3125 -0.408793,0.700737 -0.91404,1.318209 -1.46875,1.84375 -0.554778,0.525553 -1.190953,0.943436 -1.90625,1.25 -0.70076,0.291976 -1.465814,0.437505 -2.3125,0.4375 -0.656962,5e-6 -1.241132,-0.124767 -1.78125,-0.34375 -0.525574,-0.218973 -0.995464,-0.51003 -1.375,-0.875 -0.379588,-0.364957 -0.68935,-0.78284 -0.9375,-1.25 -0.233601,-0.481744 -0.381183,-0.989043 -0.46875,-1.5 l -0.09375,0 c -0.262798,0.540154 -0.605863,1.080756 -1,1.5625 -0.394183,0.481758 -0.849475,0.885043 -1.375,1.25 -0.51097,0.35037 -1.093087,0.639375 -1.75,0.84375 -0.642356,0.204384 -1.351296,0.312505 -2.125,0.3125 -1.124104,5e-6 -2.124103,-0.216236 -3,-0.625 -0.861328,-0.408753 -1.588973,-0.988816 -2.1875,-1.71875 -0.598552,-0.744518 -1.053844,-1.619745 -1.375,-2.65625 -0.30658,-1.036485 -0.468761,-2.182013 -0.46875,-3.4375 -1.1e-5,-1.474438 0.232881,-2.836206 0.65625,-4.0625 0.437944,-1.226258 1.040817,-2.265719 1.84375,-3.15625 0.817503,-0.890489 1.81545,-1.597377 2.96875,-2.09375 1.153267,-0.496327 2.444324,-0.749977 3.875,-0.75 0.656913,2.3e-5 1.311794,0.03538 1.96875,0.09375 0.656911,0.05842 1.276436,0.147833 1.875,0.25 0.598515,0.102212 1.159875,0.212386 1.65625,0.34375 0.510923,0.116811 0.914207,0.226984 1.25,0.34375 l -0.5,9.125 c -0.01463,0.321181 -0.01667,0.576883 -0.03125,0.78125 -2.6e-5,0.189793 -2.6e-5,0.351973 0,0.46875 -2.6e-5,0.1168 -2.6e-5,0.191618 0,0.25 -2.6e-5,0.05841 -2.6e-5,0.112466 0,0.15625 -2.6e-5,0.773733 0.07274,1.40991 0.21875,1.90625 0.160557,0.49636 0.345548,0.895538 0.59375,1.1875 0.248147,0.291979 0.537152,0.476969 0.84375,0.59375 0.321139,0.102197 0.664205,0.156258 1,0.15625 0.671503,8e-6 1.23902,-0.218286 1.75,-0.65625 0.510917,-0.452546 0.945451,-1.053367 1.28125,-1.8125 0.350332,-0.759113 0.606034,-1.63434 0.78125,-2.65625 0.175149,-1.021884 0.281217,-2.111299 0.28125,-3.25 -3.3e-5,-2.072974 -0.341046,-3.92539 -0.96875,-5.53125 -0.627769,-1.620414 -1.484292,-2.984236 -2.59375,-4.09375 -1.109517,-1.109462 -2.435931,-1.930629 -3.96875,-2.5 -1.518273,-0.583913 -3.173152,-0.874971 -4.96875,-0.875 -2.467172,2.9e-5 -4.648055,0.40126 -6.53125,1.21875 -1.883224,0.802947 -3.465339,1.915172 -4.75,3.375 -1.270081,1.445279 -2.218073,3.187522 -2.875,5.1875 -0.65694,1.985419 -1.000006,4.166301 -1,6.53125 -6e-6,2.20439 0.305651,4.135729 0.875,5.84375 0.583935,1.708034 1.421753,3.144621 2.53125,4.3125 1.124078,1.16789 2.506604,2.05771 4.15625,2.65625 C 51.445469,62.69229 53.353998,63 55.5,63 c 0.890491,0 1.763665,-0.0541 2.625,-0.15625 0.875889,-0.10219 1.728307,-0.23107 2.53125,-0.40625 0.817493,-0.17519 1.582548,-0.37478 2.3125,-0.59375 C 63.69865,61.61017 64.372235,61.37317 65,61.125 l 0,3.09375 c -1.255502,0.55474 -2.673384,0.99133 -4.25,1.3125 C 59.173335,65.85241 57.429039,66 55.53125,66 c -2.613155,0 -4.94162,-0.38048 -7,-1.125 -2.043806,-0.74453 -3.788101,-1.8027 -5.21875,-3.21875 -1.416063,-1.43066 -2.474228,-3.17495 -3.21875,-5.21875 -0.744528,-2.058386 -1.125002,-4.386851 -1.125,-7 -2e-6,-2.74451 0.419933,-5.322519 1.28125,-7.6875 0.861309,-2.379539 2.096253,-4.418999 3.6875,-6.15625 1.60583,-1.737198 3.549716,-3.101019 5.8125,-4.09375 2.277357,-0.992669 4.807464,-1.499968 7.625,-1.5 z m -0.46875,11.53125 c -1.080311,2.1e-5 -2.005493,0.201662 -2.75,0.625 -0.729944,0.423377 -1.314113,0.970138 -1.78125,1.65625 -0.45257,0.686149 -0.795635,1.467854 -1,2.34375 -0.204394,0.875927 -0.312515,1.782405 -0.3125,2.6875 -1.5e-5,1.941618 0.363808,3.342847 1.09375,4.21875 0.74451,0.861322 1.759107,1.281258 3,1.28125 0.802901,8e-6 1.493136,-0.147575 2.0625,-0.46875 0.569321,-0.335758 1.010015,-0.807701 1.375,-1.40625 0.364941,-0.613129 0.653946,-1.324123 0.84375,-2.15625 0.189758,-0.846703 0.316583,-1.773937 0.375,-2.78125 l 0.3125,-5.5625 c -0.408782,-0.116768 -0.89943,-0.224889 -1.46875,-0.3125 -0.554766,-0.10217 -1.136882,-0.124979 -1.75,-0.125 z"
         inkscape:connector-curvature="0"
         id="path3726"
         style="opacity:0.2;fill:#ff00ff;fill-opacity:1;stroke:none" />
    </clipPath>
    <linearGradient
       x1="9"
       y1="22"
       x2="9"
       y2="26"
       id="linearGradient3751"
       xlink:href="#linearGradient3745"
       gradientUnits="userSpaceOnUse" />
    <linearGradient
       x1="4"
       y1="24"
       x2="12"
       y2="24"
       id="linearGradient3767"
       xlink:href="#linearGradient3761"
       gradientUnits="userSpaceOnUse"
       spreadMethod="reflect" />
    <linearGradient
       x1="10"
       y1="24"
       x2="18"
       y2="24"
       id="linearGradient3784"
       xlink:href="#linearGradient3778"
       gradientUnits="userSpaceOnUse"
       gradientTransform="matrix(0,1,1,0,-10,10)" />
    <filter
       color-interpolation-filters="sRGB"
       id="filter3669">
      <feGaussianBlur
         id="feGaussianBlur3671"
         stdDeviation="0.52554746" />
    </filter>
    <linearGradient
       x1="45.447727"
       y1="92.539597"
       x2="45.447727"
       y2="7.0165396"
       id="ButtonShadow-0"
       gradientUnits="userSpaceOnUse"
       gradientTransform="matrix(1.0058652,0,0,0.994169,100,0)">
      <stop
         id="stop3750-8"
         style="stop-color:#000000;stop-opacity:1"
         offset="0" />
      <stop
         id="stop3752-5"
         style="stop-color:#000000;stop-opacity:0.58823532"
         offset="1" />
    </linearGradient>
    <linearGradient
       x1="32.251034"
       y1="6.1317081"
       x2="32.251034"
       y2="90.238609"
       id="linearGradient3780"
       xlink:href="#ButtonShadow-0"
       gradientUnits="userSpaceOnUse"
       gradientTransform="matrix(1.0238095,0,0,1.0119048,-1.1428571,-98.071429)" />
    <linearGradient
       x1="32.251034"
       y1="6.1317081"
       x2="32.251034"
       y2="90.238609"
       id="linearGradient3772"
       xlink:href="#ButtonShadow-0"
       gradientUnits="userSpaceOnUse"
       gradientTransform="matrix(1.0238095,0,0,1.0119048,-1.1428571,-98.071429)" />
    <linearGradient
       x1="32.251034"
       y1="6.1317081"
       x2="32.251034"
       y2="90.238609"
       id="linearGradient3725"
       xlink:href="#ButtonShadow-0"
       gradientUnits="userSpaceOnUse"
       gradientTransform="matrix(1.0238095,0,0,1.0119048,-1.1428571,-98.071429)" />
    <linearGradient
       x1="32.251034"
       y1="6.1317081"
       x2="32.251034"
       y2="90.238609"
       id="linearGradient3721"
       xlink:href="#ButtonShadow-0"
       gradientUnits="userSpaceOnUse"
       gradientTransform="translate(0,-97)" />
    <linearGradient
       x1="32.251034"
       y1="6.1317081"
       x2="32.251034"
       y2="90.238609"
       id="linearGradient3059"
       xlink:href="#ButtonShadow-0"
       gradientUnits="userSpaceOnUse"
       gradientTransform="matrix(1.0238095,0,0,1.0119048,-1.1428571,-98.071429)" />
    <linearGradient
       inkscape:collect="always"
       xlink:href="#linearGradient3778"
       id="linearGradient3072"
       gradientUnits="userSpaceOnUse"
       gradientTransform="matrix(0,1,1,0,-10,10)"
       x1="10"
       y1="24"
       x2="18"
       y2="24" />
    <linearGradient
       inkscape:collect="always"
       xlink:href="#linearGradient3745"
       id="linearGradient3074"
       gradientUnits="userSpaceOnUse"
       x1="9"
       y1="22"
       x2="9"
       y2="26" />
    <linearGradient
       inkscape:collect="always"
       xlink:href="#linearGradient3778"
       id="linearGradient3088"
       gradientUnits="userSpaceOnUse"
       gradientTransform="matrix(0,1,1,0,-10,10)"
       x1="10"
       y1="24"
       x2="18"
       y2="24" />
    <linearGradient
       inkscape:collect="always"
       xlink:href="#linearGradient3745"
       id="linearGradient3090"
       gradientUnits="userSpaceOnUse"
       x1="9"
       y1="22"
       x2="9"
       y2="26" />
    <linearGradient
       inkscape:collect="always"
       xlink:href="#linearGradient3778"
       id="linearGradient3104"
       gradientUnits="userSpaceOnUse"
       gradientTransform="matrix(0,1,1,0,-10,10)"
       x1="10"
       y1="24"
       x2="18"
       y2="24" />
    <linearGradient
       inkscape:collect="always"
       xlink:href="#linearGradient3745"
       id="linearGradient3106"
       gradientUnits="userSpaceOnUse"
       x1="9"
       y1="22"
       x2="9"
       y2="26" />
    <linearGradient
       inkscape:collect="always"
       xlink:href="#linearGradient3778"
       id="linearGradient3120"
       gradientUnits="userSpaceOnUse"
       gradientTransform="matrix(0,1,1,0,-10,10)"
       x1="10"
       y1="24"
       x2="18"
       y2="24" />
    <linearGradient
       inkscape:collect="always"
       xlink:href="#linearGradient3745"
       id="linearGradient3122"
       gradientUnits="userSpaceOnUse"
       x1="9"
       y1="22"
       x2="9"
       y2="26" />
  </defs>
  <metadata
     id="metadata2413">
    <rdf:RDF>
      <cc:Work
         rdf:about="">
        <dc:format>image/svg+xml</dc:format>
        <dc:type
           rdf:resource="http://purl.org/dc/dcmitype/StillImage" />
        <dc:title></dc:title>
      </cc:Work>
    </rdf:RDF>
  </metadata>
  <g
     id="layer2"
     style="display:none">
    <rect
       width="86"
       height="85"
       rx="6"
       ry="6"
       x="5"
       y="7"
       id="rect3745"
       style="opacity:0.9;fill:url(#ButtonShadow);fill-opacity:1;fill-rule:nonzero;stroke:none;filter:url(#filter3174)" />
  </g>
  <rect
     style="fill:#aa4400;fill-opacity:1;fill-rule:nonzero;stroke:none"
     id="rect2419"
     y="6"
     x="6"
     ry="0"
     rx="6"
     height="84"
     width="84" />
  <rect
     style="opacity:0.15;fill:#ffffff;fill-opacity:1;stroke:none"
     id="rect3650"
     y="6"
     x="24"
     height="84"
     width="1" />
  <path
     style="fill:#222222;fill-opacity:1;stroke:none"
     id="rect3635"
     inkscape:connector-curvature="0"
     d="M 12,6 C 8.676,6 6,8.676 6,12 l 0,72 c 0,3.324 2.676,6 6,6 L 24,90 24,6 12,6 z" />
  <rect
     style="opacity:0.4;fill:#000000;fill-opacity:1;stroke:none"
     id="rect3648"
     y="6"
     x="23"
     height="84"
     width="1" />
  <g
     id="layer5" />
  <rect
     style="opacity:1;fill:#222222;fill-opacity:1;fill-rule:evenodd;stroke:none"
     id="rect3059"
     width="17.54179"
     height="84.016663"
     x="5.9757748"
     y="6.0075603"
     rx="0" />
  <g
     id="g3136"
     transform="translate(0,8.9924864)"
     style="fill:#ffcc00">
    <g
       transform="scale(0.93405913,1.070596)"
       style="font-size:16.81306458px;font-style:normal;font-variant:normal;font-stretch:normal;line-height:125%;letter-spacing:0px;word-spacing:0px;fill:#ffcc00;fill-opacity:1;stroke:none;font-family:URW Gothic L;-inkscape-font-specification:URW Gothic L Book"
       id="text3128">
      <path
         d="m 33.597874,28.979548 0,1.126475 6.943796,0 c -0.184944,0.807026 -0.605271,1.496364 -1.311419,2.202512 -0.958344,0.958343 -2.269766,1.479549 -3.715688,1.479549 -3.043161,0 -5.447433,-2.320206 -5.447433,-5.279302 0,-2.992722 2.370646,-5.296115 5.43062,-5.296115 1.916688,0 3.530745,0.874281 4.38821,2.387455 l 1.395484,0 c -0.823839,-2.118444 -3.177671,-3.530744 -5.884572,-3.530744 -3.698871,0 -6.590721,2.807786 -6.590721,6.405778 0,3.631618 2.959103,6.456217 6.758852,6.456217 1.967126,0 3.648436,-0.739776 4.842162,-2.101633 1.008783,-1.160101 1.546802,-2.454709 1.630867,-3.850192 l -8.440158,0"
         style=""
         id="path3143" />
      <path
         d="m 48.24363,25.297487 c -2.723714,0 -4.82535,2.068009 -4.82535,4.758097 0,2.824592 2.06801,4.875789 4.926228,4.875789 2.690088,0 4.674032,-2.034384 4.674032,-4.791724 0,-2.807779 -2.01757,-4.842162 -4.77491,-4.842162 m 0,1.143288 c 2.017565,0 3.51393,1.58043 3.51393,3.715687 0,2.101631 -1.445925,3.631622 -3.446678,3.631622 -2.118444,0 -3.631622,-1.546804 -3.631622,-3.698874 0,-2.084818 1.529991,-3.648435 3.56437,-3.648435"
         style=""
         id="path3145" />
      <path
         d="m 54.772091,34.712803 1.244167,0 0,-12.424855 -1.244167,0 0,12.424855"
         style=""
         id="path3147" />
      <path
         d="m 67.52007,22.287948 -1.244167,0 0,4.690845 c -0.907905,-1.092848 -2.168887,-1.681306 -3.614809,-1.681306 -2.774153,0 -4.892602,2.084822 -4.892602,4.825349 0,2.723714 2.168888,4.808537 5.010294,4.808537 1.529987,0 2.572399,-0.554833 3.497117,-1.883064 l 0,1.664494 1.244167,0 0,-12.424855 m -4.892602,4.152827 c 2.034379,0 3.698874,1.630869 3.698874,3.648435 0,2.017566 -1.614056,3.698874 -3.581183,3.698874 -2.101631,0 -3.715687,-1.614056 -3.715687,-3.715687 0,-2.017566 1.597243,-3.631622 3.597996,-3.631622"
         style=""
         id="path3149" />
      <path
         d="m 78.861272,30.52635 c 0,-1.260979 -0.168131,-2.034382 -0.622083,-2.841408 -0.82384,-1.462735 -2.421083,-2.387455 -4.16964,-2.387455 -2.673275,0 -4.774911,2.101635 -4.774911,4.77491 0,2.723714 2.135262,4.858976 4.858976,4.858976 1.176913,0 2.286578,-0.437141 3.12723,-1.227354 0.655709,-0.622083 1.092849,-1.260981 1.345045,-2.017568 l -1.294606,0 c -0.521204,1.260979 -1.815812,2.101633 -3.211295,2.101633 -1.883062,0 -3.480305,-1.445925 -3.581183,-3.261734 l 8.322467,0 m -8.288841,-1.126476 c 0.336261,-1.76537 1.731748,-2.959099 3.480305,-2.959099 1.782183,0 3.144043,1.126477 3.564369,2.959099 l -7.044674,0"
         style=""
         id="path3151" />
      <path
         d="m 80.582771,34.712803 1.244167,0 0,-5.060733 c 0,-1.025595 0.134505,-1.563615 0.487579,-2.08482 0.487578,-0.706148 1.345046,-1.126475 2.320203,-1.126475 0.907904,0 1.731746,0.369888 2.236137,0.991971 0.43714,0.571644 0.605271,1.244168 0.605271,2.454707 l 0,4.82535 1.244166,0 0,-4.82535 c 0,-1.5468 -0.21857,-2.370643 -0.807027,-3.160856 -0.722961,-0.907904 -1.832625,-1.42911 -3.12723,-1.42911 -1.210539,0 -2.185699,0.470766 -2.959099,1.412297 l 0,-1.193727 -1.244167,0 0,9.196746"
         style=""
         id="path3153" />
    </g>
    <g
       transform="scale(0.93405915,1.070596)"
       style="font-size:16.81306458px;font-style:normal;font-variant:normal;font-stretch:normal;line-height:125%;letter-spacing:0px;word-spacing:0px;fill:#ffcc00;fill-opacity:1;stroke:none;font-family:URW Gothic L;-inkscape-font-specification:URW Gothic L Book"
       id="text3132">
      <path
         d="m 43.288108,50.582703 3.3458,0 c 1.866248,0 3.17767,-0.285823 4.270518,-0.924719 1.883061,-1.109661 2.875034,-2.925475 2.875034,-5.245676 0,-2.337014 -0.975159,-4.186454 -2.824595,-5.279302 -1.176913,-0.706148 -2.488336,-0.975158 -4.741284,-0.975158 l -2.925473,0 0,12.424855 m 1.244167,-1.126476 0,-10.171904 1.731745,0 c 1.883062,0 3.059979,0.235384 4.00151,0.807027 1.429109,0.857466 2.25295,2.421083 2.25295,4.270519 0,1.630865 -0.638897,3.059978 -1.782185,3.984696 -0.991969,0.790213 -2.269765,1.109662 -4.472275,1.109662 l -1.731745,0"
         style=""
         id="path3156" />
      <path
         d="m 55.580823,50.582703 1.244167,0 0,-9.196747 -1.244167,0 0,9.196747 m 0,-10.306409 1.244167,0 0,-2.118446 -1.244167,0 0,2.118446"
         style=""
         id="path3158" />
      <path
         d="m 66.681123,47.875799 c -0.958343,1.277792 -1.849438,1.782185 -3.144043,1.782185 -2.068005,0 -3.698874,-1.630869 -3.698874,-3.665248 0,-2.068005 1.597243,-3.682061 3.648435,-3.682061 1.361857,0 2.488334,0.655711 3.194482,1.86625 l 1.395485,0 c -0.739774,-1.849435 -2.505149,-3.009539 -4.573154,-3.009539 -2.75734,0 -4.926228,2.118449 -4.926228,4.791724 0,2.740527 2.185701,4.842162 5.010293,4.842162 1.143288,0 2.202513,-0.369888 3.059978,-1.04241 0.588457,-0.470765 0.941532,-0.924719 1.445924,-1.883063 l -1.412298,0"
         style=""
         id="path3160" />
      <path
         d="m 70.92616,50.582703 1.244167,0 0,-8.070271 2.068006,0 0,-1.126476 -2.068006,0 0,-3.228108 -1.244167,0 0,3.228108 -1.983942,0 0,1.126476 1.983942,0 0,8.070271"
         style=""
         id="path3162" />
    </g>
  </g>
</svg>
