<?xml version="1.0" encoding="UTF-8" standalone="no"?>
<!-- Created with Inkscape (http://www.inkscape.org/) -->

<svg
   xmlns:dc="http://purl.org/dc/elements/1.1/"
   xmlns:cc="http://creativecommons.org/ns#"
   xmlns:rdf="http://www.w3.org/1999/02/22-rdf-syntax-ns#"
   xmlns:svg="http://www.w3.org/2000/svg"
   xmlns="http://www.w3.org/2000/svg"
   xmlns:xlink="http://www.w3.org/1999/xlink"
   xmlns:sodipodi="http://sodipodi.sourceforge.net/DTD/sodipodi-0.dtd"
   xmlns:inkscape="http://www.inkscape.org/namespaces/inkscape"
   version="1.0"
   width="96"
   height="96"
   id="svg2408"
   inkscape:version="0.48.4 r9939"
   sodipodi:docname="wine-uninstaller.svg">
  <sodipodi:namedview
     pagecolor="#ffffff"
     bordercolor="#666666"
     borderopacity="1"
     objecttolerance="10"
     gridtolerance="10"
     guidetolerance="10"
     inkscape:pageopacity="0"
     inkscape:pageshadow="2"
     inkscape:window-width="1680"
     inkscape:window-height="991"
     id="namedview50"
     showgrid="false"
     inkscape:zoom="7.0847868"
     inkscape:cx="15.483684"
     inkscape:cy="45.494543"
     inkscape:window-x="0"
     inkscape:window-y="-3"
     inkscape:window-maximized="1"
     inkscape:current-layer="svg2408" />
  <defs
     id="defs2410">
    <linearGradient
       x1="45.447727"
       y1="92.539597"
       x2="45.447727"
       y2="7.0165396"
       id="ButtonShadow"
       gradientUnits="userSpaceOnUse"
       gradientTransform="scale(1.0058652,0.994169)">
      <stop
         id="stop3750"
         style="stop-color:#000000;stop-opacity:1"
         offset="0" />
      <stop
         id="stop3752"
         style="stop-color:#000000;stop-opacity:0.58823532"
         offset="1" />
    </linearGradient>
    <linearGradient
       id="linearGradient3737">
      <stop
         id="stop3739"
         style="stop-color:#ffffff;stop-opacity:1"
         offset="0" />
      <stop
         id="stop3741"
         style="stop-color:#ffffff;stop-opacity:0"
         offset="1" />
    </linearGradient>
    <linearGradient
       id="linearGradient3700">
      <stop
         id="stop3702"
         style="stop-color:#2295c5;stop-opacity:1"
         offset="0" />
      <stop
         id="stop3704"
         style="stop-color:#68d8f4;stop-opacity:1"
         offset="1" />
    </linearGradient>
    <filter
       color-interpolation-filters="sRGB"
       id="filter3174">
      <feGaussianBlur
         id="feGaussianBlur3176"
         stdDeviation="1.71" />
    </filter>
    <linearGradient
       x1="36.357143"
       y1="6"
       x2="36.357143"
       y2="63.893143"
       id="linearGradient3188"
       xlink:href="#linearGradient3737"
       gradientUnits="userSpaceOnUse" />
    <filter
       x="-0.192"
       y="-0.192"
       width="1.3839999"
       height="1.3839999"
       color-interpolation-filters="sRGB"
       id="filter3794">
      <feGaussianBlur
         id="feGaussianBlur3796"
         stdDeviation="5.28" />
    </filter>
    <linearGradient
       x1="48"
       y1="20.220806"
       x2="48"
       y2="138.66119"
       id="linearGradient3613"
       xlink:href="#linearGradient3737"
       gradientUnits="userSpaceOnUse" />
    <radialGradient
       cx="48"
       cy="90.171875"
       r="42"
       fx="48"
       fy="90.171875"
       id="radialGradient3619"
       xlink:href="#linearGradient3737"
       gradientUnits="userSpaceOnUse"
       gradientTransform="matrix(1.1573129,0,0,0.99590774,-7.5510206,0.19713193)" />
    <clipPath
       id="clipPath3613">
      <rect
         width="84"
         height="84"
         rx="6"
         ry="6"
         x="6"
         y="6"
         id="rect3615"
         style="fill:#ffffff;fill-opacity:1;fill-rule:nonzero;stroke:none" />
    </clipPath>
    <linearGradient
       x1="48"
       y1="90"
       x2="48"
       y2="5.9877172"
       id="linearGradient3617"
       xlink:href="#linearGradient3700"
       gradientUnits="userSpaceOnUse" />
    <linearGradient
       x1="45.447727"
       y1="92.539597"
       x2="45.447727"
       y2="7.0165396"
       id="ButtonShadow-0"
       gradientUnits="userSpaceOnUse"
       gradientTransform="matrix(1.0058652,0,0,0.994169,100,0)">
      <stop
         id="stop3750-8"
         style="stop-color:#000000;stop-opacity:1"
         offset="0" />
      <stop
         id="stop3752-5"
         style="stop-color:#000000;stop-opacity:0.58823532"
         offset="1" />
    </linearGradient>
    <linearGradient
       x1="32.251034"
       y1="6.1317081"
       x2="32.251034"
       y2="90.238609"
       id="linearGradient3780"
       xlink:href="#ButtonShadow-0"
       gradientUnits="userSpaceOnUse"
       gradientTransform="matrix(1.0238095,0,0,1.0119048,-1.1428571,-98.071429)" />
    <linearGradient
       x1="32.251034"
       y1="6.1317081"
       x2="32.251034"
       y2="90.238609"
       id="linearGradient3772"
       xlink:href="#ButtonShadow-0"
       gradientUnits="userSpaceOnUse"
       gradientTransform="matrix(1.0238095,0,0,1.0119048,-1.1428571,-98.071429)" />
    <linearGradient
       x1="32.251034"
       y1="6.1317081"
       x2="32.251034"
       y2="90.238609"
       id="linearGradient3725"
       xlink:href="#ButtonShadow-0"
       gradientUnits="userSpaceOnUse"
       gradientTransform="matrix(1.0238095,0,0,1.0119048,-1.1428571,-98.071429)" />
    <linearGradient
       x1="32.251034"
       y1="6.1317081"
       x2="32.251034"
       y2="90.238609"
       id="linearGradient3721"
       xlink:href="#ButtonShadow-0"
       gradientUnits="userSpaceOnUse"
       gradientTransform="translate(0,-97)" />
    <linearGradient
       x1="32.251034"
       y1="6.1317081"
       x2="32.251034"
       y2="90.238609"
       id="linearGradient3122"
       xlink:href="#ButtonShadow-0"
       gradientUnits="userSpaceOnUse"
       gradientTransform="matrix(1.0238095,0,0,1.0119048,-1.1428571,-98.071429)" />
  </defs>
  <metadata
     id="metadata2413">
    <rdf:RDF>
      <cc:Work
         rdf:about="">
        <dc:format>image/svg+xml</dc:format>
        <dc:type
           rdf:resource="http://purl.org/dc/dcmitype/StillImage" />
        <dc:title></dc:title>
      </cc:Work>
    </rdf:RDF>
  </metadata>
  <g
     id="layer2"
     style="display:none">
    <rect
       width="86"
       height="85"
       rx="6"
       ry="6"
       x="5"
       y="7"
       id="rect3745"
       style="opacity:0.9;fill:url(#ButtonShadow);fill-opacity:1;fill-rule:nonzero;stroke:none;filter:url(#filter3174)" />
  </g>
  <g
     id="layer1">
    <rect
       width="84"
       height="84"
       rx="6"
       ry="0"
       x="6"
       y="6"
       id="rect2419"
       style="fill:#abc837;fill-opacity:1;fill-rule:nonzero;stroke:none" />
  </g>
  <g
     id="layer5" />
  <g
     id="g3027"
     transform="translate(16.351684,-1.1304746)">
    <path
       style="opacity:0.3;fill:#000000;fill-opacity:1"
       d="m 68.783771,62.533345 c 0.01523,-2.704113 0.02654,-6.830292 0.02654,-9.170106 l 0,-4.254007 -0.129345,0 c -0.07109,0 -5.670394,-0.04926 -12.442836,-0.110197 -6.772427,-0.06093 -12.559688,-0.110198 -12.86057,-0.110198 l -0.547037,0 0,7.230762 c 0,3.977348 0.0045,7.2318 0.01069,7.232188 0.0062,0 5.810631,0.921381 12.900352,2.046691 7.089719,1.125438 12.918779,2.047725 12.953447,2.049411 0.05642,0 0.06477,-0.455957 0.0888,-4.913766 z M 40.614479,55.936542 c 0.01361,-3.884262 0.02122,-7.064947 0.01647,-7.0678 -0.0091,0 -15.423805,-0.143256 -15.912682,-0.1417 l -0.308326,0 0,5.84785 0,5.84772 0.08955,0.01816 c 0.07001,0.01296 15.972976,2.543096 16.066692,2.555152 0.0128,0 0.03454,-3.174979 0.04831,-7.059502 z m -7.770054,-8.702609 c 3.665206,-0.0337 6.919131,-0.06223 7.230949,-0.06352 l 0.566941,0 0,-7.075709 0,-7.076226 -0.109366,0.01556 c -0.0601,0.01296 -3.712338,0.586379 -8.115903,1.283086 l -8.00649,1.266881 -3.22e-4,5.856277 -6.42e-4,5.856536 0.885229,0 c 0.487202,-6.47e-4 3.884366,-0.02852 7.549591,-0.06352 z M 56.314898,47.02715 c 6.858426,-0.06093 12.475632,-0.115383 12.482679,-0.121866 0.0076,0 0.0076,-4.136937 0.0031,-9.180347 L 68.78995,28.5547 56.993633,30.424815 C 50.505657,31.45341 44.66916,32.37803 44.023649,32.479543 l -1.173663,0.184613 -0.01069,7.237373 -0.01069,7.237245 0.507335,0 c 0.280688,-1.29e-4 6.120432,-0.05056 12.978857,-0.111495 z"
       id="path3020"
       inkscape:connector-curvature="0"
       sodipodi:nodetypes="ssccsccssscsscccccscssccccssccccsssscssccccs" />
    <path
       sodipodi:nodetypes="ssccsccssscsscccccscssccccssccccsssscssccccs"
       inkscape:connector-curvature="0"
       id="path858"
       d="m 68.783771,61.86231 c 0.01523,-2.65071 0.02654,-6.695402 0.02654,-8.989008 l 0,-4.169996 -0.129345,0 c -0.07109,0 -5.670394,-0.04829 -12.442836,-0.10802 -6.772427,-0.05973 -12.559688,-0.108022 -12.86057,-0.108022 l -0.547037,0 0,7.087964 c 0,3.8988 0.0045,7.088981 0.01069,7.089361 0.0062,0 5.810631,0.903185 12.900352,2.006271 7.089719,1.103213 12.918779,2.007286 12.953447,2.008938 0.05642,0 0.06477,-0.446953 0.0888,-4.816725 z M 40.614479,55.395786 c 0.01361,-3.807553 0.02122,-6.925424 0.01647,-6.92822 -0.0091,0 -15.423805,-0.140427 -15.912682,-0.138901 l -0.308326,0 0,5.732362 0,5.732234 0.08955,0.01779 c 0.07001,0.01271 15.972976,2.492873 16.066692,2.504692 0.0128,0 0.03454,-3.112279 0.04831,-6.920087 z m -7.770054,-8.530744 c 3.665206,-0.03304 6.919131,-0.061 7.230949,-0.06227 l 0.566941,0 0,-6.935972 0,-6.93648 -0.109366,0.01525 c -0.0601,0.01271 -3.712338,0.5748 -8.115903,1.257747 l -8.00649,1.241862 -3.22e-4,5.740623 -6.42e-4,5.740877 0.885229,0 c 0.487202,-6.35e-4 3.884366,-0.02796 7.549591,-0.06227 z m 23.470473,-0.202699 c 6.858426,-0.05973 12.475632,-0.113104 12.482679,-0.119459 0.0076,0 0.0076,-4.055238 0.0031,-8.999048 L 68.78995,28.5547 56.993633,30.387882 c -6.487976,1.008282 -12.324473,1.914642 -12.969984,2.01415 l -1.173663,0.180967 -0.01069,7.094445 -0.01069,7.094318 0.507335,0 c 0.280688,-1.27e-4 6.120432,-0.04956 12.978857,-0.109292 z"
       style="fill:#ffffff;fill-opacity:1" />
  </g>
  <g
     id="g3035"
     transform="matrix(1.5111846,0,0,1.5111846,-39.895335,-25.564128)">
    <text
       transform="scale(1.0020984,0.99790599)"
       xml:space="preserve"
       style="font-size:6.23086643px;font-style:normal;font-variant:normal;font-weight:500;font-stretch:normal;line-height:125%;letter-spacing:0px;word-spacing:0px;opacity:0.3;fill:#000000;fill-opacity:1;stroke:none;font-family:Century Schoolbook L;-inkscape-font-specification:Century Schoolbook L Medium"
       x="29.572201"
       y="66.623642"
       id="text3031"
       sodipodi:linespacing="125%"><tspan
         sodipodi:role="line"
         id="tspan3033"
         x="29.572201"
         y="66.623642"
         style="font-size:49.84693146px;font-style:normal;font-variant:normal;font-weight:normal;font-stretch:normal;fill:#000000;font-family:Droid Sans Japanese;-inkscape-font-specification:Droid Sans Japanese">K</tspan></text>
    <text
       sodipodi:linespacing="125%"
       id="text3017"
       y="65.496094"
       x="29.402344"
       style="font-size:6px;font-style:normal;font-variant:normal;font-weight:500;font-stretch:normal;line-height:125%;letter-spacing:0px;word-spacing:0px;fill:#ffffff;fill-opacity:1;stroke:none;font-family:Century Schoolbook L;-inkscape-font-specification:Century Schoolbook L Medium"
       xml:space="preserve"><tspan
         style="font-size:48px;font-style:normal;font-variant:normal;font-weight:normal;font-stretch:normal;fill:#ffffff;font-family:Droid Sans Japanese;-inkscape-font-specification:Droid Sans Japanese"
         y="65.496094"
         x="29.402344"
         id="tspan3019"
         sodipodi:role="line">K</tspan></text>
  </g>
</svg>
