<?xml version="1.0" encoding="UTF-8" standalone="no"?>
<!-- Created with Inkscape (http://www.inkscape.org/) -->

<svg
   xmlns:dc="http://purl.org/dc/elements/1.1/"
   xmlns:cc="http://creativecommons.org/ns#"
   xmlns:rdf="http://www.w3.org/1999/02/22-rdf-syntax-ns#"
   xmlns:svg="http://www.w3.org/2000/svg"
   xmlns="http://www.w3.org/2000/svg"
   xmlns:xlink="http://www.w3.org/1999/xlink"
   xmlns:sodipodi="http://sodipodi.sourceforge.net/DTD/sodipodi-0.dtd"
   xmlns:inkscape="http://www.inkscape.org/namespaces/inkscape"
   version="1.0"
   width="96"
   height="96"
   id="svg2408"
   inkscape:version="0.48.5 r10040"
   sodipodi:docname="kde-services.svg">
  <sodipodi:namedview
     pagecolor="#ffffff"
     bordercolor="#666666"
     borderopacity="1"
     objecttolerance="10"
     gridtolerance="10"
     guidetolerance="10"
     inkscape:pageopacity="0"
     inkscape:pageshadow="2"
     inkscape:window-width="1680"
     inkscape:window-height="988"
     id="namedview66"
     showgrid="false"
     inkscape:zoom="5.6592131"
     inkscape:cx="26.991514"
     inkscape:cy="39.000324"
     inkscape:current-layer="svg2408"
     inkscape:window-x="0"
     inkscape:window-y="-3"
     inkscape:window-maximized="1" />
  <defs
     id="defs2410">
    <linearGradient
       x1="58.650177"
       y1="122"
       x2="58.650177"
       y2="5.4252338"
       id="linearGradient3848"
       gradientUnits="userSpaceOnUse"
       gradientTransform="matrix(1.0172414,0,0,1.0172414,-1.1034483,-1.1034483)">
      <stop
         id="stop3850"
         style="stop-color:#969696;stop-opacity:1"
         offset="0" />
      <stop
         id="stop3852"
         style="stop-color:#d2d2d2;stop-opacity:1"
         offset="1" />
    </linearGradient>
    <linearGradient
       x1="45.447727"
       y1="92.539597"
       x2="45.447727"
       y2="7.0165396"
       id="ButtonShadow"
       gradientUnits="userSpaceOnUse"
       gradientTransform="scale(1.0058652,0.994169)">
      <stop
         id="stop3750"
         style="stop-color:#000000;stop-opacity:1"
         offset="0" />
      <stop
         id="stop3752"
         style="stop-color:#000000;stop-opacity:0.58823532"
         offset="1" />
    </linearGradient>
    <linearGradient
       id="linearGradient3737">
      <stop
         id="stop3739"
         style="stop-color:#ffffff;stop-opacity:1"
         offset="0" />
      <stop
         id="stop3741"
         style="stop-color:#ffffff;stop-opacity:0"
         offset="1" />
    </linearGradient>
    <filter
       color-interpolation-filters="sRGB"
       id="filter3174">
      <feGaussianBlur
         id="feGaussianBlur3176"
         stdDeviation="1.71" />
    </filter>
    <linearGradient
       x1="36.357143"
       y1="6"
       x2="36.357143"
       y2="63.893143"
       id="linearGradient3188"
       xlink:href="#linearGradient3737"
       gradientUnits="userSpaceOnUse" />
    <filter
       x="-0.192"
       y="-0.192"
       width="1.3839999"
       height="1.3839999"
       color-interpolation-filters="sRGB"
       id="filter3794">
      <feGaussianBlur
         id="feGaussianBlur3796"
         stdDeviation="5.28" />
    </filter>
    <linearGradient
       x1="48"
       y1="20.220806"
       x2="48"
       y2="138.66119"
       id="linearGradient3613"
       xlink:href="#linearGradient3737"
       gradientUnits="userSpaceOnUse" />
    <radialGradient
       cx="48"
       cy="90.171875"
       r="42"
       fx="48"
       fy="90.171875"
       id="radialGradient3619"
       xlink:href="#linearGradient3737"
       gradientUnits="userSpaceOnUse"
       gradientTransform="matrix(1.1573129,0,0,0.99590774,-7.5510206,0.19713193)" />
    <clipPath
       id="clipPath3613">
      <rect
         width="84"
         height="84"
         rx="6"
         ry="6"
         x="6"
         y="6"
         id="rect3615"
         style="fill:#ffffff;fill-opacity:1;fill-rule:nonzero;stroke:none" />
    </clipPath>
    <linearGradient
       x1="48"
       y1="90"
       x2="48"
       y2="5.9877172"
       id="linearGradient3617"
       xlink:href="#ButtonColor-7"
       gradientUnits="userSpaceOnUse" />
    <clipPath
       id="clipPath3836">
      <path
         d="m 112,6 c -3.324,0 -6,2.676 -6,6 l 0,23.71875 c 4.16476,5.590927 10.83896,9.218751 18.34375,9.21875 12.61273,0 22.84375,-10.231021 22.84375,-22.84375 0,-6.274884 -2.52698,-11.964405 -6.625,-16.09375 l -7.34375,0 c 5.78119,3.1123067 9.71875,9.225149 9.71875,16.25 0,10.181526 -8.25597,18.4375 -18.4375,18.4375 -10.18153,0 -18.4375,-8.255974 -18.4375,-18.4375 0,-7.024851 3.93756,-13.1376933 9.71875,-16.25 L 112,6 z m 34.375,0 0.46875,0.59375 0.5625,-0.40625 0.5,-0.1875 -1.53125,0 z m 5.96875,0 0.40625,0.75 -1.65625,2.15625 -1.4375,1.1875 -0.625,0.28125 1.0625,2.5625 0.65625,-0.25 1.84375,-0.15625 2.71875,0.34375 0.4375,1.71875 -2.15625,1.6875 -1.6875,0.75 -0.6875,0.125 0.375,2.75 0.6875,-0.0625 1.8125,0.3125 2.53125,1.0625 0,1.78125 -2.53125,1.03125 -1.8125,0.3125 -0.6875,-0.0625 -0.375,2.75 0.6875,0.125 1.6875,0.75 2.15625,1.6875 -0.4375,1.71875 -2.71875,0.375 L 150.75,31.5 l -0.65625,-0.21875 -1.0625,2.5625 0.625,0.25 1.4375,1.1875 1.65625,2.1875 L 151.875,39 149.15625,38.65625 147.40625,38 l -0.5625,-0.375 -1.6875,2.1875 0.53125,0.4375 1.0625,1.5 1.0625,2.53125 -1.25,1.28125 L 144,44.5 l -1.5,-1.0625 -0.4375,-0.53125 -2.1875,1.6875 0.375,0.5625 0.65625,1.75 0.34375,2.71875 -1.53125,0.875 -2.1875,-1.65625 -1.15625,-1.4375 -0.3125,-0.625 -2.53125,1.0625 0.21875,0.65625 0.1875,1.84375 -0.375,2.71875 -1.71875,0.46875 -1.65625,-2.1875 -0.78125,-1.6875 -0.125,-0.6875 -2.71875,0.375 0.0625,0.65625 -0.3125,1.84375 -1.0625,2.53125 -1.78125,0 -1.0625,-2.53125 L 122.125,50 l 0.0625,-0.65625 -2.75,-0.375 -0.125,0.6875 -0.75,1.6875 -1.6875,2.1875 -1.71875,-0.46875 -0.375,-2.71875 0.15625,-1.84375 0.25,-0.65625 -2.53125,-1.0625 -0.3125,0.625 -1.1875,1.4375 L 109,50.5 l -1.5625,-0.875 0.375,-2.71875 0.625,-1.75 0.40625,-0.5625 -2.1875,-1.6875 -0.4375,0.53125 L 106,43.59375 106,84 c 0,3.324 2.676,6 6,6 l 25.875,0 -0.25,-0.40625 1.84375,-2.4375 1.59375,-1.28125 0.65625,-0.34375 -1.15625,-2.8125 -0.71875,0.25 -2.03125,0.21875 -3,-0.40625 -0.53125,-1.90625 2.40625,-1.875 1.875,-0.8125 0.75,-0.15625 L 138.90625,75 l -0.75,0.0625 -2.03125,-0.34375 -2.8125,-1.15625 0,-1.96875 2.8125,-1.1875 2.03125,-0.3125 0.75,0.0625 0.40625,-3.03125 -0.75,-0.15625 -1.875,-0.84375 -2.40625,-1.84375 0.53125,-1.90625 3,-0.40625 2.03125,0.1875 0.71875,0.25 1.15625,-2.8125 -0.65625,-0.3125 -1.59375,-1.3125 -1.84375,-2.40625 1,-1.71875 3,0.40625 1.90625,0.71875 0.625,0.4375 1.875,-2.4375 -0.59375,-0.5 L 144.25,50.8125 143.09375,48 144.5,46.625 l 2.8125,1.125 1.65625,1.21875 0.5,0.5625 2.40625,-1.84375 -0.4375,-0.65625 -0.6875,-1.875 -0.40625,-3.03125 1.6875,-1 2.4375,1.84375 1.3125,1.59375 0.3125,0.6875 2.8125,-1.1875 -0.25,-0.6875 -0.1875,-2.0625 0.40625,-3 1.875,-0.5 1.875,2.40625 0.84375,1.875 0.125,0.71875 3.03125,-0.375 -0.0625,-0.78125 0.34375,-2 1.1875,-2.8125 1.96875,0 1.15625,2.8125 0.34375,2 -0.0625,0.78125 3.03125,0.375 0.125,-0.71875 0.84375,-1.875 1.875,-2.40625 1.875,0.5 0.4375,3 -0.21875,2.0625 -0.25,0.6875 2.8125,1.1875 0.34375,-0.6875 1.28125,-1.59375 2.40625,-1.84375 1.71875,1 -0.375,3.03125 -0.75,1.875 -0.40625,0.65625 2.40625,1.84375 0.5,-0.5625 L 190,48.34375 190,12 c 0,-3.324 -2.676,-6 -6,-6 L 152.34375,6 z M 124.5,8.625 c -7.53154,0 -13.65625,6.09346 -13.65625,13.625 0,7.53154 6.12471,13.65625 13.65625,13.65625 7.53154,0 13.625,-6.12471 13.625,-13.65625 0,-7.53154 -6.09346,-13.625 -13.625,-13.625 z m 44.5625,38.53125 c -5.74578,0 -11.05193,1.907852 -15.3125,5.125 l 8.15625,8.78125 c 2.0761,-1.293182 4.53192,-2.03125 7.15625,-2.03125 1.32352,0 2.60305,0.17696 3.8125,0.53125 l 5.5,-10.625 c -2.88236,-1.135296 -6.0278,-1.78125 -9.3125,-1.78125 z m 13.90625,4.15625 -5.5,10.65625 c 3.0873,2.451345 5.10585,6.203919 5.15625,10.4375 L 190,73.75 190,58.1875 c -1.87421,-2.717952 -4.26324,-5.061314 -7.03125,-6.875 z m -62.65625,2.15625 1.21875,0 0.9375,2.09375 0.0625,0.71875 -0.1875,1.28125 2.21875,0.59375 0.46875,-1.1875 0.4375,-0.59375 1.875,-1.3125 1.0625,0.625 -0.25,2.25 -0.28125,0.6875 -0.8125,0.96875 1.625,1.65625 1,-0.78125 0.6875,-0.3125 2.25,-0.21875 0.625,1.0625 -1.34375,1.84375 -0.59375,0.4375 -1.1875,0.46875 0.59375,2.21875 1.25,-0.1875 0.75,0.09375 2.0625,0.9375 0,1.25 -2.09375,0.9375 -0.71875,0.0625 -1.25,-0.1875 -0.625,2.21875 1.1875,0.46875 0.59375,0.4375 1.34375,1.84375 -0.625,1.0625 -2.28125,-0.21875 -0.65625,-0.3125 -1,-0.78125 -1.625,1.625 0.78125,1 0.28125,0.65625 0.21875,2.28125 -1.0625,0.59375 -1.84375,-1.3125 -0.4375,-0.625 -0.46875,-1.15625 -2.21875,0.5625 0.1875,1.28125 -0.0625,0.71875 -0.96875,2.09375 -1.21875,0 -0.9375,-2.09375 -0.0625,-0.75 0.1875,-1.25 -2.21875,-0.59375 -0.5,1.1875 -0.40625,0.59375 -1.875,1.3125 -1.0625,-0.625 0.21875,-2.25 0.3125,-0.6875 0.8125,-1 -1.625,-1.625 -1,0.78125 -0.6875,0.3125 -2.28125,0.21875 -0.59375,-1.0625 1.34375,-1.875 0.59375,-0.40625 1.1875,-0.46875 -0.59375,-2.21875 -1.25,0.15625 -0.75,-0.0625 -2.0625,-0.9375 0,-1.25 2.0625,-0.9375 0.75,-0.0625 1.25,0.1875 0.59375,-2.21875 -1.15625,-0.46875 -0.59375,-0.4375 -1.34375,-1.84375 0.625,-1.0625 2.28125,0.21875 0.65625,0.3125 1,0.78125 1.625,-1.625 -0.78125,-1 L 113.625,57.90625 113.40625,55.625 114.5,55 l 1.84375,1.34375 0.4375,0.59375 0.4375,1.1875 2.25,-0.59375 -0.1875,-1.25 0.0625,-0.71875 0.96875,-2.09375 z m 29.625,2.34375 c -3.93256,4.474843 -6.3125,10.329221 -6.3125,16.75 0,2.868692 0.49734,5.613964 1.375,8.1875 l 10.90625,-4.96875 C 155.65791,74.755862 155.5,73.663871 155.5,72.5625 c 0,-2.983379 0.9581,-5.72947 2.59375,-7.96875 L 149.9375,55.8125 z m -29.09375,8.375 c -1.81315,0 -3.28125,1.468102 -3.28125,3.28125 0,1.813148 1.4681,3.28125 3.28125,3.28125 1.81315,0 3.28125,-1.468102 3.28125,-3.28125 0,-1.813148 -1.4681,-3.28125 -3.28125,-3.28125 z m 48.21875,3.28125 c -2.78946,0 -5.03125,2.241791 -5.03125,5.03125 0,2.789459 2.24179,5.0625 5.03125,5.0625 2.78946,0 5.0625,-2.273041 5.0625,-5.0625 0,-2.789459 -2.27304,-5.03125 -5.0625,-5.03125 z M 181.6875,77.5 c -1.44987,3.708793 -4.49322,6.621554 -8.28125,7.90625 L 174.03125,90 184,90 c 3.324,0 6,-2.676 6,-6 L 190,79.03125 181.6875,77.5 z m -23.625,2.96875 -10.90625,5 c 0.96641,1.636602 2.11102,3.15601 3.40625,4.53125 l 18.25,0 -0.53125,-3.90625 c -4.20392,-0.242792 -7.90236,-2.407521 -10.21875,-5.625 z M 144.15625,89.75 143.8125,90 l 0.53125,0 -0.1875,-0.25 z"
         inkscape:connector-curvature="0"
         id="path3838"
         style="fill:#ffffff;fill-opacity:1;fill-rule:nonzero;stroke:none" />
    </clipPath>
    <linearGradient
       x1="57.51778"
       y1="90"
       x2="57.51778"
       y2="5.5969558"
       id="linearGradient3846"
       xlink:href="#linearGradient3848"
       gradientUnits="userSpaceOnUse" />
    <clipPath
       id="clipPath3867">
      <path
         d="m 115.78125,6 c -5.78119,3.1123067 -9.71875,9.225149 -9.71875,16.25 0,10.181526 8.25597,18.4375 18.4375,18.4375 10.18153,0 18.4375,-8.255974 18.4375,-18.4375 0,-7.024851 -3.93756,-13.1376933 -9.71875,-16.25 l -17.4375,0 z m 24.78125,0 c 4.09802,4.129345 6.625,9.818866 6.625,16.09375 0,12.612729 -10.23102,22.84375 -22.84375,22.84375 -7.50479,10e-7 -14.17899,-3.627823 -18.34375,-9.21875 l 0,7.875 0.21875,-0.15625 0.4375,-0.53125 2.1875,1.6875 -0.40625,0.5625 -0.625,1.75 -0.375,2.71875 1.5625,0.875 2.15625,-1.65625 1.1875,-1.4375 0.3125,-0.625 2.53125,1.0625 -0.25,0.65625 -0.15625,1.84375 0.375,2.71875 1.71875,0.46875 1.6875,-2.1875 0.75,-1.6875 0.125,-0.6875 2.75,0.375 L 122.125,50 l 0.28125,1.84375 1.0625,2.53125 1.78125,0 1.0625,-2.53125 L 126.625,50 l -0.0625,-0.65625 2.71875,-0.375 0.125,0.6875 0.78125,1.6875 1.65625,2.1875 1.71875,-0.46875 0.375,-2.71875 L 133.75,48.5 l -0.21875,-0.65625 2.53125,-1.0625 0.3125,0.625 1.15625,1.4375 2.1875,1.65625 1.53125,-0.875 -0.34375,-2.71875 -0.65625,-1.75 -0.375,-0.5625 2.1875,-1.6875 0.4375,0.53125 1.5,1.0625 2.5625,1.0625 1.25,-1.28125 -1.0625,-2.53125 -1.0625,-1.5 -0.53125,-0.4375 1.6875,-2.1875 0.5625,0.375 1.75,0.65625 L 151.875,39 l 0.875,-1.53125 -1.65625,-2.1875 -1.4375,-1.1875 -0.625,-0.25 1.0625,-2.5625 0.65625,0.21875 1.84375,0.1875 2.71875,-0.375 0.4375,-1.71875 -2.15625,-1.6875 -1.6875,-0.75 -0.6875,-0.125 0.375,-2.75 0.6875,0.0625 1.8125,-0.3125 L 156.625,23 l 0,-1.78125 -2.53125,-1.0625 -1.8125,-0.3125 -0.6875,0.0625 -0.375,-2.75 0.6875,-0.125 1.6875,-0.75 2.15625,-1.6875 -0.4375,-1.71875 -2.71875,-0.34375 -1.84375,0.15625 -0.65625,0.25 -1.0625,-2.5625 0.625,-0.28125 1.4375,-1.1875 L 152.75,6.75 152.34375,6 l -4.4375,0 -0.5,0.1875 -0.5625,0.40625 L 146.375,6 140.5625,6 z M 124.5,8.625 c 7.53154,0 13.625,6.09346 13.625,13.625 0,7.53154 -6.09346,13.65625 -13.625,13.65625 -7.53154,0 -13.65625,-6.12471 -13.65625,-13.65625 0,-7.53154 6.12471,-13.625 13.65625,-13.625 z m 43.59375,28.21875 -1.1875,2.8125 -0.34375,2 0.0625,0.78125 -3.03125,0.375 -0.125,-0.71875 -0.84375,-1.875 -1.875,-2.40625 -1.875,0.5 -0.40625,3 0.1875,2.0625 0.25,0.6875 -2.8125,1.1875 -0.3125,-0.6875 -1.3125,-1.59375 -2.4375,-1.84375 -1.6875,1 0.40625,3.03125 0.6875,1.875 0.4375,0.65625 -2.40625,1.84375 -0.5,-0.5625 L 147.3125,47.75 144.5,46.625 143.09375,48 l 1.15625,2.8125 1.1875,1.65625 0.59375,0.5 -1.875,2.4375 -0.625,-0.4375 -1.90625,-0.71875 -3,-0.40625 -1,1.71875 1.84375,2.40625 1.59375,1.3125 0.65625,0.3125 -1.15625,2.8125 -0.71875,-0.25 -2.03125,-0.1875 -3,0.40625 -0.53125,1.90625 2.40625,1.84375 1.875,0.84375 0.75,0.15625 -0.40625,3.03125 -0.75,-0.0625 -2.03125,0.3125 -2.8125,1.1875 0,1.96875 2.8125,1.15625 2.03125,0.34375 0.75,-0.0625 0.40625,3.03125 -0.75,0.15625 -1.875,0.8125 -2.40625,1.875 0.53125,1.90625 3,0.40625 2.03125,-0.21875 0.71875,-0.25 1.15625,2.8125 -0.65625,0.34375 -1.59375,1.28125 -1.84375,2.4375 0.25,0.40625 5.9375,0 0.34375,-0.25 0.1875,0.25 6.21875,0 c -1.29523,-1.37524 -2.43984,-2.894648 -3.40625,-4.53125 l 10.90625,-5 c 2.31639,3.217479 6.01482,5.382208 10.21875,5.625 L 168.8125,90 l 5.21875,0 -0.625,-4.59375 c 3.78803,-1.284696 6.83138,-4.197457 8.28125,-7.90625 L 190,79.03125 190,73.75 182.625,72.40625 c -0.0504,-4.233581 -2.06895,-7.986155 -5.15625,-10.4375 l 5.5,-10.65625 c 2.76801,1.813686 5.15704,4.157048 7.03125,6.875 l 0,-9.84375 -0.84375,0.625 -0.5,0.5625 -2.40625,-1.84375 0.40625,-0.65625 0.75,-1.875 0.375,-3.03125 -1.71875,-1 -2.40625,1.84375 -1.28125,1.59375 -0.34375,0.6875 -2.8125,-1.1875 0.25,-0.6875 0.21875,-2.0625 -0.4375,-3 -1.875,-0.5 -1.875,2.40625 -0.84375,1.875 -0.125,0.71875 -3.03125,-0.375 0.0625,-0.78125 -0.34375,-2 -1.15625,-2.8125 -1.96875,0 z m 0.96875,10.3125 c 3.2847,0 6.43014,0.645954 9.3125,1.78125 l -5.5,10.625 c -1.20945,-0.35429 -2.48898,-0.53125 -3.8125,-0.53125 -2.62433,0 -5.08015,0.738068 -7.15625,2.03125 L 153.75,52.28125 c 4.26057,-3.217148 9.56672,-5.125 15.3125,-5.125 z m -48.75,6.3125 -0.96875,2.09375 -0.0625,0.71875 0.1875,1.25 -2.25,0.59375 -0.4375,-1.1875 -0.4375,-0.59375 L 114.5,55 l -1.09375,0.625 0.21875,2.28125 0.3125,0.65625 0.78125,1 -1.625,1.625 -1,-0.78125 -0.65625,-0.3125 -2.28125,-0.21875 -0.625,1.0625 1.34375,1.84375 0.59375,0.4375 1.15625,0.46875 -0.59375,2.21875 -1.25,-0.1875 -0.75,0.0625 -2.0625,0.9375 0,1.25 2.0625,0.9375 0.75,0.0625 1.25,-0.15625 0.59375,2.21875 -1.1875,0.46875 -0.59375,0.40625 -1.34375,1.875 0.59375,1.0625 2.28125,-0.21875 0.6875,-0.3125 1,-0.78125 1.625,1.625 -0.8125,1 -0.3125,0.6875 -0.21875,2.25 1.0625,0.625 1.875,-1.3125 0.40625,-0.59375 0.5,-1.1875 2.21875,0.59375 -0.1875,1.25 0.0625,0.75 0.9375,2.09375 1.21875,0 0.96875,-2.09375 0.0625,-0.71875 -0.1875,-1.28125 2.21875,-0.5625 0.46875,1.15625 0.4375,0.625 1.84375,1.3125 1.0625,-0.59375 -0.21875,-2.28125 -0.28125,-0.65625 -0.78125,-1 1.625,-1.625 1,0.78125 0.65625,0.3125 2.28125,0.21875 0.625,-1.0625 L 131.875,72 l -0.59375,-0.4375 -1.1875,-0.46875 0.625,-2.21875 1.25,0.1875 0.71875,-0.0625 2.09375,-0.9375 0,-1.25 -2.0625,-0.9375 -0.75,-0.09375 -1.25,0.1875 -0.59375,-2.21875 1.1875,-0.46875 0.59375,-0.4375 L 133.25,61 l -0.625,-1.0625 -2.25,0.21875 -0.6875,0.3125 -1,0.78125 -1.625,-1.65625 0.8125,-0.96875 0.28125,-0.6875 0.25,-2.25 -1.0625,-0.625 -1.875,1.3125 -0.4375,0.59375 -0.46875,1.1875 -2.21875,-0.59375 0.1875,-1.28125 -0.0625,-0.71875 -0.9375,-2.09375 -1.21875,0 z m 29.625,2.34375 8.15625,8.78125 C 156.4581,66.83303 155.5,69.579121 155.5,72.5625 c 0,1.101371 0.15791,2.193362 0.40625,3.21875 L 145,80.75 c -0.87766,-2.573536 -1.375,-5.318808 -1.375,-8.1875 0,-6.420779 2.37994,-12.275157 6.3125,-16.75 z m -29.09375,8.375 c 1.81315,0 3.28125,1.468102 3.28125,3.28125 0,1.813148 -1.4681,3.28125 -3.28125,3.28125 -1.81315,0 -3.28125,-1.468102 -3.28125,-3.28125 0,-1.813148 1.4681,-3.28125 3.28125,-3.28125 z m 48.21875,3.28125 c 2.78946,0 5.0625,2.241791 5.0625,5.03125 0,2.789459 -2.27304,5.0625 -5.0625,5.0625 -2.78946,0 -5.03125,-2.273041 -5.03125,-5.0625 0,-2.789459 2.24179,-5.03125 5.03125,-5.03125 z"
         inkscape:connector-curvature="0"
         id="path3869"
         style="fill:#ffffff;fill-opacity:1;stroke:none;display:inline" />
    </clipPath>
    <filter
       color-interpolation-filters="sRGB"
       id="filter3875">
      <feGaussianBlur
         id="feGaussianBlur3877"
         stdDeviation="0.42" />
    </filter>
    <filter
       x="-0.12"
       y="-0.12"
       width="1.24"
       height="1.24"
       color-interpolation-filters="sRGB"
       id="filter3879">
      <feGaussianBlur
         id="feGaussianBlur3881"
         stdDeviation="4.2" />
    </filter>
    <linearGradient
       x1="10.31979"
       y1="21"
       x2="10.31979"
       y2="0.99929649"
       id="ButtonColor-7"
       gradientUnits="userSpaceOnUse">
      <stop
         id="stop3189"
         style="stop-color:#afafaf;stop-opacity:1"
         offset="0" />
      <stop
         id="stop3191"
         style="stop-color:#d8d8d8;stop-opacity:1"
         offset="1" />
    </linearGradient>
    <linearGradient
       x1="45.447727"
       y1="92.539597"
       x2="45.447727"
       y2="7.0165396"
       id="ButtonShadow-0"
       gradientUnits="userSpaceOnUse"
       gradientTransform="matrix(1.0058652,0,0,0.994169,100,0)">
      <stop
         id="stop3750-8"
         style="stop-color:#000000;stop-opacity:1"
         offset="0" />
      <stop
         id="stop3752-5"
         style="stop-color:#000000;stop-opacity:0.58823532"
         offset="1" />
    </linearGradient>
    <linearGradient
       x1="32.251034"
       y1="6.1317081"
       x2="32.251034"
       y2="90.238609"
       id="linearGradient3780"
       xlink:href="#ButtonShadow-0"
       gradientUnits="userSpaceOnUse"
       gradientTransform="matrix(1.0238095,0,0,1.0119048,-1.1428571,-98.071429)" />
    <linearGradient
       x1="32.251034"
       y1="6.1317081"
       x2="32.251034"
       y2="90.238609"
       id="linearGradient3772"
       xlink:href="#ButtonShadow-0"
       gradientUnits="userSpaceOnUse"
       gradientTransform="matrix(1.0238095,0,0,1.0119048,-1.1428571,-98.071429)" />
    <linearGradient
       x1="32.251034"
       y1="6.1317081"
       x2="32.251034"
       y2="90.238609"
       id="linearGradient3725"
       xlink:href="#ButtonShadow-0"
       gradientUnits="userSpaceOnUse"
       gradientTransform="matrix(1.0238095,0,0,1.0119048,-1.1428571,-98.071429)" />
    <linearGradient
       x1="32.251034"
       y1="6.1317081"
       x2="32.251034"
       y2="90.238609"
       id="linearGradient3721"
       xlink:href="#ButtonShadow-0"
       gradientUnits="userSpaceOnUse"
       gradientTransform="translate(0,-97)" />
    <linearGradient
       x1="32.251034"
       y1="6.1317081"
       x2="32.251034"
       y2="90.238609"
       id="linearGradient3059"
       xlink:href="#ButtonShadow-0"
       gradientUnits="userSpaceOnUse"
       gradientTransform="matrix(1.0238095,0,0,1.0119048,-1.1428571,-98.071429)" />
    <filter
       inkscape:collect="always"
       id="filter3797">
      <feGaussianBlur
         inkscape:collect="always"
         stdDeviation="2.1"
         id="feGaussianBlur3799" />
    </filter>
  </defs>
  <metadata
     id="metadata2413">
    <rdf:RDF>
      <cc:Work
         rdf:about="">
        <dc:format>image/svg+xml</dc:format>
        <dc:type
           rdf:resource="http://purl.org/dc/dcmitype/StillImage" />
        <dc:title></dc:title>
      </cc:Work>
    </rdf:RDF>
  </metadata>
  <g
     id="layer2"
     style="display:none">
    <rect
       width="86"
       height="85"
       rx="6"
       ry="6"
       x="5"
       y="7"
       id="rect3745"
       style="opacity:0.9;fill:url(#ButtonShadow);fill-opacity:1;fill-rule:nonzero;stroke:none;filter:url(#filter3174)" />
  </g>
  <g
     id="layer1">
    <rect
       width="84"
       height="84"
       rx="6"
       ry="0"
       x="6"
       y="6"
       id="rect2419"
       style="fill:#cfcfcf;fill-opacity:1;fill-rule:nonzero;stroke:none" />
  </g>
  <path
     style="opacity:0.50000000000000000;fill:#1a1a1a;fill-opacity:1;stroke:none;display:inline;filter:url(#filter3797)"
     id="path3830"
     clip-path="url(#clipPath3836)"
     transform="translate(-100,0)"
     inkscape:connector-curvature="0"
     d="m 115.78125,6 c -5.78119,3.1123067 -9.71875,9.225149 -9.71875,16.25 0,10.181526 8.25597,18.4375 18.4375,18.4375 10.18153,0 18.4375,-8.255974 18.4375,-18.4375 0,-7.024851 -3.93756,-13.1376933 -9.71875,-16.25 l -17.4375,0 z m 24.78125,0 c 4.09802,4.129345 6.625,9.818866 6.625,16.09375 0,12.612729 -10.23102,22.84375 -22.84375,22.84375 -7.50479,10e-7 -14.17899,-3.627823 -18.34375,-9.21875 l 0,7.875 0.21875,-0.15625 0.4375,-0.53125 2.1875,1.6875 -0.40625,0.5625 -0.625,1.75 -0.375,2.71875 1.5625,0.875 2.15625,-1.65625 1.1875,-1.4375 0.3125,-0.625 2.53125,1.0625 -0.25,0.65625 -0.15625,1.84375 0.375,2.71875 1.71875,0.46875 1.6875,-2.1875 0.75,-1.6875 0.125,-0.6875 2.75,0.375 L 122.125,50 l 0.28125,1.84375 1.0625,2.53125 1.78125,0 1.0625,-2.53125 L 126.625,50 l -0.0625,-0.65625 2.71875,-0.375 0.125,0.6875 0.78125,1.6875 1.65625,2.1875 1.71875,-0.46875 0.375,-2.71875 L 133.75,48.5 l -0.21875,-0.65625 2.53125,-1.0625 0.3125,0.625 1.15625,1.4375 2.1875,1.65625 1.53125,-0.875 -0.34375,-2.71875 -0.65625,-1.75 -0.375,-0.5625 2.1875,-1.6875 0.4375,0.53125 1.5,1.0625 2.5625,1.0625 1.25,-1.28125 -1.0625,-2.53125 -1.0625,-1.5 -0.53125,-0.4375 1.6875,-2.1875 0.5625,0.375 1.75,0.65625 L 151.875,39 l 0.875,-1.53125 -1.65625,-2.1875 -1.4375,-1.1875 -0.625,-0.25 1.0625,-2.5625 0.65625,0.21875 1.84375,0.1875 2.71875,-0.375 0.4375,-1.71875 -2.15625,-1.6875 -1.6875,-0.75 -0.6875,-0.125 0.375,-2.75 0.6875,0.0625 1.8125,-0.3125 L 156.625,23 l 0,-1.78125 -2.53125,-1.0625 -1.8125,-0.3125 -0.6875,0.0625 -0.375,-2.75 0.6875,-0.125 1.6875,-0.75 2.15625,-1.6875 -0.4375,-1.71875 -2.71875,-0.34375 -1.84375,0.15625 -0.65625,0.25 -1.0625,-2.5625 0.625,-0.28125 1.4375,-1.1875 L 152.75,6.75 152.34375,6 l -4.4375,0 -0.5,0.1875 -0.5625,0.40625 L 146.375,6 140.5625,6 z M 124.5,8.625 c 7.53154,0 13.625,6.09346 13.625,13.625 0,7.53154 -6.09346,13.65625 -13.625,13.65625 -7.53154,0 -13.65625,-6.12471 -13.65625,-13.65625 0,-7.53154 6.12471,-13.625 13.65625,-13.625 z m 43.59375,28.21875 -1.1875,2.8125 -0.34375,2 0.0625,0.78125 -3.03125,0.375 -0.125,-0.71875 -0.84375,-1.875 -1.875,-2.40625 -1.875,0.5 -0.40625,3 0.1875,2.0625 0.25,0.6875 -2.8125,1.1875 -0.3125,-0.6875 -1.3125,-1.59375 -2.4375,-1.84375 -1.6875,1 0.40625,3.03125 0.6875,1.875 0.4375,0.65625 -2.40625,1.84375 -0.5,-0.5625 L 147.3125,47.75 144.5,46.625 143.09375,48 l 1.15625,2.8125 1.1875,1.65625 0.59375,0.5 -1.875,2.4375 -0.625,-0.4375 -1.90625,-0.71875 -3,-0.40625 -1,1.71875 1.84375,2.40625 1.59375,1.3125 0.65625,0.3125 -1.15625,2.8125 -0.71875,-0.25 -2.03125,-0.1875 -3,0.40625 -0.53125,1.90625 2.40625,1.84375 1.875,0.84375 0.75,0.15625 -0.40625,3.03125 -0.75,-0.0625 -2.03125,0.3125 -2.8125,1.1875 0,1.96875 2.8125,1.15625 2.03125,0.34375 0.75,-0.0625 0.40625,3.03125 -0.75,0.15625 -1.875,0.8125 -2.40625,1.875 0.53125,1.90625 3,0.40625 2.03125,-0.21875 0.71875,-0.25 1.15625,2.8125 -0.65625,0.34375 -1.59375,1.28125 -1.84375,2.4375 0.25,0.40625 5.9375,0 0.34375,-0.25 0.1875,0.25 6.21875,0 c -1.29523,-1.37524 -2.43984,-2.894648 -3.40625,-4.53125 l 10.90625,-5 c 2.31639,3.217479 6.01483,5.382208 10.21875,5.625 L 168.8125,90 l 5.21875,0 -0.625,-4.59375 c 3.78803,-1.284696 6.83138,-4.197457 8.28125,-7.90625 L 190,79.03125 190,73.75 182.625,72.40625 c -0.0504,-4.233581 -2.06895,-7.986155 -5.15625,-10.4375 l 5.5,-10.65625 c 2.76801,1.813686 5.15704,4.157048 7.03125,6.875 l 0,-9.84375 -0.84375,0.625 -0.5,0.5625 -2.40625,-1.84375 0.40625,-0.65625 0.75,-1.875 0.375,-3.03125 -1.71875,-1 -2.40625,1.84375 -1.28125,1.59375 -0.34375,0.6875 -2.8125,-1.1875 0.25,-0.6875 0.21875,-2.0625 -0.4375,-3 -1.875,-0.5 -1.875,2.40625 -0.84375,1.875 -0.125,0.71875 -3.03125,-0.375 0.0625,-0.78125 -0.34375,-2 -1.15625,-2.8125 -1.96875,0 z m 0.96875,10.3125 c 3.2847,0 6.43014,0.645954 9.3125,1.78125 l -5.5,10.625 c -1.20945,-0.35429 -2.48898,-0.53125 -3.8125,-0.53125 -2.62433,0 -5.08015,0.738068 -7.15625,2.03125 L 153.75,52.28125 c 4.26057,-3.217148 9.56672,-5.125 15.3125,-5.125 z m -48.75,6.3125 -0.96875,2.09375 -0.0625,0.71875 0.1875,1.25 -2.25,0.59375 -0.4375,-1.1875 -0.4375,-0.59375 L 114.5,55 l -1.09375,0.625 0.21875,2.28125 0.3125,0.65625 0.78125,1 -1.625,1.625 -1,-0.78125 -0.65625,-0.3125 -2.28125,-0.21875 -0.625,1.0625 1.34375,1.84375 0.59375,0.4375 1.15625,0.46875 -0.59375,2.21875 -1.25,-0.1875 -0.75,0.0625 -2.0625,0.9375 0,1.25 2.0625,0.9375 0.75,0.0625 1.25,-0.15625 0.59375,2.21875 -1.1875,0.46875 -0.59375,0.40625 -1.34375,1.875 0.59375,1.0625 2.28125,-0.21875 0.6875,-0.3125 1,-0.78125 1.625,1.625 -0.8125,1 -0.3125,0.6875 -0.21875,2.25 1.0625,0.625 1.875,-1.3125 0.40625,-0.59375 0.5,-1.1875 2.21875,0.59375 -0.1875,1.25 0.0625,0.75 0.9375,2.09375 1.21875,0 0.96875,-2.09375 0.0625,-0.71875 -0.1875,-1.28125 2.21875,-0.5625 0.46875,1.15625 0.4375,0.625 1.84375,1.3125 1.0625,-0.59375 -0.21875,-2.28125 -0.28125,-0.65625 -0.78125,-1 1.625,-1.625 1,0.78125 0.65625,0.3125 2.28125,0.21875 0.625,-1.0625 L 131.875,72 l -0.59375,-0.4375 -1.1875,-0.46875 0.625,-2.21875 1.25,0.1875 0.71875,-0.0625 2.09375,-0.9375 0,-1.25 -2.0625,-0.9375 -0.75,-0.09375 -1.25,0.1875 -0.59375,-2.21875 1.1875,-0.46875 0.59375,-0.4375 L 133.25,61 l -0.625,-1.0625 -2.25,0.21875 -0.6875,0.3125 -1,0.78125 -1.625,-1.65625 0.8125,-0.96875 0.28125,-0.6875 0.25,-2.25 -1.0625,-0.625 -1.875,1.3125 -0.4375,0.59375 -0.46875,1.1875 -2.21875,-0.59375 0.1875,-1.28125 -0.0625,-0.71875 -0.9375,-2.09375 -1.21875,0 z m 29.625,2.34375 8.15625,8.78125 C 156.4581,66.83303 155.5,69.579121 155.5,72.5625 c 0,1.101371 0.15791,2.193362 0.40625,3.21875 L 145,80.75 c -0.87766,-2.573536 -1.375,-5.318808 -1.375,-8.1875 0,-6.420779 2.37994,-12.275157 6.3125,-16.75 z m -29.09375,8.375 c 1.81315,0 3.28125,1.468102 3.28125,3.28125 0,1.813148 -1.4681,3.28125 -3.28125,3.28125 -1.81315,0 -3.28125,-1.468102 -3.28125,-3.28125 0,-1.813148 1.4681,-3.28125 3.28125,-3.28125 z m 48.21875,3.28125 c 2.78946,0 5.0625,2.241791 5.0625,5.03125 0,2.789459 -2.27304,5.0625 -5.0625,5.0625 -2.78946,0 -5.03125,-2.273041 -5.03125,-5.0625 0,-2.789459 2.24179,-5.03125 5.03125,-5.03125 z" />
  <path
     style="fill:#ffffff;fill-opacity:1;stroke:none;display:inline"
     id="path6159"
     inkscape:connector-curvature="0"
     d="M 15.78125,6 C 10.000055,9.112307 6.0625,15.225149 6.0625,22.25 c 0,10.181526 8.255974,18.4375 18.4375,18.4375 10.181526,0 18.4375,-8.255974 18.4375,-18.4375 0,-7.024851 -3.937555,-13.137693 -9.71875,-16.25 L 15.78125,6 z M 40.5625,6 c 4.098021,4.129345 6.625,9.818866 6.625,16.09375 0,12.612729 -10.231018,22.84375 -22.84375,22.84375 C 16.838963,44.937501 10.164764,41.309677 6,35.71875 l 0,7.875 0.21875,-0.15625 0.4375,-0.53125 2.1875,1.6875 -0.40625,0.5625 -0.625,1.75 L 7.4375,49.625 9,50.5 l 2.15625,-1.65625 1.1875,-1.4375 0.3125,-0.625 2.53125,1.0625 -0.25,0.65625 -0.15625,1.84375 0.375,2.71875 1.71875,0.46875 1.6875,-2.1875 0.75,-1.6875 0.125,-0.6875 2.75,0.375 L 22.125,50 l 0.28125,1.84375 1.0625,2.53125 1.78125,0 1.0625,-2.53125 L 26.625,50 l -0.0625,-0.65625 2.71875,-0.375 0.125,0.6875 0.78125,1.6875 1.65625,2.1875 1.71875,-0.46875 0.375,-2.71875 L 33.75,48.5 l -0.21875,-0.65625 2.53125,-1.0625 0.3125,0.625 1.15625,1.4375 L 39.71875,50.5 41.25,49.625 40.90625,46.90625 40.25,45.15625 39.875,44.59375 42.0625,42.90625 42.5,43.4375 44,44.5 l 2.5625,1.0625 1.25,-1.28125 L 46.75,41.75 l -1.0625,-1.5 -0.53125,-0.4375 1.6875,-2.1875 0.5625,0.375 1.75,0.65625 L 51.875,39 l 0.875,-1.53125 -1.65625,-2.1875 -1.4375,-1.1875 -0.625,-0.25 1.0625,-2.5625 L 50.75,31.5 l 1.84375,0.1875 2.71875,-0.375 0.4375,-1.71875 -2.15625,-1.6875 -1.6875,-0.75 -0.6875,-0.125 0.375,-2.75 0.6875,0.0625 1.8125,-0.3125 L 56.625,23 l 0,-1.78125 -2.53125,-1.0625 -1.8125,-0.3125 -0.6875,0.0625 -0.375,-2.75 0.6875,-0.125 1.6875,-0.75 L 55.75,14.59375 55.3125,12.875 52.59375,12.53125 50.75,12.6875 l -0.65625,0.25 -1.0625,-2.5625 0.625,-0.28125 1.4375,-1.1875 L 52.75,6.75 52.34375,6 l -4.4375,0 -0.5,0.1875 -0.5625,0.40625 L 46.375,6 40.5625,6 z M 24.5,8.625 c 7.53154,0 13.625,6.09346 13.625,13.625 0,7.53154 -6.09346,13.65625 -13.625,13.65625 -7.53154,0 -13.65625,-6.12471 -13.65625,-13.65625 0,-7.53154 6.12471,-13.625 13.65625,-13.625 z m 43.59375,28.21875 -1.1875,2.8125 -0.34375,2 0.0625,0.78125 -3.03125,0.375 -0.125,-0.71875 -0.84375,-1.875 -1.875,-2.40625 -1.875,0.5 -0.40625,3 0.1875,2.0625 0.25,0.6875 -2.8125,1.1875 -0.3125,-0.6875 -1.3125,-1.59375 -2.4375,-1.84375 -1.6875,1 0.40625,3.03125 0.6875,1.875 0.4375,0.65625 -2.40625,1.84375 -0.5,-0.5625 L 47.3125,47.75 44.5,46.625 43.09375,48 44.25,50.8125 l 1.1875,1.65625 0.59375,0.5 -1.875,2.4375 -0.625,-0.4375 L 41.625,54.25 l -3,-0.40625 -1,1.71875 1.84375,2.40625 1.59375,1.3125 0.65625,0.3125 -1.15625,2.8125 -0.71875,-0.25 -2.03125,-0.1875 -3,0.40625 -0.53125,1.90625 2.40625,1.84375 1.875,0.84375 0.75,0.15625 -0.40625,3.03125 -0.75,-0.0625 -2.03125,0.3125 -2.8125,1.1875 0,1.96875 2.8125,1.15625 2.03125,0.34375 0.75,-0.0625 0.40625,3.03125 -0.75,0.15625 -1.875,0.8125 -2.40625,1.875 0.53125,1.90625 3,0.40625 2.03125,-0.21875 0.71875,-0.25 1.15625,2.8125 -0.65625,0.34375 -1.59375,1.28125 -1.84375,2.4375 0.25,0.40625 5.9375,0 0.34375,-0.25 0.1875,0.25 6.21875,0 c -1.295234,-1.37524 -2.43984,-2.894648 -3.40625,-4.53125 l 10.90625,-5 c 2.316387,3.217479 6.014825,5.382208 10.21875,5.625 L 68.8125,90 l 5.21875,0 -0.625,-4.59375 C 77.19428,84.121554 80.237632,81.208793 81.6875,77.5 L 90,79.03125 90,73.75 82.625,72.40625 c -0.05044,-4.233581 -2.068949,-7.986155 -5.15625,-10.4375 l 5.5,-10.65625 c 2.768009,1.813686 5.157045,4.157048 7.03125,6.875 l 0,-9.84375 -0.84375,0.625 -0.5,0.5625 -2.40625,-1.84375 0.40625,-0.65625 0.75,-1.875 0.375,-3.03125 -1.71875,-1 -2.40625,1.84375 -1.28125,1.59375 -0.34375,0.6875 -2.8125,-1.1875 0.25,-0.6875 0.21875,-2.0625 -0.4375,-3 -1.875,-0.5 -1.875,2.40625 -0.84375,1.875 -0.125,0.71875 -3.03125,-0.375 0.0625,-0.78125 -0.34375,-2 -1.15625,-2.8125 -1.96875,0 z m 0.96875,10.3125 c 3.284696,0 6.430143,0.645954 9.3125,1.78125 l -5.5,10.625 c -1.209447,-0.35429 -2.488978,-0.53125 -3.8125,-0.53125 -2.624326,0 -5.080149,0.738068 -7.15625,2.03125 L 53.75,52.28125 c 4.260574,-3.217148 9.566723,-5.125 15.3125,-5.125 z m -48.75,6.3125 -0.96875,2.09375 -0.0625,0.71875 0.1875,1.25 -2.25,0.59375 -0.4375,-1.1875 -0.4375,-0.59375 L 14.5,55 l -1.09375,0.625 0.21875,2.28125 0.3125,0.65625 0.78125,1 -1.625,1.625 -1,-0.78125 -0.65625,-0.3125 -2.28125,-0.21875 -0.625,1.0625 1.34375,1.84375 0.59375,0.4375 1.15625,0.46875 -0.59375,2.21875 -1.25,-0.1875 -0.75,0.0625 -2.0625,0.9375 0,1.25 2.0625,0.9375 0.75,0.0625 1.25,-0.15625 L 11.625,71.03125 10.4375,71.5 9.84375,71.90625 8.5,73.78125 9.09375,74.84375 11.375,74.625 l 0.6875,-0.3125 1,-0.78125 1.625,1.625 -0.8125,1 -0.3125,0.6875 -0.21875,2.25 1.0625,0.625 1.875,-1.3125 0.40625,-0.59375 0.5,-1.1875 2.21875,0.59375 -0.1875,1.25 0.0625,0.75 0.9375,2.09375 1.21875,0 0.96875,-2.09375 0.0625,-0.71875 -0.1875,-1.28125 2.21875,-0.5625 0.46875,1.15625 0.4375,0.625 L 27.25,79.75 28.3125,79.15625 28.09375,76.875 27.8125,76.21875 l -0.78125,-1 1.625,-1.625 1,0.78125 0.65625,0.3125 2.28125,0.21875 0.625,-1.0625 L 31.875,72 l -0.59375,-0.4375 -1.1875,-0.46875 0.625,-2.21875 1.25,0.1875 L 32.6875,69 l 2.09375,-0.9375 0,-1.25 -2.0625,-0.9375 -0.75,-0.09375 -1.25,0.1875 L 30.125,63.75 31.3125,63.28125 31.90625,62.84375 33.25,61 l -0.625,-1.0625 -2.25,0.21875 -0.6875,0.3125 -1,0.78125 -1.625,-1.65625 0.8125,-0.96875 0.28125,-0.6875 0.25,-2.25 -1.0625,-0.625 -1.875,1.3125 -0.4375,0.59375 -0.46875,1.1875 -2.21875,-0.59375 0.1875,-1.28125 -0.0625,-0.71875 -0.9375,-2.09375 -1.21875,0 z m 29.625,2.34375 8.15625,8.78125 C 56.458102,66.83303 55.5,69.579121 55.5,72.5625 c 0,1.101371 0.157912,2.193362 0.40625,3.21875 L 45,80.75 c -0.877661,-2.573536 -1.375,-5.318808 -1.375,-8.1875 0,-6.420779 2.379937,-12.275157 6.3125,-16.75 z m -29.09375,8.375 c 1.813148,0 3.28125,1.468102 3.28125,3.28125 0,1.813148 -1.468102,3.28125 -3.28125,3.28125 -1.813148,0 -3.28125,-1.468102 -3.28125,-3.28125 0,-1.813148 1.468102,-3.28125 3.28125,-3.28125 z m 48.21875,3.28125 c 2.789459,0 5.0625,2.241791 5.0625,5.03125 0,2.789459 -2.273041,5.0625 -5.0625,5.0625 -2.789459,0 -5.03125,-2.273041 -5.03125,-5.0625 0,-2.789459 2.241791,-5.03125 5.03125,-5.03125 z" />
  <g
     id="layer5" />
  <text
     xml:space="preserve"
     style="font-size:3.10356522px;font-style:normal;font-variant:normal;font-weight:500;font-stretch:normal;line-height:125%;letter-spacing:0px;word-spacing:0px;fill:#ffffff;fill-opacity:1;stroke:none;font-family:Century Schoolbook L;-inkscape-font-specification:Century Schoolbook L Medium"
     x="15.825394"
     y="31.188185"
     id="text3017"
     sodipodi:linespacing="125%"><tspan
       sodipodi:role="line"
       id="tspan3019"
       x="15.825394"
       y="31.188185"
       style="font-size:24.82852173px;font-style:normal;font-variant:normal;font-weight:normal;font-stretch:normal;fill:#ffffff;font-family:Droid Sans Japanese;-inkscape-font-specification:Droid Sans Japanese">K</tspan></text>
</svg>
