<?xml version="1.0" encoding="UTF-8" standalone="no"?>
<!-- Created with Inkscape (http://www.inkscape.org/) -->

<svg
   xmlns:dc="http://purl.org/dc/elements/1.1/"
   xmlns:cc="http://creativecommons.org/ns#"
   xmlns:rdf="http://www.w3.org/1999/02/22-rdf-syntax-ns#"
   xmlns:svg="http://www.w3.org/2000/svg"
   xmlns="http://www.w3.org/2000/svg"
   xmlns:xlink="http://www.w3.org/1999/xlink"
   xmlns:sodipodi="http://sodipodi.sourceforge.net/DTD/sodipodi-0.dtd"
   xmlns:inkscape="http://www.inkscape.org/namespaces/inkscape"
   version="1.0"
   width="96"
   height="96"
   id="svg2408"
   style="display:inline"
   inkscape:version="0.48.5 r10040"
   sodipodi:docname="dukto.svg">
  <sodipodi:namedview
     pagecolor="#ffffff"
     bordercolor="#666666"
     borderopacity="1"
     objecttolerance="10"
     gridtolerance="10"
     guidetolerance="10"
     inkscape:pageopacity="0"
     inkscape:pageshadow="2"
     inkscape:window-width="1680"
     inkscape:window-height="991"
     id="namedview247"
     showgrid="false"
     inkscape:zoom="4.8282082"
     inkscape:cx="-33.190438"
     inkscape:cy="39.736008"
     inkscape:window-x="-2"
     inkscape:window-y="-3"
     inkscape:window-maximized="1"
     inkscape:current-layer="svg2408">
    <inkscape:grid
       type="xygrid"
       id="grid3144" />
  </sodipodi:namedview>
  <defs
     id="defs2410">
    <linearGradient
       id="linearGradient4046">
      <stop
         id="stop4048"
         style="stop-color:#9d1701;stop-opacity:1"
         offset="0" />
      <stop
         id="stop4050"
         style="stop-color:#df731b;stop-opacity:1"
         offset="1" />
    </linearGradient>
    <linearGradient
       id="linearGradient4008">
      <stop
         id="stop4010"
         style="stop-color:#ffa04c;stop-opacity:1"
         offset="0" />
      <stop
         id="stop4012"
         style="stop-color:#df731b;stop-opacity:1"
         offset="1" />
    </linearGradient>
    <linearGradient
       id="linearGradient3993">
      <stop
         id="stop3995"
         style="stop-color:#ffeaa8;stop-opacity:1"
         offset="0" />
      <stop
         id="stop4092"
         style="stop-color:#ffc512;stop-opacity:1"
         offset="0.60655737" />
      <stop
         id="stop3997"
         style="stop-color:#f59811;stop-opacity:1"
         offset="1" />
    </linearGradient>
    <linearGradient
       id="linearGradient3843">
      <stop
         id="stop3845"
         style="stop-color:#ffd893;stop-opacity:1"
         offset="0" />
      <stop
         id="stop3847"
         style="stop-color:#e58010;stop-opacity:1"
         offset="1" />
    </linearGradient>
    <linearGradient
       id="linearGradient3781">
      <stop
         id="stop3783"
         style="stop-color:#ffd283;stop-opacity:1"
         offset="0" />
      <stop
         id="stop3785"
         style="stop-color:#f59811;stop-opacity:1"
         offset="1" />
    </linearGradient>
    <linearGradient
       id="linearGradient3727">
      <stop
         id="stop3729"
         style="stop-color:#ffae65;stop-opacity:1"
         offset="0" />
      <stop
         id="stop3731"
         style="stop-color:#ffa04c;stop-opacity:0"
         offset="1" />
    </linearGradient>
    <linearGradient
       id="linearGradient7648">
      <stop
         id="stop7650"
         style="stop-color:#f69909;stop-opacity:1"
         offset="0" />
      <stop
         id="stop7652"
         style="stop-color:#f69909;stop-opacity:0"
         offset="1" />
    </linearGradient>
    <linearGradient
       id="linearGradient7640">
      <stop
         id="stop7642"
         style="stop-color:#df731b;stop-opacity:1"
         offset="0" />
      <stop
         id="stop7644"
         style="stop-color:#df731b;stop-opacity:0"
         offset="1" />
    </linearGradient>
    <linearGradient
       id="linearGradient3910">
      <stop
         id="stop3912"
         style="stop-color:#000000;stop-opacity:1"
         offset="0" />
      <stop
         id="stop3918"
         style="stop-color:#10213a;stop-opacity:0.65882355"
         offset="0.57377046" />
      <stop
         id="stop3914"
         style="stop-color:#1c3b68;stop-opacity:0"
         offset="1" />
    </linearGradient>
    <linearGradient
       id="linearGradient5598">
      <stop
         id="stop5600"
         style="stop-color:#66a9f5;stop-opacity:1"
         offset="0" />
      <stop
         id="stop7879"
         style="stop-color:#3d73b6;stop-opacity:1"
         offset="0.40000001" />
      <stop
         id="stop5602"
         style="stop-color:#143e78;stop-opacity:1"
         offset="1" />
    </linearGradient>
    <linearGradient
       id="linearGradient2312">
      <stop
         id="stop2314"
         style="stop-color:#e3ebf3;stop-opacity:1"
         offset="0" />
      <stop
         id="stop2316"
         style="stop-color:#cedceb;stop-opacity:0.39215687"
         offset="1" />
    </linearGradient>
    <linearGradient
       id="linearGradient5629">
      <stop
         id="stop5631"
         style="stop-color:#ffffff;stop-opacity:0"
         offset="0" />
      <stop
         id="stop5637"
         style="stop-color:#0f4480;stop-opacity:0"
         offset="0.87216145" />
      <stop
         id="stop5633"
         style="stop-color:#0c3163;stop-opacity:0.87450981"
         offset="1" />
    </linearGradient>
    <linearGradient
       id="linearGradient4317">
      <stop
         id="stop4319"
         style="stop-color:#ffffff;stop-opacity:1"
         offset="0" />
      <stop
         id="stop4321"
         style="stop-color:#ffffff;stop-opacity:0"
         offset="1" />
    </linearGradient>
    <linearGradient
       x1="45.447727"
       y1="92.539597"
       x2="45.447727"
       y2="7.0165396"
       id="ButtonShadow"
       gradientUnits="userSpaceOnUse"
       gradientTransform="scale(1.0058652,0.994169)">
      <stop
         id="stop3750"
         style="stop-color:#000000;stop-opacity:1"
         offset="0" />
      <stop
         id="stop3752"
         style="stop-color:#000000;stop-opacity:0.58823532"
         offset="1" />
    </linearGradient>
    <linearGradient
       id="linearGradient3737">
      <stop
         id="stop3739"
         style="stop-color:#ffffff;stop-opacity:1"
         offset="0" />
      <stop
         id="stop3741"
         style="stop-color:#ffffff;stop-opacity:0"
         offset="1" />
    </linearGradient>
    <linearGradient
       id="linearGradient3700">
      <stop
         id="stop3702"
         style="stop-color:#b63602;stop-opacity:1"
         offset="0" />
      <stop
         id="stop3704"
         style="stop-color:#ffa72a;stop-opacity:1"
         offset="1" />
    </linearGradient>
    <linearGradient
       x1="48"
       y1="90"
       x2="48"
       y2="5.9877172"
       id="linearGradient3706"
       xlink:href="#linearGradient3700"
       gradientUnits="userSpaceOnUse" />
    <filter
       color-interpolation-filters="sRGB"
       id="filter3174">
      <feGaussianBlur
         id="feGaussianBlur3176"
         stdDeviation="1.71" />
    </filter>
    <linearGradient
       x1="36.357143"
       y1="6"
       x2="36.357143"
       y2="63.893143"
       id="linearGradient3188"
       xlink:href="#linearGradient3737"
       gradientUnits="userSpaceOnUse" />
    <linearGradient
       x1="4.24264"
       y1="-164.7422"
       x2="4.24264"
       y2="-32.689968"
       id="linearGradient3956"
       xlink:href="#linearGradient4317"
       gradientUnits="userSpaceOnUse"
       gradientTransform="matrix(0.1890843,0,0,0.1814684,43.833662,51.270698)" />
    <linearGradient
       x1="4.24264"
       y1="-164.7422"
       x2="6.3764067"
       y2="-47.453506"
       id="linearGradient3961"
       xlink:href="#linearGradient4317"
       gradientUnits="userSpaceOnUse"
       gradientTransform="matrix(0.2405723,0,0,0.2696101,42.832456,65.790782)" />
    <radialGradient
       cx="21.75"
       cy="-49.3125"
       r="114"
       fx="21.75"
       fy="-49.3125"
       id="radialGradient3964"
       xlink:href="#linearGradient5629"
       gradientUnits="userSpaceOnUse"
       gradientTransform="matrix(0.2281442,0,0,0.2281316,42.54835,57.656265)" />
    <radialGradient
       cx="372.90503"
       cy="693.90143"
       r="364.52515"
       fx="372.90503"
       fy="693.90143"
       id="radialGradient3976"
       xlink:href="#linearGradient5598"
       gradientUnits="userSpaceOnUse"
       gradientTransform="matrix(1.1265187,-1.4663371e-8,1.0849677e-8,0.8113239,-47.179503,135.69256)" />
    <linearGradient
       x1="6"
       y1="56.778179"
       x2="77.53125"
       y2="56.778179"
       id="linearGradient7646"
       xlink:href="#linearGradient7640"
       gradientUnits="userSpaceOnUse" />
    <linearGradient
       x1="46.147266"
       y1="10.333292"
       x2="92.14286"
       y2="90"
       id="linearGradient7654"
       xlink:href="#linearGradient7648"
       gradientUnits="userSpaceOnUse" />
    <linearGradient
       x1="76.074364"
       y1="65.418854"
       x2="83.626366"
       y2="72.970856"
       id="linearGradient3733"
       xlink:href="#linearGradient3727"
       gradientUnits="userSpaceOnUse"
       gradientTransform="matrix(0.9820258,-0.3605877,0.3605877,0.9820258,-21.724136,31.099571)" />
    <linearGradient
       x1="76.074364"
       y1="65.418854"
       x2="83.626366"
       y2="72.970856"
       id="linearGradient3743"
       xlink:href="#linearGradient3727"
       gradientUnits="userSpaceOnUse"
       gradientTransform="matrix(0.7163691,-0.2630419,0.2630419,0.7163691,8.6237219,51.589579)" />
    <linearGradient
       x1="76.074364"
       y1="65.418854"
       x2="83.626366"
       y2="72.970856"
       id="linearGradient3749"
       xlink:href="#linearGradient3727"
       gradientUnits="userSpaceOnUse"
       gradientTransform="matrix(0.7163691,-0.2630419,0.2630419,0.7163691,8.6237219,51.589579)" />
    <linearGradient
       x1="76.074364"
       y1="65.418854"
       x2="83.626366"
       y2="72.970856"
       id="linearGradient3755"
       xlink:href="#linearGradient3727"
       gradientUnits="userSpaceOnUse"
       gradientTransform="matrix(0.7163691,-0.2630419,0.2630419,0.7163691,8.6237219,51.589579)" />
    <linearGradient
       x1="76.074364"
       y1="65.418854"
       x2="83.626366"
       y2="72.970856"
       id="linearGradient3759"
       xlink:href="#linearGradient3727"
       gradientUnits="userSpaceOnUse"
       gradientTransform="matrix(0.6914629,-0.2538966,0.2538966,0.6914629,12.463819,46.241754)" />
    <linearGradient
       x1="76.074364"
       y1="65.418854"
       x2="83.626366"
       y2="72.970856"
       id="linearGradient3763"
       xlink:href="#linearGradient3727"
       gradientUnits="userSpaceOnUse"
       gradientTransform="matrix(0.3608373,-0.3850916,0.3850916,0.3608373,30.032152,87.955627)" />
    <linearGradient
       x1="76.074364"
       y1="65.418854"
       x2="83.626366"
       y2="72.970856"
       id="linearGradient3769"
       xlink:href="#linearGradient3727"
       gradientUnits="userSpaceOnUse"
       gradientTransform="matrix(0.7163691,-0.2630419,0.2630419,0.7163691,8.6237219,51.589579)" />
    <linearGradient
       x1="76.074364"
       y1="65.418854"
       x2="83.626366"
       y2="72.970856"
       id="linearGradient3775"
       xlink:href="#linearGradient3727"
       gradientUnits="userSpaceOnUse"
       gradientTransform="matrix(0.7163691,-0.2630419,0.2630419,0.7163691,8.6237219,51.589579)" />
    <linearGradient
       x1="76.074364"
       y1="65.418854"
       x2="83.626366"
       y2="72.970856"
       id="linearGradient3779"
       xlink:href="#linearGradient3781"
       gradientUnits="userSpaceOnUse"
       gradientTransform="matrix(1.1671019,-0.2399237,0.2399237,1.1671019,-32.021992,-45.739259)" />
    <linearGradient
       x1="76.074364"
       y1="65.418854"
       x2="83.626366"
       y2="72.970856"
       id="linearGradient3789"
       xlink:href="#linearGradient3843"
       gradientUnits="userSpaceOnUse"
       gradientTransform="matrix(1.190324,0.05309362,-0.05309362,1.190324,-11.899013,-45.928401)" />
    <linearGradient
       x1="76.074364"
       y1="65.418854"
       x2="83.626366"
       y2="72.970856"
       id="linearGradient3793"
       xlink:href="#linearGradient3781"
       gradientUnits="userSpaceOnUse"
       gradientTransform="matrix(0.7484538,-0.4918979,0.4918979,0.7484538,-29.442694,2.489429)" />
    <linearGradient
       x1="76.074364"
       y1="65.418854"
       x2="83.626366"
       y2="72.970856"
       id="linearGradient3797"
       xlink:href="#linearGradient3781"
       gradientUnits="userSpaceOnUse"
       gradientTransform="matrix(0.5225515,-0.3434306,0.3434306,0.5225515,21.435687,11.478722)" />
    <linearGradient
       x1="76.074364"
       y1="65.418854"
       x2="83.626366"
       y2="72.970856"
       id="linearGradient3801"
       xlink:href="#linearGradient3781"
       gradientUnits="userSpaceOnUse"
       gradientTransform="matrix(0.7255019,-0.09614471,0.06014635,0.7458159,20.704877,-30.666872)" />
    <linearGradient
       x1="76.074364"
       y1="65.418854"
       x2="83.626366"
       y2="72.970856"
       id="linearGradient3805"
       xlink:href="#linearGradient3781"
       gradientUnits="userSpaceOnUse"
       gradientTransform="matrix(0.3711689,-0.1871988,0.1871988,0.3711689,41.789421,4.9669699)" />
    <linearGradient
       x1="76.074364"
       y1="65.418854"
       x2="83.626366"
       y2="72.970856"
       id="linearGradient3809"
       xlink:href="#linearGradient3781"
       gradientUnits="userSpaceOnUse"
       gradientTransform="matrix(0.3948256,0.1300865,-0.1300865,0.3948256,64.04034,-24.573679)" />
    <linearGradient
       x1="76.074364"
       y1="65.418854"
       x2="83.626366"
       y2="72.970856"
       id="linearGradient3813"
       xlink:href="#linearGradient3781"
       gradientUnits="userSpaceOnUse"
       gradientTransform="matrix(0.5040987,-0.02918677,0.02918677,0.5040987,45.998403,-7.2686079)" />
    <linearGradient
       x1="76.074364"
       y1="65.418854"
       x2="83.626366"
       y2="72.970856"
       id="linearGradient3817"
       xlink:href="#linearGradient3993"
       gradientUnits="userSpaceOnUse"
       gradientTransform="matrix(0.6288027,-1.0120758,1.0120758,0.6288027,-99.947186,49.584732)" />
    <linearGradient
       x1="76.074364"
       y1="65.418854"
       x2="83.626366"
       y2="72.970856"
       id="linearGradient3821"
       xlink:href="#linearGradient3993"
       gradientUnits="userSpaceOnUse"
       gradientTransform="matrix(0.386944,-1.3420905,1.3420905,0.386944,-99.099579,96.515329)" />
    <linearGradient
       x1="76.074364"
       y1="65.418854"
       x2="83.626366"
       y2="72.970856"
       id="linearGradient3825"
       xlink:href="#linearGradient3993"
       gradientUnits="userSpaceOnUse"
       gradientTransform="matrix(0.06725779,-1.1896077,1.1896077,0.06725779,-72.98847,108.21723)" />
    <linearGradient
       x1="76.074364"
       y1="65.418854"
       x2="83.626366"
       y2="72.970856"
       id="linearGradient3829"
       xlink:href="#linearGradient3993"
       gradientUnits="userSpaceOnUse"
       gradientTransform="matrix(0.03993423,-0.9828373,0.9828373,0.03993423,-47.340831,96.258369)" />
    <linearGradient
       x1="76.074364"
       y1="65.418854"
       x2="83.626366"
       y2="72.970856"
       id="linearGradient3833"
       xlink:href="#linearGradient3781"
       gradientUnits="userSpaceOnUse"
       gradientTransform="matrix(-0.1869192,-0.5967126,0.5967126,-0.1869192,-12.997301,89.53938)" />
    <linearGradient
       x1="76.074364"
       y1="65.418854"
       x2="83.626366"
       y2="72.970856"
       id="linearGradient3837"
       xlink:href="#linearGradient3781"
       gradientUnits="userSpaceOnUse"
       gradientTransform="matrix(0.9411367,-0.7307201,0.7307201,0.9411367,-94.098052,2.4298142)" />
    <linearGradient
       x1="76.074364"
       y1="65.418854"
       x2="83.626366"
       y2="72.970856"
       id="linearGradient3841"
       xlink:href="#linearGradient3993"
       gradientUnits="userSpaceOnUse"
       gradientTransform="matrix(0.6077762,-0.657841,0.657841,0.6077762,-56.276178,25.159848)" />
    <linearGradient
       x1="76.074364"
       y1="65.418854"
       x2="83.626366"
       y2="72.970856"
       id="linearGradient3851"
       xlink:href="#linearGradient3843"
       gradientUnits="userSpaceOnUse"
       gradientTransform="matrix(0.8246643,0.2196683,-0.2196683,0.8246643,34.600846,-36.799497)" />
    <linearGradient
       x1="76.074364"
       y1="65.418854"
       x2="83.626366"
       y2="72.970856"
       id="linearGradient3855"
       xlink:href="#linearGradient3781"
       gradientUnits="userSpaceOnUse"
       gradientTransform="matrix(1.1637239,0.07551779,-0.07551779,1.1637239,-10.19798,-53.960149)" />
    <linearGradient
       x1="76.074364"
       y1="65.418854"
       x2="83.626366"
       y2="72.970856"
       id="linearGradient3859"
       xlink:href="#linearGradient3843"
       gradientUnits="userSpaceOnUse"
       gradientTransform="matrix(0.4582539,-0.2908732,0.2908732,0.4582539,21.662029,36.158854)" />
    <linearGradient
       x1="76.074364"
       y1="65.418854"
       x2="83.626366"
       y2="72.970856"
       id="linearGradient3863"
       xlink:href="#linearGradient3843"
       gradientUnits="userSpaceOnUse"
       gradientTransform="matrix(0.6831812,-0.3142574,0.3142574,0.6831812,5.8508334,27.26478)" />
    <linearGradient
       x1="76.074364"
       y1="65.418854"
       x2="83.626366"
       y2="72.970856"
       id="linearGradient3871"
       xlink:href="#linearGradient3843"
       gradientUnits="userSpaceOnUse"
       gradientTransform="matrix(0.4673169,-0.1161029,0.1161029,0.4673169,42.421625,22.496014)" />
    <linearGradient
       x1="76.074364"
       y1="65.418854"
       x2="83.626366"
       y2="72.970856"
       id="linearGradient3875"
       xlink:href="#linearGradient3727"
       gradientUnits="userSpaceOnUse"
       gradientTransform="matrix(0.9782488,0.2074354,-0.2074354,0.9782488,22.218385,-23.165914)" />
    <linearGradient
       x1="76.074364"
       y1="65.418854"
       x2="83.626366"
       y2="72.970856"
       id="linearGradient3879"
       xlink:href="#linearGradient3727"
       gradientUnits="userSpaceOnUse"
       gradientTransform="matrix(0.7920005,0.2946434,-0.2946434,0.7920005,42.539061,-26.704668)" />
    <linearGradient
       x1="76.074364"
       y1="65.418854"
       x2="83.626366"
       y2="72.970856"
       id="linearGradient3885"
       xlink:href="#linearGradient3727"
       gradientUnits="userSpaceOnUse"
       gradientTransform="matrix(0.7163691,-0.2630419,0.2630419,0.7163691,8.6237219,51.589579)" />
    <linearGradient
       x1="76.074364"
       y1="65.418854"
       x2="83.626366"
       y2="72.970856"
       id="linearGradient3889"
       xlink:href="#linearGradient3727"
       gradientUnits="userSpaceOnUse"
       gradientTransform="matrix(0.7363681,0.01861346,-0.01861346,0.7363681,24.560691,12.365427)" />
    <linearGradient
       x1="76.074364"
       y1="65.418854"
       x2="83.626366"
       y2="72.970856"
       id="linearGradient3893"
       xlink:href="#linearGradient3727"
       gradientUnits="userSpaceOnUse"
       gradientTransform="matrix(0.4783123,-0.2229719,0.2229719,0.4783123,32.536407,52.26506)" />
    <linearGradient
       x1="76.074364"
       y1="65.418854"
       x2="83.626366"
       y2="72.970856"
       id="linearGradient3901"
       xlink:href="#linearGradient3727"
       gradientUnits="userSpaceOnUse"
       gradientTransform="matrix(0.7364134,-0.01672543,0.01672543,0.7364134,30.617678,8.8593186)" />
    <linearGradient
       x1="76.074364"
       y1="65.418854"
       x2="83.626366"
       y2="72.970856"
       id="linearGradient3911"
       xlink:href="#linearGradient3727"
       gradientUnits="userSpaceOnUse"
       gradientTransform="matrix(0.3449243,-0.368109,0.368109,0.3449243,29.1893,57.048222)" />
    <linearGradient
       x1="76.074364"
       y1="65.418854"
       x2="83.626366"
       y2="72.970856"
       id="linearGradient3915"
       xlink:href="#linearGradient3781"
       gradientUnits="userSpaceOnUse"
       gradientTransform="matrix(0.5225515,-0.3434306,0.3434306,0.5225515,8.1774349,30.040275)" />
    <linearGradient
       x1="76.074364"
       y1="65.418854"
       x2="83.626366"
       y2="72.970856"
       id="linearGradient3919"
       xlink:href="#linearGradient3993"
       gradientUnits="userSpaceOnUse"
       gradientTransform="matrix(1.1067603,-0.4413296,0.4413296,1.1067603,-51.147262,-16.818665)" />
    <linearGradient
       x1="76.074364"
       y1="65.418854"
       x2="83.626366"
       y2="72.970856"
       id="linearGradient3923"
       xlink:href="#linearGradient3993"
       gradientUnits="userSpaceOnUse"
       gradientTransform="matrix(0.963661,-0.7007479,0.7007479,0.963661,-77.885364,0.331086)" />
    <linearGradient
       x1="76.074364"
       y1="65.418854"
       x2="83.626366"
       y2="72.970856"
       id="linearGradient3927"
       xlink:href="#linearGradient3993"
       gradientUnits="userSpaceOnUse"
       gradientTransform="matrix(0.9475654,-1.0261834,1.0261834,0.9475654,-94.162112,31.405539)" />
    <linearGradient
       x1="76.074364"
       y1="65.418854"
       x2="83.626366"
       y2="72.970856"
       id="linearGradient3931"
       xlink:href="#linearGradient3781"
       gradientUnits="userSpaceOnUse"
       gradientTransform="matrix(0.5384517,-0.2946873,0.2726721,0.5652328,4.430729,-2.910297)" />
    <linearGradient
       x1="76.074364"
       y1="65.418854"
       x2="83.626366"
       y2="72.970856"
       id="linearGradient3935"
       xlink:href="#linearGradient3993"
       gradientUnits="userSpaceOnUse"
       gradientTransform="matrix(0.9597462,-0.2155254,0.2155254,0.9597462,-13.634727,-25.650382)" />
    <linearGradient
       x1="76.074364"
       y1="65.418854"
       x2="83.626366"
       y2="72.970856"
       id="linearGradient3939"
       xlink:href="#linearGradient3781"
       gradientUnits="userSpaceOnUse"
       gradientTransform="matrix(0.6054087,-0.4111899,0.3881186,0.6397053,-7.2104812,7.9215456)" />
    <linearGradient
       x1="76.074364"
       y1="65.418854"
       x2="83.626366"
       y2="72.970856"
       id="linearGradient3943"
       xlink:href="#linearGradient3781"
       gradientUnits="userSpaceOnUse"
       gradientTransform="matrix(0.06081153,-0.4112319,0.4112319,0.06081153,18.967648,48.710693)" />
    <linearGradient
       x1="76.074364"
       y1="65.418854"
       x2="83.626366"
       y2="72.970856"
       id="linearGradient3947"
       xlink:href="#linearGradient3993"
       gradientUnits="userSpaceOnUse"
       gradientTransform="matrix(0.1990431,-0.7042575,0.7086538,0.2401431,-16.875411,56.921861)" />
    <linearGradient
       x1="76.074364"
       y1="65.418854"
       x2="83.626366"
       y2="72.970856"
       id="linearGradient3951"
       xlink:href="#linearGradient3781"
       gradientUnits="userSpaceOnUse"
       gradientTransform="matrix(0.1120965,-0.6034942,0.6103256,0.1460852,-16.805075,57.280769)" />
    <linearGradient
       x1="76.074364"
       y1="65.418854"
       x2="83.626366"
       y2="72.970856"
       id="linearGradient3955"
       xlink:href="#linearGradient3993"
       gradientUnits="userSpaceOnUse"
       gradientTransform="matrix(-0.6354725,-1.0079012,1.0079012,-0.6354725,-2.4988781,154.66583)" />
    <linearGradient
       x1="76.074364"
       y1="65.418854"
       x2="83.626366"
       y2="72.970856"
       id="linearGradient3959"
       xlink:href="#linearGradient3781"
       gradientUnits="userSpaceOnUse"
       gradientTransform="matrix(-0.4281608,-0.4557225,0.4557225,-0.4281608,11.364984,98.48179)" />
    <linearGradient
       x1="76.074364"
       y1="65.418854"
       x2="83.626366"
       y2="72.970856"
       id="linearGradient3965"
       xlink:href="#linearGradient3727"
       gradientUnits="userSpaceOnUse"
       gradientTransform="matrix(0.7163691,-0.2630419,0.2630419,0.7163691,8.6237219,51.589579)" />
    <linearGradient
       x1="76.074364"
       y1="65.418854"
       x2="83.626366"
       y2="72.970856"
       id="linearGradient3973"
       xlink:href="#linearGradient3781"
       gradientUnits="userSpaceOnUse"
       gradientTransform="matrix(0.6526642,-0.3310986,0.3038644,0.6837583,-6.924399,7.484653)" />
    <linearGradient
       x1="76.074364"
       y1="65.418854"
       x2="83.626366"
       y2="72.970856"
       id="linearGradient4006"
       xlink:href="#linearGradient4008"
       gradientUnits="userSpaceOnUse"
       gradientTransform="matrix(-0.2198117,-1.1673145,1.1673145,-0.2198117,-43.124123,180.46059)" />
    <linearGradient
       x1="76.074364"
       y1="65.418854"
       x2="83.626366"
       y2="72.970856"
       id="linearGradient4016"
       xlink:href="#linearGradient4008"
       gradientUnits="userSpaceOnUse"
       gradientTransform="matrix(-0.6280478,-0.7140584,0.7140584,-0.6280478,28.231702,175.16151)" />
    <linearGradient
       x1="76.074364"
       y1="65.418854"
       x2="83.626366"
       y2="72.970856"
       id="linearGradient4020"
       xlink:href="#linearGradient4008"
       gradientUnits="userSpaceOnUse"
       gradientTransform="matrix(0.1958729,-0.699642,0.699642,0.1958729,-48.672569,98.353388)" />
    <linearGradient
       x1="76.074364"
       y1="65.418854"
       x2="83.626366"
       y2="72.970856"
       id="linearGradient4024"
       xlink:href="#linearGradient4008"
       gradientUnits="userSpaceOnUse"
       gradientTransform="matrix(-0.007884,-0.9477426,0.9477426,-0.007884,-49.921757,138.70377)" />
    <linearGradient
       x1="76.074364"
       y1="65.418854"
       x2="83.626366"
       y2="72.970856"
       id="linearGradient4028"
       xlink:href="#linearGradient4008"
       gradientUnits="userSpaceOnUse"
       gradientTransform="matrix(-0.599477,-0.3262687,0.3262687,-0.599477,59.963834,143.82527)" />
    <linearGradient
       x1="76.074364"
       y1="65.418854"
       x2="83.626366"
       y2="72.970856"
       id="linearGradient4032"
       xlink:href="#linearGradient4008"
       gradientUnits="userSpaceOnUse"
       gradientTransform="matrix(0.03389637,-0.4489222,0.4489222,0.03389637,-24.478628,88.693334)" />
    <linearGradient
       x1="76.074364"
       y1="65.418854"
       x2="83.626366"
       y2="72.970856"
       id="linearGradient4036"
       xlink:href="#linearGradient4008"
       gradientUnits="userSpaceOnUse"
       gradientTransform="matrix(-0.1417169,-0.5196144,0.5196144,-0.1417169,-10.327739,117.79869)" />
    <linearGradient
       x1="76.074364"
       y1="65.418854"
       x2="83.626366"
       y2="72.970856"
       id="linearGradient4040"
       xlink:href="#linearGradient4008"
       gradientUnits="userSpaceOnUse"
       gradientTransform="matrix(-0.1321197,-0.477535,0.477535,-0.1321197,-0.7019176,121.25785)" />
    <linearGradient
       x1="76.074364"
       y1="65.418854"
       x2="83.626366"
       y2="72.970856"
       id="linearGradient4044"
       xlink:href="#linearGradient4046"
       gradientUnits="userSpaceOnUse"
       gradientTransform="matrix(-0.3836975,-0.9818443,1.0180659,-0.3834818,-27.629548,180.22642)" />
    <linearGradient
       x1="76.074364"
       y1="65.418854"
       x2="83.626366"
       y2="72.970856"
       id="linearGradient4054"
       xlink:href="#linearGradient4046"
       gradientUnits="userSpaceOnUse"
       gradientTransform="matrix(-0.6778511,-0.5849563,0.6122406,-0.6920668,35.362432,175.04136)" />
    <linearGradient
       x1="76.074364"
       y1="65.418854"
       x2="83.626366"
       y2="72.970856"
       id="linearGradient4058"
       xlink:href="#linearGradient4046"
       gradientUnits="userSpaceOnUse"
       gradientTransform="matrix(-0.2020378,-0.4538219,0.4708774,-0.2027262,-7.9261364,124.28332)" />
    <linearGradient
       x1="76.074364"
       y1="65.418854"
       x2="83.626366"
       y2="72.970856"
       id="linearGradient4062"
       xlink:href="#linearGradient4046"
       gradientUnits="userSpaceOnUse"
       gradientTransform="matrix(-0.4519872,-0.2606427,0.2184296,-0.5865159,51.612955,142.51502)" />
    <linearGradient
       x1="76.074364"
       y1="65.418854"
       x2="83.626366"
       y2="72.970856"
       id="linearGradient4101"
       xlink:href="#linearGradient3781"
       gradientUnits="userSpaceOnUse"
       gradientTransform="matrix(-0.2271965,-0.4857471,0.5016798,-0.219981,7.5795692,78.201882)" />
    <radialGradient
       cx="19181.57"
       cy="17597.709"
       r="16756.031"
       fx="19181.57"
       fy="17597.709"
       id="radialGradient6694"
       xlink:href="#linearGradient2312"
       gradientUnits="userSpaceOnUse"
       gradientTransform="matrix(1,0,0,1.0498756,0,-877.69716)" />
    <radialGradient
       cx="127.27922"
       cy="98.020309"
       r="24.165739"
       fx="127.27922"
       fy="98.020309"
       id="radialGradient4558"
       xlink:href="#linearGradient2312"
       gradientUnits="userSpaceOnUse"
       gradientTransform="matrix(1,0,0,1.0496111,-79.30166,-57.138289)" />
    <radialGradient
       cx="111.25"
       cy="52.07143"
       r="6.25"
       fx="111.25"
       fy="52.07143"
       id="radialGradient5331"
       xlink:href="#linearGradient3910"
       gradientUnits="userSpaceOnUse"
       gradientTransform="matrix(1,0,0,6.1142859,0,-266.30818)" />
    <linearGradient
       id="linearGradient3737-1">
      <stop
         id="stop3739-7"
         style="stop-color:#ffffff;stop-opacity:1"
         offset="0" />
      <stop
         id="stop3741-2"
         style="stop-color:#ffffff;stop-opacity:0"
         offset="1" />
    </linearGradient>
    <radialGradient
       cx="48"
       cy="90.171875"
       r="42"
       fx="48"
       fy="90.171875"
       id="radialGradient2855"
       xlink:href="#linearGradient3737-1"
       gradientUnits="userSpaceOnUse"
       gradientTransform="matrix(1.1573129,0,0,0.99590774,-7.551021,0.1971319)" />
    <linearGradient
       x1="45.447727"
       y1="92.539597"
       x2="45.447727"
       y2="7.0165396"
       id="ButtonShadow-7"
       gradientUnits="userSpaceOnUse"
       gradientTransform="matrix(1.0058652,0,0,0.994169,100,0)">
      <stop
         id="stop3750-7"
         style="stop-color:#000000;stop-opacity:1"
         offset="0" />
      <stop
         id="stop3752-6"
         style="stop-color:#000000;stop-opacity:0.58823532"
         offset="1" />
    </linearGradient>
    <linearGradient
       x1="32.251034"
       y1="6.1317081"
       x2="32.251034"
       y2="90.238609"
       id="linearGradient3780"
       xlink:href="#ButtonShadow-7"
       gradientUnits="userSpaceOnUse"
       gradientTransform="matrix(1.0238095,0,0,1.0119048,-1.1428571,-98.071429)" />
    <linearGradient
       x1="32.251034"
       y1="6.1317081"
       x2="32.251034"
       y2="90.238609"
       id="linearGradient3772"
       xlink:href="#ButtonShadow-7"
       gradientUnits="userSpaceOnUse"
       gradientTransform="matrix(1.0238095,0,0,1.0119048,-1.1428571,-98.071429)" />
    <linearGradient
       x1="32.251034"
       y1="6.1317081"
       x2="32.251034"
       y2="90.238609"
       id="linearGradient3725"
       xlink:href="#ButtonShadow-7"
       gradientUnits="userSpaceOnUse"
       gradientTransform="matrix(1.0238095,0,0,1.0119048,-1.1428571,-98.071429)" />
    <linearGradient
       x1="32.251034"
       y1="6.1317081"
       x2="32.251034"
       y2="90.238609"
       id="linearGradient3721"
       xlink:href="#ButtonShadow-7"
       gradientUnits="userSpaceOnUse"
       gradientTransform="translate(0,-97)" />
    <linearGradient
       x1="32.251034"
       y1="6.1317081"
       x2="32.251034"
       y2="90.238609"
       id="linearGradient3026"
       xlink:href="#ButtonShadow-7"
       gradientUnits="userSpaceOnUse"
       gradientTransform="matrix(1.0238095,0,0,1.0119048,-1.1428571,-98.071429)" />
    <linearGradient
       x1="9.5115528"
       y1="84.508163"
       x2="81.182388"
       y2="15.300087"
       id="linearGradient3261"
       xlink:href="#linearGradient3255"
       gradientUnits="userSpaceOnUse" />
    <linearGradient
       id="linearGradient3255">
      <stop
         id="stop3257"
         style="stop-color:#226e23;stop-opacity:1"
         offset="0" />
      <stop
         id="stop3267"
         style="stop-color:#63ab3a;stop-opacity:1"
         offset="1" />
    </linearGradient>
  </defs>
  <metadata
     id="metadata2413">
    <rdf:RDF>
      <cc:Work
         rdf:about="">
        <dc:format>image/svg+xml</dc:format>
        <dc:type
           rdf:resource="http://purl.org/dc/dcmitype/StillImage" />
        <dc:title></dc:title>
      </cc:Work>
    </rdf:RDF>
  </metadata>
  <rect
     style="fill:#45b206;fill-opacity:1;fill-rule:evenodd;stroke:none"
     id="rect3955"
     width="83.793816"
     height="84.255493"
     x="6.0017614"
     y="5.7427449"
     rx="9.729434"
     ry="0" />
  <g
     id="layer2"
     style="display:none">
    <rect
       width="86"
       height="85"
       rx="6"
       ry="6"
       x="5"
       y="7"
       id="rect3745"
       style="opacity:0.9;fill:url(#ButtonShadow);fill-opacity:1;fill-rule:nonzero;stroke:none;filter:url(#filter3174)" />
  </g>
  <g
     id="layer10"
     style="display:inline" />
  <g
     id="layer9"
     style="display:inline" />
  <g
     id="layer7"
     style="display:inline">
    <a
       transform="matrix(0.5813319,0.01171362,-0.01171362,0.5813319,31.462951,18.060368)"
       id="a3961" />
    <a
       transform="matrix(1.0461348,0,0,1.0461348,-5.2298889,-7.9172448)"
       id="a3740" />
    <a
       transform="matrix(0.8341746,-0.1856091,0.1856091,0.8341746,-1.1847331,33.762235)"
       id="a3745" />
    <a
       transform="matrix(0.8622115,-0.2679751,0.234576,1.0454489,-7.9621057,19.01928)"
       id="a3751" />
    <a
       transform="matrix(0.5813319,0.01171362,-0.01171362,0.5813319,39.12443,30.477247)"
       id="a3765" />
    <a
       transform="matrix(0.333034,-0.476626,0.476626,0.333034,19.694267,97.988729)"
       id="a3771" />
    <a
       transform="matrix(0.5432401,0.2073022,-0.2073022,0.5432401,52.943206,-1.6524088)"
       id="a3881" />
  </g>
  <g
     id="layer8"
     style="display:inline" />
  <g
     id="g3248"
     transform="translate(1.1708177,1.2487315)">
    <path
       inkscape:connector-curvature="0"
       d="m 56.764748,19.311065 2.882508,0 c 5.448779,0.782011 10.344092,4.236363 12.907763,9.101094 2.590532,5.504183 2.444916,12.296303 -0.908646,17.447906 -3.004074,4.906256 -8.686109,7.896479 -14.425665,7.717217 0.8608,0.892038 1.709166,1.797051 2.564888,2.695095 2.132356,2.238784 4.215133,4.52419 6.348286,6.762817 -0.0273,3.704216 -0.09991,7.407968 -0.125541,11.112551 -4.031537,0.06012 -8.063817,-0.06044 -12.094531,0.04373 -2.457365,-2.564914 -4.919844,-5.125477 -7.323199,-7.740927 -0.947722,-1.026596 -1.917593,-2.032355 -2.879208,-3.044864 0.04688,1.552695 0.0957,3.106098 0.147944,4.659476 -2.24619,0.01251 -4.492172,0.0026 -6.738144,0.0066 -1.629766,1.85192 -3.257894,3.705425 -4.865886,5.576596 -3.508118,0.07739 -7.017163,0.0034 -10.525605,0.04729 -0.807655,-0.02769 -1.613867,-0.07784 -2.41865,-0.15047 l 0,-11.892759 C 22.693218,57.56982 26.732074,54.054419 30.366538,50.188354 26.727006,46.016656 22.683229,42.167648 19.311062,37.782534 l 0,-12.109747 c 3.610632,-0.03575 7.220728,-0.10114 10.831247,-0.147911 3.784991,3.860488 7.634446,7.659049 11.358896,11.578134 0.05979,-3.787626 0.977321,-7.637002 3.227662,-10.740202 2.740036,-3.96301 7.244237,-6.564259 12.035881,-7.051746 z"
       id="path14"
       style="fill:none;stroke:#000000;stroke-width:0.05737787;stroke-linecap:butt;stroke-linejoin:miter;stroke-miterlimit:10" />
    <path
       inkscape:connector-curvature="0"
       d="m 56.764748,19.311065 2.882508,0 c 5.448779,0.782011 10.344092,4.236363 12.907763,9.101094 2.590532,5.504183 2.444916,12.296303 -0.908646,17.447906 -3.004074,4.906256 -8.686109,7.896479 -14.425665,7.717217 0.8608,0.892038 1.709166,1.797051 2.564888,2.695095 2.132356,2.238784 4.215133,4.52419 6.348286,6.762817 -0.0273,3.704216 -0.09991,7.407968 -0.125541,11.112551 -4.031537,0.06012 -8.063817,-0.06044 -12.094531,0.04373 -2.457365,-2.564914 -4.919844,-5.125477 -7.323199,-7.740927 -0.947722,-1.026596 -1.917593,-2.032355 -2.879208,-3.044864 0.04688,1.552695 0.0957,3.106098 0.147944,4.659476 -2.24619,0.01251 -4.492172,0.0026 -6.738144,0.0066 -1.629766,1.85192 -3.257894,3.705425 -4.865886,5.576596 -3.508118,0.07739 -7.017163,0.0034 -10.525605,0.04729 -0.807655,-0.02769 -1.613867,-0.07784 -2.41865,-0.15047 l 0,-11.892759 C 22.693218,57.56982 26.732074,54.054419 30.366538,50.188354 26.727006,46.016656 22.683229,42.167648 19.311062,37.782534 l 0,-12.109747 c 3.610632,-0.03575 7.220728,-0.10114 10.831247,-0.147911 3.784991,3.860488 7.634446,7.659049 11.358896,11.578134 0.05979,-3.787626 0.977321,-7.637002 3.227662,-10.740202 2.740036,-3.96301 7.244237,-6.564259 12.035881,-7.051746 z"
       id="path16"
       style="fill:#000000;fill-rule:nonzero;stroke:none" />
    <path
       inkscape:connector-curvature="0"
       d="m 48.087456,25.132797 c 3.621365,-3.653269 9.361596,-5.076878 14.225126,-3.308553 7.386028,2.412917 11.676061,11.281964 9.233991,18.607256 -1.70212,6.421944 -8.183098,11.34452 -14.901719,10.571919 -1.671799,0.228773 -3.151099,-1.203922 -4.79236,-0.687586 0.429878,0.735801 0.97824,1.390802 1.574941,1.997142 3.535827,3.736574 7.058451,7.485424 10.524877,11.286988 -0.07222,2.691207 -0.05622,5.384106 -0.141675,8.075454 -3.03723,-0.0074 -6.074319,-0.04193 -9.111156,-0.01091 -4.120164,-4.162893 -8.038942,-8.519631 -12.10529,-12.734624 -0.311237,0.0065 -0.933712,0.01944 -1.24495,0.02592 0.125864,2.220776 0.184156,4.444397 0.247325,6.668061 -1.865648,0.0024 -3.731182,-0.01407 -5.596401,0.01901 -1.501423,1.901317 -3.2395,3.599417 -4.732834,5.506467 -3.250199,0.125497 -6.504312,0.02886 -9.7562,0.05399 0.0028,-3.194802 0.01252,-6.389328 -0.0043,-9.58373 3.892356,-3.881097 7.701467,-7.847486 11.653647,-11.667217 -3.794421,-4.373601 -7.783494,-8.584645 -11.70539,-12.84766 -0.06123,-3.276612 -0.107564,-6.553384 -0.14158,-9.830294 2.617891,0.02211 5.23574,-0.0086 7.853614,-0.02688 4.333503,4.366737 8.621285,8.77844 12.948537,13.151437 0.547592,-0.548555 1.094973,-1.097189 1.641724,-1.646689 C 42.96618,33.87875 44.485,28.581304 48.087437,25.132782 z"
       id="path22"
       style="fill:none;stroke:#ffffff;stroke-width:0.05737787;stroke-linecap:butt;stroke-linejoin:miter;stroke-miterlimit:10" />
    <path
       inkscape:connector-curvature="0"
       d="m 48.087456,25.132797 c 3.621365,-3.653269 9.361596,-5.076878 14.225126,-3.308553 7.386028,2.412917 11.676061,11.281964 9.233991,18.607256 -1.70212,6.421944 -8.183098,11.34452 -14.901719,10.571919 -1.671799,0.228773 -3.151099,-1.203922 -4.79236,-0.687586 0.429878,0.735801 0.97824,1.390802 1.574941,1.997142 3.535827,3.736574 7.058451,7.485424 10.524877,11.286988 -0.07222,2.691207 -0.05622,5.384106 -0.141675,8.075454 -3.03723,-0.0074 -6.074319,-0.04193 -9.111156,-0.01091 -4.120164,-4.162893 -8.038942,-8.519631 -12.10529,-12.734624 -0.311237,0.0065 -0.933712,0.01944 -1.24495,0.02592 0.125864,2.220776 0.184156,4.444397 0.247325,6.668061 -1.865648,0.0024 -3.731182,-0.01407 -5.596401,0.01901 -1.501423,1.901317 -3.2395,3.599417 -4.732834,5.506467 -3.250199,0.125497 -6.504312,0.02886 -9.7562,0.05399 0.0028,-3.194802 0.01252,-6.389328 -0.0043,-9.58373 3.892356,-3.881097 7.701467,-7.847486 11.653647,-11.667217 -3.794421,-4.373601 -7.783494,-8.584645 -11.70539,-12.84766 -0.06123,-3.276612 -0.107564,-6.553384 -0.14158,-9.830294 2.617891,0.02211 5.23574,-0.0086 7.853614,-0.02688 4.333503,4.366737 8.621285,8.77844 12.948537,13.151437 0.547592,-0.548555 1.094973,-1.097189 1.641724,-1.646689 C 42.96618,33.87875 44.485,28.581304 48.087437,25.132782 z"
       id="path24"
       style="fill:#ffffff;fill-rule:nonzero;stroke:none" />
    <path
       inkscape:connector-curvature="0"
       d="m 54.903092,24.372963 c 4.452687,-1.396073 9.529126,0.937004 11.93179,4.82654 3.658768,5.461711 2.095751,13.891783 -3.685165,17.265272 -3.426405,2.25436 -8.03018,1.943255 -11.418167,-0.227494 -1.371096,1.803468 -3.20688,3.262457 -4.391173,5.190186 l 0.119668,0.336462 c 4.384817,4.349428 8.76944,8.70164 13.161795,13.044641 -0.102542,1.191974 0.266385,2.507717 -0.202105,3.622828 -1.366366,0.156385 -2.751977,0.133587 -4.122441,0.05517 -1.179164,-0.734999 -1.982722,-1.921999 -2.952576,-2.894654 -2.898294,-3.285299 -6.05082,-6.332194 -9.006144,-9.563551 -1.744932,0.01654 -3.486362,0.133585 -5.223221,0.293044 -0.05074,1.996843 -0.0059,3.994651 -0.04865,5.992099 -1.704045,0.184217 -3.472108,0.184516 -5.109693,0.724149 -1.664234,1.702319 -3.287573,3.445334 -4.924195,5.174838 -1.594062,0.04702 -3.188877,0.04414 -4.783071,0.01151 0.158267,-1.57037 -0.618062,-3.604319 0.878879,-4.718922 4.492655,-4.406975 8.627336,-9.169883 13.18223,-13.51081 -4.374914,-4.949289 -9.2349,-9.465021 -13.758302,-14.281992 -0.681669,-1.302236 -0.1771,-2.922555 -0.308444,-4.352116 1.37379,0.0028 2.747529,-0.0041 4.12146,-0.0013 4.272049,4.384781 8.604423,8.71191 12.775665,13.193944 0.415206,0.464873 0.878206,0.885759 1.400907,1.228683 1.433484,-1.830978 3.183992,-3.431974 4.438108,-5.390681 -0.382215,-2.202886 -1.133566,-4.449541 -0.414486,-6.682075 0.722703,-4.336566 4.008475,-8.272584 8.337328,-9.335706 z"
       id="path26"
       style="fill:none;stroke:#4c9138;stroke-width:0.05737787;stroke-linecap:butt;stroke-linejoin:miter;stroke-miterlimit:10" />
    <path
       inkscape:connector-curvature="0"
       d="m 54.903092,24.372963 c 4.452687,-1.396073 9.529126,0.937004 11.93179,4.82654 3.658768,5.461711 2.095751,13.891783 -3.685165,17.265272 -3.426405,2.25436 -8.03018,1.943255 -11.418167,-0.227494 -1.371096,1.803468 -3.20688,3.262457 -4.391173,5.190186 l 0.119668,0.336462 c 4.384817,4.349428 8.76944,8.70164 13.161795,13.044641 -0.102542,1.191974 0.266385,2.507717 -0.202105,3.622828 -1.366366,0.156385 -2.751977,0.133587 -4.122441,0.05517 -1.179164,-0.734999 -1.982722,-1.921999 -2.952576,-2.894654 -2.898294,-3.285299 -6.05082,-6.332194 -9.006144,-9.563551 -1.744932,0.01654 -3.486362,0.133585 -5.223221,0.293044 -0.05074,1.996843 -0.0059,3.994651 -0.04865,5.992099 -1.704045,0.184217 -3.472108,0.184516 -5.109693,0.724149 -1.664234,1.702319 -3.287573,3.445334 -4.924195,5.174838 -1.594062,0.04702 -3.188877,0.04414 -4.783071,0.01151 0.158267,-1.57037 -0.618062,-3.604319 0.878879,-4.718922 4.492655,-4.406975 8.627336,-9.169883 13.18223,-13.51081 -4.374914,-4.949289 -9.2349,-9.465021 -13.758302,-14.281992 -0.681669,-1.302236 -0.1771,-2.922555 -0.308444,-4.352116 1.37379,0.0028 2.747529,-0.0041 4.12146,-0.0013 4.272049,4.384781 8.604423,8.71191 12.775665,13.193944 0.415206,0.464873 0.878206,0.885759 1.400907,1.228683 1.433484,-1.830978 3.183992,-3.431974 4.438108,-5.390681 -0.382215,-2.202886 -1.133566,-4.449541 -0.414486,-6.682075 0.722703,-4.336566 4.008475,-8.272584 8.337328,-9.335706 z"
       id="path28"
       style="fill:#45b206;fill-opacity:1;fill-rule:nonzero;stroke:none" />
    <path
       inkscape:connector-curvature="0"
       d="m 60.450086,28.969277 c 2.716555,0.02405 6.368958,2.097668 5.830007,5.257444 0.679865,3.452522 -3.884021,6.157782 -6.774015,4.376403 -4.058169,-1.741369 -3.549512,-8.901101 0.944008,-9.633847 z"
       id="path30"
       style="fill:none;stroke:#000000;stroke-width:0.05737787;stroke-linecap:butt;stroke-linejoin:miter;stroke-miterlimit:10" />
    <path
       inkscape:connector-curvature="0"
       d="m 60.450086,28.969277 c 2.716555,0.02405 6.368958,2.097668 5.830007,5.257444 0.679865,3.452522 -3.884021,6.157782 -6.774015,4.376403 -4.058169,-1.741369 -3.549512,-8.901101 0.944008,-9.633847 z"
       id="path32"
       style="fill:#000000;fill-rule:nonzero;stroke:none" />
    <path
       inkscape:connector-curvature="0"
       d="m 59.500361,29.653818 c 2.706661,-1.337047 5.684583,1.870822 4.888441,4.544396 -0.461898,2.313054 -3.525541,3.99986 -5.49647,2.298425 -2.555415,-1.5279 -2.053017,-5.716592 0.608029,-6.842821 z"
       id="path38"
       style="fill:none;stroke:#ffffff;stroke-width:0.05737787;stroke-linecap:butt;stroke-linejoin:miter;stroke-miterlimit:10" />
    <path
       inkscape:connector-curvature="0"
       d="m 59.500361,29.653818 c 2.706661,-1.337047 5.684583,1.870822 4.888441,4.544396 -0.461898,2.313054 -3.525541,3.99986 -5.49647,2.298425 -2.555415,-1.5279 -2.053017,-5.716592 0.608029,-6.842821 z"
       id="path40"
       style="fill:#ffffff;fill-rule:nonzero;stroke:none" />
  </g>
</svg>
