<?xml version="1.0" encoding="UTF-8" standalone="no"?>
<!-- Created with Inkscape (http://www.inkscape.org/) -->

<svg
   xmlns:dc="http://purl.org/dc/elements/1.1/"
   xmlns:cc="http://creativecommons.org/ns#"
   xmlns:rdf="http://www.w3.org/1999/02/22-rdf-syntax-ns#"
   xmlns:svg="http://www.w3.org/2000/svg"
   xmlns="http://www.w3.org/2000/svg"
   xmlns:sodipodi="http://sodipodi.sourceforge.net/DTD/sodipodi-0.dtd"
   xmlns:inkscape="http://www.inkscape.org/namespaces/inkscape"
   id="svg2"
   version="1.1"
   inkscape:version="0.91 r13725"
   width="512"
   height="512"
   sodipodi:docname="kget.svg">
  <metadata
     id="metadata8">
    <rdf:RDF>
      <cc:Work
         rdf:about="">
        <dc:format>image/svg+xml</dc:format>
        <dc:type
           rdf:resource="http://purl.org/dc/dcmitype/StillImage" />
        <dc:title></dc:title>
      </cc:Work>
    </rdf:RDF>
  </metadata>
  <defs
     id="defs6" />
  <sodipodi:namedview
     pagecolor="#ffffff"
     bordercolor="#666666"
     borderopacity="1"
     objecttolerance="10"
     gridtolerance="10"
     guidetolerance="10"
     inkscape:pageopacity="0"
     inkscape:pageshadow="2"
     inkscape:window-width="1366"
     inkscape:window-height="691"
     id="namedview4"
     showgrid="true"
     inkscape:zoom="0.32593203"
     inkscape:cx="-262.59447"
     inkscape:cy="390.86148"
     inkscape:window-x="-4"
     inkscape:window-y="0"
     inkscape:window-maximized="1"
     inkscape:current-layer="svg2">
    <inkscape:grid
       type="xygrid"
       id="grid4134" />
  </sodipodi:namedview>
  <rect
     style="fill:#a47cb4;fill-opacity:1;fill-rule:evenodd;stroke:none"
     id="rect2998"
     width="455.59323"
     height="449.08475"
     x="28.542343"
     y="32.033897"
     ry="49.966103" />
  <path
     style="fill:#ffffff;fill-opacity:1;stroke:none"
     d="m 256.00001,455 c -110.246,0 -199,-88.754 -199,-199 0,-110.246 88.754,-199 199,-199 110.246,0 198.99998,88.754 198.99998,199 0,110.246 -88.75398,199 -198.99998,199 z m 0,-39.8 c 88.1968,0 159.2,-71.0032 159.2,-159.2 0,-88.1968 -71.0032,-159.2 -159.2,-159.2 -88.1968,0 -159.2,71.0032 -159.2,159.2 0,88.1968 71.0032,159.2 159.2,159.2 z m 0,-66.33333 L 163.13334,256 l 53.06667,0 0,-92.86667 79.6,0 0,92.86667 53.06667,0 -92.86667,92.86667 z"
     id="rect4149"
     inkscape:connector-curvature="0" />
</svg>
