<?xml version="1.0" encoding="UTF-8" standalone="no"?>
<!-- Created with Inkscape (http://www.inkscape.org/) -->

<svg
   xmlns:dc="http://purl.org/dc/elements/1.1/"
   xmlns:cc="http://creativecommons.org/ns#"
   xmlns:rdf="http://www.w3.org/1999/02/22-rdf-syntax-ns#"
   xmlns:svg="http://www.w3.org/2000/svg"
   xmlns="http://www.w3.org/2000/svg"
   xmlns:xlink="http://www.w3.org/1999/xlink"
   xmlns:sodipodi="http://sodipodi.sourceforge.net/DTD/sodipodi-0.dtd"
   xmlns:inkscape="http://www.inkscape.org/namespaces/inkscape"
   version="1.0"
   width="96"
   height="96"
   id="svg2408"
   inkscape:version="0.48.5 r10040"
   sodipodi:docname="kde-windows.svg">
  <sodipodi:namedview
     pagecolor="#ffffff"
     bordercolor="#666666"
     borderopacity="1"
     objecttolerance="10"
     gridtolerance="10"
     guidetolerance="10"
     inkscape:pageopacity="0"
     inkscape:pageshadow="2"
     inkscape:window-width="1680"
     inkscape:window-height="991"
     id="namedview50"
     showgrid="false"
     inkscape:zoom="7.0847868"
     inkscape:cx="-2.7243445"
     inkscape:cy="45.494543"
     inkscape:window-x="-2"
     inkscape:window-y="-3"
     inkscape:window-maximized="1"
     inkscape:current-layer="svg2408" />
  <defs
     id="defs2410">
    <linearGradient
       x1="45.447727"
       y1="92.539597"
       x2="45.447727"
       y2="7.0165396"
       id="ButtonShadow"
       gradientUnits="userSpaceOnUse"
       gradientTransform="scale(1.0058652,0.994169)">
      <stop
         id="stop3750"
         style="stop-color:#000000;stop-opacity:1"
         offset="0" />
      <stop
         id="stop3752"
         style="stop-color:#000000;stop-opacity:0.58823532"
         offset="1" />
    </linearGradient>
    <linearGradient
       id="linearGradient3737">
      <stop
         id="stop3739"
         style="stop-color:#ffffff;stop-opacity:1"
         offset="0" />
      <stop
         id="stop3741"
         style="stop-color:#ffffff;stop-opacity:0"
         offset="1" />
    </linearGradient>
    <linearGradient
       id="linearGradient3700">
      <stop
         id="stop3702"
         style="stop-color:#2295c5;stop-opacity:1"
         offset="0" />
      <stop
         id="stop3704"
         style="stop-color:#68d8f4;stop-opacity:1"
         offset="1" />
    </linearGradient>
    <filter
       color-interpolation-filters="sRGB"
       id="filter3174">
      <feGaussianBlur
         id="feGaussianBlur3176"
         stdDeviation="1.71" />
    </filter>
    <linearGradient
       x1="36.357143"
       y1="6"
       x2="36.357143"
       y2="63.893143"
       id="linearGradient3188"
       xlink:href="#linearGradient3737"
       gradientUnits="userSpaceOnUse" />
    <filter
       x="-0.192"
       y="-0.192"
       width="1.3839999"
       height="1.3839999"
       color-interpolation-filters="sRGB"
       id="filter3794">
      <feGaussianBlur
         id="feGaussianBlur3796"
         stdDeviation="5.28" />
    </filter>
    <linearGradient
       x1="48"
       y1="20.220806"
       x2="48"
       y2="138.66119"
       id="linearGradient3613"
       xlink:href="#linearGradient3737"
       gradientUnits="userSpaceOnUse" />
    <radialGradient
       cx="48"
       cy="90.171875"
       r="42"
       fx="48"
       fy="90.171875"
       id="radialGradient3619"
       xlink:href="#linearGradient3737"
       gradientUnits="userSpaceOnUse"
       gradientTransform="matrix(1.1573129,0,0,0.99590774,-7.5510206,0.19713193)" />
    <clipPath
       id="clipPath3613">
      <rect
         width="84"
         height="84"
         rx="6"
         ry="6"
         x="6"
         y="6"
         id="rect3615"
         style="fill:#ffffff;fill-opacity:1;fill-rule:nonzero;stroke:none" />
    </clipPath>
    <linearGradient
       x1="48"
       y1="90"
       x2="48"
       y2="5.9877172"
       id="linearGradient3617"
       xlink:href="#linearGradient3700"
       gradientUnits="userSpaceOnUse" />
    <linearGradient
       x1="45.447727"
       y1="92.539597"
       x2="45.447727"
       y2="7.0165396"
       id="ButtonShadow-0"
       gradientUnits="userSpaceOnUse"
       gradientTransform="matrix(1.0058652,0,0,0.994169,100,0)">
      <stop
         id="stop3750-8"
         style="stop-color:#000000;stop-opacity:1"
         offset="0" />
      <stop
         id="stop3752-5"
         style="stop-color:#000000;stop-opacity:0.58823532"
         offset="1" />
    </linearGradient>
    <linearGradient
       x1="32.251034"
       y1="6.1317081"
       x2="32.251034"
       y2="90.238609"
       id="linearGradient3780"
       xlink:href="#ButtonShadow-0"
       gradientUnits="userSpaceOnUse"
       gradientTransform="matrix(1.0238095,0,0,1.0119048,-1.1428571,-98.071429)" />
    <linearGradient
       x1="32.251034"
       y1="6.1317081"
       x2="32.251034"
       y2="90.238609"
       id="linearGradient3772"
       xlink:href="#ButtonShadow-0"
       gradientUnits="userSpaceOnUse"
       gradientTransform="matrix(1.0238095,0,0,1.0119048,-1.1428571,-98.071429)" />
    <linearGradient
       x1="32.251034"
       y1="6.1317081"
       x2="32.251034"
       y2="90.238609"
       id="linearGradient3725"
       xlink:href="#ButtonShadow-0"
       gradientUnits="userSpaceOnUse"
       gradientTransform="matrix(1.0238095,0,0,1.0119048,-1.1428571,-98.071429)" />
    <linearGradient
       x1="32.251034"
       y1="6.1317081"
       x2="32.251034"
       y2="90.238609"
       id="linearGradient3721"
       xlink:href="#ButtonShadow-0"
       gradientUnits="userSpaceOnUse"
       gradientTransform="translate(0,-97)" />
    <linearGradient
       x1="32.251034"
       y1="6.1317081"
       x2="32.251034"
       y2="90.238609"
       id="linearGradient3122"
       xlink:href="#ButtonShadow-0"
       gradientUnits="userSpaceOnUse"
       gradientTransform="matrix(1.0238095,0,0,1.0119048,-1.1428571,-98.071429)" />
  </defs>
  <metadata
     id="metadata2413">
    <rdf:RDF>
      <cc:Work
         rdf:about="">
        <dc:format>image/svg+xml</dc:format>
        <dc:type
           rdf:resource="http://purl.org/dc/dcmitype/StillImage" />
        <dc:title></dc:title>
      </cc:Work>
    </rdf:RDF>
  </metadata>
  <g
     id="layer2"
     style="display:none">
    <rect
       width="86"
       height="85"
       rx="6"
       ry="6"
       x="5"
       y="7"
       id="rect3745"
       style="opacity:0.9;fill:url(#ButtonShadow);fill-opacity:1;fill-rule:nonzero;stroke:none;filter:url(#filter3174)" />
  </g>
  <g
     id="layer1">
    <rect
       width="84"
       height="84"
       rx="6"
       ry="0"
       x="6"
       y="6"
       id="rect2419"
       style="fill:#abc837;fill-opacity:1;fill-rule:nonzero;stroke:none" />
  </g>
  <g
     id="layer5" />
  <g
     id="g3078"
     transform="translate(1.5e-6,-6.1783197)">
    <g
       id="g4189"
       transform="matrix(2.6349586,0,0,2.6349586,16.380497,15.063018)">
      <g
         style="opacity:0.45;fill:#ffffff"
         transform="translate(-0.2052365,1.25)"
         id="g4185" />
      <g
         id="g4175"
         transform="translate(-0.2052365,0.25)">
        <path
           inkscape:connector-curvature="0"
           id="path3391"
           d="m 7.96875,2.25 c -1.2387178,0 -2.2787162,1.0399984 -2.2787162,2.2787162 l 0,5.8412158 c 0,1.238718 1.0399984,2.278717 2.2787162,2.278717 l 0.1925676,0 2.7280404,0 0,2.72804 c -0.728904,0.34815 -1.297513,0.966132 -1.572635,1.733108 l -4.910473,0 0,2.599662 5.1672297,0 c 2.7709353,-0.04749 2.7628523,-0.0147 5.2635133,0 l 5.16723,0 0,-2.599662 -4.910473,0 c -0.275122,-0.766976 -0.843731,-1.384958 -1.572635,-1.733108 l 0,-2.72804 2.72804,0 0.192568,0 c 1.238718,0 2.278716,-1.039999 2.278716,-2.278717 l 0,-5.8412158 C 18.720439,3.2899984 17.680441,2.25 16.441723,2.25 z m 0.3209459,2.5996622 7.8310811,0 0,5.1993238 -7.8310811,0 z"
           style="fill:#ffffff;fill-opacity:1;stroke:none"
           sodipodi:nodetypes="ssssccccccccccccccsssssccccc" />
      </g>
    </g>
    <rect
       y="63.394924"
       x="27.449993"
       height="13.55016"
       width="3.5286877"
       id="rect3048"
       style="color:#000000;fill:#ffffff;fill-opacity:1;fill-rule:nonzero;stroke:none;stroke-width:0.84200001;marker:none;visibility:visible;display:inline;overflow:visible;enable-background:accumulate" />
    <rect
       style="color:#000000;fill:#ffffff;fill-opacity:1;fill-rule:nonzero;stroke:none;stroke-width:0.84200001;marker:none;visibility:visible;display:inline;overflow:visible;enable-background:accumulate"
       id="rect3050"
       width="3.5286877"
       height="13.55016"
       x="46.235657"
       y="63.394924" />
    <rect
       y="63.394924"
       x="65.021317"
       height="13.55016"
       width="3.5286877"
       id="rect3052"
       style="color:#000000;fill:#ffffff;fill-opacity:1;fill-rule:nonzero;stroke:none;stroke-width:0.84200001;marker:none;visibility:visible;display:inline;overflow:visible;enable-background:accumulate" />
    <path
       inkscape:connector-curvature="0"
       id="path3391-9"
       d="m 24.721897,75.679327 c -1.313557,0 -2.416388,1.102831 -2.416388,2.416387 l 0,6.194123 c 0,1.313556 1.102831,2.416388 2.416388,2.416388 l 0.204202,0 2.892859,0 2.790758,0 2.892859,0 0.204202,0 c 1.313557,0 2.416388,-1.102832 2.416388,-2.416388 l 0,-6.194123 c 0,-1.313556 -1.102831,-2.416387 -2.416388,-2.416387 z m 0.340336,2.756725 8.304208,0 0,5.513448 -8.304208,0 z"
       style="fill:#ffffff;fill-opacity:1;stroke:none"
       sodipodi:nodetypes="ssssccccsssssccccc" />
    <path
       sodipodi:nodetypes="ssssccccsssssccccc"
       style="fill:#ffffff;fill-opacity:1;stroke:none"
       d="m 43.507561,75.679327 c -1.313557,0 -2.416388,1.102831 -2.416388,2.416387 l 0,6.194123 c 0,1.313556 1.102831,2.416388 2.416388,2.416388 l 0.204202,0 2.892859,0 2.790758,0 2.892859,0 0.204202,0 c 1.313557,0 2.416388,-1.102832 2.416388,-2.416388 l 0,-6.194123 c 0,-1.313556 -1.102831,-2.416387 -2.416388,-2.416387 z m 0.340336,2.756725 8.304208,0 0,5.513448 -8.304208,0 z"
       id="path3074"
       inkscape:connector-curvature="0" />
    <path
       inkscape:connector-curvature="0"
       id="path3076"
       d="m 62.29322,75.679327 c -1.313557,0 -2.416388,1.102831 -2.416388,2.416387 l 0,6.194123 c 0,1.313556 1.102831,2.416388 2.416388,2.416388 l 0.204202,0 2.892859,0 2.790758,0 2.892859,0 0.204202,0 c 1.313557,0 2.416388,-1.102832 2.416388,-2.416388 l 0,-6.194123 c 0,-1.313556 -1.102831,-2.416387 -2.416388,-2.416387 z m 0.340336,2.756725 8.304208,0 0,5.513448 -8.304208,0 z"
       style="fill:#ffffff;fill-opacity:1;stroke:none"
       sodipodi:nodetypes="ssssccccsssssccccc" />
  </g>
</svg>
