<?xml version="1.0" encoding="UTF-8" standalone="no"?>
<!-- Created with Inkscape (http://www.inkscape.org/) -->

<svg
   xmlns:dc="http://purl.org/dc/elements/1.1/"
   xmlns:cc="http://creativecommons.org/ns#"
   xmlns:rdf="http://www.w3.org/1999/02/22-rdf-syntax-ns#"
   xmlns:svg="http://www.w3.org/2000/svg"
   xmlns="http://www.w3.org/2000/svg"
   xmlns:xlink="http://www.w3.org/1999/xlink"
   xmlns:sodipodi="http://sodipodi.sourceforge.net/DTD/sodipodi-0.dtd"
   xmlns:inkscape="http://www.inkscape.org/namespaces/inkscape"
   version="1.0"
   width="96"
   height="96"
   id="svg2408"
   inkscape:version="0.48.4 r9939"
   sodipodi:docname="kjots.svg">
  <sodipodi:namedview
     pagecolor="#ffffff"
     bordercolor="#666666"
     borderopacity="1"
     objecttolerance="10"
     gridtolerance="10"
     guidetolerance="10"
     inkscape:pageopacity="0"
     inkscape:pageshadow="2"
     inkscape:window-width="1680"
     inkscape:window-height="991"
     id="namedview65"
     showgrid="false"
     inkscape:zoom="4.4209725"
     inkscape:cx="83.823663"
     inkscape:cy="26.361889"
     inkscape:window-x="0"
     inkscape:window-y="-3"
     inkscape:window-maximized="1"
     inkscape:current-layer="svg2408" />
  <defs
     id="defs2410">
    <linearGradient
       id="linearGradient4088">
      <stop
         id="stop4090"
         style="stop-color:#d5b742;stop-opacity:1"
         offset="0" />
      <stop
         id="stop4094"
         style="stop-color:#f5e6aa;stop-opacity:1"
         offset="0.34920636" />
      <stop
         id="stop4096"
         style="stop-color:#e0bf55;stop-opacity:1"
         offset="0.5714286" />
      <stop
         id="stop4092"
         style="stop-color:#8a6e24;stop-opacity:1"
         offset="1" />
    </linearGradient>
    <linearGradient
       x1="45.447727"
       y1="92.539597"
       x2="45.447727"
       y2="7.0165396"
       id="ButtonShadow"
       gradientUnits="userSpaceOnUse"
       gradientTransform="scale(1.0058652,0.994169)">
      <stop
         id="stop3750"
         style="stop-color:#000000;stop-opacity:1"
         offset="0" />
      <stop
         id="stop3752"
         style="stop-color:#000000;stop-opacity:0.58823532"
         offset="1" />
    </linearGradient>
    <linearGradient
       id="linearGradient3737">
      <stop
         id="stop3739"
         style="stop-color:#ffffff;stop-opacity:1"
         offset="0" />
      <stop
         id="stop3741"
         style="stop-color:#ffffff;stop-opacity:0"
         offset="1" />
    </linearGradient>
    <linearGradient
       id="linearGradient3700">
      <stop
         id="stop3702"
         style="stop-color:#4c6d37;stop-opacity:1"
         offset="0" />
      <stop
         id="stop3704"
         style="stop-color:#75ac54;stop-opacity:1"
         offset="1" />
    </linearGradient>
    <filter
       color-interpolation-filters="sRGB"
       id="filter3174">
      <feGaussianBlur
         id="feGaussianBlur3176"
         stdDeviation="1.71" />
    </filter>
    <linearGradient
       x1="36.357143"
       y1="6"
       x2="36.357143"
       y2="63.893143"
       id="linearGradient3188"
       xlink:href="#linearGradient3737"
       gradientUnits="userSpaceOnUse" />
    <filter
       x="-0.192"
       y="-0.192"
       width="1.3839999"
       height="1.3839999"
       color-interpolation-filters="sRGB"
       id="filter3794">
      <feGaussianBlur
         id="feGaussianBlur3796"
         stdDeviation="5.28" />
    </filter>
    <linearGradient
       x1="48"
       y1="20.220806"
       x2="48"
       y2="138.66119"
       id="linearGradient3613"
       xlink:href="#linearGradient3737"
       gradientUnits="userSpaceOnUse" />
    <radialGradient
       cx="48"
       cy="90.171875"
       r="42"
       fx="48"
       fy="90.171875"
       id="radialGradient3619"
       xlink:href="#linearGradient3737"
       gradientUnits="userSpaceOnUse"
       gradientTransform="matrix(1.1573129,0,0,0.99590774,-7.5510206,0.19713193)" />
    <clipPath
       id="clipPath3613">
      <rect
         width="84"
         height="84"
         rx="6"
         ry="6"
         x="6"
         y="6"
         id="rect3615"
         style="fill:#ffffff;fill-opacity:1;fill-rule:nonzero;stroke:none" />
    </clipPath>
    <linearGradient
       x1="48"
       y1="90"
       x2="48"
       y2="5.9877172"
       id="linearGradient3617"
       xlink:href="#linearGradient3700"
       gradientUnits="userSpaceOnUse" />
    <linearGradient
       x1="45.447727"
       y1="92.539597"
       x2="45.447727"
       y2="7.0165396"
       id="ButtonShadow-0"
       gradientUnits="userSpaceOnUse"
       gradientTransform="matrix(1.0058652,0,0,0.994169,100,0)">
      <stop
         id="stop3750-8"
         style="stop-color:#000000;stop-opacity:1"
         offset="0" />
      <stop
         id="stop3752-5"
         style="stop-color:#000000;stop-opacity:0.58823532"
         offset="1" />
    </linearGradient>
    <linearGradient
       x1="32.251034"
       y1="6.1317081"
       x2="32.251034"
       y2="90.238609"
       id="linearGradient3780"
       xlink:href="#ButtonShadow-0"
       gradientUnits="userSpaceOnUse"
       gradientTransform="matrix(1.0238095,0,0,1.0119048,-1.1428571,-98.071429)" />
    <linearGradient
       x1="32.251034"
       y1="6.1317081"
       x2="32.251034"
       y2="90.238609"
       id="linearGradient3772"
       xlink:href="#ButtonShadow-0"
       gradientUnits="userSpaceOnUse"
       gradientTransform="matrix(1.0238095,0,0,1.0119048,-1.1428571,-98.071429)" />
    <linearGradient
       x1="32.251034"
       y1="6.1317081"
       x2="32.251034"
       y2="90.238609"
       id="linearGradient3725"
       xlink:href="#ButtonShadow-0"
       gradientUnits="userSpaceOnUse"
       gradientTransform="matrix(1.0238095,0,0,1.0119048,-1.1428571,-98.071429)" />
    <linearGradient
       x1="32.251034"
       y1="6.1317081"
       x2="32.251034"
       y2="90.238609"
       id="linearGradient3721"
       xlink:href="#ButtonShadow-0"
       gradientUnits="userSpaceOnUse"
       gradientTransform="translate(0,-97)" />
    <linearGradient
       x1="32.251034"
       y1="6.1317081"
       x2="32.251034"
       y2="90.238609"
       id="linearGradient3026"
       xlink:href="#ButtonShadow-0"
       gradientUnits="userSpaceOnUse"
       gradientTransform="matrix(1.0238095,0,0,1.0119048,-1.1428571,-98.071429)" />
    <linearGradient
       id="linearGradient3737-4">
      <stop
         id="stop3739-4"
         style="stop-color:#fffec0;stop-opacity:1"
         offset="0" />
      <stop
         id="stop3741-3"
         style="stop-color:#ffffff;stop-opacity:0"
         offset="1" />
    </linearGradient>
    <linearGradient
       x1="48"
       y1="6"
       x2="48"
       y2="109.10714"
       id="linearGradient3146"
       xlink:href="#linearGradient3737-4"
       gradientUnits="userSpaceOnUse" />
    <linearGradient
       x1="37.875"
       y1="-62"
       x2="37.875"
       y2="8.8750048"
       id="linearGradient4053"
       xlink:href="#linearGradient4088"
       gradientUnits="userSpaceOnUse"
       gradientTransform="matrix(0.88888883,0,0,0.88888883,5.3333362,71.111107)" />
    <clipPath
       id="mask">
      <path
         inkscape:connector-curvature="0"
         d="m 47.5,-87.5 v 425 h -95 v -425 l -552,-552 v 1250 h 1199 v -1250 z"
         id="path6" />
    </clipPath>
    <linearGradient
       inkscape:collect="always"
       xlink:href="#linearGradient3254-1"
       id="linearGradient3147"
       gradientUnits="userSpaceOnUse"
       gradientTransform="matrix(0.53065619,-0.19518968,-0.19518968,-0.53065619,-33.740476,113.48878)"
       x1="143"
       y1="2.4000001e-06"
       x2="143"
       y2="120.01752" />
    <linearGradient
       id="linearGradient3254-1">
      <stop
         offset="0"
         style="stop-color:#000000;stop-opacity:1"
         id="stop3256-4" />
      <stop
         offset="0.06588447"
         style="stop-color:#000000;stop-opacity:1"
         id="stop3266-1" />
      <stop
         offset="0.07"
         style="stop-color:#ad5f1b;stop-opacity:1"
         id="stop3264-9" />
      <stop
         offset="0.1913653"
         style="stop-color:#ad601a;stop-opacity:1"
         id="stop3268-9" />
      <stop
         offset="0.20983393"
         style="stop-color:#000000;stop-opacity:1"
         id="stop3262-9" />
      <stop
         offset="1"
         style="stop-color:#000000;stop-opacity:1"
         id="stop3258-1" />
    </linearGradient>
    <linearGradient
       inkscape:collect="always"
       xlink:href="#linearGradient3461-5"
       id="linearGradient3149"
       gradientUnits="userSpaceOnUse"
       gradientTransform="matrix(0.56541578,0,0,0.56541578,-70.844204,-94.864234)"
       x1="136"
       y1="106"
       x2="150"
       y2="106" />
    <linearGradient
       id="linearGradient3461-5">
      <stop
         offset="0"
         style="stop-color:#444542;stop-opacity:1"
         id="stop3463-6" />
      <stop
         offset="1"
         style="stop-color:#71746e;stop-opacity:1"
         id="stop3465-6" />
    </linearGradient>
    <linearGradient
       y2="106"
       x2="150"
       y1="106"
       x1="136"
       gradientTransform="matrix(0.56541578,0,0,0.56541578,-70.844204,-94.864234)"
       gradientUnits="userSpaceOnUse"
       id="linearGradient3144"
       xlink:href="#linearGradient3461-5"
       inkscape:collect="always" />
    <linearGradient
       x1="36.357143"
       y1="6"
       x2="36.357143"
       y2="63.893143"
       id="linearGradient3188-4"
       xlink:href="#linearGradient3737-3"
       gradientUnits="userSpaceOnUse" />
    <linearGradient
       id="linearGradient3737-3">
      <stop
         id="stop3739-49"
         style="stop-color:#ffffff;stop-opacity:1"
         offset="0" />
      <stop
         id="stop3741-2"
         style="stop-color:#ffffff;stop-opacity:0"
         offset="1" />
    </linearGradient>
    <radialGradient
       cx="48"
       cy="90.171875"
       r="42"
       fx="48"
       fy="90.171875"
       id="radialGradient2855"
       xlink:href="#linearGradient3737-6"
       gradientUnits="userSpaceOnUse"
       gradientTransform="matrix(1.1573129,0,0,0.99590774,-7.551021,0.1971319)" />
    <linearGradient
       id="linearGradient3737-6">
      <stop
         id="stop3739-6"
         style="stop-color:#ffffff;stop-opacity:1"
         offset="0" />
      <stop
         id="stop3741-4"
         style="stop-color:#ffffff;stop-opacity:0"
         offset="1" />
    </linearGradient>
    <radialGradient
       r="42"
       fy="90.171875"
       fx="48"
       cy="90.171875"
       cx="48"
       gradientTransform="matrix(1.1573129,0,0,0.99590774,-7.551021,0.1971319)"
       gradientUnits="userSpaceOnUse"
       id="radialGradient3140"
       xlink:href="#linearGradient3737-6"
       inkscape:collect="always" />
  </defs>
  <metadata
     id="metadata2413">
    <rdf:RDF>
      <cc:Work
         rdf:about="">
        <dc:format>image/svg+xml</dc:format>
        <dc:type
           rdf:resource="http://purl.org/dc/dcmitype/StillImage" />
        <dc:title></dc:title>
      </cc:Work>
    </rdf:RDF>
  </metadata>
  <g
     id="layer2"
     style="display:none">
    <rect
       width="86"
       height="85"
       rx="6"
       ry="6"
       x="5"
       y="7"
       id="rect3745"
       style="opacity:0.9;fill:url(#ButtonShadow);fill-opacity:1;fill-rule:nonzero;stroke:none;filter:url(#filter3174)" />
  </g>
  <g
     id="layer5" />
  <rect
     style="fill:none;fill-opacity:1;fill-rule:evenodd;stroke:none"
     id="rect4086"
     width="23.43848"
     height="11.133279"
     x="16.113956"
     y="13.965316"
     rx="6" />
  <g
     id="g3141"
     transform="matrix(0.7201725,1.1662313,-1.1662313,0.7201725,92.044359,-25.792895)">
    <rect
       style="fill:#ea6e69;fill-opacity:1;stroke:#df453f;stroke-width:0.54717648;stroke-linecap:butt;stroke-linejoin:round;stroke-miterlimit:4;stroke-opacity:1;stroke-dasharray:none;display:inline"
       id="rect3483"
       y="-34.085472"
       x="6.5688834"
       ry="1.6962473"
       rx="1.6962473"
       height="9.0466528"
       width="6.8506436"
       transform="matrix(0.93852384,-0.34521442,-0.34521442,-0.93852384,0,0)" />
    <path
       style="fill:#333333;fill-opacity:1;stroke:url(#linearGradient3147);stroke-width:0.54717648;stroke-linecap:butt;stroke-linejoin:round;stroke-miterlimit:4;stroke-opacity:1;stroke-dasharray:none;display:inline"
       id="rect2480"
       inkscape:connector-curvature="0"
       d="M 33.911947,73.844311 42.045764,85.311331 40.810477,71.306851 26.756821,33.099605 19.85829,35.63707 33.911947,73.844311 z" />
    <path
       style="fill:#e4a267;fill-opacity:1;fill-rule:evenodd;stroke:none;display:inline"
       id="path3274"
       inkscape:connector-curvature="0"
       d="m 39.749986,81.583081 -4.714338,-6.64596 c 0,0 -0.570975,-0.78612 -0.879515,-1.24788 -0.226839,-0.30351 0.724975,-1.23739 1.915554,0.26434 -0.236122,-2.6325 2.287827,-2.91272 3.175577,-1.17472 -0.150361,-0.96975 0.354947,-1.90777 1.288868,-1.39097 0.05279,0.52805 0.06548,0.89281 0.06548,0.89281 l 0.778276,8.70285 -1.629906,0.59953 z" />
    <rect
       style="fill:#b4b4b4;fill-opacity:1;stroke:url(#linearGradient3144);stroke-width:0.54717648;stroke-linecap:butt;stroke-linejoin:round;stroke-miterlimit:4;stroke-opacity:1;stroke-dasharray:none;display:inline"
       id="rect3333"
       y="-40.301605"
       x="6.3350492"
       height="10.7429"
       width="7.3504052"
       transform="matrix(0.93852384,-0.34521442,-0.34521442,-0.93852384,0,0)" />
  </g>
  <g
     transform="matrix(-0.00697948,-0.99997564,0.99997564,-0.00697948,0.51562817,96.380596)"
     id="layer1">
    <path
       inkscape:connector-curvature="0"
       d="M 12,6 C 8.676,6 6,8.676 6,12 l 0,72 c 0,3.324 2.676,6 6,6 l 72,0 c 3.324,0 6,-2.676 6,-6 L 90,12 C 90,8.676 87.324,6 84,6 l -4,0 0,3.5 c 1.470291,0.740605 2.5,2.242377 2.5,4 0,2.484 -2.016,4.5 -4.5,4.5 -2.484,0 -4.5,-2.016 -4.5,-4.5 0,-1.757623 1.029709,-3.259395 2.5,-4 L 76,6 68,6 68,9.5 c 1.470291,0.740605 2.5,2.242377 2.5,4 0,2.484 -2.016,4.5 -4.5,4.5 -2.484,0 -4.5,-2.016 -4.5,-4.5 0,-1.757623 1.029709,-3.259395 2.5,-4 L 64,6 56,6 56,9.5 c 1.470291,0.740605 2.5,2.242377 2.5,4 0,2.484 -2.016,4.5 -4.5,4.5 -2.484,0 -4.5,-2.016 -4.5,-4.5 0,-1.757623 1.029709,-3.259395 2.5,-4 L 52,6 44,6 44,9.5 c 1.470291,0.740605 2.5,2.242377 2.5,4 0,2.484 -2.016,4.5 -4.5,4.5 -2.484,0 -4.5,-2.016 -4.5,-4.5 0,-1.757623 1.029709,-3.259395 2.5,-4 L 40,6 32,6 32,9.5 c 1.470291,0.740605 2.5,2.242377 2.5,4 0,2.484 -2.016,4.5 -4.5,4.5 -2.484,0 -4.5,-2.016 -4.5,-4.5 0,-1.757623 1.029709,-3.259395 2.5,-4 L 28,6 20,6 20,9.5 c 1.470291,0.740605 2.5,2.242377 2.5,4 0,2.484 -2.016,4.5 -4.5,4.5 -2.484,0 -4.5,-2.016 -4.5,-4.5 0,-1.757623 1.029709,-3.259395 2.5,-4 L 16,6 12,6 z"
       id="rect2419"
       style="fill:#e6e6e6;fill-opacity:1;fill-rule:nonzero;stroke:none" />
    <path
       inkscape:connector-curvature="0"
       d="M 12,6 C 8.676,6 6,8.676 6,12 l 0,2 0,68 0,2 c 0,0.334721 0.04135,0.6507 0.09375,0.96875 0.0487,0.295596 0.09704,0.596915 0.1875,0.875 0.00988,0.03038 0.020892,0.0636 0.03125,0.09375 0.098865,0.287771 0.2348802,0.547452 0.375,0.8125 0.1445918,0.273507 0.3156161,0.535615 0.5,0.78125 0.1843839,0.245635 0.3737765,0.473472 0.59375,0.6875 0.439947,0.428056 0.94291,0.814526 1.5,1.09375 0.278545,0.139612 0.5734731,0.246947 0.875,0.34375 -0.2562018,-0.100222 -0.4867109,-0.236272 -0.71875,-0.375 -0.00741,-0.0044 -0.023866,0.0045 -0.03125,0 -0.031933,-0.0193 -0.062293,-0.04251 -0.09375,-0.0625 -0.120395,-0.0767 -0.2310226,-0.163513 -0.34375,-0.25 -0.1061728,-0.0808 -0.2132809,-0.161112 -0.3125,-0.25 C 8.4783201,88.557317 8.3087904,88.373362 8.15625,88.1875 8.0486711,88.057245 7.9378561,87.922215 7.84375,87.78125 7.818661,87.74287 7.805304,87.69538 7.78125,87.65625 7.716487,87.553218 7.6510225,87.451733 7.59375,87.34375 7.4927417,87.149044 7.3880752,86.928049 7.3125,86.71875 7.30454,86.69694 7.288911,86.6782 7.28125,86.65625 7.2494249,86.5643 7.2454455,86.469419 7.21875,86.375 7.1884177,86.268382 7.1483606,86.171969 7.125,86.0625 7.0521214,85.720988 7,85.364295 7,85 L 7,83 7,15 7,13 C 7,10.218152 9.2181517,8 12,8 l 2,0 2,0 0,-2 -4,0 z m 8,0 0,2 8,0 0,-2 -8,0 z m 12,0 0,2 8,0 0,-2 -8,0 z m 12,0 0,2 8,0 0,-2 -8,0 z m 12,0 0,2 8,0 0,-2 -8,0 z m 12,0 0,2 8,0 0,-2 -8,0 z m 12,0 0,2 2,0 2,0 c 2.781848,0 5,2.218152 5,5 l 0,2 0,68 0,2 c 0,0.364295 -0.05212,0.720988 -0.125,1.0625 -0.04415,0.206893 -0.08838,0.397658 -0.15625,0.59375 -0.0077,0.02195 -0.0233,0.04069 -0.03125,0.0625 -0.06274,0.173739 -0.138383,0.367449 -0.21875,0.53125 -0.04158,0.0828 -0.07904,0.169954 -0.125,0.25 -0.0546,0.09721 -0.126774,0.18835 -0.1875,0.28125 -0.09411,0.140965 -0.204921,0.275995 -0.3125,0.40625 -0.143174,0.17445 -0.303141,0.346998 -0.46875,0.5 -0.01117,0.0102 -0.01998,0.02115 -0.03125,0.03125 -0.138386,0.125556 -0.285091,0.234436 -0.4375,0.34375 -0.102571,0.07315 -0.204318,0.153364 -0.3125,0.21875 -0.0074,0.0045 -0.02384,-0.0044 -0.03125,0 -0.232039,0.138728 -0.462548,0.274778 -0.71875,0.375 0.301527,-0.0968 0.596455,-0.204138 0.875,-0.34375 0.55709,-0.279224 1.060053,-0.665694 1.5,-1.09375 0.219973,-0.214028 0.409366,-0.441865 0.59375,-0.6875 0.184384,-0.245635 0.355408,-0.507743 0.5,-0.78125 0.14012,-0.265048 0.276135,-0.524729 0.375,-0.8125 0.01041,-0.03078 0.02133,-0.06274 0.03125,-0.09375 0.09046,-0.278085 0.1388,-0.579404 0.1875,-0.875 C 89.95865,84.6507 90,84.334721 90,84 l 0,-2 0,-68 0,-2 C 90,8.676 87.324,6 84,6 l -4,0 z"
       id="rect3728"
       style="opacity:0.5;fill:url(#linearGradient3188-4);fill-opacity:1;fill-rule:nonzero;stroke:none" />
    <path
       inkscape:connector-curvature="0"
       d="M 12,90 C 8.676,90 6,87.324 6,84 L 6,82 6,14 6,12 c 0,-0.334721 0.04135,-0.6507 0.09375,-0.96875 0.0487,-0.295596 0.09704,-0.596915 0.1875,-0.875 C 6.29113,10.12587 6.302142,10.09265 6.3125,10.0625 6.411365,9.774729 6.5473802,9.515048 6.6875,9.25 6.8320918,8.976493 7.0031161,8.714385 7.1875,8.46875 7.3718839,8.223115 7.5612765,7.995278 7.78125,7.78125 8.221197,7.353194 8.72416,6.966724 9.28125,6.6875 9.559795,6.547888 9.8547231,6.440553 10.15625,6.34375 9.9000482,6.443972 9.6695391,6.580022 9.4375,6.71875 c -0.00741,0.0044 -0.023866,-0.0045 -0.03125,0 -0.031933,0.0193 -0.062293,0.04251 -0.09375,0.0625 -0.120395,0.0767 -0.2310226,0.163513 -0.34375,0.25 -0.1061728,0.0808 -0.2132809,0.161112 -0.3125,0.25 C 8.4783201,7.442683 8.3087904,7.626638 8.15625,7.8125 8.0486711,7.942755 7.9378561,8.077785 7.84375,8.21875 7.818661,8.25713 7.805304,8.30462 7.78125,8.34375 7.716487,8.446782 7.6510225,8.548267 7.59375,8.65625 7.4927417,8.850956 7.3880752,9.071951 7.3125,9.28125 7.30454,9.30306 7.288911,9.3218 7.28125,9.34375 7.2494249,9.4357 7.2454455,9.530581 7.21875,9.625 7.1884177,9.731618 7.1483606,9.828031 7.125,9.9375 7.0521214,10.279012 7,10.635705 7,11 l 0,2 0,68 0,2 c 0,2.781848 2.2181517,5 5,5 l 2,0 68,0 2,0 c 2.781848,0 5,-2.218152 5,-5 l 0,-2 0,-68 0,-2 C 89,10.635705 88.94788,10.279012 88.875,9.9375 88.83085,9.730607 88.78662,9.539842 88.71875,9.34375 88.71105,9.3218 88.69545,9.30306 88.6875,9.28125 88.62476,9.107511 88.549117,8.913801 88.46875,8.75 88.42717,8.6672 88.38971,8.580046 88.34375,8.5 88.28915,8.40279 88.216976,8.31165 88.15625,8.21875 88.06214,8.077785 87.951329,7.942755 87.84375,7.8125 87.700576,7.63805 87.540609,7.465502 87.375,7.3125 87.36383,7.3023 87.35502,7.29135 87.34375,7.28125 87.205364,7.155694 87.058659,7.046814 86.90625,6.9375 86.803679,6.86435 86.701932,6.784136 86.59375,6.71875 c -0.0074,-0.0045 -0.02384,0.0044 -0.03125,0 -0.232039,-0.138728 -0.462548,-0.274778 -0.71875,-0.375 0.301527,0.0968 0.596455,0.204138 0.875,0.34375 0.55709,0.279224 1.060053,0.665694 1.5,1.09375 0.219973,0.214028 0.409366,0.441865 0.59375,0.6875 0.184384,0.245635 0.355408,0.507743 0.5,0.78125 0.14012,0.265048 0.276135,0.524729 0.375,0.8125 0.01041,0.03078 0.02133,0.06274 0.03125,0.09375 0.09046,0.278085 0.1388,0.579404 0.1875,0.875 C 89.95865,11.3493 90,11.665279 90,12 l 0,2 0,68 0,2 c 0,3.324 -2.676,6 -6,6 l -72,0 z"
       id="path3615"
       style="opacity:0.6;fill:url(#radialGradient3140);fill-opacity:1;fill-rule:nonzero;stroke:none" />
  </g>
  <g
     transform="matrix(2.5264492,0,0,2.8913535,-7.2675837,-28.801037)"
     id="g23"
     style="fill:#ffffff;fill-opacity:1">
    <text
       sodipodi:linespacing="125%"
       style="font-size:10.50872612000000039px;font-weight:bold;line-height:125%;letter-spacing:0px;word-spacing:0px;fill:#1a1a1a;fill-opacity:1;font-family:TheMixPlain"
       line-height="125%"
       font-weight="bold"
       font-size="12px"
       y="20.141726"
       x="13.651586"
       xml:space="preserve"
       id="text25"
       transform="scale(0.87572745,1.1419078)"><tspan
         y="20.141726"
         x="13.651586"
         id="tspan27"
         style="fill:#1a1a1a;fill-opacity:1;font-size:5.17990926999999957px">Title</tspan></text>
    <path
       style="fill:#ffffff;fill-opacity:1;stroke:#171717;stroke-width:0.36999354000000001px;stroke-opacity:1"
       inkscape:connector-curvature="0"
       d="m 12,26.5 h 4"
       id="path29" />
    <path
       style="fill:#ffffff;fill-opacity:1;stroke:#171717;stroke-width:0.36999354000000001px;stroke-opacity:1"
       inkscape:connector-curvature="0"
       d="m 17,26.5 h 1"
       id="path31" />
    <path
       style="fill:#ffffff;fill-opacity:1;stroke:#171717;stroke-width:0.36999354000000001px;stroke-opacity:1"
       inkscape:connector-curvature="0"
       d="m 19,26.5 h 5"
       id="path33" />
    <path
       style="fill:#ffffff;fill-opacity:1;stroke:#171717;stroke-width:0.36999354000000001px;stroke-opacity:1"
       inkscape:connector-curvature="0"
       d="m 25,26.5 h 2"
       id="path35" />
    <path
       style="fill:#ffffff;fill-opacity:1;stroke:#171717;stroke-width:0.36999351000000003px;stroke-opacity:1"
       inkscape:connector-curvature="0"
       d="m 28.34629,26.5 h 1.086573"
       id="path37" />
    <path
       style="fill:#ffffff;fill-opacity:1;stroke:#171717;stroke-width:0.36999354000000001px;stroke-opacity:1"
       inkscape:connector-curvature="0"
       d="M 30.581768,26.5 H 32.72721"
       id="path39" />
    <path
       style="fill:#ffffff;fill-opacity:1;stroke:#171717;stroke-width:0.36999354000000001px;stroke-opacity:1"
       inkscape:connector-curvature="0"
       d="m 12,28.5 h 1"
       id="path41" />
    <path
       style="fill:#ffffff;fill-opacity:1;stroke:#171717;stroke-width:0.36999354000000001px;stroke-opacity:1"
       inkscape:connector-curvature="0"
       d="m 14,28.5 h 4"
       id="path43" />
    <path
       style="fill:#ffffff;fill-opacity:1;stroke:#171717;stroke-width:0.36999354000000001px;stroke-opacity:1"
       inkscape:connector-curvature="0"
       d="m 19,28.5 h 3"
       id="path45" />
    <path
       style="fill:#ffffff;fill-opacity:1;stroke:#171717;stroke-width:0.36999354000000001px;stroke-opacity:1"
       inkscape:connector-curvature="0"
       d="m 23,28.5 h 2"
       id="path47" />
    <path
       style="fill:#ffffff;fill-opacity:1;stroke:#171717;stroke-width:0.36999351000000003px;stroke-opacity:1"
       inkscape:connector-curvature="0"
       d="m 26.173145,28.5 h 3.259718"
       id="path49" />
    <path
       style="fill:#ffffff;fill-opacity:1;stroke:#171717;stroke-width:0.36999354000000001px;stroke-opacity:1"
       inkscape:connector-curvature="0"
       d="M 30.581768,28.5 H 32.72721"
       id="path51" />
    <path
       style="fill:#ffffff;fill-opacity:1;stroke:#171717;stroke-width:0.36999354000000001px;stroke-opacity:1"
       inkscape:connector-curvature="0"
       d="m 12,30.5 h 3"
       id="path53" />
    <path
       style="fill:#ffffff;fill-opacity:1;stroke:#171717;stroke-width:0.36999354000000001px;stroke-opacity:1"
       inkscape:connector-curvature="0"
       d="m 16,30.5 h 2"
       id="path55" />
    <path
       style="fill:#ffffff;fill-opacity:1;stroke:#171717;stroke-width:0.36999354000000001px;stroke-opacity:1"
       inkscape:connector-curvature="0"
       d="m 19,30.5 h 7"
       id="path57" />
    <path
       style="fill:#ffffff;fill-opacity:1;stroke:#171717;stroke-width:0.36999351000000003px;stroke-opacity:1"
       inkscape:connector-curvature="0"
       d="M 27.259717,30.5 H 28.34629"
       id="path59" />
    <path
       style="fill:#ffffff;fill-opacity:1;stroke:#171717;stroke-width:0.36999354000000001px;stroke-opacity:1"
       inkscape:connector-curvature="0"
       d="M 29.509047,30.5 H 32.72721"
       id="path61" />
    <path
       style="fill:#ffffff;fill-opacity:1;stroke:#171717;stroke-width:0.36999354000000001px;stroke-opacity:1"
       inkscape:connector-curvature="0"
       d="m 12,32.5 h 4"
       id="path63" />
    <path
       style="fill:#ffffff;fill-opacity:1;stroke:#171717;stroke-width:0.36999354000000001px;stroke-opacity:1"
       inkscape:connector-curvature="0"
       d="m 17,32.5 h 2"
       id="path65" />
    <path
       style="fill:#ffffff;fill-opacity:1;stroke:#171717;stroke-width:0.36999354000000001px;stroke-opacity:1"
       inkscape:connector-curvature="0"
       d="m 20,32.5 h 1"
       id="path67" />
    <path
       style="fill:#ffffff;fill-opacity:1;stroke:#171717;stroke-width:0.36999354000000001px;stroke-opacity:1"
       inkscape:connector-curvature="0"
       d="m 22,32.5 h 1"
       id="path69" />
    <path
       style="fill:#ffffff;fill-opacity:1;stroke:#171717;stroke-width:0.36999351000000003px;stroke-opacity:1"
       inkscape:connector-curvature="0"
       d="M 23.999999,32.5 H 28.34629"
       id="path71" />
    <path
       style="fill:#ffffff;fill-opacity:1;stroke:#171717;stroke-width:0.36999354000000001px;stroke-opacity:1"
       inkscape:connector-curvature="0"
       d="M 29.509047,32.5 H 32.72721"
       id="path73" />
    <path
       style="fill:#ffffff;fill-opacity:1;stroke:#171717;stroke-width:0.36999354000000001px;stroke-opacity:1"
       inkscape:connector-curvature="0"
       d="m 12,34.5 h 3"
       id="path75" />
    <path
       style="fill:#ffffff;fill-opacity:1;stroke:#171717;stroke-width:0.36999354000000001px;stroke-opacity:1"
       inkscape:connector-curvature="0"
       d="m 16,34.5 h 1"
       id="path77" />
    <path
       style="fill:#ffffff;fill-opacity:1;stroke:#171717;stroke-width:0.36999354000000001px;stroke-opacity:1"
       inkscape:connector-curvature="0"
       d="m 18,34.5 h 2"
       id="path79" />
    <path
       style="fill:#ffffff;fill-opacity:1;stroke:#171717;stroke-width:0.36999354000000001px;stroke-opacity:1"
       inkscape:connector-curvature="0"
       d="m 21,34.5 h 6"
       id="path81" />
    <path
       style="fill:#ffffff;fill-opacity:1;stroke:#171717;stroke-width:0.36999351000000003px;stroke-opacity:1"
       inkscape:connector-curvature="0"
       d="m 28.34629,34.5 h 2.173146"
       id="path83" />
    <path
       style="fill:#ffffff;fill-opacity:1;stroke:#171717;stroke-width:0.36999354000000001px;stroke-opacity:1"
       inkscape:connector-curvature="0"
       d="M 31.654489,34.5 H 32.72721"
       id="path85" />
    <path
       style="fill:#ffffff;fill-opacity:1;stroke:#171717;stroke-width:0.36999354000000001px;stroke-opacity:1"
       inkscape:connector-curvature="0"
       d="m 12,36.5 h 2"
       id="path87" />
    <path
       style="fill:#ffffff;fill-opacity:1;stroke:#171717;stroke-width:0.36999354000000001px;stroke-opacity:1"
       inkscape:connector-curvature="0"
       d="m 15,36.5 h 6"
       id="path89" />
    <path
       style="fill:#ffffff;fill-opacity:1;stroke:#171717;stroke-width:0.36999354000000001px;stroke-opacity:1"
       inkscape:connector-curvature="0"
       d="m 21.999999,36.5 h 5.363606 5.363605"
       id="path91" />
    <path
       style="fill:#ffffff;fill-opacity:1;stroke:#171717;stroke-width:0.36999354000000001px;stroke-opacity:1"
       inkscape:connector-curvature="0"
       d="m 12,38.5 h 3"
       id="path93" />
    <path
       style="fill:#ffffff;fill-opacity:1;stroke:#171717;stroke-width:0.36999354000000001px;stroke-opacity:1"
       inkscape:connector-curvature="0"
       d="m 16,38.5 h 4"
       id="path95" />
  </g>
</svg>
