<?xml version="1.0" encoding="UTF-8" standalone="no"?>
<!-- Created with Inkscape (http://www.inkscape.org/) -->

<svg
   xmlns:dc="http://purl.org/dc/elements/1.1/"
   xmlns:cc="http://creativecommons.org/ns#"
   xmlns:rdf="http://www.w3.org/1999/02/22-rdf-syntax-ns#"
   xmlns:svg="http://www.w3.org/2000/svg"
   xmlns="http://www.w3.org/2000/svg"
   xmlns:xlink="http://www.w3.org/1999/xlink"
   xmlns:sodipodi="http://sodipodi.sourceforge.net/DTD/sodipodi-0.dtd"
   xmlns:inkscape="http://www.inkscape.org/namespaces/inkscape"
   version="1.0"
   width="96"
   height="96"
   id="svg2408"
   inkscape:version="0.48.4 r9939"
   sodipodi:docname="kontact-import-wizard.svg">
  <sodipodi:namedview
     pagecolor="#ffffff"
     bordercolor="#666666"
     borderopacity="1"
     objecttolerance="10"
     gridtolerance="10"
     guidetolerance="10"
     inkscape:pageopacity="0"
     inkscape:pageshadow="2"
     inkscape:window-width="1366"
     inkscape:window-height="709"
     id="namedview105"
     showgrid="false"
     inkscape:zoom="5.1290441"
     inkscape:cx="27.274173"
     inkscape:cy="54.960294"
     inkscape:window-x="0"
     inkscape:window-y="-3"
     inkscape:window-maximized="1"
     inkscape:current-layer="svg2408"
     showguides="true"
     inkscape:guide-bbox="true" />
  <defs
     id="defs2410">
    <linearGradient
       id="linearGradient3853">
      <stop
         id="stop3855"
         style="stop-color:#000000;stop-opacity:1"
         offset="0" />
      <stop
         id="stop3857"
         style="stop-color:#313131;stop-opacity:1"
         offset="1" />
    </linearGradient>
    <linearGradient
       x1="45.447727"
       y1="92.539597"
       x2="45.447727"
       y2="7.0165396"
       id="ButtonShadow"
       gradientUnits="userSpaceOnUse"
       gradientTransform="scale(1.0058652,0.994169)">
      <stop
         id="stop3750"
         style="stop-color:#000000;stop-opacity:1"
         offset="0" />
      <stop
         id="stop3752"
         style="stop-color:#000000;stop-opacity:0.58823532"
         offset="1" />
    </linearGradient>
    <linearGradient
       id="linearGradient3737">
      <stop
         id="stop3739"
         style="stop-color:#ffffff;stop-opacity:1"
         offset="0" />
      <stop
         id="stop3741"
         style="stop-color:#ffffff;stop-opacity:0"
         offset="1" />
    </linearGradient>
    <linearGradient
       id="linearGradient3700">
      <stop
         id="stop3702"
         style="stop-color:#da8714;stop-opacity:1"
         offset="0" />
      <stop
         id="stop3704"
         style="stop-color:#f4d468;stop-opacity:1"
         offset="1" />
    </linearGradient>
    <filter
       color-interpolation-filters="sRGB"
       id="filter3174">
      <feGaussianBlur
         id="feGaussianBlur3176"
         stdDeviation="1.71" />
    </filter>
    <linearGradient
       x1="36.357143"
       y1="6"
       x2="36.357143"
       y2="63.893143"
       id="linearGradient3188"
       xlink:href="#linearGradient3737"
       gradientUnits="userSpaceOnUse" />
    <filter
       x="-0.192"
       y="-0.192"
       width="1.3839999"
       height="1.3839999"
       color-interpolation-filters="sRGB"
       id="filter3794">
      <feGaussianBlur
         id="feGaussianBlur3796"
         stdDeviation="5.28" />
    </filter>
    <linearGradient
       x1="48"
       y1="20.220806"
       x2="48"
       y2="138.66119"
       id="linearGradient3613"
       xlink:href="#linearGradient3737"
       gradientUnits="userSpaceOnUse" />
    <radialGradient
       cx="48"
       cy="90.171875"
       r="42"
       fx="48"
       fy="90.171875"
       id="radialGradient3619"
       xlink:href="#linearGradient3737"
       gradientUnits="userSpaceOnUse"
       gradientTransform="matrix(1.1573129,0,0,0.99590774,-7.5510206,0.19713193)" />
    <clipPath
       id="clipPath3613">
      <rect
         width="84"
         height="84"
         rx="6"
         ry="6"
         x="6"
         y="6"
         id="rect3615"
         style="fill:#ffffff;fill-opacity:1;fill-rule:nonzero;stroke:none" />
    </clipPath>
    <linearGradient
       x1="48"
       y1="90"
       x2="48"
       y2="5.9877172"
       id="linearGradient3617"
       xlink:href="#linearGradient3700"
       gradientUnits="userSpaceOnUse" />
    <linearGradient
       id="linearGradient5060">
      <stop
         id="stop5062"
         style="stop-color:#000000;stop-opacity:1"
         offset="0" />
      <stop
         id="stop5064"
         style="stop-color:#000000;stop-opacity:0"
         offset="1" />
    </linearGradient>
    <linearGradient
       id="linearGradient6954">
      <stop
         id="stop6960"
         style="stop-color:#f5f5f5;stop-opacity:1"
         offset="0" />
      <stop
         id="stop6962"
         style="stop-color:#d2d2d2;stop-opacity:1"
         offset="1" />
    </linearGradient>
    <linearGradient
       id="linearGradient3785">
      <stop
         id="stop3787"
         style="stop-color:#bdbdbd;stop-opacity:1"
         offset="0" />
      <stop
         id="stop3789"
         style="stop-color:#8c8c8c;stop-opacity:1"
         offset="1" />
    </linearGradient>
    <linearGradient
       id="linearGradient3341">
      <stop
         id="stop3343"
         style="stop-color:#ffffff;stop-opacity:1"
         offset="0" />
      <stop
         id="stop3345"
         style="stop-color:#ffffff;stop-opacity:0"
         offset="1" />
    </linearGradient>
    <linearGradient
       id="linearGradient2895">
      <stop
         id="stop2897"
         style="stop-color:#000000;stop-opacity:1"
         offset="0" />
      <stop
         id="stop2899"
         style="stop-color:#000000;stop-opacity:0"
         offset="1" />
    </linearGradient>
    <linearGradient
       x1="27.055927"
       y1="5.134068"
       x2="43.429096"
       y2="5.134068"
       id="linearGradient2949"
       xlink:href="#linearGradient2895"
       gradientUnits="userSpaceOnUse"
       gradientTransform="matrix(0.85509232,0,0,1.178723,-69.95703,42.805784)" />
    <radialGradient
       cx="30"
       cy="33.1875"
       r="4.6875"
       fx="30"
       fy="33.1875"
       id="radialGradient2952"
       xlink:href="#linearGradient5060"
       gradientUnits="userSpaceOnUse"
       gradientTransform="matrix(1.5279732,-7.0647448e-7,2.1308638e-7,0.46086628,-85.660631,57.562164)" />
    <linearGradient
       x1="38"
       y1="39"
       x2="43"
       y2="38.599998"
       id="linearGradient2955"
       xlink:href="#linearGradient5060"
       gradientUnits="userSpaceOnUse"
       gradientTransform="translate(-69.821429,42.857143)" />
    <linearGradient
       x1="22"
       y1="39"
       x2="17"
       y2="37.4375"
       id="linearGradient2958"
       xlink:href="#linearGradient5060"
       gradientUnits="userSpaceOnUse"
       gradientTransform="translate(-69.821429,42.857143)" />
    <radialGradient
       cx="26.375898"
       cy="12.31301"
       r="8"
       fx="26.375898"
       fy="12.31301"
       id="radialGradient2961"
       xlink:href="#linearGradient6954"
       gradientUnits="userSpaceOnUse"
       gradientTransform="matrix(1.640165,-0.1325824,0.12811381,1.5848844,-88.21778,37.629717)" />
    <linearGradient
       x1="30"
       y1="5"
       x2="30"
       y2="44.678879"
       id="linearGradient2963"
       xlink:href="#linearGradient3785"
       gradientUnits="userSpaceOnUse"
       gradientTransform="translate(-69.821429,42.857143)" />
    <linearGradient
       x1="24.786562"
       y1="53.869164"
       x2="24.87495"
       y2="83.5"
       id="linearGradient2966"
       xlink:href="#linearGradient3341"
       gradientUnits="userSpaceOnUse"
       gradientTransform="translate(-65.69638,3.357143)" />
    <radialGradient
       cx="24.999998"
       cy="28.659998"
       r="16"
       fx="24.999998"
       fy="28.659998"
       id="radialGradient2969"
       xlink:href="#linearGradient6954"
       gradientUnits="userSpaceOnUse"
       gradientTransform="matrix(1.3125,0,0,0.37326701,-77.633927,63.159311)" />
    <linearGradient
       x1="30"
       y1="25.084745"
       x2="30"
       y2="45"
       id="linearGradient2971"
       xlink:href="#linearGradient3785"
       gradientUnits="userSpaceOnUse"
       gradientTransform="translate(-69.821429,42.857143)" />
    <radialGradient
       cx="32"
       cy="41.5"
       r="21"
       fx="32"
       fy="41.5"
       id="radialGradient2974"
       xlink:href="#linearGradient5060"
       gradientUnits="userSpaceOnUse"
       gradientTransform="matrix(0.85714286,0,0,0.28571429,-67.25,72)" />
    <filter
       x="-0.20689654"
       y="-0.2857143"
       width="1.4137931"
       height="1.5714287"
       color-interpolation-filters="sRGB"
       id="filter3842">
      <feGaussianBlur
         id="feGaussianBlur3844"
         stdDeviation="5" />
    </filter>
    <clipPath
       id="clipPath3846">
      <path
         d="m 102,6 c -3.324,0 -6,2.676 -6,6 l 0,72 c 0,3.324 2.676,6 6,6 l 72,0 c 3.324,0 6,-2.676 6,-6 l 0,-72 c 0,-3.324 -2.676,-6 -6,-6 l -72,0 z m 36,21 c 4.27575,0 7.7501,3.22498 7.75,7.21875 -0.017,0.50192 -0.053,1.06898 -0.0937,1.65625 0.5842,0.43883 0.63569,1.74219 0.0625,3.09375 -0.20688,0.48783 -0.46974,0.90718 -0.75,1.25 -0.0907,0.424 -0.13328,0.75622 -0.25,1.25 -0.31758,0.95347 -1.58219,2.81614 -2.53125,4.28125 -0.0612,0.9744 -0.0577,1.9482 0.0625,2.9375 1.59781,1.39047 4.55784,2.451439 6.96875,3.46875 0.99952,-0.415702 1.91915,-0.840829 2.5625,-1.375 0.1571,-0.91653 0.1406,-1.7255 0.0625,-2.53125 -0.78289,-1.0445 -1.65985,-2.26031 -1.875,-2.90625 -0.0694,-0.31812 -0.0988,-0.53048 -0.15625,-0.8125 -0.008,-0.0088 -0.0232,-0.02225 -0.0312,-0.03125 -0.24058,-0.27087 -0.48169,-0.61965 -0.65625,-1.03125 -0.45269,-1.06743 -0.3825,-2.10425 0.125,-2.375 -0.0357,-0.42697 -0.0545,-0.81298 -0.0625,-1.15625 0,-2.99532 2.60569,-5.4375 5.8125,-5.4375 3.20682,0 5.8125,2.44217 5.8125,5.4375 -0.0127,0.37644 -0.0632,0.7783 -0.0937,1.21875 0.43815,0.32912 0.49239,1.29882 0.0625,2.3125 -0.15516,0.36587 -0.35231,0.68039 -0.5625,0.9375 -0.068,0.318 -0.1,0.56717 -0.1875,0.9375 -0.23818,0.7151 -1.1632,2.11991 -1.875,3.21875 -0.0459,0.7308 -0.0589,1.47678 0.0312,2.21875 2.22581,1.93697 8.02225,2.96722 8.03125,4.625 L 167,60.46875 c 0,1.01728 -1.51441,1.92514 -3.90625,2.5625 l -0.4375,1.4375 a 0.84317393,0.843822 0 0 1 -0.5,0.53125 c -0.10882,0.04212 -0.1705,0.13205 -0.46875,0.21875 C 160.11641,65.67522 157.68988,66 155,66 c -2.51238,0 -4.74599,-0.278913 -6.3125,-0.6875 l -0.46875,1.65625 a 1.1242319,1.125096 0 0 1 -0.65625,0.71875 c -0.1451,0.05616 -0.25859,0.16571 -0.65625,0.28125 C 144.81146,68.57738 141.58651,69 138,69 c -3.58651,0 -6.78021,-0.42262 -8.875,-1.03125 -0.39766,-0.11554 -0.51115,-0.22505 -0.65625,-0.28125 a 1.1242319,1.125096 0 0 1 -0.6875,-0.75 L 127.375,65.28125 C 125.80443,65.695778 123.53462,66 121,66 118.31012,66 115.91484,65.67522 114.34375,65.21875 114.0455,65.1321 113.98382,65.0421 113.875,65 a 0.84317393,0.843822 0 0 1 -0.53125,-0.5625 L 113,63.0625 c -2.45175,-0.63836 -4,-1.56194 -4,-2.59375 l 0.78125,-5.0625 c -0.009,-1.93697 5.74656,-2.75398 8,-4.625 0.1571,-0.91653 0.1406,-1.7255 0.0625,-2.53125 -0.78289,-1.0445 -1.65985,-2.26031 -1.875,-2.90625 -0.0695,-0.31812 -0.0988,-0.53048 -0.15625,-0.8125 -0.008,-0.0088 -0.0233,-0.02225 -0.0312,-0.03125 -0.24058,-0.27087 -0.48169,-0.61965 -0.65625,-1.03125 -0.45269,-1.06743 -0.3825,-2.10425 0.125,-2.375 -0.0357,-0.42697 -0.0545,-0.81298 -0.0625,-1.15625 0,-2.99532 2.60569,-5.4375 5.8125,-5.4375 3.20682,0 5.8125,2.44217 5.8125,5.4375 -0.0127,0.37644 -0.0631,0.7783 -0.0937,1.21875 0.43815,0.32912 0.49239,1.29882 0.0625,2.3125 -0.15516,0.36587 -0.35231,0.68039 -0.5625,0.9375 -0.068,0.318 -0.1,0.56717 -0.1875,0.9375 -0.23818,0.7151 -1.1632,2.11991 -1.875,3.21875 -0.0459,0.7308 -0.0589,1.47678 0.0312,2.21875 0.56995,0.49599 1.36884,0.938591 2.25,1.34375 2.44969,-1.03953 5.58983,-2.033128 7.28125,-3.4375 0.20939,-1.22203 0.19785,-2.26942 0.0937,-3.34375 -1.04386,-1.39267 -2.24438,-3.01374 -2.53125,-3.875 -0.0926,-0.42416 -0.14215,-0.71772 -0.21875,-1.09375 -0.0107,-0.0118 -0.0205,-0.01925 -0.0312,-0.03125 -0.32077,-0.36116 -0.64226,-0.82619 -0.875,-1.375 -0.60358,-1.42323 -0.52042,-2.82649 0.15625,-3.1875 -0.0476,-0.56929 -0.0521,-1.10481 -0.0625,-1.5625 C 130.25,30.22497 133.72425,27 138,27 z"
         inkscape:connector-curvature="0"
         id="path3849"
         style="fill:url(#linearGradient3851);fill-opacity:1;fill-rule:nonzero;stroke:none" />
    </clipPath>
    <linearGradient
       x1="48"
       y1="90"
       x2="48"
       y2="5.9877172"
       id="linearGradient3851"
       xlink:href="#linearGradient3700"
       gradientUnits="userSpaceOnUse"
       gradientTransform="translate(90,0)" />
    <linearGradient
       x1="48"
       y1="27"
       x2="48"
       y2="69"
       id="linearGradient3859"
       xlink:href="#linearGradient3853"
       gradientUnits="userSpaceOnUse" />
    <linearGradient
       x1="45.447727"
       y1="92.539597"
       x2="45.447727"
       y2="7.0165396"
       id="ButtonShadow-0"
       gradientUnits="userSpaceOnUse"
       gradientTransform="matrix(1.0058652,0,0,0.994169,100,0)">
      <stop
         id="stop3750-8"
         style="stop-color:#000000;stop-opacity:1"
         offset="0" />
      <stop
         id="stop3752-5"
         style="stop-color:#000000;stop-opacity:0.58823532"
         offset="1" />
    </linearGradient>
    <linearGradient
       x1="32.251034"
       y1="6.1317081"
       x2="32.251034"
       y2="90.238609"
       id="linearGradient3780"
       xlink:href="#ButtonShadow-0"
       gradientUnits="userSpaceOnUse"
       gradientTransform="matrix(1.0238095,0,0,1.0119048,-1.1428571,-98.071429)" />
    <linearGradient
       x1="32.251034"
       y1="6.1317081"
       x2="32.251034"
       y2="90.238609"
       id="linearGradient3772"
       xlink:href="#ButtonShadow-0"
       gradientUnits="userSpaceOnUse"
       gradientTransform="matrix(1.0238095,0,0,1.0119048,-1.1428571,-98.071429)" />
    <linearGradient
       x1="32.251034"
       y1="6.1317081"
       x2="32.251034"
       y2="90.238609"
       id="linearGradient3725"
       xlink:href="#ButtonShadow-0"
       gradientUnits="userSpaceOnUse"
       gradientTransform="matrix(1.0238095,0,0,1.0119048,-1.1428571,-98.071429)" />
    <linearGradient
       x1="32.251034"
       y1="6.1317081"
       x2="32.251034"
       y2="90.238609"
       id="linearGradient3721"
       xlink:href="#ButtonShadow-0"
       gradientUnits="userSpaceOnUse"
       gradientTransform="translate(0,-97)" />
    <linearGradient
       x1="32.251034"
       y1="6.1317081"
       x2="32.251034"
       y2="90.238609"
       id="linearGradient3059"
       xlink:href="#ButtonShadow-0"
       gradientUnits="userSpaceOnUse"
       gradientTransform="matrix(1.0238095,0,0,1.0119048,-1.1428571,-98.071429)" />
    <path
       inkscape:connector-curvature="0"
       style="fill:#666666;fill-opacity:1;stroke:#1a1a1a;stroke-width:1;stroke-miterlimit:4;stroke-dasharray:none"
       id="path3742"
       d="m 48,67.670017 a 19.670017,19.670017 0 1 1 0,-39.340034 19.670017,19.670017 0 0 1 0,39.340034 z" />
    <filter
       color-interpolation-filters="sRGB"
       id="filter3774">
      <feGaussianBlur
         id="feGaussianBlur3776"
         stdDeviation="0.27274118" />
    </filter>
    <radialGradient
       inkscape:collect="always"
       xlink:href="#linearGradient3732"
       id="radialGradient3167"
       gradientUnits="userSpaceOnUse"
       gradientTransform="matrix(0.39401824,0,0,0.39400462,49.520928,49.441313)"
       cx="48"
       cy="48.000935"
       fx="48"
       fy="48.000935"
       r="27.001867" />
    <linearGradient
       id="linearGradient3732">
      <stop
         id="stop3734"
         style="stop-color:#000000;stop-opacity:0"
         offset="0" />
      <stop
         id="stop3740"
         style="stop-color:#000000;stop-opacity:0"
         offset="0.94999999" />
      <stop
         id="stop3736"
         style="stop-color:#000000;stop-opacity:1"
         offset="1" />
    </linearGradient>
    <linearGradient
       inkscape:collect="always"
       xlink:href="#linearGradient3719"
       id="linearGradient3179"
       gradientUnits="userSpaceOnUse"
       x1="16.162441"
       y1="44.48222"
       x2="76.771591"
       y2="44.48222"
       gradientTransform="matrix(0.27581277,0.27581277,-0.27581277,0.27581277,67.886371,43.268574)" />
    <linearGradient
       id="linearGradient3719">
      <stop
         id="stop3721"
         style="stop-color:#4b4b4b;stop-opacity:1"
         offset="0" />
      <stop
         id="stop3723"
         style="stop-color:#232323;stop-opacity:1"
         offset="0.37373093" />
      <stop
         id="stop3725"
         style="stop-color:#5c5c5c;stop-opacity:1"
         offset="1" />
    </linearGradient>
  </defs>
  <metadata
     id="metadata2413">
    <rdf:RDF>
      <cc:Work
         rdf:about="">
        <dc:format>image/svg+xml</dc:format>
        <dc:type
           rdf:resource="http://purl.org/dc/dcmitype/StillImage" />
        <dc:title></dc:title>
      </cc:Work>
    </rdf:RDF>
  </metadata>
  <g
     id="layer2"
     style="display:none">
    <rect
       width="86"
       height="85"
       rx="6"
       ry="6"
       x="5"
       y="7"
       id="rect3745"
       style="opacity:0.9;fill:url(#ButtonShadow);fill-opacity:1;fill-rule:nonzero;stroke:none;filter:url(#filter3174)" />
  </g>
  <g
     id="layer1">
    <rect
       width="84"
       height="84"
       rx="6"
       ry="0.036197715"
       x="6"
       y="6"
       id="rect2419"
       style="fill:#e19c2b;fill-opacity:1;fill-rule:nonzero;stroke:none" />
  </g>
  <g
     id="layer5" />
  <g
     transform="matrix(1.9289657,0,0,1.9289657,-6.7166511,-4.6911418)"
     id="layer1-0">
    <rect
       style="fill:#bdc3c7;fill-rule:evenodd;stroke:#003bc3;stroke-width:0;stroke-linecap:square;stroke-linejoin:miter;stroke-miterlimit:2"
       y="0"
       x="0"
       id="shape0"
       transform="translate(12.3342,9.81266)"
       stroke-miterlimit="2.00000000000"
       width="21.022785"
       height="26.065823" />
    <rect
       style="fill:#ecf0f1;fill-rule:evenodd;stroke:#003bc3;stroke-width:0;stroke-linecap:square;stroke-linejoin:miter;stroke-miterlimit:2.01260185"
       y="0"
       x="0"
       id="shape01"
       transform="translate(14.643,12.2734)"
       stroke-miterlimit="2.01260185242"
       width="21.022785"
       height="26.065823" />
  </g>
  <rect
     style="fill:#ff00ff;fill-opacity:1;fill-rule:evenodd;stroke:none"
     id="rect3117"
     width="30.220057"
     height="24.565981"
     x="29.245216"
     y="35.559887" />
  <g
     transform="matrix(0.39401824,0,0,0.39401824,49.520928,49.440659)"
     id="layer1-1"
     style="fill:#515151;fill-opacity:1">
    <rect
       width="84"
       height="84"
       rx="6"
       ry="0"
       x="6"
       y="6"
       id="rect2419-8"
       style="fill:#666666;fill-opacity:1;fill-rule:nonzero;stroke:none" />
  </g>
  <path
     inkscape:connector-curvature="0"
     style="fill:url(#linearGradient3179);fill-opacity:1;stroke:none"
     id="path3648"
     d="M 76.792193,76.711924 A 11.820547,11.820547 0 0 1 60.075415,59.995145 11.820547,11.820547 0 0 1 76.792193,76.711924 z" />
  <path
     inkscape:connector-curvature="0"
     style="fill:#666666;fill-opacity:1;stroke:#000000;stroke-width:0.51222372;stroke-miterlimit:4;stroke-dasharray:none"
     id="path3672"
     d="m 68.433804,80.075578 a 11.722043,11.722043 0 1 1 0,-23.444086 11.722043,11.722043 0 0 1 0,23.444086 z" />
  <path
     inkscape:connector-curvature="0"
     style="fill:#000000;fill-opacity:1;stroke:none"
     id="path3697"
     d="m 68.433804,78.992027 a 10.638493,10.638493 0 1 1 0,-21.276985 10.638493,10.638493 0 0 1 0,21.276985 z" />
  <path
     style="opacity:0.6;fill:url(#radialGradient3167);fill-opacity:1;stroke:none"
     id="path3727"
     inkscape:connector-curvature="0"
     d="m 68.433804,57.715042 c -2.722628,0 -5.445991,1.037912 -7.523286,3.115207 -4.15459,4.15459 -4.15459,10.891982 0,15.046572 4.15459,4.15459 10.891982,4.15459 15.046572,0 4.15459,-4.15459 4.15459,-10.891982 0,-15.046572 -2.077295,-2.077295 -4.800658,-3.115207 -7.523286,-3.115207 z m 0,0.985046 c 2.470533,0 4.936488,0.947053 6.821441,2.832006 3.769905,3.769906 3.769905,9.872976 0,13.642882 -3.769906,3.769905 -9.872976,3.769905 -13.642882,0 -3.769905,-3.769906 -3.769905,-9.872976 0,-13.642882 1.884953,-1.884953 4.350908,-2.832006 6.821441,-2.832006 z" />
  <path
     inkscape:connector-curvature="0"
     style="fill:#666666;fill-opacity:1;stroke:#1a1a1a;stroke-width:0.39401823;stroke-miterlimit:4;stroke-dasharray:none"
     id="path3164"
     d="m 68.433804,76.10388 a 7.7503455,7.7503455 0 1 1 0,-15.500691 7.7503455,7.7503455 0 0 1 0,15.500691 z" />
  <path
     inkscape:connector-curvature="0"
     style="fill:#000000;fill-opacity:1;stroke:none"
     id="path3757"
     d="m 73.950059,68.353535 a 5.5162554,5.5162554 0 0 1 -11.03251,0 5.5162554,5.5162554 0 1 1 11.03251,0 z" />
  <path
     sodipodi:type="arc"
     style="fill:#232323;fill-opacity:1;fill-rule:evenodd;stroke:#1e1e1e;stroke-width:0.11181818;stroke-miterlimit:4;stroke-opacity:1;stroke-dasharray:none"
     id="path3169"
     sodipodi:cx="45.559322"
     sodipodi:cy="44.338982"
     sodipodi:rx="14.237288"
     sodipodi:ry="14.237288"
     d="m 59.796611,44.338982 a 14.237288,14.237288 0 1 1 -28.474577,0 14.237288,14.237288 0 1 1 28.474577,0 z"
     transform="matrix(0.35306987,0,0,0.3489649,52.347205,52.887692)" />
  <path
     inkscape:connector-curvature="0"
     style="fill:#000000;fill-opacity:1;stroke:none"
     id="path2907"
     d="m 73.950059,68.353535 a 5.5162554,5.5162554 0 0 1 -11.03251,0 5.5162554,5.5162554 0 1 1 11.03251,0 z" />
  <path
     inkscape:connector-curvature="0"
     style="fill:none;stroke:#d5d5d5;stroke-width:0.514606;stroke-miterlimit:4;stroke-opacity:1;stroke-dasharray:none;filter:url(#filter3774)"
     id="path3705"
     transform="matrix(0,0.38283487,-0.38283487,0,86.043232,50.080939)"
     d="m 61.366765,45.997448 a 13.637059,13.637059 0 1 1 -27.274118,0 13.637059,13.637059 0 1 1 27.274118,0 z" />
  <path
     style="opacity:0.85;fill:#f9f9f9;fill-opacity:1;stroke:none"
     id="path3735"
     inkscape:connector-curvature="0"
     d="m 65.81112,68.107274 c 0.0279,-0.30233 0.112461,-0.585654 0.233948,-0.849602 l -1.810021,-0.948107 c -0.237986,0.489798 -0.401184,1.033107 -0.455583,1.600699 l 2.031656,0.19701 z m 0.541775,-1.354438 c 0.422007,-0.54732 1.051094,-0.925537 1.773082,-1.009672 l -0.233948,-2.031657 c -1.417862,0.16434 -2.621844,0.959735 -3.361468,2.093222 l 1.822334,0.948107 z" />
  <path
     inkscape:connector-curvature="0"
     d="m 55.638835,54.994425 a 0.981528,0.98152796 0 0 1 -1.963056,0 0.981528,0.98152796 0 1 1 1.963056,0 z"
     id="path3364"
     style="fill:#d40000;fill-opacity:1;fill-rule:nonzero;stroke:#000000;stroke-width:0.19700912;stroke-linecap:square;stroke-linejoin:miter;stroke-miterlimit:4;stroke-opacity:1;stroke-dasharray:none;stroke-dashoffset:0" />
  <g
     transform="matrix(0.06880572,0,0,0.01742198,54.175746,50.101883)"
     id="g3955"
     style="fill:#d4d4d4;fill-opacity:1;stroke:#414141;stroke-width:2.27606821;stroke-miterlimit:4;stroke-opacity:1;stroke-dasharray:none">
    <rect
       width="84"
       height="84"
       rx="6"
       ry="0"
       x="6"
       y="6"
       id="rect3957"
       style="fill:#d4d4d4;fill-opacity:1;fill-rule:nonzero;stroke:#414141;stroke-width:2.27606821;stroke-miterlimit:4;stroke-opacity:1;stroke-dasharray:none" />
  </g>
  <g
     style="fill:#515151;fill-opacity:1"
     id="g3951"
     transform="matrix(0.10384091,0,0,0.03010733,52.593954,50.691751)">
    <rect
       style="fill:#666666;fill-opacity:1;fill-rule:nonzero;stroke:none"
       id="rect3953"
       y="6"
       x="6"
       ry="0"
       rx="6"
       height="84"
       width="84" />
  </g>
  <text
     xml:space="preserve"
     style="font-size:6px;font-style:normal;font-variant:normal;font-weight:500;font-stretch:normal;line-height:125%;letter-spacing:0px;word-spacing:0px;fill:#7a7a7a;fill-opacity:1;stroke:none;font-family:Century Schoolbook L;-inkscape-font-specification:Century Schoolbook L Medium"
     id="text3959"
     sodipodi:linespacing="125%"
     transform="matrix(-0.39401824,0,0,-0.39401824,88.068899,86.763089)"><textPath
       xlink:href="#path3742"
       id="textPath3968"><tspan
   id="tspan3961">digikam</tspan></textPath></text>
  <path
     d="m 70.601952,69.443742 c -0.161418,0.25715 -0.364801,0.47176 -0.592386,0.652406 l 1.186843,1.663276 c 0.433515,-0.329552 0.824465,-0.740619 1.129305,-1.222482 z"
     inkscape:connector-curvature="0"
     id="path3134"
     style="opacity:0.85;fill:#f9f9f9;fill-opacity:1;stroke:none"
     sodipodi:nodetypes="ccccc" />
</svg>
