<?xml version="1.0" encoding="UTF-8" standalone="no"?>
<!-- Created with Inkscape (http://www.inkscape.org/) -->

<svg
   xmlns:dc="http://purl.org/dc/elements/1.1/"
   xmlns:cc="http://creativecommons.org/ns#"
   xmlns:rdf="http://www.w3.org/1999/02/22-rdf-syntax-ns#"
   xmlns:svg="http://www.w3.org/2000/svg"
   xmlns="http://www.w3.org/2000/svg"
   xmlns:sodipodi="http://sodipodi.sourceforge.net/DTD/sodipodi-0.dtd"
   xmlns:inkscape="http://www.inkscape.org/namespaces/inkscape"
   id="svg2"
   version="1.1"
   inkscape:version="0.91 r13725"
   width="512"
   height="512"
   sodipodi:docname="ktorrent.svg">
  <metadata
     id="metadata8">
    <rdf:RDF>
      <cc:Work
         rdf:about="">
        <dc:format>image/svg+xml</dc:format>
        <dc:type
           rdf:resource="http://purl.org/dc/dcmitype/StillImage" />
        <dc:title />
      </cc:Work>
    </rdf:RDF>
  </metadata>
  <defs
     id="defs6" />
  <sodipodi:namedview
     pagecolor="#ffffff"
     bordercolor="#666666"
     borderopacity="1"
     objecttolerance="10"
     gridtolerance="10"
     guidetolerance="10"
     inkscape:pageopacity="0"
     inkscape:pageshadow="2"
     inkscape:window-width="1366"
     inkscape:window-height="691"
     id="namedview4"
     showgrid="false"
     inkscape:zoom="0.65186406"
     inkscape:cx="471.56621"
     inkscape:cy="289.10629"
     inkscape:window-x="-4"
     inkscape:window-y="0"
     inkscape:window-maximized="1"
     inkscape:current-layer="svg2" />
  <rect
     style="fill:#3498db;fill-opacity:1;fill-rule:evenodd;stroke:none"
     id="rect2998"
     width="455.59323"
     height="449.08475"
     x="28.542343"
     y="32.033897"
     ry="50.005001" />
  <path
     style="fill:#2c3e50;fill-opacity:1;stroke:none"
     d="m 256.00001,432.20659 c 97.31632,0 176.20677,-78.89022 176.20677,-176.20659 0,-97.31638 -78.89045,-176.206592 -176.20677,-176.206592 l 0,33.038742 c 79.06949,0 143.168,64.09915 143.168,143.16785 0,79.06985 -64.09851,143.16786 -143.168,143.16786 l 0,33.03873 z"
     id="path863"
     inkscape:connector-curvature="0" />
  <path
     style="fill:#1abc9c;fill-opacity:1;stroke:none"
     d="m 79.793217,256 c 0,97.31637 78.890463,176.20659 176.206793,176.20659 l 0,-33.03873 c -79.06951,0 -143.16802,-64.09801 -143.16802,-143.16786 0,-79.0687 64.09851,-143.16785 143.16802,-143.16785 l 0,-33.038742 C 158.68368,79.793408 79.793217,158.68362 79.793217,256 Z"
     id="path858"
     inkscape:connector-curvature="0" />
  <polygon
     id="polygon3780"
     points="2,10 2,22 16,22 16,30 30,16 16,2.001 16,10 "
     transform="matrix(0,6.4918953,-6.4918953,0,359.87357,152.12968)"
     style="fill:#ffffff" />
</svg>
