<?xml version="1.0" encoding="UTF-8" standalone="no"?>
<!-- Created with Inkscape (http://www.inkscape.org/) -->

<svg
   xmlns:dc="http://purl.org/dc/elements/1.1/"
   xmlns:cc="http://creativecommons.org/ns#"
   xmlns:rdf="http://www.w3.org/1999/02/22-rdf-syntax-ns#"
   xmlns:svg="http://www.w3.org/2000/svg"
   xmlns="http://www.w3.org/2000/svg"
   xmlns:xlink="http://www.w3.org/1999/xlink"
   xmlns:sodipodi="http://sodipodi.sourceforge.net/DTD/sodipodi-0.dtd"
   xmlns:inkscape="http://www.inkscape.org/namespaces/inkscape"
   version="1.0"
   width="96"
   height="96"
   id="svg2408"
   inkscape:version="0.48.4 r9939"
   sodipodi:docname="libreoffice3-base.svg"
   inkscape:export-filename="/home/tago/.kde4/share/icons/KFaenza/apps/256/libreoffice-base.png"
   inkscape:export-xdpi="240"
   inkscape:export-ydpi="240">
  <sodipodi:namedview
     pagecolor="#ffffff"
     bordercolor="#666666"
     borderopacity="1"
     objecttolerance="10"
     gridtolerance="10"
     guidetolerance="10"
     inkscape:pageopacity="0"
     inkscape:pageshadow="2"
     inkscape:window-width="1366"
     inkscape:window-height="709"
     id="namedview200"
     showgrid="false"
     inkscape:zoom="4.1705829"
     inkscape:cx="8.4654724"
     inkscape:cy="42.727062"
     inkscape:window-x="0"
     inkscape:window-y="-3"
     inkscape:window-maximized="1"
     inkscape:current-layer="svg2408"
     showguides="true"
     inkscape:guide-bbox="true">
    <sodipodi:guide
       orientation="1,0"
       position="89.915489,26.734872"
       id="guide3156" />
    <sodipodi:guide
       orientation="0,1"
       position="74.569912,91.953573"
       id="guide3158" />
  </sodipodi:namedview>
  <defs
     id="defs2410">
    <linearGradient
       id="linearGradient4508">
      <stop
         id="stop4510"
         style="stop-color:#ffffff;stop-opacity:1"
         offset="0" />
      <stop
         id="stop4512"
         style="stop-color:#ffffff;stop-opacity:0"
         offset="1" />
    </linearGradient>
    <linearGradient
       id="linearGradient4110">
      <stop
         id="stop4112"
         style="stop-color:#a240b0;stop-opacity:1"
         offset="0" />
      <stop
         id="stop4114"
         style="stop-color:#70247c;stop-opacity:1"
         offset="1" />
    </linearGradient>
    <linearGradient
       id="linearGradient4036">
      <stop
         id="stop4038"
         style="stop-color:#b1d5ac;stop-opacity:1"
         offset="0" />
      <stop
         id="stop4040"
         style="stop-color:#f1faef;stop-opacity:1"
         offset="1" />
    </linearGradient>
    <linearGradient
       id="linearGradient4030">
      <stop
         id="stop4032"
         style="stop-color:#97c08f;stop-opacity:1"
         offset="0" />
      <stop
         id="stop4034"
         style="stop-color:#b4d6af;stop-opacity:1"
         offset="1" />
    </linearGradient>
    <linearGradient
       id="linearGradient3914">
      <stop
         id="stop3916"
         style="stop-color:#000000;stop-opacity:1"
         offset="0" />
      <stop
         id="stop3918"
         style="stop-color:#000000;stop-opacity:0"
         offset="1" />
    </linearGradient>
    <linearGradient
       id="linearGradient3873">
      <stop
         id="stop3875"
         style="stop-color:#dfdfdf;stop-opacity:1"
         offset="0" />
      <stop
         id="stop3877"
         style="stop-color:#fefefe;stop-opacity:1"
         offset="1" />
    </linearGradient>
    <linearGradient
       id="linearGradient3856">
      <stop
         id="stop3858"
         style="stop-color:#b3b3b3;stop-opacity:1"
         offset="0" />
      <stop
         id="stop3860"
         style="stop-color:#e6e6e6;stop-opacity:1"
         offset="1" />
    </linearGradient>
    <linearGradient
       x1="45.447727"
       y1="92.539597"
       x2="45.447727"
       y2="7.0165396"
       id="ButtonShadow"
       gradientUnits="userSpaceOnUse"
       gradientTransform="scale(1.0058652,0.994169)">
      <stop
         id="stop3750"
         style="stop-color:#000000;stop-opacity:1"
         offset="0" />
      <stop
         id="stop3752"
         style="stop-color:#000000;stop-opacity:0.58823532"
         offset="1" />
    </linearGradient>
    <linearGradient
       id="linearGradient3737">
      <stop
         id="stop3739"
         style="stop-color:#ffffff;stop-opacity:1"
         offset="0" />
      <stop
         id="stop3741"
         style="stop-color:#ffffff;stop-opacity:0"
         offset="1" />
    </linearGradient>
    <linearGradient
       id="linearGradient3700">
      <stop
         id="stop3702"
         style="stop-color:#2276c5;stop-opacity:1"
         offset="0" />
      <stop
         id="stop3704"
         style="stop-color:#68baf4;stop-opacity:1"
         offset="1" />
    </linearGradient>
    <filter
       color-interpolation-filters="sRGB"
       id="filter3174">
      <feGaussianBlur
         id="feGaussianBlur3176"
         stdDeviation="1.71" />
    </filter>
    <filter
       x="-0.192"
       y="-0.192"
       width="1.3839999"
       height="1.3839999"
       color-interpolation-filters="sRGB"
       id="filter3794">
      <feGaussianBlur
         id="feGaussianBlur3796"
         stdDeviation="5.28" />
    </filter>
    <linearGradient
       x1="48"
       y1="20.220806"
       x2="48"
       y2="138.66119"
       id="linearGradient3613"
       xlink:href="#linearGradient3737"
       gradientUnits="userSpaceOnUse" />
    <clipPath
       id="clipPath3613">
      <rect
         width="84"
         height="84"
         rx="6"
         ry="6"
         x="6"
         y="6"
         id="rect3615"
         style="fill:#ffffff;fill-opacity:1;fill-rule:nonzero;stroke:none" />
    </clipPath>
    <linearGradient
       x1="45.447727"
       y1="92.539597"
       x2="45.447727"
       y2="7.0165396"
       id="ButtonShadow-0"
       gradientUnits="userSpaceOnUse"
       gradientTransform="matrix(1.0058652,0,0,0.994169,100,0)">
      <stop
         id="stop3750-8"
         style="stop-color:#000000;stop-opacity:1"
         offset="0" />
      <stop
         id="stop3752-5"
         style="stop-color:#000000;stop-opacity:0.58823532"
         offset="1" />
    </linearGradient>
    <linearGradient
       x1="48"
       y1="90"
       x2="48"
       y2="5.9877172"
       id="linearGradient3047"
       xlink:href="#linearGradient3700"
       gradientUnits="userSpaceOnUse"
       gradientTransform="translate(100,0)" />
    <linearGradient
       x1="72"
       y1="8"
       x2="72"
       y2="88"
       id="linearGradient3074"
       xlink:href="#linearGradient4110"
       gradientUnits="userSpaceOnUse" />
    <linearGradient
       x1="32"
       y1="6"
       x2="32"
       y2="90"
       id="linearGradient3872"
       xlink:href="#linearGradient4110"
       gradientUnits="userSpaceOnUse" />
    <radialGradient
       cx="48"
       cy="90.171875"
       r="42"
       fx="48"
       fy="90.171875"
       id="radialGradient3879"
       xlink:href="#linearGradient3737"
       gradientUnits="userSpaceOnUse"
       gradientTransform="matrix(1.1573129,0,0,0.99590774,-7.551021,0.19713193)" />
    <linearGradient
       x1="36.357143"
       y1="6"
       x2="36.357143"
       y2="63.893143"
       id="linearGradient3885"
       xlink:href="#linearGradient3737"
       gradientUnits="userSpaceOnUse" />
    <linearGradient
       x1="32"
       y1="26"
       x2="32"
       y2="84"
       id="linearGradient3901"
       xlink:href="#linearGradient3737"
       gradientUnits="userSpaceOnUse"
       gradientTransform="translate(0,-20)" />
    <linearGradient
       x1="48"
       y1="80"
       x2="48"
       y2="16"
       id="linearGradient3879"
       xlink:href="#linearGradient3873"
       gradientUnits="userSpaceOnUse" />
    <radialGradient
       cx="47.999981"
       cy="47.999424"
       r="34.937546"
       fx="47.999981"
       fy="47.999424"
       id="radialGradient3920"
       xlink:href="#linearGradient3914"
       gradientUnits="userSpaceOnUse"
       gradientTransform="matrix(1.3452582,-3.8835319e-8,3.3050848e-8,1.1448837,-16.572388,-6.9543292)" />
    <linearGradient
       x1="49"
       y1="91"
       x2="49"
       y2="7"
       id="linearGradient3920"
       xlink:href="#ButtonShadow-0"
       gradientUnits="userSpaceOnUse" />
    <linearGradient
       x1="38"
       y1="94"
       x2="38"
       y2="5"
       id="linearGradient3927"
       xlink:href="#ButtonShadow-0"
       gradientUnits="userSpaceOnUse" />
    <linearGradient
       x1="45"
       y1="95"
       x2="45"
       y2="4"
       id="linearGradient3929"
       xlink:href="#ButtonShadow-0"
       gradientUnits="userSpaceOnUse" />
    <linearGradient
       x1="50"
       y1="92"
       x2="50"
       y2="7"
       id="linearGradient3933"
       xlink:href="#ButtonShadow-0"
       gradientUnits="userSpaceOnUse" />
    <linearGradient
       x1="47"
       y1="93"
       x2="47"
       y2="6"
       id="linearGradient3940"
       xlink:href="#ButtonShadow-0"
       gradientUnits="userSpaceOnUse" />
    <linearGradient
       x1="32"
       y1="88"
       x2="32"
       y2="8"
       id="linearGradient3949"
       xlink:href="#linearGradient3856"
       gradientUnits="userSpaceOnUse" />
    <linearGradient
       x1="48"
       y1="80"
       x2="48"
       y2="16"
       id="linearGradient4018"
       xlink:href="#linearGradient4036"
       gradientUnits="userSpaceOnUse" />
    <radialGradient
       cx="47.999981"
       cy="47.999424"
       r="34.937546"
       fx="47.999981"
       fy="47.999424"
       id="radialGradient4020"
       xlink:href="#linearGradient3914"
       gradientUnits="userSpaceOnUse"
       gradientTransform="matrix(1.3452582,-3.8835319e-8,3.3050848e-8,1.1448837,-16.572388,-6.9543292)" />
    <linearGradient
       x1="32"
       y1="88"
       x2="32"
       y2="8"
       id="linearGradient4022"
       xlink:href="#linearGradient4030"
       gradientUnits="userSpaceOnUse" />
    <linearGradient
       id="linearGradient8074-2">
      <stop
         id="stop8076-1"
         style="stop-color:#000000;stop-opacity:0"
         offset="0" />
      <stop
         id="stop8078-94"
         style="stop-color:#000000;stop-opacity:1"
         offset="0.49305555" />
      <stop
         id="stop8080-0"
         style="stop-color:#000000;stop-opacity:0"
         offset="1" />
    </linearGradient>
    <linearGradient
       x1="-17"
       y1="-1194.6378"
       x2="144"
       y2="-1194.6378"
       id="linearGradient5188"
       xlink:href="#linearGradient8074-2"
       gradientUnits="userSpaceOnUse"
       gradientTransform="matrix(0.0458673,0,0,1,-271.91178,3045.2778)" />
    <linearGradient
       x1="-17"
       y1="-1194.6378"
       x2="144"
       y2="-1194.6378"
       id="linearGradient5193"
       xlink:href="#linearGradient8074-2"
       gradientUnits="userSpaceOnUse"
       gradientTransform="matrix(0.07453431,0,0,1,-655.73308,2938.2756)" />
    <linearGradient
       id="linearGradient8754">
      <stop
         id="stop8756"
         style="stop-color:#dc85e9;stop-opacity:1"
         offset="0" />
      <stop
         id="stop8758"
         style="stop-color:#f8dcfb;stop-opacity:1"
         offset="1" />
    </linearGradient>
    <linearGradient
       id="linearGradient8742">
      <stop
         id="stop8744"
         style="stop-color:#9200ff;stop-opacity:1"
         offset="0" />
      <stop
         id="stop8746"
         style="stop-color:#ff00ff;stop-opacity:0"
         offset="1" />
    </linearGradient>
    <linearGradient
       id="linearGradient8717">
      <stop
         id="stop8719"
         style="stop-color:#800080;stop-opacity:1"
         offset="0" />
      <stop
         id="stop8723"
         style="stop-color:#800080;stop-opacity:1"
         offset="0.7268371" />
      <stop
         id="stop8721"
         style="stop-color:#ff00ff;stop-opacity:0"
         offset="1" />
    </linearGradient>
    <linearGradient
       id="linearGradient8964">
      <stop
         id="stop8966"
         style="stop-color:#e196fb;stop-opacity:1"
         offset="0" />
      <stop
         id="stop8968"
         style="stop-color:#f4c7fa;stop-opacity:1"
         offset="0.13010512" />
      <stop
         id="stop8970"
         style="stop-color:#e091f3;stop-opacity:1"
         offset="0.31360075" />
      <stop
         id="stop8972"
         style="stop-color:#d764e9;stop-opacity:1"
         offset="0.44078669" />
      <stop
         id="stop8974"
         style="stop-color:#e7adf0;stop-opacity:1"
         offset="0.68364757" />
      <stop
         id="stop8976"
         style="stop-color:#e6a9f8;stop-opacity:1"
         offset="0.75620717" />
      <stop
         id="stop8978"
         style="stop-color:#e595f2;stop-opacity:1"
         offset="0.88021636" />
      <stop
         id="stop8980"
         style="stop-color:#f2cbf8;stop-opacity:1"
         offset="1" />
    </linearGradient>
    <linearGradient
       id="linearGradient8663">
      <stop
         id="stop8665"
         style="stop-color:#9207a7;stop-opacity:1"
         offset="0" />
      <stop
         id="stop8667"
         style="stop-color:#c658bc;stop-opacity:1"
         offset="0.27254906" />
      <stop
         id="stop8669"
         style="stop-color:#a42eb6;stop-opacity:1"
         offset="0.50966245" />
      <stop
         id="stop8671"
         style="stop-color:#b415cd;stop-opacity:1"
         offset="0.83376038" />
      <stop
         id="stop8673"
         style="stop-color:#950ba8;stop-opacity:1"
         offset="1" />
    </linearGradient>
    <linearGradient
       id="linearGradient14494">
      <stop
         id="stop14496"
         style="stop-color:#dc85e9;stop-opacity:1"
         offset="0" />
      <stop
         id="stop14498"
         style="stop-color:#f2cbf8;stop-opacity:1"
         offset="1" />
    </linearGradient>
    <linearGradient
       id="linearGradient8984">
      <stop
         id="stop8986"
         style="stop-color:#ffffff;stop-opacity:1"
         offset="0" />
      <stop
         id="stop8988"
         style="stop-color:#ffffff;stop-opacity:0"
         offset="1" />
    </linearGradient>
    <linearGradient
       x1="26.993208"
       y1="992.62183"
       x2="26.993208"
       y2="1008.6921"
       id="linearGradient21863"
       xlink:href="#linearGradient14486-9"
       gradientUnits="userSpaceOnUse"
       gradientTransform="matrix(15.9995,0,0,15.9955,-279.247,-17311.2)" />
    <linearGradient
       id="linearGradient14486-9">
      <stop
         id="stop14488-1"
         style="stop-color:#8e03a3;stop-opacity:1"
         offset="0" />
      <stop
         id="stop14490-5"
         style="stop-color:#530260;stop-opacity:1"
         offset="1" />
    </linearGradient>
    <linearGradient
       x1="26.993208"
       y1="992.62183"
       x2="26.993208"
       y2="1008.6921"
       id="linearGradient21859"
       xlink:href="#linearGradient14486-9"
       gradientUnits="userSpaceOnUse"
       gradientTransform="matrix(15.9995,0,0,15.9955,-279.247,-17311.2)" />
    <linearGradient
       x1="26.993208"
       y1="992.62183"
       x2="26.993208"
       y2="1008.6921"
       id="linearGradient21861"
       xlink:href="#linearGradient14486-9"
       gradientUnits="userSpaceOnUse"
       gradientTransform="matrix(15.9995,0,0,15.9955,-279.247,-17311.2)" />
    <radialGradient
       cx="152.3331"
       cy="-754.6377"
       r="15"
       fx="152.3331"
       fy="-754.6377"
       id="radialGradient4155"
       xlink:href="#linearGradient8717"
       gradientUnits="userSpaceOnUse"
       gradientTransform="matrix(1.2696438e-6,0.47379733,-1.3366718,0,-960.75315,-7.278409)" />
    <linearGradient
       x1="1199.2002"
       y1="-1083.6361"
       x2="1199.2002"
       y2="-1131.6356"
       id="linearGradient4301"
       xlink:href="#linearGradient8754"
       gradientUnits="userSpaceOnUse"
       gradientTransform="matrix(0.85714285,0,0,0.66667325,-990.28584,794.43123)" />
    <linearGradient
       x1="1559.5"
       y1="184"
       x2="1542.0002"
       y2="184"
       id="linearGradient4323"
       xlink:href="#linearGradient8742"
       gradientUnits="userSpaceOnUse"
       gradientTransform="matrix(0.53333333,0,0,4.25,-762.93333,-952.25935)" />
    <linearGradient
       x1="1559.5"
       y1="184"
       x2="1542.0002"
       y2="184"
       id="linearGradient4328"
       xlink:href="#linearGradient8742"
       gradientUnits="userSpaceOnUse"
       gradientTransform="matrix(-0.53333333,0,0,4.25,858.93333,-952.25935)" />
    <linearGradient
       x1="453.50003"
       y1="970.5"
       x2="404.49997"
       y2="970.5"
       id="linearGradient4448"
       xlink:href="#linearGradient8964"
       gradientUnits="userSpaceOnUse"
       gradientTransform="matrix(0.59554669,0,0,0.59554669,-207.49419,-524.27124)" />
    <linearGradient
       x1="453.50003"
       y1="970.5"
       x2="404.49997"
       y2="970.5"
       id="linearGradient4460"
       xlink:href="#linearGradient8964"
       gradientUnits="userSpaceOnUse"
       gradientTransform="matrix(0.59554669,0,0,0.59554669,-207.49419,-524.91132)" />
    <linearGradient
       x1="453.50003"
       y1="970.5"
       x2="404.49997"
       y2="970.5"
       id="linearGradient4462"
       xlink:href="#linearGradient8964"
       gradientUnits="userSpaceOnUse"
       gradientTransform="matrix(0.59554669,0,0,0.59554669,-207.49419,-525.5514)" />
    <linearGradient
       x1="453.50003"
       y1="970.5"
       x2="404.49997"
       y2="970.5"
       id="linearGradient4482"
       xlink:href="#linearGradient8663"
       gradientUnits="userSpaceOnUse"
       gradientTransform="matrix(0.59554669,0,0,0.59554669,-207.49419,-526.17287)" />
    <radialGradient
       cx="47.995335"
       cy="46.440277"
       r="13.995334"
       fx="47.995335"
       fy="46.440277"
       id="radialGradient4484"
       xlink:href="#linearGradient14494"
       gradientUnits="userSpaceOnUse"
       gradientTransform="matrix(1,0,0,0.25495832,0,34.599943)" />
    <linearGradient
       x1="1510.4767"
       y1="169.00002"
       x2="1485.8766"
       y2="193.9996"
       id="linearGradient4488"
       xlink:href="#linearGradient8984"
       gradientUnits="userSpaceOnUse"
       gradientTransform="matrix(0.39211044,0,0,0.30769216,-538.81119,-9.3084927)" />
    <linearGradient
       x1="34"
       y1="50.26075"
       x2="62"
       y2="50.26075"
       id="linearGradient4514"
       xlink:href="#linearGradient4508"
       gradientUnits="userSpaceOnUse" />
    <linearGradient
       x1="34"
       y1="50.26075"
       x2="62"
       y2="50.26075"
       id="linearGradient4518"
       xlink:href="#linearGradient4508"
       gradientUnits="userSpaceOnUse"
       gradientTransform="translate(0,6)" />
    <linearGradient
       x1="34"
       y1="50.26075"
       x2="62"
       y2="50.26075"
       id="linearGradient4522"
       xlink:href="#linearGradient4508"
       gradientUnits="userSpaceOnUse"
       gradientTransform="translate(0,12)" />
    <linearGradient
       inkscape:collect="always"
       xlink:href="#linearGradient3856"
       id="linearGradient3162"
       gradientUnits="userSpaceOnUse"
       x1="32"
       y1="88"
       x2="32"
       y2="8" />
    <radialGradient
       inkscape:collect="always"
       xlink:href="#linearGradient3914"
       id="radialGradient3164"
       gradientUnits="userSpaceOnUse"
       gradientTransform="matrix(1.3452582,-3.8835319e-8,3.3050848e-8,1.1448837,-16.572388,-6.9543292)"
       cx="47.999981"
       cy="47.999424"
       fx="47.999981"
       fy="47.999424"
       r="34.937546" />
    <linearGradient
       inkscape:collect="always"
       xlink:href="#linearGradient3873"
       id="linearGradient3166"
       gradientUnits="userSpaceOnUse"
       x1="48"
       y1="80"
       x2="48"
       y2="16" />
    <linearGradient
       inkscape:collect="always"
       xlink:href="#linearGradient3856"
       id="linearGradient3168"
       gradientUnits="userSpaceOnUse"
       x1="32"
       y1="88"
       x2="32"
       y2="8" />
    <radialGradient
       inkscape:collect="always"
       xlink:href="#linearGradient3914"
       id="radialGradient3170"
       gradientUnits="userSpaceOnUse"
       gradientTransform="matrix(1.3452582,-3.8835319e-8,3.3050848e-8,1.1448837,-16.572388,-6.9543292)"
       cx="47.999981"
       cy="47.999424"
       fx="47.999981"
       fy="47.999424"
       r="34.937546" />
    <linearGradient
       inkscape:collect="always"
       xlink:href="#linearGradient8074-2"
       id="linearGradient3934"
       gradientUnits="userSpaceOnUse"
       gradientTransform="matrix(0.07453431,0,0,1,-655.73308,2938.2756)"
       x1="-17"
       y1="-1194.6378"
       x2="144"
       y2="-1194.6378" />
    <linearGradient
       inkscape:collect="always"
       xlink:href="#linearGradient8074-2"
       id="linearGradient3936"
       gradientUnits="userSpaceOnUse"
       gradientTransform="matrix(0.0458673,0,0,1,-271.91178,3045.2778)"
       x1="-17"
       y1="-1194.6378"
       x2="144"
       y2="-1194.6378" />
    <linearGradient
       inkscape:collect="always"
       xlink:href="#linearGradient8074-2"
       id="linearGradient3960"
       gradientUnits="userSpaceOnUse"
       gradientTransform="matrix(0.0458673,0,0,1,-271.91178,3045.2778)"
       x1="-17"
       y1="-1194.6378"
       x2="144"
       y2="-1194.6378" />
    <linearGradient
       inkscape:collect="always"
       xlink:href="#linearGradient8074-2"
       id="linearGradient3963"
       gradientUnits="userSpaceOnUse"
       gradientTransform="matrix(0.07453431,0,0,1,-655.73308,2938.2756)"
       x1="-17"
       y1="-1194.6378"
       x2="144"
       y2="-1194.6378" />
  </defs>
  <metadata
     id="metadata2413">
    <rdf:RDF>
      <cc:Work
         rdf:about="">
        <dc:format>image/svg+xml</dc:format>
        <dc:type
           rdf:resource="http://purl.org/dc/dcmitype/StillImage" />
        <dc:title></dc:title>
      </cc:Work>
    </rdf:RDF>
  </metadata>
  <rect
     style="fill:#8e44ad;fill-opacity:1;fill-rule:evenodd;stroke:none"
     id="rect3160"
     width="85.359764"
     height="85.719429"
     x="4.5557179"
     y="4.0464268"
     rx="1.9788908e-07" />
  <g
     id="layer2"
     style="display:none">
    <rect
       width="86"
       height="85"
       rx="6"
       ry="6"
       x="5"
       y="7"
       id="rect3745"
       style="opacity:0.9;fill:url(#ButtonShadow);fill-opacity:1;fill-rule:nonzero;stroke:none;filter:url(#filter3174)" />
  </g>
  <g
     id="layer7"
     style="display:none">
    <path
       d="m 14,12.03125 c -1.155927,0 -1.96875,0.812823 -1.96875,1.96875 l 0,9 0,33 0,17 0,8.28125 0,0.71875 c 0,1.077732 0.717552,1.836973 1.75,1.9375 0.07491,0.0073 0.140555,0.03125 0.21875,0.03125 l 5,0 58,0 5,0 c 0.07224,0 0.1493,-0.0086 0.21875,-0.03125 1.032448,-0.100527 1.75,-0.859768 1.75,-1.9375 l 0,-0.71875 0,-8.28125 0,-17 0,-16.0625 C 74.652678,30.64918 65.364507,21.333257 56.0625,12.03125 l -41.34375,0 -0.71875,0 z"
       inkscape:connector-curvature="0"
       id="path4006"
       style="fill:url(#linearGradient4022);fill-opacity:1;fill-rule:nonzero;stroke:none;display:inline" />
    <path
       d="M 17.90625,17.0625 C 17.446299,17.10552 17.057,17.538075 17.0625,18 l 0,9 0,42 0,9 c -0.0037,0.491884 0.445616,0.941233 0.9375,0.9375 l 5,0 55,0 C 78.491884,78.9412 78.941233,78.491884 78.9375,78 l 0,-9 0,-27.40625 C 78.9348,41.349509 78.83124,41.10791 78.65625,40.9375 L 55.0625,17.34375 C 54.89209,17.16876 54.650491,17.065218 54.40625,17.0625 L 18,17.0625 c -0.03122,-0.0016 -0.06253,-0.0016 -0.09375,0 z"
       inkscape:connector-curvature="0"
       id="path4008"
       style="opacity:0.6;fill:url(#radialGradient4020);fill-opacity:1;fill-rule:nonzero;stroke:none;display:inline" />
    <path
       d="m 18,18 0,9 0,42 0,9 5,0 55,0 0,-9 L 78,41.59375 54.40625,18 z"
       inkscape:connector-curvature="0"
       id="path4010"
       style="fill:url(#linearGradient4018);fill-opacity:1;fill-rule:nonzero;stroke:none;display:inline" />
    <path
       d="m 18,18 0,9 0,42 0,9 5,0 55,0 0,-9 L 78,41.59375 54.40625,18 z m 1,1 35.03125,0 L 77,41.96875 77,69 l 0,8 -54,0 -4,0 0,-8 0,-42 z"
       inkscape:connector-curvature="0"
       id="path4012"
       style="opacity:0.5;fill:#ffffff;fill-opacity:1;fill-rule:nonzero;stroke:none;display:inline" />
    <path
       d="m 14,12.03125 c -1.155927,0 -1.96875,0.812823 -1.96875,1.96875 l 0,9 0,33 0,17 0,8.28125 0,0.71875 c 0,1.077732 0.717552,1.836973 1.75,1.9375 0.07491,0.0073 0.140555,0.03125 0.21875,0.03125 l 5,0 58,0 5,0 c 0.07224,0 0.1493,-0.0086 0.21875,-0.03125 1.032448,-0.100527 1.75,-0.859768 1.75,-1.9375 l 0,-0.71875 0,-8.28125 0,-17 0,-16.0625 C 74.652678,30.64918 65.364507,21.333257 56.0625,12.03125 l -41.34375,0 -0.71875,0 z M 14,13 l 0.71875,0 40.9375,0 C 64.769843,22.114133 73.870942,31.240801 83,40.34375 L 83,56 83,73 83,81.28125 83,82 c 0,0.648416 -0.267049,0.909555 -0.875,0.96875 A 0.96731774,0.96731774 0 0 0 82,83 l -5,0 -58,0 -5,0 c 0.119302,0 0.09888,-0.0094 -0.125,-0.03125 C 13.267049,82.909555 13,82.648416 13,82 L 13,81.28125 13,73 13,56 13,23 13,14 c 0,-0.702508 0.297492,-1 1,-1 z"
       inkscape:connector-curvature="0"
       id="path4014"
       style="opacity:0.1;fill:#000000;fill-opacity:1;fill-rule:nonzero;stroke:none;display:inline" />
    <path
       d="m 14,12.03125 c -1.155927,0 -1.96875,0.812823 -1.96875,1.96875 l 0,1 c 0,-1.155927 0.812823,-1.96875 1.96875,-1.96875 l 0.71875,0 41.34375,0 c 9.302007,9.302007 18.590178,18.61793 27.90625,27.90625 l 0,-1 C 74.652678,30.64918 65.364507,21.333257 56.0625,12.03125 l -41.34375,0 -0.71875,0 z"
       inkscape:connector-curvature="0"
       id="path4016"
       style="opacity:0.2;fill:#117002;fill-opacity:1;fill-rule:nonzero;stroke:none;display:inline" />
  </g>
  <g
     id="layer5"
     style="display:none">
    <rect
       width="66"
       height="66"
       rx="12"
       ry="12"
       x="15"
       y="15"
       clip-path="url(#clipPath3613)"
       id="rect3171"
       style="opacity:0.1;fill:url(#linearGradient3613);fill-opacity:1;fill-rule:nonzero;stroke:#ffffff;stroke-width:0.5;stroke-linecap:round;stroke-linejoin:miter;stroke-miterlimit:4;stroke-opacity:1;stroke-dasharray:none;stroke-dashoffset:0;filter:url(#filter3794)" />
  </g>
  <rect
     style="opacity:0.5;color:#000000;fill:url(#linearGradient3963);fill-opacity:1;fill-rule:nonzero;stroke:none;stroke-width:1;marker:none;visibility:visible;display:inline;overflow:visible"
     id="use9342"
     y="1743.6378"
     x="-657"
     height="1.0000159"
     width="12" />
  <rect
     style="opacity:0.5;color:#000000;fill:url(#linearGradient3960);fill-opacity:1;fill-rule:nonzero;stroke:none;stroke-width:1;marker:none;visibility:visible;display:inline;overflow:visible"
     id="use9314"
     transform="matrix(0,1,-1,0,0,0)"
     y="1850.64"
     x="-272.69141"
     height="1.0000159"
     width="7.3846202" />
  <use
     xlink:href="#use9311"
     height="1085"
     width="5033"
     y="0"
     x="0"
     id="use14790"
     transform="translate(-230,1516.64)" />
  <use
     xlink:href="#path6866"
     height="1085"
     width="5033"
     y="0"
     x="0"
     id="use14792"
     transform="translate(-230,1516.64)" />
  <use
     xlink:href="#path6868"
     height="1085"
     width="5033"
     y="0"
     x="0"
     id="use14794"
     transform="translate(-230,1516.64)" />
  <use
     xlink:href="#path6960"
     height="1085"
     width="5033"
     y="0"
     x="0"
     id="use14796"
     transform="translate(-230,1516.64)" />
  <use
     xlink:href="#rect7927"
     height="1085"
     width="5033"
     y="0"
     x="0"
     id="use14798"
     transform="translate(-230,1516.64)" />
  <use
     xlink:href="#rect8070"
     height="1085"
     width="5033"
     y="0"
     x="0"
     id="use14800"
     transform="translate(-230,1516.64)" />
  <use
     xlink:href="#rect8098"
     height="1085"
     width="5033"
     y="0"
     x="0"
     id="use14802"
     transform="translate(-230,1516.64)" />
  <use
     xlink:href="#rect7221"
     height="1085"
     width="5033"
     y="0"
     x="0"
     id="use14804"
     transform="translate(-230,1516.64)" />
  <use
     xlink:href="#rect7225"
     height="1085"
     width="5033"
     y="0"
     x="0"
     id="use14806"
     transform="translate(-230,1516.64)" />
  <use
     xlink:href="#path7319"
     height="1085"
     width="5033"
     y="0"
     x="0"
     id="use14808"
     transform="translate(-230,1516.64)" />
  <use
     xlink:href="#path7323"
     height="1085"
     width="5033"
     y="0"
     x="0"
     id="use14810"
     transform="translate(-230,1516.64)" />
  <use
     xlink:href="#rect7436"
     height="1085"
     width="5033"
     y="0"
     x="0"
     id="use14812"
     transform="translate(-230,1516.64)" />
  <use
     xlink:href="#rect7438"
     height="1085"
     width="5033"
     y="0"
     x="0"
     id="use14814"
     transform="translate(-230,1516.64)" />
  <use
     xlink:href="#rect7440"
     height="1085"
     width="5033"
     y="0"
     x="0"
     id="use14816"
     transform="translate(-230,1516.64)" />
  <use
     xlink:href="#rect9509"
     height="1085"
     width="5033"
     y="0"
     x="0"
     id="use14818"
     transform="translate(-230,1516.64)" />
  <use
     xlink:href="#rect9521"
     height="1085"
     width="5033"
     y="0"
     x="0"
     id="use14820"
     transform="translate(-230,1516.64)" />
  <use
     xlink:href="#use14642"
     height="1085"
     width="5033"
     y="0"
     x="0"
     id="use14822"
     transform="translate(-230,1516.64)" />
  <use
     xlink:href="#use14644"
     height="1085"
     width="5033"
     y="0"
     x="0"
     id="use14824"
     transform="translate(-230,1516.64)" />
  <g
     transform="translate(5.455766,5.587004)"
     id="g3110">
    <path
       style="fill:#b5b5b5;fill-opacity:1;stroke-width:0;stroke-miterlimit:4"
       inkscape:connector-curvature="0"
       d="m 46.239055,16.641006 c -0.311445,2.244733 -2.316931,3.979513 -4.745867,3.979513 -2.30551,2e-6 -4.233116,-1.560529 -4.689272,-3.638854 -1.689317,0.348314 -3.318455,0.848567 -4.875226,1.482639 0.853179,2.077443 0.01776,4.498302 -2.061662,5.647966 -1.930745,1.067466 -4.319031,0.703762 -5.813081,-0.750997 -1.047805,0.932936 -2.022859,1.943688 -2.90654,3.023346 1.860326,1.383547 2.415454,3.906807 1.204657,5.915073 -1.154815,1.915415 -3.536702,2.734323 -5.647338,2.067179 -0.505837,1.489024 -0.876935,3.036773 -1.095511,4.629861 2.424479,0.226116 4.321406,2.183198 4.321406,4.564052 2e-6,2.242743 -1.683255,4.107807 -3.905031,4.505985 0.165315,0.713405 0.356955,1.415798 0.582116,2.10589 0.434598,-0.10956 0.879012,-0.160452 1.317847,-0.150974 1.617974,0.03495 3.178735,0.85624 4.046519,2.295575 1.181167,1.959123 0.680902,4.407407 -1.071256,5.810553 0.977651,1.232294 2.066976,2.379461 3.254193,3.425942 0.902715,-1.047146 2.228596,-1.635096 3.593761,-1.664582 0.84751,-0.0183 1.706899,0.180218 2.494208,0.615508 2.182995,1.206928 2.997409,3.812926 1.924218,5.953785 1.484338,0.588493 3.033784,1.055357 4.63672,1.385861 0.456156,-2.078324 2.383762,-3.638854 4.689272,-3.638854 2.428932,0 4.434418,1.734777 4.745867,3.979513 1.451461,-0.189466 2.867224,-0.486227 4.236515,-0.886487 -0.716336,-2.028854 0.13605,-4.327362 2.146555,-5.438925 0.715735,-0.395717 1.49547,-0.592554 2.267829,-0.611637 1.552823,-0.03836 3.076825,0.650733 4.022267,1.920076 1.380813,-1.000701 2.658891,-2.125979 3.816097,-3.356262 -1.659791,-1.416626 -2.113125,-3.801835 -0.958066,-5.717647 0.867781,-1.439334 2.428541,-2.260625 4.046518,-2.295574 0.645422,-0.01394 1.300975,0.09816 1.924219,0.344529 0.559243,-1.325935 1.0075,-2.706862 1.334017,-4.130486 -2.082373,-0.498403 -3.626101,-2.303767 -3.626101,-4.451789 0,-2.284491 1.747171,-4.17975 4.030348,-4.529212 -0.31675,-2.333413 -0.956851,-4.568804 -1.875709,-6.666071 -2.235,1.025412 -4.953556,0.246779 -6.213285,-1.842654 -1.177711,-1.953385 -0.681276,-4.393802 1.059129,-5.79894 -1.044806,-1.077657 -2.183222,-2.073255 -3.403765,-2.96915 -1.469046,1.656577 -4.00872,2.127605 -6.043506,1.002621 -1.912379,-1.05731 -2.776241,-3.189207 -2.239531,-5.140849 -1.458537,-0.443469 -2.970119,-0.772769 -4.523531,-0.975523 z m -3.694823,16.568399 c 0.165765,0 0.329469,0.0037 0.493182,0.01161 0.654841,0.03185 1.294137,0.127233 1.908049,0.278721 0.153483,0.03785 0.306379,0.07904 0.4568,0.123876 0.300832,0.08973 0.593888,0.193147 0.881259,0.30969 0.143694,0.05823 0.284631,0.120828 0.42446,0.185814 0.06991,0.03249 0.141262,0.06657 0.210209,0.100649 0.0096,0.0047 0.01868,0.01073 0.0283,0.01548 0.09379,0.04643 0.186976,0.09397 0.278931,0.143232 0.101243,0.0545 0.200079,0.108795 0.299144,0.166458 0.264158,0.153858 0.521408,0.318705 0.76807,0.495503 0.0925,0.06626 0.184867,0.135853 0.274888,0.20517 0.0553,0.04268 0.11146,0.08393 0.165742,0.127747 0.07329,0.059 0.142849,0.120911 0.214251,0.181943 0.13382,0.114387 0.265437,0.230959 0.39212,0.352272 0.08153,0.07811 0.159985,0.159154 0.238506,0.240009 0.0013,0.0014 0.0027,0.0025 0.004,0.0039 0.03631,0.03743 0.07349,0.07426 0.109147,0.112263 0.0915,0.09754 0.179693,0.196848 0.266804,0.298076 0.02445,0.02842 0.04866,0.05646 0.07276,0.08516 0.07262,0.08631 0.144866,0.174408 0.214251,0.263236 0.08646,0.110894 0.169338,0.222113 0.250634,0.336787 0.113564,0.160194 0.224289,0.324421 0.32744,0.491633 0.05878,0.09521 0.114527,0.192966 0.169784,0.290334 0.147993,0.260771 0.282626,0.526117 0.404248,0.801322 0.05331,0.120549 0.105601,0.240754 0.153614,0.363885 0.0049,0.01257 0.0073,0.02611 0.01212,0.03871 0.04264,0.110821 0.08302,0.223999 0.121274,0.336787 0.0053,0.01549 0.011,0.03093 0.01617,0.04645 0.01488,0.0447 0.02624,0.0905 0.04042,0.135489 0.03484,0.110497 0.07049,0.220711 0.101062,0.332916 0.0084,0.03088 0.01617,0.0619 0.02425,0.09291 0.0207,0.07929 0.03805,0.159918 0.05659,0.24001 0.02288,0.09883 0.04515,0.198081 0.06468,0.298076 10e-4,0.0052 0.003,0.01026 0.004,0.01548 0.0017,0.009 0.0023,0.01813 0.004,0.0271 0.02198,0.115548 0.04322,0.231398 0.06064,0.348401 0.0012,0.0078 0.0029,0.01542 0.004,0.02323 0.0037,0.02561 0.0046,0.05174 0.0081,0.07742 0.01482,0.10807 0.02956,0.215967 0.04042,0.325175 0.01349,0.135723 0.02506,0.273003 0.03234,0.410338 0.0082,0.155514 0.01212,0.314827 0.01212,0.472277 0,0.317477 -0.01569,0.627586 -0.04851,0.936812 -1.29e-4,0.0013 1.29e-4,0.0026 0,0.0039 -0.01635,0.153317 -0.03652,0.305791 -0.06064,0.456792 -2.59e-4,0.0013 2.59e-4,0.0026 0,0.0039 -0.02418,0.150981 -0.05314,0.300575 -0.08489,0.44905 -2.59e-4,0.0012 2.59e-4,0.0026 0,0.0039 -0.01591,0.07423 -0.03414,0.147106 -0.05255,0.220654 -0.0178,0.07371 -0.03696,0.147628 -0.0566,0.220654 -3.88e-4,0.0012 3.88e-4,0.0027 0,0.0039 -0.03926,0.145748 -0.08293,0.2907 -0.129359,0.433565 -3.88e-4,0.0012 3.88e-4,0.0027 0,0.0039 -0.09337,0.286874 -0.20227,0.569818 -0.323398,0.843904 -0.121623,0.275206 -0.256256,0.54055 -0.404248,0.801323 -5.17e-4,9.91e-4 5.18e-4,0.0029 0,0.0039 -0.147528,0.259729 -0.308961,0.511 -0.481055,0.754869 -6.46e-4,8.67e-4 6.47e-4,0.003 0,0.0039 -0.0858,0.12149 -0.175204,0.238875 -0.266803,0.356143 -6.47e-4,8.67e-4 6.47e-4,0.003 0,0.0039 -0.09167,0.117275 -0.189744,0.231674 -0.287016,0.34453 -6.47e-4,7.43e-4 6.47e-4,0.0031 0,0.0039 -0.391279,0.453669 -0.827799,0.871951 -1.301677,1.246501 -0.474624,0.375136 -0.987501,0.707602 -1.532098,0.991007 -0.272316,0.141719 -0.553448,0.270645 -0.840835,0.387112 -0.287372,0.116451 -0.580427,0.220033 -0.88126,0.30969 -0.15042,0.04483 -0.303316,0.08603 -0.4568,0.123876 -0.613912,0.151359 -1.253208,0.246904 -1.908049,0.27872 -0.163713,0.008 -0.327417,0.01161 -0.493182,0.01161 -0.165766,0 -0.32947,-0.0037 -0.493182,-0.01161 -0.654842,-0.03185 -1.294137,-0.127233 -1.908048,-0.27872 -0.153485,-0.03784 -0.30638,-0.07904 -0.4568,-0.123876 -0.300834,-0.08973 -0.59389,-0.193145 -0.88126,-0.30969 -0.287387,-0.116467 -0.568521,-0.245393 -0.840835,-0.387112 -0.136149,-0.0709 -0.268127,-0.147594 -0.400205,-0.224525 -0.13208,-0.07693 -0.263954,-0.157465 -0.39212,-0.24001 -0.127816,-0.08271 -0.252612,-0.167147 -0.37595,-0.255494 -0.246683,-0.176695 -0.483902,-0.363227 -0.711476,-0.561312 -0.113068,-0.09842 -0.223431,-0.202406 -0.331483,-0.305819 -0.109428,-0.104724 -0.215275,-0.207778 -0.319356,-0.317432 -6.47e-4,-7.43e-4 6.47e-4,-0.0032 0,-0.0039 -0.103419,-0.109015 -0.20525,-0.219229 -0.303185,-0.332916 -0.09794,-0.113635 -0.194759,-0.23029 -0.287016,-0.348401 -0.09225,-0.118164 -0.18044,-0.237568 -0.266804,-0.360014 -0.172745,-0.244793 -0.333062,-0.497969 -0.481054,-0.75874 -0.14799,-0.260772 -0.282627,-0.526117 -0.404248,-0.801322 -5.17e-4,-0.0011 5.18e-4,-0.0028 0,-0.0039 -0.06032,-0.136541 -0.120291,-0.274407 -0.173826,-0.41421 -3.88e-4,-0.0011 3.88e-4,-0.0027 0,-0.0039 -0.05391,-0.140956 -0.102761,-0.281746 -0.149572,-0.425823 -0.04581,-0.140934 -0.08646,-0.282165 -0.125317,-0.425824 -0.0028,-0.01029 -0.0053,-0.02067 -0.0081,-0.03097 -0.03485,-0.130768 -0.06808,-0.265822 -0.09702,-0.398725 -0.0073,-0.0334 -0.01334,-0.06712 -0.02021,-0.100649 -0.01935,-0.09421 -0.04028,-0.187372 -0.0566,-0.282592 -0.0082,-0.04769 -0.01686,-0.0953 -0.02425,-0.143232 -5.17e-4,-0.0038 5.17e-4,-0.0078 0,-0.01161 -0.01929,-0.125944 -0.03463,-0.251794 -0.04851,-0.37937 -0.0024,-0.02201 -0.0058,-0.04375 -0.0081,-0.06581 -0.0132,-0.130536 -0.02089,-0.262722 -0.0283,-0.394854 -6.47e-4,-0.01046 -0.0035,-0.0205 -0.004,-0.03097 -0.0083,-0.156777 -0.01212,-0.313539 -0.01212,-0.472277 0,-0.158739 0.0038,-0.315504 0.01212,-0.472277 0.0079,-0.155215 0.02004,-0.310581 0.03638,-0.464534 1.3e-4,-0.0013 -1.29e-4,-0.0026 0,-0.0039 0.01628,-0.153334 0.03659,-0.305774 0.06064,-0.456792 2.59e-4,-0.0013 -2.58e-4,-0.0026 0,-0.0039 0.02411,-0.150998 0.0532,-0.300557 0.08489,-0.44905 2.59e-4,-0.0012 -2.58e-4,-0.0026 0,-0.0039 0.03175,-0.148479 0.07002,-0.295525 0.109147,-0.441308 2.59e-4,-0.0012 -3.88e-4,-0.0027 0,-0.0039 0.03919,-0.145769 0.08299,-0.290682 0.129359,-0.433566 3.89e-4,-0.0011 -3.88e-4,-0.0027 0,-0.0039 0.04681,-0.14404 0.09566,-0.284909 0.149572,-0.425823 0.04039,-0.105579 0.08508,-0.209831 0.129359,-0.313561 0.005,-0.01177 0.0111,-0.02309 0.01617,-0.03484 0.02177,-0.05039 0.04201,-0.101035 0.06468,-0.150974 0.03496,-0.07692 0.07206,-0.152584 0.109147,-0.228396 0.0254,-0.05199 0.05042,-0.103387 0.07681,-0.154845 0.05811,-0.113222 0.119059,-0.226037 0.181911,-0.336787 5.18e-4,-9.91e-4 -5.17e-4,-0.0029 0,-0.0039 0.07399,-0.130378 0.150144,-0.256761 0.230421,-0.383241 0.08086,-0.127392 0.163598,-0.252258 0.250634,-0.375499 0.08575,-0.121513 0.175254,-0.238852 0.266803,-0.356143 6.47e-4,-8.67e-4 -6.47e-4,-0.0031 0,-0.0039 0.09162,-0.117294 0.189791,-0.231652 0.287016,-0.34453 6.47e-4,-7.43e-4 -6.47e-4,-0.0031 0,-0.0039 0.09793,-0.113627 0.199767,-0.223962 0.303186,-0.332916 0.310279,-0.326891 0.642496,-0.632207 0.998491,-0.913585 0.474623,-0.375135 0.987501,-0.707602 1.532099,-0.991007 0.272314,-0.141715 0.553448,-0.270646 0.840835,-0.387112 0.28737,-0.116452 0.580425,-0.220031 0.881259,-0.30969 0.150421,-0.04483 0.303315,-0.08603 0.4568,-0.123875 0.613912,-0.151361 1.253206,-0.246902 1.908049,-0.278721 0.163712,-0.008 0.327416,-0.01161 0.493182,-0.01161 z"
       id="path2274"
       stroke-miterlimit="4" />
    <path
       style="fill:#b5b5b5;fill-opacity:1;stroke-width:0;stroke-miterlimit:4"
       inkscape:connector-curvature="0"
       d="m 42.54221,21.2128 c -12.220676,2e-6 -22.136596,9.499471 -22.136596,21.202132 0,11.702659 9.91592,21.19826 22.136596,21.19826 12.220678,7e-6 22.140637,-9.495601 22.140637,-21.19826 0,-11.702661 -9.919959,-21.202132 -22.140637,-21.202132 z m 0.004,11.996605 c 0.165765,0 0.329471,0.0037 0.493182,0.01161 0.654843,0.03185 1.294137,0.127233 1.908049,0.278721 0.153483,0.03785 0.30638,0.07904 0.4568,0.123876 0.300832,0.08973 0.593888,0.193147 0.88126,0.30969 0.431076,0.174699 0.844783,0.380991 1.24104,0.611637 0.264154,0.153858 0.521408,0.318705 0.76807,0.495503 0.370021,0.265048 0.72088,0.554833 1.047001,0.867132 0.652193,0.624909 1.209447,1.338794 1.653373,2.121374 0.147992,0.260771 0.282627,0.526117 0.404248,0.801322 0.426478,0.964381 0.685606,2.013698 0.743815,3.112382 0.0082,0.155513 0.01212,0.314826 0.01212,0.472276 0,0.317477 -0.01568,0.627587 -0.04851,0.936812 -1.29e-4,0.0013 1.3e-4,0.0026 0,0.0039 -0.01634,0.153317 -0.03652,0.305791 -0.06064,0.456792 -2.58e-4,0.0013 2.59e-4,0.0026 0,0.0039 -0.02418,0.150981 -0.05314,0.300575 -0.08489,0.44905 -2.58e-4,0.0012 2.59e-4,0.0026 0,0.0039 -0.03182,0.148459 -0.06995,0.295543 -0.109147,0.441308 -2.58e-4,0.0012 3.89e-4,0.0027 0,0.0039 -0.03926,0.145748 -0.08292,0.2907 -0.129359,0.433565 -3.88e-4,0.0012 3.88e-4,0.0027 0,0.0039 -0.187126,0.574914 -0.432264,1.124742 -0.727645,1.645227 -5.18e-4,9.91e-4 5.17e-4,0.0029 0,0.0039 -0.147527,0.259728 -0.308962,0.510999 -0.481055,0.754868 -6.47e-4,8.67e-4 6.47e-4,0.003 0,0.0039 -0.0858,0.12149 -0.175204,0.238875 -0.266803,0.356143 -6.47e-4,8.68e-4 6.46e-4,0.003 0,0.0039 -0.09167,0.117275 -0.189745,0.231674 -0.287016,0.34453 -6.47e-4,7.43e-4 6.47e-4,0.0031 0,0.0039 -0.195315,0.22646 -0.4018,0.442835 -0.618499,0.650348 -0.10936,0.104788 -0.221017,0.206152 -0.335526,0.305819 -0.113785,0.09904 -0.228987,0.196543 -0.347653,0.290334 -0.474624,0.375136 -0.987501,0.707603 -1.532098,0.991007 -0.272314,0.141719 -0.553448,0.270645 -0.840835,0.387112 -0.287371,0.116451 -0.580427,0.220034 -0.88126,0.30969 -0.15042,0.04484 -0.303316,0.08603 -0.456799,0.123876 -0.613912,0.151359 -1.253207,0.246904 -1.908049,0.278721 -0.163712,0.008 -0.327417,0.01161 -0.493182,0.01161 -0.165765,0 -0.329469,-0.0037 -0.493182,-0.01161 -0.654841,-0.03185 -1.294137,-0.127233 -1.908049,-0.278721 -0.153483,-0.03784 -0.306376,-0.07904 -0.4568,-0.123876 -0.300832,-0.08973 -0.593888,-0.193145 -0.881259,-0.30969 -0.431077,-0.174699 -0.84478,-0.380991 -1.241041,-0.611637 -0.264154,-0.153859 -0.521404,-0.318707 -0.76807,-0.495503 -0.494173,-0.353978 -0.948067,-0.751735 -1.362314,-1.188435 -0.103419,-0.109015 -0.205251,-0.219229 -0.303186,-0.332916 -0.391776,-0.454539 -0.738892,-0.945613 -1.034874,-1.467155 -0.147988,-0.260772 -0.282625,-0.526117 -0.404247,-0.801322 -5.18e-4,-0.0011 5.17e-4,-0.0028 0,-0.0039 -0.06032,-0.136541 -0.120292,-0.274407 -0.173827,-0.41421 -3.88e-4,-0.0011 3.88e-4,-0.0027 0,-0.0039 -0.05391,-0.140956 -0.102759,-0.281746 -0.149572,-0.425823 -0.234471,-0.721398 -0.379148,-1.479386 -0.420417,-2.264606 -0.0083,-0.156778 -0.01212,-0.313539 -0.01212,-0.472277 0,-0.31879 0.01542,-0.630215 0.04851,-0.940682 0.01628,-0.153334 0.03659,-0.305774 0.06064,-0.456793 2.59e-4,-0.0013 -2.59e-4,-0.0026 0,-0.0039 0.02411,-0.150997 0.0532,-0.300556 0.08489,-0.44905 2.59e-4,-0.0012 -2.59e-4,-0.0026 0,-0.0039 0.03175,-0.148479 0.07002,-0.295524 0.109147,-0.441308 2.58e-4,-0.0012 -2.59e-4,-0.0027 0,-0.0039 0.03919,-0.145769 0.08299,-0.290683 0.129359,-0.433566 3.88e-4,-0.0011 -3.88e-4,-0.0027 0,-0.0039 0.04681,-0.14404 0.09566,-0.28491 0.149572,-0.425823 0.162153,-0.423824 0.355387,-0.831219 0.578074,-1.223275 0.07399,-0.130378 0.150144,-0.256761 0.230421,-0.383241 0.08086,-0.127391 0.163598,-0.252258 0.250633,-0.375498 0.08575,-0.121514 0.175256,-0.238853 0.266804,-0.356144 6.46e-4,-8.67e-4 -6.47e-4,-0.0031 0,-0.0039 0.09162,-0.117295 0.18979,-0.231652 0.287015,-0.34453 6.47e-4,-7.44e-4 -6.46e-4,-0.0031 0,-0.0039 0.09794,-0.113628 0.199767,-0.223963 0.303186,-0.332917 0.103427,-0.108962 0.206605,-0.213331 0.315313,-0.317432 0.109364,-0.104789 0.221022,-0.206149 0.335526,-0.305818 0.113785,-0.09904 0.228988,-0.196543 0.347653,-0.290334 0.474624,-0.375136 0.987501,-0.707603 1.532098,-0.991007 0.272314,-0.141716 0.553452,-0.270647 0.840835,-0.387112 0.287372,-0.116452 0.580427,-0.220031 0.88126,-0.30969 0.150424,-0.04484 0.303316,-0.08603 0.4568,-0.123876 0.613911,-0.15136 1.253207,-0.246902 1.908048,-0.278721 0.163713,-0.008 0.327418,-0.01161 0.493182,-0.01161 z"
       id="path2249"
       stroke-miterlimit="4" />
    <path
       style="fill:#b5b5b5;fill-opacity:1;stroke-width:0;stroke-miterlimit:4"
       inkscape:connector-curvature="0"
       id="path3318"
       d="m 42.544232,31.140642 c -6.5069,0 -11.78786,5.048933 -11.78786,11.27038 0,6.221444 5.280964,11.274339 11.78786,11.274339 6.506898,0 11.787856,-5.048937 11.787856,-11.270382 l 0,-0.004 c 0,-6.221447 -5.280958,-11.27038 -11.787856,-11.27038 z m 0,2.552457 c 5.042617,0 9.135178,3.907403 9.135178,8.72188 -7e-6,4.814474 -4.092565,8.717922 -9.135178,8.717922 -5.042615,0 -9.135179,-3.907402 -9.135179,-8.721879 0,-4.814478 4.092564,-8.717923 9.135179,-8.717923 z"
       stroke-miterlimit="4" />
  </g>
</svg>
