<?xml version="1.0" encoding="UTF-8" standalone="no"?>
<!-- Created using Karbon, part of Calligra: http://www.calligra.org/karbon -->

<svg
   xmlns:dc="http://purl.org/dc/elements/1.1/"
   xmlns:cc="http://creativecommons.org/ns#"
   xmlns:rdf="http://www.w3.org/1999/02/22-rdf-syntax-ns#"
   xmlns:svg="http://www.w3.org/2000/svg"
   xmlns="http://www.w3.org/2000/svg"
   xmlns:sodipodi="http://sodipodi.sourceforge.net/DTD/sodipodi-0.dtd"
   xmlns:inkscape="http://www.inkscape.org/namespaces/inkscape"
   width="38.4pt"
   height="38.4pt"
   id="svg2"
   version="1.1"
   inkscape:version="0.48.4 r9939"
   sodipodi:docname="lancelot.svg">
  <metadata
     id="metadata12">
    <rdf:RDF>
      <cc:Work
         rdf:about="">
        <dc:format>image/svg+xml</dc:format>
        <dc:type
           rdf:resource="http://purl.org/dc/dcmitype/StillImage" />
        <dc:title />
      </cc:Work>
    </rdf:RDF>
  </metadata>
  <sodipodi:namedview
     pagecolor="#ffffff"
     bordercolor="#666666"
     borderopacity="1"
     objecttolerance="10"
     gridtolerance="10"
     guidetolerance="10"
     inkscape:pageopacity="0"
     inkscape:pageshadow="2"
     inkscape:window-width="1366"
     inkscape:window-height="709"
     id="namedview10"
     showgrid="false"
     inkscape:zoom="10.41848"
     inkscape:cx="24.298585"
     inkscape:cy="34.106289"
     inkscape:window-x="0"
     inkscape:window-y="-3"
     inkscape:window-maximized="1"
     inkscape:current-layer="svg2"
     showguides="true"
     inkscape:guide-bbox="true" />
  <defs
     id="defs4" />
  <g
     id="layer1">
    <rect
       id="shape0"
       transform="translate(4.00394, 4.00394)"
       stroke-miterlimit="2.00000000000"
       width="32.00320504820pt"
       height="32.00320504820pt"
       stroke-linejoin="miter"
       stroke-linecap="square"
       stroke-width="0.00000000000"
       stroke="#003bc3"
       fill-rule="evenodd"
       fill="#2980b9" />
  </g>
  <g
     id="layer1-7"
     transform="matrix(-0.07029044,0,0,0.07029044,40.587488,2.4121555)"
     style="fill:#ffffff">
    <path
       inkscape:connector-curvature="0"
       id="rect3523"
       d="m 133.63,89.217 c -13.66,19.923 -21.66,44.033 -21.66,70.003 0,62.44 46.22,114.11 106.28,122.72 l 0,161.59 c 0,44.01 -41.02,77.97 -85.03,77.97 l 0,3.53 205.5,0 0,-3.53 c -44,0 -85.03,-33.96 -85.03,-77.97 l 0,-161.59 C 313.76,273.33 360,221.66 360,159.22 c 0,-25.96 -8,-50.08 -21.65,-70.003 -102.75574,0.907177 -102.75574,0.460725 -204.72,0 z"
       style="fill:#ffffff"
       sodipodi:nodetypes="cscsccccscscc" />
  </g>
</svg>
