<?xml version="1.0" encoding="UTF-8" standalone="no"?>
<!-- Created using Karbon, part of Calligra: http://www.calligra.org/karbon -->

<svg
   xmlns:dc="http://purl.org/dc/elements/1.1/"
   xmlns:cc="http://creativecommons.org/ns#"
   xmlns:rdf="http://www.w3.org/1999/02/22-rdf-syntax-ns#"
   xmlns:svg="http://www.w3.org/2000/svg"
   xmlns="http://www.w3.org/2000/svg"
   xmlns:sodipodi="http://sodipodi.sourceforge.net/DTD/sodipodi-0.dtd"
   xmlns:inkscape="http://www.inkscape.org/namespaces/inkscape"
   width="38.4pt"
   height="38.4pt"
   id="svg2"
   version="1.1"
   inkscape:version="0.91 r13725"
   sodipodi:docname="octopi_red.svg">
  <metadata
     id="metadata10">
    <rdf:RDF>
      <cc:Work
         rdf:about="">
        <dc:format>image/svg+xml</dc:format>
        <dc:type
           rdf:resource="http://purl.org/dc/dcmitype/StillImage" />
        <dc:title />
      </cc:Work>
    </rdf:RDF>
  </metadata>
  <sodipodi:namedview
     pagecolor="#ffffff"
     bordercolor="#666666"
     borderopacity="1"
     objecttolerance="10"
     gridtolerance="10"
     guidetolerance="10"
     inkscape:pageopacity="0"
     inkscape:pageshadow="2"
     inkscape:window-width="1366"
     inkscape:window-height="701"
     id="namedview8"
     showgrid="false"
     showguides="true"
     inkscape:guide-bbox="true"
     inkscape:zoom="1.0210347"
     inkscape:cx="-18.726446"
     inkscape:cy="8.4184626"
     inkscape:window-x="-4"
     inkscape:window-y="0"
     inkscape:window-maximized="1"
     inkscape:current-layer="svg2">
    <sodipodi:guide
       orientation="1,0"
       position="5.4915254,-2.0338983"
       id="guide2987" />
    <sodipodi:guide
       orientation="0,1"
       position="14.448565,42.319293"
       id="guide2989" />
    <sodipodi:guide
       orientation="1,0"
       position="42.508475,1.8305085"
       id="guide2991" />
    <sodipodi:guide
       orientation="0,1"
       position="31.322034,6.1016949"
       id="guide2993" />
  </sodipodi:namedview>
  <defs
     id="defs4" />
  <g
     transform="matrix(0.36389963,0,0,0.36389963,-181.97544,-4.2923674)"
     id="g4342">
    <path
       sodipodi:nodetypes="scccssssssssssscccs"
       inkscape:connector-curvature="0"
       id="path3084"
       d="m 566.02267,24.16152 c -19.85002,0 -36.35907,15.10252 -38.27585,34.44828 l 0,3.82759 0,-1e-5 0,61.24138 c 0,4.22784 3.42733,7.65517 7.65517,7.65517 4.22784,0 7.65517,-3.42733 7.65517,-7.65517 0,-4.22783 3.42733,-7.65517 7.65517,-7.65517 4.22784,0 7.65517,3.42734 7.65517,7.65517 0,4.22784 3.42734,7.65517 7.65517,7.65517 4.22785,0 7.65517,-3.42733 7.65517,-7.65517 0,-4.22783 3.42734,-7.65517 7.65518,-7.65517 4.22784,0 7.65517,3.42734 7.65517,7.65517 0,4.22784 3.42734,7.65517 7.65517,7.65517 4.22784,0 7.65517,-3.42733 7.65517,-7.65517 l 0,-61.24138 0,-3.82758 0,3.82759 C 602.38174,43.09162 585.8727,24.16152 566.02267,24.16152 Z"
       style="fill:#008000;fill-rule:evenodd;stroke:none" />
    <path
       style="fill:#ff0000;fill-opacity:1;fill-rule:evenodd;stroke:none"
       d="m 566.02267,24.16152 c -19.85002,0 -36.35907,15.10252 -38.27585,34.44828 l 0,3.82759 0,-1e-5 0,61.24138 c 0,4.22784 3.42733,7.65517 7.65517,7.65517 4.22784,0 7.65517,-3.42733 7.65517,-7.65517 0,-4.22783 3.42733,-7.65517 7.65517,-7.65517 4.22784,0 7.65517,3.42734 7.65517,7.65517 0,4.22784 3.42734,7.65517 7.65517,7.65517 4.22785,0 7.65517,-3.42733 7.65517,-7.65517 0,-4.22783 3.42734,-7.65517 7.65518,-7.65517 4.22784,0 7.65517,3.42734 7.65517,7.65517 0,4.22784 3.42734,7.65517 7.65517,7.65517 4.22784,0 7.65517,-3.42733 7.65517,-7.65517 l 0,-61.24138 0,-3.82758 0,3.82759 C 602.38174,43.09162 585.8727,24.16152 566.02267,24.16152 Z"
       id="path3910"
       inkscape:connector-curvature="0"
       sodipodi:nodetypes="scccssssssssssscccs" />
    <g
       transform="translate(-38.379172,-208.82651)"
       id="g4021"
       style="fill:#008000">
      <g
         id="g3233"
         style="fill:#008000">
        <ellipse
           transform="matrix(0.25517241,0,0,0.17665783,487.02253,198.59864)"
           id="path3871"
           style="fill:#ffffff;fill-rule:evenodd;stroke:none"
           cx="385"
           cy="433.00003"
           rx="45"
           ry="65" />
        <circle
           style="fill:#292f34;fill-opacity:1;fill-rule:evenodd;stroke:none"
           id="path3863"
           cx="581.12305"
           cy="275.09149"
           r="3.8275862" />
      </g>
    </g>
    <g
       transform="translate(-2.029175,-208.82651)"
       id="g4027"
       style="fill:#008000">
      <ellipse
         style="fill:#33ffff;fill-opacity:1;stroke:none;stroke-width:17.89782715;stroke-miterlimit:4;stroke-dasharray:none;stroke-opacity:1"
         id="path4029"
         transform="matrix(0.25517241,0,0,0.17665783,487.02253,198.59864)"
         cx="385"
         cy="433.00003"
         rx="45"
         ry="65" />
      <g
         id="g4031"
         style="fill:#008000">
        <ellipse
           style="fill:#ffffff;fill-rule:evenodd;stroke:none"
           id="path4033"
           transform="matrix(0.25517241,0,0,0.17665783,487.02253,198.59864)"
           cx="385"
           cy="433.00003"
           rx="45"
           ry="65" />
        <circle
           id="path4035"
           style="fill:#292f34;fill-opacity:1;fill-rule:evenodd;stroke:none"
           cx="581.12097"
           cy="275.09149"
           r="3.8275862" />
      </g>
    </g>
  </g>
</svg>
