<?xml version="1.0" encoding="UTF-8" standalone="no"?>
<!-- Created with Inkscape (http://www.inkscape.org/) -->

<svg
   xmlns:dc="http://purl.org/dc/elements/1.1/"
   xmlns:cc="http://creativecommons.org/ns#"
   xmlns:rdf="http://www.w3.org/1999/02/22-rdf-syntax-ns#"
   xmlns:svg="http://www.w3.org/2000/svg"
   xmlns="http://www.w3.org/2000/svg"
   xmlns:xlink="http://www.w3.org/1999/xlink"
   xmlns:sodipodi="http://sodipodi.sourceforge.net/DTD/sodipodi-0.dtd"
   xmlns:inkscape="http://www.inkscape.org/namespaces/inkscape"
   version="1.0"
   width="96"
   height="96"
   id="svg2408"
   inkscape:version="0.48.4 r9939"
   sodipodi:docname="gparted.svg">
  <sodipodi:namedview
     pagecolor="#ffffff"
     bordercolor="#666666"
     borderopacity="1"
     objecttolerance="10"
     gridtolerance="10"
     guidetolerance="10"
     inkscape:pageopacity="0"
     inkscape:pageshadow="2"
     inkscape:window-width="1680"
     inkscape:window-height="991"
     id="namedview123"
     showgrid="false"
     inkscape:zoom="6.3445105"
     inkscape:cx="44.263618"
     inkscape:cy="48.27174"
     inkscape:window-x="0"
     inkscape:window-y="-3"
     inkscape:window-maximized="1"
     inkscape:current-layer="svg2408"
     showguides="true"
     inkscape:guide-bbox="true">
    <sodipodi:guide
       orientation="0,1"
       position="27.379282,6.0409804"
       id="guide3085" />
  </sodipodi:namedview>
  <defs
     id="defs2410">
    <linearGradient
       id="linearGradient3733">
      <stop
         id="stop3735"
         style="stop-color:#ffbf67;stop-opacity:1"
         offset="0" />
      <stop
         id="stop3737"
         style="stop-color:#c70000;stop-opacity:1"
         offset="1" />
    </linearGradient>
    <linearGradient
       id="linearGradient4327">
      <stop
         id="stop4329"
         style="stop-color:#f0f0f0;stop-opacity:1"
         offset="0" />
      <stop
         id="stop4331"
         style="stop-color:#b4b4b4;stop-opacity:1"
         offset="1" />
    </linearGradient>
    <linearGradient
       id="linearGradient4225">
      <stop
         id="stop4227"
         style="stop-color:#000000;stop-opacity:1"
         offset="0" />
      <stop
         id="stop4229"
         style="stop-color:#484848;stop-opacity:1"
         offset="1" />
    </linearGradient>
    <linearGradient
       id="linearGradient3322">
      <stop
         id="stop3324"
         style="stop-color:#7a7a7a;stop-opacity:1"
         offset="0" />
      <stop
         id="stop3326"
         style="stop-color:#f9f9f9;stop-opacity:1"
         offset="0.2032043" />
      <stop
         id="stop3328"
         style="stop-color:#c9c9c9;stop-opacity:1"
         offset="0.42969123" />
      <stop
         id="stop3330"
         style="stop-color:#dedede;stop-opacity:0"
         offset="1" />
    </linearGradient>
    <linearGradient
       id="linearGradient3448">
      <stop
         id="stop3450"
         style="stop-color:#000000;stop-opacity:1"
         offset="0" />
      <stop
         id="stop3452"
         style="stop-color:#000000;stop-opacity:0"
         offset="1" />
    </linearGradient>
    <linearGradient
       id="linearGradient3376">
      <stop
         id="stop3378"
         style="stop-color:#767676;stop-opacity:1"
         offset="0" />
      <stop
         id="stop3380"
         style="stop-color:#fdfdfd;stop-opacity:1"
         offset="1" />
    </linearGradient>
    <linearGradient
       id="linearGradient3273">
      <stop
         id="stop3275"
         style="stop-color:#7a7a7a;stop-opacity:1"
         offset="0" />
      <stop
         id="stop3281"
         style="stop-color:#f9f9f9;stop-opacity:1"
         offset="0.14636412" />
      <stop
         id="stop3283"
         style="stop-color:#c9c9c9;stop-opacity:1"
         offset="0.37253973" />
      <stop
         id="stop3277"
         style="stop-color:#dedede;stop-opacity:0"
         offset="1" />
    </linearGradient>
    <linearGradient
       id="linearGradient3220">
      <stop
         id="stop3222"
         style="stop-color:#ffffff;stop-opacity:1"
         offset="0" />
      <stop
         id="stop3224"
         style="stop-color:#bfbfbf;stop-opacity:0"
         offset="1" />
    </linearGradient>
    <linearGradient
       id="linearGradient3173">
      <stop
         id="stop3175"
         style="stop-color:#e6e6e6;stop-opacity:1"
         offset="0" />
      <stop
         id="stop3189"
         style="stop-color:#c3c3c3;stop-opacity:1"
         offset="0.26003402" />
      <stop
         id="stop3187"
         style="stop-color:#b9b9b9;stop-opacity:1"
         offset="0.49180263" />
      <stop
         id="stop3191"
         style="stop-color:#c8c8c8;stop-opacity:1"
         offset="0.75914466" />
      <stop
         id="stop3177"
         style="stop-color:#e6e6e6;stop-opacity:1"
         offset="1" />
    </linearGradient>
    <linearGradient
       x1="45.447727"
       y1="92.539597"
       x2="45.447727"
       y2="7.0165396"
       id="ButtonShadow"
       gradientUnits="userSpaceOnUse"
       gradientTransform="scale(1.0058652,0.994169)">
      <stop
         id="stop3750"
         style="stop-color:#000000;stop-opacity:1"
         offset="0" />
      <stop
         id="stop3752"
         style="stop-color:#000000;stop-opacity:0.58823532"
         offset="1" />
    </linearGradient>
    <linearGradient
       id="linearGradient3737">
      <stop
         id="stop3739"
         style="stop-color:#ffffff;stop-opacity:1"
         offset="0" />
      <stop
         id="stop3741"
         style="stop-color:#ffffff;stop-opacity:0"
         offset="1" />
    </linearGradient>
    <filter
       x="-0.29508197"
       y="-0.46153846"
       width="1.5901639"
       height="1.9230769"
       color-interpolation-filters="sRGB"
       id="filter3179">
      <feGaussianBlur
         id="feGaussianBlur3181"
         stdDeviation="6.6964288" />
    </filter>
    <filter
       color-interpolation-filters="sRGB"
       id="filter3174">
      <feGaussianBlur
         id="feGaussianBlur3176"
         stdDeviation="1.71" />
    </filter>
    <linearGradient
       x1="36.357143"
       y1="6"
       x2="36.357143"
       y2="63.893143"
       id="linearGradient3188"
       xlink:href="#linearGradient3737"
       gradientUnits="userSpaceOnUse" />
    <linearGradient
       x1="-1.857143"
       y1="86.214287"
       x2="88"
       y2="8.6071424"
       id="linearGradient3179"
       xlink:href="#linearGradient3173"
       gradientUnits="userSpaceOnUse" />
    <linearGradient
       x1="6"
       y1="77.09375"
       x2="32"
       y2="77.09375"
       id="linearGradient3279"
       xlink:href="#linearGradient3322"
       gradientUnits="userSpaceOnUse" />
    <linearGradient
       x1="6"
       y1="77.09375"
       x2="32.030617"
       y2="77.09375"
       id="linearGradient3287"
       xlink:href="#linearGradient3273"
       gradientUnits="userSpaceOnUse"
       gradientTransform="matrix(-1,0,0,1,96.030615,0)" />
    <linearGradient
       x1="6"
       y1="75.5"
       x2="45.219246"
       y2="75.5"
       id="linearGradient3454"
       xlink:href="#linearGradient3448"
       gradientUnits="userSpaceOnUse"
       gradientTransform="matrix(-1,0,0,1,96,0)" />
    <linearGradient
       x1="48"
       y1="77.09375"
       x2="48"
       y2="90"
       id="linearGradient3460"
       xlink:href="#linearGradient3448"
       gradientUnits="userSpaceOnUse" />
    <linearGradient
       x1="41.041885"
       y1="72"
       x2="48"
       y2="19.160589"
       id="linearGradient3517"
       xlink:href="#linearGradient3737"
       gradientUnits="userSpaceOnUse" />
    <linearGradient
       x1="38.765545"
       y1="73"
       x2="38.765545"
       y2="-60.29591"
       id="linearGradient3527"
       xlink:href="#linearGradient3448"
       gradientUnits="userSpaceOnUse"
       gradientTransform="matrix(1.0277778,0,0,1.0499999,-0.3055556,-2.6499999)" />
    <linearGradient
       x1="44.324883"
       y1="12"
       x2="44.324883"
       y2="72.11245"
       id="linearGradient3547"
       xlink:href="#linearGradient4327"
       gradientUnits="userSpaceOnUse" />
    <linearGradient
       x1="46.810722"
       y1="8.046936"
       x2="46.548832"
       y2="77.872437"
       id="linearGradient3551"
       xlink:href="#linearGradient3220"
       gradientUnits="userSpaceOnUse"
       gradientTransform="matrix(1,0,0,-1,0,84)" />
    <linearGradient
       x1="15.999999"
       y1="85.0625"
       x2="20.178572"
       y2="85.0625"
       id="linearGradient3556"
       xlink:href="#linearGradient3376"
       gradientUnits="userSpaceOnUse" />
    <radialGradient
       cx="18.089285"
       cy="85.0625"
       r="2.0892856"
       fx="18.089285"
       fy="85.0625"
       id="radialGradient3558"
       xlink:href="#linearGradient3733"
       gradientUnits="userSpaceOnUse"
       gradientTransform="matrix(1,0,0,1.0042736,0,-0.3635233)" />
    <linearGradient
       x1="67.071426"
       y1="80"
       x2="67.071426"
       y2="88.011475"
       id="linearGradient4231"
       xlink:href="#linearGradient4225"
       gradientUnits="userSpaceOnUse"
       gradientTransform="translate(-2,0)" />
    <linearGradient
       x1="67.071426"
       y1="80"
       x2="67.071426"
       y2="88.011475"
       id="linearGradient4239"
       xlink:href="#linearGradient3737"
       gradientUnits="userSpaceOnUse" />
    <clipPath
       id="clipPath3306">
      <rect
         width="72"
         height="60"
         rx="4"
         ry="4"
         x="12"
         y="12"
         id="rect3308"
         style="fill:#ffffff;fill-opacity:1;fill-rule:nonzero;stroke:none" />
    </clipPath>
    <linearGradient
       x1="15.656256"
       y1="69.394279"
       x2="46.594883"
       y2="39.82095"
       id="linearGradient3540"
       xlink:href="#linearGradient3220"
       gradientUnits="userSpaceOnUse" />
    <filter
       x="-0.12267826"
       y="-0.17991199"
       width="1.2453564"
       height="1.3598239"
       color-interpolation-filters="sRGB"
       id="filter3642">
      <feGaussianBlur
         id="feGaussianBlur3644"
         stdDeviation="3.178304" />
    </filter>
    <linearGradient
       id="linearGradient3767">
      <stop
         id="stop3769"
         style="stop-color:#4d4d4d;stop-opacity:0.70731705"
         offset="0" />
      <stop
         id="stop3771"
         style="stop-color:#4d4d4d;stop-opacity:0.25203252"
         offset="1" />
    </linearGradient>
    <linearGradient
       x1="32.251034"
       y1="6.1317081"
       x2="32.251034"
       y2="90.238609"
       id="linearGradient3721"
       xlink:href="#ButtonShadow-0"
       gradientUnits="userSpaceOnUse"
       gradientTransform="translate(0,-97)" />
    <linearGradient
       x1="45.447727"
       y1="92.539597"
       x2="45.447727"
       y2="7.0165396"
       id="ButtonShadow-0"
       gradientUnits="userSpaceOnUse"
       gradientTransform="matrix(1.0058652,0,0,0.994169,100,0)">
      <stop
         id="stop3750-8"
         style="stop-color:#000000;stop-opacity:1"
         offset="0" />
      <stop
         id="stop3752-5"
         style="stop-color:#000000;stop-opacity:0.58823532"
         offset="1" />
    </linearGradient>
    <linearGradient
       x1="32.251034"
       y1="6.1317081"
       x2="32.251034"
       y2="90.238609"
       id="linearGradient3725"
       xlink:href="#ButtonShadow-0"
       gradientUnits="userSpaceOnUse"
       gradientTransform="matrix(1.0238095,0,0,1.0119048,-1.1428571,-98.071429)" />
    <linearGradient
       x1="32.251034"
       y1="6.1317081"
       x2="32.251034"
       y2="90.238609"
       id="linearGradient3772"
       xlink:href="#ButtonShadow-0"
       gradientUnits="userSpaceOnUse"
       gradientTransform="matrix(1.0238095,0,0,1.0119048,-1.1428571,-98.071429)" />
    <linearGradient
       x1="32.251034"
       y1="6.1317081"
       x2="32.251034"
       y2="90.238609"
       id="linearGradient3780"
       xlink:href="#ButtonShadow-0"
       gradientUnits="userSpaceOnUse"
       gradientTransform="matrix(1.0238095,0,0,1.0119048,-1.1428571,-98.071429)" />
    <linearGradient
       x1="32.251034"
       y1="6.1317081"
       x2="32.251034"
       y2="90.238609"
       id="linearGradient3039"
       xlink:href="#ButtonShadow-0"
       gradientUnits="userSpaceOnUse"
       gradientTransform="matrix(1.0238095,0,0,1.0119048,-1.1428571,-98.071429)" />
    <linearGradient
       x1="50"
       y1="62"
       x2="50"
       y2="20"
       id="linearGradient3949"
       xlink:href="#linearGradient3767"
       gradientUnits="userSpaceOnUse" />
    <clipPath
       id="clipPath3980">
      <path
         d="m -84,12 c -2.216,0 -4,1.784 -4,4 l 0,52 c 0,2.216 1.784,4 4,4 l 64,0 c 2.216,0 4,-1.784 4,-4 l 0,-52 c 0,-2.216 -1.784,-4 -4,-4 l -64,0 z m 32,8 c 8.413849,0 15.809201,3.796888 20.09375,9.53125 l -3.71875,1.875 -11.71875,5.90625 A 1.1937775,1.1937775 0 0 0 -47.5625,37.5 c -1.095677,-1.06642 -2.667782,-1.75 -4.4375,-1.75 -3.313708,0 -6,2.350506 -6,5.25 0,2.899494 2.686292,5.25 6,5.25 1.752367,0 3.311852,-0.6705 4.40625,-1.71875 a 1.1937775,1.1937775 0 0 0 0.25,0.15625 l 11.71875,5.90625 3.71875,1.875 C -36.190799,58.203112 -43.586151,62 -52,62 -65.254834,62 -76,52.59798 -76,41 -76,29.40202 -65.254834,20 -52,20 z m 23.78125,10.5 c 4.287187,6.497423 4.287187,14.502577 0,21 l -3.875,-1.96875 L -43.8125,43.625 C -43.301968,42.852783 -43,41.956275 -43,41 c 0,-0.956275 -0.301968,-1.852783 -0.8125,-2.625 l 11.71875,-5.90625 3.875,-1.96875 z"
         inkscape:connector-curvature="0"
         id="path3982"
         style="opacity:0.2;fill:#803300;fill-opacity:1;fill-rule:nonzero;stroke:none;display:inline" />
    </clipPath>
    <filter
       x="-0.21883003"
       y="-0.26570469"
       width="1.4376601"
       height="1.5314094"
       color-interpolation-filters="sRGB"
       id="filter3988">
      <feGaussianBlur
         id="feGaussianBlur3990"
         stdDeviation="4.649832" />
    </filter>
  </defs>
  <metadata
     id="metadata2413">
    <rdf:RDF>
      <cc:Work
         rdf:about="">
        <dc:format>image/svg+xml</dc:format>
        <dc:type
           rdf:resource="http://purl.org/dc/dcmitype/StillImage" />
        <dc:title />
      </cc:Work>
    </rdf:RDF>
  </metadata>
  <g
     id="layer2"
     style="display:none">
    <rect
       width="86"
       height="85"
       rx="6"
       ry="6"
       x="5"
       y="7"
       id="rect3745"
       style="opacity:0.9;fill:url(#ButtonShadow);fill-opacity:1;fill-rule:nonzero;stroke:none;filter:url(#filter3174)" />
  </g>
  <g
     id="layer3"
     style="display:inline">
    <rect
       width="84"
       height="83.887093"
       rx="6"
       ry="0"
       x="6"
       y="6"
       id="rect3171"
       style="fill:#cacaca;fill-opacity:1;fill-rule:nonzero;stroke:none" />
    <rect
       width="72"
       height="60"
       rx="4"
       ry="4"
       x="-88"
       y="12"
       id="rect3398"
       style="opacity:0.2;fill:#803300;fill-opacity:1;fill-rule:nonzero;stroke:none" />
    <rect
       width="54.464287"
       height="34.82143"
       rx="9"
       ry="9"
       x="13.306199"
       y="13.887781"
       transform="matrix(1.0880985,0,0,1.1015333,-1.1722568,-1.4100719)"
       id="rect2399"
       style="opacity:0.15;fill:#ffffff;fill-opacity:1;fill-rule:nonzero;stroke:none;filter:url(#filter3179)" />
    <rect
       width="74"
       height="63"
       rx="4.1111112"
       ry="4.1999998"
       x="11"
       y="11"
       id="rect3492"
       style="opacity:0.8;fill:#7b7b7b;fill-opacity:1;fill-rule:nonzero;stroke:none" />
    <rect
       width="72"
       height="60"
       rx="4"
       ry="4"
       x="12"
       y="12"
       id="rect3519"
       style="fill:#cacaca;fill-opacity:1;fill-rule:nonzero;stroke:none" />
  </g>
  <g
     id="layer4"
     style="display:inline">
    <path
       d="m -32,44 a 20,20 0 1 1 -40,0 20,20 0 1 1 40,0 z"
       transform="matrix(1.2,0,0,1.2,110.4,79.2)"
       id="path3067"
       style="opacity:0.2;color:#000000;fill:#ff0000;fill-opacity:1;fill-rule:nonzero;stroke:none;stroke-width:0.5;marker:none;visibility:visible;display:inline;overflow:visible;enable-background:accumulate" />
    <path
       d="m 48,-52 c -13.254834,0 -24,10.745166 -24,24 0,13.254834 10.745166,24 24,24 8.779607,0 16.472071,-4.714728 20.65625,-11.75 L 48,-28 60,-48.78125 C 56.468281,-50.825886 52.374439,-52 48,-52 z"
       inkscape:connector-curvature="0"
       id="path3077"
       style="opacity:0.2;color:#000000;fill:#ff0000;fill-opacity:1;fill-rule:nonzero;stroke:none;stroke-width:0.5;marker:none;visibility:visible;display:inline;overflow:visible;enable-background:accumulate" />
    <path
       d="m -32,44 a 20,20 0 0 1 -2.679492,10 L -52,44 z"
       transform="matrix(1.2,0,0,1.2,116.4,-79.8)"
       id="path3079"
       style="opacity:0.2;color:#000000;fill:#ff0000;fill-opacity:1;fill-rule:nonzero;stroke:none;stroke-width:0.5;marker:none;visibility:visible;display:inline;overflow:visible;enable-background:accumulate" />
    <path
       d="M -32,44 A 20,20 0 0 1 -42.000001,61.320509 L -52,44 z"
       transform="matrix(0.6,-1.0392305,1.0392305,0.6,36.473859,-109.43998)"
       id="path3081"
       style="opacity:0.2;color:#000000;fill:#ff0000;fill-opacity:1;fill-rule:nonzero;stroke:none;stroke-width:0.5;marker:none;visibility:visible;display:inline;overflow:visible;enable-background:accumulate" />
    <path
       style="opacity:0.2;color:#000000;fill:#000000;fill-opacity:1;fill-rule:nonzero;stroke:none;stroke-width:0.5;marker:none;visibility:visible;display:inline;overflow:visible;enable-background:accumulate"
       id="path3868"
       inkscape:connector-curvature="0"
       d="m 45.765915,20 c -13.565178,0 -24.561928,9.698242 -24.561928,21.66163 0,11.963387 10.99675,21.661629 24.561928,21.661629 8.610849,0 16.179353,-3.916513 20.564219,-9.831543 l -3.805819,-1.934074 -11.99313,-6.092333 a 1.2217282,1.2313889 0 0 1 -0.255853,-0.161173 c -1.120022,1.081276 -2.71602,1.772901 -4.509417,1.772901 -3.391294,0 -6.140482,-2.424561 -6.140482,-5.415407 0,-2.990846 2.749188,-5.415408 6.140482,-5.415408 1.811154,0 3.420068,0.705117 4.541399,1.805136 a 1.2217282,1.2313889 0 0 1 0.223871,-0.193407 l 11.99313,-6.092334 3.805819,-1.934074 C 61.945268,23.916513 54.376764,20 45.765915,20 z m 24.338058,10.830815 -3.965729,2.030778 -11.993129,6.092333 c 0.522486,0.796546 0.831524,1.7213 0.831524,2.707704 0,0.986403 -0.309038,1.911157 -0.831524,2.707703 l 11.993129,6.092334 3.965729,2.030777 c 4.387565,-6.702132 4.387565,-14.959497 0,-21.661629 z" />
    <path
       d="m 46,20 c -13.254834,0 -24,9.40202 -24,21 0,11.59798 10.745166,21 24,21 8.413849,0 15.809201,-3.796888 20.09375,-9.53125 L 62.375,50.59375 50.65625,44.6875 a 1.1937775,1.1937775 0 0 1 -0.25,-0.15625 C 49.311852,45.5795 47.752367,46.25 46,46.25 c -3.313708,0 -6,-2.350506 -6,-5.25 0,-2.899494 2.686292,-5.25 6,-5.25 1.769718,0 3.341823,0.68358 4.4375,1.75 a 1.1937775,1.1937775 0 0 1 0.21875,-0.1875 l 11.71875,-5.90625 3.71875,-1.875 C 61.809201,23.796888 54.413849,20 46,20 z m 23.78125,10.5 -3.875,1.96875 L 54.1875,38.375 C 54.698032,39.147217 55,40.043725 55,41 c 0,0.956275 -0.301968,1.852783 -0.8125,2.625 l 11.71875,5.90625 3.875,1.96875 c 4.287187,-6.497423 4.287187,-14.502577 0,-21 z"
       inkscape:connector-curvature="0"
       id="path3942"
       style="color:#000000;fill:#7b7b7b;fill-opacity:1;fill-rule:nonzero;stroke:none;stroke-width:0.5;marker:none;visibility:visible;display:inline;overflow:visible;enable-background:accumulate" />
    <path
       d="m 138,18 c -13.25483,0 -24,10.745166 -24,24 0,13.254834 10.74517,24 24,24 8.88039,0 16.63051,-4.830383 20.78125,-12 L 143.1875,45 c -1.03744,1.793371 -2.96668,3 -5.1875,3 -3.31371,0 -6,-2.686292 -6,-6 0,-3.313708 2.68629,-6 6,-6 2.22082,0 4.15006,1.206629 5.1875,3 l 15.59375,-9 C 154.63051,22.830383 146.88039,18 138,18 z m 21.625,13.59375 c 0.19952,0.414861 0.38818,0.826993 0.5625,1.25 -0.17414,-0.421436 -0.36545,-0.841049 -0.5625,-1.25 z m 1.5625,4.25 c 0.0876,0.329849 0.17672,0.667508 0.25,1 -0.0742,-0.339414 -0.16156,-0.666127 -0.25,-1 z m 0.75,4.59375 C 161.97099,40.954608 162,41.482051 162,42 c 0,-0.52061 -0.0298,-1.050133 -0.0625,-1.5625 z M 162,42 c 0,0.517949 -0.029,1.045392 -0.0625,1.5625 C 161.97015,43.050133 162,42.52061 162,42 z m -0.5625,5.15625 c -0.0733,0.332492 -0.1624,0.670151 -0.25,1 0.0884,-0.333873 0.17576,-0.660586 0.25,-1 z m -1.25,4 c -0.17432,0.423007 -0.36298,0.835139 -0.5625,1.25 0.19705,-0.408951 0.38836,-0.828564 0.5625,-1.25 z"
       inkscape:connector-curvature="0"
       id="path3893"
       style="opacity:0.2;color:#000000;fill:#ff0000;fill-opacity:1;fill-rule:nonzero;stroke:none;stroke-width:0.5;marker:none;visibility:visible;display:inline;overflow:visible;enable-background:accumulate" />
    <path
       d="m 163.78125,30 -15.59375,9 c 0.51053,0.882534 0.8125,1.907114 0.8125,3 0,1.092886 -0.30197,2.117466 -0.8125,3 l 15.59375,9 c 4.28719,-7.425626 4.28719,-16.574374 0,-24 z"
       inkscape:connector-curvature="0"
       id="path3895"
       style="opacity:0.2;color:#000000;fill:#ff0000;fill-opacity:1;fill-rule:nonzero;stroke:none;stroke-width:0.5;marker:none;visibility:visible;display:inline;overflow:visible;enable-background:accumulate" />
  </g>
  <g
     id="layer1">
    <g
       id="g3318">
      <path
         style="opacity:0.3;fill:#000000;fill-opacity:1;fill-rule:nonzero;stroke:none"
         id="path4053"
         d="m 22.780837,83.508926 a 3.2897709,3.2897709 0 0 1 -6.579542,0 3.2897709,3.2897709 0 1 1 6.579542,0 z"
         inkscape:connector-curvature="0" />
      <path
         d="m 20.178571,85.0625 a 2.0892856,2.0982144 0 1 1 -4.178572,0 2.0892856,2.0982144 0 1 1 4.178572,0 z"
         transform="matrix(1.1923077,0,0,1.1872339,-2.0769275,-17.480158)"
         id="path3364"
         style="fill:#ff0000;fill-opacity:1;fill-rule:nonzero;stroke:none;stroke-width:0.84049987999999998;stroke-linecap:square;stroke-linejoin:miter;stroke-miterlimit:4;stroke-opacity:1;stroke-dasharray:none;stroke-dashoffset:0" />
    </g>
    <path
       d="m 55,80 c -0.554,0 -1,0.446 -1,1 l 0,6 c 0,0.554 0.446,1 1,1 0.554,0 1,-0.446 1,-1 l 0,-6 c 0,-0.554 -0.446,-1 -1,-1 z m 4,0 c -0.554,0 -1,0.446 -1,1 l 0,6 c 0,0.554 0.446,1 1,1 0.554,0 1,-0.446 1,-1 l 0,-6 c 0,-0.554 -0.446,-1 -1,-1 z m 4,0 c -0.554,0 -1,0.446 -1,1 l 0,6 c 0,0.554 0.446,1 1,1 0.554,0 1,-0.446 1,-1 l 0,-6 c 0,-0.554 -0.446,-1 -1,-1 z m 4,0 c -0.554,0 -1,0.446 -1,1 l 0,6 c 0,0.554 0.446,1 1,1 0.554,0 1,-0.446 1,-1 l 0,-6 c 0,-0.554 -0.446,-1 -1,-1 z m 4,0 c -0.554,0 -1,0.446 -1,1 l 0,6 c 0,0.554 0.446,1 1,1 0.554,0 1,-0.446 1,-1 l 0,-6 c 0,-0.554 -0.446,-1 -1,-1 z m 4,0 c -0.554,0 -1,0.446 -1,1 l 0,6 c 0,0.554 0.446,1 1,1 0.554,0 1,-0.446 1,-1 l 0,-6 c 0,-0.554 -0.446,-1 -1,-1 z m 4,0 c -0.554,0 -1,0.446 -1,1 l 0,6 c 0,0.554 0.446,1 1,1 0.554,0 1,-0.446 1,-1 l 0,-6 c 0,-0.554 -0.446,-1 -1,-1 z"
       inkscape:connector-curvature="0"
       id="rect4210"
       style="fill:url(#linearGradient4231);fill-opacity:1;fill-rule:nonzero;stroke:none" />
  </g>
  <rect
     style="fill:#999999;fill-opacity:1;fill-rule:evenodd;stroke:none"
     id="rect3082"
     width="83.696457"
     height="2.0820873"
     x="6.2248263"
     y="76.044968"
     rx="6.0297518"
     ry="0.14412965" />
</svg>
