<?xml version="1.0" encoding="UTF-8" standalone="no"?>
<!-- Created with Inkscape (http://www.inkscape.org/) -->

<svg
   xmlns:dc="http://purl.org/dc/elements/1.1/"
   xmlns:cc="http://creativecommons.org/ns#"
   xmlns:rdf="http://www.w3.org/1999/02/22-rdf-syntax-ns#"
   xmlns:svg="http://www.w3.org/2000/svg"
   xmlns="http://www.w3.org/2000/svg"
   xmlns:xlink="http://www.w3.org/1999/xlink"
   xmlns:sodipodi="http://sodipodi.sourceforge.net/DTD/sodipodi-0.dtd"
   xmlns:inkscape="http://www.inkscape.org/namespaces/inkscape"
   version="1.0"
   width="96"
   height="96"
   id="svg2408"
   inkscape:version="0.48.4 r9939"
   sodipodi:docname="pattern-x11.svg">
  <sodipodi:namedview
     pagecolor="#ffffff"
     bordercolor="#666666"
     borderopacity="1"
     objecttolerance="10"
     gridtolerance="10"
     guidetolerance="10"
     inkscape:pageopacity="0"
     inkscape:pageshadow="2"
     inkscape:window-width="1366"
     inkscape:window-height="709"
     id="namedview68"
     showgrid="false"
     inkscape:zoom="4.4374741"
     inkscape:cx="30.036218"
     inkscape:cy="52.461912"
     inkscape:window-x="0"
     inkscape:window-y="-3"
     inkscape:window-maximized="1"
     inkscape:current-layer="svg2408" />
  <defs
     id="defs2410">
    <linearGradient
       id="linearGradient3224">
      <stop
         id="stop3226"
         style="stop-color:#42394b;stop-opacity:1"
         offset="0" />
      <stop
         id="stop3228"
         style="stop-color:#000000;stop-opacity:1"
         offset="1" />
    </linearGradient>
    <linearGradient
       id="linearGradient3465">
      <stop
         id="stop3467"
         style="stop-color:#919191;stop-opacity:1"
         offset="0" />
      <stop
         id="stop3469"
         style="stop-color:#fdfdfd;stop-opacity:1"
         offset="1" />
    </linearGradient>
    <linearGradient
       id="linearGradient3187">
      <stop
         id="stop3189"
         style="stop-color:#b4b4b4;stop-opacity:1"
         offset="0" />
      <stop
         id="stop3191"
         style="stop-color:#e6e6e6;stop-opacity:1"
         offset="1" />
    </linearGradient>
    <linearGradient
       x1="45.447727"
       y1="92.539597"
       x2="45.447727"
       y2="7.0165396"
       id="ButtonShadow"
       gradientUnits="userSpaceOnUse"
       gradientTransform="scale(1.0058652,0.994169)">
      <stop
         id="stop3750"
         style="stop-color:#000000;stop-opacity:1"
         offset="0" />
      <stop
         id="stop3752"
         style="stop-color:#000000;stop-opacity:0.58823532"
         offset="1" />
    </linearGradient>
    <linearGradient
       id="linearGradient3737">
      <stop
         id="stop3739"
         style="stop-color:#ffffff;stop-opacity:1"
         offset="0" />
      <stop
         id="stop3741"
         style="stop-color:#ffffff;stop-opacity:0"
         offset="1" />
    </linearGradient>
    <filter
       color-interpolation-filters="sRGB"
       id="filter3174">
      <feGaussianBlur
         id="feGaussianBlur3176"
         stdDeviation="1.71" />
    </filter>
    <linearGradient
       x1="36.357143"
       y1="6"
       x2="36.357143"
       y2="63.893143"
       id="linearGradient3188"
       xlink:href="#linearGradient3737"
       gradientUnits="userSpaceOnUse" />
    <linearGradient
       x1="48"
       y1="90"
       x2="48"
       y2="5.9877172"
       id="linearGradient3427"
       xlink:href="#linearGradient3187"
       gradientUnits="userSpaceOnUse" />
    <radialGradient
       cx="47.098362"
       cy="78.286942"
       r="38.957481"
       fx="47.098362"
       fy="78.286942"
       id="radialGradient3205"
       xlink:href="#linearGradient3224"
       gradientUnits="userSpaceOnUse"
       gradientTransform="matrix(1.3830053,-1.0350102e-8,0,1.3123934,-18.038924,-24.218731)" />
    <linearGradient
       x1="43.17857"
       y1="13"
       x2="43.17857"
       y2="83.294571"
       id="linearGradient3279"
       xlink:href="#linearGradient3465"
       gradientUnits="userSpaceOnUse"
       gradientTransform="matrix(1.0294118,0,0,1.0294118,-1.4117647,-1.411765)" />
    <linearGradient
       id="linearGradient3737-7">
      <stop
         id="stop3739-2"
         style="stop-color:#ffffff;stop-opacity:1"
         offset="0" />
      <stop
         id="stop3741-7"
         style="stop-color:#ffffff;stop-opacity:0"
         offset="1" />
    </linearGradient>
    <radialGradient
       cx="48"
       cy="90.171875"
       r="42"
       fx="48"
       fy="90.171875"
       id="radialGradient2874"
       xlink:href="#linearGradient3737-7"
       gradientUnits="userSpaceOnUse"
       gradientTransform="matrix(1.1573129,0,0,0.99590774,-7.551021,0.1971319)" />
    <linearGradient
       id="linearGradient3737-4">
      <stop
         id="stop3739-8"
         style="stop-color:#ffffff;stop-opacity:1"
         offset="0" />
      <stop
         id="stop3741-71"
         style="stop-color:#ffffff;stop-opacity:0"
         offset="1" />
    </linearGradient>
    <clipPath
       id="clipPath3613">
      <rect
         width="84"
         height="84"
         rx="6"
         ry="6"
         x="6"
         y="6"
         id="rect3615"
         style="fill:#ffffff;fill-opacity:1;fill-rule:nonzero;stroke:none" />
    </clipPath>
    <filter
       x="-0.192"
       y="-0.192"
       width="1.3839999"
       height="1.3839999"
       color-interpolation-filters="sRGB"
       id="filter3794">
      <feGaussianBlur
         id="feGaussianBlur3796"
         stdDeviation="5.28" />
    </filter>
    <linearGradient
       x1="48"
       y1="20.220806"
       x2="48"
       y2="138.66119"
       id="linearGradient2908"
       xlink:href="#linearGradient3737-4"
       gradientUnits="userSpaceOnUse" />
    <linearGradient
       x1="45.447727"
       y1="92.539597"
       x2="45.447727"
       y2="7.0165396"
       id="ButtonShadow-0"
       gradientUnits="userSpaceOnUse"
       gradientTransform="matrix(1.0058652,0,0,0.994169,100,0)">
      <stop
         id="stop3750-8"
         style="stop-color:#000000;stop-opacity:1"
         offset="0" />
      <stop
         id="stop3752-5"
         style="stop-color:#000000;stop-opacity:0.58823532"
         offset="1" />
    </linearGradient>
    <linearGradient
       x1="32.251034"
       y1="6.1317081"
       x2="32.251034"
       y2="90.238609"
       id="linearGradient3780"
       xlink:href="#ButtonShadow-0"
       gradientUnits="userSpaceOnUse"
       gradientTransform="matrix(1.0238095,0,0,1.0119048,-1.1428571,-98.071429)" />
    <linearGradient
       x1="32.251034"
       y1="6.1317081"
       x2="32.251034"
       y2="90.238609"
       id="linearGradient3772"
       xlink:href="#ButtonShadow-0"
       gradientUnits="userSpaceOnUse"
       gradientTransform="matrix(1.0238095,0,0,1.0119048,-1.1428571,-98.071429)" />
    <linearGradient
       x1="32.251034"
       y1="6.1317081"
       x2="32.251034"
       y2="90.238609"
       id="linearGradient3725"
       xlink:href="#ButtonShadow-0"
       gradientUnits="userSpaceOnUse"
       gradientTransform="matrix(1.0238095,0,0,1.0119048,-1.1428571,-98.071429)" />
    <linearGradient
       x1="32.251034"
       y1="6.1317081"
       x2="32.251034"
       y2="90.238609"
       id="linearGradient3721"
       xlink:href="#ButtonShadow-0"
       gradientUnits="userSpaceOnUse"
       gradientTransform="translate(0,-97)" />
    <linearGradient
       x1="32.251034"
       y1="6.1317081"
       x2="32.251034"
       y2="90.238609"
       id="linearGradient3224-3"
       xlink:href="#ButtonShadow-0"
       gradientUnits="userSpaceOnUse"
       gradientTransform="matrix(1.0238095,0,0,1.0119048,-1.1428571,-98.071429)" />
  </defs>
  <metadata
     id="metadata2413">
    <rdf:RDF>
      <cc:Work
         rdf:about="">
        <dc:format>image/svg+xml</dc:format>
        <dc:type
           rdf:resource="http://purl.org/dc/dcmitype/StillImage" />
        <dc:title></dc:title>
      </cc:Work>
    </rdf:RDF>
  </metadata>
  <g
     id="layer2"
     style="display:none">
    <rect
       width="86"
       height="85"
       rx="6"
       ry="6"
       x="5"
       y="7"
       id="rect3745"
       style="opacity:0.9;fill:url(#ButtonShadow);fill-opacity:1;fill-rule:nonzero;stroke:none;filter:url(#filter3174)" />
  </g>
  <g
     id="layer3"
     transform="matrix(1.1581781,0,0,1.166221,-7.8740511,-7.7909406)">
    <path
       d="m 19,13 c -3.289406,0 -6,2.710594 -6,6 l 0,58 c 0,3.289406 2.710594,6 6,6 l 58,0 c 3.289406,0 6,-2.710594 6,-6 l 0,-58 c 0,-3.289406 -2.710594,-6 -6,-6 l -58,0 z m 0,4 58,0 c 1.142594,0 2,0.857406 2,2 l 0,58 c 0,1.142594 -0.857406,2 -2,2 l -58,0 c -1.142594,0 -2,-0.857406 -2,-2 l 0,-58 c 0,-1.142594 0.857406,-2 2,-2 z"
       inkscape:connector-curvature="0"
       id="rect3222-3"
       style="font-size:medium;font-style:normal;font-variant:normal;font-weight:normal;font-stretch:normal;text-indent:0;text-align:start;text-decoration:none;line-height:normal;letter-spacing:normal;word-spacing:normal;text-transform:none;direction:ltr;block-progression:tb;writing-mode:lr-tb;text-anchor:start;opacity:0.15;color:#000000;fill:#000000;fill-opacity:1;stroke:none;stroke-width:4;marker:none;visibility:visible;display:inline;overflow:visible;enable-background:accumulate;font-family:Abandoned Bitplane;-inkscape-font-specification:Abandoned Bitplane" />
    <path
       d="m 17,14 c -1.662,0 -3,1.338 -3,3 l 0,62 c 0,1.662 1.338,3 3,3 l 62,0 c 1.662,0 3,-1.338 3,-3 l 0,-62 c 0,-1.662 -1.338,-3 -3,-3 l -62,0 z m 0,1.9375 62,0 c 0.618163,0 1.0625,0.444337 1.0625,1.0625 l 0,62 c 0,0.618163 -0.444337,1.0625 -1.0625,1.0625 l -62,0 c -0.618163,0 -1.0625,-0.444337 -1.0625,-1.0625 l 0,-62 c 0,-0.618163 0.444337,-1.0625 1.0625,-1.0625 z"
       inkscape:connector-curvature="0"
       id="rect3981"
       style="opacity:0.3;color:#000000;fill:#000000;fill-opacity:1;fill-rule:nonzero;stroke:none;stroke-width:1;marker:none;visibility:visible;display:inline;overflow:visible;enable-background:accumulate" />
    <path
       d="m 17,14 c -1.662,0 -3,1.338 -3,3 l 0,62 c 0,1.662 1.338,3 3,3 l 62,0 c 1.662,0 3,-1.338 3,-3 l 0,-62 c 0,-1.662 -1.338,-3 -3,-3 l -62,0 z m 0,0.96875 62,0 c 1.140081,0 2.03125,0.891169 2.03125,2.03125 l 0,62 c 0,1.140081 -0.891169,2.03125 -2.03125,2.03125 l -62,0 c -1.140081,0 -2.03125,-0.891169 -2.03125,-2.03125 l 0,-62 c 0,-1.140081 0.891169,-2.03125 2.03125,-2.03125 z"
       inkscape:connector-curvature="0"
       id="rect3977"
       style="opacity:0.6;color:#000000;fill:#000000;fill-opacity:1;fill-rule:nonzero;stroke:none;stroke-width:1;marker:none;visibility:visible;display:inline;overflow:visible;enable-background:accumulate" />
  </g>
  <rect
     style="fill:#000000;fill-opacity:1;fill-rule:evenodd;stroke:none"
     id="rect3040"
     width="84.63868"
     height="84.451004"
     x="5.8177361"
     y="5.731256"
     rx="0" />
  <g
     id="layer1"
     style="display:inline" />
  <g
     id="g3816"
     transform="translate(8.7515578,7.0709907)">
    <path
       inkscape:connector-curvature="0"
       id="rect3033"
       d="M 35.855342,29.481894 50.578268,51.692339 64.206173,72.236018 65.994278,71.200797 53.784899,49.358357 41.024593,26.489165 35.855342,29.481894 z"
       style="fill:#b3b3b3;fill-opacity:1;fill-rule:evenodd;stroke:none" />
    <rect
       inkscape:transform-center-y="3.1158182"
       inkscape:transform-center-x="11.00472"
       transform="matrix(0.84133484,-0.54051428,0.52966115,0.84820933,0,0)"
       y="39.259739"
       x="14.820795"
       height="5.4205222"
       width="5.9450526"
       id="rect3044"
       style="fill:#ffcc00;fill-opacity:1;fill-rule:evenodd;stroke:none" />
    <path
       transform="matrix(0.99683486,-0.44022464,0.33226722,0.75237848,-27.997273,9.5155536)"
       d="m 74.366631,47.774368 c 0,5.476208 -10.89657,9.915551 -24.33817,9.915551 -13.441599,0 -24.338169,-4.439343 -24.338169,-9.915551 0,-5.476207 10.89657,-9.915551 24.338169,-9.915551 13.4416,0 24.33817,4.439344 24.33817,9.915551 z"
       sodipodi:ry="9.9155512"
       sodipodi:rx="24.338169"
       sodipodi:cy="47.774368"
       sodipodi:cx="50.028461"
       id="path3046"
       style="fill:none;stroke:#fad92a;stroke-width:1.60000002;stroke-miterlimit:4;stroke-opacity:1;stroke-dasharray:none"
       sodipodi:type="arc" />
    <path
       sodipodi:type="arc"
       style="fill:none;stroke:#fad92a;stroke-width:1.60000002;stroke-miterlimit:4;stroke-opacity:1;stroke-dasharray:none"
       id="path3821"
       sodipodi:cx="50.028461"
       sodipodi:cy="47.774368"
       sodipodi:rx="24.338169"
       sodipodi:ry="9.9155512"
       d="m 74.366631,47.774368 a 24.338169,9.9155512 0 1 1 -48.676339,0 24.338169,9.9155512 0 1 1 48.676339,0 z"
       transform="matrix(0.66364341,-0.27824025,0.2212071,0.47553444,-5.9097131,14.975803)" />
  </g>
  <path
     sodipodi:type="star"
     style="fill:none;stroke:#fad92a;stroke-width:1;stroke-miterlimit:4;stroke-opacity:1;stroke-dasharray:none"
     id="path3823"
     sodipodi:sides="5"
     sodipodi:cx="27.718471"
     sodipodi:cy="15.548827"
     sodipodi:r1="4.4901352"
     sodipodi:r2="2.2450679"
     sodipodi:arg1="0.30587887"
     sodipodi:arg2="0.9341974"
     inkscape:flatsided="false"
     inkscape:rounded="0"
     inkscape:randomized="0"
     d="m 32.000187,16.900948 -2.947103,0.453188 -1.297433,2.684672 -1.341713,-2.662818 -2.954203,-0.404322 2.117879,-2.098901 -0.528366,-2.934557 2.650634,1.365626 2.627655,-1.409334 -0.479697,2.942905 z"
     inkscape:transform-center-x="-0.011489148"
     inkscape:transform-center-y="0.41782823" />
  <path
     sodipodi:type="star"
     style="fill:none;stroke:#fad92a;stroke-width:1;stroke-miterlimit:4;stroke-opacity:1;stroke-dasharray:none"
     id="path3825"
     sodipodi:sides="5"
     sodipodi:cx="23.887463"
     sodipodi:cy="27.943266"
     sodipodi:r1="3.3803015"
     sodipodi:r2="1.6901509"
     sodipodi:arg1="-0.64350111"
     sodipodi:arg2="-0.015182578"
     inkscape:flatsided="false"
     inkscape:rounded="0"
     inkscape:randomized="0"
     d="m 26.591704,25.915085 -1.014285,2.002521 1.074615,1.970804 -2.217942,-0.34583 -1.542272,1.631032 -0.356478,-2.216256 -2.027791,-0.96277 1.997626,-1.023892 0.289027,-2.226057 1.59108,1.583456 z"
     inkscape:transform-center-x="-0.0065525978"
     inkscape:transform-center-y="0.31655189"
     transform="matrix(0.95377196,-0.30053128,0.30053128,0.95377196,-7.2935548,8.4706921)" />
  <path
     sodipodi:type="star"
     style="fill:none;stroke:#fad92a;stroke-width:0.6;stroke-miterlimit:4;stroke-opacity:1;stroke-dasharray:none"
     id="path3827"
     sodipodi:sides="5"
     sodipodi:cx="44.845333"
     sodipodi:cy="18.027716"
     sodipodi:r1="2.5694244"
     sodipodi:r2="1.2847123"
     sodipodi:arg1="-1.8370484"
     sodipodi:arg2="-1.2087298"
     inkscape:flatsided="false"
     inkscape:rounded="0"
     inkscape:randomized="0"
     d="m 44.169273,15.548828 1.131115,1.277467 1.693593,-0.207569 -0.86541,1.470513 0.72076,1.546561 -1.665968,-0.36864 -1.248139,1.163396 -0.164215,-1.698345 -1.492152,-0.827542 1.564477,-0.680995 z"
     inkscape:transform-center-x="0.20891412"
     inkscape:transform-center-y="-0.03802358"
     transform="translate(-3.6056548,-0.9014137)" />
</svg>
