<?xml version="1.0" encoding="UTF-8" standalone="no"?>
<!-- Created with Inkscape (http://www.inkscape.org/) -->

<svg
   xmlns:dc="http://purl.org/dc/elements/1.1/"
   xmlns:cc="http://creativecommons.org/ns#"
   xmlns:rdf="http://www.w3.org/1999/02/22-rdf-syntax-ns#"
   xmlns:svg="http://www.w3.org/2000/svg"
   xmlns="http://www.w3.org/2000/svg"
   xmlns:xlink="http://www.w3.org/1999/xlink"
   xmlns:sodipodi="http://sodipodi.sourceforge.net/DTD/sodipodi-0.dtd"
   xmlns:inkscape="http://www.inkscape.org/namespaces/inkscape"
   version="1.0"
   width="96"
   height="96"
   id="svg2408"
   inkscape:version="0.48.5 r10040"
   sodipodi:docname="lastfm.svg">
  <sodipodi:namedview
     pagecolor="#ffffff"
     bordercolor="#666666"
     borderopacity="1"
     objecttolerance="10"
     gridtolerance="10"
     guidetolerance="10"
     inkscape:pageopacity="0"
     inkscape:pageshadow="2"
     inkscape:window-width="1680"
     inkscape:window-height="988"
     id="namedview55"
     showgrid="false"
     inkscape:zoom="2.1091463"
     inkscape:cx="22.020217"
     inkscape:cy="139.14892"
     inkscape:window-x="0"
     inkscape:window-y="-3"
     inkscape:window-maximized="1"
     inkscape:current-layer="svg2408" />
  <defs
     id="defs2410">
    <linearGradient
       id="linearGradient3697">
      <stop
         id="stop3699"
         style="stop-color:#ffffff;stop-opacity:1"
         offset="0" />
      <stop
         id="stop3701"
         style="stop-color:#ffffff;stop-opacity:0"
         offset="1" />
    </linearGradient>
    <linearGradient
       x1="45.447727"
       y1="92.539597"
       x2="45.447727"
       y2="7.0165396"
       id="ButtonShadow"
       gradientUnits="userSpaceOnUse"
       gradientTransform="scale(1.0058652,0.994169)">
      <stop
         id="stop3750"
         style="stop-color:#000000;stop-opacity:1"
         offset="0" />
      <stop
         id="stop3752"
         style="stop-color:#000000;stop-opacity:0.58823532"
         offset="1" />
    </linearGradient>
    <linearGradient
       id="linearGradient3737">
      <stop
         id="stop3739"
         style="stop-color:#ffffff;stop-opacity:1"
         offset="0" />
      <stop
         id="stop3741"
         style="stop-color:#ffffff;stop-opacity:0"
         offset="1" />
    </linearGradient>
    <linearGradient
       id="linearGradient3700">
      <stop
         id="stop3702"
         style="stop-color:#ca0019;stop-opacity:1"
         offset="0" />
      <stop
         id="stop3704"
         style="stop-color:#e68995;stop-opacity:1"
         offset="1" />
    </linearGradient>
    <filter
       color-interpolation-filters="sRGB"
       id="filter3174">
      <feGaussianBlur
         id="feGaussianBlur3176"
         stdDeviation="1.71" />
    </filter>
    <linearGradient
       x1="36.357143"
       y1="6"
       x2="36.357143"
       y2="63.893143"
       id="linearGradient3188"
       xlink:href="#linearGradient3737"
       gradientUnits="userSpaceOnUse" />
    <filter
       x="-0.192"
       y="-0.192"
       width="1.3839999"
       height="1.3839999"
       color-interpolation-filters="sRGB"
       id="filter3794">
      <feGaussianBlur
         id="feGaussianBlur3796"
         stdDeviation="5.28" />
    </filter>
    <linearGradient
       x1="48"
       y1="20.220806"
       x2="48"
       y2="138.66119"
       id="linearGradient3613"
       xlink:href="#linearGradient3737"
       gradientUnits="userSpaceOnUse" />
    <radialGradient
       cx="48"
       cy="90.171875"
       r="42"
       fx="48"
       fy="90.171875"
       id="radialGradient3619"
       xlink:href="#linearGradient3737"
       gradientUnits="userSpaceOnUse"
       gradientTransform="matrix(1.1573129,0,0,0.99590774,-7.5510206,0.19713193)" />
    <clipPath
       id="clipPath3613">
      <rect
         width="84"
         height="84"
         rx="6"
         ry="6"
         x="6"
         y="6"
         id="rect3615"
         style="fill:#ffffff;fill-opacity:1;fill-rule:nonzero;stroke:none" />
    </clipPath>
    <linearGradient
       x1="48"
       y1="90"
       x2="48"
       y2="5.9877172"
       id="linearGradient3617"
       xlink:href="#linearGradient3700"
       gradientUnits="userSpaceOnUse" />
    <linearGradient
       x1="45.447727"
       y1="92.539597"
       x2="45.447727"
       y2="7.0165396"
       id="ButtonShadow-0"
       gradientUnits="userSpaceOnUse"
       gradientTransform="matrix(1.0058652,0,0,0.994169,100,0)">
      <stop
         id="stop3750-8"
         style="stop-color:#000000;stop-opacity:1"
         offset="0" />
      <stop
         id="stop3752-5"
         style="stop-color:#000000;stop-opacity:0.58823532"
         offset="1" />
    </linearGradient>
    <linearGradient
       x1="32.251034"
       y1="6.1317081"
       x2="32.251034"
       y2="90.238609"
       id="linearGradient3780"
       xlink:href="#ButtonShadow-0"
       gradientUnits="userSpaceOnUse"
       gradientTransform="matrix(1.0238095,0,0,1.0119048,-1.1428571,-98.071429)" />
    <linearGradient
       x1="32.251034"
       y1="6.1317081"
       x2="32.251034"
       y2="90.238609"
       id="linearGradient3772"
       xlink:href="#ButtonShadow-0"
       gradientUnits="userSpaceOnUse"
       gradientTransform="matrix(1.0238095,0,0,1.0119048,-1.1428571,-98.071429)" />
    <linearGradient
       x1="32.251034"
       y1="6.1317081"
       x2="32.251034"
       y2="90.238609"
       id="linearGradient3725"
       xlink:href="#ButtonShadow-0"
       gradientUnits="userSpaceOnUse"
       gradientTransform="matrix(1.0238095,0,0,1.0119048,-1.1428571,-98.071429)" />
    <linearGradient
       x1="32.251034"
       y1="6.1317081"
       x2="32.251034"
       y2="90.238609"
       id="linearGradient3721"
       xlink:href="#ButtonShadow-0"
       gradientUnits="userSpaceOnUse"
       gradientTransform="translate(0,-97)" />
    <linearGradient
       x1="32.251034"
       y1="6.1317081"
       x2="32.251034"
       y2="90.238609"
       id="linearGradient3026"
       xlink:href="#ButtonShadow-0"
       gradientUnits="userSpaceOnUse"
       gradientTransform="matrix(1.0238095,0,0,1.0119048,-1.1428571,-98.071429)" />
    <linearGradient
       x1="96"
       y1="16"
       x2="16"
       y2="64"
       id="linearGradient3703"
       xlink:href="#linearGradient3697"
       gradientUnits="userSpaceOnUse" />
  </defs>
  <metadata
     id="metadata2413">
    <rdf:RDF>
      <cc:Work
         rdf:about="">
        <dc:format>image/svg+xml</dc:format>
        <dc:type
           rdf:resource="http://purl.org/dc/dcmitype/StillImage" />
        <dc:title></dc:title>
      </cc:Work>
    </rdf:RDF>
  </metadata>
  <g
     id="layer2"
     style="display:none">
    <rect
       width="86"
       height="85"
       rx="6"
       ry="6"
       x="5"
       y="7"
       id="rect3745"
       style="opacity:0.9;fill:url(#ButtonShadow);fill-opacity:1;fill-rule:nonzero;stroke:none;filter:url(#filter3174)" />
  </g>
  <rect
     style="fill:#d40000;fill-opacity:1;fill-rule:nonzero;stroke:none"
     id="rect2419"
     y="6"
     x="6"
     ry="0"
     rx="6"
     height="84"
     width="84" />
  <g
     id="layer5" />
  <g
     id="g3815"
     transform="translate(-1.5335505,9.463669)">
    <path
       style="color:#000000;fill:#ffffff;fill-opacity:1;fill-rule:nonzero;stroke:none;stroke-width:3.79999995;marker:none;visibility:visible;display:inline;overflow:visible;enable-background:accumulate"
       d="M 47.71875 23.75 C 46.519081 23.815703 45.306373 23.995903 44.09375 24.3125 C 34.392765 26.845276 28.419209 36.721677 30.75 46.375 C 31.98053 51.471427 35.29411 55.468057 39.5625 57.75 L 56.46875 57.75 C 63.784745 53.909948 67.90313 45.489131 65.90625 37.21875 C 63.866808 28.772092 56.116434 23.290079 47.71875 23.75 z "
       transform="translate(1.5335505,-9.463669)"
       id="path3026" />
    <path
       transform="matrix(0.46216566,0.32014529,-0.34893674,0.4918255,28.821501,-7.4643894)"
       sodipodi:type="arc"
       style="color:#000000;fill:#ffffff;fill-opacity:1;fill-rule:nonzero;stroke:none;stroke-width:3.79999995;marker:none;visibility:visible;display:inline;overflow:visible;enable-background:accumulate"
       id="path3796"
       sodipodi:cx="48.950798"
       sodipodi:cy="37.953613"
       sodipodi:rx="20.506414"
       sodipodi:ry="16.537432"
       d="m 69.457212,37.953613 c 0,9.133372 -9.181034,16.537432 -20.506414,16.537432 -11.32538,0 -20.506414,-7.40406 -20.506414,-16.537432 0,-9.133371 9.181034,-16.537431 20.506414,-16.537431 11.32538,0 20.506414,7.40406 20.506414,16.537431 z" />
    <path
       transform="matrix(0.83870968,0,0,1,7.0841866,-4.5858043)"
       d="m 38.69759,44.81665 c 0,3.05968 -3.442888,5.54004 -7.689905,5.54004 -4.247018,0 -7.689906,-2.48036 -7.689906,-5.54004 0,-3.059679 3.442888,-5.540039 7.689906,-5.540039 4.247017,0 7.689905,2.48036 7.689905,5.540039 z"
       sodipodi:ry="5.5400395"
       sodipodi:rx="7.6899056"
       sodipodi:cy="44.81665"
       sodipodi:cx="31.007685"
       id="path3798"
       style="color:#000000;fill:#ffffff;fill-opacity:1;fill-rule:nonzero;stroke:none;stroke-width:3.79999995;marker:none;visibility:visible;display:inline;overflow:visible;enable-background:accumulate"
       sodipodi:type="arc" />
    <path
       transform="matrix(0.92473118,0,0,0.98507463,36.641199,-3.1753426)"
       sodipodi:type="arc"
       style="color:#000000;fill:#ffffff;fill-opacity:1;fill-rule:nonzero;stroke:none;stroke-width:3.79999995;marker:none;visibility:visible;display:inline;overflow:visible;enable-background:accumulate"
       id="path3800"
       sodipodi:cx="31.007685"
       sodipodi:cy="44.81665"
       sodipodi:rx="7.6899056"
       sodipodi:ry="5.5400395"
       d="m 38.69759,44.81665 c 0,3.05968 -3.442888,5.54004 -7.689905,5.54004 -4.247018,0 -7.689906,-2.48036 -7.689906,-5.54004 0,-3.059679 3.442888,-5.540039 7.689906,-5.540039 4.247017,0 7.689905,2.48036 7.689905,5.540039 z" />
    <path
       transform="matrix(1.245509,0,0,2,-15.648174,-15.958831)"
       d="m 69.126462,22.160368 c 0,4.886353 -6.18239,8.847526 -13.808755,8.847526 -7.626365,0 -13.808755,-3.961173 -13.808755,-8.847526 0,-4.886353 6.18239,-8.847526 13.808755,-8.847526 7.626365,0 13.808755,3.961173 13.808755,8.847526 z"
       sodipodi:ry="8.8475256"
       sodipodi:rx="13.808755"
       sodipodi:cy="22.160368"
       sodipodi:cx="55.317707"
       id="path3813"
       style="color:#000000;fill:#ffffff;fill-opacity:1;fill-rule:nonzero;stroke:none;stroke-width:3.79999995;marker:none;visibility:visible;display:inline;overflow:visible;enable-background:accumulate"
       sodipodi:type="arc" />
    <path
       transform="matrix(1,0,0,0.84615385,1.1731284,5.3683369)"
       d="m 41.674328,30.594458 c 0,1.781007 -1.22167,3.224799 -2.728676,3.224799 -1.507006,0 -2.728676,-1.443792 -2.728676,-3.224799 0,-1.781008 1.22167,-3.2248 2.728676,-3.2248 1.507006,0 2.728676,1.443792 2.728676,3.2248 z"
       sodipodi:ry="3.2247992"
       sodipodi:rx="2.7286763"
       sodipodi:cy="30.594458"
       sodipodi:cx="38.945652"
       id="path3802"
       style="color:#000000;fill:#d40000;fill-opacity:1;fill-rule:nonzero;stroke:none;stroke-width:3.79999995;marker:none;visibility:visible;display:inline;overflow:visible;enable-background:accumulate"
       sodipodi:type="arc" />
    <path
       sodipodi:type="arc"
       style="color:#000000;fill:#d40000;fill-opacity:1;fill-rule:nonzero;stroke:none;stroke-width:3.79999995;marker:none;visibility:visible;display:inline;overflow:visible;enable-background:accumulate"
       id="path3804"
       sodipodi:cx="38.945652"
       sodipodi:cy="30.594458"
       sodipodi:rx="2.7286763"
       sodipodi:ry="3.2247992"
       d="m 41.674328,30.594458 c 0,1.781007 -1.22167,3.224799 -2.728676,3.224799 -1.507006,0 -2.728676,-1.443792 -2.728676,-3.224799 0,-1.781008 1.22167,-3.2248 2.728676,-3.2248 1.507006,0 2.728676,1.443792 2.728676,3.2248 z"
       transform="matrix(1,0,0,0.84615385,18.976737,5.3683369)" />
    <path
       inkscape:connector-curvature="0"
       id="path3806"
       d="m 43.399593,36.787634 c -0.0413,0.307202 -0.07934,0.590057 -0.07934,0.910362 0,3.420893 2.459891,6.19913 5.474328,6.19913 3.014439,0 5.43466,-2.778237 5.43466,-6.19913 0,-0.320166 0.0016,-0.603286 -0.03966,-0.910362 l -10.789982,0 z"
       style="color:#000000;fill:#d40000;fill-opacity:1;fill-rule:nonzero;stroke:none;stroke-width:3.79999995;marker:none;visibility:visible;display:inline;overflow:visible;enable-background:accumulate" />
  </g>
  <g
     transform="translate(62.200895,0)"
     id="g3848" />
  <path
     style="color:#000000;fill:#ffffff;fill-opacity:1;fill-rule:nonzero;stroke:none;stroke-width:3.79999995;marker:none;visibility:visible;display:inline;overflow:visible;enable-background:accumulate"
     d="m 18.916717,57.754623 5.152718,0 0,31.572779 -3.714751,0 z"
     id="rect3825"
     inkscape:connector-curvature="0"
     sodipodi:nodetypes="ccccc" />
  <g
     id="g3829"
     transform="matrix(0.73630345,0,0,1,14.277961,0)">
    <path
       style="color:#000000;fill:#ffffff;fill-opacity:1;fill-rule:nonzero;stroke:none;stroke-width:3.79999995;marker:none;visibility:visible;display:inline;overflow:visible;enable-background:accumulate"
       d="m 18.30006,57.754623 6.998091,0 0,31.572779 -5.745947,0 z"
       id="rect3827"
       inkscape:connector-curvature="0"
       sodipodi:nodetypes="ccccc" />
  </g>
  <g
     transform="matrix(0.73630345,0,0,1,23.113602,0)"
     id="g3832">
    <rect
       rx="0"
       y="57.754623"
       x="18.30006"
       height="31.572779"
       width="6.9980903"
       id="rect3834"
       style="color:#000000;fill:#ffffff;fill-opacity:1;fill-rule:nonzero;stroke:none;stroke-width:3.79999995;marker:none;visibility:visible;display:inline;overflow:visible;enable-background:accumulate" />
  </g>
  <g
     id="g3836"
     transform="matrix(0.73630345,0,0,1,31.949244,0)">
    <rect
       style="color:#000000;fill:#ffffff;fill-opacity:1;fill-rule:nonzero;stroke:none;stroke-width:3.79999995;marker:none;visibility:visible;display:inline;overflow:visible;enable-background:accumulate"
       id="rect3838"
       width="6.9980903"
       height="31.572779"
       x="18.30006"
       y="57.754623"
       rx="0" />
  </g>
  <g
     transform="matrix(0.73630345,0,0,1,40.784885,0)"
     id="g3840">
    <rect
       rx="0"
       y="57.754623"
       x="18.30006"
       height="31.572779"
       width="6.9980903"
       id="rect3842"
       style="color:#000000;fill:#ffffff;fill-opacity:1;fill-rule:nonzero;stroke:none;stroke-width:3.79999995;marker:none;visibility:visible;display:inline;overflow:visible;enable-background:accumulate" />
  </g>
  <g
     id="g3844"
     transform="matrix(0.73630345,0,0,1,49.620527,0)" />
  <path
     sodipodi:nodetypes="ccccc"
     inkscape:connector-curvature="0"
     id="path3881"
     d="m 77.083283,57.754623 -5.152718,0 0,31.572779 3.714751,0 z"
     style="color:#000000;fill:#ffffff;fill-opacity:1;fill-rule:nonzero;stroke:none;stroke-width:3.79999995;marker:none;visibility:visible;display:inline;overflow:visible;enable-background:accumulate" />
  <path
     sodipodi:type="arc"
     style="color:#000000;fill:#ffffff;fill-opacity:1;fill-rule:nonzero;stroke:none;stroke-width:3.79999995;marker:none;visibility:visible;display:inline;overflow:visible;enable-background:accumulate"
     id="path3900"
     sodipodi:cx="39.547344"
     sodipodi:cy="39.608414"
     sodipodi:rx="0.65098512"
     sodipodi:ry="0.73235828"
     d="m 40.198329,39.608414 a 0.65098512,0.73235828 0 1 1 -1.30197,0 0.65098512,0.73235828 0 1 1 1.30197,0 z" />
  <path
     d="m 40.198329,39.608414 a 0.65098512,0.73235828 0 1 1 -1.30197,0 0.65098512,0.73235828 0 1 1 1.30197,0 z"
     sodipodi:ry="0.73235828"
     sodipodi:rx="0.65098512"
     sodipodi:cy="39.608414"
     sodipodi:cx="39.547344"
     id="path3902"
     style="color:#000000;fill:#ffffff;fill-opacity:1;fill-rule:nonzero;stroke:none;stroke-width:3.79999995;marker:none;visibility:visible;display:inline;overflow:visible;enable-background:accumulate"
     sodipodi:type="arc"
     transform="translate(18,0)" />
  <g
     transform="matrix(-0.73630345,0,0,1,82.379474,0)"
     id="g3917">
    <path
       sodipodi:nodetypes="ccccc"
       inkscape:connector-curvature="0"
       id="path3919"
       d="m 18.30006,57.754623 6.998091,0 0,31.572779 -5.745947,0 z"
       style="color:#000000;fill:#ffffff;fill-opacity:1;fill-rule:nonzero;stroke:none;stroke-width:3.79999995;marker:none;visibility:visible;display:inline;overflow:visible;enable-background:accumulate" />
  </g>
</svg>
