<?xml version="1.0" encoding="UTF-8" standalone="no"?>
<!-- Created with Inkscape (http://www.inkscape.org/) -->

<svg
   xmlns:dc="http://purl.org/dc/elements/1.1/"
   xmlns:cc="http://creativecommons.org/ns#"
   xmlns:rdf="http://www.w3.org/1999/02/22-rdf-syntax-ns#"
   xmlns:svg="http://www.w3.org/2000/svg"
   xmlns="http://www.w3.org/2000/svg"
   xmlns:xlink="http://www.w3.org/1999/xlink"
   xmlns:sodipodi="http://sodipodi.sourceforge.net/DTD/sodipodi-0.dtd"
   xmlns:inkscape="http://www.inkscape.org/namespaces/inkscape"
   version="1.0"
   width="96"
   height="96"
   id="svg2408"
   inkscape:version="0.48.5 r10040"
   sodipodi:docname="bluefish.svg">
  <sodipodi:namedview
     pagecolor="#ffffff"
     bordercolor="#666666"
     borderopacity="1"
     objecttolerance="10"
     gridtolerance="10"
     guidetolerance="10"
     inkscape:pageopacity="0"
     inkscape:pageshadow="2"
     inkscape:window-width="1680"
     inkscape:window-height="988"
     id="namedview77"
     showgrid="false"
     inkscape:zoom="3.5847507"
     inkscape:cx="91.137652"
     inkscape:cy="51.232986"
     inkscape:window-x="0"
     inkscape:window-y="-3"
     inkscape:window-maximized="1"
     inkscape:current-layer="svg2408" />
  <defs
     id="defs2410">
    <linearGradient
       inkscape:collect="always"
       id="linearGradient3801">
      <stop
         style="stop-color:#b3b3b3;stop-opacity:1;"
         offset="0"
         id="stop3803" />
      <stop
         style="stop-color:#b3b3b3;stop-opacity:0;"
         offset="1"
         id="stop3805" />
    </linearGradient>
    <linearGradient
       id="linearGradient3771">
      <stop
         id="stop3773"
         style="stop-color:#154a99;stop-opacity:1"
         offset="0" />
      <stop
         id="stop3775"
         style="stop-color:#154a99;stop-opacity:0"
         offset="1" />
    </linearGradient>
    <linearGradient
       id="linearGradient3697">
      <stop
         id="stop3699"
         style="stop-color:#dcdcdc;stop-opacity:1"
         offset="0" />
      <stop
         id="stop3701"
         style="stop-color:#f0f0f0;stop-opacity:1"
         offset="1" />
    </linearGradient>
    <linearGradient
       id="linearGradient3614">
      <stop
         id="stop3616"
         style="stop-color:#2557a3;stop-opacity:1"
         offset="0" />
      <stop
         id="stop3618"
         style="stop-color:#5287d7;stop-opacity:1"
         offset="1" />
    </linearGradient>
    <linearGradient
       x1="45.447727"
       y1="92.539597"
       x2="45.447727"
       y2="7.0165396"
       id="ButtonShadow"
       gradientUnits="userSpaceOnUse"
       gradientTransform="scale(1.0058652,0.994169)">
      <stop
         id="stop3750"
         style="stop-color:#000000;stop-opacity:1"
         offset="0" />
      <stop
         id="stop3752"
         style="stop-color:#000000;stop-opacity:0.58823532"
         offset="1" />
    </linearGradient>
    <linearGradient
       id="linearGradient3737">
      <stop
         id="stop3739"
         style="stop-color:#ffffff;stop-opacity:1"
         offset="0" />
      <stop
         id="stop3741"
         style="stop-color:#ffffff;stop-opacity:0"
         offset="1" />
    </linearGradient>
    <filter
       color-interpolation-filters="sRGB"
       id="filter3174">
      <feGaussianBlur
         id="feGaussianBlur3176"
         stdDeviation="1.71" />
    </filter>
    <linearGradient
       x1="36.357143"
       y1="6"
       x2="36.357143"
       y2="63.893143"
       id="linearGradient3188"
       xlink:href="#linearGradient3737"
       gradientUnits="userSpaceOnUse" />
    <filter
       x="-0.192"
       y="-0.192"
       width="1.3839999"
       height="1.3839999"
       color-interpolation-filters="sRGB"
       id="filter3794">
      <feGaussianBlur
         id="feGaussianBlur3796"
         stdDeviation="5.28" />
    </filter>
    <linearGradient
       x1="48"
       y1="20.220806"
       x2="48"
       y2="138.66119"
       id="linearGradient3613"
       xlink:href="#linearGradient3737"
       gradientUnits="userSpaceOnUse" />
    <radialGradient
       cx="48"
       cy="90.171875"
       r="42"
       fx="48"
       fy="90.171875"
       id="radialGradient3619"
       xlink:href="#linearGradient3737"
       gradientUnits="userSpaceOnUse"
       gradientTransform="matrix(1.1573129,0,0,0.99590774,-7.5510206,0.19713193)" />
    <clipPath
       id="clipPath3613">
      <rect
         width="84"
         height="84"
         rx="6"
         ry="6"
         x="6"
         y="6"
         id="rect3615"
         style="fill:#ffffff;fill-opacity:1;fill-rule:nonzero;stroke:none" />
    </clipPath>
    <linearGradient
       x1="48"
       y1="90"
       x2="48"
       y2="5.9877172"
       id="linearGradient3617"
       xlink:href="#linearGradient3614"
       gradientUnits="userSpaceOnUse" />
    <clipPath
       id="clipPath3644">
      <path
         d="m 12,96 c -3.324,0 -6,2.676 -6,6 l 0,72 c 0,3.324 2.676,6 6,6 l 72,0 c 3.324,0 6,-2.676 6,-6 l 0,-72 c 0,-3.324 -2.676,-6 -6,-6 l -72,0 z m 36,11 c 18.225397,0 33,12.08831 33,27 0,14.91169 -14.774603,27 -33,27 -2.713933,0 -5.351493,-0.27575 -7.875,-0.78125 -3.392649,3.54119 -9.783335,8.23332 -19.40625,7.1875 7.429736,-2.10018 8.999125,-8.24125 9.34375,-10.75 C 20.99976,151.84346 15,143.49844 15,134 15,119.08831 29.774603,107 48,107 z"
         inkscape:connector-curvature="0"
         id="path3646"
         style="fill:url(#linearGradient3648);fill-opacity:1;fill-rule:nonzero;stroke:none" />
    </clipPath>
    <linearGradient
       x1="48"
       y1="90"
       x2="48"
       y2="5.9877172"
       id="linearGradient3648"
       xlink:href="#linearGradient3614"
       gradientUnits="userSpaceOnUse"
       gradientTransform="translate(0,90)" />
    <filter
       x="-0.17257486"
       y="-0.18809278"
       width="1.3451498"
       height="1.3761857"
       color-interpolation-filters="sRGB"
       id="filter3678">
      <feGaussianBlur
         id="feGaussianBlur3680"
         stdDeviation="4.745809" />
    </filter>
    <linearGradient
       x1="46.125015"
       y1="63.048103"
       x2="46.125015"
       y2="24.840103"
       id="linearGradient3703"
       xlink:href="#linearGradient3697"
       gradientUnits="userSpaceOnUse" />
    <linearGradient
       x1="46.125015"
       y1="63.048103"
       x2="46.125015"
       y2="24.840103"
       id="linearGradient3761"
       xlink:href="#linearGradient3697"
       gradientUnits="userSpaceOnUse" />
    <linearGradient
       x1="15"
       y1="47.277454"
       x2="106.50636"
       y2="47.024918"
       id="linearGradient3777"
       xlink:href="#linearGradient3771"
       gradientUnits="userSpaceOnUse" />
    <filter
       x="-0.18970989"
       y="-0.11606622"
       width="1.3794198"
       height="1.2321324"
       color-interpolation-filters="sRGB"
       id="filter3789">
      <feGaussianBlur
         id="feGaussianBlur3791"
         stdDeviation="1.8477742" />
    </filter>
    <linearGradient
       x1="45.447727"
       y1="92.539597"
       x2="45.447727"
       y2="7.0165396"
       id="ButtonShadow-0"
       gradientUnits="userSpaceOnUse"
       gradientTransform="matrix(1.0058652,0,0,0.994169,100,0)">
      <stop
         id="stop3750-8"
         style="stop-color:#000000;stop-opacity:1"
         offset="0" />
      <stop
         id="stop3752-5"
         style="stop-color:#000000;stop-opacity:0.58823532"
         offset="1" />
    </linearGradient>
    <linearGradient
       x1="32.251034"
       y1="6.1317081"
       x2="32.251034"
       y2="90.238609"
       id="linearGradient3780"
       xlink:href="#ButtonShadow-0"
       gradientUnits="userSpaceOnUse"
       gradientTransform="matrix(1.0238095,0,0,1.0119048,-1.1428571,-98.071429)" />
    <linearGradient
       x1="32.251034"
       y1="6.1317081"
       x2="32.251034"
       y2="90.238609"
       id="linearGradient3772"
       xlink:href="#ButtonShadow-0"
       gradientUnits="userSpaceOnUse"
       gradientTransform="matrix(1.0238095,0,0,1.0119048,-1.1428571,-98.071429)" />
    <linearGradient
       x1="32.251034"
       y1="6.1317081"
       x2="32.251034"
       y2="90.238609"
       id="linearGradient3725"
       xlink:href="#ButtonShadow-0"
       gradientUnits="userSpaceOnUse"
       gradientTransform="matrix(1.0238095,0,0,1.0119048,-1.1428571,-98.071429)" />
    <linearGradient
       x1="32.251034"
       y1="6.1317081"
       x2="32.251034"
       y2="90.238609"
       id="linearGradient3721"
       xlink:href="#ButtonShadow-0"
       gradientUnits="userSpaceOnUse"
       gradientTransform="translate(0,-97)" />
    <linearGradient
       x1="32.251034"
       y1="6.1317081"
       x2="32.251034"
       y2="90.238609"
       id="linearGradient2918"
       xlink:href="#ButtonShadow-0"
       gradientUnits="userSpaceOnUse"
       gradientTransform="matrix(1.0238095,0,0,1.0119048,-1.1428571,-98.071429)" />
    <radialGradient
       inkscape:collect="always"
       xlink:href="#linearGradient3801"
       id="radialGradient3807"
       cx="17.638391"
       cy="46.702953"
       fx="17.638391"
       fy="46.702953"
       r="2.0351992"
       gradientTransform="matrix(0.77772814,-0.01214011,0.1728395,21.131196,-3.6993306,-937.59783)"
       gradientUnits="userSpaceOnUse" />
    <radialGradient
       inkscape:collect="always"
       xlink:href="#linearGradient3801"
       id="radialGradient3811"
       gradientUnits="userSpaceOnUse"
       gradientTransform="matrix(0.77772814,-0.01214011,0.1728395,21.131196,12.300669,-937.59783)"
       cx="17.638391"
       cy="46.702953"
       fx="17.638391"
       fy="46.702953"
       r="2.0351992" />
    <radialGradient
       inkscape:collect="always"
       xlink:href="#linearGradient3801"
       id="radialGradient3815"
       gradientUnits="userSpaceOnUse"
       gradientTransform="matrix(0.77772814,-0.01214011,0.1728395,21.131196,28.300669,-937.59783)"
       cx="17.638391"
       cy="46.702953"
       fx="17.638391"
       fy="46.702953"
       r="2.0351992" />
    <radialGradient
       inkscape:collect="always"
       xlink:href="#linearGradient3801"
       id="radialGradient3819"
       gradientUnits="userSpaceOnUse"
       gradientTransform="matrix(0.77772814,-0.01214011,0.1728395,21.131196,44.300669,-937.59783)"
       cx="17.638391"
       cy="46.702953"
       fx="17.638391"
       fy="46.702953"
       r="2.0351992" />
    <radialGradient
       inkscape:collect="always"
       xlink:href="#linearGradient3801"
       id="radialGradient3827"
       gradientUnits="userSpaceOnUse"
       gradientTransform="matrix(0.77772814,-0.01214011,0.1728395,21.131196,-3.6993306,-937.59783)"
       cx="17.638391"
       cy="46.702953"
       fx="17.638391"
       fy="46.702953"
       r="2.0351992" />
    <radialGradient
       inkscape:collect="always"
       xlink:href="#linearGradient3801"
       id="radialGradient3829"
       gradientUnits="userSpaceOnUse"
       gradientTransform="matrix(0.77772814,-0.01214011,0.1728395,21.131196,12.300669,-937.59783)"
       cx="17.638391"
       cy="46.702953"
       fx="17.638391"
       fy="46.702953"
       r="2.0351992" />
    <radialGradient
       inkscape:collect="always"
       xlink:href="#linearGradient3801"
       id="radialGradient3831"
       gradientUnits="userSpaceOnUse"
       gradientTransform="matrix(0.77772814,-0.01214011,0.1728395,21.131196,28.300669,-937.59783)"
       cx="17.638391"
       cy="46.702953"
       fx="17.638391"
       fy="46.702953"
       r="2.0351992" />
    <radialGradient
       inkscape:collect="always"
       xlink:href="#linearGradient3801"
       id="radialGradient3833"
       gradientUnits="userSpaceOnUse"
       gradientTransform="matrix(0.77772814,-0.01214011,0.1728395,21.131196,44.300669,-937.59783)"
       cx="17.638391"
       cy="46.702953"
       fx="17.638391"
       fy="46.702953"
       r="2.0351992" />
    <radialGradient
       inkscape:collect="always"
       xlink:href="#linearGradient3801"
       id="radialGradient3845"
       gradientUnits="userSpaceOnUse"
       gradientTransform="matrix(0.77772814,-0.01214011,0.1728395,21.131196,-3.6993306,-937.59783)"
       cx="17.638391"
       cy="46.702953"
       fx="17.638391"
       fy="46.702953"
       r="2.0351992" />
    <radialGradient
       inkscape:collect="always"
       xlink:href="#linearGradient3801"
       id="radialGradient3847"
       gradientUnits="userSpaceOnUse"
       gradientTransform="matrix(0.77772814,-0.01214011,0.1728395,21.131196,12.300669,-937.59783)"
       cx="17.638391"
       cy="46.702953"
       fx="17.638391"
       fy="46.702953"
       r="2.0351992" />
    <radialGradient
       inkscape:collect="always"
       xlink:href="#linearGradient3801"
       id="radialGradient3849"
       gradientUnits="userSpaceOnUse"
       gradientTransform="matrix(0.77772814,-0.01214011,0.1728395,21.131196,28.300669,-937.59783)"
       cx="17.638391"
       cy="46.702953"
       fx="17.638391"
       fy="46.702953"
       r="2.0351992" />
    <radialGradient
       inkscape:collect="always"
       xlink:href="#linearGradient3801"
       id="radialGradient3851"
       gradientUnits="userSpaceOnUse"
       gradientTransform="matrix(0.77772814,-0.01214011,0.1728395,21.131196,44.300669,-937.59783)"
       cx="17.638391"
       cy="46.702953"
       fx="17.638391"
       fy="46.702953"
       r="2.0351992" />
  </defs>
  <metadata
     id="metadata2413">
    <rdf:RDF>
      <cc:Work
         rdf:about="">
        <dc:format>image/svg+xml</dc:format>
        <dc:type
           rdf:resource="http://purl.org/dc/dcmitype/StillImage" />
        <dc:title></dc:title>
      </cc:Work>
    </rdf:RDF>
  </metadata>
  <g
     id="layer2"
     style="display:none">
    <rect
       width="86"
       height="85"
       rx="6"
       ry="6"
       x="5"
       y="7"
       id="rect3745"
       style="opacity:0.9;fill:url(#ButtonShadow);fill-opacity:1;fill-rule:nonzero;stroke:none;filter:url(#filter3174)" />
  </g>
  <rect
     style="fill:#328db7;fill-opacity:1;fill-rule:nonzero;stroke:none"
     id="rect2419"
     y="6"
     x="6"
     ry="0"
     rx="6"
     height="84"
     width="84" />
  <g
     id="layer5"
     style="display:none">
    <rect
       width="66"
       height="66"
       rx="12"
       ry="12"
       x="15"
       y="15"
       clip-path="url(#clipPath3613)"
       id="rect3171"
       style="opacity:0.1;fill:url(#linearGradient3613);fill-opacity:1;fill-rule:nonzero;stroke:#ffffff;stroke-width:0.5;stroke-linecap:round;stroke-linejoin:miter;stroke-miterlimit:4;stroke-opacity:1;stroke-dasharray:none;stroke-dashoffset:0;filter:url(#filter3794)" />
  </g>
  <g
     id="g3078"
     transform="translate(-6.6069338,0.09176297)">
    <path
       sodipodi:nodetypes="csccsssccsssc"
       inkscape:connector-curvature="0"
       id="path3296"
       d="m 53.96407,30.236722 c -3.842312,9.69e-4 -7.670233,1.289774 -10.6379,3.581629 -2.967669,2.291856 -5.053421,5.570028 -5.796366,9.11014 -0.475642,-0.06844 -0.956523,-0.104758 -1.437698,-0.108583 -2.631865,0 -5.247522,1.017428 -7.108531,2.765048 -1.861008,1.747619 -2.944449,4.203907 -2.944449,6.675415 0,2.471508 1.083441,4.927795 2.944449,6.675415 1.861009,1.747619 4.476666,2.765047 7.108531,2.765047 10.558966,0 10.337777,-0.101002 17.871964,0.0041 4.38644,2e-6 8.745872,-1.695711 11.847553,-4.60841 3.101682,-2.912693 4.907416,-7.006509 4.907414,-11.125688 2e-6,-4.119179 -1.805732,-8.212994 -4.907414,-11.125694 C 62.709942,31.932433 58.35051,30.23672 53.96407,30.236722 z"
       style="fill:#f2f2f2;fill-opacity:1;fill-rule:evenodd;stroke:none" />
    <path
       transform="matrix(1.3235294,0,0,1.4269663,-25.080977,-36.049028)"
       d="m 78.090284,53.697269 c 0,4.510457 -4.190535,8.166905 -9.359823,8.166905 -5.169288,0 -9.359823,-3.656448 -9.359823,-8.166905 0,-4.510456 4.190535,-8.166904 9.359823,-8.166904 5.169288,0 9.359823,3.656448 9.359823,8.166904 z"
       sodipodi:ry="8.1669044"
       sodipodi:rx="9.3598232"
       sodipodi:cy="53.697269"
       sodipodi:cx="68.730461"
       id="path3071"
       style="color:#000000;fill:#f2f2f2;fill-opacity:1;fill-rule:nonzero;stroke:none;stroke-width:3.79999995;marker:none;visibility:visible;display:inline;overflow:visible;enable-background:accumulate"
       sodipodi:type="arc" />
    <path
       id="path3073"
       d="m 64.96875,42.875 c -11.250802,0 -20.375,4.438797 -20.375,9.9375 0,3.780358 4.305978,7.09526 10.65625,8.78125 l 19.4375,0 c 6.350272,-1.68599 10.65625,-5.000892 10.65625,-8.78125 0,-5.498703 -9.124198,-9.9375 -20.375,-9.9375 z"
       style="color:#000000;fill:#f2f2f2;fill-opacity:1;fill-rule:nonzero;stroke:none;stroke-width:3.79999995;marker:none;visibility:visible;display:inline;overflow:visible;enable-background:accumulate"
       inkscape:connector-curvature="0" />
  </g>
  <g
     transform="matrix(0.89363627,0,0,0.89363627,-0.68338474,4.9114334)"
     id="g3083"
     style="fill:#f2f2f2;fill-opacity:1">
    <path
       style="fill:#f2f2f2;fill-opacity:1;fill-rule:evenodd;stroke:none"
       d="m 53.96407,30.236722 c -3.842312,9.69e-4 -7.670233,1.289774 -10.6379,3.581629 -2.967669,2.291856 -5.053421,5.570028 -5.796366,9.11014 -0.475642,-0.06844 -0.956523,-0.104758 -1.437698,-0.108583 -2.631865,0 -5.247522,1.017428 -7.108531,2.765048 -1.861008,1.747619 -2.944449,4.203907 -2.944449,6.675415 0,2.471508 1.083441,4.927795 2.944449,6.675415 1.861009,1.747619 4.476666,2.765047 7.108531,2.765047 10.558966,0 10.337777,-0.101002 17.871964,0.0041 4.38644,2e-6 8.745872,-1.695711 11.847553,-4.60841 3.101682,-2.912693 4.907416,-7.006509 4.907414,-11.125688 2e-6,-4.119179 -1.805732,-8.212994 -4.907414,-11.125694 C 62.709942,31.932433 58.35051,30.23672 53.96407,30.236722 z"
       id="path3085"
       inkscape:connector-curvature="0"
       sodipodi:nodetypes="csccsssccsssc" />
    <path
       sodipodi:type="arc"
       style="color:#000000;fill:#f2f2f2;fill-opacity:1;fill-rule:nonzero;stroke:none;stroke-width:3.79999995000000013;marker:none;visibility:visible;display:inline;overflow:visible;enable-background:accumulate"
       id="path3087"
       sodipodi:cx="68.730461"
       sodipodi:cy="53.697269"
       sodipodi:rx="9.3598232"
       sodipodi:ry="8.1669044"
       d="m 78.090284,53.697269 c 0,4.510457 -4.190535,8.166905 -9.359823,8.166905 -5.169288,0 -9.359823,-3.656448 -9.359823,-8.166905 0,-4.510456 4.190535,-8.166904 9.359823,-8.166904 5.169288,0 9.359823,3.656448 9.359823,8.166904 z"
       transform="matrix(1.3235294,0,0,1.4269663,-25.080977,-36.049028)" />
    <path
       inkscape:connector-curvature="0"
       style="color:#000000;fill:#f2f2f2;fill-opacity:1;fill-rule:nonzero;stroke:none;stroke-width:3.79999995000000013;marker:none;visibility:visible;display:inline;overflow:visible;enable-background:accumulate"
       d="m 64.96875,42.875 c -11.250802,0 -20.375,4.438797 -20.375,9.9375 0,3.780358 4.305978,7.09526 10.65625,8.78125 l 19.4375,0 c 6.350272,-1.68599 10.65625,-5.000892 10.65625,-8.78125 0,-5.498703 -9.124198,-9.9375 -20.375,-9.9375 z"
       id="path3089" />
  </g>
  <path
     sodipodi:type="spiral"
     style="fill:none;stroke:#328db7;stroke-width:1px;stroke-linecap:butt;stroke-linejoin:miter;stroke-opacity:1"
     id="path3091"
     sodipodi:cx="46.982639"
     sodipodi:cy="45.622131"
     sodipodi:expansion="1"
     sodipodi:revolution="3.1940923"
     sodipodi:radius="27.236294"
     sodipodi:argument="-19.463316"
     sodipodi:t0="0.035056211"
     d="m 47.933595,45.707744 c 1.17842,0.9984 -0.180789,2.636398 -1.227713,2.988527 -2.36701,0.796134 -4.552246,-1.32526 -4.920566,-3.542043 -0.590284,-3.552698 2.477189,-6.538119 5.856372,-6.852605 4.716581,-0.438951 8.546746,3.632853 8.784644,8.170702 0.308032,5.87565 -4.789458,10.56547 -10.485032,10.716683 -7.033213,0.186726 -12.58959,-5.946429 -12.648721,-12.799361 -0.07067,-8.1902 7.103592,-14.616938 15.11369,-14.580761 9.346937,0.04221 16.646368,8.260878 16.512799,17.428021 C 64.766027,57.740462 55.500821,65.914129 45.176719,65.681745 33.516602,65.419288 24.467626,55.106064 24.799842,43.625065 25.170706,30.808415 36.533003,20.883354 49.170851,21.31615 c 13.973169,0.478525 24.7749,12.89068 24.240954,26.685338 -0.179391,4.634622 -1.592086,9.190528 -4.039001,13.128583"
     transform="matrix(0.65807311,0,0,0.65807311,17.434671,18.175422)" />
</svg>
