<?xml version="1.0" encoding="UTF-8" standalone="no"?>
<!-- Created with Inkscape (http://www.inkscape.org/) -->

<svg
   xmlns:dc="http://purl.org/dc/elements/1.1/"
   xmlns:cc="http://creativecommons.org/ns#"
   xmlns:rdf="http://www.w3.org/1999/02/22-rdf-syntax-ns#"
   xmlns:svg="http://www.w3.org/2000/svg"
   xmlns="http://www.w3.org/2000/svg"
   xmlns:xlink="http://www.w3.org/1999/xlink"
   xmlns:sodipodi="http://sodipodi.sourceforge.net/DTD/sodipodi-0.dtd"
   xmlns:inkscape="http://www.inkscape.org/namespaces/inkscape"
   version="1.0"
   width="96"
   height="96"
   id="svg2408"
   inkscape:version="0.48.5 r10040"
   sodipodi:docname="seafile.svg">
  <sodipodi:namedview
     pagecolor="#ffffff"
     bordercolor="#666666"
     borderopacity="1"
     objecttolerance="10"
     gridtolerance="10"
     guidetolerance="10"
     inkscape:pageopacity="0"
     inkscape:pageshadow="2"
     inkscape:window-width="1680"
     inkscape:window-height="991"
     id="namedview76"
     showgrid="false"
     inkscape:zoom="5.4312291"
     inkscape:cx="17.614218"
     inkscape:cy="35.971103"
     inkscape:window-x="0"
     inkscape:window-y="-3"
     inkscape:window-maximized="1"
     inkscape:current-layer="svg2408" />
  <defs
     id="defs2410">
    <linearGradient
       id="linearGradient3687">
      <stop
         id="stop3689"
         style="stop-color:#ffffff;stop-opacity:1"
         offset="0" />
      <stop
         id="stop3691"
         style="stop-color:#ffffff;stop-opacity:0"
         offset="1" />
    </linearGradient>
    <linearGradient
       x1="58.650177"
       y1="122"
       x2="58.650177"
       y2="5.4252338"
       id="linearGradient3677"
       gradientUnits="userSpaceOnUse"
       gradientTransform="matrix(1.0172414,0,0,1.0172414,-1.1034483,-1.1034483)">
      <stop
         id="stop3679"
         style="stop-color:#2782e9;stop-opacity:1"
         offset="0" />
      <stop
         id="stop3681"
         style="stop-color:#193693;stop-opacity:1"
         offset="1" />
    </linearGradient>
    <linearGradient
       x1="45.447727"
       y1="92.539597"
       x2="45.447727"
       y2="7.0165396"
       id="ButtonShadow"
       gradientUnits="userSpaceOnUse"
       gradientTransform="scale(1.0058652,0.994169)">
      <stop
         id="stop3750"
         style="stop-color:#000000;stop-opacity:1"
         offset="0" />
      <stop
         id="stop3752"
         style="stop-color:#000000;stop-opacity:0.58823532"
         offset="1" />
    </linearGradient>
    <linearGradient
       id="linearGradient3737">
      <stop
         id="stop3739"
         style="stop-color:#ffffff;stop-opacity:1"
         offset="0" />
      <stop
         id="stop3741"
         style="stop-color:#ffffff;stop-opacity:0"
         offset="1" />
    </linearGradient>
    <filter
       color-interpolation-filters="sRGB"
       id="filter3174">
      <feGaussianBlur
         id="feGaussianBlur3176"
         stdDeviation="1.71" />
    </filter>
    <linearGradient
       x1="36.357143"
       y1="6"
       x2="36.357143"
       y2="63.893143"
       id="linearGradient3188"
       xlink:href="#linearGradient3737"
       gradientUnits="userSpaceOnUse" />
    <filter
       x="-0.192"
       y="-0.192"
       width="1.3839999"
       height="1.3839999"
       color-interpolation-filters="sRGB"
       id="filter3794">
      <feGaussianBlur
         id="feGaussianBlur3796"
         stdDeviation="5.28" />
    </filter>
    <linearGradient
       x1="48"
       y1="20.220806"
       x2="48"
       y2="138.66119"
       id="linearGradient3613"
       xlink:href="#linearGradient3737"
       gradientUnits="userSpaceOnUse" />
    <radialGradient
       cx="48"
       cy="90.171875"
       r="42"
       fx="48"
       fy="90.171875"
       id="radialGradient3619"
       xlink:href="#linearGradient3737"
       gradientUnits="userSpaceOnUse"
       gradientTransform="matrix(1.1573129,0,0,0.99590774,-7.5510206,0.19713193)" />
    <clipPath
       id="clipPath3613">
      <rect
         width="84"
         height="84"
         rx="6"
         ry="6"
         x="6"
         y="6"
         id="rect3615"
         style="fill:#ffffff;fill-opacity:1;fill-rule:nonzero;stroke:none" />
    </clipPath>
    <linearGradient
       x1="48"
       y1="90"
       x2="48"
       y2="5.9877172"
       id="linearGradient3617"
       xlink:href="#ButtonColor"
       gradientUnits="userSpaceOnUse" />
    <linearGradient
       x1="58.650177"
       y1="122"
       x2="58.650177"
       y2="5.4252338"
       id="ButtonColor"
       gradientUnits="userSpaceOnUse"
       gradientTransform="matrix(1.0172414,0,0,1.0172414,-1.1034483,-1.1034483)">
      <stop
         id="stop3189"
         style="stop-color:#183288;stop-opacity:1"
         offset="0" />
      <stop
         id="stop3191"
         style="stop-color:#5072e1;stop-opacity:1"
         offset="1" />
    </linearGradient>
    <linearGradient
       id="linearGradient3374">
      <stop
         id="stop3376"
         style="stop-color:#000000;stop-opacity:1"
         offset="0" />
      <stop
         id="stop3378"
         style="stop-color:#000000;stop-opacity:0"
         offset="1" />
    </linearGradient>
    <linearGradient
       id="linearGradient8650">
      <stop
         id="stop8652"
         style="stop-color:#ffffff;stop-opacity:1"
         offset="0" />
      <stop
         id="stop8654"
         style="stop-color:#ffffff;stop-opacity:0"
         offset="1" />
    </linearGradient>
    <linearGradient
       x1="48"
       y1="90"
       x2="48"
       y2="5.9877172"
       id="linearGradient3839"
       xlink:href="#ButtonColor"
       gradientUnits="userSpaceOnUse"
       gradientTransform="translate(0,-100)" />
    <linearGradient
       x1="48.800022"
       y1="16"
       x2="59.752357"
       y2="56.874668"
       id="linearGradient2943"
       xlink:href="#linearGradient3374"
       gradientUnits="userSpaceOnUse"
       gradientTransform="matrix(-0.67083322,0,0,-0.7083333,90.936318,93.33333)" />
    <linearGradient
       x1="48.800022"
       y1="16"
       x2="59.752357"
       y2="56.874668"
       id="linearGradient2947"
       xlink:href="#linearGradient8650"
       gradientUnits="userSpaceOnUse"
       gradientTransform="matrix(0.67083322,0,0,0.7083333,5.0666738,2.6666673)" />
    <radialGradient
       cx="48"
       cy="66.450142"
       r="23"
       fx="48"
       fy="66.450142"
       id="radialGradient3683"
       xlink:href="#linearGradient3677"
       gradientUnits="userSpaceOnUse"
       gradientTransform="matrix(1.3301229,-7.4935036e-8,9.5652174e-8,1.6978593,-15.845903,-37.548861)" />
    <linearGradient
       x1="35.102802"
       y1="6.8540382"
       x2="35.102802"
       y2="34.885773"
       id="linearGradient3703"
       xlink:href="#linearGradient3687"
       gradientUnits="userSpaceOnUse" />
    <linearGradient
       x1="62.339497"
       y1="48"
       x2="62.339497"
       y2="-6.5482373"
       id="linearGradient3725"
       xlink:href="#linearGradient3687"
       gradientUnits="userSpaceOnUse" />
    <linearGradient
       x1="45.447727"
       y1="92.539597"
       x2="45.447727"
       y2="7.0165396"
       id="ButtonShadow-0"
       gradientUnits="userSpaceOnUse"
       gradientTransform="matrix(1.0058652,0,0,0.994169,100,0)">
      <stop
         id="stop3750-8"
         style="stop-color:#000000;stop-opacity:1"
         offset="0" />
      <stop
         id="stop3752-5"
         style="stop-color:#000000;stop-opacity:0.58823532"
         offset="1" />
    </linearGradient>
    <linearGradient
       x1="32.251034"
       y1="6.1317081"
       x2="32.251034"
       y2="90.238609"
       id="linearGradient3780"
       xlink:href="#ButtonShadow-0"
       gradientUnits="userSpaceOnUse"
       gradientTransform="matrix(1.0238095,0,0,1.0119048,-1.1428571,-98.071429)" />
    <linearGradient
       x1="32.251034"
       y1="6.1317081"
       x2="32.251034"
       y2="90.238609"
       id="linearGradient3772"
       xlink:href="#ButtonShadow-0"
       gradientUnits="userSpaceOnUse"
       gradientTransform="matrix(1.0238095,0,0,1.0119048,-1.1428571,-98.071429)" />
    <linearGradient
       x1="32.251034"
       y1="6.1317081"
       x2="32.251034"
       y2="90.238609"
       id="linearGradient3725-0"
       xlink:href="#ButtonShadow-0"
       gradientUnits="userSpaceOnUse"
       gradientTransform="matrix(1.0238095,0,0,1.0119048,-1.1428571,-98.071429)" />
    <linearGradient
       x1="32.251034"
       y1="6.1317081"
       x2="32.251034"
       y2="90.238609"
       id="linearGradient3721"
       xlink:href="#ButtonShadow-0"
       gradientUnits="userSpaceOnUse"
       gradientTransform="translate(0,-97)" />
    <linearGradient
       x1="32.251034"
       y1="6.1317081"
       x2="32.251034"
       y2="90.238609"
       id="linearGradient3122"
       xlink:href="#ButtonShadow-0"
       gradientUnits="userSpaceOnUse"
       gradientTransform="matrix(1.0238095,0,0,1.0119048,-1.1428571,-98.071429)" />
  </defs>
  <metadata
     id="metadata2413">
    <rdf:RDF>
      <cc:Work
         rdf:about="">
        <dc:format>image/svg+xml</dc:format>
        <dc:type
           rdf:resource="http://purl.org/dc/dcmitype/StillImage" />
        <dc:title></dc:title>
      </cc:Work>
    </rdf:RDF>
  </metadata>
  <g
     id="layer2"
     style="display:none">
    <rect
       width="86"
       height="85"
       rx="6"
       ry="6"
       x="5"
       y="7"
       id="rect3745"
       style="opacity:0.9;fill:url(#ButtonShadow);fill-opacity:1;fill-rule:nonzero;stroke:none;filter:url(#filter3174)" />
  </g>
  <g
     id="layer1">
    <rect
       width="84"
       height="84"
       rx="6"
       ry="0"
       x="6"
       y="6"
       id="rect2419"
       style="fill:#3551ae;fill-opacity:1;fill-rule:nonzero;stroke:none" />
  </g>
  <g
     id="layer5" />
  <g
     id="g3882"
     transform="translate(-0.25400925,-3.8131813)">
    <path
       sodipodi:nodetypes="cscssccssc"
       inkscape:connector-curvature="0"
       id="path3070"
       d="m 19.700881,79.411934 c 0,0 8.111729,8.187489 17.406418,5.076243 9.294689,-3.111246 7.604746,-6.058742 7.604746,-6.058742 0,0 5.06983,4.257494 9.463683,5.731243 4.393853,1.473747 13.857537,0 12.843571,-6.713741 -1.013966,-6.713741 3.210893,6.386241 12.336588,7.368739 L 65.836339,73.353192 c 0,0 -3.210893,5.731243 -6.59078,9.333737 -3.379887,3.602496 -14.140238,-10.091374 -17.068429,-4.584993 -2.975594,5.59552 -22.476249,1.309998 -22.476249,1.309998 z"
       style="fill:#ffffff;fill-opacity:1;stroke:none" />
    <path
       style="fill:#ffffff;fill-opacity:1;stroke:none"
       d="m 35.351115,65.971146 c 0,0 6.359195,8.187489 13.645772,5.076243 7.286577,-3.111246 5.961745,-6.058742 5.961745,-6.058742 0,0 3.974496,4.257494 7.41906,5.731243 3.444564,1.473747 10.863625,0 10.068726,-6.713741 -0.7949,-6.713741 2.517181,6.386241 9.671275,7.368739 L 71.519035,59.912404 c 0,0 -2.517181,5.731243 -5.166846,9.333737 -2.649664,3.602496 -11.085248,-10.091374 -13.380805,-4.584993 -2.332719,5.59552 -17.620269,1.309998 -17.620269,1.309998 z"
       id="path3840"
       inkscape:connector-curvature="0"
       sodipodi:nodetypes="cscssccssc" />
    <g
       transform="translate(-4.3402765,0)"
       id="g3844">
      <path
         style="fill:#ffffff"
         id="path5"
         d="m 63.489023,37.882242 c 0.07823,-0.492226 0.115791,-0.992862 0.115791,-1.493408 0,-6.244708 -5.750107,-11.327787 -12.821199,-11.327787 -4.10058,0 -7.866106,1.711911 -10.25135,4.51899 -0.841992,-0.179828 -1.699611,-0.27107 -2.569849,-0.27107 -6.185228,0 -11.218549,4.447041 -11.218549,9.911814 0,0.138322 0.0031,0.273813 0.0094,0.409304 -4.635765,1.216852 -8.022665,5.016793 -8.022665,9.502508 0,5.464772 5.033323,9.911813 11.21855,9.911813 h 27.245047 c 7.071092,0 12.8212,-5.080335 12.8212,-11.327786 0,-4.128978 -2.569849,-7.859714 -6.526391,-9.834378 z M 57.194214,56.212459 H 29.949166 c -4.426119,0 -8.01325,-3.16939 -8.01325,-7.079866 0,-3.910476 3.587232,-7.079865 8.01325,-7.079865 0.244204,0 0.475787,0.04425 0.71368,0.06363 -0.450745,-0.884983 -0.71368,-1.861208 -0.71368,-2.895577 0,-3.910564 3.587232,-7.079866 8.01325,-7.079866 1.446192,0 2.785907,0.365056 3.956542,0.956932 1.452401,-3.058768 4.873658,-5.204852 8.864657,-5.204852 5.311882,0 9.615899,3.802685 9.615899,8.495841 0,1.11729 -0.259829,2.17927 -0.704264,3.158327 4.091164,0.978969 7.114865,4.24792 7.114865,8.169458 0,4.693155 -4.304018,8.49584 -9.615901,8.49584 z"
         inkscape:connector-curvature="0" />
      <path
         inkscape:connector-curvature="0"
         d="m 82.95954,24.307439 c 0.03585,-0.22554 0.05306,-0.454934 0.05306,-0.684286 0,-2.861353 -2.634723,-5.190441 -5.874728,-5.190441 -1.878903,0 -3.604283,0.784405 -4.697213,2.070621 -0.385804,-0.0824 -0.778769,-0.124206 -1.177516,-0.124206 -2.834097,0 -5.140386,2.037654 -5.140386,4.541636 0,0.06338 0.0014,0.125462 0.0043,0.187545 -2.124127,0.557566 -3.676019,2.298716 -3.676019,4.35409 0,2.503981 2.30629,4.541635 5.140387,4.541635 h 12.483797 c 3.240005,0 5.874729,-2.327831 5.874729,-5.19044 0,-1.891915 -1.177516,-3.601355 -2.99042,-4.506154 z m -2.884308,8.398984 H 67.591435 c -2.028067,0 -3.671706,-1.452229 -3.671706,-3.244025 0,-1.791798 1.643685,-3.244025 3.671706,-3.244025 0.111895,0 0.218007,0.02028 0.327011,0.02916 -0.206533,-0.405502 -0.327011,-0.852813 -0.327011,-1.326765 0,-1.791837 1.643684,-3.244025 3.671705,-3.244025 0.662652,0 1.276515,0.16727 1.812905,0.43847 0.665496,-1.40154 2.233131,-2.384885 4.061823,-2.384885 2.433927,0 4.406047,1.742407 4.406047,3.892831 0,0.511946 -0.119055,0.998551 -0.322698,1.447159 1.87459,0.448567 3.260062,1.946415 3.260062,3.74328 0,2.150424 -1.97212,3.892831 -4.406047,3.892831 z"
         id="path3842"
         style="fill:#ffffff" />
    </g>
  </g>
</svg>
