<?xml version="1.0" encoding="UTF-8" standalone="no"?>
<!-- Created using Karbon, part of Calligra: http://www.calligra.org/karbon -->

<svg
   xmlns:dc="http://purl.org/dc/elements/1.1/"
   xmlns:cc="http://creativecommons.org/ns#"
   xmlns:rdf="http://www.w3.org/1999/02/22-rdf-syntax-ns#"
   xmlns:svg="http://www.w3.org/2000/svg"
   xmlns="http://www.w3.org/2000/svg"
   xmlns:xlink="http://www.w3.org/1999/xlink"
   xmlns:sodipodi="http://sodipodi.sourceforge.net/DTD/sodipodi-0.dtd"
   xmlns:inkscape="http://www.inkscape.org/namespaces/inkscape"
   width="96"
   height="96"
   id="svg2"
   version="1.1"
   inkscape:version="0.48.4 r9939"
   sodipodi:docname="start-here-fedora.svg">
  <metadata
     id="metadata12">
    <rdf:RDF>
      <cc:Work
         rdf:about="">
        <dc:format>image/svg+xml</dc:format>
        <dc:type
           rdf:resource="http://purl.org/dc/dcmitype/StillImage" />
        <dc:title />
      </cc:Work>
    </rdf:RDF>
  </metadata>
  <sodipodi:namedview
     pagecolor="#ffffff"
     bordercolor="#666666"
     borderopacity="1"
     objecttolerance="10"
     gridtolerance="10"
     guidetolerance="10"
     inkscape:pageopacity="0"
     inkscape:pageshadow="2"
     inkscape:window-width="618"
     inkscape:window-height="449"
     id="namedview10"
     showgrid="false"
     inkscape:zoom="9.1949994"
     inkscape:cx="27.673538"
     inkscape:cy="19.797829"
     inkscape:window-x="362"
     inkscape:window-y="92"
     inkscape:window-maximized="0"
     inkscape:current-layer="svg2" />
  <defs
     id="defs4" />
  <g
     id="g3808"
     transform="matrix(1.8873226,0,0,1.8873225,2.6930427,2.6930433)">
    <rect
       y="0"
       x="0"
       style="fill:#cccccc;fill-rule:evenodd;stroke:none"
       height="40.004005"
       width="40.004005"
       stroke-miterlimit="2.00000000000"
       transform="translate(4.00394,4.00394)"
       id="rect3810" />
    <rect
       y="0"
       x="0"
       id="rect3812"
       transform="translate(4.00394,4.00394)"
       stroke-miterlimit="2.00000000000"
       width="40.004005"
       height="40.004005"
       style="fill:#294172;fill-opacity:0.99607843;fill-rule:evenodd;stroke:none" />
  </g>
  <g
     id="g3918"
     transform="matrix(2.2306223,0,0,2.2296523,-2.1145335,-4.1476922)">
    <path
       style="fill:none;stroke:#3c6eb4;stroke-width:3.82591939"
       id="in"
       d="m 16.21502,23.382166 c 0,0 6.266696,0 6.266696,0 0,0 0,6.266699 0,6.266699 0,3.459214 -2.80748,6.266693 -6.266696,6.266693 -3.459217,0 -6.2666959,-2.807479 -6.2666959,-6.266693 0,-3.459217 2.8074789,-6.266699 6.2666959,-6.266699 z"
       inkscape:connector-curvature="0" />
    <use
       xlink:href="#in"
       id="finity"
       transform="matrix(-1,0,0,-1,44.933231,46.776524)"
       x="0"
       y="0"
       width="744.09448"
       height="1052.3622" />
    <path
       style="fill:#ffffff"
       id="free"
       d="m 24.398783,21.474009 0,8.16609 c 0,4.519329 -3.664208,8.183617 -8.183697,8.183617 -0.685671,0 -1.17312,-0.07741 -1.807829,-0.243322 -0.925496,-0.242197 -1.681841,-1.001017 -1.682155,-1.883634 0,-1.066848 0.7744,-1.842873 1.93199,-1.842873 0.550949,0 0.750864,0.105786 1.557994,0.105786 2.382733,0 4.315475,-1.930011 4.319654,-4.312744 l 0,-3.753432 c 0,-0.336323 -0.273306,-0.608826 -0.610192,-0.608826 l -2.837704,-5.24e-4 c -1.057284,0 -1.91152,-0.843304 -1.91152,-1.903484 -5.63e-4,-1.066773 0.862999,-1.906617 1.9317,-1.906617"
       inkscape:connector-curvature="0" />
    <use
       xlink:href="#free"
       id="dom"
       transform="matrix(-1,0,0,-1,44.933232,46.776525)"
       x="0"
       y="0"
       width="744.09448"
       height="1052.3622" />
  </g>
</svg>
