<?xml version="1.0" encoding="UTF-8" standalone="no"?>
<!-- Created with Inkscape (http://www.inkscape.org/) -->

<svg
   xmlns:dc="http://purl.org/dc/elements/1.1/"
   xmlns:cc="http://creativecommons.org/ns#"
   xmlns:rdf="http://www.w3.org/1999/02/22-rdf-syntax-ns#"
   xmlns:svg="http://www.w3.org/2000/svg"
   xmlns="http://www.w3.org/2000/svg"
   xmlns:xlink="http://www.w3.org/1999/xlink"
   xmlns:sodipodi="http://sodipodi.sourceforge.net/DTD/sodipodi-0.dtd"
   xmlns:inkscape="http://www.inkscape.org/namespaces/inkscape"
   version="1.0"
   width="96"
   height="96"
   id="svg2408"
   inkscape:version="0.48.5 r10040"
   sodipodi:docname="steam.svg">
  <sodipodi:namedview
     pagecolor="#ffffff"
     bordercolor="#666666"
     borderopacity="1"
     objecttolerance="10"
     gridtolerance="10"
     guidetolerance="10"
     inkscape:pageopacity="0"
     inkscape:pageshadow="2"
     inkscape:window-width="1680"
     inkscape:window-height="991"
     id="namedview68"
     showgrid="false"
     inkscape:zoom="3.767842"
     inkscape:cx="149.71327"
     inkscape:cy="26.311668"
     inkscape:window-x="-2"
     inkscape:window-y="-3"
     inkscape:window-maximized="1"
     inkscape:current-layer="svg2408" />
  <defs
     id="defs2410">
    <linearGradient
       id="linearGradient3224">
      <stop
         id="stop3226"
         style="stop-color:#42394b;stop-opacity:1"
         offset="0" />
      <stop
         id="stop3228"
         style="stop-color:#000000;stop-opacity:1"
         offset="1" />
    </linearGradient>
    <linearGradient
       id="linearGradient3465">
      <stop
         id="stop3467"
         style="stop-color:#919191;stop-opacity:1"
         offset="0" />
      <stop
         id="stop3469"
         style="stop-color:#fdfdfd;stop-opacity:1"
         offset="1" />
    </linearGradient>
    <linearGradient
       id="linearGradient3187">
      <stop
         id="stop3189"
         style="stop-color:#b4b4b4;stop-opacity:1"
         offset="0" />
      <stop
         id="stop3191"
         style="stop-color:#e6e6e6;stop-opacity:1"
         offset="1" />
    </linearGradient>
    <linearGradient
       x1="45.447727"
       y1="92.539597"
       x2="45.447727"
       y2="7.0165396"
       id="ButtonShadow"
       gradientUnits="userSpaceOnUse"
       gradientTransform="scale(1.0058652,0.994169)">
      <stop
         id="stop3750"
         style="stop-color:#000000;stop-opacity:1"
         offset="0" />
      <stop
         id="stop3752"
         style="stop-color:#000000;stop-opacity:0.58823532"
         offset="1" />
    </linearGradient>
    <linearGradient
       id="linearGradient3737">
      <stop
         id="stop3739"
         style="stop-color:#ffffff;stop-opacity:1"
         offset="0" />
      <stop
         id="stop3741"
         style="stop-color:#ffffff;stop-opacity:0"
         offset="1" />
    </linearGradient>
    <filter
       color-interpolation-filters="sRGB"
       id="filter3174">
      <feGaussianBlur
         id="feGaussianBlur3176"
         stdDeviation="1.71" />
    </filter>
    <linearGradient
       x1="36.357143"
       y1="6"
       x2="36.357143"
       y2="63.893143"
       id="linearGradient3188"
       xlink:href="#linearGradient3737"
       gradientUnits="userSpaceOnUse" />
    <linearGradient
       x1="48"
       y1="90"
       x2="48"
       y2="5.9877172"
       id="linearGradient3427"
       xlink:href="#linearGradient3187"
       gradientUnits="userSpaceOnUse" />
    <radialGradient
       cx="47.098362"
       cy="78.286942"
       r="38.957481"
       fx="47.098362"
       fy="78.286942"
       id="radialGradient3205"
       xlink:href="#linearGradient3224"
       gradientUnits="userSpaceOnUse"
       gradientTransform="matrix(1.3830053,-1.0350102e-8,0,1.3123934,-18.038924,-24.218731)" />
    <linearGradient
       x1="43.17857"
       y1="13"
       x2="43.17857"
       y2="83.294571"
       id="linearGradient3279"
       xlink:href="#linearGradient3465"
       gradientUnits="userSpaceOnUse"
       gradientTransform="matrix(1.0294118,0,0,1.0294118,-1.4117647,-1.411765)" />
    <linearGradient
       id="linearGradient3737-7">
      <stop
         id="stop3739-2"
         style="stop-color:#ffffff;stop-opacity:1"
         offset="0" />
      <stop
         id="stop3741-7"
         style="stop-color:#ffffff;stop-opacity:0"
         offset="1" />
    </linearGradient>
    <radialGradient
       cx="48"
       cy="90.171875"
       r="42"
       fx="48"
       fy="90.171875"
       id="radialGradient2874"
       xlink:href="#linearGradient3737-7"
       gradientUnits="userSpaceOnUse"
       gradientTransform="matrix(1.1573129,0,0,0.99590774,-7.551021,0.1971319)" />
    <linearGradient
       id="linearGradient3737-4">
      <stop
         id="stop3739-8"
         style="stop-color:#ffffff;stop-opacity:1"
         offset="0" />
      <stop
         id="stop3741-71"
         style="stop-color:#ffffff;stop-opacity:0"
         offset="1" />
    </linearGradient>
    <clipPath
       id="clipPath3613">
      <rect
         width="84"
         height="84"
         rx="6"
         ry="6"
         x="6"
         y="6"
         id="rect3615"
         style="fill:#ffffff;fill-opacity:1;fill-rule:nonzero;stroke:none" />
    </clipPath>
    <filter
       x="-0.192"
       y="-0.192"
       width="1.3839999"
       height="1.3839999"
       color-interpolation-filters="sRGB"
       id="filter3794">
      <feGaussianBlur
         id="feGaussianBlur3796"
         stdDeviation="5.28" />
    </filter>
    <linearGradient
       x1="48"
       y1="20.220806"
       x2="48"
       y2="138.66119"
       id="linearGradient2908"
       xlink:href="#linearGradient3737-4"
       gradientUnits="userSpaceOnUse" />
    <linearGradient
       x1="45.447727"
       y1="92.539597"
       x2="45.447727"
       y2="7.0165396"
       id="ButtonShadow-0"
       gradientUnits="userSpaceOnUse"
       gradientTransform="matrix(1.0058652,0,0,0.994169,100,0)">
      <stop
         id="stop3750-8"
         style="stop-color:#000000;stop-opacity:1"
         offset="0" />
      <stop
         id="stop3752-5"
         style="stop-color:#000000;stop-opacity:0.58823532"
         offset="1" />
    </linearGradient>
    <linearGradient
       x1="32.251034"
       y1="6.1317081"
       x2="32.251034"
       y2="90.238609"
       id="linearGradient3780"
       xlink:href="#ButtonShadow-0"
       gradientUnits="userSpaceOnUse"
       gradientTransform="matrix(1.0238095,0,0,1.0119048,-1.1428571,-98.071429)" />
    <linearGradient
       x1="32.251034"
       y1="6.1317081"
       x2="32.251034"
       y2="90.238609"
       id="linearGradient3772"
       xlink:href="#ButtonShadow-0"
       gradientUnits="userSpaceOnUse"
       gradientTransform="matrix(1.0238095,0,0,1.0119048,-1.1428571,-98.071429)" />
    <linearGradient
       x1="32.251034"
       y1="6.1317081"
       x2="32.251034"
       y2="90.238609"
       id="linearGradient3725"
       xlink:href="#ButtonShadow-0"
       gradientUnits="userSpaceOnUse"
       gradientTransform="matrix(1.0238095,0,0,1.0119048,-1.1428571,-98.071429)" />
    <linearGradient
       x1="32.251034"
       y1="6.1317081"
       x2="32.251034"
       y2="90.238609"
       id="linearGradient3721"
       xlink:href="#ButtonShadow-0"
       gradientUnits="userSpaceOnUse"
       gradientTransform="translate(0,-97)" />
    <linearGradient
       x1="32.251034"
       y1="6.1317081"
       x2="32.251034"
       y2="90.238609"
       id="linearGradient3224-3"
       xlink:href="#ButtonShadow-0"
       gradientUnits="userSpaceOnUse"
       gradientTransform="matrix(1.0238095,0,0,1.0119048,-1.1428571,-98.071429)" />
    <linearGradient
       inkscape:collect="always"
       xlink:href="#ButtonShadow-0"
       id="linearGradient3044"
       gradientUnits="userSpaceOnUse"
       gradientTransform="matrix(1.0238095,0,0,1.0119048,-1.1428571,-98.071429)"
       x1="32.251034"
       y1="6.1317081"
       x2="32.251034"
       y2="90.238609" />
    <linearGradient
       inkscape:collect="always"
       xlink:href="#ButtonShadow-0"
       id="linearGradient3046"
       gradientUnits="userSpaceOnUse"
       gradientTransform="matrix(1.0238095,0,0,1.0119048,-1.1428571,-98.071429)"
       x1="32.251034"
       y1="6.1317081"
       x2="32.251034"
       y2="90.238609" />
    <linearGradient
       inkscape:collect="always"
       xlink:href="#ButtonShadow-0"
       id="linearGradient3048"
       gradientUnits="userSpaceOnUse"
       gradientTransform="matrix(1.0238095,0,0,1.0119048,-1.1428571,-98.071429)"
       x1="32.251034"
       y1="6.1317081"
       x2="32.251034"
       y2="90.238609" />
    <linearGradient
       inkscape:collect="always"
       xlink:href="#ButtonShadow-0"
       id="linearGradient3050"
       gradientUnits="userSpaceOnUse"
       gradientTransform="matrix(1.0238095,0,0,1.0119048,-1.1428571,-98.071429)"
       x1="32.251034"
       y1="6.1317081"
       x2="32.251034"
       y2="90.238609" />
    <linearGradient
       inkscape:collect="always"
       xlink:href="#ButtonShadow-0"
       id="linearGradient3054"
       gradientUnits="userSpaceOnUse"
       gradientTransform="matrix(1.0238095,0,0,1.0119048,-1.1428571,-98.071429)"
       x1="32.251034"
       y1="6.1317081"
       x2="32.251034"
       y2="90.238609" />
    <linearGradient
       inkscape:collect="always"
       xlink:href="#ButtonShadow-0"
       id="linearGradient3057"
       gradientUnits="userSpaceOnUse"
       gradientTransform="matrix(1.0238095,0,0,-1.0119048,-1.1428571,98.071429)"
       x1="32.251034"
       y1="6.1317081"
       x2="32.251034"
       y2="90.238609" />
    <linearGradient
       inkscape:collect="always"
       xlink:href="#ButtonShadow-0"
       id="linearGradient3060"
       gradientUnits="userSpaceOnUse"
       gradientTransform="matrix(1.0238095,0,0,-1.0119048,-1.1428571,98.071429)"
       x1="32.251034"
       y1="6.1317081"
       x2="32.251034"
       y2="90.238609" />
    <linearGradient
       inkscape:collect="always"
       xlink:href="#ButtonShadow-0"
       id="linearGradient3063"
       gradientUnits="userSpaceOnUse"
       gradientTransform="matrix(1.0238095,0,0,-1.0119048,-1.1428571,98.071429)"
       x1="32.251034"
       y1="6.1317081"
       x2="32.251034"
       y2="90.238609" />
  </defs>
  <metadata
     id="metadata2413">
    <rdf:RDF>
      <cc:Work
         rdf:about="">
        <dc:format>image/svg+xml</dc:format>
        <dc:type
           rdf:resource="http://purl.org/dc/dcmitype/StillImage" />
        <dc:title />
      </cc:Work>
    </rdf:RDF>
  </metadata>
  <g
     id="layer2"
     style="display:none">
    <rect
       width="86"
       height="85"
       rx="6"
       ry="6"
       x="5"
       y="7"
       id="rect3745"
       style="opacity:0.9;fill:url(#ButtonShadow);fill-opacity:1;fill-rule:nonzero;stroke:none;filter:url(#filter3174)" />
  </g>
  <rect
     style="fill:#333333;fill-opacity:1;fill-rule:nonzero;stroke:none;display:inline"
     id="rect3716"
     transform="scale(1,-1)"
     y="-90.11705"
     x="6"
     ry="0"
     rx="6"
     height="84.178665"
     width="84" />
  <g
     id="layer1"
     style="display:inline">
    <path
       d="M 12,6 C 8.676,6 6,8.676 6,12 l 0,72 c 0,3.324 2.676,6 6,6 l 72,0 c 3.324,0 6,-2.676 6,-6 L 90,12 C 90,8.676 87.324,6 84,6 L 12,6 z m 5,7 62,0 c 2.216001,0 4,1.784 4,4 l 0,62 c 10e-7,2.216001 -1.784,4 -4,4 l -62,0 c -2.215999,10e-7 -4,-1.784 -4,-4 l 0,-62 c 0,-2.215999 1.784,-4 4,-4 z"
       inkscape:connector-curvature="0"
       id="rect2419"
       style="fill:#333333;fill-opacity:1;fill-rule:nonzero;stroke:none" />
    <path
       d="m 17,12 c -2.752703,0 -5,2.247297 -5,5 l 0,62 c 0,2.752703 2.247298,5 5,5 l 62,0 c 2.752703,0 5.000001,-2.247297 5,-5 l 0,-62 c 0,-2.752703 -2.247297,-5 -5,-5 l -62,0 z m 0,2 62,0 c 1.679298,0 3,1.320703 3,3 l 0,62 c 10e-7,1.679297 -1.320703,3 -3,3 l -62,0 c -1.679296,0 -3,-1.320703 -3,-3 l 0,-62 c 0,-1.679297 1.320703,-3 3,-3 z"
       inkscape:connector-curvature="0"
       id="rect3425"
       style="fill:#333333;fill-opacity:1;fill-rule:nonzero;stroke:none" />
  </g>
  <g
     id="g3047">
    <g
       id="layer3">
      <path
         style="font-size:medium;font-style:normal;font-variant:normal;font-weight:normal;font-stretch:normal;text-indent:0;text-align:start;text-decoration:none;line-height:normal;letter-spacing:normal;word-spacing:normal;text-transform:none;direction:ltr;block-progression:tb;writing-mode:lr-tb;text-anchor:start;opacity:0.14999999999999999;color:#000000;fill:#333333;fill-opacity:1;stroke:none;stroke-width:4;marker:none;visibility:visible;display:inline;overflow:visible;enable-background:accumulate;font-family:Abandoned Bitplane;-inkscape-font-specification:Abandoned Bitplane"
         id="rect3222-3"
         inkscape:connector-curvature="0"
         d="m 19,13 c -3.289406,0 -6,2.710594 -6,6 l 0,58 c 0,3.289406 2.710594,6 6,6 l 58,0 c 3.289406,0 6,-2.710594 6,-6 l 0,-58 c 0,-3.289406 -2.710594,-6 -6,-6 l -58,0 z m 0,4 58,0 c 1.142594,0 2,0.857406 2,2 l 0,58 c 0,1.142594 -0.857406,2 -2,2 l -58,0 c -1.142594,0 -2,-0.857406 -2,-2 l 0,-58 c 0,-1.142594 0.857406,-2 2,-2 z" />
      <path
         style="opacity:0.29999999999999999;color:#000000;fill:#333333;fill-opacity:1;fill-rule:nonzero;stroke:none;stroke-width:1;marker:none;visibility:visible;display:inline;overflow:visible;enable-background:accumulate"
         id="rect3981"
         inkscape:connector-curvature="0"
         d="m 17,14 c -1.662,0 -3,1.338 -3,3 l 0,62 c 0,1.662 1.338,3 3,3 l 62,0 c 1.662,0 3,-1.338 3,-3 l 0,-62 c 0,-1.662 -1.338,-3 -3,-3 l -62,0 z m 0,1.9375 62,0 c 0.618163,0 1.0625,0.444337 1.0625,1.0625 l 0,62 c 0,0.618163 -0.444337,1.0625 -1.0625,1.0625 l -62,0 c -0.618163,0 -1.0625,-0.444337 -1.0625,-1.0625 l 0,-62 c 0,-0.618163 0.444337,-1.0625 1.0625,-1.0625 z" />
      <path
         style="opacity:0.59999999999999998;color:#000000;fill:#333333;fill-opacity:1;fill-rule:nonzero;stroke:none;stroke-width:1;marker:none;visibility:visible;display:inline;overflow:visible;enable-background:accumulate"
         id="rect3977"
         inkscape:connector-curvature="0"
         d="m 17,14 c -1.662,0 -3,1.338 -3,3 l 0,62 c 0,1.662 1.338,3 3,3 l 62,0 c 1.662,0 3,-1.338 3,-3 l 0,-62 c 0,-1.662 -1.338,-3 -3,-3 l -62,0 z m 0,0.96875 62,0 c 1.140081,0 2.03125,0.891169 2.03125,2.03125 l 0,62 c 0,1.140081 -0.891169,2.03125 -2.03125,2.03125 l -62,0 c -1.140081,0 -2.03125,-0.891169 -2.03125,-2.03125 l 0,-62 c 0,-1.140081 0.891169,-2.03125 2.03125,-2.03125 z" />
    </g>
    <g
       transform="matrix(1.9129605,0,0,2.1169237,-67.253144,-94.843459)"
       id="g3057">
      <path
         sodipodi:type="arc"
         style="fill:#bdc3c7;fill-opacity:1;stroke:none"
         id="path3329"
         sodipodi:cx="-29.37356"
         sodipodi:cy="19.567579"
         sodipodi:rx="4.5675659"
         sodipodi:ry="4.5675659"
         d="m -24.805994,19.567579 c 0,2.522597 -2.044969,4.567566 -4.567566,4.567566 -2.522597,0 -4.567566,-2.044969 -4.567566,-4.567566 0,-2.522597 2.044969,-4.567566 4.567566,-4.567566 2.522597,0 4.567566,2.044969 4.567566,4.567566 z"
         transform="matrix(1.283852,0,0,1.095473,107.77473,40.52972)" />
      <path
         style="fill:#bdc3c7;fill-opacity:1;stroke:none"
         d="m 70.139087,52.633633 c -5.873456,0 -10.653285,4.259161 -10.653285,9.531247 0,5.272086 4.779829,9.562499 10.653285,9.562499 5.873452,0 10.618465,-4.290413 10.618465,-9.562499 0,-5.272086 -4.745013,-9.531247 -10.618465,-9.531247 z m 0,3.21874 c 3.898016,0 7.032553,2.813598 7.032553,6.312507 0,3.498909 -3.134537,6.343759 -7.032553,6.343759 -3.898024,0 -7.067373,-2.84485 -7.067373,-6.343759 0,-3.498909 3.169349,-6.312507 7.067373,-6.312507 z"
         id="path3428"
         inkscape:connector-curvature="0" />
      <path
         inkscape:connector-curvature="0"
         style="fill:#bdc3c7;fill-opacity:1;stroke:none"
         d="m 59.525161,62.289888 -6.754038,8.999999 2.228137,1.999984 c 1.097688,0.511972 2.000275,1.299047 2.576282,2.281252 l 2.193324,1.968767 10.096242,-6.062491 -10.339947,-9.187511 z"
         id="path3435" />
      <path
         sodipodi:type="arc"
         style="fill:#bdc3c7;fill-opacity:1;stroke:none"
         id="path4205"
         sodipodi:cx="-44.75"
         sodipodi:cy="33.375"
         sodipodi:rx="4.5"
         sodipodi:ry="4.5"
         d="m -40.25,33.375 c 0,2.485281 -2.014719,4.5 -4.5,4.5 -2.485281,0 -4.5,-2.014719 -4.5,-4.5 0,-2.485281 2.014719,-4.5 4.5,-4.5 2.485281,0 4.5,2.014719 4.5,4.5 z"
         transform="matrix(0.98449261,0,0,0.97652563,97.184989,45.690193)" />
      <path
         style="fill:#bdc3c7;fill-opacity:1;stroke:none"
         d="m 52.21409,71.289922 c -4.1916,0 -7.589589,3.050043 -7.589589,6.812503 0,3.762425 3.397989,6.812468 7.589589,6.812468 4.191608,0 7.589589,-3.050043 7.589589,-6.812468 0,-3.76246 -3.397981,-6.812503 -7.589589,-6.812503 z m 0,1.37498 c 3.345601,0 6.057747,2.434465 6.057747,5.437523 0,3.003024 -2.712146,5.437488 -6.057747,5.437488 -3.3456,0 -6.057746,-2.434464 -6.057746,-5.437488 0,-3.003058 2.712146,-5.437523 6.057746,-5.437523 z"
         id="path4207"
         inkscape:connector-curvature="0" />
      <path
         inkscape:connector-curvature="0"
         style="fill:#bdc3c7;fill-opacity:1;stroke:none"
         d="m 39.33005,67.660159 0,8.437499 12.523969,5.875015 c 0.05719,0.0248 0.12313,-0.0013 0.145949,-0.06236 l 2.656311,-7.062519 c 0.02268,-0.0613 -0.03012,-0.131811 -0.08759,-0.15626 L 39.330021,67.660265 z"
         id="rect3263-1"
         sodipodi:nodetypes="cccccccc" />
    </g>
  </g>
</svg>
