<?xml version="1.0" encoding="UTF-8" standalone="no"?>
<!-- Created with Inkscape (http://www.inkscape.org/) -->

<svg
   xmlns:dc="http://purl.org/dc/elements/1.1/"
   xmlns:cc="http://creativecommons.org/ns#"
   xmlns:rdf="http://www.w3.org/1999/02/22-rdf-syntax-ns#"
   xmlns:svg="http://www.w3.org/2000/svg"
   xmlns="http://www.w3.org/2000/svg"
   xmlns:xlink="http://www.w3.org/1999/xlink"
   xmlns:sodipodi="http://sodipodi.sourceforge.net/DTD/sodipodi-0.dtd"
   xmlns:inkscape="http://www.inkscape.org/namespaces/inkscape"
   version="1.0"
   width="96"
   height="96"
   id="svg2408"
   inkscape:version="0.48.4 r9939"
   sodipodi:docname="tor.svg">
  <sodipodi:namedview
     pagecolor="#ffffff"
     bordercolor="#666666"
     borderopacity="1"
     objecttolerance="10"
     gridtolerance="10"
     guidetolerance="10"
     inkscape:pageopacity="0"
     inkscape:pageshadow="2"
     inkscape:window-width="679"
     inkscape:window-height="704"
     id="namedview203"
     showgrid="false"
     inkscape:zoom="7.2701802"
     inkscape:cx="62.035783"
     inkscape:cy="76.700106"
     inkscape:current-layer="svg2408"
     inkscape:window-x="0"
     inkscape:window-y="0"
     inkscape:window-maximized="0" />
  <defs
     id="defs2410">
    <linearGradient
       id="linearGradient5183">
      <stop
         id="stop5185"
         style="stop-color:#ffffff;stop-opacity:1"
         offset="0" />
      <stop
         id="stop5187"
         style="stop-color:#ffffff;stop-opacity:0"
         offset="1" />
    </linearGradient>
    <linearGradient
       id="linearGradient5173">
      <stop
         id="stop5175"
         style="stop-color:#7469ea;stop-opacity:1"
         offset="0" />
      <stop
         id="stop5177"
         style="stop-color:#20157e;stop-opacity:1"
         offset="1" />
    </linearGradient>
    <linearGradient
       id="linearGradient5157">
      <stop
         id="stop5159"
         style="stop-color:#000000;stop-opacity:1"
         offset="0" />
      <stop
         id="stop5161"
         style="stop-color:#000000;stop-opacity:0"
         offset="1" />
    </linearGradient>
    <linearGradient
       x1="45.447727"
       y1="92.539597"
       x2="45.447727"
       y2="7.0165396"
       id="ButtonShadow"
       gradientUnits="userSpaceOnUse"
       gradientTransform="scale(1.0058652,0.994169)">
      <stop
         id="stop3750"
         style="stop-color:#000000;stop-opacity:1"
         offset="0" />
      <stop
         id="stop3752"
         style="stop-color:#000000;stop-opacity:0.58823532"
         offset="1" />
    </linearGradient>
    <linearGradient
       id="linearGradient3737">
      <stop
         id="stop3739"
         style="stop-color:#ffffff;stop-opacity:1"
         offset="0" />
      <stop
         id="stop3741"
         style="stop-color:#ffffff;stop-opacity:0"
         offset="1" />
    </linearGradient>
    <linearGradient
       id="linearGradient3700">
      <stop
         id="stop3702"
         style="stop-color:#5449c0;stop-opacity:1"
         offset="0" />
      <stop
         id="stop3704"
         style="stop-color:#827aca;stop-opacity:1"
         offset="1" />
    </linearGradient>
    <filter
       color-interpolation-filters="sRGB"
       id="filter3174">
      <feGaussianBlur
         id="feGaussianBlur3176"
         stdDeviation="1.71" />
    </filter>
    <linearGradient
       x1="36.357143"
       y1="6"
       x2="36.357143"
       y2="63.893143"
       id="linearGradient3188"
       xlink:href="#linearGradient3737"
       gradientUnits="userSpaceOnUse" />
    <filter
       x="-0.192"
       y="-0.192"
       width="1.3839999"
       height="1.3839999"
       color-interpolation-filters="sRGB"
       id="filter3794">
      <feGaussianBlur
         id="feGaussianBlur3796"
         stdDeviation="5.28" />
    </filter>
    <linearGradient
       x1="48"
       y1="20.220806"
       x2="48"
       y2="138.66119"
       id="linearGradient3613"
       xlink:href="#linearGradient3737"
       gradientUnits="userSpaceOnUse" />
    <radialGradient
       cx="48"
       cy="90.171875"
       r="42"
       fx="48"
       fy="90.171875"
       id="radialGradient3619"
       xlink:href="#linearGradient3737"
       gradientUnits="userSpaceOnUse"
       gradientTransform="matrix(1.1573129,0,0,0.99590774,-7.5510206,0.19713193)" />
    <clipPath
       id="clipPath3613">
      <rect
         width="84"
         height="84"
         rx="6"
         ry="6"
         x="6"
         y="6"
         id="rect3615"
         style="fill:#ffffff;fill-opacity:1;fill-rule:nonzero;stroke:none" />
    </clipPath>
    <linearGradient
       x1="48"
       y1="90"
       x2="48"
       y2="5.9877172"
       id="linearGradient3617"
       xlink:href="#linearGradient3700"
       gradientUnits="userSpaceOnUse" />
    <linearGradient
       x1="45.447727"
       y1="92.539597"
       x2="45.447727"
       y2="7.0165396"
       id="ButtonShadow-0"
       gradientUnits="userSpaceOnUse"
       gradientTransform="matrix(1.0058652,0,0,0.994169,100,0)">
      <stop
         id="stop3750-8"
         style="stop-color:#000000;stop-opacity:1"
         offset="0" />
      <stop
         id="stop3752-5"
         style="stop-color:#000000;stop-opacity:0.58823532"
         offset="1" />
    </linearGradient>
    <linearGradient
       x1="32.251034"
       y1="6.1317081"
       x2="32.251034"
       y2="90.238609"
       id="linearGradient3780"
       xlink:href="#ButtonShadow-0"
       gradientUnits="userSpaceOnUse"
       gradientTransform="matrix(1.0238095,0,0,1.0119048,-1.1428571,-98.071429)" />
    <linearGradient
       x1="32.251034"
       y1="6.1317081"
       x2="32.251034"
       y2="90.238609"
       id="linearGradient3772"
       xlink:href="#ButtonShadow-0"
       gradientUnits="userSpaceOnUse"
       gradientTransform="matrix(1.0238095,0,0,1.0119048,-1.1428571,-98.071429)" />
    <linearGradient
       x1="32.251034"
       y1="6.1317081"
       x2="32.251034"
       y2="90.238609"
       id="linearGradient3725"
       xlink:href="#ButtonShadow-0"
       gradientUnits="userSpaceOnUse"
       gradientTransform="matrix(1.0238095,0,0,1.0119048,-1.1428571,-98.071429)" />
    <linearGradient
       x1="32.251034"
       y1="6.1317081"
       x2="32.251034"
       y2="90.238609"
       id="linearGradient3721"
       xlink:href="#ButtonShadow-0"
       gradientUnits="userSpaceOnUse"
       gradientTransform="translate(0,-97)" />
    <linearGradient
       x1="32.251034"
       y1="6.1317081"
       x2="32.251034"
       y2="90.238609"
       id="linearGradient3026"
       xlink:href="#ButtonShadow-0"
       gradientUnits="userSpaceOnUse"
       gradientTransform="matrix(1.0238095,0,0,1.0119048,-1.1428571,-98.071429)" />
    <linearGradient
       id="linearGradient3657">
      <stop
         id="stop3659"
         style="stop-color:#ffffff;stop-opacity:1"
         offset="0" />
      <stop
         id="stop3661"
         style="stop-color:#ffffff;stop-opacity:0"
         offset="1" />
    </linearGradient>
    <linearGradient
       id="linearGradient6348">
      <stop
         id="stop6350"
         style="stop-color:#ffffff;stop-opacity:0.44186047"
         offset="0" />
      <stop
         id="stop6356"
         style="stop-color:#13059a;stop-opacity:0"
         offset="0.80000001" />
      <stop
         id="stop6352"
         style="stop-color:#16104b;stop-opacity:1"
         offset="1" />
    </linearGradient>
    <linearGradient
       id="linearGradient12684">
      <stop
         id="stop12686"
         style="stop-color:#ffffff;stop-opacity:1"
         offset="0" />
      <stop
         id="stop12692"
         style="stop-color:#ffffff;stop-opacity:0.84536082"
         offset="0.34999999" />
      <stop
         id="stop12688"
         style="stop-color:#ffffff;stop-opacity:0"
         offset="1" />
    </linearGradient>
    <linearGradient
       id="linearGradient2762">
      <stop
         id="stop2764"
         style="stop-color:#000000;stop-opacity:0.70588237"
         offset="0" />
      <stop
         id="stop4540"
         style="stop-color:#000000;stop-opacity:0.35294119"
         offset="0.40000001" />
      <stop
         id="stop2766"
         style="stop-color:#000000;stop-opacity:0"
         offset="1" />
    </linearGradient>
    <linearGradient
       id="linearGradient3785">
      <stop
         id="stop3787"
         style="stop-color:#ffffff;stop-opacity:1"
         offset="0" />
      <stop
         id="stop3789"
         style="stop-color:#ffffff;stop-opacity:0"
         offset="1" />
    </linearGradient>
    <linearGradient
       id="linearGradient7357">
      <stop
         id="stop7359"
         style="stop-color:#ffffff;stop-opacity:1"
         offset="0" />
      <stop
         id="stop7361"
         style="stop-color:#ffffff;stop-opacity:0"
         offset="1" />
    </linearGradient>
    <linearGradient
       id="linearGradient5537">
      <stop
         id="stop5539"
         style="stop-color:#73a0d0;stop-opacity:1"
         offset="0" />
      <stop
         id="stop5541"
         style="stop-color:#ffffff;stop-opacity:1"
         offset="1" />
    </linearGradient>
    <linearGradient
       id="linearGradient9111">
      <stop
         id="stop9113"
         style="stop-color:#ffffff;stop-opacity:1"
         offset="0" />
      <stop
         id="stop9115"
         style="stop-color:#ffffff;stop-opacity:0"
         offset="1" />
    </linearGradient>
    <linearGradient
       id="linearGradient10381">
      <stop
         id="stop10383"
         style="stop-color:#3465a4;stop-opacity:1"
         offset="0" />
      <stop
         id="stop10385"
         style="stop-color:#3465a4;stop-opacity:0"
         offset="1" />
    </linearGradient>
    <linearGradient
       x1="185.18442"
       y1="178.86754"
       x2="185.18442"
       y2="162.24416"
       id="linearGradient5016"
       xlink:href="#linearGradient9111"
       gradientUnits="userSpaceOnUse" />
    <radialGradient
       cx="185.18442"
       cy="162.24416"
       r="8.3116884"
       fx="185.18442"
       fy="162.24416"
       id="radialGradient5018"
       xlink:href="#linearGradient9111"
       gradientUnits="userSpaceOnUse"
       gradientTransform="matrix(1.765929,0,0,3.004776,-141.8381,-325.2632)" />
    <linearGradient
       x1="185.18442"
       y1="178.86754"
       x2="185.18442"
       y2="162.24416"
       id="linearGradient5020"
       xlink:href="#linearGradient9111"
       gradientUnits="userSpaceOnUse" />
    <radialGradient
       cx="185.18442"
       cy="162.24416"
       r="8.3116884"
       fx="185.18442"
       fy="162.24416"
       id="radialGradient5022"
       xlink:href="#linearGradient9111"
       gradientUnits="userSpaceOnUse"
       gradientTransform="matrix(1.765929,0,0,3.004776,-141.8381,-325.2632)" />
    <radialGradient
       cx="156.5"
       cy="148.5"
       r="19.5"
       fx="156.5"
       fy="148.5"
       id="radialGradient5024"
       xlink:href="#linearGradient12684"
       gradientUnits="userSpaceOnUse" />
    <radialGradient
       cx="156.5"
       cy="148.5"
       r="19.5"
       fx="156.5"
       fy="148.5"
       id="radialGradient5026"
       xlink:href="#linearGradient12684"
       gradientUnits="userSpaceOnUse" />
    <radialGradient
       cx="156.5"
       cy="148.5"
       r="19.5"
       fx="156.5"
       fy="148.5"
       id="radialGradient5028"
       xlink:href="#linearGradient12684"
       gradientUnits="userSpaceOnUse" />
    <radialGradient
       cx="156.5"
       cy="148.5"
       r="19.5"
       fx="156.5"
       fy="148.5"
       id="radialGradient5030"
       xlink:href="#linearGradient12684"
       gradientUnits="userSpaceOnUse" />
    <radialGradient
       cx="156.5"
       cy="148.5"
       r="19.5"
       fx="156.5"
       fy="148.5"
       id="radialGradient5032"
       xlink:href="#linearGradient12684"
       gradientUnits="userSpaceOnUse" />
    <radialGradient
       cx="156.5"
       cy="148.5"
       r="19.5"
       fx="156.5"
       fy="148.5"
       id="radialGradient5034"
       xlink:href="#linearGradient12684"
       gradientUnits="userSpaceOnUse" />
    <radialGradient
       cx="156.5"
       cy="148.5"
       r="19.5"
       fx="156.5"
       fy="148.5"
       id="radialGradient5036"
       xlink:href="#linearGradient12684"
       gradientUnits="userSpaceOnUse" />
    <radialGradient
       cx="156.5"
       cy="148.5"
       r="19.5"
       fx="156.5"
       fy="148.5"
       id="radialGradient5038"
       xlink:href="#linearGradient12684"
       gradientUnits="userSpaceOnUse" />
    <radialGradient
       cx="156.5"
       cy="148.5"
       r="19.5"
       fx="156.5"
       fy="148.5"
       id="radialGradient5042"
       xlink:href="#linearGradient12684"
       gradientUnits="userSpaceOnUse" />
    <radialGradient
       cx="156.5"
       cy="148.5"
       r="19.5"
       fx="156.5"
       fy="148.5"
       id="radialGradient5048"
       xlink:href="#linearGradient12684"
       gradientUnits="userSpaceOnUse" />
    <linearGradient
       x1="98"
       y1="240.92043"
       x2="420"
       y2="240.92043"
       id="linearGradient5050"
       xlink:href="#linearGradient3657"
       gradientUnits="userSpaceOnUse"
       gradientTransform="matrix(0.543478,-0.941332,0.941332,0.543478,-156.6701,314.8289)" />
    <linearGradient
       x1="98"
       y1="240.92043"
       x2="420"
       y2="240.92043"
       id="linearGradient5052"
       xlink:href="#linearGradient3657"
       gradientUnits="userSpaceOnUse"
       gradientTransform="matrix(-0.941332,0.543478,0.543478,0.941332,334.2253,-173.0667)" />
    <linearGradient
       x1="98"
       y1="240.92043"
       x2="420"
       y2="240.92043"
       id="linearGradient5054"
       xlink:href="#linearGradient3657"
       gradientUnits="userSpaceOnUse"
       gradientTransform="matrix(0.941332,-0.543478,-0.543478,-0.941332,150.7744,625.2735)" />
    <linearGradient
       x1="98"
       y1="240.92043"
       x2="420"
       y2="240.92043"
       id="linearGradient5056"
       xlink:href="#linearGradient3657"
       gradientUnits="userSpaceOnUse"
       gradientTransform="matrix(-0.543478,0.941332,-0.941332,-0.543478,641.6699,131.3779)" />
    <radialGradient
       cx="246.35255"
       cy="226.88303"
       r="154.3577"
       fx="246.35255"
       fy="226.88303"
       id="radialGradient5058"
       xlink:href="#linearGradient3657"
       gradientUnits="userSpaceOnUse"
       gradientTransform="matrix(1,-0.57734,0.12401,0.214795,-28.13556,320.3787)" />
    <radialGradient
       cx="246.35255"
       cy="226.88303"
       r="154.3577"
       fx="246.35255"
       fy="226.88303"
       id="radialGradient5060"
       xlink:href="#linearGradient3657"
       gradientUnits="userSpaceOnUse"
       gradientTransform="matrix(-0.57734,-1,0.214795,-0.12401,339.8483,501.3712)" />
    <radialGradient
       cx="48"
       cy="80"
       r="24"
       fx="48"
       fy="80"
       id="radialGradient5165"
       xlink:href="#linearGradient5157"
       gradientUnits="userSpaceOnUse"
       gradientTransform="matrix(1,0,0,0.33333333,0,53.333333)" />
    <radialGradient
       cx="69.944862"
       cy="222.16092"
       r="183.90805"
       fx="69.944862"
       fy="222.16092"
       id="radialGradient5167"
       xlink:href="#linearGradient3657"
       gradientUnits="userSpaceOnUse"
       gradientTransform="matrix(1.353938,0,0,1.353938,-33.88875,-78.63119)" />
    <radialGradient
       cx="49.709621"
       cy="222.16092"
       r="183.90805"
       fx="49.709621"
       fy="222.16092"
       id="radialGradient5169"
       xlink:href="#linearGradient3657"
       gradientUnits="userSpaceOnUse"
       gradientTransform="matrix(1.353938,0,0,1.353938,-33.88875,-78.63119)" />
    <radialGradient
       cx="244.72031"
       cy="222.16092"
       r="183.90805"
       fx="244.72031"
       fy="222.16092"
       id="radialGradient5171"
       xlink:href="#linearGradient6348"
       gradientUnits="userSpaceOnUse" />
    <radialGradient
       cx="110.9251"
       cy="222.16092"
       r="183.90805"
       fx="110.9251"
       fy="222.16092"
       id="radialGradient5179"
       xlink:href="#linearGradient5173"
       gradientUnits="userSpaceOnUse"
       gradientTransform="matrix(1.2171703,0,0,1,-24.08964,0)" />
    <linearGradient
       x1="60.812256"
       y1="222.16092"
       x2="485.95856"
       y2="222.16092"
       id="linearGradient5189"
       xlink:href="#linearGradient5183"
       gradientUnits="userSpaceOnUse" />
    <linearGradient
       x1="53"
       y1="79"
       x2="53"
       y2="47"
       id="linearGradient3314"
       xlink:href="#linearGradient5183"
       gradientUnits="userSpaceOnUse" />
    <radialGradient
       cx="235.33363"
       cy="388.71188"
       r="126.06937"
       fx="235.33363"
       fy="388.71188"
       id="radialGradient3361"
       xlink:href="#linearGradient3785"
       gradientUnits="userSpaceOnUse"
       gradientTransform="matrix(0.21619589,0,0,0.19022614,-8.133892,-4.4826806)" />
    <radialGradient
       cx="129.82773"
       cy="205.84695"
       r="169.40698"
       fx="129.82773"
       fy="205.84695"
       id="radialGradient3364"
       xlink:href="#linearGradient10381"
       gradientUnits="userSpaceOnUse"
       gradientTransform="matrix(0.0763704,0.0628141,-0.10476229,0.12736917,40.083666,18.247815)" />
    <linearGradient
       x1="508.02838"
       y1="546.03558"
       x2="452.004"
       y2="336.94971"
       id="linearGradient3367"
       xlink:href="#linearGradient5537"
       gradientUnits="userSpaceOnUse"
       gradientTransform="matrix(0.15624964,0,0,0.15624964,8.1340473,7.6851807)" />
    <radialGradient
       cx="142.69583"
       cy="188.13281"
       r="76.514389"
       fx="142.69583"
       fy="188.13281"
       id="radialGradient3370"
       xlink:href="#linearGradient2762"
       gradientUnits="userSpaceOnUse"
       gradientTransform="matrix(0.26789794,0,0,0.17169424,14.873412,33.90519)" />
    <radialGradient
       cx="211.6808"
       cy="126.36234"
       r="14.333125"
       fx="211.6808"
       fy="126.36234"
       id="radialGradient3539"
       xlink:href="#linearGradient5537"
       gradientUnits="userSpaceOnUse"
       gradientTransform="matrix(0.28609572,-0.00736038,0.00909854,0.35365778,7.281407,-35.266528)" />
    <radialGradient
       cx="231.53711"
       cy="137.96158"
       r="22.607796"
       fx="231.53711"
       fy="137.96158"
       id="radialGradient3543"
       xlink:href="#linearGradient5537"
       gradientUnits="userSpaceOnUse"
       gradientTransform="matrix(0.11938285,0.15709988,-0.28667956,0.21785216,84.485905,-55.854253)" />
    <radialGradient
       cx="221.51555"
       cy="231.31619"
       r="13.714489"
       fx="221.51555"
       fy="231.31619"
       id="radialGradient3546"
       xlink:href="#linearGradient7357"
       gradientUnits="userSpaceOnUse"
       gradientTransform="matrix(0.19059019,0.05106852,-0.03352851,0.12513009,31.182375,-11.854086)" />
    <radialGradient
       cx="221.79688"
       cy="186.60339"
       r="66.984375"
       fx="221.79688"
       fy="186.60339"
       id="radialGradient3550"
       xlink:href="#linearGradient5537"
       gradientUnits="userSpaceOnUse"
       gradientTransform="matrix(-0.0381835,0.14250348,-0.17467708,-0.0468047,108.50622,-0.95996649)" />
    <radialGradient
       cx="167.68634"
       cy="141.66774"
       r="21.772516"
       fx="167.68634"
       fy="141.66774"
       id="radialGradient3566"
       xlink:href="#linearGradient5537"
       gradientUnits="userSpaceOnUse"
       gradientTransform="matrix(-0.19079569,-0.11015603,-0.15521295,0.18893256,135.66237,5.8078656)" />
    <radialGradient
       cx="167.68634"
       cy="141.66774"
       r="21.772516"
       fx="167.68634"
       fy="141.66774"
       id="radialGradient3569"
       xlink:href="#linearGradient5537"
       gradientUnits="userSpaceOnUse"
       gradientTransform="matrix(0.22031206,-7.0695628e-8,0.03995203,0.24122696,17.397716,-25.88104)" />
    <linearGradient
       x1="339.83295"
       y1="306.9231"
       x2="183.82016"
       y2="36.701027"
       id="linearGradient3572"
       xlink:href="#linearGradient10381"
       gradientUnits="userSpaceOnUse"
       gradientTransform="matrix(0.15624964,0,0,0.15624964,8.1340221,7.6851807)" />
    <radialGradient
       cx="262.09546"
       cy="89.625023"
       r="142.27028"
       fx="262.09546"
       fy="89.625023"
       id="radialGradient3577"
       xlink:href="#linearGradient5537"
       gradientUnits="userSpaceOnUse"
       gradientTransform="matrix(0.15624964,0,0,0.07033362,8.1340221,16.400692)" />
    <radialGradient
       cx="104.979"
       cy="98.510025"
       r="94.905266"
       fx="104.979"
       fy="98.510025"
       id="radialGradient3580"
       xlink:href="#linearGradient2762"
       gradientUnits="userSpaceOnUse"
       gradientTransform="matrix(0.40453305,0,0,0.26073021,-2.8932552,7.7157066)" />
    <linearGradient
       id="linearGradient12684-9">
      <stop
         id="stop12686-8"
         style="stop-color:#ffffff;stop-opacity:1"
         offset="0" />
      <stop
         id="stop12692-9"
         style="stop-color:#ffffff;stop-opacity:0.84536082"
         offset="0.34999999" />
      <stop
         id="stop12688-3"
         style="stop-color:#ffffff;stop-opacity:0"
         offset="1" />
    </linearGradient>
    <radialGradient
       cx="156.5"
       cy="148.5"
       r="19.5"
       fx="156.5"
       fy="148.5"
       id="radialGradient5040-1"
       xlink:href="#linearGradient12684-9"
       gradientUnits="userSpaceOnUse" />
    <radialGradient
       cx="156.5"
       cy="148.5"
       r="19.5"
       fx="156.5"
       fy="148.5"
       id="radialGradient5046-8"
       xlink:href="#linearGradient12684-9"
       gradientUnits="userSpaceOnUse" />
    <radialGradient
       cx="156.5"
       cy="148.5"
       r="19.5"
       fx="156.5"
       fy="148.5"
       id="radialGradient3635"
       xlink:href="#linearGradient12684-9"
       gradientUnits="userSpaceOnUse" />
    <radialGradient
       inkscape:collect="always"
       xlink:href="#linearGradient12684-9"
       id="radialGradient3289"
       gradientUnits="userSpaceOnUse"
       cx="156.5"
       cy="148.5"
       fx="156.5"
       fy="148.5"
       r="19.5"
       gradientTransform="matrix(0.14204043,0,0,0.14204043,38.910993,17.132827)" />
    <radialGradient
       inkscape:collect="always"
       xlink:href="#linearGradient12684-9"
       id="radialGradient3292"
       gradientUnits="userSpaceOnUse"
       cx="156.5"
       cy="148.5"
       fx="156.5"
       fy="148.5"
       r="19.5"
       gradientTransform="matrix(0.17869593,0,0,0.17869593,34.961346,17.407743)" />
    <radialGradient
       inkscape:collect="always"
       xlink:href="#linearGradient12684-9"
       id="radialGradient3295"
       gradientUnits="userSpaceOnUse"
       cx="156.5"
       cy="148.5"
       fx="156.5"
       fy="148.5"
       r="19.5"
       gradientTransform="matrix(0.08705717,0,0,0.08705717,54.127607,28.693087)" />
    <radialGradient
       inkscape:collect="always"
       xlink:href="#linearGradient12684"
       id="radialGradient3298"
       gradientUnits="userSpaceOnUse"
       cx="156.5"
       cy="148.5"
       fx="156.5"
       fy="148.5"
       r="19.5"
       gradientTransform="matrix(0.08705717,0,0,0.08705717,17.852334,19.579579)" />
    <radialGradient
       inkscape:collect="always"
       xlink:href="#linearGradient12684"
       id="radialGradient3301"
       gradientUnits="userSpaceOnUse"
       cx="156.5"
       cy="148.5"
       fx="156.5"
       fy="148.5"
       r="19.5"
       gradientTransform="matrix(0.14204043,0,0,0.14204043,5.1374298,17.847602)" />
    <radialGradient
       inkscape:collect="always"
       xlink:href="#linearGradient12684"
       id="radialGradient3304"
       gradientUnits="userSpaceOnUse"
       cx="156.5"
       cy="148.5"
       fx="156.5"
       fy="148.5"
       r="19.5"
       gradientTransform="matrix(0.17869593,0,0,0.17869593,6.0125743,10.259901)" />
    <radialGradient
       inkscape:collect="always"
       xlink:href="#linearGradient12684"
       id="radialGradient3307"
       gradientUnits="userSpaceOnUse"
       cx="156.5"
       cy="148.5"
       fx="156.5"
       fy="148.5"
       r="19.5"
       gradientTransform="matrix(0.08705717,0,0,0.08705717,42.512374,64.074876)" />
    <radialGradient
       inkscape:collect="always"
       xlink:href="#linearGradient12684"
       id="radialGradient3310"
       gradientUnits="userSpaceOnUse"
       cx="156.5"
       cy="148.5"
       fx="156.5"
       fy="148.5"
       r="19.5"
       gradientTransform="matrix(0.14204043,0,0,0.14204043,38.017502,50.370265)" />
    <radialGradient
       inkscape:collect="always"
       xlink:href="#linearGradient12684"
       id="radialGradient3313"
       gradientUnits="userSpaceOnUse"
       cx="156.5"
       cy="148.5"
       fx="156.5"
       fy="148.5"
       r="19.5"
       gradientTransform="matrix(0.17869593,0,0,0.17869593,26.562622,46.356485)" />
    <radialGradient
       inkscape:collect="always"
       xlink:href="#linearGradient12684"
       id="radialGradient3316"
       gradientUnits="userSpaceOnUse"
       cx="156.5"
       cy="148.5"
       fx="156.5"
       fy="148.5"
       r="19.5"
       gradientTransform="matrix(0.08705717,0,0,0.08705717,7.309265,55.854845)" />
    <radialGradient
       inkscape:collect="always"
       xlink:href="#linearGradient12684"
       id="radialGradient3319"
       gradientUnits="userSpaceOnUse"
       cx="156.5"
       cy="148.5"
       fx="156.5"
       fy="148.5"
       r="19.5"
       gradientTransform="matrix(0.14204043,0,0,0.14204043,5.1374298,51.085063)" />
    <radialGradient
       inkscape:collect="always"
       xlink:href="#linearGradient12684"
       id="radialGradient3322"
       gradientUnits="userSpaceOnUse"
       cx="156.5"
       cy="148.5"
       fx="156.5"
       fy="148.5"
       r="19.5"
       gradientTransform="matrix(0.17869593,0,0,0.17869593,-3.100919,39.74474)" />
    <linearGradient
       inkscape:collect="always"
       xlink:href="#linearGradient5183"
       id="linearGradient3325"
       gradientUnits="userSpaceOnUse"
       x1="53"
       y1="79"
       x2="53"
       y2="47"
       gradientTransform="translate(-3.933067,6.1561049)" />
    <radialGradient
       inkscape:collect="always"
       xlink:href="#linearGradient12684"
       id="radialGradient3331"
       gradientUnits="userSpaceOnUse"
       cx="156.5"
       cy="148.5"
       fx="156.5"
       fy="148.5"
       r="19.5"
       gradientTransform="matrix(0.33448217,0,0,0.33448217,-7.8249099,5.5313296)" />
    <radialGradient
       inkscape:collect="always"
       xlink:href="#linearGradient5173"
       id="radialGradient3344"
       gradientUnits="userSpaceOnUse"
       gradientTransform="matrix(0,-0.21750338,0.17869593,0,4.5042706,102.28308)"
       cx="110.9251"
       cy="222.16092"
       fx="110.9251"
       fy="222.16092"
       r="183.90805" />
    <radialGradient
       inkscape:collect="always"
       xlink:href="#linearGradient7357"
       id="radialGradient3373"
       gradientUnits="userSpaceOnUse"
       gradientTransform="matrix(0.19059019,0.05106852,-0.03352851,0.12513009,24.855267,8.3242579)"
       cx="221.51555"
       cy="231.31619"
       fx="221.51555"
       fy="231.31619"
       r="13.714489" />
    <radialGradient
       inkscape:collect="always"
       xlink:href="#linearGradient5537"
       id="radialGradient3391"
       gradientUnits="userSpaceOnUse"
       gradientTransform="matrix(0.13946562,0.07045062,-0.03171238,0.06277852,13.175344,11.912646)"
       cx="262.09546"
       cy="89.625023"
       fx="262.09546"
       fy="89.625023"
       r="142.27028" />
  </defs>
  <metadata
     id="metadata2413">
    <rdf:RDF>
      <cc:Work
         rdf:about="">
        <dc:format>image/svg+xml</dc:format>
        <dc:type
           rdf:resource="http://purl.org/dc/dcmitype/StillImage" />
        <dc:title></dc:title>
      </cc:Work>
    </rdf:RDF>
  </metadata>
  <g
     id="layer2"
     style="display:none">
    <rect
       width="86"
       height="85"
       rx="6"
       ry="6"
       x="5"
       y="7"
       id="rect3745"
       style="opacity:0.9;fill:url(#ButtonShadow);fill-opacity:1;fill-rule:nonzero;stroke:none;filter:url(#filter3174)" />
  </g>
  <g
     id="layer1">
    <rect
       width="84"
       height="84"
       rx="0"
       ry="6"
       x="6"
       y="6"
       id="rect2419"
       style="fill:#8880ce;fill-opacity:1;fill-rule:nonzero;stroke:none" />
  </g>
  <g
     id="layer5"
     style="display:inline" />
  <g
     id="g9129"
     transform="matrix(0.18225546,0.04883522,-0.04883522,0.18225546,36.276029,-25.084676)" />
  <g
     id="g9140"
     transform="matrix(-0.18225546,-0.04883522,-0.04883522,0.18225546,117.5514,-3.3069935)" />
  <g
     style="display:inline"
     id="layer3"
     transform="matrix(0.42633116,0,0,0.42633116,-60.975247,-17.48256)">
    <g
       id="layer5-6">
      <path
         style="fill:#abcd03;fill-rule:evenodd;stroke:none"
         id="path2554"
         d="M 259.87785,74.666949 259.596,97.506774 c 6.965,-13.793001 14.05401,-30.131485 26.75601,-39.282485 -9.287,10.789 -13.78101,27.538485 -18.97101,38.327485 8.741,-12.292001 23.13466,-28.390309 36.38166,-32.897309 -17.618,15.706001 -34.25094,41.829585 -44.90394,58.764585 l -8.467,-3.687 c 1.501,-13.521 1.97413,-30.6801 9.48613,-44.065101 z"
         inkscape:connector-curvature="0"
         sodipodi:nodetypes="cccccccc" />
      <path
         style="fill:#fffcdb;fill-rule:evenodd;stroke:none"
         id="path2534"
         d="m 241.90113,115.14152 16.116,6.68594 c 0,4.098 -0.33313,16.59703 2.22938,20.28403 26.80289,34.5191 22.29349,103.71329 -5.42951,105.48829 -42.21656,0 -58.317,-28.679 -58.317,-55.03801 0,-24.037 28.816,-40.016 46.025,-54.219 4.37,-3.824 3.61113,-12.27525 -0.62387,-23.20125 z"
         inkscape:connector-curvature="0" />
      <path
         style="fill:#7d4698;fill-rule:evenodd;stroke:none"
         id="path2536"
         d="m 258.02197,121.58695 5.80803,2.96282 c -0.546,3.823 0.273,12.292 4.096,14.476 16.936,10.516 32.914,21.988 39.197,33.46 22.398,40.42601 -15.706,77.84601 -48.62,74.29501 17.891,-13.248 23.081,-40.42501 16.389,-70.06201 -2.731,-11.609 -6.966,-22.125 -14.478,-34.007 -3.25421,-5.83246 -2.11803,-13.06582 -2.39203,-21.12482 z"
         inkscape:connector-curvature="0" />
    </g>
    <g
       style="display:inline"
       id="layer4">
      <path
         style="fill:#7d4698;fill-opacity:1;stroke:none"
         id="path2538"
         d="m 255.226,120.58877 12.018,1.639 c -3.551,11.745 6.966,19.939 10.38,21.852 7.64801,4.234 15.02301,8.604 20.89601,13.93 11.063,10.106 17.345,24.31 17.345,39.333 0,14.886 -6.829,29.226 -18.301,38.786 -10.789,9.014 -25.67501,12.838 -40.15201,12.838 -9.014,0 -17.072,-0.409 -25.812,-3.278 -19.939,-6.692 -34.826,-23.763 -36.055,-44.25 -1.093,-15.979 2.458,-28.134 14.887,-40.835 6.418,-6.692 19.393,-14.34 28.271,-20.486 4.371,-3.005 9.014,-11.473 0.136,-27.451 l 1.776,-1.366 13.15659,8.81203 -11.10759,-4.57803 c 0.956,1.366 3.551,7.512 4.098,9.287 1.229,5.053 0.683,9.971 -0.41,12.155 -5.599,10.107 -15.159,12.838 -22.124,18.574 -12.292,10.106 -25.676,18.164 -24.174,45.888 0.683,13.657 11.336,30.319 27.314,38.104 9.014,4.371 19.394,6.146 29.91,6.692 9.423,0.41 27.45101,-5.19 37.28401,-13.384 10.516,-8.74 16.389,-21.988 16.389,-35.508 0,-13.658 -5.463,-26.632 -15.706,-35.783 -5.873,-5.326 -15.56901,-11.745 -21.57801,-15.16 -6.009,-3.414 -13.521,-12.974 -11.063,-22.124 z"
         inkscape:connector-curvature="0" />
      <path
         style="fill:#333333;fill-opacity:1;stroke:none"
         id="path2540"
         d="m 251.539,140.80177 c -1.229,6.283 -2.595,17.618 -8.058,21.852 -2.322,1.638 -4.644,3.278 -7.102,4.916 -9.833,6.693 -19.667,12.974 -24.173,29.09 -0.956,3.415 -0.136,7.102 0.684,10.516 2.458,9.833 9.423,20.486 14.886,26.769 0,0.273 1.093,0.956 1.093,1.229 4.507,5.327 9.12378,7.55062 26.19478,11.37362 l -3.97379,0.80609 c -10.243,-2.731 -18.39699,-4.80371 -23.72399,-10.95071 0,-0.136 -0.956,-1.093 -0.956,-1.093 -5.736,-6.556 -12.702,-17.481 -15.296,-27.724 -0.956,-4.098 -1.775,-7.238 -0.683,-11.473 4.643,-16.661 14.75,-23.217 24.993,-30.182 2.322,-1.502 5.053,-2.869 7.238,-4.644 4.233,-3.14 6.554,-12.701 8.877,-20.485 z"
         inkscape:connector-curvature="0"
         sodipodi:nodetypes="cccccccccccccccc" />
      <path
         style="fill:#333333;fill-opacity:1;stroke:none"
         id="path2542"
         d="m 255.90625,166.74951 c 0.137,7.102 -0.55625,10.66475 1.21875,15.71875 1.092,3.004 4.782,7.1015 5.875,11.0625 1.502,5.327 3.138,11.19901 3,14.75001 0,4.09799 -0.25625,11.74249 -2.03125,19.93749 -1.35362,6.77108 -4.47323,12.58153 -9.71875,15.875 -5.37327,-1.10644 -11.68224,-2.99521 -15.40625,-6.1875 -7.238,-6.282 -13.64875,-16.7865 -14.46875,-25.9375 -0.682,-7.51099 6.27275,-18.5885 15.96875,-24.1875 8.194,-4.78 10.1,-10.22775 11.875,-18.96875 -2.458,7.648 -4.7665,14.05925 -12.6875,18.15625 -11.472,6.009 -17.3585,16.09626 -16.8125,25.65625 0.819,12.291 5.7415,20.6195 15.4375,27.3125 4.097,2.868 11.75125,5.89875 16.53125,6.71875 l 1.42226,-0.19832 c 3.62493,-0.67888 6.89592,-7.05935 9.23399,-15.11418 2.049,-7.238 2.85675,-16.502 2.71875,-22.37499 -0.137,-3.414 -1.643,-10.80801 -4.375,-17.50001 -1.502,-3.687 -3.8095,-7.37375 -5.3125,-9.96875 -1.637,-2.597 -1.64875,-8.195 -2.46875,-14.75 z"
         inkscape:connector-curvature="0"
         sodipodi:nodetypes="cccccccccccccccccccc" />
      <path
         style="fill:#333333;fill-opacity:1;stroke:none"
         id="path2544"
         d="m 255.09375,193.53076 c 0.136,4.78 2.056,10.90451 2.875,17.18751 0.684,4.64399 0.387,9.30824 0.25,13.40624 -0.13495,4.74323 -1.7152,13.24218 -3.875,17.375 -2.03673,-0.93403 -2.83294,-1.99922 -4.15625,-3.71875 -1.638,-2.322 -2.75075,-4.644 -3.84375,-7.375 -0.819,-2.049 -1.7765,-4.394 -2.1875,-7.125 -0.546,-4.097 -0.393,-10.5065 4.25,-17.06249 3.551,-5.19001 4.36475,-5.58476 5.59375,-11.59376 -1.64,5.326 -2.8625,5.869 -6.6875,10.37501 -4.233,4.917 -4.9375,12.15924 -4.9375,18.03124 0,2.459 0.9805,5.18725 1.9375,7.78125 1.092,2.732 2.02925,5.452 3.53125,7.5 2.25796,3.32082 5.14798,5.20922 6.5625,5.5625 0.009,0.002 0.022,-0.002 0.0312,0 0.0303,0.007 0.0649,0.0255 0.0937,0.0312 l 0,-0.15625 c 2.64982,-2.95437 4.24444,-5.88934 4.78125,-8.84375 0.683,-3.551 0.84,-7.10975 1.25,-11.34375 0.409,-3.551 0.11225,-8.334 -0.84375,-13.24999 -1.365,-6.146 -3.669,-12.41226 -4.625,-16.78126 z"
         inkscape:connector-curvature="0" />
      <path
         style="fill:#333333;fill-opacity:1;stroke:none"
         id="path2550"
         d="m 255.499,135.06577 c 0.137,7.101 0.683,20.35 2.595,25.539 0.546,1.775 5.599,9.56 9.149,18.983 2.459,6.556 3.005,12.565 3.415,14.34 1.639,7.785 -0.41,20.896 -3.142,33.324 -1.365,6.692 -6.009,15.023 -11.335,18.301 l -1.092,1.912 c 3.005,-0.137 10.379,-7.375 12.974,-16.389 4.371,-15.296 6.146,-22.398 4.098,-39.333 -0.273,-1.64 -0.956,-7.238 -3.551,-13.248 -3.824,-9.151 -9.287,-17.891 -9.969,-19.667 -1.23,-2.867 -2.869,-15.295 -3.142,-23.762 z"
         inkscape:connector-curvature="0" />
      <path
         style="fill:#333333;fill-opacity:1;stroke:none"
         id="path2552"
         d="m 258.06151,125.35303 c -0.40515,7.29812 -0.51351,9.98574 0.85149,15.31174 1.502,5.873 9.151,14.34 12.292,24.037 6.009,18.574 4.507,42.884 0.136,61.867 -1.638,6.691 -4.50556,16.83899 -20.39642,20.83234 l 8.92442,0.0627 c 3.141,-0.137 11.198,-7.648 14.34,-16.252 5.052,-13.521 6.009,-29.636 3.96,-46.571 -0.137,-1.639 -2.869,-16.252 -5.463,-22.398 -3.688,-9.15 -10.244,-17.345 -10.926,-19.119 -1.228,-3.005 -3.92651,-9.24362 -3.71849,-17.77075 z"
         inkscape:connector-curvature="0"
         sodipodi:nodetypes="ccccccccccc" />
      <rect
         style="fill:#4d4d4d;fill-opacity:1;stroke:none"
         id="rect2556"
         y="120.21686"
         x="253.71959"
         height="126.01891"
         width="0.550412" />
    </g>
  </g>
</svg>
