<?xml version="1.0" encoding="UTF-8" standalone="no"?>
<!-- Created with Inkscape (http://www.inkscape.org/) -->

<svg
   xmlns:dc="http://purl.org/dc/elements/1.1/"
   xmlns:cc="http://creativecommons.org/ns#"
   xmlns:rdf="http://www.w3.org/1999/02/22-rdf-syntax-ns#"
   xmlns:svg="http://www.w3.org/2000/svg"
   xmlns="http://www.w3.org/2000/svg"
   xmlns:xlink="http://www.w3.org/1999/xlink"
   xmlns:sodipodi="http://sodipodi.sourceforge.net/DTD/sodipodi-0.dtd"
   xmlns:inkscape="http://www.inkscape.org/namespaces/inkscape"
   version="1.0"
   width="96"
   height="96"
   id="svg2408"
   inkscape:version="0.48.4 r9939"
   sodipodi:docname="unetbootin.svg">
  <sodipodi:namedview
     pagecolor="#ffffff"
     bordercolor="#666666"
     borderopacity="1"
     objecttolerance="10"
     gridtolerance="10"
     guidetolerance="10"
     inkscape:pageopacity="0"
     inkscape:pageshadow="2"
     inkscape:window-width="1366"
     inkscape:window-height="707"
     id="namedview123"
     showgrid="false"
     inkscape:zoom="5.8929983"
     inkscape:cx="53.464798"
     inkscape:cy="54.67077"
     inkscape:window-x="-2"
     inkscape:window-y="-1"
     inkscape:window-maximized="1"
     inkscape:current-layer="svg2408"
     showguides="true"
     inkscape:guide-bbox="true">
    <sodipodi:guide
       orientation="0,1"
       position="27.379282,6.0409804"
       id="guide3085" />
  </sodipodi:namedview>
  <defs
     id="defs2410">
    <linearGradient
       id="linearGradient3733">
      <stop
         id="stop3735"
         style="stop-color:#ffbf67;stop-opacity:1"
         offset="0" />
      <stop
         id="stop3737"
         style="stop-color:#c70000;stop-opacity:1"
         offset="1" />
    </linearGradient>
    <linearGradient
       id="linearGradient4327">
      <stop
         id="stop4329"
         style="stop-color:#f0f0f0;stop-opacity:1"
         offset="0" />
      <stop
         id="stop4331"
         style="stop-color:#b4b4b4;stop-opacity:1"
         offset="1" />
    </linearGradient>
    <linearGradient
       id="linearGradient4225">
      <stop
         id="stop4227"
         style="stop-color:#000000;stop-opacity:1"
         offset="0" />
      <stop
         id="stop4229"
         style="stop-color:#484848;stop-opacity:1"
         offset="1" />
    </linearGradient>
    <linearGradient
       id="linearGradient3322">
      <stop
         id="stop3324"
         style="stop-color:#7a7a7a;stop-opacity:1"
         offset="0" />
      <stop
         id="stop3326"
         style="stop-color:#f9f9f9;stop-opacity:1"
         offset="0.2032043" />
      <stop
         id="stop3328"
         style="stop-color:#c9c9c9;stop-opacity:1"
         offset="0.42969123" />
      <stop
         id="stop3330"
         style="stop-color:#dedede;stop-opacity:0"
         offset="1" />
    </linearGradient>
    <linearGradient
       id="linearGradient3448">
      <stop
         id="stop3450"
         style="stop-color:#000000;stop-opacity:1"
         offset="0" />
      <stop
         id="stop3452"
         style="stop-color:#000000;stop-opacity:0"
         offset="1" />
    </linearGradient>
    <linearGradient
       id="linearGradient3376">
      <stop
         id="stop3378"
         style="stop-color:#767676;stop-opacity:1"
         offset="0" />
      <stop
         id="stop3380"
         style="stop-color:#fdfdfd;stop-opacity:1"
         offset="1" />
    </linearGradient>
    <linearGradient
       id="linearGradient3273">
      <stop
         id="stop3275"
         style="stop-color:#7a7a7a;stop-opacity:1"
         offset="0" />
      <stop
         id="stop3281"
         style="stop-color:#f9f9f9;stop-opacity:1"
         offset="0.14636412" />
      <stop
         id="stop3283"
         style="stop-color:#c9c9c9;stop-opacity:1"
         offset="0.37253973" />
      <stop
         id="stop3277"
         style="stop-color:#dedede;stop-opacity:0"
         offset="1" />
    </linearGradient>
    <linearGradient
       id="linearGradient3220">
      <stop
         id="stop3222"
         style="stop-color:#ffffff;stop-opacity:1"
         offset="0" />
      <stop
         id="stop3224"
         style="stop-color:#bfbfbf;stop-opacity:0"
         offset="1" />
    </linearGradient>
    <linearGradient
       id="linearGradient3173">
      <stop
         id="stop3175"
         style="stop-color:#e6e6e6;stop-opacity:1"
         offset="0" />
      <stop
         id="stop3189"
         style="stop-color:#c3c3c3;stop-opacity:1"
         offset="0.26003402" />
      <stop
         id="stop3187"
         style="stop-color:#b9b9b9;stop-opacity:1"
         offset="0.49180263" />
      <stop
         id="stop3191"
         style="stop-color:#c8c8c8;stop-opacity:1"
         offset="0.75914466" />
      <stop
         id="stop3177"
         style="stop-color:#e6e6e6;stop-opacity:1"
         offset="1" />
    </linearGradient>
    <linearGradient
       x1="45.447727"
       y1="92.539597"
       x2="45.447727"
       y2="7.0165396"
       id="ButtonShadow"
       gradientUnits="userSpaceOnUse"
       gradientTransform="scale(1.0058652,0.994169)">
      <stop
         id="stop3750"
         style="stop-color:#000000;stop-opacity:1"
         offset="0" />
      <stop
         id="stop3752"
         style="stop-color:#000000;stop-opacity:0.58823532"
         offset="1" />
    </linearGradient>
    <linearGradient
       id="linearGradient3737">
      <stop
         id="stop3739"
         style="stop-color:#ffffff;stop-opacity:1"
         offset="0" />
      <stop
         id="stop3741"
         style="stop-color:#ffffff;stop-opacity:0"
         offset="1" />
    </linearGradient>
    <filter
       x="-0.29508197"
       y="-0.46153846"
       width="1.5901639"
       height="1.9230769"
       color-interpolation-filters="sRGB"
       id="filter3179">
      <feGaussianBlur
         id="feGaussianBlur3181"
         stdDeviation="6.6964288" />
    </filter>
    <filter
       color-interpolation-filters="sRGB"
       id="filter3174">
      <feGaussianBlur
         id="feGaussianBlur3176"
         stdDeviation="1.71" />
    </filter>
    <linearGradient
       x1="36.357143"
       y1="6"
       x2="36.357143"
       y2="63.893143"
       id="linearGradient3188"
       xlink:href="#linearGradient3737"
       gradientUnits="userSpaceOnUse" />
    <linearGradient
       x1="-1.857143"
       y1="86.214287"
       x2="88"
       y2="8.6071424"
       id="linearGradient3179"
       xlink:href="#linearGradient3173"
       gradientUnits="userSpaceOnUse" />
    <linearGradient
       x1="6"
       y1="77.09375"
       x2="32"
       y2="77.09375"
       id="linearGradient3279"
       xlink:href="#linearGradient3322"
       gradientUnits="userSpaceOnUse" />
    <linearGradient
       x1="6"
       y1="77.09375"
       x2="32.030617"
       y2="77.09375"
       id="linearGradient3287"
       xlink:href="#linearGradient3273"
       gradientUnits="userSpaceOnUse"
       gradientTransform="matrix(-1,0,0,1,96.030615,0)" />
    <linearGradient
       x1="6"
       y1="75.5"
       x2="45.219246"
       y2="75.5"
       id="linearGradient3454"
       xlink:href="#linearGradient3448"
       gradientUnits="userSpaceOnUse"
       gradientTransform="matrix(-1,0,0,1,96,0)" />
    <linearGradient
       x1="48"
       y1="77.09375"
       x2="48"
       y2="90"
       id="linearGradient3460"
       xlink:href="#linearGradient3448"
       gradientUnits="userSpaceOnUse" />
    <linearGradient
       x1="41.041885"
       y1="72"
       x2="48"
       y2="19.160589"
       id="linearGradient3517"
       xlink:href="#linearGradient3737"
       gradientUnits="userSpaceOnUse" />
    <linearGradient
       x1="38.765545"
       y1="73"
       x2="38.765545"
       y2="-60.29591"
       id="linearGradient3527"
       xlink:href="#linearGradient3448"
       gradientUnits="userSpaceOnUse"
       gradientTransform="matrix(1.0277778,0,0,1.0499999,-0.3055556,-2.6499999)" />
    <linearGradient
       x1="44.324883"
       y1="12"
       x2="44.324883"
       y2="72.11245"
       id="linearGradient3547"
       xlink:href="#linearGradient4327"
       gradientUnits="userSpaceOnUse" />
    <linearGradient
       x1="46.810722"
       y1="8.046936"
       x2="46.548832"
       y2="77.872437"
       id="linearGradient3551"
       xlink:href="#linearGradient3220"
       gradientUnits="userSpaceOnUse"
       gradientTransform="matrix(1,0,0,-1,0,84)" />
    <linearGradient
       x1="15.999999"
       y1="85.0625"
       x2="20.178572"
       y2="85.0625"
       id="linearGradient3556"
       xlink:href="#linearGradient3376"
       gradientUnits="userSpaceOnUse" />
    <radialGradient
       cx="18.089285"
       cy="85.0625"
       r="2.0892856"
       fx="18.089285"
       fy="85.0625"
       id="radialGradient3558"
       xlink:href="#linearGradient3733"
       gradientUnits="userSpaceOnUse"
       gradientTransform="matrix(1,0,0,1.0042736,0,-0.3635233)" />
    <linearGradient
       x1="67.071426"
       y1="80"
       x2="67.071426"
       y2="88.011475"
       id="linearGradient4231"
       xlink:href="#linearGradient4225"
       gradientUnits="userSpaceOnUse"
       gradientTransform="translate(-2,0)" />
    <linearGradient
       x1="67.071426"
       y1="80"
       x2="67.071426"
       y2="88.011475"
       id="linearGradient4239"
       xlink:href="#linearGradient3737"
       gradientUnits="userSpaceOnUse" />
    <clipPath
       id="clipPath3306">
      <rect
         width="72"
         height="60"
         rx="4"
         ry="4"
         x="12"
         y="12"
         id="rect3308"
         style="fill:#ffffff;fill-opacity:1;fill-rule:nonzero;stroke:none" />
    </clipPath>
    <linearGradient
       x1="15.656256"
       y1="69.394279"
       x2="46.594883"
       y2="39.82095"
       id="linearGradient3540"
       xlink:href="#linearGradient3220"
       gradientUnits="userSpaceOnUse" />
    <filter
       x="-0.12267826"
       y="-0.17991199"
       width="1.2453564"
       height="1.3598239"
       color-interpolation-filters="sRGB"
       id="filter3642">
      <feGaussianBlur
         id="feGaussianBlur3644"
         stdDeviation="3.178304" />
    </filter>
    <linearGradient
       id="linearGradient3767">
      <stop
         id="stop3769"
         style="stop-color:#4d4d4d;stop-opacity:0.70731705"
         offset="0" />
      <stop
         id="stop3771"
         style="stop-color:#4d4d4d;stop-opacity:0.25203252"
         offset="1" />
    </linearGradient>
    <linearGradient
       x1="32.251034"
       y1="6.1317081"
       x2="32.251034"
       y2="90.238609"
       id="linearGradient3721"
       xlink:href="#ButtonShadow-0"
       gradientUnits="userSpaceOnUse"
       gradientTransform="translate(0,-97)" />
    <linearGradient
       x1="45.447727"
       y1="92.539597"
       x2="45.447727"
       y2="7.0165396"
       id="ButtonShadow-0"
       gradientUnits="userSpaceOnUse"
       gradientTransform="matrix(1.0058652,0,0,0.994169,100,0)">
      <stop
         id="stop3750-8"
         style="stop-color:#000000;stop-opacity:1"
         offset="0" />
      <stop
         id="stop3752-5"
         style="stop-color:#000000;stop-opacity:0.58823532"
         offset="1" />
    </linearGradient>
    <linearGradient
       x1="32.251034"
       y1="6.1317081"
       x2="32.251034"
       y2="90.238609"
       id="linearGradient3725"
       xlink:href="#ButtonShadow-0"
       gradientUnits="userSpaceOnUse"
       gradientTransform="matrix(1.0238095,0,0,1.0119048,-1.1428571,-98.071429)" />
    <linearGradient
       x1="32.251034"
       y1="6.1317081"
       x2="32.251034"
       y2="90.238609"
       id="linearGradient3772"
       xlink:href="#ButtonShadow-0"
       gradientUnits="userSpaceOnUse"
       gradientTransform="matrix(1.0238095,0,0,1.0119048,-1.1428571,-98.071429)" />
    <linearGradient
       x1="32.251034"
       y1="6.1317081"
       x2="32.251034"
       y2="90.238609"
       id="linearGradient3780"
       xlink:href="#ButtonShadow-0"
       gradientUnits="userSpaceOnUse"
       gradientTransform="matrix(1.0238095,0,0,1.0119048,-1.1428571,-98.071429)" />
    <linearGradient
       x1="32.251034"
       y1="6.1317081"
       x2="32.251034"
       y2="90.238609"
       id="linearGradient3039"
       xlink:href="#ButtonShadow-0"
       gradientUnits="userSpaceOnUse"
       gradientTransform="matrix(1.0238095,0,0,1.0119048,-1.1428571,-98.071429)" />
    <linearGradient
       x1="50"
       y1="62"
       x2="50"
       y2="20"
       id="linearGradient3949"
       xlink:href="#linearGradient3767"
       gradientUnits="userSpaceOnUse" />
    <clipPath
       id="clipPath3980">
      <path
         d="m -84,12 c -2.216,0 -4,1.784 -4,4 l 0,52 c 0,2.216 1.784,4 4,4 l 64,0 c 2.216,0 4,-1.784 4,-4 l 0,-52 c 0,-2.216 -1.784,-4 -4,-4 l -64,0 z m 32,8 c 8.413849,0 15.809201,3.796888 20.09375,9.53125 l -3.71875,1.875 -11.71875,5.90625 A 1.1937775,1.1937775 0 0 0 -47.5625,37.5 c -1.095677,-1.06642 -2.667782,-1.75 -4.4375,-1.75 -3.313708,0 -6,2.350506 -6,5.25 0,2.899494 2.686292,5.25 6,5.25 1.752367,0 3.311852,-0.6705 4.40625,-1.71875 a 1.1937775,1.1937775 0 0 0 0.25,0.15625 l 11.71875,5.90625 3.71875,1.875 C -36.190799,58.203112 -43.586151,62 -52,62 -65.254834,62 -76,52.59798 -76,41 -76,29.40202 -65.254834,20 -52,20 z m 23.78125,10.5 c 4.287187,6.497423 4.287187,14.502577 0,21 l -3.875,-1.96875 L -43.8125,43.625 C -43.301968,42.852783 -43,41.956275 -43,41 c 0,-0.956275 -0.301968,-1.852783 -0.8125,-2.625 l 11.71875,-5.90625 3.875,-1.96875 z"
         inkscape:connector-curvature="0"
         id="path3982"
         style="opacity:0.2;fill:#803300;fill-opacity:1;fill-rule:nonzero;stroke:none;display:inline" />
    </clipPath>
    <filter
       x="-0.21883003"
       y="-0.26570469"
       width="1.4376601"
       height="1.5314094"
       color-interpolation-filters="sRGB"
       id="filter3988">
      <feGaussianBlur
         id="feGaussianBlur3990"
         stdDeviation="4.649832" />
    </filter>
  </defs>
  <metadata
     id="metadata2413">
    <rdf:RDF>
      <cc:Work
         rdf:about="">
        <dc:format>image/svg+xml</dc:format>
        <dc:type
           rdf:resource="http://purl.org/dc/dcmitype/StillImage" />
        <dc:title />
      </cc:Work>
    </rdf:RDF>
  </metadata>
  <g
     id="layer2"
     style="display:none">
    <rect
       width="86"
       height="85"
       rx="6"
       ry="6"
       x="5"
       y="7"
       id="rect3745"
       style="opacity:0.9;fill:url(#ButtonShadow);fill-opacity:1;fill-rule:nonzero;stroke:none;filter:url(#filter3174)" />
  </g>
  <rect
     style="fill:#cacaca;fill-opacity:1;fill-rule:nonzero;stroke:none"
     id="rect3171"
     y="6"
     x="6"
     ry="0"
     rx="6"
     height="83.887093"
     width="84" />
  <rect
     style="opacity:0.15;fill:#ffffff;fill-opacity:1;fill-rule:nonzero;stroke:none;filter:url(#filter3179)"
     id="rect2399"
     transform="matrix(1.0880985,0,0,1.1015333,-1.1722568,-1.4100719)"
     y="13.887781"
     x="13.306199"
     ry="9"
     rx="9"
     height="34.82143"
     width="54.464287" />
  <rect
     style="opacity:0.8;fill:#7b7b7b;fill-opacity:1;fill-rule:nonzero;stroke:none"
     id="rect3492"
     y="11"
     x="11"
     ry="4.1999998"
     rx="4.1111112"
     height="63"
     width="74" />
  <rect
     style="fill:#cacaca;fill-opacity:1;fill-rule:nonzero;stroke:none"
     id="rect3519"
     y="12"
     x="12"
     ry="4"
     rx="4"
     height="60"
     width="72" />
  <rect
     style="fill:#999999;fill-opacity:1;fill-rule:evenodd;stroke:none"
     id="rect3082"
     width="83.696457"
     height="2.0820873"
     x="6.2248263"
     y="76.044968"
     rx="6.0297518"
     ry="0.14412965" />
  <path
     d="m 38.123546,26.401724 c -1.200249,1.27305 -1.179544,3.139445 -0.152669,4.729428 l -2.997043,3.178827 c -1.071417,1.136402 -1.292988,2.788486 -1.07313,4.259334 0.0024,0.01568 -0.01053,0.03102 -0.0081,0.04665 0,0 -0.01462,0.01552 -0.01462,0.01552 -1e-6,2.8e-5 -0.0016,0.07774 -0.0016,0.0778 3e-6,3.23e-4 -0.003,0.06875 -0.0016,0.07779 0.0015,0.009 0.02016,0.01015 0.02115,0.01563 9.76e-4,0.0054 -0.01564,0.01031 -0.01462,0.01551 0.0042,0.02121 0.02698,0.04832 0.03419,0.07792 0.002,0.01041 0.0042,0.02076 0.0065,0.03114 0.009,0.03133 2.49782,9.984528 2.528611,10.106987 0.04072,0.56133 -0.122257,1.172292 -0.475186,1.569764 l -2.616929,2.775655 c -2.608473,-1.049205 -5.518963,-0.731094 -7.122893,0.970119 -2.013893,2.136033 -1.233433,5.64087 1.730414,7.832478 2.964744,2.192274 6.997157,2.246304 9.011042,0.110267 1.604244,-1.701554 1.4393,-4.293305 -0.193147,-6.379946 l 2.58769,-2.744643 c -0.0052,0.0055 0.02214,-0.0242 0.02923,-0.031 0.0071,-0.0068 -4.15e-4,0.0052 0.02924,-0.031 l 4.517491,-4.791497 c 0.379038,-0.377356 0.994503,-0.599588 1.630052,-0.663167 0.07039,0.0024 2.909108,0.08965 5.811822,0.192088 1.469313,0.05185 2.947397,0.115559 4.052853,0.154638 0.552728,0.01955 1.005398,0.0244 1.329802,0.03591 0.162207,0.0057 0.290918,0.01378 0.37879,0.01693 0.04393,0.0016 0.06962,0.01506 0.09267,0.0159 0.01148,4.6e-4 0.03577,-0.01222 0.05037,-0.01537 0.03228,4.9e-4 0.07006,0.01609 0.09267,0.0159 0.0068,-3.2e-5 0.0076,-0.01539 0.01461,-0.01552 0.0071,-1.28e-4 0.0097,0.01616 0.02114,0.01563 0.01146,-5.1e-4 0.100411,-0.03069 0.100776,-0.03076 4.5e-5,-6e-6 0.07149,2.86e-4 0.07152,2.83e-4 0,0 0.01463,-0.01551 0.01463,-0.01551 0,0 0.03575,4.2e-5 0.03575,4.2e-5 0.0067,-2.36e-4 0.0081,-0.0152 0.01462,-0.01552 0.02307,-0.009 0.05037,-0.01537 0.05037,-0.01537 1.657721,-0.08005 3.430306,-0.555305 4.49046,-1.679765 l 2.748506,-2.915216 2.389342,1.766791 5.833266,-6.187078 -8.219415,-6.077827 -5.833269,6.187079 2.404652,1.778113 c -0.611917,0.649032 -1.247497,1.323163 -2.792365,2.961729 -0.377922,0.378601 -0.990485,0.598736 -1.630053,0.663173 l -9.25018,-0.313352 16.154788,-17.134638 3.709777,2.743184 1.345212,-11.321571 -12.34021,3.191416 3.859735,2.85407 -20.672282,21.926137 -2.013396,-7.989093 c -0.04075,-0.563345 0.12164,-1.172317 0.475191,-1.569762 1.260314,-1.336757 2.241867,-2.377481 3.011662,-3.194331 1.975979,0.646309 4.088449,0.34525 5.305435,-0.94555 1.632139,-1.731135 1.036025,-4.576264 -1.324556,-6.321785 -2.360574,-1.745521 -5.606875,-1.741659 -7.239013,-0.01052 z"
     inkscape:connector-curvature="0"
     id="path1334"
     style="fill:#737373;fill-opacity:1;stroke:none;display:inline" />
  <g
     id="g3083"
     transform="matrix(0.85229466,0,0,0.90416639,6.7208623,8.5048219)">
    <text
       transform="scale(1.0582388,0.94496628)"
       sodipodi:linespacing="125%"
       id="text3110"
       y="93.077553"
       x="9.4656172"
       style="font-size:13.11822033px;font-style:normal;font-variant:normal;font-weight:normal;font-stretch:normal;line-height:125%;letter-spacing:0px;word-spacing:0px;fill:#838383;fill-opacity:1;stroke:none;font-family:Droid Sans Japanese;-inkscape-font-specification:Droid Sans Japanese"
       xml:space="preserve"><tspan
         y="93.077553"
         x="9.4656172"
         id="tspan3112"
         sodipodi:role="line">unetbootin</tspan></text>
  </g>
</svg>
