<?xml version="1.0" encoding="UTF-8" standalone="no"?>
<!-- Created with Inkscape (http://www.inkscape.org/) -->

<svg
   xmlns:dc="http://purl.org/dc/elements/1.1/"
   xmlns:cc="http://creativecommons.org/ns#"
   xmlns:rdf="http://www.w3.org/1999/02/22-rdf-syntax-ns#"
   xmlns:svg="http://www.w3.org/2000/svg"
   xmlns="http://www.w3.org/2000/svg"
   xmlns:xlink="http://www.w3.org/1999/xlink"
   xmlns:sodipodi="http://sodipodi.sourceforge.net/DTD/sodipodi-0.dtd"
   xmlns:inkscape="http://www.inkscape.org/namespaces/inkscape"
   version="1.0"
   width="96"
   height="96"
   id="svg2408"
   inkscape:version="0.48.5 r10040"
   sodipodi:docname="usb-creator-kde.svg">
  <sodipodi:namedview
     pagecolor="#ffffff"
     bordercolor="#666666"
     borderopacity="1"
     objecttolerance="10"
     gridtolerance="10"
     guidetolerance="10"
     inkscape:pageopacity="0"
     inkscape:pageshadow="2"
     inkscape:window-width="959"
     inkscape:window-height="757"
     id="namedview101"
     showgrid="false"
     inkscape:zoom="4.9124441"
     inkscape:cx="48.119119"
     inkscape:cy="46.645531"
     inkscape:window-x="206"
     inkscape:window-y="56"
     inkscape:window-maximized="0"
     inkscape:current-layer="svg2408" />
  <defs
     id="defs2410">
    <linearGradient
       inkscape:collect="always"
       id="linearGradient3976">
      <stop
         style="stop-color:#000000;stop-opacity:1;"
         offset="0"
         id="stop3978" />
      <stop
         style="stop-color:#000000;stop-opacity:0;"
         offset="1"
         id="stop3980" />
    </linearGradient>
    <linearGradient
       inkscape:collect="always"
       id="linearGradient3958">
      <stop
         style="stop-color:#ffffff;stop-opacity:1;"
         offset="0"
         id="stop3960" />
      <stop
         style="stop-color:#ffffff;stop-opacity:0;"
         offset="1"
         id="stop3962" />
    </linearGradient>
    <linearGradient
       inkscape:collect="always"
       id="linearGradient3944">
      <stop
         style="stop-color:#000000;stop-opacity:1;"
         offset="0"
         id="stop3946" />
      <stop
         style="stop-color:#000000;stop-opacity:0;"
         offset="1"
         id="stop3948" />
    </linearGradient>
    <linearGradient
       id="linearGradient3893">
      <stop
         id="stop3895"
         style="stop-color:#ffffff;stop-opacity:1"
         offset="0" />
      <stop
         id="stop3897"
         style="stop-color:#a2a2a2;stop-opacity:1"
         offset="1" />
    </linearGradient>
    <linearGradient
       id="linearGradient3674">
      <stop
         id="stop3676"
         style="stop-color:#ffffff;stop-opacity:1"
         offset="0" />
      <stop
         id="stop3684"
         style="stop-color:#ffffff;stop-opacity:1"
         offset="0.89999998" />
      <stop
         id="stop3678"
         style="stop-color:#e5e5e5;stop-opacity:1"
         offset="1" />
    </linearGradient>
    <linearGradient
       x1="45.447727"
       y1="92.539597"
       x2="45.447727"
       y2="7.0165396"
       id="ButtonShadow"
       gradientUnits="userSpaceOnUse"
       gradientTransform="scale(1.0058652,0.994169)">
      <stop
         id="stop3750"
         style="stop-color:#000000;stop-opacity:1"
         offset="0" />
      <stop
         id="stop3752"
         style="stop-color:#000000;stop-opacity:0.58823532"
         offset="1" />
    </linearGradient>
    <linearGradient
       id="linearGradient3737">
      <stop
         id="stop3739"
         style="stop-color:#ffffff;stop-opacity:1"
         offset="0" />
      <stop
         id="stop3741"
         style="stop-color:#ffffff;stop-opacity:0"
         offset="1" />
    </linearGradient>
    <linearGradient
       id="linearGradient3700">
      <stop
         id="stop3702"
         style="stop-color:#6bc72e;stop-opacity:1"
         offset="0" />
      <stop
         id="stop3704"
         style="stop-color:#b5f48b;stop-opacity:1"
         offset="1" />
    </linearGradient>
    <filter
       color-interpolation-filters="sRGB"
       id="filter3174">
      <feGaussianBlur
         id="feGaussianBlur3176"
         stdDeviation="1.71" />
    </filter>
    <linearGradient
       x1="36.357143"
       y1="6"
       x2="36.357143"
       y2="63.893143"
       id="linearGradient3188"
       xlink:href="#linearGradient3737"
       gradientUnits="userSpaceOnUse" />
    <filter
       x="-0.192"
       y="-0.192"
       width="1.3839999"
       height="1.3839999"
       color-interpolation-filters="sRGB"
       id="filter3794">
      <feGaussianBlur
         id="feGaussianBlur3796"
         stdDeviation="5.28" />
    </filter>
    <linearGradient
       x1="48"
       y1="20.220806"
       x2="48"
       y2="138.66119"
       id="linearGradient3613"
       xlink:href="#linearGradient3737"
       gradientUnits="userSpaceOnUse" />
    <radialGradient
       cx="48"
       cy="90.171875"
       r="42"
       fx="48"
       fy="90.171875"
       id="radialGradient3619"
       xlink:href="#linearGradient3737"
       gradientUnits="userSpaceOnUse"
       gradientTransform="matrix(1.1573129,0,0,0.99590774,-7.5510206,0.19713193)" />
    <clipPath
       id="clipPath3613">
      <rect
         width="84"
         height="84"
         rx="6"
         ry="6"
         x="6"
         y="6"
         id="rect3615"
         style="fill:#ffffff;fill-opacity:1;fill-rule:nonzero;stroke:none" />
    </clipPath>
    <linearGradient
       x1="45.447727"
       y1="92.539597"
       x2="45.447727"
       y2="7.0165396"
       id="ButtonShadow-0"
       gradientUnits="userSpaceOnUse"
       gradientTransform="matrix(1.0058652,0,0,0.994169,100,0)">
      <stop
         id="stop3750-8"
         style="stop-color:#000000;stop-opacity:1"
         offset="0" />
      <stop
         id="stop3752-5"
         style="stop-color:#000000;stop-opacity:0.58823532"
         offset="1" />
    </linearGradient>
    <linearGradient
       x1="32.251034"
       y1="6.1317081"
       x2="32.251034"
       y2="90.238609"
       id="linearGradient3780"
       xlink:href="#ButtonShadow-0"
       gradientUnits="userSpaceOnUse"
       gradientTransform="matrix(1.0238095,0,0,1.0119048,-1.1428571,-98.071429)" />
    <linearGradient
       x1="32.251034"
       y1="6.1317081"
       x2="32.251034"
       y2="90.238609"
       id="linearGradient3772"
       xlink:href="#ButtonShadow-0"
       gradientUnits="userSpaceOnUse"
       gradientTransform="matrix(1.0238095,0,0,1.0119048,-1.1428571,-98.071429)" />
    <linearGradient
       x1="32.251034"
       y1="6.1317081"
       x2="32.251034"
       y2="90.238609"
       id="linearGradient3725"
       xlink:href="#ButtonShadow-0"
       gradientUnits="userSpaceOnUse"
       gradientTransform="matrix(1.0238095,0,0,1.0119048,-1.1428571,-98.071429)" />
    <linearGradient
       x1="32.251034"
       y1="6.1317081"
       x2="32.251034"
       y2="90.238609"
       id="linearGradient3721"
       xlink:href="#ButtonShadow-0"
       gradientUnits="userSpaceOnUse"
       gradientTransform="translate(0,-97)" />
    <linearGradient
       x1="32.251034"
       y1="6.1317081"
       x2="32.251034"
       y2="90.238609"
       id="linearGradient3026"
       xlink:href="#ButtonShadow-0"
       gradientUnits="userSpaceOnUse"
       gradientTransform="matrix(1.0238095,0,0,1.0119048,-1.1428571,-98.071429)" />
    <radialGradient
       cx="48"
       cy="48"
       r="32"
       fx="48"
       fy="48"
       id="radialGradient3682"
       xlink:href="#linearGradient3674"
       gradientUnits="userSpaceOnUse" />
    <radialGradient
       cx="48.000896"
       cy="46.058418"
       r="3"
       fx="48.000896"
       fy="46.058418"
       id="radialGradient3901"
       xlink:href="#linearGradient3893"
       gradientUnits="userSpaceOnUse" />
    <linearGradient
       x1="56"
       y1="48"
       x2="56"
       y2="16"
       id="linearGradient3918"
       xlink:href="#linearGradient3737"
       gradientUnits="userSpaceOnUse" />
    <linearGradient
       x1="48"
       y1="90"
       x2="48"
       y2="5.9877172"
       id="linearGradient3926"
       xlink:href="#linearGradient3700"
       gradientUnits="userSpaceOnUse" />
    <filter
       color-interpolation-filters="sRGB"
       id="filter3944">
      <feGaussianBlur
         id="feGaussianBlur3946"
         stdDeviation="0.4359375" />
    </filter>
    <linearGradient
       inkscape:collect="always"
       xlink:href="#linearGradient3944"
       id="linearGradient3952"
       x1="52.721809"
       y1="65.116508"
       x2="53.002296"
       y2="68.402679"
       gradientUnits="userSpaceOnUse"
       gradientTransform="translate(-50.95846,4.2452625)" />
    <linearGradient
       inkscape:collect="always"
       xlink:href="#linearGradient3958"
       id="linearGradient3964"
       x1="50.261009"
       y1="75.423363"
       x2="50.132996"
       y2="68.529922"
       gradientUnits="userSpaceOnUse" />
    <linearGradient
       inkscape:collect="always"
       xlink:href="#linearGradient3944"
       id="linearGradient3970"
       gradientUnits="userSpaceOnUse"
       x1="52.721809"
       y1="65.116508"
       x2="53.002296"
       y2="68.402679"
       gradientTransform="matrix(0.94565172,0,0,0.94565172,-39.389162,6.6834056)" />
    <linearGradient
       inkscape:collect="always"
       xlink:href="#linearGradient3976"
       id="linearGradient3982"
       x1="50.019405"
       y1="64.965622"
       x2="50.004887"
       y2="68.376976"
       gradientUnits="userSpaceOnUse" />
    <linearGradient
       inkscape:collect="always"
       xlink:href="#linearGradient3976"
       id="linearGradient3992"
       gradientUnits="userSpaceOnUse"
       x1="49.894093"
       y1="73.969543"
       x2="49.877041"
       y2="70.897682" />
  </defs>
  <metadata
     id="metadata2413">
    <rdf:RDF>
      <cc:Work
         rdf:about="">
        <dc:format>image/svg+xml</dc:format>
        <dc:type
           rdf:resource="http://purl.org/dc/dcmitype/StillImage" />
        <dc:title></dc:title>
      </cc:Work>
    </rdf:RDF>
  </metadata>
  <g
     id="g3068"
     transform="translate(34.651499,3.3850578)">
    <rect
       ry="0"
       rx="0"
       y="2.563823"
       x="-28.702616"
       height="40.102238"
       width="40.102238"
       id="rect3060"
       style="color:#000000;fill:#0066ff;fill-opacity:1;fill-rule:nonzero;stroke:none;stroke-width:0.84200001;marker:none;visibility:visible;display:inline;overflow:visible;enable-background:accumulate" />
    <rect
       style="color:#000000;fill:#55d400;fill-opacity:1;fill-rule:nonzero;stroke:none;stroke-width:0.84200001;marker:none;visibility:visible;display:inline;overflow:visible;enable-background:accumulate"
       id="rect3062"
       width="40.102238"
       height="40.102238"
       x="15.297382"
       y="2.563823"
       rx="0"
       ry="0" />
    <rect
       ry="0"
       rx="0"
       y="46.563824"
       x="-28.702618"
       height="40.102238"
       width="40.102238"
       id="rect3064"
       style="color:#000000;fill:#ffdd55;fill-opacity:1;fill-rule:nonzero;stroke:none;stroke-width:0.84200001;marker:none;visibility:visible;display:inline;overflow:visible;enable-background:accumulate" />
    <rect
       style="color:#000000;fill:#ff2a2a;fill-opacity:1;fill-rule:nonzero;stroke:none;stroke-width:0.84200001;marker:none;visibility:visible;display:inline;overflow:visible;enable-background:accumulate"
       id="rect3066"
       width="40.102238"
       height="40.102238"
       x="15.297382"
       y="46.563824"
       rx="0"
       ry="0" />
  </g>
  <g
     id="layer2"
     style="display:none">
    <rect
       width="86"
       height="85"
       rx="6"
       ry="6"
       x="5"
       y="7"
       id="rect3745"
       style="opacity:0.9;fill:url(#ButtonShadow);fill-opacity:1;fill-rule:nonzero;stroke:none;filter:url(#filter3174)" />
  </g>
  <g
     id="layer5" />
  <g
     id="g3078">
    <rect
       transform="matrix(0,1,-1,0,0,0)"
       rx="0"
       y="-74.210518"
       x="41.058495"
       height="11.173313"
       width="13.883014"
       id="rect3846"
       style="fill:#cccccc;fill-opacity:1;fill-rule:evenodd;stroke:#000000;stroke-width:1.27797437;stroke-miterlimit:4;stroke-opacity:1;stroke-dasharray:none" />
    <rect
       transform="matrix(0,1,-1,0,0,0)"
       rx="3.7261324"
       y="-63.88863"
       x="36.240314"
       height="42.186195"
       width="23.519371"
       id="rect3076"
       style="fill:#1a1a1a;stroke:#000000;stroke-width:1.10387814;stroke-miterlimit:4;stroke-opacity:1;stroke-dasharray:none" />
    <g
       style="fill:#cccccc;fill-opacity:1"
       id="g3095"
       transform="matrix(0,-0.63275703,0.63275703,0,16.434417,78.095044)">
      <path
         d="m 60.112092,46.290609 c 0,-1.393835 -0.952787,-2.588014 -2.304574,-3.123894 l 0,-3.480431 c 0,-1.244223 -0.714998,-2.415717 -1.574788,-3.259718 -0.0092,-0.009 -0.01001,-0.02504 -0.01922,-0.03395 0,0 0,-0.01698 0,-0.01698 -1.3e-5,-1.8e-5 -0.03839,-0.05091 -0.03841,-0.05093 -1.64e-4,-2.05e-4 -0.03308,-0.04578 -0.03841,-0.05093 -0.0053,-0.0051 -0.01592,0.0031 -0.01921,0 -0.0033,-0.0031 0.0032,-0.01405 0,-0.01697 -0.01295,-0.01169 -0.03881,-0.01829 -0.05761,-0.03395 -0.0062,-0.0058 -0.01266,-0.01146 -0.01922,-0.01697 -0.02064,-0.01591 -6.374528,-5.249707 -6.452796,-5.314021 -0.304978,-0.34274 -0.526063,-0.814595 -0.537735,-1.239372 l 0,-3.039009 c 1.925345,-0.567463 3.322426,-2.16109 3.322426,-4.023714 5e-6,-2.338703 -2.186067,-4.227449 -4.878004,-4.227449 -2.692754,0 -4.878012,1.888745 -4.878012,4.227447 2e-6,1.862993 1.395967,3.45631 3.322426,4.023715 l 0,3.005052 c 0,-0.006 3.6e-4,0.02617 0,0.03396 -3.59e-4,0.0078 -0.0023,-0.0035 0,0.03396 l 0,5.246108 c -0.01244,0.424258 -0.229692,0.861222 -0.537735,1.205417 -0.03893,0.03198 -1.602081,1.329911 -3.207194,2.648521 -0.812484,0.667461 -1.635642,1.331462 -2.246959,1.833592 -0.305657,0.251065 -0.550363,0.463866 -0.72978,0.611197 -0.08971,0.07367 -0.162643,0.129883 -0.211253,0.169776 -0.0243,0.01995 -0.04486,0.0235 -0.05761,0.03396 -0.0063,0.0052 -0.01303,0.0249 -0.01921,0.03396 -0.01758,0.01501 -0.0456,0.02305 -0.05761,0.03395 -0.0037,0.0032 0.0037,0.01356 0,0.01698 -0.0037,0.0034 -0.01332,-0.0058 -0.01921,0 -0.0059,0.0058 -0.03824,0.0677 -0.03842,0.06792 -2.2e-5,2.5e-5 -0.0384,0.03393 -0.03841,0.03395 0,0 0,0.01698 0,0.01698 0,0 -0.01921,0.01697 -0.01921,0.01697 -0.0035,0.0033 0.0034,0.01364 0,0.01698 -0.0078,0.01684 -0.01921,0.03395 -0.01921,0.03395 -0.846761,0.842433 -1.555586,1.994616 -1.555586,3.225762 l 0,3.191808 -2.170138,0 0,6.774104 7.465352,0 0,-6.774104 -2.184043,0 c 0,-0.710612 0,-1.448702 0,-3.242736 0.01123,-0.424528 0.227974,-0.858755 0.537734,-1.20542 l 5.108467,-4.210469 0,18.760358 -3.369436,0 4.99247,7.945566 4.993764,-7.945566 -3.505633,0 0,-24.006467 5.108466,4.193491 c 0.306023,0.344015 0.526406,0.814316 0.537734,1.239373 0,1.463588 -1.85e-4,2.603219 0,3.497407 -1.383573,0.525662 -2.362186,1.727602 -2.362186,3.140872 0,1.895384 1.754554,3.446477 3.898569,3.446477 2.14401,0 3.879361,-1.551093 3.879361,-3.446477 z"
         inkscape:connector-curvature="0"
         id="path1334"
         style="fill:#cccccc;fill-opacity:1;stroke:none;display:inline" />
    </g>
  </g>
  <path
     sodipodi:type="arc"
     style="opacity:0;color:#000000;fill:#000000;fill-opacity:1;fill-rule:nonzero;stroke:none;stroke-width:1.99986470000000005;marker:none;visibility:visible;display:inline;overflow:visible;enable-background:accumulate"
     id="path3889"
     sodipodi:cx="49.096889"
     sodipodi:cy="48.130535"
     sodipodi:rx="37.89666"
     sodipodi:ry="37.89666"
     d="m 86.993549,48.130535 a 37.89666,37.89666 0 1 1 -75.793319,0 37.89666,37.89666 0 1 1 75.793319,0 z"
     transform="matrix(-0.82000346,-0.17301252,0.17301252,-0.82000346,78.778866,98.675735)"
     inkscape:transform-center-x="-1.5133727"
     inkscape:transform-center-y="5.0581536" />
</svg>
