<?xml version="1.0" encoding="UTF-8" standalone="no"?>
<!-- Created with Inkscape (http://www.inkscape.org/) -->

<svg
   xmlns:dc="http://purl.org/dc/elements/1.1/"
   xmlns:cc="http://creativecommons.org/ns#"
   xmlns:rdf="http://www.w3.org/1999/02/22-rdf-syntax-ns#"
   xmlns:svg="http://www.w3.org/2000/svg"
   xmlns="http://www.w3.org/2000/svg"
   xmlns:sodipodi="http://sodipodi.sourceforge.net/DTD/sodipodi-0.dtd"
   xmlns:inkscape="http://www.inkscape.org/namespaces/inkscape"
   width="16"
   height="16"
   id="svg4359"
   version="1.1"
   inkscape:version="0.91 r13725"
   sodipodi:docname="folder-dropbox.svg">
  <defs
     id="defs4361">
    <linearGradient
       id="linearGradient4103">
      <stop
         style="stop-color:#bdecfb;stop-opacity:1"
         offset="0"
         id="stop4105" />
      <stop
         style="stop-color:#f5feff;stop-opacity:1"
         offset="1"
         id="stop4107" />
    </linearGradient>
    <linearGradient
       id="linearGradient4314">
      <stop
         style="stop-color:#ff4b00;stop-opacity:1"
         offset="0"
         id="stop4316" />
      <stop
         style="stop-color:#ff5500;stop-opacity:1"
         offset="1"
         id="stop4318" />
    </linearGradient>
    <linearGradient
       id="linearGradient5020-1">
      <stop
         id="stop5022-6"
         offset="0"
         style="stop-color:#0da8db;stop-opacity:1" />
      <stop
         id="stop5024-0"
         offset="1"
         style="stop-color:#1fe1fb;stop-opacity:1" />
    </linearGradient>
  </defs>
  <sodipodi:namedview
     id="base"
     pagecolor="#ffffff"
     bordercolor="#666666"
     borderopacity="1.0"
     inkscape:pageopacity="0.0"
     inkscape:pageshadow="2"
     inkscape:zoom="33.279062"
     inkscape:cx="4.7914145"
     inkscape:cy="4.8759516"
     inkscape:current-layer="layer1"
     showgrid="true"
     inkscape:grid-bbox="true"
     inkscape:document-units="px"
     inkscape:window-width="1366"
     inkscape:window-height="697"
     inkscape:window-x="-4"
     inkscape:window-y="0"
     inkscape:window-maximized="1"
     inkscape:showpageshadow="false"
     borderlayer="true"
     showguides="true"
     fit-margin-top="0"
     fit-margin-left="0"
     fit-margin-right="0"
     fit-margin-bottom="0"
     inkscape:object-nodes="false"
     inkscape:snap-nodes="false">
    <inkscape:grid
       type="xygrid"
       id="grid4105"
       originx="-3px"
       originy="-3px" />
    <sodipodi:guide
       position="0,16"
       orientation="16,0"
       id="guide4205" />
    <sodipodi:guide
       position="0,0"
       orientation="0,16"
       id="guide4207" />
    <sodipodi:guide
       position="16,10"
       orientation="-16,0"
       id="guide4209" />
    <sodipodi:guide
       position="16,16"
       orientation="0,-16"
       id="guide4211" />
    <sodipodi:guide
       position="1,5"
       orientation="12,0"
       id="guide4213" />
    <sodipodi:guide
       position="15,5"
       orientation="-12,0"
       id="guide4217" />
    <sodipodi:guide
       position="10,15"
       orientation="0,-12"
       id="guide4219" />
    <sodipodi:guide
       position="8,1"
       orientation="0,11.999984"
       id="guide4225" />
  </sodipodi:namedview>
  <metadata
     id="metadata4364">
    <rdf:RDF>
      <cc:Work
         rdf:about="">
        <dc:format>image/svg+xml</dc:format>
        <dc:type
           rdf:resource="http://purl.org/dc/dcmitype/StillImage" />
        <dc:title />
      </cc:Work>
    </rdf:RDF>
  </metadata>
  <g
     id="layer1"
     inkscape:label="Layer 1"
     inkscape:groupmode="layer"
     transform="translate(-3,-29)">
    <g
       transform="matrix(0.02734375,0,0,0.03645833,4.0000002,27.666668)"
       id="g3"
       style="fill:#1a1a1a">
      <g
         id="g3036"
         transform="matrix(0,0.83755709,-1.1939485,0,599.85716,73.585384)">
        <polygon
           style="fill:#1a1a1a"
           id="polygon7"
           points="360,240 280,192 280,224 152,224 152,256 280,256 280,288 " />
        <polygon
           style="fill:#1a1a1a"
           id="polygon9"
           points="360,320 232,320 232,288 152,336 232,384 232,352 360,352 " />
      </g>
    </g>
    <path
       inkscape:connector-curvature="0"
       style="color:#000000;font-style:normal;font-variant:normal;font-weight:normal;font-stretch:normal;font-size:medium;line-height:normal;font-family:sans-serif;text-indent:0;text-align:start;text-decoration:none;text-decoration-line:none;text-decoration-style:solid;text-decoration-color:#000000;letter-spacing:normal;word-spacing:normal;text-transform:none;direction:ltr;block-progression:tb;writing-mode:lr-tb;baseline-shift:baseline;text-anchor:start;white-space:normal;clip-rule:nonzero;display:inline;overflow:visible;visibility:visible;opacity:1;isolation:auto;mix-blend-mode:normal;color-interpolation:sRGB;color-interpolation-filters:linearRGB;solid-color:#000000;solid-opacity:1;fill:#1a1a1a;fill-opacity:1;fill-rule:nonzero;stroke:none;stroke-width:2;stroke-linecap:butt;stroke-linejoin:miter;stroke-miterlimit:4;stroke-dasharray:none;stroke-dashoffset:0;stroke-opacity:1;color-rendering:auto;image-rendering:auto;shape-rendering:auto;text-rendering:auto;enable-background:accumulate"
       d="M 12.998047,30 C 11.587125,30.0012 10.448968,30.863581 9.734375,32.03125 9.656843,32.02565 9.581765,32.00039 9.503906,32 l -0.002,0 -0.002,0 c -1.9211547,-4e-6 -3.5000037,1.578846 -3.5,3.5 C 5.9999464,35.805534 6,35.80877 6.2928748,36.402344 4.9224572,37.053958 4.0009917,38.433273 4,39.998047 L 4,40 c -3.7e-6,2.197297 1.802703,4.000004 4,4 l 5,0 c 2.749582,5e-6 5.000005,-2.250418 5,-5 l 0,-0.002 C 17.99775,37.680497 17.38084,36.498068 16.470703,35.572266 16.70087,35.060909 16.999142,34.567297 17,34 c 4e-6,-2.197297 -1.802703,-4.000004 -4,-4 l -0.002,0 z M 13,31 c 1.656855,-3e-6 3.000003,1.343145 3,3 -9.84e-4,0.650671 -0.213488,1.283384 -0.605469,1.802734 C 16.403047,36.556429 16.99785,37.74097 17,39 c 4e-6,2.209141 -1.790859,4.000004 -4,4 l -5,0 c -1.6568554,3e-6 -3.0000028,-1.343145 -3,-3 9.344e-4,-1.47442 1.0262625,-2.745227 2.4824219,-2.976563 C 7.1392617,36.583815 6.9998268,36.057698 7,35.5 6.9999973,34.119287 8.119287,32.999997 9.5,33 9.717755,33.0011 9.934432,33.03065 10.144531,33.08789 10.541157,31.845106 11.69546,31.001091 13,31 Z"
       id="path4170"
       sodipodi:nodetypes="ccccscccsssscccsccccccsscccccc" />
  </g>
</svg>
