<?xml version="1.0" encoding="UTF-8" standalone="no"?>
<!-- Created with Inkscape (http://www.inkscape.org/) -->

<svg
   xmlns:dc="http://purl.org/dc/elements/1.1/"
   xmlns:cc="http://creativecommons.org/ns#"
   xmlns:rdf="http://www.w3.org/1999/02/22-rdf-syntax-ns#"
   xmlns:svg="http://www.w3.org/2000/svg"
   xmlns="http://www.w3.org/2000/svg"
   xmlns:sodipodi="http://sodipodi.sourceforge.net/DTD/sodipodi-0.dtd"
   xmlns:inkscape="http://www.inkscape.org/namespaces/inkscape"
   width="24"
   height="24"
   id="svg2"
   version="1.1"
   inkscape:version="0.91 r13725"
   sodipodi:docname="emblem-web.svg">
  <defs
     id="defs4" />
  <sodipodi:namedview
     id="base"
     pagecolor="#ffffff"
     bordercolor="#666666"
     borderopacity="1.0"
     inkscape:pageopacity="0.0"
     inkscape:pageshadow="2"
     inkscape:zoom="8.4963768"
     inkscape:cx="-8.6959251"
     inkscape:cy="10.113616"
     inkscape:document-units="px"
     inkscape:current-layer="layer1"
     showgrid="false"
     inkscape:window-width="1366"
     inkscape:window-height="714"
     inkscape:window-x="0"
     inkscape:window-y="0"
     inkscape:window-maximized="1"
     showguides="true"
     inkscape:guide-bbox="true">
    <sodipodi:guide
       position="4.5,19.500017"
       orientation="15,0"
       id="guide3264" />
    <sodipodi:guide
       position="4.5,4.5000174"
       orientation="0,15"
       id="guide3266" />
    <sodipodi:guide
       position="19.5,4.5000174"
       orientation="-15,0"
       id="guide3268" />
    <sodipodi:guide
       position="19.5,19.500017"
       orientation="0,-15"
       id="guide3270" />
  </sodipodi:namedview>
  <metadata
     id="metadata7">
    <rdf:RDF>
      <cc:Work
         rdf:about="">
        <dc:format>image/svg+xml</dc:format>
        <dc:type
           rdf:resource="http://purl.org/dc/dcmitype/StillImage" />
        <dc:title />
      </cc:Work>
    </rdf:RDF>
  </metadata>
  <g
     inkscape:label="Capa 1"
     inkscape:groupmode="layer"
     id="layer1"
     transform="translate(0,-1028.3622)">
    <path
       style="color:#000000;font-style:normal;font-variant:normal;font-weight:normal;font-stretch:normal;font-size:medium;line-height:normal;font-family:sans-serif;text-indent:0;text-align:start;text-decoration:none;text-decoration-line:none;text-decoration-style:solid;text-decoration-color:#000000;letter-spacing:normal;word-spacing:normal;text-transform:none;direction:ltr;block-progression:tb;writing-mode:lr-tb;baseline-shift:baseline;text-anchor:start;white-space:normal;clip-rule:nonzero;display:inline;overflow:visible;visibility:visible;opacity:1;isolation:auto;mix-blend-mode:normal;color-interpolation:sRGB;color-interpolation-filters:linearRGB;solid-color:#000000;solid-opacity:1;fill:#1a1a1a;fill-opacity:1;fill-rule:nonzero;stroke:none;stroke-width:0.5;stroke-linecap:butt;stroke-linejoin:miter;stroke-miterlimit:4;stroke-dasharray:none;stroke-dashoffset:0;stroke-opacity:1;color-rendering:auto;image-rendering:auto;shape-rendering:auto;text-rendering:auto;enable-background:accumulate"
       d="M 12 3.75 C 7.4532048 3.75 3.75 7.4532 3.75 12 C 3.75 16.5466 7.4531972 20.25 12 20.25 C 16.546646 20.25 20.25 16.5466 20.25 12 C 20.25 7.4532 16.546638 3.75 12 3.75 z M 11.265625 5.4902344 L 11.265625 7.4804688 C 10.732851 7.4454687 10.207178 7.3681125 9.6875 7.2578125 C 10.136019 6.3766125 10.683648 5.7796344 11.265625 5.4902344 z M 12.734375 5.4902344 C 13.316247 5.7795344 13.86398 6.3766125 14.3125 7.2578125 C 13.792901 7.3682125 13.267053 7.4454687 12.734375 7.4804688 L 12.734375 5.4902344 z M 8.5625 6.265625 C 8.4493697 6.463625 8.319188 6.6348625 8.21875 6.8515625 C 8.0972688 6.8075625 7.9787937 6.7585375 7.859375 6.7109375 C 8.0777844 6.5394375 8.323846 6.409625 8.5625 6.265625 z M 15.4375 6.265625 C 15.67682 6.409925 15.923572 6.5409906 16.142578 6.7128906 C 16.022379 6.7608906 15.903549 6.8099156 15.78125 6.8535156 C 15.680563 6.6362156 15.550942 6.463925 15.4375 6.265625 z M 6.7011719 7.8144531 C 7.0319336 7.9690531 7.3697573 8.1076219 7.7128906 8.2324219 C 7.442026 9.1528219 7.2718314 10.173872 7.2167969 11.263672 L 5.3007812 11.263672 C 5.4434688 9.9689719 5.9326458 8.7858531 6.7011719 7.8144531 z M 17.298828 7.8144531 C 18.067454 8.7858531 18.556546 9.9690719 18.699219 11.263672 L 16.783203 11.263672 C 16.728173 10.173872 16.557974 9.1528219 16.287109 8.2324219 C 16.630167 8.1076219 16.968032 7.9690531 17.298828 7.8144531 z M 9.1308594 8.640625 C 9.8309814 8.805225 10.54518 8.9123781 11.265625 8.9550781 L 11.265625 11.263672 L 8.6914062 11.263672 C 8.7469622 10.322272 8.8952672 9.432425 9.1308594 8.640625 z M 14.869141 8.640625 C 15.104733 9.432425 15.253038 10.322272 15.308594 11.263672 L 12.734375 11.263672 L 12.734375 8.9550781 C 13.454798 8.9120781 14.169093 8.805225 14.869141 8.640625 z M 5.3007812 12.734375 L 7.2167969 12.734375 C 7.2718309 13.824175 7.442026 14.845225 7.7128906 15.765625 C 7.3698275 15.890525 7.031999 16.028794 6.7011719 16.183594 C 5.9325203 15.212094 5.4434693 14.028975 5.3007812 12.734375 z M 8.6914062 12.734375 L 11.265625 12.734375 L 11.265625 15.042969 C 10.5452 15.085969 9.8309321 15.192722 9.1308594 15.357422 C 8.8952669 14.565522 8.746962 13.675575 8.6914062 12.734375 z M 12.734375 12.734375 L 15.308594 12.734375 C 15.252944 13.675575 15.104715 14.565422 14.869141 15.357422 C 14.169008 15.192722 13.454808 15.085769 12.734375 15.042969 L 12.734375 12.734375 z M 16.783203 12.734375 L 18.699219 12.734375 C 18.556546 14.029075 18.067445 15.212394 17.298828 16.183594 C 16.968006 16.029094 16.630113 15.890525 16.287109 15.765625 C 16.55797 14.845125 16.728168 13.824275 16.783203 12.734375 z M 11.265625 16.519531 L 11.265625 18.509766 C 10.68366 18.220466 10.135913 17.623488 9.6875 16.742188 C 10.207153 16.631887 10.732999 16.554431 11.265625 16.519531 z M 12.734375 16.519531 C 13.267079 16.554531 13.792869 16.631887 14.3125 16.742188 C 13.863983 17.623488 13.316253 18.220466 12.734375 18.509766 L 12.734375 16.519531 z M 8.21875 17.140625 C 8.3194285 17.358025 8.4491024 17.530116 8.5625 17.728516 C 8.3233758 17.584116 8.076282 17.455103 7.8574219 17.283203 C 7.9777549 17.235203 8.0963579 17.184225 8.21875 17.140625 z M 15.78125 17.140625 C 15.903723 17.184625 16.022237 17.235603 16.142578 17.283203 C 15.923562 17.455103 15.676816 17.586069 15.4375 17.730469 C 15.551226 17.531569 15.680341 17.358525 15.78125 17.140625 z "
       transform="translate(0,1028.3622)"
       id="path3" />
  </g>
</svg>
