<?xml version="1.0" encoding="UTF-8" standalone="no"?>
<!-- Created with Inkscape (http://www.inkscape.org/) -->

<svg
   xmlns:dc="http://purl.org/dc/elements/1.1/"
   xmlns:cc="http://creativecommons.org/ns#"
   xmlns:rdf="http://www.w3.org/1999/02/22-rdf-syntax-ns#"
   xmlns:svg="http://www.w3.org/2000/svg"
   xmlns="http://www.w3.org/2000/svg"
   xmlns:sodipodi="http://sodipodi.sourceforge.net/DTD/sodipodi-0.dtd"
   xmlns:inkscape="http://www.inkscape.org/namespaces/inkscape"
   width="24"
   height="24"
   id="svg2"
   version="1.1"
   inkscape:version="0.91 r13725"
   sodipodi:docname="emblem-symbolic-link.svg">
  <defs
     id="defs4" />
  <sodipodi:namedview
     id="base"
     pagecolor="#ffffff"
     bordercolor="#666666"
     borderopacity="1.0"
     inkscape:pageopacity="0.0"
     inkscape:pageshadow="2"
     inkscape:zoom="16.068745"
     inkscape:cx="12.04732"
     inkscape:cy="14.177714"
     inkscape:document-units="px"
     inkscape:current-layer="layer1"
     showgrid="true"
     inkscape:showpageshadow="false"
     borderlayer="true"
     inkscape:window-width="1366"
     inkscape:window-height="714"
     inkscape:window-x="0"
     inkscape:window-y="0"
     inkscape:window-maximized="1"
     fit-margin-top="0"
     fit-margin-left="0"
     fit-margin-right="0"
     fit-margin-bottom="0"
     inkscape:object-paths="true"
     inkscape:object-nodes="true"
     inkscape:snap-bbox="true"
     inkscape:bbox-paths="true"
     inkscape:bbox-nodes="true">
    <inkscape:grid
       type="xygrid"
       id="grid4149" />
  </sodipodi:namedview>
  <metadata
     id="metadata7">
    <rdf:RDF>
      <cc:Work
         rdf:about="">
        <dc:format>image/svg+xml</dc:format>
        <dc:type
           rdf:resource="http://purl.org/dc/dcmitype/StillImage" />
        <dc:title></dc:title>
      </cc:Work>
    </rdf:RDF>
  </metadata>
  <g
     inkscape:label="Capa 1"
     inkscape:groupmode="layer"
     id="layer1"
     transform="translate(0,-1028.3622)">
    <g
       transform="matrix(-0.3106637,-0.3106637,-0.31066368,0.31066368,57.082018,1037.0065)"
       id="g4150"
       style="fill:#1a1a1a;fill-opacity:1">
      <path
         style="fill:#1a1a1a;fill-opacity:1"
         inkscape:connector-curvature="0"
         id="path4"
         d="m 55.856,88.084 c -5.62,0 -10.192,-4.524 -10.192,-10.084 0,-5.66 4.344,-10.084 9.888,-10.084 2.564,0 4.268,1.016 5.604,2.016 0.884,0.664 1.068,1.916 0.404,2.8 -0.66,0.888 -1.916,1.076 -2.796,0.412 -1.212,-0.912 -2.052,-1.228 -3.212,-1.228 -3.3,0 -5.888,2.68 -5.888,6.088 0,3.356 2.776,6.088 6.192,6.088 1.32,0 2.672,-0.444 3.712,-1.228 0.888,-0.664 2.136,-0.48 2.8,0.416 0.664,0.884 0.48,2.132 -0.404,2.796 -1.744,1.296 -3.912,2.008 -6.108,2.008 z" />
      <path
         style="fill:#1a1a1a;fill-opacity:1"
         inkscape:connector-curvature="0"
         id="path6"
         d="m 78.604,88.084 c -2.164,0 -4.244,-0.7 -6.004,-2.016 -0.888,-0.664 -1.072,-1.916 -0.408,-2.796 0.66,-0.884 1.916,-1.08 2.8,-0.416 1.072,0.8 2.32,1.228 3.612,1.228 3.356,0 6.084,-2.736 6.084,-6.088 0,-3.352 -2.732,-6.088 -6.084,-6.088 -1.54,0 -3.52,0.552 -4.42,1.228 -0.884,0.664 -2.14,0.48 -2.8,-0.412 -0.664,-0.884 -0.48,-2.136 0.408,-2.8 1.856,-1.388 4.832,-2.016 6.816,-2.016 5.564,0 10.084,4.524 10.084,10.084 0.004,5.58 -4.524,10.092 -10.088,10.092 z" />
      <path
         style="fill:#1a1a1a;fill-opacity:1"
         inkscape:connector-curvature="0"
         id="path8"
         d="m 75.304,80 -16,0 c -1.104,0 -2,-0.9 -2,-2 0,-1.1 0.896,-2 2,-2 l 16,0 c 1.1,0 2,0.9 2,2 0,1.1 -0.896,2 -2,2 z" />
    </g>
  </g>
</svg>
