<?xml version="1.0" encoding="UTF-8" standalone="no"?>
<!-- Created with Inkscape (http://www.inkscape.org/) -->

<svg
   xmlns:dc="http://purl.org/dc/elements/1.1/"
   xmlns:cc="http://creativecommons.org/ns#"
   xmlns:rdf="http://www.w3.org/1999/02/22-rdf-syntax-ns#"
   xmlns:svg="http://www.w3.org/2000/svg"
   xmlns="http://www.w3.org/2000/svg"
   xmlns:sodipodi="http://sodipodi.sourceforge.net/DTD/sodipodi-0.dtd"
   xmlns:inkscape="http://www.inkscape.org/namespaces/inkscape"
   width="24"
   height="24"
   id="svg2"
   version="1.1"
   inkscape:version="0.91 r13725"
   sodipodi:docname="emblem-insync-syncing.svg">
  <defs
     id="defs4" />
  <sodipodi:namedview
     id="base"
     pagecolor="#ffffff"
     bordercolor="#666666"
     borderopacity="1.0"
     inkscape:pageopacity="0.0"
     inkscape:pageshadow="2"
     inkscape:zoom="7.2477452"
     inkscape:cx="37.118605"
     inkscape:cy="16.420148"
     inkscape:document-units="px"
     inkscape:current-layer="layer1"
     showgrid="false"
     width="0px"
     height="0px"
     fit-margin-top="0"
     fit-margin-left="0"
     fit-margin-right="0"
     fit-margin-bottom="0"
     inkscape:window-width="1366"
     inkscape:window-height="714"
     inkscape:window-x="0"
     inkscape:window-y="0"
     inkscape:window-maximized="1" />
  <metadata
     id="metadata7">
    <rdf:RDF>
      <cc:Work
         rdf:about="">
        <dc:format>image/svg+xml</dc:format>
        <dc:type
           rdf:resource="http://purl.org/dc/dcmitype/StillImage" />
        <dc:title />
      </cc:Work>
    </rdf:RDF>
  </metadata>
  <g
     inkscape:label="Capa 1"
     inkscape:groupmode="layer"
     id="layer1"
     transform="translate(0,-1028.3622)">
    <path
       inkscape:connector-curvature="0"
       d="m 8.319998,1040.1843 c 0.266667,-0.32 0.03556,-0.8176 -0.391112,-0.8176 l -1.831112,0 c 0.05333,-0.3556 0.142222,-0.6934 0.266667,-1.031 0,0 0,0 0,-0.018 0.355555,-0.9778 0.960001,-1.8488 1.742224,-2.5243 0,0 0.01778,-0.018 0.01778,-0.018 0.248888,-0.2132 0.497777,-0.391 0.782222,-0.551 0.03556,-0.018 0.07112,-0.036 0.106666,-0.053 0.266668,-0.1601 0.551112,-0.2845 0.835557,-0.4089 0.03556,-0.018 0.08889,-0.036 0.142223,-0.053 0.284443,-0.1066 0.586666,-0.1955 0.906666,-0.2489 0.03556,0 0.07111,-0.018 0.124445,-0.018 0.32,-0.053 0.657778,-0.089 1.013334,-0.089 2.026668,0 3.786669,1.0132 4.871114,2.542 l 0.01778,-0.018 0.995556,-1.191 0.320001,-0.3733 0.01778,-0.018 c -1.511109,-1.7777 -3.751111,-2.9332 -6.25778,-2.9332 -4.4266697,0 -8.0000047,3.5731 -8.0000047,7.9994 0,0.2667 0.01778,0.5511 0.05333,0.8177 0.01778,0.1244 0.03556,0.2489 0.05333,0.3911 0,0 0,0 0,0 0,0.053 0.01778,0.1067 0.01778,0.1778 0,0.053 0.01778,0.089 0.03555,0.1422 0.05333,0.2845 0.124444,0.5688 0.213333,0.8532 0.01778,0.053 0.01778,0.1245 0.03556,0.1778 l 0,0 c 0.03555,0.089 0.07111,0.1778 0.106666,0.2667 0.03556,0.071 0.05333,0.16 0.08889,0.2311 0.106667,0.2843 0.231112,0.551 0.373334,0.7999 l 0,0 1.422223,-1.7066 1.920001,-2.3287 z m 11.626674,-0.6399 c -0.01778,-0.1244 -0.03556,-0.2488 -0.05333,-0.3911 0,0 0,0 0,0 0,-0.053 -0.01778,-0.1066 -0.01778,-0.1777 0,-0.053 -0.01778,-0.089 -0.03556,-0.1423 -0.05333,-0.2844 -0.124444,-0.5688 -0.213333,-0.8532 -0.01778,-0.053 -0.01778,-0.1244 -0.03556,-0.1778 l 0,0 c -0.03556,-0.089 -0.07111,-0.1778 -0.106667,-0.2666 -0.03556,-0.071 -0.05333,-0.16 -0.08889,-0.2312 -0.106666,-0.2843 -0.231111,-0.551 -0.373333,-0.7998 l 0,0 -1.422223,1.7065 -1.920002,2.3287 c -0.266667,0.32 -0.03555,0.8177 0.391112,0.8177 l 1.84889,0 c -0.05333,0.3555 -0.142223,0.6933 -0.266667,1.031 0,0 0,0 0,0.018 -0.355556,0.9778 -0.960001,1.8489 -1.742224,2.5244 0,0 -0.01778,0.018 -0.01778,0.018 -0.248889,0.2132 -0.497778,0.391 -0.782222,0.551 -0.03556,0.018 -0.07111,0.036 -0.106667,0.053 -0.266667,0.16 -0.551112,0.2845 -0.835556,0.4089 -0.03556,0.018 -0.08889,0.036 -0.142222,0.053 -0.284444,0.1066 -0.586667,0.1955 -0.906668,0.2488 -0.03556,0 -0.0711,0.018 -0.124444,0.018 -0.32,0.053 -0.657778,0.089 -1.013334,0.089 -2.0266681,0 -3.7866681,-1.0133 -4.8711151,-2.542 l -0.01778,0.018 -0.995557,1.191 -0.32,0.3734 -0.01778,0.018 c 1.493334,1.7777 3.733336,2.9332 6.2400041,2.9332 4.42667,0 8.000006,-3.573 8.000006,-7.9994 0,-0.2667 -0.01778,-0.5511 -0.05333,-0.8177 z"
       id="path3"
       style="fill:#1a1a1a;fill-opacity:1" />
  </g>
</svg>
