<?xml version="1.0" encoding="UTF-8" standalone="no"?>
<!-- Created with Inkscape (http://www.inkscape.org/) -->

<svg
   xmlns:dc="http://purl.org/dc/elements/1.1/"
   xmlns:cc="http://creativecommons.org/ns#"
   xmlns:rdf="http://www.w3.org/1999/02/22-rdf-syntax-ns#"
   xmlns:svg="http://www.w3.org/2000/svg"
   xmlns="http://www.w3.org/2000/svg"
   xmlns:sodipodi="http://sodipodi.sourceforge.net/DTD/sodipodi-0.dtd"
   xmlns:inkscape="http://www.inkscape.org/namespaces/inkscape"
   id="svg2"
   version="1.1"
   inkscape:version="0.91 r13725"
   width="512"
   height="512"
   sodipodi:docname="folder-videos.svg"
   viewBox="0 0 512 512">
  <metadata
     id="metadata8">
    <rdf:RDF>
      <cc:Work
         rdf:about="">
        <dc:format>image/svg+xml</dc:format>
        <dc:type
           rdf:resource="http://purl.org/dc/dcmitype/StillImage" />
        <dc:title />
      </cc:Work>
    </rdf:RDF>
  </metadata>
  <defs
     id="defs6" />
  <sodipodi:namedview
     pagecolor="#ffffff"
     bordercolor="#666666"
     borderopacity="1"
     objecttolerance="10"
     gridtolerance="10"
     guidetolerance="10"
     inkscape:pageopacity="0"
     inkscape:pageshadow="2"
     inkscape:window-width="1366"
     inkscape:window-height="694"
     id="namedview4"
     showgrid="false"
     showguides="true"
     inkscape:guide-bbox="true"
     inkscape:zoom="0.65059336"
     inkscape:cx="321.19398"
     inkscape:cy="129.41237"
     inkscape:window-x="-4"
     inkscape:window-y="0"
     inkscape:window-maximized="1"
     inkscape:current-layer="g4671"
     inkscape:document-units="px" />
  <g
     transform="translate(226.5678,444.61441)"
     id="g3926">
    <g
       transform="translate(21.737289,-39.127119)"
       id="g4102">
      <g
         id="g4157"
         transform="translate(-671.90801,-288.45425)">
        <g
           id="g4214"
           transform="translate(10.868643,220.39399)">
          <g
             id="g4509"
             transform="translate(756.68343,131.09839)">
            <g
               id="g4626"
               transform="translate(-198.03512,-23.259323)">
              <g
                 id="g4671"
                 transform="translate(-339.10169,-13.042373)">
                <path
                   style="fill:#107662;fill-opacity:1;fill-rule:evenodd;stroke:#000000;stroke-width:0;stroke-linecap:butt;stroke-linejoin:miter;stroke-miterlimit:4;stroke-dasharray:none;stroke-opacity:1"
                   d="m 229.62117,-352.94346 c -8.54982,0 -15.43351,6.88183 -15.43351,15.43164 l 0,40.79013 0,131.2722 0,132.816295 0,7.98465 c 0,6.5428 5.26673,11.80953 11.80953,11.80953 l 446.37907,0 c 6.5428,0 11.81139,-5.26673 11.81139,-11.80953 l 0,-140.800945 -0.002,0 0,-131.2722 c 0,-12.87594 -10.36547,-23.24141 -23.24141,-23.24141 l -239.27304,0 c -6.3555,0 -8.86637,-0.74873 -12.93638,-4.57733 l -24.00477,-23.78749 c -0.0817,-0.0833 -0.1657,-0.16418 -0.24929,-0.24557 l -0.0484,-0.0465 -0.002,0.002 c -2.77262,-2.67602 -6.54334,-4.32532 -10.71936,-4.32532 z"
                   id="rect2982-2"
                   inkscape:connector-curvature="0"
                   sodipodi:nodetypes="sscccssssccssccccccss" />
                <path
                   style="fill:#16a085;fill-opacity:1;fill-rule:evenodd;stroke:#000000;stroke-width:0;stroke-linecap:butt;stroke-linejoin:miter;stroke-miterlimit:4;stroke-dasharray:none;stroke-opacity:1"
                   d="m 237.42907,-306.62808 c -12.87593,0 -23.24141,10.36548 -23.24141,23.24141 l 0,131.2722 0,132.816305 0,7.98465 c 0,6.5428 5.26673,11.80952 11.80953,11.80952 l 446.37907,0 c 6.5428,0 11.81139,-5.26672 11.81139,-11.80952 l 0,-140.800955 -0.002,0 0,-131.2722 c 0,-12.87593 -10.36547,-23.24141 -23.24141,-23.24141 l -423.51531,0 z"
                   id="rect2982"
                   inkscape:connector-curvature="0" />
                <path
                   inkscape:connector-curvature="0"
                   style="fill:#ffffff;fill-opacity:1"
                   d="m 383.56265,-199.94104 c -5.19374,0 -9.375,4.18125 -9.375,9.375 l 0,75 c 0,5.19376 4.18125,9.37501 9.375,9.37501 l 93.75,0 c 5.19374,0 9.375,-4.18125 9.375,-9.37501 l 0,-18.75 37.5,18.75 0,-75 -37.5,18.74999 0,-18.74997 c 0,-5.19376 -4.18126,-9.37501 -9.375,-9.37501 l -93.75001,0 z"
                   id="path3623" />
              </g>
            </g>
          </g>
        </g>
      </g>
    </g>
  </g>
</svg>
