<?xml version="1.0" encoding="UTF-8" standalone="no"?>
<!-- Created with Inkscape (http://www.inkscape.org/) -->

<svg
   xmlns:dc="http://purl.org/dc/elements/1.1/"
   xmlns:cc="http://creativecommons.org/ns#"
   xmlns:rdf="http://www.w3.org/1999/02/22-rdf-syntax-ns#"
   xmlns:svg="http://www.w3.org/2000/svg"
   xmlns="http://www.w3.org/2000/svg"
   xmlns:sodipodi="http://sodipodi.sourceforge.net/DTD/sodipodi-0.dtd"
   xmlns:inkscape="http://www.inkscape.org/namespaces/inkscape"
   id="svg2"
   version="1.1"
   inkscape:version="0.91 r13725"
   width="512"
   height="512"
   sodipodi:docname="folder-sound.svg"
   viewBox="0 0 512 512">
  <metadata
     id="metadata8">
    <rdf:RDF>
      <cc:Work
         rdf:about="">
        <dc:format>image/svg+xml</dc:format>
        <dc:type
           rdf:resource="http://purl.org/dc/dcmitype/StillImage" />
        <dc:title />
      </cc:Work>
    </rdf:RDF>
  </metadata>
  <defs
     id="defs6" />
  <sodipodi:namedview
     pagecolor="#ffffff"
     bordercolor="#666666"
     borderopacity="1"
     objecttolerance="10"
     gridtolerance="10"
     guidetolerance="10"
     inkscape:pageopacity="0"
     inkscape:pageshadow="2"
     inkscape:window-width="1366"
     inkscape:window-height="694"
     id="namedview4"
     showgrid="false"
     showguides="true"
     inkscape:guide-bbox="true"
     inkscape:zoom="0.46003898"
     inkscape:cx="-247.01447"
     inkscape:cy="363.38854"
     inkscape:window-x="-4"
     inkscape:window-y="0"
     inkscape:window-maximized="1"
     inkscape:current-layer="svg2"
     inkscape:document-units="px" />
  <path
     style="fill:#107662;fill-opacity:1;fill-rule:evenodd;stroke:#000000;stroke-width:0;stroke-linecap:butt;stroke-linejoin:miter;stroke-miterlimit:4;stroke-dasharray:none;stroke-opacity:1"
     d="m 36.43351,79.28027 c -8.54981,0 -15.4335,6.88183 -15.4335,15.43164 l 0,40.79013 0,131.2722 0,132.81629 0,7.98465 c 0,6.5428 5.26673,11.80953 11.80953,11.80953 l 446.37906,0 c 6.5428,0 11.81139,-5.26673 11.81139,-11.80953 l 0,-140.80094 -0.002,0 0,-131.2722 c 0,-12.87594 -10.36547,-23.24141 -23.24141,-23.24141 l -239.27304,0 c -6.3555,0 -8.86637,-0.74873 -12.93638,-4.57733 L 191.54239,83.89581 c -0.0817,-0.0833 -0.1657,-0.16418 -0.24929,-0.24557 l -0.0484,-0.0465 -0.002,0.002 c -2.77262,-2.67602 -6.54334,-4.32532 -10.71936,-4.32532 z"
     id="rect2982-2"
     inkscape:connector-curvature="0"
     sodipodi:nodetypes="sscccssssccssccccccss" />
  <path
     style="fill:#16a085;fill-opacity:1;fill-rule:evenodd;stroke:#000000;stroke-width:0;stroke-linecap:butt;stroke-linejoin:miter;stroke-miterlimit:4;stroke-dasharray:none;stroke-opacity:1"
     d="m 44.24142,125.59565 c -12.87594,0 -23.24141,10.36548 -23.24141,23.24141 l 0,131.2722 0,132.8163 0,7.98465 c 0,6.5428 5.26673,11.80952 11.80953,11.80952 l 446.37906,0 c 6.5428,0 11.81139,-5.26672 11.81139,-11.80952 l 0,-140.80095 -0.002,0 0,-131.2722 c 0,-12.87593 -10.36547,-23.24141 -23.24141,-23.24141 l -423.51531,0 z"
     id="rect2982"
     inkscape:connector-curvature="0" />
  <path
     style="fill:#ffffff;fill-opacity:1;stroke-width:4.75928068"
     inkscape:connector-curvature="0"
     d="m 256,218.7006 c -22.82986,0 -35.40878,13.18429 -41.16211,25.86866 -3.98278,8.78084 -5.05465,17.25055 -5.41992,21.79942 C 193.09205,270.39447 181,284.96802 181,302.41043 c 0,20.54703 16.78933,37.20434 37.5,37.20434 l 0,-69.75817 c 0,0 0.0403,-10.79507 4.83398,-21.36345 4.79355,-10.5679 13.30838,-20.49146 32.66602,-20.49146 19.35765,0 27.87247,9.92356 32.66602,20.49146 4.79354,10.56838 4.83398,21.36345 4.83398,21.36345 l 0,69.75817 c 20.71068,0 37.5,-16.65732 37.5,-37.20434 0,-17.44241 -12.09205,-32.01596 -28.41797,-36.04174 -0.3653,-4.54888 -1.43723,-13.01858 -5.41992,-21.79942 C 291.40878,231.8849 278.82986,218.7006 256,218.7006 Z"
     id="path3767-6" />
</svg>
