<?xml version="1.0" encoding="UTF-8" standalone="no"?>
<!-- Created with Inkscape (http://www.inkscape.org/) -->

<svg
   xmlns:dc="http://purl.org/dc/elements/1.1/"
   xmlns:cc="http://creativecommons.org/ns#"
   xmlns:rdf="http://www.w3.org/1999/02/22-rdf-syntax-ns#"
   xmlns:svg="http://www.w3.org/2000/svg"
   xmlns="http://www.w3.org/2000/svg"
   xmlns:sodipodi="http://sodipodi.sourceforge.net/DTD/sodipodi-0.dtd"
   xmlns:inkscape="http://www.inkscape.org/namespaces/inkscape"
   id="svg2"
   version="1.1"
   inkscape:version="0.91 r13725"
   width="512"
   height="512"
   sodipodi:docname="folder-documents.svg"
   viewBox="0 0 512 512">
  <metadata
     id="metadata8">
    <rdf:RDF>
      <cc:Work
         rdf:about="">
        <dc:format>image/svg+xml</dc:format>
        <dc:type
           rdf:resource="http://purl.org/dc/dcmitype/StillImage" />
        <dc:title />
      </cc:Work>
    </rdf:RDF>
  </metadata>
  <defs
     id="defs6" />
  <sodipodi:namedview
     pagecolor="#ffffff"
     bordercolor="#666666"
     borderopacity="1"
     objecttolerance="10"
     gridtolerance="10"
     guidetolerance="10"
     inkscape:pageopacity="0"
     inkscape:pageshadow="2"
     inkscape:window-width="1366"
     inkscape:window-height="694"
     id="namedview4"
     showgrid="false"
     showguides="true"
     inkscape:guide-bbox="true"
     inkscape:zoom="0.65059336"
     inkscape:cx="113.48226"
     inkscape:cy="204.65477"
     inkscape:window-x="-4"
     inkscape:window-y="0"
     inkscape:window-maximized="1"
     inkscape:current-layer="svg2"
     inkscape:document-units="px" />
  <path
     style="fill:#107662;fill-opacity:1;fill-rule:evenodd;stroke:#000000;stroke-width:0;stroke-linecap:butt;stroke-linejoin:miter;stroke-miterlimit:4;stroke-dasharray:none;stroke-opacity:1"
     d="m 36.43351,79.280266 c -8.54981,0 -15.4335,6.88183 -15.4335,15.43164 l 0,40.790144 0,131.2722 0,132.81628 0,7.98465 c 0,6.5428 5.26673,11.80953 11.80953,11.80953 l 446.37906,0 c 6.5428,0 11.81139,-5.26673 11.81139,-11.80953 l 0,-140.80093 -0.002,0 0,-131.2722 c 0,-12.87594 -10.36547,-23.24141 -23.24141,-23.24141 l -239.27304,0 c -6.3555,0 -8.86637,-0.74873 -12.93638,-4.57733 L 191.54239,83.895806 c -0.0817,-0.0833 -0.1657,-0.16418 -0.24929,-0.24556 l -0.0484,-0.0465 -0.002,0.002 c -2.77262,-2.67603 -6.54334,-4.32533 -10.71936,-4.32533 z"
     id="rect2982-2"
     inkscape:connector-curvature="0"
     sodipodi:nodetypes="sscccssssccssccccccss" />
  <path
     style="fill:#16a085;fill-opacity:1;fill-rule:evenodd;stroke:#000000;stroke-width:0;stroke-linecap:butt;stroke-linejoin:miter;stroke-miterlimit:4;stroke-dasharray:none;stroke-opacity:1"
     d="m 44.24142,125.59566 c -12.87594,0 -23.24141,10.36548 -23.24141,23.24141 l 0,131.2722 0,132.81629 0,7.98465 c 0,6.5428 5.26673,11.80952 11.80953,11.80952 l 446.37906,0 c 6.5428,0 11.81139,-5.26672 11.81139,-11.80952 l 0,-140.80094 -0.002,0 0,-131.2722 c 0,-12.87593 -10.36547,-23.24141 -23.24141,-23.24141 l -423.51531,0 z"
     id="rect2982-1"
     inkscape:connector-curvature="0" />
  <g
     transform="matrix(10.714286,0,0,10.714286,138.14285,-117.27089)"
     id="g4196"
     style="fill:#ffffff">
    <g
       transform="translate(-1,-1)"
       id="g4177"
       style="fill:#ffffff">
      <g
         id="g4171"
         transform="translate(1,1)"
         style="fill:#ffffff">
        <rect
           y="30"
           x="4"
           height="1"
           width="12"
           id="rect3352"
           style="fill:#ffffff;fill-opacity:1;fill-rule:evenodd;stroke:none;stroke-width:1px;stroke-linecap:butt;stroke-linejoin:miter;stroke-opacity:1" />
        <rect
           transform="matrix(0,1,-1,0,0,0)"
           style="fill:#ffffff;fill-opacity:1;fill-rule:evenodd;stroke:none;stroke-width:1px;stroke-linecap:butt;stroke-linejoin:miter;stroke-opacity:1"
           id="rect4154"
           width="12"
           height="1"
           x="30"
           y="-5" />
        <rect
           style="fill:#ffffff;fill-opacity:1;fill-rule:evenodd;stroke:none;stroke-width:1px;stroke-linecap:butt;stroke-linejoin:miter;stroke-opacity:1"
           id="rect4165"
           width="12"
           height="1"
           x="4"
           y="41" />
        <rect
           y="-16"
           x="30"
           height="1"
           width="12"
           id="rect4176"
           style="fill:#ffffff;fill-opacity:1;fill-rule:evenodd;stroke:none;stroke-width:1px;stroke-linecap:butt;stroke-linejoin:miter;stroke-opacity:1"
           transform="matrix(0,1,-1,0,0,0)" />
      </g>
      <g
         id="g4166"
         transform="translate(1,0.5)"
         style="fill:#ffffff">
        <rect
           y="33"
           x="6.5"
           height="1"
           width="7"
           id="rect4178"
           style="fill:#ffffff;fill-opacity:1;stroke:none" />
        <rect
           style="fill:#ffffff;fill-opacity:1;stroke:none"
           id="rect4180"
           width="7"
           height="1"
           x="6.5"
           y="39" />
        <rect
           style="fill:#ffffff;fill-opacity:1;stroke:none"
           id="rect4182"
           width="7"
           height="1"
           x="6.5"
           y="36" />
      </g>
    </g>
    <rect
       y="41"
       x="6"
       height="3"
       width="1"
       id="rect4188"
       style="fill:#ffffff;fill-opacity:1;fill-rule:evenodd;stroke:none;stroke-width:1px;stroke-linecap:butt;stroke-linejoin:miter;stroke-opacity:1" />
    <rect
       transform="matrix(0,1,-1,0,0,0)"
       style="fill:#ffffff;fill-opacity:1;fill-rule:evenodd;stroke:none;stroke-width:1px;stroke-linecap:butt;stroke-linejoin:miter;stroke-opacity:1"
       id="rect4190"
       width="1"
       height="12"
       x="43"
       y="-18" />
    <rect
       y="-44"
       x="-18"
       height="12"
       width="1"
       id="rect4192"
       style="fill:#ffffff;fill-opacity:1;fill-rule:evenodd;stroke:none;stroke-width:1px;stroke-linecap:butt;stroke-linejoin:miter;stroke-opacity:1"
       transform="scale(-1,-1)" />
    <rect
       y="32"
       x="15"
       height="1"
       width="3"
       id="rect4194"
       style="fill:#ffffff;fill-opacity:1;stroke:none" />
  </g>
</svg>
