<?xml version="1.0" encoding="UTF-8" standalone="no"?>
<!-- Created with Inkscape (http://www.inkscape.org/) -->

<svg
   xmlns:dc="http://purl.org/dc/elements/1.1/"
   xmlns:cc="http://creativecommons.org/ns#"
   xmlns:rdf="http://www.w3.org/1999/02/22-rdf-syntax-ns#"
   xmlns:svg="http://www.w3.org/2000/svg"
   xmlns="http://www.w3.org/2000/svg"
   xmlns:sodipodi="http://sodipodi.sourceforge.net/DTD/sodipodi-0.dtd"
   xmlns:inkscape="http://www.inkscape.org/namespaces/inkscape"
   id="svg2"
   version="1.1"
   inkscape:version="0.91 r13725"
   width="512"
   height="512"
   sodipodi:docname="folder-important.svg"
   viewBox="0 0 512 512">
  <metadata
     id="metadata8">
    <rdf:RDF>
      <cc:Work
         rdf:about="">
        <dc:format>image/svg+xml</dc:format>
        <dc:type
           rdf:resource="http://purl.org/dc/dcmitype/StillImage" />
        <dc:title></dc:title>
      </cc:Work>
    </rdf:RDF>
  </metadata>
  <defs
     id="defs6" />
  <sodipodi:namedview
     pagecolor="#ffffff"
     bordercolor="#666666"
     borderopacity="1"
     objecttolerance="10"
     gridtolerance="10"
     guidetolerance="10"
     inkscape:pageopacity="0"
     inkscape:pageshadow="2"
     inkscape:window-width="1366"
     inkscape:window-height="694"
     id="namedview4"
     showgrid="false"
     showguides="true"
     inkscape:guide-bbox="true"
     inkscape:zoom="0.32529668"
     inkscape:cx="-479.06206"
     inkscape:cy="103.42148"
     inkscape:window-x="-4"
     inkscape:window-y="0"
     inkscape:window-maximized="1"
     inkscape:current-layer="svg2"
     inkscape:document-units="px" />
  <path
     style="fill:#107662;fill-opacity:1;fill-rule:evenodd;stroke:#000000;stroke-width:0;stroke-linecap:butt;stroke-linejoin:miter;stroke-miterlimit:4;stroke-dasharray:none;stroke-opacity:1"
     d="m 36.433505,79.280265 c -8.54981,0 -15.4335,6.88183 -15.4335,15.43164 l 0,40.790135 0,131.2722 0,132.81629 0,7.98465 c 0,6.5428 5.26673,11.80953 11.80953,11.80953 l 446.379065,0 c 6.5428,0 11.81139,-5.26673 11.81139,-11.80953 l 0,-140.80094 -0.002,0 0,-131.2722 c 0,-12.87594 -10.36546,-23.24141 -23.2414,-23.24141 l -239.27305,0 c -6.3555,0 -8.86637,-0.74873 -12.93638,-4.57732 L 191.54239,83.895805 c -0.0817,-0.0833 -0.1657,-0.16418 -0.24928,-0.24556 l -0.0484,-0.0465 -0.002,0.002 c -2.77262,-2.67603 -6.54334,-4.32533 -10.71936,-4.32533 z"
     id="rect2982-2"
     inkscape:connector-curvature="0"
     sodipodi:nodetypes="sscccssssccssccccccss" />
  <path
     style="fill:#16a085;fill-opacity:1;fill-rule:evenodd;stroke:#000000;stroke-width:0;stroke-linecap:butt;stroke-linejoin:miter;stroke-miterlimit:4;stroke-dasharray:none;stroke-opacity:1"
     d="m 44.241415,125.59565 c -12.87594,0 -23.24141,10.36549 -23.24141,23.24141 l 0,131.2722 0,132.8163 0,7.98465 c 0,6.5428 5.26673,11.80952 11.80953,11.80952 l 446.379065,0 c 6.5428,0 11.81139,-5.26672 11.81139,-11.80952 l 0,-140.80095 -0.002,0 0,-131.2722 c 0,-12.87593 -10.36546,-23.24141 -23.2414,-23.24141 l -423.515325,0 z"
     id="rect2982"
     inkscape:connector-curvature="0" />
  <g
     transform="matrix(12.5,0,0,12.5,118.5,-183.34231)"
     id="g4165"
     style="fill:#ffffff">
    <g
       transform="translate(-1.25,-1003.4845)"
       id="g4148"
       style="fill:#ffffff;fill-opacity:1">
      <g
         style="fill:#ffffff;fill-opacity:1"
         transform="matrix(0.44029588,0,0,0.28111603,-9.7643537,1026.3064)"
         id="g5">
        <path
           style="fill:#ffffff;fill-opacity:1"
           inkscape:connector-curvature="0"
           d="m 47.982,36.647 c 0.542,-0.583 1.262,-0.876 2.151,-0.876 1.076,0 1.797,0.375 2.16,1.119 0.365,0.746 0.544,1.82 0.544,3.224 0,0.828 -0.042,1.666 -0.132,2.52 L 51.9,51.898 c -0.088,1.104 -0.277,1.949 -0.563,2.538 -0.292,0.59 -0.764,0.886 -1.427,0.886 -0.681,0 -1.148,-0.287 -1.413,-0.858 -0.264,-0.569 -0.451,-1.438 -0.563,-2.604 L 47.33,42.859 c -0.112,-1.755 -0.169,-3.014 -0.169,-3.778 10e-4,-1.04 0.273,-1.852 0.821,-2.434 z"
           id="path7" />
      </g>
      <circle
         style="fill:#ffffff;fill-opacity:1;stroke:none"
         id="path4146"
         cx="12.232786"
         cy="1043.6068"
         r="1" />
    </g>
    <path
       inkscape:connector-curvature="0"
       id="path4369"
       transform="translate(3,29)"
       d="M 8,2 A 6,6 0 0 0 2,8 6,6 0 0 0 8,14 6,6 0 0 0 14,8 6,6 0 0 0 8,2 Z M 8,3 A 5,5 0 0 1 13,8 5,5 0 0 1 8,13 5,5 0 0 1 3,8 5,5 0 0 1 8,3 Z"
       style="fill:#ffffff;fill-opacity:1;stroke:none" />
  </g>
</svg>
