<?xml version="1.0" encoding="UTF-8" standalone="no"?>
<!-- Created with Inkscape (http://www.inkscape.org/) -->

<svg
   xmlns:dc="http://purl.org/dc/elements/1.1/"
   xmlns:cc="http://creativecommons.org/ns#"
   xmlns:rdf="http://www.w3.org/1999/02/22-rdf-syntax-ns#"
   xmlns:svg="http://www.w3.org/2000/svg"
   xmlns="http://www.w3.org/2000/svg"
   xmlns:sodipodi="http://sodipodi.sourceforge.net/DTD/sodipodi-0.dtd"
   xmlns:inkscape="http://www.inkscape.org/namespaces/inkscape"
   id="svg2"
   version="1.1"
   inkscape:version="0.91 r13725"
   width="512"
   height="512"
   sodipodi:docname="folder-documents.svg"
   viewBox="0 0 512 512">
  <metadata
     id="metadata8">
    <rdf:RDF>
      <cc:Work
         rdf:about="">
        <dc:format>image/svg+xml</dc:format>
        <dc:type
           rdf:resource="http://purl.org/dc/dcmitype/StillImage" />
        <dc:title />
      </cc:Work>
    </rdf:RDF>
  </metadata>
  <defs
     id="defs6" />
  <sodipodi:namedview
     pagecolor="#ffffff"
     bordercolor="#666666"
     borderopacity="1"
     objecttolerance="10"
     gridtolerance="10"
     guidetolerance="10"
     inkscape:pageopacity="0"
     inkscape:pageshadow="2"
     inkscape:window-width="1366"
     inkscape:window-height="695"
     id="namedview4"
     showgrid="false"
     showguides="true"
     inkscape:guide-bbox="true"
     inkscape:zoom="0.65059336"
     inkscape:cx="3.5819157"
     inkscape:cy="227.9844"
     inkscape:window-x="-4"
     inkscape:window-y="0"
     inkscape:window-maximized="1"
     inkscape:current-layer="svg2"
     inkscape:document-units="px" />
  <path
     style="fill:#107662;fill-opacity:1;fill-rule:evenodd;stroke:#000000;stroke-width:0;stroke-linecap:butt;stroke-linejoin:miter;stroke-miterlimit:4;stroke-dasharray:none;stroke-opacity:1"
     d="m 36.43351,79.280266 c -8.54981,0 -15.4335,6.88183 -15.4335,15.43164 l 0,40.790144 0,131.2722 0,132.81628 0,7.98465 c 0,6.5428 5.26673,11.80953 11.80953,11.80953 l 446.37906,0 c 6.5428,0 11.81139,-5.26673 11.81139,-11.80953 l 0,-140.80093 -0.002,0 0,-131.2722 c 0,-12.87594 -10.36547,-23.24141 -23.24141,-23.24141 l -239.27304,0 c -6.3555,0 -8.86637,-0.74873 -12.93638,-4.57733 L 191.54239,83.895806 c -0.0817,-0.0833 -0.1657,-0.16418 -0.24929,-0.24556 l -0.0484,-0.0465 -0.002,0.002 c -2.77262,-2.67603 -6.54334,-4.32533 -10.71936,-4.32533 z"
     id="rect2982-2"
     inkscape:connector-curvature="0"
     sodipodi:nodetypes="sscccssssccssccccccss" />
  <path
     style="fill:#16a085;fill-opacity:1;fill-rule:evenodd;stroke:#000000;stroke-width:0;stroke-linecap:butt;stroke-linejoin:miter;stroke-miterlimit:4;stroke-dasharray:none;stroke-opacity:1"
     d="m 44.24142,125.59566 c -12.87594,0 -23.24141,10.36548 -23.24141,23.24141 l 0,131.2722 0,132.81629 0,7.98465 c 0,6.5428 5.26673,11.80952 11.80953,11.80952 l 446.37906,0 c 6.5428,0 11.81139,-5.26672 11.81139,-11.80952 l 0,-140.80094 -0.002,0 0,-131.2722 c 0,-12.87593 -10.36547,-23.24141 -23.24141,-23.24141 l -423.51531,0 z"
     id="rect2982-1"
     inkscape:connector-curvature="0" />
  <g
     id="g4220"
     transform="matrix(1.3569608,0,0,1.3569608,-91.381972,-68.224263)">
    <path
       sodipodi:nodetypes="ssssssccsccccccc"
       inkscape:connector-curvature="0"
       id="rect2991"
       d="m 211.90719,182.3059 c -12.21371,0 -22.0464,8.21689 -22.0464,18.42352 l 0,110.54115 c 0,10.20663 9.83269,18.42352 22.0464,18.42352 l 88.18563,0 c 12.2137,0 22.0464,-8.21689 22.0464,-18.42352 l 0,-82.90586 -55.11601,-46.05881 z m 0,18.42352 66.13922,0 11.0232,9.21177 11.02321,9.21176 0,92.11762 -88.18563,0 z"
       style="fill:#ffffff;fill-opacity:1;stroke:none;stroke-width:10.07686043" />
    <path
       sodipodi:nodetypes="cccc"
       inkscape:connector-curvature="0"
       id="path2997"
       d="m 264.48237,182.3059 0,46.05881 55.11601,0 z"
       style="fill:#ffffff;fill-opacity:1;stroke:none;stroke-width:10.07686043" />
    <rect
       ry="2.3029406"
       rx="2.7558007"
       y="246.78824"
       x="222.93039"
       height="9.2117624"
       width="44.092812"
       id="rect3767"
       style="fill:#ffffff;fill-opacity:1;stroke:none;stroke-width:10.07686043" />
    <rect
       style="fill:#ffffff;fill-opacity:1;stroke:none;stroke-width:10.07686043"
       id="rect3771"
       width="66.139221"
       height="9.2117624"
       x="222.93039"
       y="265.21176"
       rx="2.7558007"
       ry="2.3029406" />
    <rect
       ry="2.3029406"
       rx="2.7558007"
       y="283.63528"
       x="222.93039"
       height="9.2117624"
       width="66.139221"
       id="rect3775"
       style="fill:#ffffff;fill-opacity:1;stroke:none;stroke-width:10.07686043" />
  </g>
</svg>
