<?xml version="1.0" encoding="UTF-8" standalone="no"?>
<!-- Created with Inkscape (http://www.inkscape.org/) -->

<svg
   xmlns:dc="http://purl.org/dc/elements/1.1/"
   xmlns:cc="http://creativecommons.org/ns#"
   xmlns:rdf="http://www.w3.org/1999/02/22-rdf-syntax-ns#"
   xmlns:svg="http://www.w3.org/2000/svg"
   xmlns="http://www.w3.org/2000/svg"
   xmlns:sodipodi="http://sodipodi.sourceforge.net/DTD/sodipodi-0.dtd"
   xmlns:inkscape="http://www.inkscape.org/namespaces/inkscape"
   id="svg2"
   version="1.1"
   inkscape:version="0.91 r13725"
   width="512"
   height="512"
   sodipodi:docname="folder-public.svg"
   viewBox="0 0 512 512">
  <metadata
     id="metadata8">
    <rdf:RDF>
      <cc:Work
         rdf:about="">
        <dc:format>image/svg+xml</dc:format>
        <dc:type
           rdf:resource="http://purl.org/dc/dcmitype/StillImage" />
        <dc:title />
      </cc:Work>
    </rdf:RDF>
  </metadata>
  <defs
     id="defs6" />
  <sodipodi:namedview
     pagecolor="#ffffff"
     bordercolor="#666666"
     borderopacity="1"
     objecttolerance="10"
     gridtolerance="10"
     guidetolerance="10"
     inkscape:pageopacity="0"
     inkscape:pageshadow="2"
     inkscape:window-width="1366"
     inkscape:window-height="695"
     id="namedview4"
     showgrid="false"
     showguides="true"
     inkscape:guide-bbox="true"
     inkscape:zoom="0.46003898"
     inkscape:cx="331.30286"
     inkscape:cy="214.85291"
     inkscape:window-x="-4"
     inkscape:window-y="0"
     inkscape:window-maximized="1"
     inkscape:current-layer="svg2"
     inkscape:document-units="px" />
  <path
     style="fill:#107662;fill-opacity:1;fill-rule:evenodd;stroke:#000000;stroke-width:0;stroke-linecap:butt;stroke-linejoin:miter;stroke-miterlimit:4;stroke-dasharray:none;stroke-opacity:1"
     d="m 36.433505,79.280265 c -8.54981,0 -15.4335,6.88183 -15.4335,15.43164 l 0,40.790135 0,131.2722 0,132.81629 0,7.98465 c 0,6.5428 5.26673,11.80953 11.80953,11.80953 l 446.379065,0 c 6.5428,0 11.81139,-5.26673 11.81139,-11.80953 l 0,-140.80094 -0.002,0 0,-131.2722 c 0,-12.87594 -10.36546,-23.24141 -23.2414,-23.24141 l -239.27305,0 c -6.3555,0 -8.86637,-0.74873 -12.93638,-4.57732 L 191.54239,83.895805 c -0.0817,-0.0833 -0.1657,-0.16418 -0.24928,-0.24556 l -0.0484,-0.0465 -0.002,0.002 c -2.77262,-2.67603 -6.54334,-4.32533 -10.71936,-4.32533 z"
     id="rect2982-2"
     inkscape:connector-curvature="0"
     sodipodi:nodetypes="sscccssssccssccccccss" />
  <path
     style="fill:#16a085;fill-opacity:1;fill-rule:evenodd;stroke:#000000;stroke-width:0;stroke-linecap:butt;stroke-linejoin:miter;stroke-miterlimit:4;stroke-dasharray:none;stroke-opacity:1"
     d="m 44.241415,125.59565 c -12.87594,0 -23.24141,10.36549 -23.24141,23.24141 l 0,131.2722 0,132.8163 0,7.98465 c 0,6.5428 5.26673,11.80952 11.80953,11.80952 l 446.379065,0 c 6.5428,0 11.81139,-5.26672 11.81139,-11.80952 l 0,-140.80095 -0.002,0 0,-131.2722 c 0,-12.87593 -10.36546,-23.24141 -23.2414,-23.24141 l -423.515325,0 z"
     id="rect2982"
     inkscape:connector-curvature="0" />
  <path
     style="fill:#ffffff"
     d="m 243.49207,378.59112 c -15.20373,-1.88265 -29.93295,-7.33045 -42.61314,-15.76104 -19.69149,-13.09215 -34.0239,-32.25093 -40.76602,-54.49379 -1.57088,-5.18249 -3.16484,-13.01444 -3.72515,-18.30356 -0.51702,-4.88044 -0.51702,-16.83156 0,-21.712 4.19611,-39.60996 32.2245,-73.43868 70.44563,-85.02403 5.18249,-1.57088 13.01444,-3.16485 18.30355,-3.72515 4.88044,-0.51702 16.83157,-0.51702 21.71201,0 23.11985,2.44922 44.58242,12.97009 61.04573,29.92439 11.32482,11.66257 19.33282,25.19538 23.9783,40.52123 2.88553,9.51963 4.12702,18.29142 4.12702,29.15956 0,8.16839 -0.40935,12.64768 -1.8017,19.71499 -7.08268,35.95036 -33.87384,65.50395 -69.04579,76.16504 -5.18249,1.57088 -13.01445,3.16485 -18.30356,3.72516 -5.11997,0.54239 -18.30576,0.43468 -23.35688,-0.1908 z m -48.24559,-33.41815 c 2.41393,-1.64819 9.95131,-5.2283 17.35241,-8.24205 13.65253,-5.55934 18.32185,-8.1429 21.24951,-11.75744 2.59346,-3.20193 2.64698,-3.4427 2.69596,-12.12646 l 0.0445,-7.89189 -2.03399,-2.67934 c -3.22183,-4.24403 -5.5887,-9.49393 -6.67665,-14.80929 -0.41809,-2.04263 -0.60237,-2.3252 -1.97203,-3.02395 -3.29386,-1.6804 -5.26731,-6.24052 -5.26731,-12.17135 0,-3.66463 0.0391,-3.83115 1.32993,-5.66377 1.3196,-1.87349 1.3263,-1.90481 0.86237,-4.03742 -3.36135,-15.45191 -3.33409,-27.07658 0.0839,-35.77435 4.70437,-11.9713 15.95473,-18.21379 32.88256,-18.24555 8.68246,-0.0163 13.52524,1.49474 17.18871,5.36318 1.21657,1.28463 1.95191,1.71186 3.32055,1.92921 0.96687,0.15354 3.03057,0.89116 4.58601,1.63914 5.61243,2.69891 9.50596,8.28547 10.86774,15.59342 1.46399,7.85645 0.46364,19.36608 -2.61497,30.08657 -0.42737,1.48821 -0.38232,1.66581 0.87539,3.45143 1.28619,1.82605 1.32595,1.99573 1.32595,5.65814 0,5.92133 -1.9738,10.49113 -5.2542,12.16466 -1.42101,0.72495 -1.53198,0.91988 -2.16625,3.80526 -1.21302,5.51821 -4.36077,12.16182 -7.11817,15.02357 l -1.38247,1.43478 0.16731,7.94088 c 0.16552,7.85599 0.17927,7.96285 1.28617,9.99603 2.40935,4.42553 6.93865,7.56157 16.83696,11.65772 12.94199,5.35569 17.85327,7.57274 21.08769,9.51937 2.22351,1.33822 3.5836,1.92833 4.08072,1.77055 0.99421,-0.31555 7.24674,-7.27432 10.75925,-11.97453 8.95921,-11.98864 14.84924,-26.24745 17.24247,-41.74122 0.96753,-6.26383 0.96418,-19.55717 -0.007,-25.78307 -1.55675,-9.98507 -4.42158,-19.12172 -8.68909,-27.71171 -13.54079,-27.25602 -38.70382,-45.51253 -69.3064,-50.28379 -6.25133,-0.97464 -19.53174,-0.97464 -25.78307,0 -9.98507,1.55678 -19.12171,4.42161 -27.7117,8.68911 -27.25603,13.54078 -45.51253,38.70381 -50.28379,69.30639 -0.97465,6.25133 -0.97465,19.53173 0,25.78307 3.05701,19.60749 11.32999,36.4896 24.93476,50.88264 1.57404,1.66524 3.12558,3.02648 3.44786,3.02498 0.32229,-0.002 1.11336,-0.36281 1.75794,-0.80292 z"
     id="path2982"
     inkscape:connector-curvature="0" />
</svg>
