<?xml version="1.0" encoding="UTF-8" standalone="no"?>
<!-- Created with Inkscape (http://www.inkscape.org/) -->

<svg
   xmlns:dc="http://purl.org/dc/elements/1.1/"
   xmlns:cc="http://creativecommons.org/ns#"
   xmlns:rdf="http://www.w3.org/1999/02/22-rdf-syntax-ns#"
   xmlns:svg="http://www.w3.org/2000/svg"
   xmlns="http://www.w3.org/2000/svg"
   xmlns:sodipodi="http://sodipodi.sourceforge.net/DTD/sodipodi-0.dtd"
   xmlns:inkscape="http://www.inkscape.org/namespaces/inkscape"
   id="svg2"
   version="1.1"
   inkscape:version="0.91 r13725"
   width="512"
   height="512"
   sodipodi:docname="folder-activities.svg"
   viewBox="0 0 512 511.99999">
  <metadata
     id="metadata8">
    <rdf:RDF>
      <cc:Work
         rdf:about="">
        <dc:format>image/svg+xml</dc:format>
        <dc:type
           rdf:resource="http://purl.org/dc/dcmitype/StillImage" />
        <dc:title />
      </cc:Work>
    </rdf:RDF>
  </metadata>
  <defs
     id="defs6" />
  <sodipodi:namedview
     pagecolor="#ffffff"
     bordercolor="#666666"
     borderopacity="1"
     objecttolerance="10"
     gridtolerance="10"
     guidetolerance="10"
     inkscape:pageopacity="0"
     inkscape:pageshadow="2"
     inkscape:window-width="1366"
     inkscape:window-height="694"
     id="namedview4"
     showgrid="false"
     inkscape:zoom="0.921875"
     inkscape:cx="305.80057"
     inkscape:cy="343.63216"
     inkscape:window-x="-4"
     inkscape:window-y="0"
     inkscape:window-maximized="1"
     inkscape:current-layer="svg2"
     inkscape:document-units="px"
     fit-margin-top="0"
     fit-margin-left="0"
     fit-margin-right="0"
     fit-margin-bottom="0" />
  <path
     style="fill:#107662;fill-opacity:1;fill-rule:evenodd;stroke:#000000;stroke-width:0;stroke-linecap:butt;stroke-linejoin:miter;stroke-miterlimit:4;stroke-dasharray:none;stroke-opacity:1"
     d="m 36.433516,79.28027 c -8.549812,0 -15.433503,6.88183 -15.433503,15.43164 l 0,40.79013 0,131.2722 0,132.81629 0,7.98465 c 0,6.5428 5.266731,11.80953 11.809532,11.80953 l 446.379055,0 c 6.5428,0 11.81139,-5.26673 11.81139,-11.80953 l 0,-140.80094 -0.002,0 0,-131.2722 c 0,-12.87594 -10.36547,-23.24141 -23.24141,-23.24141 l -239.27304,0 c -6.3555,0 -8.86637,-0.74873 -12.93638,-4.57733 L 191.54239,83.89581 c -0.0817,-0.0833 -0.1657,-0.16418 -0.24929,-0.24557 l -0.0484,-0.0465 -0.002,0.002 c -2.77262,-2.67602 -6.54334,-4.32532 -10.71936,-4.32532 z"
     id="rect2982-2"
     inkscape:connector-curvature="0"
     sodipodi:nodetypes="sscccssssccssccccccss" />
  <path
     style="fill:#16a085;fill-opacity:1;fill-rule:evenodd;stroke:#000000;stroke-width:0;stroke-linecap:butt;stroke-linejoin:miter;stroke-miterlimit:4;stroke-dasharray:none;stroke-opacity:1"
     d="m 44.241424,125.59565 c -12.875937,0 -23.241411,10.36548 -23.241411,23.24141 l 0,131.2722 0,132.8163 0,7.98465 c 0,6.5428 5.266731,11.80952 11.809532,11.80952 l 446.379055,0 c 6.5428,0 11.81139,-5.26672 11.81139,-11.80952 l 0,-140.80095 -0.002,0 0,-131.2722 c 0,-12.87593 -10.36547,-23.24141 -23.24141,-23.24141 l -423.515304,0 z"
     id="rect2982"
     inkscape:connector-curvature="0" />
  <g
     id="g4146"
     transform="matrix(7.5000121,0,0,7.5000121,13468.224,-3495.7636)"
     style="fill:#ffffff">
    <ellipse
       id="path3023"
       style="color:#000000;display:inline;overflow:visible;visibility:visible;fill:#ffffff;fill-opacity:1;fill-rule:nonzero;stroke:none;stroke-width:1.39999998;stroke-linecap:butt;stroke-linejoin:miter;stroke-miterlimit:4;stroke-dasharray:none;stroke-opacity:1;marker:none;enable-background:accumulate"
       cx="-1769.1271"
       cy="502.82202"
       rx="2.4999926"
       ry="2.5" />
    <ellipse
       id="path3023-9"
       style="color:#000000;display:inline;overflow:visible;visibility:visible;fill:#ffffff;fill-opacity:1;fill-rule:nonzero;stroke:none;stroke-width:1.39999998;marker:none;enable-background:accumulate"
       cx="-1764.6271"
       cy="510.32202"
       rx="2.9999924"
       ry="3" />
    <ellipse
       id="path3023-7"
       style="color:#000000;display:inline;overflow:visible;visibility:visible;fill:#ffffff;fill-opacity:1;fill-rule:nonzero;stroke:none;stroke-width:1.39999998;marker:none;enable-background:accumulate"
       cx="-1767.1271"
       cy="494.82202"
       rx="1.5000025"
       ry="1.499995" />
    <path
       sodipodi:nodetypes="ccccccccc"
       inkscape:connector-curvature="0"
       id="path3818"
       d="m -1758.6271,493.32204 -2.8438,2.84374 4.375,4.375 -4.5312,5.15625 3,2.625 7,-8 0,0 -7,-6.99999 z"
       style="color:#000000;font-style:normal;font-variant:normal;font-weight:normal;font-stretch:normal;font-size:medium;line-height:normal;font-family:Sans;-inkscape-font-specification:Sans;text-indent:0;text-align:start;text-decoration:none;text-decoration-line:none;letter-spacing:normal;word-spacing:normal;text-transform:none;direction:ltr;block-progression:tb;writing-mode:lr-tb;baseline-shift:baseline;text-anchor:start;display:inline;overflow:visible;visibility:visible;fill:#ffffff;fill-opacity:1;stroke:none;stroke-width:8;marker:none;enable-background:accumulate" />
  </g>
</svg>
