<?xml version="1.0" encoding="UTF-8" standalone="no"?>
<svg
   xmlns:dc="http://purl.org/dc/elements/1.1/"
   xmlns:cc="http://creativecommons.org/ns#"
   xmlns:rdf="http://www.w3.org/1999/02/22-rdf-syntax-ns#"
   xmlns:svg="http://www.w3.org/2000/svg"
   xmlns="http://www.w3.org/2000/svg"
   xmlns:sodipodi="http://sodipodi.sourceforge.net/DTD/sodipodi-0.dtd"
   xmlns:inkscape="http://www.inkscape.org/namespaces/inkscape"
   version="1.1"
   id="svg2"
   viewBox="0 0 512 512.00002"
   height="512"
   width="512"
   inkscape:version="0.91+devel r14033 custom"
   sodipodi:docname="gnome-software.svg">
  <sodipodi:namedview
     pagecolor="#ffffff"
     bordercolor="#666666"
     borderopacity="1"
     objecttolerance="10"
     gridtolerance="10"
     guidetolerance="10"
     inkscape:pageopacity="0"
     inkscape:pageshadow="2"
     inkscape:window-width="1920"
     inkscape:window-height="1011"
     id="namedview9"
     showgrid="false"
     inkscape:zoom="0.5938592"
     inkscape:cx="159.35235"
     inkscape:cy="199.84657"
     inkscape:window-x="0"
     inkscape:window-y="27"
     inkscape:window-maximized="1"
     inkscape:current-layer="svg2" />
  <defs
     id="defs4" />
  <metadata
     id="metadata7">
    <rdf:RDF>
      <cc:Work
         rdf:about="">
        <dc:format>image/svg+xml</dc:format>
        <dc:type
           rdf:resource="http://purl.org/dc/dcmitype/StillImage" />
        <dc:title />
      </cc:Work>
    </rdf:RDF>
  </metadata>
  <path
     inkscape:connector-curvature="0"
     style="opacity:1;fill:#e7e7e7;fill-opacity:1;stroke:none;stroke-width:8.33333492;stroke-opacity:1"
     d="m 256.00001,49.99997 c -50.78336,0 -91.6667,2.88334 -91.6667,53.66668 l 0,41.66668 16.66668,0 0,-41.66668 c 0,-41.54975 33.45026,-39 75.00002,-39 41.54975,0 75.00002,-2.54975 75.00002,39 l 0,41.66668 16.66666,0 0,-41.66668 c 0,-50.78334 -40.88334,-53.66668 -91.66668,-53.66668 z"
     id="rect4179" />
  <rect
     style="opacity:1;fill:#e7e7e7;fill-opacity:1;stroke:none;stroke-width:8.33333492;stroke-opacity:1"
     id="rect4172"
     width="450.00009"
     height="349.99542"
     x="30.999954"
     y="112.00048" />
  <rect
     style="opacity:1;fill:#f9f9f9;fill-opacity:1;stroke:none;stroke-width:11.20417118;stroke-opacity:1"
     id="rect4221"
     width="450.00009"
     height="120.51106"
     x="30.999954"
     y="341.48898" />
  <path
     style="opacity:1;fill:#3ecdf6;fill-opacity:1;fill-rule:evenodd;stroke:none;stroke-width:12.78419781;stroke-linecap:butt;stroke-linejoin:round;stroke-miterlimit:4;stroke-dasharray:none;stroke-dashoffset:0;stroke-opacity:1"
     id="path3337"
     sodipodi:type="arc"
     sodipodi:cx="384.36697"
     sodipodi:cy="362.01996"
     sodipodi:rx="114.22962"
     sodipodi:ry="114.22962"
     sodipodi:start="0.34945506"
     sodipodi:end="0.34612148"
     sodipodi:open="true"
     d="M 491.69249,401.13057 A 114.22962,114.22962 0 0 1 345.34583,469.37803 114.22962,114.22962 0 0 1 276.97642,323.0883 114.22962,114.22962 0 0 1 423.20912,254.59699 114.22962,114.22962 0 0 1 491.82227,400.77257" />
  <g
     transform="matrix(0.90909511,0.89871976,-0.89871976,0.90909511,457.72825,165.56864)"
     style="font-style:normal;font-variant:normal;font-weight:bold;font-stretch:normal;font-size:136.07589722px;line-height:125%;font-family:'Droid Sans';-inkscape-font-specification:'Droid Sans, Bold';text-align:start;letter-spacing:0px;word-spacing:0px;writing-mode:lr-tb;text-anchor:start;fill:#000000;fill-opacity:1;stroke:none;stroke-width:3.40189743px;stroke-linecap:butt;stroke-linejoin:miter;stroke-opacity:1"
     id="text3339">
    <path
       d="m 107.0596,181.45131 -8.161221,8.16123 -45.834794,0 0,-16.89952 23.082265,0 -51.897333,-51.71608 14.014233,-14.01423 51.897332,51.71607 0,-23.08226 16.899518,0 z"
       style="fill:#ffffff;stroke-width:4.22075701px"
       id="path3344"
       inkscape:connector-curvature="0"
       sodipodi:nodetypes="ccccccccccc" />
  </g>
</svg>
