<?xml version="1.0" encoding="UTF-8" standalone="no"?>
<!-- Created with Inkscape (http://www.inkscape.org/) -->

<svg
   xmlns:dc="http://purl.org/dc/elements/1.1/"
   xmlns:cc="http://creativecommons.org/ns#"
   xmlns:rdf="http://www.w3.org/1999/02/22-rdf-syntax-ns#"
   xmlns:svg="http://www.w3.org/2000/svg"
   xmlns="http://www.w3.org/2000/svg"
   xmlns:xlink="http://www.w3.org/1999/xlink"
   xmlns:sodipodi="http://sodipodi.sourceforge.net/DTD/sodipodi-0.dtd"
   xmlns:inkscape="http://www.inkscape.org/namespaces/inkscape"
   version="1.0"
   width="96"
   height="96"
   id="svg2408"
   style="display:inline"
   inkscape:version="0.91 r13725"
   sodipodi:docname="preferences-desktop.svg">
  <sodipodi:namedview
     pagecolor="#ffffff"
     bordercolor="#666666"
     borderopacity="1"
     objecttolerance="10"
     gridtolerance="10"
     guidetolerance="10"
     inkscape:pageopacity="0"
     inkscape:pageshadow="2"
     inkscape:window-width="1366"
     inkscape:window-height="701"
     id="namedview105"
     showgrid="false"
     inkscape:zoom="3.9850806"
     inkscape:cx="10.52132"
     inkscape:cy="47.699473"
     inkscape:window-x="-4"
     inkscape:window-y="0"
     inkscape:window-maximized="1"
     inkscape:current-layer="svg2408" />
  <defs
     id="defs2410">
    <linearGradient
       inkscape:collect="always"
       id="linearGradient3866">
      <stop
         style="stop-color:#81a4cf;stop-opacity:1;"
         offset="0"
         id="stop3868" />
      <stop
         style="stop-color:#81a4cf;stop-opacity:0;"
         offset="1"
         id="stop3870" />
    </linearGradient>
    <linearGradient
       id="linearGradient4042">
      <stop
         id="stop4044"
         style="stop-color:#000000;stop-opacity:1"
         offset="0" />
      <stop
         id="stop4046"
         style="stop-color:#000000;stop-opacity:0"
         offset="1" />
    </linearGradient>
    <linearGradient
       id="linearGradient4007">
      <stop
         id="stop4009"
         style="stop-color:#000000;stop-opacity:1"
         offset="0" />
      <stop
         id="stop4011"
         style="stop-color:#000000;stop-opacity:0"
         offset="1" />
    </linearGradient>
    <linearGradient
       x1="45.447727"
       y1="92.539597"
       x2="45.447727"
       y2="7.0165396"
       id="ButtonShadow"
       gradientUnits="userSpaceOnUse"
       gradientTransform="scale(1.0058652,0.994169)">
      <stop
         id="stop3750"
         style="stop-color:#000000;stop-opacity:1"
         offset="0" />
      <stop
         id="stop3752"
         style="stop-color:#000000;stop-opacity:0.58823532"
         offset="1" />
    </linearGradient>
    <linearGradient
       id="linearGradient3737">
      <stop
         id="stop3739"
         style="stop-color:#ffffff;stop-opacity:1"
         offset="0" />
      <stop
         id="stop3741"
         style="stop-color:#ffffff;stop-opacity:0"
         offset="1" />
    </linearGradient>
    <linearGradient
       id="linearGradient3700">
      <stop
         id="stop3702"
         style="stop-color:#ebebeb;stop-opacity:1"
         offset="0" />
      <stop
         id="stop3704"
         style="stop-color:#fafafa;stop-opacity:1"
         offset="1" />
    </linearGradient>
    <filter
       color-interpolation-filters="sRGB"
       id="filter3174">
      <feGaussianBlur
         id="feGaussianBlur3176"
         stdDeviation="1.71" />
    </filter>
    <linearGradient
       x1="36.357143"
       y1="6"
       x2="36.357143"
       y2="63.893143"
       id="linearGradient3188"
       xlink:href="#linearGradient3737"
       gradientUnits="userSpaceOnUse" />
    <linearGradient
       id="linearGradient3405">
      <stop
         id="stop3407"
         style="stop-color:#d0d0d0;stop-opacity:1"
         offset="0" />
      <stop
         id="stop3409"
         style="stop-color:#a1a1a1;stop-opacity:1"
         offset="1" />
    </linearGradient>
    <linearGradient
       id="linearGradient3553">
      <stop
         id="stop3555"
         style="stop-color:#5496b4;stop-opacity:0.78431374"
         offset="0" />
      <stop
         id="stop3557"
         style="stop-color:#dfecf2;stop-opacity:0.50196081"
         offset="1" />
    </linearGradient>
    <linearGradient
       id="linearGradient3192">
      <stop
         id="stop3194"
         style="stop-color:#404040;stop-opacity:1"
         offset="0" />
      <stop
         id="stop3200"
         style="stop-color:#b7b7b7;stop-opacity:1"
         offset="0.5" />
      <stop
         id="stop3196"
         style="stop-color:#404040;stop-opacity:1"
         offset="1" />
    </linearGradient>
    <filter
       color-interpolation-filters="sRGB"
       id="filter3274">
      <feGaussianBlur
         id="feGaussianBlur3276"
         stdDeviation="1.9857422" />
    </filter>
    <linearGradient
       id="linearGradient5452">
      <stop
         id="stop5454"
         style="stop-color:#ffffff;stop-opacity:1"
         offset="0" />
      <stop
         id="stop5456"
         style="stop-color:#ffffff;stop-opacity:0"
         offset="1" />
    </linearGradient>
    <linearGradient
       id="linearGradient3425">
      <stop
         id="stop3427"
         style="stop-color:#000000;stop-opacity:1"
         offset="0" />
      <stop
         id="stop3429"
         style="stop-color:#000000;stop-opacity:0"
         offset="1" />
    </linearGradient>
    <linearGradient
       id="linearGradient3363">
      <stop
         id="stop3365"
         style="stop-color:#000000;stop-opacity:1"
         offset="0" />
      <stop
         id="stop3377"
         style="stop-color:#646464;stop-opacity:1"
         offset="0.2" />
      <stop
         id="stop3371"
         style="stop-color:#c8c8c8;stop-opacity:1"
         offset="0.30000001" />
      <stop
         id="stop3373"
         style="stop-color:#646464;stop-opacity:1"
         offset="0.40000001" />
      <stop
         id="stop3367"
         style="stop-color:#000000;stop-opacity:1"
         offset="1" />
    </linearGradient>
    <filter
       x="-0.09372972"
       y="-0.16673079"
       width="1.1874593"
       height="1.3334616"
       color-interpolation-filters="sRGB"
       id="filter3439">
      <feGaussianBlur
         id="feGaussianBlur3441"
         stdDeviation="0.31930287" />
    </filter>
    <radialGradient
       cx="63.937504"
       cy="95.865532"
       r="20.6875"
       fx="63.937504"
       fy="95.865532"
       id="radialGradient3217"
       xlink:href="#linearGradient3405"
       gradientUnits="userSpaceOnUse"
       gradientTransform="matrix(0.1433207,-0.1433132,0.8374475,0.8374024,38.231607,-15.647539)" />
    <linearGradient
       x1="40.113346"
       y1="2.60251"
       x2="40.113346"
       y2="75.039833"
       id="linearGradient3219"
       xlink:href="#linearGradient3553"
       gradientUnits="userSpaceOnUse" />
    <linearGradient
       x1="12.75"
       y1="11.75"
       x2="63.25"
       y2="64"
       id="linearGradient3221"
       xlink:href="#linearGradient3192"
       gradientUnits="userSpaceOnUse" />
    <linearGradient
       x1="34.795921"
       y1="2.4125435"
       x2="26.033436"
       y2="49.632542"
       id="linearGradient3223"
       xlink:href="#linearGradient5452"
       gradientUnits="userSpaceOnUse"
       gradientTransform="matrix(0.9931034,0,0,0.9931034,0.512069,0.5103448)" />
    <linearGradient
       x1="124.34372"
       y1="42.893944"
       x2="10.007462"
       y2="21.098124"
       id="linearGradient3225"
       xlink:href="#linearGradient5452"
       gradientUnits="userSpaceOnUse" />
    <radialGradient
       cx="31.357048"
       cy="22.817865"
       r="7.3570485"
       fx="31.357048"
       fy="22.817865"
       id="radialGradient3227"
       xlink:href="#linearGradient5452"
       gradientUnits="userSpaceOnUse"
       gradientTransform="matrix(1.0000002,4.8290072e-8,-3.4809718e-8,0.7208464,-6.5191416e-6,6.3696886)" />
    <linearGradient
       x1="53.797203"
       y1="73.685364"
       x2="61.486988"
       y2="81.817085"
       id="linearGradient3229"
       xlink:href="#linearGradient3425"
       gradientUnits="userSpaceOnUse"
       gradientTransform="matrix(0.6875241,-0.6874876,0.6875241,0.6874876,23.861388,39.569248)" />
    <linearGradient
       x1="72"
       y1="129.125"
       x2="55.941025"
       y2="129.125"
       id="linearGradient3231"
       xlink:href="#linearGradient3363"
       gradientUnits="userSpaceOnUse"
       gradientTransform="matrix(0.97228013,0,0,0.97228013,-11.10833,44.852525)" />
    <linearGradient
       x1="64.414215"
       y1="87.40625"
       x2="64.414215"
       y2="75.81768"
       id="linearGradient3233"
       xlink:href="#linearGradient5452"
       gradientUnits="userSpaceOnUse"
       gradientTransform="matrix(0.6875241,-0.6874876,0.6875241,0.6874876,23.861388,39.569248)" />
    <linearGradient
       x1="22.221363"
       y1="14.907595"
       x2="83.446823"
       y2="78.167587"
       id="linearGradient4029"
       xlink:href="#linearGradient4007"
       gradientUnits="userSpaceOnUse"
       gradientTransform="matrix(0.99635096,-0.08535079,0.08535079,0.99635096,-0.3317144,16.320707)" />
    <linearGradient
       x1="22.221363"
       y1="14.907595"
       x2="83.446823"
       y2="78.167587"
       id="linearGradient4132"
       xlink:href="#linearGradient4007"
       gradientUnits="userSpaceOnUse"
       gradientTransform="matrix(0.99035174,0.13857643,-0.13857643,0.99035174,5.2104084,8.0650361)" />
    <linearGradient
       id="linearGradient3737-5">
      <stop
         id="stop3739-3"
         style="stop-color:#ffffff;stop-opacity:1"
         offset="0" />
      <stop
         id="stop3741-5"
         style="stop-color:#ffffff;stop-opacity:0"
         offset="1" />
    </linearGradient>
    <radialGradient
       cx="48"
       cy="90.171875"
       r="42"
       fx="48"
       fy="90.171875"
       id="radialGradient2858"
       xlink:href="#linearGradient3737-5"
       gradientUnits="userSpaceOnUse"
       gradientTransform="matrix(1.1573129,0,0,0.99590774,-7.551021,0.1971319)" />
    <linearGradient
       x1="45.447727"
       y1="92.539597"
       x2="45.447727"
       y2="7.0165396"
       id="ButtonShadow-0"
       gradientUnits="userSpaceOnUse"
       gradientTransform="matrix(1.0058652,0,0,0.994169,100,0)">
      <stop
         id="stop3750-8"
         style="stop-color:#000000;stop-opacity:1"
         offset="0" />
      <stop
         id="stop3752-5"
         style="stop-color:#000000;stop-opacity:0.58823532"
         offset="1" />
    </linearGradient>
    <linearGradient
       x1="32.251034"
       y1="6.1317081"
       x2="32.251034"
       y2="90.238609"
       id="linearGradient3780"
       xlink:href="#ButtonShadow-0"
       gradientUnits="userSpaceOnUse"
       gradientTransform="matrix(1.0238095,0,0,1.0119048,-1.1428571,-98.071429)" />
    <linearGradient
       x1="32.251034"
       y1="6.1317081"
       x2="32.251034"
       y2="90.238609"
       id="linearGradient3772"
       xlink:href="#ButtonShadow-0"
       gradientUnits="userSpaceOnUse"
       gradientTransform="matrix(1.0238095,0,0,1.0119048,-1.1428571,-98.071429)" />
    <linearGradient
       x1="32.251034"
       y1="6.1317081"
       x2="32.251034"
       y2="90.238609"
       id="linearGradient3721"
       xlink:href="#ButtonShadow-0"
       gradientUnits="userSpaceOnUse"
       gradientTransform="matrix(1,0,0,-1,0,97)" />
    <linearGradient
       x1="32.251034"
       y1="6.1317081"
       x2="32.251034"
       y2="90.238609"
       id="linearGradient2918"
       xlink:href="#ButtonShadow-0"
       gradientUnits="userSpaceOnUse"
       gradientTransform="matrix(1.0238095,0,0,1.0119048,-1.1428571,-98.071429)" />
    <linearGradient
       x1="48"
       y1="90"
       x2="48"
       y2="5.9877172"
       id="linearGradient3979"
       xlink:href="#linearGradient3700"
       gradientUnits="userSpaceOnUse" />
    <linearGradient
       x1="32.251034"
       y1="6.1317081"
       x2="32.251034"
       y2="90.238609"
       id="linearGradient3987"
       xlink:href="#ButtonShadow-0"
       gradientUnits="userSpaceOnUse"
       gradientTransform="matrix(1.0238095,0,0,-1.0119048,-1.1428571,98.071429)" />
    <linearGradient
       x1="40.543461"
       y1="83.183121"
       x2="40.543461"
       y2="-52.934109"
       id="linearGradient7949"
       xlink:href="#linearGradient4042"
       gradientUnits="userSpaceOnUse"
       gradientTransform="matrix(1.0642373,0,0,1.0642373,-1.0152197,-4.4276623)" />
    <linearGradient
       inkscape:collect="always"
       xlink:href="#linearGradient4042"
       id="linearGradient3070"
       gradientUnits="userSpaceOnUse"
       gradientTransform="matrix(1.0642373,0,0,1.0642373,-1.0152197,-4.4276623)"
       x1="40.543461"
       y1="83.183121"
       x2="40.543461"
       y2="-52.934109" />
    <radialGradient
       inkscape:collect="always"
       xlink:href="#linearGradient3866"
       id="radialGradient3872"
       cx="38"
       cy="37.75"
       fx="38"
       fy="37.75"
       r="38.173105"
       gradientUnits="userSpaceOnUse"
       gradientTransform="matrix(-0.64219139,-1.588017,1.7537562,-0.70929134,-3.8010231,124.87039)" />
    <radialGradient
       inkscape:collect="always"
       xlink:href="#linearGradient3866"
       id="radialGradient3876"
       gradientUnits="userSpaceOnUse"
       gradientTransform="matrix(0.16306876,-0.43055264,0.90039726,0.34105529,-2.1866081,41.236159)"
       cx="45.800728"
       cy="19.667021"
       fx="45.800728"
       fy="19.667021"
       r="38.173105" />
    <filter
       inkscape:collect="always"
       id="filter4111"
       x="-0.6774991"
       width="2.3549982"
       y="-0.65025973"
       height="2.3005195">
      <feGaussianBlur
         inkscape:collect="always"
         stdDeviation="2.9760431"
         id="feGaussianBlur4113" />
    </filter>
  </defs>
  <metadata
     id="metadata2413">
    <rdf:RDF>
      <cc:Work
         rdf:about="">
        <dc:format>image/svg+xml</dc:format>
        <dc:type
           rdf:resource="http://purl.org/dc/dcmitype/StillImage" />
        <dc:title />
      </cc:Work>
    </rdf:RDF>
  </metadata>
  <g
     id="layer2"
     style="display:none">
    <rect
       width="86"
       height="85"
       rx="6"
       ry="6"
       x="5"
       y="7"
       id="rect3745"
       style="opacity:0.9;fill:url(#ButtonShadow);fill-opacity:1;fill-rule:nonzero;stroke:none;filter:url(#filter3174)" />
  </g>
  <g
     id="g3943"
     transform="matrix(1.9457475,0,0,2.3373839,-93.50354,-115.91827)">
    <rect
       y="51.977917"
       x="50.959442"
       height="35.98143"
       width="43.999992"
       id="rect907"
       style="fill:#16a085;fill-opacity:1;stroke:none" />
    <rect
       style="fill:#37353a;fill-opacity:1;stroke:none"
       id="rect920"
       width="43.999981"
       height="4"
       x="50.959446"
       y="84.005974" />
    <rect
       style="fill:#f7f7f7;fill-opacity:1;stroke:none"
       id="rect827"
       width="1.3556478"
       height="1.0939896"
       x="85.782425"
       y="85.46138" />
    <rect
       style="fill:#d45500;fill-opacity:1;stroke:none"
       id="rect5248"
       width="1.6121296"
       height="1.6728451"
       x="57.880756"
       y="84.973007" />
    <rect
       y="84.973007"
       x="60.963356"
       height="1.6728451"
       width="1.6121296"
       id="rect5250"
       style="fill:#349ba3;fill-opacity:1;stroke:none" />
    <rect
       y="84.973007"
       x="54.983913"
       height="1.6728451"
       width="1.6121296"
       id="rect5252"
       style="fill:#cccccc;fill-opacity:1;stroke:none" />
    <rect
       style="fill:#008000;fill-opacity:1;stroke:none"
       id="rect5254"
       width="1.6121296"
       height="1.6728451"
       x="63.582558"
       y="84.973007" />
    <path
       id="path5692_2_"
       d="m 53.046892,84.755274 -0.383398,0.03705 0,1.585582 0.379623,-0.05726 0,-0.676166 0.510078,0.749845 0.400177,-0.127148 -0.522663,-0.720796 0.526858,-0.680378 -0.408566,-0.09431 -0.505884,0.680378 0.0038,-0.696798 z m -0.869566,0.386502 c -0.0043,4.35e-4 -0.0085,0.0026 -0.01175,0.0059 l -0.150591,0.151149 c -0.0063,0.0064 -0.0076,0.01628 -0.003,0.024 l 0.176178,0.29135 c -0.03127,0.05277 -0.05634,0.109658 -0.07424,0.169673 l -0.323413,0.06736 c -0.009,0.0019 -0.01552,0.01009 -0.01552,0.01937 l 0,0.21346 c 0,0.009 0.006,0.01684 0.01468,0.01895 l 0.314185,0.07705 c 0.01675,0.06951 0.04287,0.135637 0.07718,0.196199 l -0.182052,0.278297 c -0.005,0.0078 -0.004,0.01787 0.0025,0.02443 l 0.150591,0.151147 c 0.0063,0.0064 0.01619,0.0076 0.02391,0.0029 l 0.285241,-0.173461 c 0.05598,0.03242 0.116154,0.05764 0.179954,0.07494 l 0.06628,0.32082 c 0.0019,0.0091 0.01011,0.01558 0.01929,0.01558 l 0.213092,0 c 0.009,0 0.01674,-0.0059 0.01888,-0.01474 l 0.07802,-0.321662 c 0.06577,-0.01782 0.12807,-0.04442 0.185406,-0.07831 l 0.281047,0.184829 c 0.0077,0.0051 0.01777,0.0041 0.02433,-0.0026 l 0.150592,-0.151091 c 0.0064,-0.0064 0.0076,-0.01588 0.003,-0.02358 l -0.102771,-0.169673 -0.03314,0.01052 c -0.0049,0.0015 -0.01016,-4.35e-4 -0.013,-0.0047 0,0 -0.06531,-0.09615 -0.149752,-0.220195 -0.100948,0.198302 -0.306464,0.334294 -0.543636,0.334294 -0.336961,0 -0.609913,-0.274364 -0.609913,-0.612592 0,-0.248813 0.147648,-0.462846 0.359908,-0.558701 l 0,-0.157884 c -0.03864,0.01356 -0.07569,0.02987 -0.111161,0.04926 -3.2e-5,-2.7e-5 -3.2e-4,5.3e-5 -4.22e-4,0 L 52.1899,85.145025 c -0.0039,-0.0026 -0.0083,-0.0038 -0.01258,-0.0034 z"
       style="fill:#f7f7f7;fill-opacity:1;stroke:none"
       inkscape:connector-curvature="0" />
    <path
       style="font-size:9px;font-style:normal;font-variant:normal;font-weight:bold;font-stretch:normal;text-align:start;line-height:100%;writing-mode:lr-tb;text-anchor:start;fill:#f7f7f7;fill-opacity:1;stroke:none;display:inline;font-family:Liberation Sans;-inkscape-font-specification:Liberation Sans Bold"
       id="text3830"
       inkscape:connector-curvature="0"
       d="m 88.746559,86.577921 0,-0.195185 c 0.03915,-0.07007 0.08687,-0.133126 0.143151,-0.189182 0.05629,-0.05672 0.11501,-0.108435 0.176187,-0.155147 0.06199,-0.04738 0.123166,-0.09109 0.183527,-0.131125 0.06118,-0.04071 0.115826,-0.07974 0.163951,-0.117111 0.04894,-0.03803 0.0885,-0.07608 0.118681,-0.114109 0.03018,-0.03803 0.04527,-0.07841 0.04527,-0.121116 -3e-6,-0.06272 -0.01917,-0.109102 -0.05751,-0.139132 -0.03833,-0.03002 -0.09462,-0.04504 -0.168843,-0.04504 -0.07341,10e-7 -0.129694,0.01636 -0.168846,0.04904 -0.03834,0.03202 -0.06322,0.08041 -0.07464,0.145138 l -0.346255,-0.01601 c 0.0082,-0.05538 0.02488,-0.107435 0.05016,-0.156149 0.02528,-0.04872 0.06118,-0.09142 0.10767,-0.128121 0.04731,-0.0367 0.106038,-0.06539 0.176186,-0.08608 0.07096,-0.02135 0.155386,-0.03202 0.253268,-0.03202 0.09298,10e-7 0.17537,0.009 0.247151,0.02703 0.07178,0.01735 0.132137,0.04304 0.181081,0.07707 0.04894,0.03403 0.08605,0.07574 0.111339,0.125119 0.02528,0.04872 0.03793,0.104435 0.03793,0.167159 -3e-6,0.06607 -0.01591,0.125789 -0.04771,0.179172 -0.03182,0.05339 -0.0726,0.102765 -0.122351,0.148141 -0.04976,0.04471 -0.105223,0.08675 -0.1664,0.12612 -0.06036,0.03937 -0.119087,0.07774 -0.176185,0.11511 -0.0571,0.03737 -0.109302,0.07507 -0.15661,0.113108 -0.0465,0.03803 -0.08116,0.07874 -0.103999,0.122116 l 0.80018,0 0,0.23122 -1.206388,0" />
    <path
       style="font-size:9px;font-style:normal;font-variant:normal;font-weight:bold;font-stretch:normal;text-align:start;line-height:100%;writing-mode:lr-tb;text-anchor:start;fill:#f7f7f7;fill-opacity:1;stroke:none;display:inline;font-family:Liberation Sans;-inkscape-font-specification:Liberation Sans Bold"
       id="text3834"
       inkscape:connector-curvature="0"
       d="m 91.287214,86.172603 c 0,0.06285 -0.0118,0.119483 -0.0354,0.169895 -0.02287,0.04977 -0.05752,0.09231 -0.103982,0.127667 -0.04646,0.03536 -0.104352,0.06252 -0.173672,0.08151 -0.06858,0.01833 -0.148595,0.0275 -0.240041,0.0275 -0.10177,0 -0.187685,-0.01146 -0.257741,-0.03437 -0.06932,-0.02291 -0.126474,-0.05303 -0.171459,-0.09035 -0.04424,-0.03797 -0.0778,-0.08085 -0.100663,-0.128649 -0.02213,-0.04779 -0.0365,-0.09624 -0.04315,-0.145343 l 0.316371,-0.02455 c 0.0044,0.02946 0.01253,0.05663 0.02433,0.08151 0.01253,0.02423 0.02913,0.04517 0.04978,0.06285 0.02065,0.01768 0.04572,0.03143 0.07522,0.04125 0.03024,0.0091 0.06563,0.01375 0.106192,0.01375 0.07448,0 0.132376,-0.01637 0.173671,-0.0491 0.0413,-0.03273 0.06195,-0.08282 0.06195,-0.150254 -3e-6,-0.04124 -0.01,-0.07431 -0.02987,-0.09919 -0.01917,-0.02488 -0.04387,-0.04386 -0.07411,-0.05696 -0.0295,-0.01375 -0.06158,-0.02291 -0.09624,-0.0275 -0.03466,-0.0046 -0.06748,-0.007 -0.09845,-0.007 l -0.108403,0 0,-0.222927 0.10177,0 c 0.03097,1e-6 0.06231,-0.0025 0.09402,-0.0077 0.03244,-0.0052 0.06158,-0.01473 0.08739,-0.02848 0.02581,-0.01375 0.04683,-0.03273 0.06305,-0.05696 0.01622,-0.02488 0.02433,-0.0563 0.02433,-0.09428 0,-0.05696 -0.01806,-0.101481 -0.0542,-0.13356 -0.0354,-0.03273 -0.08739,-0.0491 -0.155971,-0.0491 -0.06416,10e-7 -0.116151,0.01571 -0.155973,0.04714 -0.03909,0.03143 -0.06158,0.07595 -0.06748,0.133559 l -0.310838,-0.01964 c 0.0088,-0.06481 0.02877,-0.121121 0.05973,-0.168916 0.03171,-0.04779 0.07116,-0.0874 0.118364,-0.118828 0.04794,-0.03143 0.102875,-0.05467 0.16482,-0.06972 0.06195,-0.01571 0.127582,-0.02357 0.196903,-0.02357 0.09144,3e-6 0.169983,0.0098 0.23562,0.02946 0.06563,0.01964 0.119465,0.04616 0.161502,0.07955 0.04204,0.03339 0.073,0.07235 0.09292,0.116865 0.01991,0.04452 0.02987,0.092 0.02987,0.142399 0,0.04059 -0.0067,0.07857 -0.01991,0.113918 -0.01328,0.0347 -0.03355,0.06613 -0.06084,0.09428 -0.02655,0.0275 -0.06084,0.05139 -0.102874,0.07169 -0.04204,0.01964 -0.09182,0.03437 -0.149336,0.04419 l 0,0.0039 c 0.06415,0.0065 0.119838,0.01964 0.167034,0.03928 0.0472,0.01898 0.08591,0.04288 0.116148,0.07169 0.03023,0.02881 0.05273,0.06154 0.06748,0.09821 0.01475,0.03601 0.02213,0.07431 0.02213,0.114901" />
    <rect
       y="85.5149"
       x="91.611626"
       height="0.23658361"
       width="0.22939412"
       id="rect5274"
       style="fill:#f7f7f7;fill-opacity:1;stroke:none" />
    <rect
       style="fill:#f7f7f7;fill-opacity:1;stroke:none"
       id="rect5276"
       width="0.22939412"
       height="0.23658361"
       x="91.618896"
       y="86.016266" />
    <path
       d="m 92.128936,86.563389 0,-0.195185 c 0.03915,-0.07007 0.08687,-0.133126 0.143151,-0.189182 0.05629,-0.05672 0.11501,-0.108435 0.176187,-0.155147 0.06199,-0.04738 0.123166,-0.09109 0.183527,-0.131125 0.06118,-0.04071 0.115826,-0.07974 0.163951,-0.117111 0.04894,-0.03803 0.0885,-0.07608 0.118681,-0.114109 0.03018,-0.03803 0.04527,-0.07841 0.04527,-0.121116 -3e-6,-0.06272 -0.01917,-0.109102 -0.05751,-0.139132 -0.03833,-0.03002 -0.09462,-0.04504 -0.168843,-0.04504 -0.07341,1e-6 -0.129694,0.01636 -0.168846,0.04904 -0.03834,0.03202 -0.06322,0.08041 -0.07464,0.145138 l -0.346255,-0.01601 c 0.0082,-0.05538 0.02488,-0.107435 0.05016,-0.156149 0.02528,-0.04872 0.06118,-0.09142 0.10767,-0.128121 0.04731,-0.0367 0.106038,-0.06539 0.176186,-0.08608 0.07096,-0.02135 0.155386,-0.03202 0.253268,-0.03202 0.09298,10e-7 0.17537,0.009 0.247151,0.02703 0.07178,0.01735 0.132137,0.04304 0.181081,0.07707 0.04894,0.03403 0.08605,0.07574 0.111339,0.125119 0.02528,0.04872 0.03793,0.104435 0.03793,0.167159 -3e-6,0.06607 -0.01591,0.125789 -0.04771,0.179172 -0.03182,0.05339 -0.0726,0.102765 -0.122351,0.148141 -0.04976,0.04471 -0.105223,0.08675 -0.1664,0.12612 -0.06036,0.03937 -0.119087,0.07774 -0.176185,0.11511 -0.0571,0.03737 -0.109302,0.07507 -0.15661,0.113108 -0.0465,0.03803 -0.08116,0.07874 -0.103999,0.122116 l 0.80018,0 0,0.23122 -1.206388,0"
       inkscape:connector-curvature="0"
       id="path5278"
       style="font-size:9px;font-style:normal;font-variant:normal;font-weight:bold;font-stretch:normal;text-align:start;line-height:100%;writing-mode:lr-tb;text-anchor:start;fill:#f7f7f7;fill-opacity:1;stroke:none;display:inline;font-family:Liberation Sans;-inkscape-font-specification:Liberation Sans Bold" />
    <path
       d="m 94.775246,86.174349 c 0,0.06285 -0.0118,0.119483 -0.0354,0.169895 -0.02287,0.04977 -0.05752,0.09231 -0.103982,0.127667 -0.04646,0.03536 -0.104352,0.06252 -0.173672,0.08151 -0.06858,0.01833 -0.148595,0.0275 -0.240041,0.0275 -0.10177,0 -0.187685,-0.01146 -0.257741,-0.03437 -0.06932,-0.02291 -0.126474,-0.05303 -0.171459,-0.09035 -0.04424,-0.03797 -0.0778,-0.08085 -0.100663,-0.128649 -0.02213,-0.04779 -0.0365,-0.09624 -0.04315,-0.145343 l 0.316371,-0.02455 c 0.0044,0.02946 0.01253,0.05663 0.02433,0.08151 0.01253,0.02423 0.02913,0.04517 0.04978,0.06285 0.02065,0.01768 0.04572,0.03143 0.07522,0.04125 0.03024,0.0091 0.06563,0.01375 0.106192,0.01375 0.07448,0 0.132376,-0.01637 0.173671,-0.0491 0.0413,-0.03273 0.06195,-0.08282 0.06195,-0.150254 -3e-6,-0.04124 -0.01,-0.07431 -0.02987,-0.09919 -0.01917,-0.02488 -0.04387,-0.04386 -0.07411,-0.05696 -0.0295,-0.01375 -0.06158,-0.02291 -0.09624,-0.0275 -0.03466,-0.0046 -0.06748,-0.007 -0.09845,-0.007 l -0.108403,0 0,-0.222927 0.10177,0 c 0.03097,10e-7 0.06231,-0.0025 0.09402,-0.0077 0.03244,-0.0052 0.06158,-0.01473 0.08739,-0.02848 0.02581,-0.01375 0.04683,-0.03273 0.06305,-0.05696 0.01622,-0.02488 0.02433,-0.0563 0.02433,-0.09428 0,-0.05696 -0.01806,-0.101481 -0.0542,-0.13356 -0.0354,-0.03273 -0.08739,-0.0491 -0.155971,-0.0491 -0.06416,10e-7 -0.116151,0.01571 -0.155973,0.04714 -0.03909,0.03143 -0.06158,0.07595 -0.06748,0.133559 l -0.310838,-0.01964 c 0.0088,-0.06481 0.02877,-0.121121 0.05973,-0.168916 0.03171,-0.04779 0.07116,-0.0874 0.118364,-0.118828 0.04794,-0.03143 0.102875,-0.05467 0.16482,-0.06972 0.06195,-0.01571 0.127582,-0.02357 0.196903,-0.02357 0.09144,3e-6 0.169983,0.0098 0.23562,0.02946 0.06563,0.01964 0.119465,0.04616 0.161502,0.07955 0.04204,0.03339 0.073,0.07235 0.09292,0.116865 0.01991,0.04452 0.02987,0.092 0.02987,0.142399 0,0.04059 -0.0067,0.07857 -0.01991,0.113918 -0.01328,0.0347 -0.03355,0.06613 -0.06084,0.09428 -0.02655,0.0275 -0.06084,0.05139 -0.102874,0.07169 -0.04204,0.01964 -0.09182,0.03437 -0.149336,0.04419 l 0,0.0039 c 0.06415,0.0065 0.119838,0.01964 0.167034,0.03928 0.0472,0.01898 0.08591,0.04288 0.116148,0.07169 0.03023,0.02881 0.05273,0.06154 0.06748,0.09821 0.01475,0.03601 0.02213,0.07431 0.02213,0.114901"
       inkscape:connector-curvature="0"
       id="path5280"
       style="font-size:9px;font-style:normal;font-variant:normal;font-weight:bold;font-stretch:normal;text-align:start;line-height:100%;writing-mode:lr-tb;text-anchor:start;fill:#f7f7f7;fill-opacity:1;stroke:none;display:inline;font-family:Liberation Sans;-inkscape-font-specification:Liberation Sans Bold" />
    <rect
       y="85.474167"
       x="83.769638"
       height="1.0939896"
       width="1.3556478"
       id="rect5282"
       style="fill:#f7f7f7;fill-opacity:1;stroke:none" />
    <rect
       style="fill:#f7f7f7;fill-opacity:1;stroke:none"
       id="rect5284"
       width="1.3556478"
       height="1.0939896"
       x="81.795204"
       y="85.486954" />
    <path
       transform="matrix(0.83321831,0,0,0.75506352,55.565722,55.222981)"
       inkscape:transform-center-y="-0.052120772"
       inkscape:transform-center-x="0.00013789124"
       d="m 38.73586,40.850104 0.240114,-0.414743 0.239121,0.415316 z"
       inkscape:randomized="0"
       inkscape:rounded="0"
       inkscape:flatsided="true"
       sodipodi:arg2="3.6663868"
       sodipodi:arg1="2.6191892"
       sodipodi:r2="0.13834342"
       sodipodi:r1="0.27668685"
       sodipodi:cy="40.712048"
       sodipodi:cx="38.975643"
       sodipodi:sides="3"
       id="path5286"
       style="fill:#f7f7f7;fill-opacity:1;fill-rule:evenodd;stroke:none"
       sodipodi:type="star" />
    <rect
       style="fill:#1abc9c;fill-opacity:1;stroke:none"
       id="rect5288"
       width="2.0166237"
       height="2.0151093"
       x="53.02367"
       y="55.937572" />
    <rect
       y="59.937572"
       x="53.02367"
       height="2.0151093"
       width="2.0166237"
       id="rect5290"
       style="fill:#1abc9c;fill-opacity:1;stroke:none" />
    <rect
       style="fill:#1abc9c;fill-opacity:1;stroke:none"
       id="rect5292"
       width="2.0166237"
       height="2.0151093"
       x="53.02367"
       y="63.937572" />
  </g>
  <g
     id="g4149"
     transform="translate(3.8844655,0)">
    <g
       id="g4115">
      <path
         inkscape:transform-center-y="0.050457451"
         inkscape:transform-center-x="0.50344417"
         d="m 38.142264,31.007588 -3.797901,-0.541377 -2.599061,2.821706 -0.658737,-3.779313 -3.486755,-1.5999 3.390779,-1.794367 0.444129,-3.810498 2.754353,2.670333 3.761242,-0.755118 -1.688496,3.444724 z"
         inkscape:randomized="0"
         inkscape:rounded="0"
         inkscape:flatsided="false"
         sodipodi:arg2="1.2283687"
         sodipodi:arg1="0.60005021"
         sodipodi:r2="2.88849"
         sodipodi:r1="5.7769794"
         sodipodi:cy="27.74542"
         sodipodi:cx="33.374481"
         sodipodi:sides="5"
         id="path3097"
         style="fill:#f0dc8b;fill-opacity:1;fill-rule:evenodd;stroke:none;filter:url(#filter4111)"
         sodipodi:type="star" />
      <path
         sodipodi:type="star"
         style="fill:#ffcc00;fill-opacity:1;fill-rule:evenodd;stroke:none"
         id="path3095"
         sodipodi:sides="5"
         sodipodi:cx="33.374481"
         sodipodi:cy="27.74542"
         sodipodi:r1="5.7769794"
         sodipodi:r2="2.88849"
         sodipodi:arg1="0.60005021"
         sodipodi:arg2="1.2283687"
         inkscape:flatsided="false"
         inkscape:rounded="0"
         inkscape:randomized="0"
         d="m 38.142264,31.007588 -3.797901,-0.541377 -2.599061,2.821706 -0.658737,-3.779313 -3.486755,-1.5999 3.390779,-1.794367 0.444129,-3.810498 2.754353,2.670333 3.761242,-0.755118 -1.688496,3.444724 z"
         inkscape:transform-center-x="0.50344417"
         inkscape:transform-center-y="0.050457451" />
    </g>
    <g
       transform="matrix(0.66462195,0.44142051,-0.44142051,0.66462195,36.342565,-14.472453)"
       id="g4119">
      <path
         sodipodi:type="star"
         style="fill:#f0dc8b;fill-opacity:1;fill-rule:evenodd;stroke:none;filter:url(#filter4111)"
         id="path4121"
         sodipodi:sides="5"
         sodipodi:cx="33.374481"
         sodipodi:cy="27.74542"
         sodipodi:r1="5.7769794"
         sodipodi:r2="2.88849"
         sodipodi:arg1="0.60005021"
         sodipodi:arg2="1.2283687"
         inkscape:flatsided="false"
         inkscape:rounded="0"
         inkscape:randomized="0"
         d="m 38.142264,31.007588 -3.797901,-0.541377 -2.599061,2.821706 -0.658737,-3.779313 -3.486755,-1.5999 3.390779,-1.794367 0.444129,-3.810498 2.754353,2.670333 3.761242,-0.755118 -1.688496,3.444724 z"
         inkscape:transform-center-x="0.50344417"
         inkscape:transform-center-y="0.050457451" />
      <path
         inkscape:transform-center-y="0.050457451"
         inkscape:transform-center-x="0.50344417"
         d="m 38.142264,31.007588 -3.797901,-0.541377 -2.599061,2.821706 -0.658737,-3.779313 -3.486755,-1.5999 3.390779,-1.794367 0.444129,-3.810498 2.754353,2.670333 3.761242,-0.755118 -1.688496,3.444724 z"
         inkscape:randomized="0"
         inkscape:rounded="0"
         inkscape:flatsided="false"
         sodipodi:arg2="1.2283687"
         sodipodi:arg1="0.60005021"
         sodipodi:r2="2.88849"
         sodipodi:r1="5.7769794"
         sodipodi:cy="27.74542"
         sodipodi:cx="33.374481"
         sodipodi:sides="5"
         id="path4123"
         style="fill:#ffcc00;fill-opacity:1;fill-rule:evenodd;stroke:none"
         sodipodi:type="star" />
    </g>
    <g
       id="g4125"
       transform="matrix(0.73438885,0.84102948,-0.84102948,0.73438885,52.297537,-14.643002)">
      <path
         inkscape:transform-center-y="0.050457451"
         inkscape:transform-center-x="0.50344417"
         d="m 38.142264,31.007588 -3.797901,-0.541377 -2.599061,2.821706 -0.658737,-3.779313 -3.486755,-1.5999 3.390779,-1.794367 0.444129,-3.810498 2.754353,2.670333 3.761242,-0.755118 -1.688496,3.444724 z"
         inkscape:randomized="0"
         inkscape:rounded="0"
         inkscape:flatsided="false"
         sodipodi:arg2="1.2283687"
         sodipodi:arg1="0.60005021"
         sodipodi:r2="2.88849"
         sodipodi:r1="5.7769794"
         sodipodi:cy="27.74542"
         sodipodi:cx="33.374481"
         sodipodi:sides="5"
         id="path4127"
         style="fill:#f0dc8b;fill-opacity:1;fill-rule:evenodd;stroke:none;filter:url(#filter4111)"
         sodipodi:type="star" />
      <path
         sodipodi:type="star"
         style="fill:#ffcc00;fill-opacity:1;fill-rule:evenodd;stroke:none"
         id="path4129"
         sodipodi:sides="5"
         sodipodi:cx="33.374481"
         sodipodi:cy="27.74542"
         sodipodi:r1="5.7769794"
         sodipodi:r2="2.88849"
         sodipodi:arg1="0.60005021"
         sodipodi:arg2="1.2283687"
         inkscape:flatsided="false"
         inkscape:rounded="0"
         inkscape:randomized="0"
         d="m 38.142264,31.007588 -3.797901,-0.541377 -2.599061,2.821706 -0.658737,-3.779313 -3.486755,-1.5999 3.390779,-1.794367 0.444129,-3.810498 2.754353,2.670333 3.761242,-0.755118 -1.688496,3.444724 z"
         inkscape:transform-center-x="0.50344417"
         inkscape:transform-center-y="0.050457451" />
    </g>
    <g
       transform="matrix(0.64838386,0.18336087,-0.18336087,0.64838386,21.637339,20.982094)"
       id="g4131">
      <path
         sodipodi:type="star"
         style="fill:#f0dc8b;fill-opacity:1;fill-rule:evenodd;stroke:none;filter:url(#filter4111)"
         id="path4133"
         sodipodi:sides="5"
         sodipodi:cx="33.374481"
         sodipodi:cy="27.74542"
         sodipodi:r1="5.7769794"
         sodipodi:r2="2.88849"
         sodipodi:arg1="0.60005021"
         sodipodi:arg2="1.2283687"
         inkscape:flatsided="false"
         inkscape:rounded="0"
         inkscape:randomized="0"
         d="m 38.142264,31.007588 -3.797901,-0.541377 -2.599061,2.821706 -0.658737,-3.779313 -3.486755,-1.5999 3.390779,-1.794367 0.444129,-3.810498 2.754353,2.670333 3.761242,-0.755118 -1.688496,3.444724 z"
         inkscape:transform-center-x="0.50344417"
         inkscape:transform-center-y="0.050457451" />
      <path
         inkscape:transform-center-y="0.050457451"
         inkscape:transform-center-x="0.50344417"
         d="m 38.142264,31.007588 -3.797901,-0.541377 -2.599061,2.821706 -0.658737,-3.779313 -3.486755,-1.5999 3.390779,-1.794367 0.444129,-3.810498 2.754353,2.670333 3.761242,-0.755118 -1.688496,3.444724 z"
         inkscape:randomized="0"
         inkscape:rounded="0"
         inkscape:flatsided="false"
         sodipodi:arg2="1.2283687"
         sodipodi:arg1="0.60005021"
         sodipodi:r2="2.88849"
         sodipodi:r1="5.7769794"
         sodipodi:cy="27.74542"
         sodipodi:cx="33.374481"
         sodipodi:sides="5"
         id="path4135"
         style="fill:#ffcc00;fill-opacity:1;fill-rule:evenodd;stroke:none"
         sodipodi:type="star" />
    </g>
    <g
       id="g4137"
       transform="matrix(0.39668607,0.32385097,-0.32385097,0.39668607,45.436347,32.577156)">
      <path
         inkscape:transform-center-y="0.050457451"
         inkscape:transform-center-x="0.50344417"
         d="m 38.142264,31.007588 -3.797901,-0.541377 -2.599061,2.821706 -0.658737,-3.779313 -3.486755,-1.5999 3.390779,-1.794367 0.444129,-3.810498 2.754353,2.670333 3.761242,-0.755118 -1.688496,3.444724 z"
         inkscape:randomized="0"
         inkscape:rounded="0"
         inkscape:flatsided="false"
         sodipodi:arg2="1.2283687"
         sodipodi:arg1="0.60005021"
         sodipodi:r2="2.88849"
         sodipodi:r1="5.7769794"
         sodipodi:cy="27.74542"
         sodipodi:cx="33.374481"
         sodipodi:sides="5"
         id="path4139"
         style="fill:#f0dc8b;fill-opacity:1;fill-rule:evenodd;stroke:none;filter:url(#filter4111)"
         sodipodi:type="star" />
      <path
         sodipodi:type="star"
         style="fill:#ffcc00;fill-opacity:1;fill-rule:evenodd;stroke:none"
         id="path4141"
         sodipodi:sides="5"
         sodipodi:cx="33.374481"
         sodipodi:cy="27.74542"
         sodipodi:r1="5.7769794"
         sodipodi:r2="2.88849"
         sodipodi:arg1="0.60005021"
         sodipodi:arg2="1.2283687"
         inkscape:flatsided="false"
         inkscape:rounded="0"
         inkscape:randomized="0"
         d="m 38.142264,31.007588 -3.797901,-0.541377 -2.599061,2.821706 -0.658737,-3.779313 -3.486755,-1.5999 3.390779,-1.794367 0.444129,-3.810498 2.754353,2.670333 3.761242,-0.755118 -1.688496,3.444724 z"
         inkscape:transform-center-x="0.50344417"
         inkscape:transform-center-y="0.050457451" />
    </g>
    <g
       transform="matrix(0.41092277,0.00284616,-0.00284616,0.41092277,24.500537,50.343952)"
       id="g4143">
      <path
         sodipodi:type="star"
         style="fill:#f0dc8b;fill-opacity:1;fill-rule:evenodd;stroke:none;filter:url(#filter4111)"
         id="path4145"
         sodipodi:sides="5"
         sodipodi:cx="33.374481"
         sodipodi:cy="27.74542"
         sodipodi:r1="5.7769794"
         sodipodi:r2="2.88849"
         sodipodi:arg1="0.60005021"
         sodipodi:arg2="1.2283687"
         inkscape:flatsided="false"
         inkscape:rounded="0"
         inkscape:randomized="0"
         d="m 38.142264,31.007588 -3.797901,-0.541377 -2.599061,2.821706 -0.658737,-3.779313 -3.486755,-1.5999 3.390779,-1.794367 0.444129,-3.810498 2.754353,2.670333 3.761242,-0.755118 -1.688496,3.444724 z"
         inkscape:transform-center-x="0.50344417"
         inkscape:transform-center-y="0.050457451" />
      <path
         inkscape:transform-center-y="0.050457451"
         inkscape:transform-center-x="0.50344417"
         d="m 38.142264,31.007588 -3.797901,-0.541377 -2.599061,2.821706 -0.658737,-3.779313 -3.486755,-1.5999 3.390779,-1.794367 0.444129,-3.810498 2.754353,2.670333 3.761242,-0.755118 -1.688496,3.444724 z"
         inkscape:randomized="0"
         inkscape:rounded="0"
         inkscape:flatsided="false"
         sodipodi:arg2="1.2283687"
         sodipodi:arg1="0.60005021"
         sodipodi:r2="2.88849"
         sodipodi:r1="5.7769794"
         sodipodi:cy="27.74542"
         sodipodi:cx="33.374481"
         sodipodi:sides="5"
         id="path4147"
         style="fill:#ffcc00;fill-opacity:1;fill-rule:evenodd;stroke:none"
         sodipodi:type="star" />
    </g>
  </g>
</svg>
