<?xml version="1.0" encoding="UTF-8" standalone="no"?>
<!-- Created with Inkscape (http://www.inkscape.org/) -->

<svg
   xmlns:dc="http://purl.org/dc/elements/1.1/"
   xmlns:cc="http://creativecommons.org/ns#"
   xmlns:rdf="http://www.w3.org/1999/02/22-rdf-syntax-ns#"
   xmlns:svg="http://www.w3.org/2000/svg"
   xmlns="http://www.w3.org/2000/svg"
   xmlns:sodipodi="http://sodipodi.sourceforge.net/DTD/sodipodi-0.dtd"
   xmlns:inkscape="http://www.inkscape.org/namespaces/inkscape"
   width="16"
   height="16"
   id="svg4359"
   version="1.1"
   inkscape:version="0.91 r13725"
   sodipodi:docname="folder-important.svg">
  <sodipodi:namedview
     id="base"
     pagecolor="#ffffff"
     bordercolor="#ffffff"
     borderopacity="1.0"
     inkscape:pageopacity="0.0"
     inkscape:pageshadow="2"
     inkscape:zoom="16.639531"
     inkscape:cx="0.8009876"
     inkscape:cy="5.6892986"
     inkscape:current-layer="layer1"
     showgrid="true"
     inkscape:grid-bbox="true"
     inkscape:document-units="px"
     inkscape:window-width="1920"
     inkscape:window-height="1002"
     inkscape:window-x="0"
     inkscape:window-y="26"
     inkscape:window-maximized="1"
     inkscape:showpageshadow="false"
     borderlayer="true"
     showguides="true"
     fit-margin-top="0"
     fit-margin-left="0"
     fit-margin-right="0"
     fit-margin-bottom="0"
     inkscape:object-nodes="true">
    <inkscape:grid
       originy="-3px"
       originx="-3px"
       id="grid4105"
       type="xygrid" />
    <sodipodi:guide
       id="guide4205"
       orientation="16,0"
       position="0,16" />
    <sodipodi:guide
       id="guide4207"
       orientation="0,16"
       position="0,0" />
    <sodipodi:guide
       id="guide4209"
       orientation="-16,0"
       position="16,10" />
    <sodipodi:guide
       id="guide4211"
       orientation="0,-16"
       position="16,16" />
    <sodipodi:guide
       id="guide4213"
       orientation="12,0"
       position="2,8" />
    <sodipodi:guide
       id="guide4219"
       orientation="0,-12"
       position="10,14" />
    <sodipodi:guide
       id="guide4225"
       orientation="0,11.999984"
       position="8,2" />
    <sodipodi:guide
       id="guide4227"
       orientation="-6,0"
       position="14,11" />
  </sodipodi:namedview>
  <defs
     id="defs4361">
    <linearGradient
       id="linearGradient4103">
      <stop
         id="stop4105"
         offset="0"
         style="stop-color:#bdecfb;stop-opacity:1" />
      <stop
         id="stop4107"
         offset="1"
         style="stop-color:#f5feff;stop-opacity:1" />
    </linearGradient>
    <linearGradient
       id="linearGradient4314">
      <stop
         id="stop4316"
         offset="0"
         style="stop-color:#ff4b00;stop-opacity:1" />
      <stop
         id="stop4318"
         offset="1"
         style="stop-color:#ff5500;stop-opacity:1" />
    </linearGradient>
    <linearGradient
       id="linearGradient5020-1">
      <stop
         style="stop-color:#0da8db;stop-opacity:1"
         offset="0"
         id="stop5022-6" />
      <stop
         style="stop-color:#1fe1fb;stop-opacity:1"
         offset="1"
         id="stop5024-0" />
    </linearGradient>
  </defs>
  <metadata
     id="metadata4364">
    <rdf:RDF>
      <cc:Work
         rdf:about="">
        <dc:format>image/svg+xml</dc:format>
        <dc:type
           rdf:resource="http://purl.org/dc/dcmitype/StillImage" />
        <dc:title />
      </cc:Work>
    </rdf:RDF>
  </metadata>
  <g
     transform="translate(-3,-29)"
     inkscape:groupmode="layer"
     inkscape:label="Layer 1"
     id="layer1">
    <g
       transform="translate(-1.25,-1003.4845)"
       id="g4148"
       style="fill:#e7ded7;fill-opacity:1">
      <g
         style="fill:#e7ded7;fill-opacity:1"
         transform="matrix(0.44029588,0,0,0.28111603,-9.7643537,1026.3064)"
         id="g5">
        <path
           style="fill:#e7ded7;fill-opacity:1"
           inkscape:connector-curvature="0"
           d="m 47.982,36.647 c 0.542,-0.583 1.262,-0.876 2.151,-0.876 1.076,0 1.797,0.375 2.16,1.119 0.365,0.746 0.544,1.82 0.544,3.224 0,0.828 -0.042,1.666 -0.132,2.52 L 51.9,51.898 c -0.088,1.104 -0.277,1.949 -0.563,2.538 -0.292,0.59 -0.764,0.886 -1.427,0.886 -0.681,0 -1.148,-0.287 -1.413,-0.858 -0.264,-0.569 -0.451,-1.438 -0.563,-2.604 L 47.33,42.859 c -0.112,-1.755 -0.169,-3.014 -0.169,-3.778 10e-4,-1.04 0.273,-1.852 0.821,-2.434 z"
           id="path7" />
      </g>
      <circle
         style="fill:#e7ded7;fill-opacity:1;stroke:none"
         id="path4146"
         cx="12.232786"
         cy="1043.6068"
         r="1" />
    </g>
    <path
       id="path4369"
       transform="translate(3,29)"
       d="M 8 2 A 6 6 0 0 0 2 8 A 6 6 0 0 0 8 14 A 6 6 0 0 0 14 8 A 6 6 0 0 0 8 2 z M 8 3 A 5 5 0 0 1 13 8 A 5 5 0 0 1 8 13 A 5 5 0 0 1 3 8 A 5 5 0 0 1 8 3 z "
       style="fill:#e7ded7;fill-opacity:1;stroke:none" />
  </g>
</svg>
