<?xml version="1.0" encoding="UTF-8" standalone="no"?>
<svg
   xmlns:dc="http://purl.org/dc/elements/1.1/"
   xmlns:cc="http://creativecommons.org/ns#"
   xmlns:rdf="http://www.w3.org/1999/02/22-rdf-syntax-ns#"
   xmlns:svg="http://www.w3.org/2000/svg"
   xmlns="http://www.w3.org/2000/svg"
   xmlns:sodipodi="http://sodipodi.sourceforge.net/DTD/sodipodi-0.dtd"
   xmlns:inkscape="http://www.inkscape.org/namespaces/inkscape"
   width="48"
   viewBox="0 0 48 48"
   height="48"
   id="svg2"
   version="1.1"
   inkscape:version="0.91+devel r"
   sodipodi:docname="application-video.svg">
  <metadata
     id="metadata18">
    <rdf:RDF>
      <cc:Work
         rdf:about="">
        <dc:format>image/svg+xml</dc:format>
        <dc:type
           rdf:resource="http://purl.org/dc/dcmitype/StillImage" />
      </cc:Work>
    </rdf:RDF>
  </metadata>
  <defs
     id="defs16">
    <filter
       height="1.12"
       y="-0.06"
       width="1.12"
       x="-0.06"
       id="filter4201"
       style="color-interpolation-filters:sRGB"
       inkscape:collect="always">
      <feGaussianBlur
         id="feGaussianBlur4203"
         stdDeviation="0.2826087"
         inkscape:collect="always" />
    </filter>
    <clipPath
       id="clipPath4157"
       clipPathUnits="userSpaceOnUse">
      <path
         style="fill:#f9f8f2;fill-opacity:1;stroke-width:1.00658333"
         inkscape:connector-curvature="0"
         id="path4159"
         d="m 27.642964,3.2951379 13.085584,13.0855841 -11.072418,0 c -0.977824,0 -2.013166,-1.035372 -2.013166,-2.013167 l 0,-11.0724171 z" />
    </clipPath>
  </defs>
  <sodipodi:namedview
     pagecolor="#ffffff"
     bordercolor="#666666"
     borderopacity="1"
     objecttolerance="10"
     gridtolerance="10"
     guidetolerance="10"
     inkscape:pageopacity="0"
     inkscape:pageshadow="2"
     inkscape:window-width="959"
     inkscape:window-height="1026"
     id="namedview14"
     showgrid="false"
     inkscape:zoom="8.2665344"
     inkscape:cx="13.796404"
     inkscape:cy="24"
     inkscape:window-x="960"
     inkscape:window-y="27"
     inkscape:window-maximized="0"
     inkscape:current-layer="svg2" />
  <path
     d="m 9.797669,4.203584 c -0.8944343,0 -1.73913,0.8446957 -1.73913,1.7391304 l 0,36.5217396 c 0,0.844721 0.8944348,1.73913 1.73913,1.73913 l 27.826087,0 c 0.844722,0 1.739131,-0.894435 1.739131,-1.73913 l 0,-26.956522 L 28.058539,4.203584 Z"
     id="path4"
     inkscape:connector-curvature="0"
     style="fill:#173f7e;fill-opacity:1;stroke-width:0.86956519" />
  <path
     d="m 28.248139,4.2710929 11.304348,11.3043481 -9.565218,0 c -0.844721,0 -1.73913,-0.894435 -1.73913,-1.739131 l 0,-9.5652171 z"
     id="path8-3"
     inkscape:connector-curvature="0"
     style="fill:#000000;fill-opacity:0.39200003;stroke-width:0.86956519;filter:url(#filter4201)"
     clip-path="url(#clipPath4157)"
     transform="translate(-0.28928697,0.20358399)" />
  <path
     d="m 28.058539,4.203584 11.304348,11.304348 -9.565218,0 c -0.844721,0 -1.73913,-0.894435 -1.73913,-1.739131 l 0,-9.565217 z"
     id="path8"
     inkscape:connector-curvature="0"
     style="fill:#5577ad;fill-opacity:1;stroke-width:0.86956519" />
  <g
     transform="matrix(1.0869565,0,0,1.0869565,15.304348,-1109.4783)"
     id="g10"
     style="fill:#ffffff">
    <path
       d="M 8,0 C 3.5935,0 0,3.5944 0,8 c 0,4.4055 3.5935,8 8,8 4.4065,0 8,-3.5945 8,-8 C 16,3.5944 12.406,0 8,0 Z m 0,2 c 3.3255,0 6,2.6752 6,6 0,3.3248 -2.6745,6 -6,6 C 4.6745,14 2,11.325 2,8 2,4.6752 4.6745,2 8,2 Z m -2,2 0,8 6,-4 z"
       transform="translate(0,1036.4)"
       id="path12"
       inkscape:connector-curvature="0" />
  </g>
</svg>
