<?xml version="1.0" encoding="UTF-8" standalone="no"?>
<svg
   xmlns:dc="http://purl.org/dc/elements/1.1/"
   xmlns:cc="http://creativecommons.org/ns#"
   xmlns:rdf="http://www.w3.org/1999/02/22-rdf-syntax-ns#"
   xmlns:svg="http://www.w3.org/2000/svg"
   xmlns="http://www.w3.org/2000/svg"
   xmlns:sodipodi="http://sodipodi.sourceforge.net/DTD/sodipodi-0.dtd"
   xmlns:inkscape="http://www.inkscape.org/namespaces/inkscape"
   width="48"
   viewBox="0 0 48 48"
   height="48"
   id="svg2"
   version="1.1"
   inkscape:version="0.91 r13725"
   sodipodi:docname="application-x-krita.svg">
  <metadata
     id="metadata16">
    <rdf:RDF>
      <cc:Work
         rdf:about="">
        <dc:format>image/svg+xml</dc:format>
        <dc:type
           rdf:resource="http://purl.org/dc/dcmitype/StillImage" />
      </cc:Work>
    </rdf:RDF>
  </metadata>
  <defs
     id="defs14">
    <filter
       height="1.12"
       y="-0.06"
       width="1.12"
       x="-0.06"
       id="filter4201"
       style="color-interpolation-filters:sRGB"
       inkscape:collect="always">
      <feGaussianBlur
         id="feGaussianBlur4203"
         stdDeviation="0.2826087"
         inkscape:collect="always" />
    </filter>
  </defs>
  <sodipodi:namedview
     pagecolor="#ffffff"
     bordercolor="#666666"
     borderopacity="1"
     objecttolerance="10"
     gridtolerance="10"
     guidetolerance="10"
     inkscape:pageopacity="0"
     inkscape:pageshadow="2"
     inkscape:window-width="1920"
     inkscape:window-height="996"
     id="namedview12"
     showgrid="false"
     inkscape:zoom="5.8453225"
     inkscape:cx="-39.888977"
     inkscape:cy="32.981433"
     inkscape:window-x="-4"
     inkscape:window-y="0"
     inkscape:window-maximized="1"
     inkscape:current-layer="svg2" />
  <path
     d="m 9.797669,4.203584 c -0.8944343,0 -1.73913,0.8446957 -1.73913,1.7391304 l 0,36.5217396 c 0,0.844721 0.8944348,1.73913 1.73913,1.73913 l 27.826087,0 c 0.844722,0 1.739131,-0.894435 1.739131,-1.73913 l 0,-26.956522 L 28.058539,4.203584 Z"
     id="path4"
     inkscape:connector-curvature="0"
     style="fill:#f62870;fill-opacity:1;stroke-width:0.86956519" />
  <path
     d="M 27.958852,4.4746769 39.2632,15.779025 l -9.565218,0 c -0.844721,0 -1.73913,-0.894435 -1.73913,-1.739131 l 0,-9.5652171 z"
     id="path8-3"
     inkscape:connector-curvature="0"
     style="fill:#000000;fill-opacity:0.39200003;stroke-width:0.86956519;filter:url(#filter4201)" />
  <path
     d="m 28.058539,4.203584 11.304348,11.304348 -9.565218,0 c -0.844721,0 -1.73913,-0.894435 -1.73913,-1.739131 l 0,-9.565217 z"
     id="path8"
     inkscape:connector-curvature="0"
     style="fill:#f78fb9;fill-opacity:1;stroke-width:0.86956519" />
  <path
     inkscape:connector-curvature="0"
     d="m 32.452428,19.008401 a 2.2501993,10.1259 44.989453 0 0 -8.375314,5.736318 2.2501993,10.1259 44.989453 0 0 -3.985537,4.628626 c 1.210465,0.38559 2.153939,1.32931 2.539428,2.540093 a 2.2501993,10.1259 44.989453 0 0 4.627084,-3.986851 2.2501993,10.1259 44.989453 0 0 5.567439,-8.751768 2.2501993,10.1259 44.989453 0 0 -0.37352,-0.167019 M 19.499873,30.998599 C 15,32.204881 18.374905,35.054046 15,37 c 4.499873,0 6.749809,-2.252026 6.749809,-3.753876 0,-0.748675 0.0765,-2.125997 -2.249936,-2.250526"
     id="path88"
     style="fill:#ffffff;fill-opacity:1" />
</svg>
