<?xml version="1.0" encoding="UTF-8" standalone="no"?>
<svg
   xmlns:dc="http://purl.org/dc/elements/1.1/"
   xmlns:cc="http://creativecommons.org/ns#"
   xmlns:rdf="http://www.w3.org/1999/02/22-rdf-syntax-ns#"
   xmlns:svg="http://www.w3.org/2000/svg"
   xmlns="http://www.w3.org/2000/svg"
   xmlns:sodipodi="http://sodipodi.sourceforge.net/DTD/sodipodi-0.dtd"
   xmlns:inkscape="http://www.inkscape.org/namespaces/inkscape"
   width="48"
   viewBox="0 0 48 48"
   height="48"
   id="svg2"
   version="1.1"
   inkscape:version="0.91 r13725"
   sodipodi:docname="text-x-cmake.svg">
  <metadata
     id="metadata16">
    <rdf:RDF>
      <cc:Work
         rdf:about="">
        <dc:format>image/svg+xml</dc:format>
        <dc:type
           rdf:resource="http://purl.org/dc/dcmitype/StillImage" />
        <dc:title />
      </cc:Work>
    </rdf:RDF>
  </metadata>
  <defs
     id="defs14">
    <filter
       height="1.12"
       y="-0.06"
       width="1.12"
       x="-0.06"
       id="filter4201"
       style="color-interpolation-filters:sRGB"
       inkscape:collect="always">
      <feGaussianBlur
         id="feGaussianBlur4203"
         stdDeviation="0.2826087"
         inkscape:collect="always" />
    </filter>
    <clipPath
       id="clipPath4157"
       clipPathUnits="userSpaceOnUse">
      <path
         style="fill:#f9f8f2;fill-opacity:1;stroke-width:1.00658333"
         inkscape:connector-curvature="0"
         id="path4159"
         d="m 27.642964,3.2951379 13.085584,13.0855841 -11.072418,0 c -0.977824,0 -2.013166,-1.035372 -2.013166,-2.013167 l 0,-11.0724171 z" />
    </clipPath>
  </defs>
  <sodipodi:namedview
     pagecolor="#ffffff"
     bordercolor="#666666"
     borderopacity="1"
     objecttolerance="10"
     gridtolerance="10"
     guidetolerance="10"
     inkscape:pageopacity="0"
     inkscape:pageshadow="2"
     inkscape:window-width="1366"
     inkscape:window-height="695"
     id="namedview12"
     showgrid="false"
     inkscape:zoom="8.2665344"
     inkscape:cx="-14.188199"
     inkscape:cy="23.507926"
     inkscape:window-x="-4"
     inkscape:window-y="0"
     inkscape:window-maximized="1"
     inkscape:current-layer="svg2" />
  <path
     d="m 9.797669,4.203584 c -0.8944343,0 -1.73913,0.8446957 -1.73913,1.7391304 l 0,36.5217396 c 0,0.844721 0.8944348,1.73913 1.73913,1.73913 l 27.826087,0 c 0.844722,0 1.739131,-0.894435 1.739131,-1.73913 l 0,-26.956522 L 28.058539,4.203584 Z"
     id="path4-0"
     inkscape:connector-curvature="0"
     style="fill:#1ba39c;fill-opacity:0.99607843;stroke-width:0.86956519" />
  <path
     d="m 28.248139,4.2710929 11.304348,11.3043481 -9.565218,0 c -0.844721,0 -1.73913,-0.894435 -1.73913,-1.739131 l 0,-9.5652171 z"
     id="path8-3"
     inkscape:connector-curvature="0"
     style="fill:#000000;fill-opacity:0.39200003;stroke-width:0.86956519;filter:url(#filter4201)"
     clip-path="url(#clipPath4157)"
     transform="translate(-0.28928697,0.20358399)" />
  <path
     d="m 28.058539,4.203584 11.304348,11.304348 -9.565218,0 c -0.844721,0 -1.73913,-0.894435 -1.73913,-1.739131 l 0,-9.565217 z"
     id="path8-1"
     inkscape:connector-curvature="0"
     style="fill:#57b3ae;fill-opacity:1;stroke-width:0.86956519" />
  <path
     inkscape:connector-curvature="0"
     style="fill:#000000;fill-opacity:0.27450982;fill-rule:evenodd;stroke:none;stroke-width:1px;stroke-linecap:butt;stroke-linejoin:miter;stroke-opacity:1"
     d="m 15,17.834307 0,18 18,0 0,-18 -18,0 z m 0.818182,4.090909 16.363636,0 0,13.090909 -16.363636,0 0,-13.090909 z m 4.909091,2.454546 0,7.363636 0,0.818182 6.545454,-4.090909 -6.545454,-4.090909 z"
     id="path4171" />
</svg>
