<?xml version="1.0" encoding="UTF-8" standalone="no"?>
<!-- Created using Karbon, part of Calligra: http://www.calligra.org/karbon -->

<svg
   xmlns:dc="http://purl.org/dc/elements/1.1/"
   xmlns:cc="http://creativecommons.org/ns#"
   xmlns:rdf="http://www.w3.org/1999/02/22-rdf-syntax-ns#"
   xmlns:svg="http://www.w3.org/2000/svg"
   xmlns="http://www.w3.org/2000/svg"
   xmlns:sodipodi="http://sodipodi.sourceforge.net/DTD/sodipodi-0.dtd"
   xmlns:inkscape="http://www.inkscape.org/namespaces/inkscape"
   width="38.4pt"
   height="38.4pt"
   id="svg2"
   version="1.1"
   inkscape:version="0.48.4 r9939"
   sodipodi:docname="clementine-panel.svg">
  <metadata
     id="metadata10">
    <rdf:RDF>
      <cc:Work
         rdf:about="">
        <dc:format>image/svg+xml</dc:format>
        <dc:type
           rdf:resource="http://purl.org/dc/dcmitype/StillImage" />
      </cc:Work>
    </rdf:RDF>
  </metadata>
  <sodipodi:namedview
     pagecolor="#ffffff"
     bordercolor="#666666"
     borderopacity="1"
     objecttolerance="10"
     gridtolerance="10"
     guidetolerance="10"
     inkscape:pageopacity="0"
     inkscape:pageshadow="2"
     inkscape:window-width="1366"
     inkscape:window-height="709"
     id="namedview8"
     showgrid="false"
     showguides="true"
     inkscape:guide-bbox="true"
     inkscape:zoom="8.1682776"
     inkscape:cx="21.070598"
     inkscape:cy="17.664834"
     inkscape:window-x="0"
     inkscape:window-y="-3"
     inkscape:window-maximized="1"
     inkscape:current-layer="svg2">
    <sodipodi:guide
       orientation="1,0"
       position="5.4915254,-2.0338983"
       id="guide2987" />
    <sodipodi:guide
       orientation="0,1"
       position="14.448565,42.319293"
       id="guide2989" />
    <sodipodi:guide
       orientation="1,0"
       position="42.508475,1.8305085"
       id="guide2991" />
    <sodipodi:guide
       orientation="0,1"
       position="31.322034,6.1016949"
       id="guide2993" />
  </sodipodi:namedview>
  <defs
     id="defs4" />
  <path
     style="fill:#ff9a39;fill-opacity:1;fill-rule:evenodd;stroke:none"
     d="M 12.690834,5.8587726 C 7.3939901,7.5520814 5.4375,17.092977 5.4375,23.8125 c 0,9.981532 8.361817,18.0625 18.65625,18.0625 8.789588,0 19.66115,-2.506895 18.414725,-13.05057 C 39.789002,23.495157 29.506126,26.174 29.506126,26.174 c 0,0 -6.257918,-0.635108 -9.390265,-6.359736 C 17.395562,14.842688 17.104041,15.329919 17.347566,9.4646932 17.504678,5.680707 17.549846,5.680707 12.690834,5.8587726 z"
     id="path2995"
     inkscape:connector-curvature="0"
     sodipodi:nodetypes="cssccssc" />
  <path
     style="fill:#ffffff;fill-opacity:1;fill-rule:evenodd;stroke:none"
     d="m 19.90625,21.15625 0,0.09375 -3.853197,-0.548437 2.401594,3.147142 -2.372964,2.412595 5.282485,0.0091 0.485757,3.594514 2.685254,-1.631568 4.154352,2.530877 -1.894512,-4.067151 -1.826272,-0.603343 -3.3125,-2.5625 z"
     id="path3786"
     inkscape:connector-curvature="0"
     sodipodi:nodetypes="ccccccccccccc" />
  <path
     style="fill:#fffdfc;fill-opacity:1;fill-rule:evenodd;stroke:none"
     d="M 13.794802,6.3995049 C 13.4968,6.3653971 13.180894,6.4758702 12.849961,6.5304356 7.4015266,8.4625317 5.812524,17.489088 5.812524,24.042423 c 0,0.08823 -0.00132,0.173935 0,0.261861 0.083634,-6.161886 2.815325,-12.935518 6.907114,-15.8406426 2.121726,-0.8121998 3.673564,0.088534 3.809139,3.6089506 0.282334,7.331265 0.738342,6.68393 3.138558,10.039144 4.18293,5.847234 8.92712,5.924616 8.92712,5.924616 0,0 11.65099,-2.488854 12.294673,1.856344 -0.77226,7.433955 -5.484087,10.638385 -12.49816,11.498049 7.317965,-0.821092 13.325627,-2.315948 13.662329,-11.927851 -0.973309,-4.572497 -13.141037,-2.703659 -13.141037,-2.703659 0,0 -5.159765,-0.779719 -9.122604,-6.21921 -2.124198,-2.915728 -2.654692,-5.126104 -2.805744,-10.6323668 -0.08839,-3.222091 -0.703247,-3.2236341 -3.18911,-3.5081533 z"
     id="path3778"
     inkscape:connector-curvature="0"
     sodipodi:nodetypes="scsccsscccccsss" />
</svg>
