<?xml version="1.0" encoding="UTF-8" standalone="no"?>
<!-- Created using Karbon, part of Calligra: http://www.calligra.org/karbon -->

<svg
   xmlns:dc="http://purl.org/dc/elements/1.1/"
   xmlns:cc="http://creativecommons.org/ns#"
   xmlns:rdf="http://www.w3.org/1999/02/22-rdf-syntax-ns#"
   xmlns:svg="http://www.w3.org/2000/svg"
   xmlns="http://www.w3.org/2000/svg"
   xmlns:xlink="http://www.w3.org/1999/xlink"
   xmlns:sodipodi="http://sodipodi.sourceforge.net/DTD/sodipodi-0.dtd"
   xmlns:inkscape="http://www.inkscape.org/namespaces/inkscape"
   width="38.4pt"
   height="38.4pt"
   id="svg2"
   version="1.1"
   inkscape:version="0.48.5 r10040"
   sodipodi:docname="weather-clouds.svg">
  <metadata
     id="metadata10">
    <rdf:RDF>
      <cc:Work
         rdf:about="">
        <dc:format>image/svg+xml</dc:format>
        <dc:type
           rdf:resource="http://purl.org/dc/dcmitype/StillImage" />
        <dc:title></dc:title>
      </cc:Work>
    </rdf:RDF>
  </metadata>
  <sodipodi:namedview
     pagecolor="#ffffff"
     bordercolor="#666666"
     borderopacity="1"
     objecttolerance="10"
     gridtolerance="10"
     guidetolerance="10"
     inkscape:pageopacity="0"
     inkscape:pageshadow="2"
     inkscape:window-width="971"
     inkscape:window-height="706"
     id="namedview8"
     showgrid="false"
     inkscape:zoom="6.1469579"
     inkscape:cx="20.66209"
     inkscape:cy="39.193738"
     inkscape:window-x="653"
     inkscape:window-y="159"
     inkscape:window-maximized="0"
     inkscape:current-layer="svg2" />
  <defs
     id="defs4" />
  <g
     id="layer0">
    <path
       id="shape0"
       transform="translate(9.00002, 9.00002)"
       fill="#f1c40f"
       fill-rule="evenodd"
       stroke="#003bc3"
       stroke-width="0.00000000000"
       stroke-linecap="square"
       stroke-linejoin="miter"
       stroke-miterlimit="2.01260185242"
       d="M29.9909 14.2133C29.5572 6.01457 22.615 -0.313379 14.4113 0.0120057C6.20754 0.337391 -0.211615 7.19528 0.00534112 15.4026C0.222297 23.6098 6.9948 30.119 15.2043 30.0106C23.4138 29.9021 30.0119 23.2162 30.0119 15.006" />
  </g>
  <g
     id="g4054"
     transform="matrix(2.3537608,0,0,2.3537608,-31.331179,12.683346)">
    <path
       inkscape:connector-curvature="0"
       inkscape:tile-y0="1.4729202"
       inkscape:tile-x0="22.775493"
       inkscape:tile-h="6.6699662"
       inkscape:tile-w="1.464139"
       inkscape:tile-cy="4.8079033"
       inkscape:tile-cx="23.507562"
       id="path4027"
       d="m 24.239632,4.8079033 c 0,4.9864997 -0.327759,9.0288567 -0.732069,9.0288567 -0.404311,0 -0.73207,-4.042357 -0.73207,-9.0288567 0,-4.98649974 0.327759,-9.0288565 0.73207,-9.0288565 0.40431,0 0.732069,4.04235676 0.732069,9.0288565 z"
       style="color:#000000;fill:#f1c40f;fill-opacity:1;fill-rule:nonzero;stroke:none;stroke-width:0.60000002;marker:none;visibility:visible;display:inline;overflow:visible;enable-background:accumulate" />
    <use
       id="use4030"
       xlink:href="#path4027"
       inkscape:tiled-clone-of="#path4027"
       y="0"
       x="0"
       width="48"
       height="48" />
    <use
       id="use4032"
       transform="matrix(-0.17364818,0.98480775,-0.98480775,-0.17364818,32.324468,-17.507643)"
       xlink:href="#path4027"
       inkscape:tiled-clone-of="#path4027"
       y="0"
       x="0"
       width="48"
       height="48" />
    <use
       id="use4034"
       transform="matrix(-0.93969262,-0.34202014,0.34202014,-0.93969262,43.953046,17.365914)"
       xlink:href="#path4027"
       inkscape:tiled-clone-of="#path4027"
       y="0"
       x="0"
       width="48"
       height="48" />
    <use
       id="use4036"
       transform="matrix(0.5,-0.8660254,0.8660254,0.5,7.5900149,22.762098)"
       xlink:href="#path4027"
       inkscape:tiled-clone-of="#path4027"
       y="0"
       x="0"
       width="48"
       height="48" />
    <use
       id="use4038"
       transform="matrix(0.76604444,0.64278761,-0.64278761,0.76604444,8.5901855,-13.985534)"
       xlink:href="#path4027"
       inkscape:tiled-clone-of="#path4027"
       y="0"
       x="0"
       width="48"
       height="48" />
    <use
       id="use4040"
       transform="matrix(-0.76604444,0.64278761,-0.64278761,-0.76604444,44.605861,-6.619399)"
       xlink:href="#path4027"
       inkscape:tiled-clone-of="#path4027"
       y="0"
       x="0"
       width="48"
       height="48" />
    <use
       id="use4042"
       transform="matrix(-0.5,-0.8660254,0.8660254,-0.5,31.097577,27.570001)"
       xlink:href="#path4027"
       inkscape:tiled-clone-of="#path4027"
       y="0"
       x="0"
       width="48"
       height="48" />
    <use
       id="use4044"
       transform="matrix(0.93969262,-0.34202014,0.34202014,0.93969262,-0.22672029,8.3300119)"
       xlink:href="#path4027"
       inkscape:tiled-clone-of="#path4027"
       y="0"
       x="0"
       width="48"
       height="48" />
    <use
       id="use4046"
       transform="matrix(0.17364818,0.98480775,-0.98480775,0.17364818,24.160378,-19.17741)"
       xlink:href="#path4027"
       inkscape:tiled-clone-of="#path4027"
       y="0"
       x="0"
       width="48"
       height="48" />
    <use
       id="use4048"
       transform="matrix(-1,0,0,-1,47.015125,9.6158066)"
       xlink:href="#path4027"
       inkscape:tiled-clone-of="#path4027"
       y="0"
       x="0"
       width="48"
       height="48" />
    <use
       id="use4050"
       transform="matrix(0.17364818,-0.98480775,0.98480775,0.17364818,14.690657,27.123449)"
       xlink:href="#path4027"
       inkscape:tiled-clone-of="#path4027"
       y="0"
       x="0"
       width="48"
       height="48" />
    <use
       id="use4052"
       transform="matrix(0.93969262,0.34202014,-0.34202014,0.93969262,3.0620793,-7.7501078)"
       xlink:href="#path4027"
       inkscape:tiled-clone-of="#path4027"
       y="0"
       x="0"
       width="48"
       height="48" />
  </g>
  <path
     style="fill:#ffffff;fill-opacity:1"
     id="path5"
     d="m 43.207629,-17.131024 c 0.03568,-0.294879 0.05281,-0.594795 0.05281,-0.894658 0,-3.741025 -2.622689,-6.786151 -5.847893,-6.786151 -1.87032,0 -3.587819,1.025557 -4.675755,2.707197 -0.384042,-0.10773 -0.775212,-0.16239 -1.172137,-0.16239 -2.821152,0 -5.116906,2.664094 -5.116906,5.937881 0,0.08287 0.0014,0.164034 0.0043,0.245203 -2.114424,0.728981 -3.659227,3.005416 -3.659227,5.692679 0,3.2737869 2.295755,5.9378809 5.116906,5.9378809 h 12.426771 c 3.225205,0 5.847893,-3.043482 5.847893,-6.7861499 0,-2.473552 -1.172137,-4.708528 -2.97676,-5.891492 z M 40.336496,-6.1499191 H 27.909725 c -2.018802,0 -3.654933,-1.898691 -3.654933,-4.2413439 0,-2.342654 1.636176,-4.241344 3.654933,-4.241344 0.111384,0 0.217012,0.02651 0.325517,0.03812 -0.20559,-0.530168 -0.325517,-1.114996 -0.325517,-1.734657 0,-2.342706 1.636176,-4.241344 3.654933,-4.241344 0.659624,0 1.270683,0.218694 1.804623,0.573271 0.662456,-1.83242 2.22293,-3.118077 4.043269,-3.118077 2.422809,0 4.38592,2.278079 4.38592,5.089613 0,0.669337 -0.118512,1.305538 -0.321223,1.892063 1.866026,0.586472 3.245169,2.544807 3.245169,4.894087 0,2.8115339 -1.96311,5.0896129 -4.38592,5.0896129 z"
     inkscape:connector-curvature="0" />
  <path
     style="color:#000000;fill:#ffffff;fill-opacity:1;fill-rule:nonzero;stroke:#b1ada3;stroke-width:0.2668961;stroke-miterlimit:4;stroke-opacity:1;stroke-dasharray:none;marker:none;visibility:visible;display:inline;overflow:visible;enable-background:accumulate"
     d="m 30.996996,27.281741 c -1.363703,-0.128937 -2.243973,-0.74226 -2.736863,-1.906896 -0.402142,-0.950213 -0.23217,-1.862519 0.518564,-2.783328 0.49621,-0.608624 1.163685,-0.961794 1.997906,-1.057118 l 0.640406,-0.07318 -0.07603,-0.924754 c -0.105383,-1.281778 0.125796,-1.90545 0.965922,-2.605838 0.858282,-0.715525 1.828564,-0.860923 3.339952,-0.500498 0.254922,0.06079 0.345973,0.0034 0.509619,-0.321307 0.241818,-0.479793 1.352602,-1.353529 2.013352,-1.583688 1.058685,-0.36877 2.314096,-0.133252 3.323782,0.623549 1.074132,0.805107 1.339778,1.375537 1.344994,2.888162 l 0.0043,1.261913 0.56987,0.344148 c 1.383614,0.835579 2.038567,1.870991 2.038567,3.222771 0,0.974458 -0.422488,1.821918 -1.236131,2.47953 -1.208974,0.977129 -0.955836,0.941229 -6.952813,0.986045 -2.926653,0.02187 -5.746109,-3.54e-4 -6.265456,-0.04951 l 0,0 z"
     id="path4111"
     inkscape:connector-curvature="0" />
  <path
     inkscape:connector-curvature="0"
     id="path4132"
     d="m 26.486559,32.533306 c 1.03779,-0.09812 1.707682,-0.564867 2.082776,-1.451165 0.306033,-0.72312 0.176683,-1.417393 -0.394632,-2.118136 -0.377619,-0.463168 -0.885573,-0.731934 -1.520423,-0.804476 l -0.487354,-0.05569 0.05786,-0.703746 c 0.0802,-0.975444 -0.09573,-1.450064 -0.735075,-1.983065 -0.65316,-0.544521 -1.391553,-0.65517 -2.541732,-0.380883 -0.193998,0.04626 -0.263289,0.0026 -0.387825,-0.244518 -0.184025,-0.365126 -1.029341,-1.030047 -1.532178,-1.2052 -0.805668,-0.280637 -1.761047,-0.101406 -2.529427,0.474526 -0.817424,0.612694 -1.019582,1.046796 -1.023552,2.197917 l -0.0033,0.960326 -0.433676,0.2619 c -1.052943,0.635883 -1.551367,1.42384 -1.551367,2.452556 0,0.741571 0.321517,1.386496 0.940706,1.886944 0.92004,0.743604 0.7274,0.716284 5.291151,0.750389 2.227208,0.01664 4.372839,-2.69e-4 4.768066,-0.03768 l 0,0 z"
     style="color:#000000;fill:#ffffff;fill-opacity:1;fill-rule:nonzero;stroke:#b1ada3;stroke-width:0.20311023;stroke-miterlimit:4;stroke-opacity:1;stroke-dasharray:none;marker:none;visibility:visible;display:inline;overflow:visible;enable-background:accumulate" />
</svg>
