<?xml version="1.0" encoding="UTF-8" standalone="no"?>
<!-- Created using Karbon, part of Calligra: http://www.calligra.org/karbon -->

<svg
   xmlns:dc="http://purl.org/dc/elements/1.1/"
   xmlns:cc="http://creativecommons.org/ns#"
   xmlns:rdf="http://www.w3.org/1999/02/22-rdf-syntax-ns#"
   xmlns:svg="http://www.w3.org/2000/svg"
   xmlns="http://www.w3.org/2000/svg"
   xmlns:sodipodi="http://sodipodi.sourceforge.net/DTD/sodipodi-0.dtd"
   xmlns:inkscape="http://www.inkscape.org/namespaces/inkscape"
   width="38.4pt"
   height="38.4pt"
   id="svg2"
   version="1.1"
   inkscape:version="0.48.5 r10040"
   sodipodi:docname="weather-clear-night.svg">
  <metadata
     id="metadata10">
    <rdf:RDF>
      <cc:Work
         rdf:about="">
        <dc:format>image/svg+xml</dc:format>
        <dc:type
           rdf:resource="http://purl.org/dc/dcmitype/StillImage" />
        <dc:title />
      </cc:Work>
    </rdf:RDF>
  </metadata>
  <sodipodi:namedview
     pagecolor="#ffffff"
     bordercolor="#666666"
     borderopacity="1"
     objecttolerance="10"
     gridtolerance="10"
     guidetolerance="10"
     inkscape:pageopacity="0"
     inkscape:pageshadow="2"
     inkscape:window-width="971"
     inkscape:window-height="706"
     id="namedview8"
     showgrid="false"
     inkscape:zoom="8.6931112"
     inkscape:cx="18.475732"
     inkscape:cy="17.082014"
     inkscape:window-x="188"
     inkscape:window-y="45"
     inkscape:window-maximized="0"
     inkscape:current-layer="svg2" />
  <defs
     id="defs4" />
  <g
     id="g3787">
    <path
       id="path3827"
       d="m 28.306685,1.7169435 c 0,7.4123645 -6.008908,13.4212735 -13.421273,13.4212735 -7.4123643,0 -13.421273,-6.008909 -13.421273,-13.4212735 0,-7.4123645 6.0089087,-13.4212735 13.421273,-13.4212735 7.412365,0 13.421273,6.008909 13.421273,13.4212735 z"
       style="color:#000000;fill:#f3f3ff;fill-opacity:1;fill-rule:nonzero;stroke:#b1ada3;stroke-width:0.44156069;stroke-linecap:butt;stroke-linejoin:miter;stroke-miterlimit:4;stroke-opacity:1;stroke-dasharray:none;stroke-dashoffset:0;marker:none;visibility:visible;display:inline;overflow:visible;enable-background:accumulate"
       transform="matrix(1.1323472,0,0,1.1323472,7.1445452,22.055824)"
       inkscape:connector-curvature="0" />
    <path
       inkscape:connector-curvature="0"
       style="color:#000000;fill:#f3f3ff;fill-opacity:1;fill-rule:nonzero;stroke:#b1ada3;stroke-width:0.5;stroke-linecap:butt;stroke-linejoin:miter;stroke-miterlimit:4;stroke-opacity:1;stroke-dasharray:none;stroke-dashoffset:0;marker:none;visibility:visible;display:inline;overflow:visible;enable-background:accumulate"
       d="m 29.693339,18.468809 c 0,1.976336 -1.602136,3.578473 -3.578472,3.578473 -1.976336,0 -3.578473,-1.602137 -3.578473,-3.578473 0,-1.976336 1.602137,-3.578472 3.578473,-3.578472 1.976336,0 3.578472,1.602136 3.578472,3.578472 z"
       id="path3832" />
    <path
       id="path3834"
       d="m 17.354633,24 c 0,1.181595 -0.957871,2.139467 -2.139466,2.139467 -1.181595,0 -2.139467,-0.957872 -2.139467,-2.139467 0,-1.181595 0.957872,-2.139466 2.139467,-2.139466 1.181595,0 2.139466,0.957871 2.139466,2.139466 z"
       style="color:#000000;fill:#f3f3ff;fill-opacity:1;fill-rule:nonzero;stroke:#b1ada3;stroke-width:0.5;stroke-linecap:butt;stroke-linejoin:miter;stroke-miterlimit:4;stroke-opacity:1;stroke-dasharray:none;stroke-dashoffset:0;marker:none;visibility:visible;display:inline;overflow:visible;enable-background:accumulate"
       inkscape:connector-curvature="0" />
    <path
       inkscape:connector-curvature="0"
       style="color:#000000;fill:#f3f3ff;fill-opacity:1;fill-rule:nonzero;stroke:#b1ada3;stroke-width:0.5;stroke-linecap:butt;stroke-linejoin:miter;stroke-miterlimit:4;stroke-opacity:1;stroke-dasharray:none;stroke-dashoffset:0;marker:none;visibility:visible;display:inline;overflow:visible;enable-background:accumulate"
       d="m 27.603605,32.459469 c 0,1.181595 -0.957871,2.139467 -2.139466,2.139467 -1.181595,0 -2.139467,-0.957872 -2.139467,-2.139467 0,-1.181595 0.957872,-2.139466 2.139467,-2.139466 1.181595,0 2.139466,0.957871 2.139466,2.139466 z"
       id="path3836" />
    <path
       id="path3838"
       d="m 18.516495,15.377849 c 0,0.745112 -0.604032,1.349144 -1.349143,1.349144 -0.745112,0 -1.349144,-0.604032 -1.349144,-1.349144 0,-0.745111 0.604032,-1.349143 1.349144,-1.349143 0.745111,0 1.349143,0.604032 1.349143,1.349143 z"
       style="color:#000000;fill:#f3f3ff;fill-opacity:1;fill-rule:nonzero;stroke:#b1ada3;stroke-width:0.5;stroke-linecap:butt;stroke-linejoin:miter;stroke-miterlimit:4;stroke-opacity:1;stroke-dasharray:none;stroke-dashoffset:0;marker:none;visibility:visible;display:inline;overflow:visible;enable-background:accumulate"
       inkscape:connector-curvature="0" />
  </g>
</svg>
