<?xml version="1.0" encoding="UTF-8" standalone="no"?>
<!-- Created with Inkscape (http://www.inkscape.org/) -->

<svg
   xmlns:dc="http://purl.org/dc/elements/1.1/"
   xmlns:cc="http://creativecommons.org/ns#"
   xmlns:rdf="http://www.w3.org/1999/02/22-rdf-syntax-ns#"
   xmlns:svg="http://www.w3.org/2000/svg"
   xmlns="http://www.w3.org/2000/svg"
   xmlns:xlink="http://www.w3.org/1999/xlink"
   xmlns:sodipodi="http://sodipodi.sourceforge.net/DTD/sodipodi-0.dtd"
   xmlns:inkscape="http://www.inkscape.org/namespaces/inkscape"
   version="1.0"
   width="24"
   height="24"
   id="svg2"
   inkscape:version="0.48.4 r9939"
   sodipodi:docname="emblem-web.svg">
  <sodipodi:namedview
     pagecolor="#ffffff"
     bordercolor="#666666"
     borderopacity="1"
     objecttolerance="10"
     gridtolerance="10"
     guidetolerance="10"
     inkscape:pageopacity="0"
     inkscape:pageshadow="2"
     inkscape:window-width="1680"
     inkscape:window-height="991"
     id="namedview50"
     showgrid="false"
     inkscape:zoom="70.229141"
     inkscape:cx="7.2316472"
     inkscape:cy="6.1421649"
     inkscape:window-x="0"
     inkscape:window-y="-3"
     inkscape:window-maximized="1"
     inkscape:current-layer="svg2"
     showguides="true"
     inkscape:guide-bbox="true">
    <sodipodi:guide
       orientation="0,1"
       position="19.473531,20.277484"
       id="guide3168" />
    <sodipodi:guide
       orientation="1,0"
       position="4.4664062,7.7268827"
       id="guide3170" />
    <sodipodi:guide
       orientation="0,1"
       position="16.302383,5.2256952"
       id="guide3172" />
    <sodipodi:guide
       orientation="1,0"
       position="19.473531,6.0743124"
       id="guide3174" />
  </sodipodi:namedview>
  <defs
     id="defs4">
    <linearGradient
       id="linearGradient3625">
      <stop
         id="stop3627"
         style="stop-color:#787878;stop-opacity:1"
         offset="0" />
      <stop
         id="stop3629"
         style="stop-color:#323232;stop-opacity:1"
         offset="1" />
    </linearGradient>
    <radialGradient
       cx="64"
       cy="120.20078"
       r="56"
       fx="64"
       fy="120.20078"
       id="radialGradient2872"
       xlink:href="#linearGradient3625"
       gradientUnits="userSpaceOnUse"
       gradientTransform="matrix(0.900984,0,0,1.1428576,-9.6629932,-131.37237)" />
    <clipPath
       id="clipPath2883">
      <path
         d="m -100,-74 0,96 96,0 0,-96 -96,0 z m 48,16 c 17.664,0 32,14.335995 32,32 4e-6,17.664008 -14.336,32 -32,32 -17.664002,0 -32,-14.335996 -32,-32 0,-17.664005 14.335998,-32 32,-32 z m 12.125,16.125 -16.25,18.875 -8,-7.25 -7.75,8.375 15.75,15.625 24,-27.25 -7.75,-8.375 z"
         inkscape:connector-curvature="0"
         id="path2885"
         style="opacity:0.3;color:#000000;fill:#ff0000;fill-opacity:1;fill-rule:nonzero;stroke:none;stroke-width:4;marker:none;visibility:visible;display:inline;overflow:visible;enable-background:accumulate" />
    </clipPath>
    <filter
       color-interpolation-filters="sRGB"
       id="filter3663">
      <feGaussianBlur
         id="feGaussianBlur3665"
         stdDeviation="0.96" />
    </filter>
    <clipPath
       id="clipPath3266">
      <path
         d="M 0,0 0,96 96,96 96,0 0,0 z m 12,6 72,0 c 3.324,0 6,2.676 6,6 l 0,72 c 0,3.324 -2.676,6 -6,6 L 12,90 C 8.676,90 6,87.324 6,84 L 6,12 C 6,8.676 8.676,6 12,6 z"
         inkscape:connector-curvature="0"
         id="path3268"
         style="opacity:0.3;color:#000000;fill:#ff0000;fill-opacity:1;fill-rule:nonzero;stroke:none;stroke-width:4;marker:none;visibility:visible;display:inline;overflow:visible;enable-background:accumulate" />
    </clipPath>
    <linearGradient
       x1="32.251034"
       y1="6.1317081"
       x2="32.251034"
       y2="90.238609"
       id="linearGradient3101"
       xlink:href="#ButtonShadow-0"
       gradientUnits="userSpaceOnUse"
       gradientTransform="matrix(1.0238095,0,0,1.0119048,-1.1428571,-98.071429)" />
    <linearGradient
       x1="45.447727"
       y1="92.539597"
       x2="45.447727"
       y2="7.0165396"
       id="ButtonShadow-0"
       gradientUnits="userSpaceOnUse"
       gradientTransform="matrix(1.0058652,0,0,0.994169,100,0)">
      <stop
         id="stop3750-8"
         style="stop-color:#000000;stop-opacity:1"
         offset="0" />
      <stop
         id="stop3752-5"
         style="stop-color:#000000;stop-opacity:0.58823532"
         offset="1" />
    </linearGradient>
    <linearGradient
       x1="32.251034"
       y1="6.1317081"
       x2="32.251034"
       y2="90.238609"
       id="linearGradient3780"
       xlink:href="#ButtonShadow-0"
       gradientUnits="userSpaceOnUse"
       gradientTransform="matrix(1.0238095,0,0,1.0119048,-1.1428571,-98.071429)" />
    <linearGradient
       x1="32.251034"
       y1="6.1317081"
       x2="32.251034"
       y2="90.238609"
       id="linearGradient3772"
       xlink:href="#ButtonShadow-0"
       gradientUnits="userSpaceOnUse"
       gradientTransform="matrix(1.0238095,0,0,1.0119048,-1.1428571,-98.071429)" />
    <linearGradient
       x1="32.251034"
       y1="6.1317081"
       x2="32.251034"
       y2="90.238609"
       id="linearGradient3725"
       xlink:href="#ButtonShadow-0"
       gradientUnits="userSpaceOnUse"
       gradientTransform="matrix(1.0238095,0,0,1.0119048,-1.1428571,-98.071429)" />
    <linearGradient
       x1="48"
       y1="90"
       x2="48"
       y2="5.9877172"
       id="linearGradient3052"
       xlink:href="#ButtonColor-6"
       gradientUnits="userSpaceOnUse" />
    <linearGradient
       x1="10.31979"
       y1="21"
       x2="10.31979"
       y2="0.99929649"
       id="ButtonColor-6"
       gradientUnits="userSpaceOnUse">
      <stop
         id="stop3189-4"
         style="stop-color:#c8c8c8;stop-opacity:1"
         offset="0" />
      <stop
         id="stop3191-0"
         style="stop-color:#e6e6e6;stop-opacity:1"
         offset="1" />
    </linearGradient>
    <linearGradient
       x1="36.357143"
       y1="6"
       x2="36.357143"
       y2="63.893143"
       id="linearGradient3188"
       xlink:href="#linearGradient3737"
       gradientUnits="userSpaceOnUse" />
    <linearGradient
       id="linearGradient3737">
      <stop
         id="stop3739"
         style="stop-color:#ffffff;stop-opacity:1"
         offset="0" />
      <stop
         id="stop3741"
         style="stop-color:#ffffff;stop-opacity:0"
         offset="1" />
    </linearGradient>
    <radialGradient
       cx="48"
       cy="90.171875"
       r="42"
       fx="48"
       fy="90.171875"
       id="radialGradient3619"
       xlink:href="#linearGradient3737"
       gradientUnits="userSpaceOnUse"
       gradientTransform="matrix(1.1573129,0,0,0.99590774,-7.551021,0.1971319)" />
    <linearGradient
       x1="32.251034"
       y1="6.1317081"
       x2="32.251034"
       y2="90.238609"
       id="linearGradient4256"
       xlink:href="#ButtonShadow-0"
       gradientUnits="userSpaceOnUse"
       gradientTransform="translate(0,-97)" />
    <linearGradient
       inkscape:collect="always"
       xlink:href="#ButtonColor-6"
       id="linearGradient3026"
       gradientUnits="userSpaceOnUse"
       x1="48"
       y1="90"
       x2="48"
       y2="5.9877172"
       gradientTransform="matrix(0.2570698,0,0,0.2570698,-0.33949467,-0.7525833)" />
  </defs>
  <metadata
     id="metadata7">
    <rdf:RDF>
      <cc:Work
         rdf:about="">
        <dc:format>image/svg+xml</dc:format>
        <dc:type
           rdf:resource="http://purl.org/dc/dcmitype/StillImage" />
        <dc:title />
      </cc:Work>
    </rdf:RDF>
  </metadata>
  <rect
     style="opacity:0.75;fill:url(#linearGradient3026);fill-opacity:1;fill-rule:nonzero;stroke:none;display:inline"
     id="rect2419"
     y="0.78983551"
     x="1.2029241"
     ry="1.5424188"
     rx="1.5424188"
     height="21.593863"
     width="21.593863" />
  <path
     inkscape:connector-curvature="0"
     style="fill:#333333;fill-opacity:1;fill-rule:evenodd;stroke:none"
     d="m 12.014633,3.8154069 c -4.1550004,0 -7.5000004,3.345 -7.5000004,7.5000001 0,4.155 3.345,7.5 7.5000004,7.5 4.155,0 7.5,-3.345 7.5,-7.5 0,-4.1550001 -3.345,-7.5000001 -7.5,-7.5000001 z m 0,2 c 3.047,0 5.5,2.453 5.5,5.5000001 0,3.047 -2.453,5.5 -5.5,5.5 -3.0470004,0 -5.5000004,-2.453 -5.5000004,-5.5 0,-3.0470001 2.453,-5.5000001 5.5000004,-5.5000001 z"
     id="rect3272" />
  <rect
     style="fill:#333333;fill-opacity:1;fill-rule:evenodd;stroke:none"
     id="rect3279"
     width="12"
     height="1"
     x="6.0146327"
     y="10.815391"
     ry="0" />
  <rect
     ry="0"
     y="11.514632"
     x="-17.31539"
     height="1"
     width="12"
     id="rect3281"
     style="fill:#333333;fill-opacity:1;fill-rule:evenodd;stroke:none"
     transform="matrix(0,-1,1,0,0,0)" />
  <path
     inkscape:connector-curvature="0"
     style="fill:#333333;fill-opacity:1;fill-rule:evenodd;stroke:none"
     d="m 8.6181481,6.9892069 c 1.0203312,0.5192 2.1688089,0.8262 3.3964849,0.8262 1.227676,0 2.376153,-0.307 3.396484,-0.8262 -0.31154,-0.2446 -0.65081,-0.4535 -1.011718,-0.6269 -0.737722,0.2908 -1.540729,0.4531 -2.384766,0.4531 -0.844037,0 -1.647044,-0.1623 -2.3847661,-0.4531 -0.3609081,0.1734 -0.700178,0.3823 -1.0117188,0.6269 z"
     id="path3330" />
  <path
     inkscape:connector-curvature="0"
     style="fill:#333333;fill-opacity:1;fill-rule:evenodd;stroke:none"
     d="m 8.6181325,15.641607 c 1.0203,-0.5192 2.1688005,-0.8262 3.3965005,-0.8262 1.2277,0 2.3762,0.307 3.3965,0.8262 -0.3116,0.2446 -0.6508,0.4535 -1.0117,0.6269 -0.7378,-0.2908 -1.5408,-0.4531 -2.3848,-0.4531 -0.844,0 -1.647,0.1623 -2.3848005,0.4531 -0.3609,-0.1734 -0.7001,-0.3823 -1.0117,-0.6269 z"
     id="path3336" />
</svg>
