<?xml version="1.0" encoding="UTF-8" standalone="no"?>
<!-- Created with Inkscape (http://www.inkscape.org/) -->

<svg
   xmlns:dc="http://purl.org/dc/elements/1.1/"
   xmlns:cc="http://creativecommons.org/ns#"
   xmlns:rdf="http://www.w3.org/1999/02/22-rdf-syntax-ns#"
   xmlns:svg="http://www.w3.org/2000/svg"
   xmlns="http://www.w3.org/2000/svg"
   xmlns:sodipodi="http://sodipodi.sourceforge.net/DTD/sodipodi-0.dtd"
   xmlns:inkscape="http://www.inkscape.org/namespaces/inkscape"
   width="48"
   height="48"
   id="svg3613"
   version="1.1"
   inkscape:version="0.48.4 r9939"
   sodipodi:docname="applications-system.svg">
  <defs
     id="defs3615" />
  <sodipodi:namedview
     id="base"
     pagecolor="#ffffff"
     bordercolor="#666666"
     borderopacity="1.0"
     inkscape:pageopacity="0.0"
     inkscape:pageshadow="2"
     inkscape:zoom="6.3003919"
     inkscape:cx="48.283535"
     inkscape:cy="32.860361"
     inkscape:document-units="px"
     inkscape:current-layer="layer1"
     showgrid="false"
     inkscape:window-width="1680"
     inkscape:window-height="991"
     inkscape:window-x="0"
     inkscape:window-y="-3"
     inkscape:window-maximized="1">
    <sodipodi:guide
       position="9,39.000017"
       orientation="30,0"
       id="guide3269" />
    <sodipodi:guide
       position="9,9.0000174"
       orientation="0,30"
       id="guide3271" />
    <sodipodi:guide
       position="39,9.0000174"
       orientation="-30,0"
       id="guide3273" />
    <sodipodi:guide
       position="39,39.000017"
       orientation="0,-30"
       id="guide3275" />
  </sodipodi:namedview>
  <metadata
     id="metadata3618">
    <rdf:RDF>
      <cc:Work
         rdf:about="">
        <dc:format>image/svg+xml</dc:format>
        <dc:type
           rdf:resource="http://purl.org/dc/dcmitype/StillImage" />
        <dc:title />
      </cc:Work>
    </rdf:RDF>
  </metadata>
  <g
     inkscape:label="Capa 1"
     inkscape:groupmode="layer"
     id="layer1"
     transform="translate(0,-1004.3622)">
    <rect
       style="fill:none;fill-opacity:1;fill-rule:evenodd;stroke:none"
       id="rect3265"
       width="30"
       height="30"
       x="9"
       y="1013.3622" />
    <path
       inkscape:connector-curvature="0"
       id="path4151"
       d="m 15.649387,1029.3639 c -0.446644,0 -0.89354,0.036 -1.332972,0.1289 l -0.704502,1.7047 0,0.02 c -0.25551,0.1065 -0.50592,0.2109 -0.74359,0.3466 -0.236296,0.1355 -0.45758,0.2952 -0.670469,0.4654 l -0.02244,-0.01 -1.835457,-0.2451 c -0.5848708,0.6756 -1.0440904,1.4541 -1.3387592,2.294 l 1.1353052,1.4692 0.01876,0.01 c -0.07858,0.5376 -0.07602,1.0893 0.0039,1.627 l -0.02313,0.01 L 9,1038.6554 c 0.1444954,0.42 0.327125,0.8266 0.5502749,1.2143 0.2231498,0.3833 0.4859311,0.745 0.7790761,1.0799 l 1.845588,-0.2466 0.0231,-0.01 c 0.428757,0.3382 0.905226,0.6151 1.413343,0.8184 l 0,0.017 0.708837,1.7123 c 0.877842,0.1662 1.785038,0.1609 2.663044,-0.01 l 0.705945,-1.7062 0,-0.019 c 0.253897,-0.1049 0.502941,-0.2101 0.739252,-0.3455 0.23767,-0.1357 0.460756,-0.2973 0.674815,-0.4673 l 0.02245,0.01 1.833287,0.2426 c 0.585228,-0.6734 1.043867,-1.4552 1.338757,-2.2959 l -1.133854,-1.4643 -0.0187,-0.01 c 0.07867,-0.5398 0.07626,-1.0889 -0.0029,-1.6263 l 0.0231,-0.01 1.134584,-1.4698 c -0.144383,-0.42 -0.325649,-0.8272 -0.548819,-1.2129 -0.223175,-0.3853 -0.487236,-0.7464 -0.780521,-1.0812 l -1.84415,0.2458 -0.02313,0.011 c -0.428581,-0.3378 -0.905448,-0.6154 -1.413344,-0.8182 l -7.44e-4,-0.017 -0.707397,-1.7106 c -0.439383,-0.095 -0.885598,-0.1243 -1.332241,-0.1234 z m -7.44e-4,2.9402 c 1.067643,0 2.129256,0.4376 2.884595,1.1906 0.755345,0.7525 1.195402,1.8085 1.195402,2.8714 0,1.0636 -0.440057,2.1211 -1.195402,2.872 -0.755339,0.7538 -1.816952,1.1901 -2.884595,1.1901 -1.067651,0 -2.128051,-0.4369 -2.882434,-1.1905 -0.754378,-0.7515 -1.193227,-1.8082 -1.193227,-2.8716 0,-1.0628 0.438849,-2.1189 1.193227,-2.8714 0.754383,-0.753 1.814783,-1.1905 2.882434,-1.1906 z"
       style="fill:#1a1a1a;fill-opacity:1;fill-rule:evenodd;stroke:none" />
    <path
       style="fill:#1a1a1a;fill-opacity:1;fill-rule:evenodd;stroke:none"
       d="m 29.499032,1013.3618 c -0.638076,0 -1.276522,0.058 -1.90431,0.1839 l -1.006458,2.4337 0,0.034 c -0.365032,0.1417 -0.722773,0.3012 -1.062316,0.4955 -0.337572,0.194 -0.653702,0.4217 -0.95784,0.6643 l -0.03207,-0.017 -2.62217,-0.3494 c -0.835559,0.9616 -1.491616,2.0756 -1.912578,3.276 l 1.621912,2.0976 0.02682,0.013 c -0.112271,0.769 -0.108631,1.5538 0.0056,2.3252 l -0.03305,0.017 L 20,1026.6383 c 0.206423,0.6001 0.467334,1.1813 0.786133,1.7302 0.318799,0.5511 0.694217,1.0677 1.113004,1.5459 l 2.636651,-0.3513 0.03303,-0.017 c 0.61252,0.4837 1.29322,0.8788 2.019122,1.1677 l 0,0.029 1.012662,2.446 c 1.254105,0.2372 2.550134,0.2286 3.804477,-0.011 l 1.008528,-2.4357 0,-0.032 c 0.362719,-0.141 0.718515,-0.3002 1.056109,-0.4928 0.339544,-0.1957 0.658247,-0.4253 0.964047,-0.6688 l 0.03207,0.017 2.619064,0.3494 c 0.836074,-0.9647 1.491293,-2.0776 1.912586,-3.2788 l -1.619855,-2.0939 -0.02682,-0.015 c 0.112451,-0.7686 0.109143,-1.5555 -0.0047,-2.3241 l 0.03304,-0.017 1.620886,-2.0984 c -0.206276,-0.6003 -0.465233,-1.1825 -0.784066,-1.7315 -0.318831,-0.5509 -0.69606,-1.0663 -1.115067,-1.5445 l -2.634585,0.3502 -0.03309,0.018 c -0.612271,-0.4831 -1.293535,-0.8792 -2.019124,-1.1669 l -10e-4,-0.029 -1.010596,-2.4429 c -0.627713,-0.1187 -1.265196,-0.1766 -1.90327,-0.1746 z m -0.001,4.1994 c 1.525262,0 3.041896,0.6251 4.120997,1.6999 1.0791,1.0744 1.70777,2.5822 1.70777,4.1012 0,1.519 -0.62867,3.0281 -1.70777,4.1025 -1.079101,1.0746 -2.595735,1.6989 -4.120997,1.6988 -1.525262,0 -3.040168,-0.6251 -4.117893,-1.6997 -1.077725,-1.0744 -1.704671,-2.5828 -1.704671,-4.1016 0,-1.5188 0.626946,-3.0268 1.704671,-4.1012 1.077725,-1.0748 2.592631,-1.6998 4.117893,-1.6999 z"
       id="path4112"
       inkscape:connector-curvature="0" />
    <path
       inkscape:connector-curvature="0"
       id="path2989"
       d="m 29.498991,1012.8006 c -0.664458,0 -1.329304,0.061 -1.98305,0.1932 l -1.048074,2.5566 0,0.036 c -0.380126,0.1489 -0.752658,0.3164 -1.10624,0.5206 -0.351531,0.2038 -0.680732,0.443 -0.997446,0.6979 l -0.03339,-0.017 -2.730593,-0.3671 c -0.870108,1.01 -1.553293,2.1804 -1.991661,3.4414 l 1.688976,2.2034 0.02792,0.013 c -0.116912,0.8079 -0.113122,1.6323 0.0058,2.4426 l -0.03442,0.017 -1.689663,2.2089 c 0.214959,0.6304 0.486658,1.2408 0.818639,1.8174 0.33198,0.5791 0.722922,1.1217 1.159025,1.624 l 2.745673,-0.3689 0.03439,-0.017 c 0.637847,0.5079 1.346692,0.9231 2.102609,1.2265 l 0,0.031 1.054535,2.5695 c 1.30596,0.2492 2.655579,0.2402 3.961788,-0.011 l 1.050227,-2.5588 0,-0.033 c 0.377718,-0.1482 0.748225,-0.3153 1.099778,-0.5177 0.353584,-0.2057 0.685465,-0.4468 1.003909,-0.7026 l 0.03339,0.017 2.727359,0.3671 c 0.870643,-1.0134 1.552954,-2.1825 1.991668,-3.4444 l -1.686834,-2.1995 -0.02792,-0.015 c 0.1171,-0.8074 0.113657,-1.6342 -0.0049,-2.4414 l 0.0344,-0.017 1.687908,-2.2043 c -0.214806,-0.6306 -0.48447,-1.2423 -0.816487,-1.819 -0.332014,-0.5787 -0.72484,-1.1202 -1.161173,-1.6226 l -2.743522,0.368 -0.03446,0.018 c -0.637587,-0.5075 -1.347021,-0.9235 -2.102612,-1.2259 l -10e-4,-0.03 -1.052384,-2.5663 c -0.653667,-0.1246 -1.31751,-0.1854 -1.981966,-0.1834 z m -0.001,4.4115 c 1.588329,0 3.167674,0.6567 4.291394,1.7858 1.12372,1.1285 1.778384,2.7126 1.778384,4.3083 0,1.5957 -0.654664,3.181 -1.778384,4.3098 -1.12372,1.1287 -2.703065,1.7846 -4.291394,1.7845 -1.58833,0 -3.165875,-0.6567 -4.288163,-1.7857 -1.122287,-1.1285 -1.775156,-2.7131 -1.775156,-4.3086 0,-1.5955 0.652869,-3.1798 1.775156,-4.3083 1.122288,-1.1291 2.699833,-1.7857 4.288163,-1.7858 z"
       style="opacity:0.3;fill:#1a1a1a;fill-opacity:1;fill-rule:evenodd;stroke:none" />
    <path
       style="opacity:0.3;fill:#1a1a1a;fill-opacity:1;fill-rule:evenodd;stroke:none"
       d="m 15.64934,1029.0272 c -0.480564,0 -0.9614,0.038 -1.434207,0.1362 l -0.758006,1.8004 0,0.02 c -0.274915,0.1125 -0.544343,0.2227 -0.800063,0.366 -0.254242,0.1431 -0.492332,0.3117 -0.721389,0.4916 l -0.02414,-0.01 -1.9748538,-0.2589 c -0.6292896,0.7135 -1.1233854,1.5358 -1.4404334,2.4228 l 1.2215278,1.5517 0.020185,0.01 c -0.084548,0.5677 -0.081794,1.1504 0.0042,1.7183 l -0.024886,0.01 -1.2223109,1.5539 c 0.1554694,0.4437 0.3519691,0.8731 0.5920664,1.2825 0.2400973,0.4049 0.522836,0.7868 0.8382443,1.1405 l 1.9857546,-0.2604 0.02486,-0.01 c 0.46132,0.3571 0.973974,0.6496 1.520682,0.8643 l 0,0.017 0.76267,1.8084 c 0.944511,0.1756 1.920605,0.1699 2.865293,-0.01 l 0.759559,-1.8019 0,-0.019 c 0.273179,-0.1108 0.541138,-0.2219 0.795396,-0.365 0.25572,-0.1433 0.495748,-0.3139 0.726065,-0.4934 l 0.02415,0.01 1.972519,0.2562 c 0.629674,-0.7112 1.123145,-1.5368 1.440431,-2.4247 l -1.219966,-1.5465 -0.02013,-0.01 c 0.08465,-0.5701 0.08206,-1.15 -0.0031,-1.7176 l 0.02486,-0.01 1.220751,-1.5524 c -0.155348,-0.4436 -0.350381,-0.8736 -0.590499,-1.281 -0.240125,-0.4068 -0.52424,-0.7882 -0.839799,-1.1419 l -1.984207,0.2597 -0.02489,0.011 c -0.461131,-0.3568 -0.974215,-0.6499 -1.520684,-0.8641 l -8e-4,-0.017 -0.761122,-1.8066 c -0.472752,-0.1002 -0.952856,-0.1313 -1.43342,-0.1304 z m -8.01e-4,3.1053 c 1.148728,0 2.290967,0.4621 3.103672,1.2574 0.812711,0.7947 1.286188,1.91 1.286188,3.0325 0,1.1233 -0.473477,2.2402 -1.286188,3.0332 -0.812705,0.796 -1.954944,1.2569 -3.103672,1.2569 -1.148734,0 -2.289669,-0.4615 -3.101344,-1.2573 -0.811671,-0.7937 -1.283849,-1.9097 -1.283849,-3.0328 0,-1.1224 0.472178,-2.2378 1.283849,-3.0325 0.811675,-0.7953 1.95261,-1.2573 3.101344,-1.2574 z"
       id="path2991"
       inkscape:connector-curvature="0" />
  </g>
</svg>
