<?xml version="1.0" encoding="UTF-8" standalone="no"?>
<!-- Created with Inkscape (http://www.inkscape.org/) -->

<svg
   xmlns:dc="http://purl.org/dc/elements/1.1/"
   xmlns:cc="http://creativecommons.org/ns#"
   xmlns:rdf="http://www.w3.org/1999/02/22-rdf-syntax-ns#"
   xmlns:svg="http://www.w3.org/2000/svg"
   xmlns="http://www.w3.org/2000/svg"
   xmlns:sodipodi="http://sodipodi.sourceforge.net/DTD/sodipodi-0.dtd"
   xmlns:inkscape="http://www.inkscape.org/namespaces/inkscape"
   width="22"
   height="22"
   id="svg3760"
   version="1.1"
   inkscape:version="0.91 r13725"
   sodipodi:docname="audio-volume-medium.svg">
  <defs
     id="defs3762" />
  <sodipodi:namedview
     id="base"
     pagecolor="#ffffff"
     bordercolor="#666666"
     borderopacity="1.0"
     inkscape:pageopacity="0.0"
     inkscape:pageshadow="2"
     inkscape:zoom="8.0000004"
     inkscape:cx="24.141999"
     inkscape:cy="-1.2045697"
     inkscape:document-units="px"
     inkscape:current-layer="layer1"
     showgrid="true"
     fit-margin-top="0"
     fit-margin-left="0"
     fit-margin-right="0"
     fit-margin-bottom="0"
     inkscape:window-width="1366"
     inkscape:window-height="689"
     inkscape:window-x="-4"
     inkscape:window-y="0"
     inkscape:window-maximized="1"
     inkscape:showpageshadow="false"
     showguides="true">
    <inkscape:grid
       type="xygrid"
       id="grid4106"
       originx="-0.99998557px"
       originy="-1.0000252px" />
  </sodipodi:namedview>
  <metadata
     id="metadata3765">
    <rdf:RDF>
      <cc:Work
         rdf:about="">
        <dc:format>image/svg+xml</dc:format>
        <dc:type
           rdf:resource="http://purl.org/dc/dcmitype/StillImage" />
        <dc:title></dc:title>
      </cc:Work>
    </rdf:RDF>
  </metadata>
  <g
     inkscape:label="Capa 1"
     inkscape:groupmode="layer"
     id="layer1"
     transform="translate(-551.28571,-607.64788)">
    <rect
       style="fill:#ff0000;fill-opacity:0;stroke:none"
       id="rect3812"
       width="22"
       height="22"
       x="551.28571"
       y="608.64789" />
    <rect
       y="617.64789"
       x="591.28571"
       height="22"
       width="22"
       id="rect4168"
       style="fill:#ff0000;fill-opacity:0;stroke:none" />
    <g
       id="g4169"
       style="fill:#1a1a1a;fill-opacity:1"
       transform="translate(-40,-10)">
      <path
         inkscape:connector-curvature="0"
         id="path4160"
         d="m 599.83063,621.64898 c -0.37158,0.0161 -0.7157,0.2041 -0.94531,0.47265 l -2.47266,2.7461 -2.75976,0 c -0.78909,8e-5 -1.36712,0.69821 -1.36719,1.45312 l 0,4.70899 c 7e-5,0.75491 0.59794,1.42374 1.36719,1.42382 l 2.75976,0 2.48047,2.75586 c 0.012,0.0137 0.0247,0.0264 0.0371,0.0391 4.3e-4,4.6e-4 0.002,-4.5e-4 0.002,0 0.41909,0.43844 1.06169,0.49719 1.52539,0.26367 0.46418,-0.23374 0.80192,-0.73713 0.78907,-1.33398 l 0,-11.07617 c -7e-5,-0.75491 -0.57811,-1.45303 -1.36719,-1.45312 -0.0147,-2.2e-4 -0.0303,-4.9e-4 -0.0449,0 l -0.002,0 -0.002,0 z m 0.041,1 0.002,0 0.006,0 c 0.21232,2e-5 0.36716,0.16717 0.36719,0.45312 l 0,11.0918 0,0.006 c 0.005,0.21358 -0.11037,0.35452 -0.24024,0.41992 -0.12986,0.0654 -0.22116,0.0763 -0.35156,-0.0606 l -0.006,-0.006 -0.004,-0.004 c -0.001,-10e-4 -0.003,-0.003 -0.004,-0.004 l 0,-0.002 -2.7832,-3.08984 -3.20508,0 c -0.23216,10e-6 -0.36715,-0.13784 -0.36718,-0.42379 l 0,-4.70899 c 3e-5,-0.28595 0.15487,-0.4531 0.36719,-0.45312 l 3.20508,0 2.7832,-3.0918 0.004,-0.004 c 0.08,-0.0938 0.13299,-0.11869 0.22656,-0.12304 z"
         style="color:#000000;font-style:normal;font-variant:normal;font-weight:normal;font-stretch:normal;font-size:medium;line-height:normal;font-family:Sans;-inkscape-font-specification:Sans;text-indent:0;text-align:start;text-decoration:none;text-decoration-line:none;text-decoration-style:solid;text-decoration-color:#000000;letter-spacing:normal;word-spacing:normal;text-transform:none;direction:ltr;block-progression:tb;writing-mode:lr-tb;baseline-shift:baseline;text-anchor:start;white-space:normal;clip-rule:nonzero;display:inline;overflow:visible;visibility:visible;opacity:1;isolation:auto;mix-blend-mode:normal;color-interpolation:sRGB;color-interpolation-filters:linearRGB;solid-color:#000000;solid-opacity:1;fill:#1a1a1a;fill-opacity:1;fill-rule:nonzero;stroke:none;stroke-width:1.00004375;stroke-linecap:butt;stroke-linejoin:miter;stroke-miterlimit:4;stroke-dasharray:none;stroke-dashoffset:0;stroke-opacity:1;marker:none;color-rendering:auto;image-rendering:auto;shape-rendering:auto;text-rendering:auto;enable-background:accumulate" />
      <path
         inkscape:connector-curvature="0"
         id="path4184"
         d="m 603.56305,624.23186 -0.55468,0.83204 c 0,0 0.26805,0.16745 0.59765,0.71679 0.32961,0.54934 0.67969,1.45052 0.67969,2.86719 0,1.41667 -0.35008,2.31785 -0.67969,2.86719 -0.3296,0.54934 -0.59765,0.71679 -0.59765,0.71679 l 0.55468,0.83204 c 0,0 0.48195,-0.33255 0.90235,-1.03321 0.42039,-0.70066 0.82031,-1.79948 0.82031,-3.38281 0,-1.58333 -0.39992,-2.68215 -0.82031,-3.38281 -0.4204,-0.70066 -0.90235,-1.03321 -0.90235,-1.03321 z"
         style="color:#000000;font-style:normal;font-variant:normal;font-weight:normal;font-stretch:normal;font-size:medium;line-height:normal;font-family:sans-serif;text-indent:0;text-align:start;text-decoration:none;text-decoration-line:none;text-decoration-style:solid;text-decoration-color:#000000;letter-spacing:normal;word-spacing:normal;text-transform:none;direction:ltr;block-progression:tb;writing-mode:lr-tb;baseline-shift:baseline;text-anchor:start;white-space:normal;clip-rule:nonzero;display:inline;overflow:visible;visibility:visible;opacity:1;isolation:auto;mix-blend-mode:normal;color-interpolation:sRGB;color-interpolation-filters:linearRGB;solid-color:#000000;solid-opacity:1;fill:#1a1a1a;fill-opacity:1;fill-rule:evenodd;stroke:none;stroke-width:1px;stroke-linecap:butt;stroke-linejoin:miter;stroke-miterlimit:4;stroke-dasharray:none;stroke-dashoffset:0;stroke-opacity:1;color-rendering:auto;image-rendering:auto;shape-rendering:auto;text-rendering:auto;enable-background:accumulate" />
      <path
         inkscape:connector-curvature="0"
         id="path4186"
         d="m 606.63923,622.29436 -0.70704,0.70704 c 0,0 0.43607,0.42876 0.90625,1.36914 0.47019,0.94037 0.94727,2.36067 0.94727,4.27734 0,1.91667 -0.47708,3.33697 -0.94727,4.27734 -0.47018,0.94037 -0.90625,1.36914 -0.90625,1.36914 l 0.70704,0.70704 c 0,0 0.56393,-0.57124 1.09375,-1.63086 0.52981,-1.05963 1.05273,-2.63933 1.05273,-4.72266 0,-2.08333 -0.52292,-3.66303 -1.05273,-4.72266 -0.52982,-1.05963 -1.09375,-1.63086 -1.09375,-1.63086 z"
         style="color:#000000;font-style:normal;font-variant:normal;font-weight:normal;font-stretch:normal;font-size:medium;line-height:normal;font-family:sans-serif;text-indent:0;text-align:start;text-decoration:none;text-decoration-line:none;text-decoration-style:solid;text-decoration-color:#000000;letter-spacing:normal;word-spacing:normal;text-transform:none;direction:ltr;block-progression:tb;writing-mode:lr-tb;baseline-shift:baseline;text-anchor:start;white-space:normal;clip-rule:nonzero;display:inline;overflow:visible;visibility:visible;opacity:1;isolation:auto;mix-blend-mode:normal;color-interpolation:sRGB;color-interpolation-filters:linearRGB;solid-color:#000000;solid-opacity:1;fill:#1a1a1a;fill-opacity:1;fill-rule:evenodd;stroke:none;stroke-width:1px;stroke-linecap:butt;stroke-linejoin:miter;stroke-miterlimit:4;stroke-dasharray:none;stroke-dashoffset:0;stroke-opacity:1;color-rendering:auto;image-rendering:auto;shape-rendering:auto;text-rendering:auto;enable-background:accumulate" />
    </g>
  </g>
</svg>
