<?xml version="1.0" encoding="UTF-8" standalone="no"?>
<!-- Created with Inkscape (http://www.inkscape.org/) -->

<svg
   xmlns:dc="http://purl.org/dc/elements/1.1/"
   xmlns:cc="http://creativecommons.org/ns#"
   xmlns:rdf="http://www.w3.org/1999/02/22-rdf-syntax-ns#"
   xmlns:svg="http://www.w3.org/2000/svg"
   xmlns="http://www.w3.org/2000/svg"
   xmlns:sodipodi="http://sodipodi.sourceforge.net/DTD/sodipodi-0.dtd"
   xmlns:inkscape="http://www.inkscape.org/namespaces/inkscape"
   width="48"
   height="48"
   id="svg2"
   version="1.1"
   inkscape:version="0.48.4 r9939"
   sodipodi:docname="audio-volume-high-panel.svg">
  <defs
     id="defs4" />
  <sodipodi:namedview
     id="base"
     pagecolor="#ffffff"
     bordercolor="#666666"
     borderopacity="1.0"
     inkscape:pageopacity="0.0"
     inkscape:pageshadow="2"
     inkscape:zoom="8.4963765"
     inkscape:cx="2.5238545"
     inkscape:cy="18.810527"
     inkscape:document-units="px"
     inkscape:current-layer="layer1"
     showgrid="false"
     showguides="true"
     inkscape:window-width="618"
     inkscape:window-height="449"
     inkscape:window-x="316"
     inkscape:window-y="25"
     inkscape:window-maximized="0"
     inkscape:guide-bbox="true">
    <sodipodi:guide
       position="5.8848616,37.545417"
       orientation="30,0"
       id="guide3267" />
    <sodipodi:guide
       position="15.182943,5.8848616"
       orientation="0,30"
       id="guide3269" />
    <sodipodi:guide
       position="22.009382,44.136462"
       orientation="0,-30"
       id="guide3273" />
    <sodipodi:guide
       position="28,21.999529"
       orientation="13,0"
       id="guide4255" />
    <sodipodi:guide
       position="39,21.999529"
       orientation="0,-11"
       id="guide4261" />
    <sodipodi:guide
       position="9,26.000017"
       orientation="0,19.000002"
       id="guide4293" />
    <sodipodi:guide
       position="28.000002,26.000017"
       orientation="-13,0"
       id="guide4295" />
    <sodipodi:guide
       orientation="1,0"
       position="42.017912,36.956931"
       id="guide3016" />
  </sodipodi:namedview>
  <metadata
     id="metadata7">
    <rdf:RDF>
      <cc:Work
         rdf:about="">
        <dc:format>image/svg+xml</dc:format>
        <dc:type
           rdf:resource="http://purl.org/dc/dcmitype/StillImage" />
        <dc:title />
      </cc:Work>
    </rdf:RDF>
  </metadata>
  <g
     inkscape:label="Capa 1"
     inkscape:groupmode="layer"
     id="layer1"
     transform="translate(0,-1004.3622)">
    <rect
       style="fill:none;fill-opacity:1;fill-rule:evenodd;stroke:none"
       id="rect3263"
       width="30"
       height="30"
       x="9"
       y="1013.3622" />
    <path
       sodipodi:type="arc"
       style="fill:none;fill-opacity:0.64088398;fill-rule:evenodd;stroke:none"
       id="path4242"
       sodipodi:cx="21.999308"
       sodipodi:cy="1028.3622"
       sodipodi:rx="1.0006928"
       sodipodi:ry="1.0000308"
       d="m 23,1028.3622 c 0,0.5523 -0.448025,1 -1.000692,1 -0.552668,0 -1.000693,-0.4477 -1.000693,-1 0,-0.5523 0.448025,-1 1.000693,-1 0.552667,0 1.000692,0.4477 1.000692,1 z" />
    <g
       id="audio-volume-high"
       transform="matrix(1.9366739,0,0,1.9121536,0.7599132,1005.4164)"
       style="fill:#1a1a1a">
      <g
         transform="translate(2e-7,-0.49999995)"
         id="g3952"
         style="fill:#1a1a1a">
        <path
           inkscape:connector-curvature="0"
           d="m 16.974359,2.0011754 c -0.441215,0.029429 -0.815745,0.61772 -0.412447,1.0373658 2.359896,2.4548838 3.530095,5.5625838 3.568291,8.9613468 -0.03799,3.398761 -1.208395,6.506062 -3.568291,8.961345 -0.53773,0.559328 0.31096,1.416669 0.84989,0.85614 2.579268,-2.683454 3.876651,-6.102764 3.918246,-9.817485 C 21.288448,8.2851659 19.99107,4.8654564 17.411802,2.1824021 17.27712,2.0422202 17.121431,1.991364 16.974359,2.0011754 z M 14.79339,4.0696593 c -0.440466,0.028657 -0.820494,0.61622 -0.418696,1.0373657 1.822165,1.9115543 2.706201,4.2574019 2.743396,6.892863 -0.03719,2.63546 -0.921231,4.981508 -2.743396,6.892862 -0.535732,0.561727 0.313159,1.413018 0.84989,0.84989 2.041138,-2.140724 3.058007,-4.790133 3.099601,-7.742752 C 18.282595,9.0474679 17.265722,6.3978593 15.224584,4.2571345 15.090402,4.1164031 14.940211,4.0601069 14.79339,4.0696593 z m -4.299447,2.01224 -3.41206,3.4120609 -4.4119314,0 0,5.0118538 4.4119314,0 3.41206,3.412061 0,-11.8359757 z m 2.118478,0.062495 c -0.438797,0.027276 -0.817045,0.6072714 -0.418697,1.0311172 1.297234,1.3804219 1.884658,2.9372215 1.912255,4.8243785 -0.0276,1.887557 -0.615021,3.443557 -1.912255,4.824379 -0.531131,0.565127 0.317359,1.417018 0.849891,0.84989 1.513206,-1.609992 2.236462,-3.468553 2.268458,-5.674269 C 15.280073,9.7945742 14.557021,7.9358134 13.043615,6.325621 12.910482,6.1839393 12.758686,6.1353021 12.612421,6.1443945 z"
           id="polygon3"
           style="fill:#1a1a1a;fill-opacity:1" />
      </g>
      <rect
         ry="0.21057887"
         y="0"
         x="0"
         height="24"
         width="24"
         id="rect3956"
         style="fill:#1a1a1a;fill-opacity:0;stroke:none" />
    </g>
  </g>
</svg>
