<?xml version="1.0" encoding="UTF-8" standalone="no"?>
<!-- Created with Inkscape (http://www.inkscape.org/) -->

<svg
   xmlns:dc="http://purl.org/dc/elements/1.1/"
   xmlns:cc="http://creativecommons.org/ns#"
   xmlns:rdf="http://www.w3.org/1999/02/22-rdf-syntax-ns#"
   xmlns:svg="http://www.w3.org/2000/svg"
   xmlns="http://www.w3.org/2000/svg"
   xmlns:xlink="http://www.w3.org/1999/xlink"
   xmlns:sodipodi="http://sodipodi.sourceforge.net/DTD/sodipodi-0.dtd"
   xmlns:inkscape="http://www.inkscape.org/namespaces/inkscape"
   version="1.0"
   width="96"
   height="96"
   id="svg2408"
   inkscape:version="0.48.4 r9939"
   sodipodi:docname="drive-removable-media-usb-pendrive.svg">
  <sodipodi:namedview
     pagecolor="#ffffff"
     bordercolor="#666666"
     borderopacity="1"
     objecttolerance="10"
     gridtolerance="10"
     guidetolerance="10"
     inkscape:pageopacity="0"
     inkscape:pageshadow="2"
     inkscape:window-width="1680"
     inkscape:window-height="991"
     id="namedview123"
     showgrid="false"
     inkscape:zoom="4.4359902"
     inkscape:cx="58.628678"
     inkscape:cy="50.829659"
     inkscape:window-x="-2"
     inkscape:window-y="-3"
     inkscape:window-maximized="1"
     inkscape:current-layer="svg2408"
     showguides="true"
     inkscape:guide-bbox="true" />
  <defs
     id="defs2410">
    <linearGradient
       id="linearGradient3733">
      <stop
         id="stop3735"
         style="stop-color:#ffbf67;stop-opacity:1"
         offset="0" />
      <stop
         id="stop3737"
         style="stop-color:#c70000;stop-opacity:1"
         offset="1" />
    </linearGradient>
    <linearGradient
       id="linearGradient4327">
      <stop
         id="stop4329"
         style="stop-color:#f0f0f0;stop-opacity:1"
         offset="0" />
      <stop
         id="stop4331"
         style="stop-color:#b4b4b4;stop-opacity:1"
         offset="1" />
    </linearGradient>
    <linearGradient
       id="linearGradient4225">
      <stop
         id="stop4227"
         style="stop-color:#000000;stop-opacity:1"
         offset="0" />
      <stop
         id="stop4229"
         style="stop-color:#484848;stop-opacity:1"
         offset="1" />
    </linearGradient>
    <linearGradient
       id="linearGradient3322">
      <stop
         id="stop3324"
         style="stop-color:#7a7a7a;stop-opacity:1"
         offset="0" />
      <stop
         id="stop3326"
         style="stop-color:#f9f9f9;stop-opacity:1"
         offset="0.2032043" />
      <stop
         id="stop3328"
         style="stop-color:#c9c9c9;stop-opacity:1"
         offset="0.42969123" />
      <stop
         id="stop3330"
         style="stop-color:#dedede;stop-opacity:0"
         offset="1" />
    </linearGradient>
    <linearGradient
       id="linearGradient3448">
      <stop
         id="stop3450"
         style="stop-color:#000000;stop-opacity:1"
         offset="0" />
      <stop
         id="stop3452"
         style="stop-color:#000000;stop-opacity:0"
         offset="1" />
    </linearGradient>
    <linearGradient
       id="linearGradient3376">
      <stop
         id="stop3378"
         style="stop-color:#767676;stop-opacity:1"
         offset="0" />
      <stop
         id="stop3380"
         style="stop-color:#fdfdfd;stop-opacity:1"
         offset="1" />
    </linearGradient>
    <linearGradient
       id="linearGradient3273">
      <stop
         id="stop3275"
         style="stop-color:#7a7a7a;stop-opacity:1"
         offset="0" />
      <stop
         id="stop3281"
         style="stop-color:#f9f9f9;stop-opacity:1"
         offset="0.14636412" />
      <stop
         id="stop3283"
         style="stop-color:#c9c9c9;stop-opacity:1"
         offset="0.37253973" />
      <stop
         id="stop3277"
         style="stop-color:#dedede;stop-opacity:0"
         offset="1" />
    </linearGradient>
    <linearGradient
       id="linearGradient3220">
      <stop
         id="stop3222"
         style="stop-color:#ffffff;stop-opacity:1"
         offset="0" />
      <stop
         id="stop3224"
         style="stop-color:#bfbfbf;stop-opacity:0"
         offset="1" />
    </linearGradient>
    <linearGradient
       id="linearGradient3173">
      <stop
         id="stop3175"
         style="stop-color:#e6e6e6;stop-opacity:1"
         offset="0" />
      <stop
         id="stop3189"
         style="stop-color:#c3c3c3;stop-opacity:1"
         offset="0.26003402" />
      <stop
         id="stop3187"
         style="stop-color:#b9b9b9;stop-opacity:1"
         offset="0.49180263" />
      <stop
         id="stop3191"
         style="stop-color:#c8c8c8;stop-opacity:1"
         offset="0.75914466" />
      <stop
         id="stop3177"
         style="stop-color:#e6e6e6;stop-opacity:1"
         offset="1" />
    </linearGradient>
    <linearGradient
       x1="45.447727"
       y1="92.539597"
       x2="45.447727"
       y2="7.0165396"
       id="ButtonShadow"
       gradientUnits="userSpaceOnUse"
       gradientTransform="scale(1.0058652,0.994169)">
      <stop
         id="stop3750"
         style="stop-color:#000000;stop-opacity:1"
         offset="0" />
      <stop
         id="stop3752"
         style="stop-color:#000000;stop-opacity:0.58823532"
         offset="1" />
    </linearGradient>
    <linearGradient
       id="linearGradient3737">
      <stop
         id="stop3739"
         style="stop-color:#ffffff;stop-opacity:1"
         offset="0" />
      <stop
         id="stop3741"
         style="stop-color:#ffffff;stop-opacity:0"
         offset="1" />
    </linearGradient>
    <filter
       x="-0.29508197"
       y="-0.46153846"
       width="1.5901639"
       height="1.9230769"
       color-interpolation-filters="sRGB"
       id="filter3179">
      <feGaussianBlur
         id="feGaussianBlur3181"
         stdDeviation="6.6964288" />
    </filter>
    <filter
       color-interpolation-filters="sRGB"
       id="filter3174">
      <feGaussianBlur
         id="feGaussianBlur3176"
         stdDeviation="1.71" />
    </filter>
    <linearGradient
       x1="36.357143"
       y1="6"
       x2="36.357143"
       y2="63.893143"
       id="linearGradient3188"
       xlink:href="#linearGradient3737"
       gradientUnits="userSpaceOnUse" />
    <linearGradient
       x1="-1.857143"
       y1="86.214287"
       x2="88"
       y2="8.6071424"
       id="linearGradient3179"
       xlink:href="#linearGradient3173"
       gradientUnits="userSpaceOnUse" />
    <linearGradient
       x1="6"
       y1="77.09375"
       x2="32"
       y2="77.09375"
       id="linearGradient3279"
       xlink:href="#linearGradient3322"
       gradientUnits="userSpaceOnUse" />
    <linearGradient
       x1="6"
       y1="77.09375"
       x2="32.030617"
       y2="77.09375"
       id="linearGradient3287"
       xlink:href="#linearGradient3273"
       gradientUnits="userSpaceOnUse"
       gradientTransform="matrix(-1,0,0,1,96.030615,0)" />
    <linearGradient
       x1="6"
       y1="75.5"
       x2="45.219246"
       y2="75.5"
       id="linearGradient3454"
       xlink:href="#linearGradient3448"
       gradientUnits="userSpaceOnUse"
       gradientTransform="matrix(-1,0,0,1,96,0)" />
    <linearGradient
       x1="48"
       y1="77.09375"
       x2="48"
       y2="90"
       id="linearGradient3460"
       xlink:href="#linearGradient3448"
       gradientUnits="userSpaceOnUse" />
    <linearGradient
       x1="41.041885"
       y1="72"
       x2="48"
       y2="19.160589"
       id="linearGradient3517"
       xlink:href="#linearGradient3737"
       gradientUnits="userSpaceOnUse" />
    <linearGradient
       x1="38.765545"
       y1="73"
       x2="38.765545"
       y2="-60.29591"
       id="linearGradient3527"
       xlink:href="#linearGradient3448"
       gradientUnits="userSpaceOnUse"
       gradientTransform="matrix(1.0277778,0,0,1.0499999,-0.3055556,-2.6499999)" />
    <linearGradient
       x1="44.324883"
       y1="12"
       x2="44.324883"
       y2="72.11245"
       id="linearGradient3547"
       xlink:href="#linearGradient4327"
       gradientUnits="userSpaceOnUse" />
    <linearGradient
       x1="46.810722"
       y1="8.046936"
       x2="46.548832"
       y2="77.872437"
       id="linearGradient3551"
       xlink:href="#linearGradient3220"
       gradientUnits="userSpaceOnUse"
       gradientTransform="matrix(1,0,0,-1,0,84)" />
    <linearGradient
       x1="15.999999"
       y1="85.0625"
       x2="20.178572"
       y2="85.0625"
       id="linearGradient3556"
       xlink:href="#linearGradient3376"
       gradientUnits="userSpaceOnUse" />
    <radialGradient
       cx="18.089285"
       cy="85.0625"
       r="2.0892856"
       fx="18.089285"
       fy="85.0625"
       id="radialGradient3558"
       xlink:href="#linearGradient3733"
       gradientUnits="userSpaceOnUse"
       gradientTransform="matrix(1,0,0,1.0042736,0,-0.3635233)" />
    <linearGradient
       x1="67.071426"
       y1="80"
       x2="67.071426"
       y2="88.011475"
       id="linearGradient4231"
       xlink:href="#linearGradient4225"
       gradientUnits="userSpaceOnUse"
       gradientTransform="translate(-2,0)" />
    <linearGradient
       x1="67.071426"
       y1="80"
       x2="67.071426"
       y2="88.011475"
       id="linearGradient4239"
       xlink:href="#linearGradient3737"
       gradientUnits="userSpaceOnUse" />
    <clipPath
       id="clipPath3306">
      <rect
         width="72"
         height="60"
         rx="4"
         ry="4"
         x="12"
         y="12"
         id="rect3308"
         style="fill:#ffffff;fill-opacity:1;fill-rule:nonzero;stroke:none" />
    </clipPath>
    <linearGradient
       x1="15.656256"
       y1="69.394279"
       x2="46.594883"
       y2="39.82095"
       id="linearGradient3540"
       xlink:href="#linearGradient3220"
       gradientUnits="userSpaceOnUse" />
    <filter
       x="-0.12267826"
       y="-0.17991199"
       width="1.2453564"
       height="1.3598239"
       color-interpolation-filters="sRGB"
       id="filter3642">
      <feGaussianBlur
         id="feGaussianBlur3644"
         stdDeviation="3.178304" />
    </filter>
    <linearGradient
       id="linearGradient3767">
      <stop
         id="stop3769"
         style="stop-color:#4d4d4d;stop-opacity:0.70731705"
         offset="0" />
      <stop
         id="stop3771"
         style="stop-color:#4d4d4d;stop-opacity:0.25203252"
         offset="1" />
    </linearGradient>
    <linearGradient
       x1="32.251034"
       y1="6.1317081"
       x2="32.251034"
       y2="90.238609"
       id="linearGradient3721"
       xlink:href="#ButtonShadow-0"
       gradientUnits="userSpaceOnUse"
       gradientTransform="translate(0,-97)" />
    <linearGradient
       x1="45.447727"
       y1="92.539597"
       x2="45.447727"
       y2="7.0165396"
       id="ButtonShadow-0"
       gradientUnits="userSpaceOnUse"
       gradientTransform="matrix(1.0058652,0,0,0.994169,100,0)">
      <stop
         id="stop3750-8"
         style="stop-color:#000000;stop-opacity:1"
         offset="0" />
      <stop
         id="stop3752-5"
         style="stop-color:#000000;stop-opacity:0.58823532"
         offset="1" />
    </linearGradient>
    <linearGradient
       x1="32.251034"
       y1="6.1317081"
       x2="32.251034"
       y2="90.238609"
       id="linearGradient3725"
       xlink:href="#ButtonShadow-0"
       gradientUnits="userSpaceOnUse"
       gradientTransform="matrix(1.0238095,0,0,1.0119048,-1.1428571,-98.071429)" />
    <linearGradient
       x1="32.251034"
       y1="6.1317081"
       x2="32.251034"
       y2="90.238609"
       id="linearGradient3772"
       xlink:href="#ButtonShadow-0"
       gradientUnits="userSpaceOnUse"
       gradientTransform="matrix(1.0238095,0,0,1.0119048,-1.1428571,-98.071429)" />
    <linearGradient
       x1="32.251034"
       y1="6.1317081"
       x2="32.251034"
       y2="90.238609"
       id="linearGradient3780"
       xlink:href="#ButtonShadow-0"
       gradientUnits="userSpaceOnUse"
       gradientTransform="matrix(1.0238095,0,0,1.0119048,-1.1428571,-98.071429)" />
    <linearGradient
       x1="32.251034"
       y1="6.1317081"
       x2="32.251034"
       y2="90.238609"
       id="linearGradient3039"
       xlink:href="#ButtonShadow-0"
       gradientUnits="userSpaceOnUse"
       gradientTransform="matrix(1.0238095,0,0,1.0119048,-1.1428571,-98.071429)" />
    <linearGradient
       x1="50"
       y1="62"
       x2="50"
       y2="20"
       id="linearGradient3949"
       xlink:href="#linearGradient3767"
       gradientUnits="userSpaceOnUse" />
    <clipPath
       id="clipPath3980">
      <path
         d="m -84,12 c -2.216,0 -4,1.784 -4,4 l 0,52 c 0,2.216 1.784,4 4,4 l 64,0 c 2.216,0 4,-1.784 4,-4 l 0,-52 c 0,-2.216 -1.784,-4 -4,-4 l -64,0 z m 32,8 c 8.413849,0 15.809201,3.796888 20.09375,9.53125 l -3.71875,1.875 -11.71875,5.90625 A 1.1937775,1.1937775 0 0 0 -47.5625,37.5 c -1.095677,-1.06642 -2.667782,-1.75 -4.4375,-1.75 -3.313708,0 -6,2.350506 -6,5.25 0,2.899494 2.686292,5.25 6,5.25 1.752367,0 3.311852,-0.6705 4.40625,-1.71875 a 1.1937775,1.1937775 0 0 0 0.25,0.15625 l 11.71875,5.90625 3.71875,1.875 C -36.190799,58.203112 -43.586151,62 -52,62 -65.254834,62 -76,52.59798 -76,41 -76,29.40202 -65.254834,20 -52,20 z m 23.78125,10.5 c 4.287187,6.497423 4.287187,14.502577 0,21 l -3.875,-1.96875 L -43.8125,43.625 C -43.301968,42.852783 -43,41.956275 -43,41 c 0,-0.956275 -0.301968,-1.852783 -0.8125,-2.625 l 11.71875,-5.90625 3.875,-1.96875 z"
         inkscape:connector-curvature="0"
         id="path3982"
         style="opacity:0.2;fill:#803300;fill-opacity:1;fill-rule:nonzero;stroke:none;display:inline" />
    </clipPath>
    <filter
       x="-0.21883003"
       y="-0.26570469"
       width="1.4376601"
       height="1.5314094"
       color-interpolation-filters="sRGB"
       id="filter3988">
      <feGaussianBlur
         id="feGaussianBlur3990"
         stdDeviation="4.649832" />
    </filter>
    <linearGradient
       inkscape:collect="always"
       xlink:href="#linearGradient4225-5"
       id="linearGradient3145"
       gradientUnits="userSpaceOnUse"
       gradientTransform="translate(8.7159164,1.7588106)"
       x1="46.178307"
       y1="80"
       x2="46.178307"
       y2="84.029495" />
    <linearGradient
       id="linearGradient4225-5">
      <stop
         id="stop4227-2"
         style="stop-color:#000000;stop-opacity:1"
         offset="0" />
      <stop
         id="stop4229-0"
         style="stop-color:#484848;stop-opacity:1"
         offset="1" />
    </linearGradient>
    <linearGradient
       x1="52.92857"
       y1="60"
       x2="52.92857"
       y2="19.986593"
       id="linearGradient3381"
       xlink:href="#linearGradient3767-9"
       gradientUnits="userSpaceOnUse"
       gradientTransform="translate(0,2.5000001e-6)" />
    <linearGradient
       id="linearGradient3767-9">
      <stop
         id="stop3769-1"
         style="stop-color:#4d4d4d;stop-opacity:0.70731705"
         offset="0" />
      <stop
         id="stop3771-0"
         style="stop-color:#4d4d4d;stop-opacity:0.25203252"
         offset="1" />
    </linearGradient>
  </defs>
  <metadata
     id="metadata2413">
    <rdf:RDF>
      <cc:Work
         rdf:about="">
        <dc:format>image/svg+xml</dc:format>
        <dc:type
           rdf:resource="http://purl.org/dc/dcmitype/StillImage" />
        <dc:title />
      </cc:Work>
    </rdf:RDF>
  </metadata>
  <g
     id="layer2"
     style="display:none">
    <rect
       width="86"
       height="85"
       rx="6"
       ry="6"
       x="5"
       y="7"
       id="rect3745"
       style="opacity:0.9;fill:url(#ButtonShadow);fill-opacity:1;fill-rule:nonzero;stroke:none;filter:url(#filter3174)" />
  </g>
  <g
     id="g3074">
    <rect
       rx="0"
       y="7.8404679"
       x="37.60524"
       height="16.731802"
       width="20.789522"
       id="rect3846"
       style="fill:#b3b3b3;fill-opacity:1;fill-rule:evenodd;stroke:#000000;stroke-width:1.67535925;stroke-miterlimit:4;stroke-opacity:1;stroke-dasharray:none" />
    <rect
       rx="5.5798049"
       y="23.297277"
       x="30.390118"
       height="63.172939"
       width="35.219765"
       id="rect3076"
       style="fill:#1a1a1a;stroke:#000000;stroke-width:1.44712806;stroke-miterlimit:4;stroke-opacity:1;stroke-dasharray:none" />
    <g
       style="fill:#b3b3b3;fill-opacity:1"
       id="g3095"
       transform="matrix(-0.94754038,0,0,-0.94754038,93.066696,94.358959)">
      <path
         d="m 60.112092,46.290609 c 0,-1.393835 -0.952787,-2.588014 -2.304574,-3.123894 l 0,-3.480431 c 0,-1.244223 -0.714998,-2.415717 -1.574788,-3.259718 -0.0092,-0.009 -0.01001,-0.02504 -0.01922,-0.03395 0,0 0,-0.01698 0,-0.01698 -1.3e-5,-1.8e-5 -0.03839,-0.05091 -0.03841,-0.05093 -1.64e-4,-2.05e-4 -0.03308,-0.04578 -0.03841,-0.05093 -0.0053,-0.0051 -0.01592,0.0031 -0.01921,0 -0.0033,-0.0031 0.0032,-0.01405 0,-0.01697 -0.01295,-0.01169 -0.03881,-0.01829 -0.05761,-0.03395 -0.0062,-0.0058 -0.01266,-0.01146 -0.01922,-0.01697 -0.02064,-0.01591 -6.374528,-5.249707 -6.452796,-5.314021 -0.304978,-0.34274 -0.526063,-0.814595 -0.537735,-1.239372 l 0,-3.039009 c 1.925345,-0.567463 3.322426,-2.16109 3.322426,-4.023714 5e-6,-2.338703 -2.186067,-4.227449 -4.878004,-4.227449 -2.692754,0 -4.878012,1.888745 -4.878012,4.227447 2e-6,1.862993 1.395967,3.45631 3.322426,4.023715 l 0,3.005052 c 0,-0.006 3.6e-4,0.02617 0,0.03396 -3.59e-4,0.0078 -0.0023,-0.0035 0,0.03396 l 0,5.246108 c -0.01244,0.424258 -0.229692,0.861222 -0.537735,1.205417 -0.03893,0.03198 -1.602081,1.329911 -3.207194,2.648521 -0.812484,0.667461 -1.635642,1.331462 -2.246959,1.833592 -0.305657,0.251065 -0.550363,0.463866 -0.72978,0.611197 -0.08971,0.07367 -0.162643,0.129883 -0.211253,0.169776 -0.0243,0.01995 -0.04486,0.0235 -0.05761,0.03396 -0.0063,0.0052 -0.01303,0.0249 -0.01921,0.03396 -0.01758,0.01501 -0.0456,0.02305 -0.05761,0.03395 -0.0037,0.0032 0.0037,0.01356 0,0.01698 -0.0037,0.0034 -0.01332,-0.0058 -0.01921,0 -0.0059,0.0058 -0.03824,0.0677 -0.03842,0.06792 -2.2e-5,2.5e-5 -0.0384,0.03393 -0.03841,0.03395 0,0 0,0.01698 0,0.01698 0,0 -0.01921,0.01697 -0.01921,0.01697 -0.0035,0.0033 0.0034,0.01364 0,0.01698 -0.0078,0.01684 -0.01921,0.03395 -0.01921,0.03395 -0.846761,0.842433 -1.555586,1.994616 -1.555586,3.225762 l 0,3.191808 -2.170138,0 0,6.774104 7.465352,0 0,-6.774104 -2.184043,0 c 0,-0.710612 0,-1.448702 0,-3.242736 0.01123,-0.424528 0.227974,-0.858755 0.537734,-1.20542 l 5.108467,-4.210469 0,18.760358 -3.369436,0 4.99247,7.945566 4.993764,-7.945566 -3.505633,0 0,-24.006467 5.108466,4.193491 c 0.306023,0.344015 0.526406,0.814316 0.537734,1.239373 0,1.463588 -1.85e-4,2.603219 0,3.497407 -1.383573,0.525662 -2.362186,1.727602 -2.362186,3.140872 0,1.895384 1.754554,3.446477 3.898569,3.446477 2.14401,0 3.879361,-1.551093 3.879361,-3.446477 z"
         inkscape:connector-curvature="0"
         id="path1334"
         style="fill:#b3b3b3;fill-opacity:1;stroke:none;display:inline" />
    </g>
  </g>
</svg>
