<?xml version="1.0" encoding="UTF-8" standalone="no"?>
<!-- Created with Inkscape (http://www.inkscape.org/) -->

<svg
   xmlns:dc="http://purl.org/dc/elements/1.1/"
   xmlns:cc="http://creativecommons.org/ns#"
   xmlns:rdf="http://www.w3.org/1999/02/22-rdf-syntax-ns#"
   xmlns:svg="http://www.w3.org/2000/svg"
   xmlns="http://www.w3.org/2000/svg"
   xmlns:xlink="http://www.w3.org/1999/xlink"
   xmlns:sodipodi="http://sodipodi.sourceforge.net/DTD/sodipodi-0.dtd"
   xmlns:inkscape="http://www.inkscape.org/namespaces/inkscape"
   version="1.0"
   width="96"
   height="96"
   id="svg2408"
   inkscape:version="0.48.4 r9939"
   sodipodi:docname="amule.svg">
  <sodipodi:namedview
     pagecolor="#ffffff"
     bordercolor="#666666"
     borderopacity="1"
     objecttolerance="10"
     gridtolerance="10"
     guidetolerance="10"
     inkscape:pageopacity="0"
     inkscape:pageshadow="2"
     inkscape:window-width="1680"
     inkscape:window-height="991"
     id="namedview54"
     showgrid="false"
     inkscape:zoom="7.6861589"
     inkscape:cx="73.418976"
     inkscape:cy="48.721008"
     inkscape:window-x="0"
     inkscape:window-y="-3"
     inkscape:window-maximized="1"
     inkscape:current-layer="svg2408" />
  <defs
     id="defs2410">
    <linearGradient
       x1="45.447727"
       y1="92.539597"
       x2="45.447727"
       y2="7.0165396"
       id="ButtonShadow"
       gradientUnits="userSpaceOnUse"
       gradientTransform="scale(1.0058652,0.994169)">
      <stop
         id="stop3750"
         style="stop-color:#000000;stop-opacity:1"
         offset="0" />
      <stop
         id="stop3752"
         style="stop-color:#000000;stop-opacity:0.58823532"
         offset="1" />
    </linearGradient>
    <linearGradient
       id="linearGradient3737">
      <stop
         id="stop3739"
         style="stop-color:#ffffff;stop-opacity:1"
         offset="0" />
      <stop
         id="stop3741"
         style="stop-color:#ffffff;stop-opacity:0"
         offset="1" />
    </linearGradient>
    <filter
       color-interpolation-filters="sRGB"
       id="filter3174">
      <feGaussianBlur
         id="feGaussianBlur3176"
         stdDeviation="1.71" />
    </filter>
    <linearGradient
       x1="36.357143"
       y1="6"
       x2="36.357143"
       y2="63.893143"
       id="linearGradient3188"
       xlink:href="#linearGradient3737"
       gradientUnits="userSpaceOnUse" />
    <filter
       x="-0.192"
       y="-0.192"
       width="1.3839999"
       height="1.3839999"
       color-interpolation-filters="sRGB"
       id="filter3794">
      <feGaussianBlur
         id="feGaussianBlur3796"
         stdDeviation="5.28" />
    </filter>
    <linearGradient
       x1="48"
       y1="20.220806"
       x2="48"
       y2="138.66119"
       id="linearGradient3613"
       xlink:href="#linearGradient3737"
       gradientUnits="userSpaceOnUse" />
    <radialGradient
       cx="48"
       cy="90.171875"
       r="42"
       fx="48"
       fy="90.171875"
       id="radialGradient3619"
       xlink:href="#linearGradient3737"
       gradientUnits="userSpaceOnUse"
       gradientTransform="matrix(1.1573129,0,0,0.99590774,-7.5510206,0.19713193)" />
    <clipPath
       id="clipPath3613">
      <rect
         width="84"
         height="84"
         rx="6"
         ry="6"
         x="6"
         y="6"
         id="rect3615"
         style="fill:#ffffff;fill-opacity:1;fill-rule:nonzero;stroke:none" />
    </clipPath>
    <linearGradient
       x1="48"
       y1="90"
       x2="48"
       y2="5.9877172"
       id="linearGradient3617"
       xlink:href="#linearGradient3640"
       gradientUnits="userSpaceOnUse" />
    <linearGradient
       x1="45.447727"
       y1="92.539597"
       x2="45.447727"
       y2="7.0165396"
       id="ButtonShadow-0"
       gradientUnits="userSpaceOnUse"
       gradientTransform="matrix(1.0058652,0,0,0.994169,100,0)">
      <stop
         id="stop3750-8"
         style="stop-color:#000000;stop-opacity:1"
         offset="0" />
      <stop
         id="stop3752-5"
         style="stop-color:#000000;stop-opacity:0.58823532"
         offset="1" />
    </linearGradient>
    <linearGradient
       x1="32.251034"
       y1="6.1317081"
       x2="32.251034"
       y2="90.238609"
       id="linearGradient3780"
       xlink:href="#ButtonShadow-0"
       gradientUnits="userSpaceOnUse"
       gradientTransform="matrix(1.0238095,0,0,1.0119048,-1.1428571,-98.071429)" />
    <linearGradient
       x1="32.251034"
       y1="6.1317081"
       x2="32.251034"
       y2="90.238609"
       id="linearGradient3772"
       xlink:href="#ButtonShadow-0"
       gradientUnits="userSpaceOnUse"
       gradientTransform="matrix(1.0238095,0,0,1.0119048,-1.1428571,-98.071429)" />
    <linearGradient
       x1="32.251034"
       y1="6.1317081"
       x2="32.251034"
       y2="90.238609"
       id="linearGradient3725"
       xlink:href="#ButtonShadow-0"
       gradientUnits="userSpaceOnUse"
       gradientTransform="matrix(1.0238095,0,0,1.0119048,-1.1428571,-98.071429)" />
    <linearGradient
       x1="32.251034"
       y1="6.1317081"
       x2="32.251034"
       y2="90.238609"
       id="linearGradient3721"
       xlink:href="#ButtonShadow-0"
       gradientUnits="userSpaceOnUse"
       gradientTransform="translate(0,-97)" />
    <linearGradient
       x1="32.251034"
       y1="6.1317081"
       x2="32.251034"
       y2="90.238609"
       id="linearGradient3026"
       xlink:href="#ButtonShadow-0"
       gradientUnits="userSpaceOnUse"
       gradientTransform="matrix(1.0238095,0,0,1.0119048,-1.1428571,-98.071429)" />
    <linearGradient
       id="linearGradient3640">
      <stop
         id="stop3642"
         style="stop-color:#2a782a;stop-opacity:1"
         offset="0" />
      <stop
         id="stop3644"
         style="stop-color:#278f27;stop-opacity:1"
         offset="1" />
    </linearGradient>
  </defs>
  <metadata
     id="metadata2413">
    <rdf:RDF>
      <cc:Work
         rdf:about="">
        <dc:format>image/svg+xml</dc:format>
        <dc:type
           rdf:resource="http://purl.org/dc/dcmitype/StillImage" />
        <dc:title />
      </cc:Work>
    </rdf:RDF>
  </metadata>
  <g
     id="layer2"
     style="display:none">
    <rect
       width="86"
       height="85"
       rx="6"
       ry="6"
       x="5"
       y="7"
       id="rect3745"
       style="opacity:0.9;fill:url(#ButtonShadow);fill-opacity:1;fill-rule:nonzero;stroke:none;filter:url(#filter3174)" />
  </g>
  <g
     id="layer1"
     style="fill:#784421;fill-opacity:1">
    <rect
       width="84"
       height="84"
       rx="6"
       ry="0"
       x="6"
       y="6"
       id="rect2419"
       style="fill:#e9ddaf;fill-opacity:1;fill-rule:nonzero;stroke:none" />
  </g>
  <g
     id="g3077"
     transform="matrix(0.14269688,0,0,0.10344333,-78.322655,-3.0348039)"
     style="opacity:0.3;fill:#000000">
    <path
       inkscape:connector-curvature="0"
       d="m 915.83652,523.68823 c 0.015,-12.91351 13.81292,-52.39663 22.35159,-54.95649 8.53867,-2.55988 23.64537,0.36898 29.41084,5.46912 9.17517,8.11664 13.7276,26.96627 15.96344,36.91403 2.23586,9.94774 2.84584,24.97487 2.73629,42.66911 -0.11184,17.96868 -46.27599,8.58479 -55.86858,0.91556 -9.5926,-7.66924 -14.61433,-14.13924 -14.59358,-31.01133 z m 41.32924,50.76615 c 16.80634,0 32.3443,-0.36784 43.94904,3.82136 12.5249,4.52013 20.4651,14.34911 20.4651,35.67791 0,19.50574 -29.30818,48.11402 -38.02327,74.85775 2.93232,22.97541 10.06651,45.72482 19.88507,63.26569 5.5614,-2.84353 10.9118,-6.0399 15.9704,-9.55569 14.3803,-9.99272 26.4093,-22.55569 34.2619,-36.87021 13.2468,-24.14695 14.6097,-53.27759 -4.6712,-83.45639 -32.3708,-50.66467 -67.49523,-112.86837 -69.31941,-180.59539 -0.98014,-9.86702 -4.43251,-18.49333 -9.75289,-25.83509 -4.15806,-5.73895 -9.45768,-10.69265 -15.60943,-14.84148 -14.0055,-9.44499 -32.42734,-14.71811 -51.8616,-15.5783 -4.21341,-0.18681 -8.47525,-0.16606 -12.74976,0.0646 -8.61593,0.46585 -17.28259,1.78384 -25.71863,3.97472 -3.79829,0.98704 -7.55046,2.15052 -11.22884,3.49388 -24.7604,9.0368 -46.21026,26.1787 -56.43014,51.98266 -0.71723,1.81266 -1.38026,3.66915 -1.98448,5.56715 -2.82625,8.87998 -4.38061,18.70088 -4.38061,29.48001 0,37.28417 11.49751,66.09886 8.20888,103.97917 -4.53973,52.2963 -43.98249,83.45293 -24.69352,131.32135 3.96203,9.83359 10.40206,20.37172 20.13303,31.94418 7.86526,9.35275 20.19876,15.25198 34.73698,18.84273 7.95059,1.96371 16.5596,3.23673 25.45688,4.00699 3.02917,0.26176 6.09064,0.46586 9.17172,0.61921 -0.0207,-14.72156 1.00434,-29.38892 0.69762,-43.39556 -0.0277,-1.21767 -0.0646,-2.43073 -0.11301,-3.63802 -3.058,-32.14712 -60.14312,-38.3231 -60.14312,-83.50366 0,-9.3689 2.99458,-17.44056 8.20082,-24.38679 25.87429,-34.51905 106.3799,-41.24275 145.54247,-41.24275 l 0,0 z m -107.3589,-87.60983 c 10.79297,7.19185 27.86569,29.86629 29.60571,43.26988 4.46824,34.39911 -14.55783,46.96554 -37.80421,58.30047 -23.24639,11.33492 -33.37979,-42.44311 -35.07138,-61.94425 -2.27736,-26.23983 16.01072,-57.7908 43.26988,-39.6261 l 0,0 z"
       style="fill:#000000;fill-opacity:1;stroke:none;stroke-width:8.10441113000000080;stroke-opacity:1"
       id="path3079" />
    <path
       inkscape:connector-curvature="0"
       d="m 879.41257,530.11443 c -1.74002,-13.40359 -18.81274,-36.07803 -29.60571,-43.26988 -27.25916,-18.1647 -45.54724,13.38627 -43.26988,39.6261 1.69159,19.50114 11.82499,73.27917 35.07138,61.94425 23.24638,-11.33493 42.27245,-23.90136 37.80421,-58.30047 l 0,0 z m -24.14004,1.36641 c 8.0486,0 14.57513,6.52653 14.57513,14.57512 0,8.0486 -6.52653,14.57511 -14.57513,14.57511 -8.0486,0 -14.57512,-6.52651 -14.57512,-14.57511 0,-8.04859 6.52652,-14.57512 14.57512,-14.57512 z"
       style="fill:#000000;fill-opacity:1;stroke:#000000;stroke-width:8.10441113;stroke-opacity:1"
       id="path3081" />
    <path
       inkscape:connector-curvature="0"
       d="m 938.18811,468.73174 c -8.53867,2.55986 -22.33659,42.04298 -22.35159,54.95649 -0.0207,16.87209 5.00098,23.34209 14.59358,31.01133 9.59259,7.66923 55.75674,17.05312 55.86858,-0.91556 0.10955,-17.69424 -0.50043,-32.72137 -2.73629,-42.66911 -2.23584,-9.94776 -6.78827,-28.79739 -15.96344,-36.91403 -5.76547,-5.10014 -20.87217,-8.029 -29.41084,-5.46912 l 0,0 z m -1.84149,49.5404 c 8.0486,0 14.57512,6.52652 14.57512,14.57512 0,8.0486 -6.52652,14.57512 -14.57512,14.57512 -8.04859,0 -14.57511,-6.52652 -14.57511,-14.57512 0,-8.0486 6.52652,-14.57512 14.57511,-14.57512 z"
       style="fill:#000000;fill-opacity:1;stroke:#000000;stroke-width:8.10441113;stroke-opacity:1"
       id="path3083" />
    <path
       inkscape:connector-curvature="0"
       d="m 957.16576,574.45438 c -39.16257,0 -119.66818,6.72369 -145.54247,41.24274 17.40942,23.22679 31.08859,44.62592 43.45206,69.35518 5.87618,11.75465 7.93791,24.795 8.49024,38.53528 0.11185,1.17731 0.15106,2.38806 0.11301,3.63801 0.30672,14.00664 -0.71839,28.674 -0.69762,43.39557 31.99953,1.59127 66.02504,-2.30619 85.69107,-3.40278 4.56972,-0.25484 9.15787,-0.76911 13.73106,-1.5267 14.15654,-2.34654 28.16433,-7.03273 41.03859,-13.61459 -9.81856,-17.54087 -16.95275,-40.29028 -19.88507,-63.26569 -0.9663,-7.56777 -1.47596,-15.15859 -1.47596,-22.5972 0,-23.27868 8.42912,-64.17088 19.03413,-87.93961 -11.60474,-4.18805 -27.1427,-3.82021 -43.94904,-3.82021 l 0,0 z"
       style="fill:#000000;fill-opacity:1;stroke:#000000;stroke-width:8.10441113;stroke-opacity:1"
       id="path3085" />
    <path
       inkscape:connector-curvature="0"
       d="m 855.07535,685.0523 c -12.36347,-24.72926 -26.04264,-46.12839 -43.45206,-69.35518 -5.20624,6.94624 -8.20082,15.0179 -8.20082,24.38679 0,45.18056 57.08512,51.35655 60.14312,83.50367 -0.55233,-13.74028 -2.61406,-26.78063 -8.49024,-38.53528 z"
       style="fill:#000000;fill-opacity:1;stroke:#000000;stroke-width:0.96666408;stroke-opacity:1"
       id="path3087" />
    <path
       inkscape:connector-curvature="0"
       d="m 1001.1148,578.27459 c -10.60501,23.76873 -19.03413,64.66093 -19.03413,87.93961 0,7.43861 0.50966,15.02943 1.47596,22.5972 8.71509,-26.74373 38.02327,-55.35201 38.02327,-74.85775 0,-21.3288 -7.9402,-31.15778 -20.4651,-35.67906 z"
       style="fill:#000000;fill-opacity:1;stroke:#000000;stroke-width:0.96666408;stroke-opacity:1"
       id="path3089" />
    <path
       inkscape:connector-curvature="0"
       d="m 963.79258,780.02581 c 2.33386,11.46176 7.3533,21.84538 13.15451,32.79747 13.75181,25.96308 60.90411,27.07351 64.75891,-6.38469 1.0436,-9.05756 0.7553,-17.78763 -1.0931,-26.21907 -2.9081,-13.26751 -9.6779,-25.79703 -21.2008,-37.69812 -5.0586,3.51579 -10.409,6.71216 -15.9704,9.55569 -12.87426,6.58186 -26.88205,11.26805 -41.03859,13.61459 -0.0438,5.01943 0.45893,9.7621 1.38947,14.33413 l 0,0 z"
       style="fill:#000000;fill-opacity:1;stroke:#000000;stroke-width:8.10441113;stroke-opacity:1"
       id="path3091" />
    <path
       inkscape:connector-curvature="0"
       d="m 902.45947,385.34454 c 19.43426,0.86019 37.8561,6.13331 51.8616,15.5783 2.12399,-3.58151 4.16152,-7.31407 6.11601,-11.18156 29.13409,-57.66627 39.85782,-145.47329 48.17282,-215.12596 6.6799,-55.95162 -15.41225,-28.97843 -30.55122,-6.63376 -19.41235,28.6521 -37.50672,60.01282 -57.3584,99.48901 -19.85168,39.47621 -20.645,34.13738 -18.24081,117.87397 z"
       style="fill:#000000;fill-opacity:1;stroke:none;stroke-width:8.10441113000000080;stroke-opacity:1"
       id="path3093" />
    <path
       inkscape:connector-curvature="0"
       d="M 852.76224,392.8777 C 818.7275,340.10978 762.09095,291.80549 692.828,251.42295 c -47.18233,-27.50822 8.03707,74.2155 22.80707,97.59218 11.72235,18.55213 40.85068,52.38164 64.13167,77.96996 6.05374,6.65336 11.71198,12.74977 16.56536,17.87527 10.21988,-25.80395 31.66974,-42.94585 56.43014,-51.98266 l 0,0 z"
       style="fill:#000000;fill-opacity:1;stroke:none;stroke-width:8.10441113000000080;stroke-opacity:1"
       id="path3095" />
    <circle
       sodipodi:ry="0.12639999"
       sodipodi:rx="0.12639999"
       sodipodi:cy="3.6178401"
       sodipodi:cx="2.25913"
       cx="2.25913"
       cy="3.6178401"
       r="0.12639999"
       transform="matrix(115.30948,0,0,115.30948,595.76079,129.5693)"
       style="fill:#000000;stroke:#000000;stroke-width:0.32531714;stroke-opacity:1"
       id="circle3097"
       d="m 2.38553,3.6178401 c 0,0.069809 -0.056591,0.1263999 -0.1264,0.1263999 -0.069809,0 -0.1264,-0.056591 -0.1264,-0.1263999 0,-0.069809 0.056591,-0.1264 0.1264,-0.1264 0.069809,0 0.1264,0.056591 0.1264,0.1264 z" />
    <circle
       sodipodi:ry="0.12639999"
       sodipodi:rx="0.12639999"
       sodipodi:cy="3.5032899"
       sodipodi:cx="2.96223"
       cx="2.96223"
       cy="3.5032899"
       r="0.12639999"
       transform="matrix(115.30948,0,0,115.30948,595.76079,129.5693)"
       style="fill:#000000;stroke:#000000;stroke-width:0.32531714;stroke-opacity:1"
       id="circle3099"
       d="m 3.08863,3.5032899 c 0,0.069809 -0.056591,0.1264 -0.1264,0.1264 -0.069809,0 -0.1264,-0.056591 -0.1264,-0.1264 0,-0.069809 0.056591,-0.1264 0.1264,-0.1264 0.069809,0 0.1264,0.056591 0.1264,0.1264 z" />
  </g>
  <g
     transform="matrix(0.12871514,0,0,0.09988367,-66.526802,-2.0197549)"
     id="g4013">
    <path
       id="path59-1"
       style="fill:#a66a33;fill-opacity:1;stroke:#a66a33;stroke-width:8.68396187;stroke-opacity:1"
       d="m 915.83652,523.68823 c 0.015,-12.91351 13.81292,-52.39663 22.35159,-54.95649 8.53867,-2.55988 23.64537,0.36898 29.41084,5.46912 9.17517,8.11664 13.7276,26.96627 15.96344,36.91403 2.23586,9.94774 2.84584,24.97487 2.73629,42.66911 -0.11184,17.96868 -46.27599,8.58479 -55.86858,0.91556 -9.5926,-7.66924 -14.61433,-14.13924 -14.59358,-31.01133 z m 41.32924,50.76615 c 16.80634,0 32.3443,-0.36784 43.94904,3.82136 12.5249,4.52013 20.4651,14.34911 20.4651,35.67791 0,19.50574 -29.30818,48.11402 -38.02327,74.85775 2.93232,22.97541 10.06651,45.72482 19.88507,63.26569 5.5614,-2.84353 10.9118,-6.0399 15.9704,-9.55569 14.3803,-9.99272 26.4093,-22.55569 34.2619,-36.87021 13.2468,-24.14695 14.6097,-53.27759 -4.6712,-83.45639 -32.3708,-50.66467 -67.49523,-112.86837 -69.31941,-180.59539 -0.98014,-9.86702 -4.43251,-18.49333 -9.75289,-25.83509 -4.15806,-5.73895 -9.45768,-10.69265 -15.60943,-14.84148 -14.0055,-9.44499 -32.42734,-14.71811 -51.8616,-15.5783 -4.21341,-0.18681 -8.47525,-0.16606 -12.74976,0.0646 -8.61593,0.46585 -17.28259,1.78384 -25.71863,3.97472 -3.79829,0.98704 -7.55046,2.15052 -11.22884,3.49388 -24.7604,9.0368 -46.21026,26.1787 -56.43014,51.98266 -0.71723,1.81266 -1.38026,3.66915 -1.98448,5.56715 -2.82625,8.87998 -4.38061,18.70088 -4.38061,29.48001 0,37.28417 11.49751,66.09886 8.20888,103.97917 -4.53973,52.2963 -43.98249,83.45293 -24.69352,131.32135 3.96203,9.83359 10.40206,20.37172 20.13303,31.94418 7.86526,9.35275 20.19876,15.25198 34.73698,18.84273 7.95059,1.96371 16.5596,3.23673 25.45688,4.00699 3.02917,0.26176 6.09064,0.46586 9.17172,0.61921 -0.0207,-14.72156 1.00434,-29.38892 0.69762,-43.39556 -0.0277,-1.21767 -0.0646,-2.43073 -0.11301,-3.63802 -3.058,-32.14712 -60.14312,-38.3231 -60.14312,-83.50366 0,-9.3689 2.99458,-17.44056 8.20082,-24.38679 25.87429,-34.51905 106.3799,-41.24275 145.54247,-41.24275 l 0,0 z m -107.3589,-87.60983 c 10.79297,7.19185 27.86569,29.86629 29.60571,43.26988 4.46824,34.39911 -14.55783,46.96554 -37.80421,58.30047 -23.24639,11.33492 -33.37979,-42.44311 -35.07138,-61.94425 -2.27736,-26.23983 16.01072,-57.7908 43.26988,-39.6261 l 0,0 z"
       inkscape:connector-curvature="0" />
    <path
       id="path61-1"
       style="fill:#ffffff;fill-opacity:1;stroke:#ffffff;stroke-width:8.68396187;stroke-opacity:1"
       d="m 879.41257,530.11443 c -1.74002,-13.40359 -18.81274,-36.07803 -29.60571,-43.26988 -27.25916,-18.1647 -45.54724,13.38627 -43.26988,39.6261 1.69159,19.50114 11.82499,73.27917 35.07138,61.94425 23.24638,-11.33493 42.27245,-23.90136 37.80421,-58.30047 l 0,0 z m -24.14004,1.36641 c 8.0486,0 14.57513,6.52653 14.57513,14.57512 0,8.0486 -6.52653,14.57511 -14.57513,14.57511 -8.0486,0 -14.57512,-6.52651 -14.57512,-14.57511 0,-8.04859 6.52652,-14.57512 14.57512,-14.57512 z"
       inkscape:connector-curvature="0" />
    <path
       id="path63-1"
       style="fill:#ffffff;fill-opacity:1;stroke:#ffffff;stroke-width:8.68396187;stroke-opacity:1"
       d="m 938.18811,468.73174 c -8.53867,2.55986 -22.33659,42.04298 -22.35159,54.95649 -0.0207,16.87209 5.00098,23.34209 14.59358,31.01133 9.59259,7.66923 55.75674,17.05312 55.86858,-0.91556 0.10955,-17.69424 -0.50043,-32.72137 -2.73629,-42.66911 -2.23584,-9.94776 -6.78827,-28.79739 -15.96344,-36.91403 -5.76547,-5.10014 -20.87217,-8.029 -29.41084,-5.46912 l 0,0 z m -1.84149,49.5404 c 8.0486,0 14.57512,6.52652 14.57512,14.57512 0,8.0486 -6.52652,14.57512 -14.57512,14.57512 -8.04859,0 -14.57511,-6.52652 -14.57511,-14.57512 0,-8.0486 6.52652,-14.57512 14.57511,-14.57512 z"
       inkscape:connector-curvature="0" />
    <path
       id="path65-8"
       style="fill:#7b7a77;fill-opacity:1;stroke:#7b7a77;stroke-width:8.68396187;stroke-opacity:1"
       d="m 957.16576,574.45438 c -39.16257,0 -119.66818,6.72369 -145.54247,41.24274 17.40942,23.22679 31.08859,44.62592 43.45206,69.35518 5.87618,11.75465 7.93791,24.795 8.49024,38.53528 0.11185,1.17731 0.15106,2.38806 0.11301,3.63801 0.30672,14.00664 -0.71839,28.674 -0.69762,43.39557 31.99953,1.59127 66.02504,-2.30619 85.69107,-3.40278 4.56972,-0.25484 9.15787,-0.76911 13.73106,-1.5267 14.15654,-2.34654 28.16433,-7.03273 41.03859,-13.61459 -9.81856,-17.54087 -16.95275,-40.29028 -19.88507,-63.26569 -0.9663,-7.56777 -1.47596,-15.15859 -1.47596,-22.5972 0,-23.27868 8.42912,-64.17088 19.03413,-87.93961 -11.60474,-4.18805 -27.1427,-3.82021 -43.94904,-3.82021 l 0,0 z"
       inkscape:connector-curvature="0" />
    <path
       id="path67-7"
       style="fill:#000000;fill-opacity:1;stroke:none"
       d="m 855.07535,685.0523 c -12.36347,-24.72926 -26.04264,-46.12839 -43.45206,-69.35518 -5.20624,6.94624 -8.20082,15.0179 -8.20082,24.38679 0,45.18056 54.53414,55.73965 57.59214,87.88677 -0.55233,-13.74028 -0.0631,-31.16373 -5.93926,-42.91838 z"
       inkscape:connector-curvature="0"
       sodipodi:nodetypes="ccscc" />
    <path
       id="path69-3"
       style="fill:#000000;fill-opacity:1;stroke:none"
       d="m 1001.1148,578.27459 c -10.60501,23.76873 -19.03413,64.66093 -19.03413,87.93961 0,7.43861 5.61162,21.60407 6.57792,29.17184 8.71509,-26.74373 32.92131,-61.92665 32.92131,-81.43239 0,-21.3288 -7.9402,-31.15778 -20.4651,-35.67906 z"
       inkscape:connector-curvature="0"
       sodipodi:nodetypes="cscsc" />
    <path
       id="path75-7"
       style="fill:#d63a45;fill-opacity:1;stroke:#d63a45;stroke-width:8.68396187;stroke-opacity:1"
       d="m 963.79258,780.02581 c 2.33386,11.46176 7.3533,21.84538 13.15451,32.79747 13.75181,25.96308 60.90411,27.07351 64.75891,-6.38469 1.0436,-9.05756 0.7553,-17.78763 -1.0931,-26.21907 -2.9081,-13.26751 -9.6779,-25.79703 -21.2008,-37.69812 -5.0586,3.51579 -10.409,6.71216 -15.9704,9.55569 -12.87426,6.58186 -26.88205,11.26805 -41.03859,13.61459 -0.0438,5.01943 0.45893,9.7621 1.38947,14.33413 l 0,0 z"
       inkscape:connector-curvature="0" />
    <path
       id="path85-9"
       style="fill:#a66a33;fill-opacity:1;stroke:#a66a33;stroke-width:8.68396187;stroke-opacity:1"
       d="m 902.45947,385.34454 c 7.94868,40.32924 37.8561,6.13331 51.8616,15.5783 2.12399,-3.58151 4.16152,-7.31407 6.11601,-11.18156 29.13409,-57.66627 39.85782,-145.47329 48.17282,-215.12596 6.6799,-55.95162 -15.41225,-28.97843 -30.55122,-6.63376 -19.41235,28.6521 -37.50672,60.01282 -57.3584,99.48901 -19.85168,39.47621 -20.645,34.13738 -18.24081,117.87397 z"
       inkscape:connector-curvature="0"
       sodipodi:nodetypes="ccccssc" />
    <path
       id="path87-6"
       style="fill:#a66a33;fill-opacity:1;stroke:#a66a33;stroke-width:8.68396187;stroke-opacity:1"
       d="M 852.76224,392.8777 C 818.7275,340.10978 762.09095,291.80549 692.828,251.42295 c -47.18233,-27.50822 8.03707,74.2155 22.80707,97.59218 11.72235,18.55213 40.85068,52.38164 64.13167,77.96996 6.05374,6.65336 11.71198,12.74977 16.56536,17.87527 10.21988,-25.80395 31.66974,-42.94585 56.43014,-51.98266 l 0,0 z"
       inkscape:connector-curvature="0" />
    <circle
       d="m 2.38553,3.6178401 c 0,0.069809 -0.056591,0.1263999 -0.1264,0.1263999 -0.069809,0 -0.1264,-0.056591 -0.1264,-0.1263999 0,-0.069809 0.056591,-0.1264 0.1264,-0.1264 0.069809,0 0.1264,0.056591 0.1264,0.1264 z"
       id="circle19-9"
       style="fill:#000000;stroke:#1f1a17;stroke-width:0.34858078"
       transform="matrix(115.30948,0,0,115.30948,595.76079,129.5693)"
       r="0.12639999"
       cy="3.6178401"
       cx="2.25913"
       sodipodi:cx="2.25913"
       sodipodi:cy="3.6178401"
       sodipodi:rx="0.12639999"
       sodipodi:ry="0.12639999" />
    <circle
       d="m 3.08863,3.5032899 c 0,0.069809 -0.056591,0.1264 -0.1264,0.1264 -0.069809,0 -0.1264,-0.056591 -0.1264,-0.1264 0,-0.069809 0.056591,-0.1264 0.1264,-0.1264 0.069809,0 0.1264,0.056591 0.1264,0.1264 z"
       id="circle21-2"
       style="fill:#000000;stroke:#1f1a17;stroke-width:0.34858078"
       transform="matrix(115.30948,0,0,115.30948,601.63318,129.20894)"
       r="0.12639999"
       cy="3.5032899"
       cx="2.96223"
       sodipodi:cx="2.96223"
       sodipodi:cy="3.5032899"
       sodipodi:rx="0.12639999"
       sodipodi:ry="0.12639999" />
    <path
       id="path97-4"
       style="fill:#a66a33;fill-opacity:1;stroke:#a66a33;stroke-width:8.24351788;stroke-opacity:1"
       d="m 866.67649,390.33957 c 7.49052,-2.22347 15.18588,-3.56108 22.83614,-4.03385 l -0.53649,-23.99483 -7.0145,11.71772 -15.00262,-17.79367 1.07714,19.69767 -13.19453,-1.23111 11.83486,15.63807 0,0 z"
       inkscape:connector-curvature="0" />
  </g>
  <path
     sodipodi:type="arc"
     style="opacity:0.8;fill:#808080;fill-opacity:1;fill-rule:evenodd;stroke:none"
     id="path3046"
     sodipodi:cx="44.390572"
     sodipodi:cy="53.188171"
     sodipodi:rx="3.3432229"
     sodipodi:ry="2.9531803"
     d="m 47.733794,53.188171 a 3.3432229,2.9531803 0 1 1 -6.686445,0 3.3432229,2.9531803 0 1 1 6.686445,0 z"
     transform="translate(-0.40861614,-0.37146922)" />
  <path
     transform="matrix(1.358533,0,0,1.358533,-14.44631,-16.243256)"
     d="m 44.390573,50.885063 a 1.3187157,1.2072749 0 1 1 -2.637431,0 1.3187157,1.2072749 0 1 1 2.637431,0 z"
     sodipodi:ry="1.2072749"
     sodipodi:rx="1.3187157"
     sodipodi:cy="50.885063"
     sodipodi:cx="43.071857"
     id="path3048"
     style="fill:#000000;fill-opacity:1;fill-rule:evenodd;stroke:none"
     sodipodi:type="arc" />
  <path
     sodipodi:type="arc"
     style="fill:#ffffff;fill-opacity:1;fill-rule:evenodd;stroke:none"
     id="path3044"
     sodipodi:cx="43.071857"
     sodipodi:cy="50.885063"
     sodipodi:rx="1.3187157"
     sodipodi:ry="1.2072749"
     d="m 44.390573,50.885063 a 1.3187157,1.2072749 0 1 1 -2.637431,0 1.3187157,1.2072749 0 1 1 2.637431,0 z"
     transform="matrix(0.87873853,0,0,0.87873853,5.2258411,7.508099)" />
  <path
     transform="translate(10.245488,-1.6672386)"
     d="m 47.733794,53.188171 a 3.3432229,2.9531803 0 1 1 -6.686445,0 3.3432229,2.9531803 0 1 1 6.686445,0 z"
     sodipodi:ry="2.9531803"
     sodipodi:rx="3.3432229"
     sodipodi:cy="53.188171"
     sodipodi:cx="44.390572"
     id="path3050"
     style="opacity:0.8;fill:#808080;fill-opacity:1;fill-rule:evenodd;stroke:none"
     sodipodi:type="arc" />
  <path
     sodipodi:type="arc"
     style="fill:#000000;fill-opacity:1;fill-rule:evenodd;stroke:none"
     id="path3052"
     sodipodi:cx="43.071857"
     sodipodi:cy="50.885063"
     sodipodi:rx="1.3187157"
     sodipodi:ry="1.2072749"
     d="m 44.390573,50.885063 a 1.3187157,1.2072749 0 1 1 -2.637431,0 1.3187157,1.2072749 0 1 1 2.637431,0 z"
     transform="matrix(1.358533,0,0,1.358533,-3.7922063,-17.539025)" />
  <path
     transform="matrix(0.87873853,0,0,0.87873853,15.879945,6.2123296)"
     d="m 44.390573,50.885063 a 1.3187157,1.2072749 0 1 1 -2.637431,0 1.3187157,1.2072749 0 1 1 2.637431,0 z"
     sodipodi:ry="1.2072749"
     sodipodi:rx="1.3187157"
     sodipodi:cy="50.885063"
     sodipodi:cx="43.071857"
     id="path3054"
     style="fill:#ffffff;fill-opacity:1;fill-rule:evenodd;stroke:none"
     sodipodi:type="arc" />
</svg>
