<?xml version="1.0" encoding="UTF-8" standalone="no"?>
<!-- Created with Inkscape (http://www.inkscape.org/) -->

<svg
   xmlns:dc="http://purl.org/dc/elements/1.1/"
   xmlns:cc="http://creativecommons.org/ns#"
   xmlns:rdf="http://www.w3.org/1999/02/22-rdf-syntax-ns#"
   xmlns:svg="http://www.w3.org/2000/svg"
   xmlns="http://www.w3.org/2000/svg"
   xmlns:xlink="http://www.w3.org/1999/xlink"
   xmlns:sodipodi="http://sodipodi.sourceforge.net/DTD/sodipodi-0.dtd"
   xmlns:inkscape="http://www.inkscape.org/namespaces/inkscape"
   version="1.0"
   width="96"
   height="96"
   id="svg2408"
   inkscape:version="0.48.5 r10040"
   sodipodi:docname="atom-text-editor.svg">
  <sodipodi:namedview
     pagecolor="#ffffff"
     bordercolor="#666666"
     borderopacity="1"
     objecttolerance="10"
     gridtolerance="10"
     guidetolerance="10"
     inkscape:pageopacity="0"
     inkscape:pageshadow="2"
     inkscape:window-width="1680"
     inkscape:window-height="991"
     id="namedview58"
     showgrid="false"
     inkscape:zoom="4.6437754"
     inkscape:cx="56.093446"
     inkscape:cy="45.97132"
     inkscape:window-x="-2"
     inkscape:window-y="-3"
     inkscape:window-maximized="1"
     inkscape:current-layer="svg2408" />
  <defs
     id="defs2410">
    <linearGradient
       id="linearGradient2841">
      <stop
         id="stop2843"
         style="stop-color:#d4530d;stop-opacity:1"
         offset="0" />
      <stop
         id="stop2845"
         style="stop-color:#f7ad25;stop-opacity:1"
         offset="1" />
    </linearGradient>
    <linearGradient
       x1="45.447727"
       y1="92.539597"
       x2="45.447727"
       y2="7.0165396"
       id="ButtonShadow"
       gradientUnits="userSpaceOnUse"
       gradientTransform="scale(1.0058652,0.994169)">
      <stop
         id="stop3750"
         style="stop-color:#000000;stop-opacity:1"
         offset="0" />
      <stop
         id="stop3752"
         style="stop-color:#000000;stop-opacity:0.58823532"
         offset="1" />
    </linearGradient>
    <linearGradient
       id="linearGradient3737">
      <stop
         id="stop3739"
         style="stop-color:#ffffff;stop-opacity:1"
         offset="0" />
      <stop
         id="stop3741"
         style="stop-color:#ffffff;stop-opacity:0"
         offset="1" />
    </linearGradient>
    <filter
       color-interpolation-filters="sRGB"
       id="filter3174">
      <feGaussianBlur
         id="feGaussianBlur3176"
         stdDeviation="1.71" />
    </filter>
    <linearGradient
       x1="36.357143"
       y1="6"
       x2="36.357143"
       y2="63.893143"
       id="linearGradient3188"
       xlink:href="#linearGradient3737"
       gradientUnits="userSpaceOnUse" />
    <filter
       x="-0.192"
       y="-0.192"
       width="1.3839999"
       height="1.3839999"
       color-interpolation-filters="sRGB"
       id="filter3794">
      <feGaussianBlur
         id="feGaussianBlur3796"
         stdDeviation="5.28" />
    </filter>
    <linearGradient
       x1="48"
       y1="20.220806"
       x2="48"
       y2="138.66119"
       id="linearGradient3613"
       xlink:href="#linearGradient3737"
       gradientUnits="userSpaceOnUse" />
    <radialGradient
       cx="48"
       cy="90.171875"
       r="42"
       fx="48"
       fy="90.171875"
       id="radialGradient3619"
       xlink:href="#linearGradient3737"
       gradientUnits="userSpaceOnUse"
       gradientTransform="matrix(1.1573129,0,0,0.99590774,-7.5510206,0.19713193)" />
    <clipPath
       id="clipPath3613">
      <rect
         width="84"
         height="84"
         rx="6"
         ry="6"
         x="6"
         y="6"
         id="rect3615"
         style="fill:#ffffff;fill-opacity:1;fill-rule:nonzero;stroke:none" />
    </clipPath>
    <linearGradient
       x1="48"
       y1="90"
       x2="48"
       y2="5.9877172"
       id="linearGradient3617"
       xlink:href="#linearGradient2841"
       gradientUnits="userSpaceOnUse" />
    <clipPath
       id="clipPath3754">
      <path
         d="m -78,6 c -3.324,0 -6,2.676 -6,6 l 0,72 c 0,3.324 2.676,6 6,6 l 72,0 c 3.324,0 6,-2.676 6,-6 L 0,12 C 0,8.676 -2.676,6 -6,6 l -72,0 z m 4,10 a 64,64 0 0 1 64,64 l -12.8125,0 A 51.2,51.2 0 0 0 -74,28.8125 L -74,16 z m 0,21.5625 A 42.422857,42.422857 0 0 1 -31.5625,80 L -44,80 A 29.988571,29.988571 0 0 0 -74,50 l 0,-12.4375 z m 8.78125,24.875 c 4.847482,0 8.78125,3.933769 8.78125,8.78125 C -56.4375,76.066233 -60.371268,80 -65.21875,80 -70.066232,80 -74,76.066233 -74,71.21875 c 0,-4.847481 3.933768,-8.78125 8.78125,-8.78125 z"
         inkscape:connector-curvature="0"
         id="path3756"
         style="fill:#ff0000;fill-opacity:1;fill-rule:nonzero;stroke:none" />
    </clipPath>
    <filter
       x="-0.12"
       y="-0.12"
       width="1.24"
       height="1.24"
       color-interpolation-filters="sRGB"
       id="filter3762">
      <feGaussianBlur
         id="feGaussianBlur3764"
         stdDeviation="3.2" />
    </filter>
    <clipPath
       id="clipPath3775">
      <path
         d="m -84,16 0,12.8 A 51.2,51.2 0 0 1 -32.8,80 L -20,80 A 64,64 0 0 0 -84,16 z m 0,21.577143 0,12.434286 A 29.988571,29.988571 0 0 1 -54.011429,80 l 12.434286,0 A 42.422857,42.422857 0 0 0 -84,37.577143 z m 8.777142,24.868571 C -80.07034,62.445714 -84,66.375376 -84,71.222857 -84,76.07034 -80.07034,80 -75.222858,80 c 4.847482,0 8.777144,-3.92966 8.777144,-8.777143 0,-4.847481 -3.929662,-8.777143 -8.777144,-8.777143 z"
         inkscape:connector-curvature="0"
         id="path3777"
         style="fill:#ffffff" />
    </clipPath>
    <filter
       color-interpolation-filters="sRGB"
       id="filter3787">
      <feGaussianBlur
         id="feGaussianBlur3789"
         stdDeviation="0.42" />
    </filter>
    <linearGradient
       x1="45.447727"
       y1="92.539597"
       x2="45.447727"
       y2="7.0165396"
       id="ButtonShadow-0"
       gradientUnits="userSpaceOnUse"
       gradientTransform="matrix(1.0058652,0,0,0.994169,100,0)">
      <stop
         id="stop3750-8"
         style="stop-color:#000000;stop-opacity:1"
         offset="0" />
      <stop
         id="stop3752-5"
         style="stop-color:#000000;stop-opacity:0.58823532"
         offset="1" />
    </linearGradient>
    <linearGradient
       x1="32.251034"
       y1="6.1317081"
       x2="32.251034"
       y2="90.238609"
       id="linearGradient3780"
       xlink:href="#ButtonShadow-0"
       gradientUnits="userSpaceOnUse"
       gradientTransform="matrix(1.0238095,0,0,1.0119048,-1.1428571,-98.071429)" />
    <linearGradient
       x1="32.251034"
       y1="6.1317081"
       x2="32.251034"
       y2="90.238609"
       id="linearGradient3772"
       xlink:href="#ButtonShadow-0"
       gradientUnits="userSpaceOnUse"
       gradientTransform="matrix(1.0238095,0,0,1.0119048,-1.1428571,-98.071429)" />
    <linearGradient
       x1="32.251034"
       y1="6.1317081"
       x2="32.251034"
       y2="90.238609"
       id="linearGradient3725"
       xlink:href="#ButtonShadow-0"
       gradientUnits="userSpaceOnUse"
       gradientTransform="matrix(1.0238095,0,0,1.0119048,-1.1428571,-98.071429)" />
    <linearGradient
       x1="32.251034"
       y1="6.1317081"
       x2="32.251034"
       y2="90.238609"
       id="linearGradient3721"
       xlink:href="#ButtonShadow-0"
       gradientUnits="userSpaceOnUse"
       gradientTransform="translate(0,-97)" />
    <linearGradient
       x1="32.251034"
       y1="6.1317081"
       x2="32.251034"
       y2="90.238609"
       id="linearGradient3071"
       xlink:href="#ButtonShadow-0"
       gradientUnits="userSpaceOnUse"
       gradientTransform="matrix(1.0238095,0,0,1.0119048,-1.1428571,-98.071429)" />
    <linearGradient
       inkscape:collect="always"
       xlink:href="#ButtonShadow-0"
       id="linearGradient3028"
       gradientUnits="userSpaceOnUse"
       gradientTransform="matrix(1.0238095,0,0,1.0119048,-1.1428571,-98.071429)"
       x1="32.251034"
       y1="6.1317081"
       x2="32.251034"
       y2="90.238609" />
    <linearGradient
       inkscape:collect="always"
       xlink:href="#ButtonShadow-0"
       id="linearGradient3030"
       gradientUnits="userSpaceOnUse"
       gradientTransform="matrix(1.0238095,0,0,1.0119048,-1.1428571,-98.071429)"
       x1="32.251034"
       y1="6.1317081"
       x2="32.251034"
       y2="90.238609" />
    <linearGradient
       inkscape:collect="always"
       xlink:href="#ButtonShadow-0"
       id="linearGradient3032"
       gradientUnits="userSpaceOnUse"
       gradientTransform="matrix(1.0238095,0,0,1.0119048,-1.1428571,-98.071429)"
       x1="32.251034"
       y1="6.1317081"
       x2="32.251034"
       y2="90.238609" />
    <linearGradient
       inkscape:collect="always"
       xlink:href="#ButtonShadow-0"
       id="linearGradient3034"
       gradientUnits="userSpaceOnUse"
       gradientTransform="matrix(1.0238095,0,0,1.0119048,-1.1428571,-98.071429)"
       x1="32.251034"
       y1="6.1317081"
       x2="32.251034"
       y2="90.238609" />
    <linearGradient
       inkscape:collect="always"
       xlink:href="#ButtonShadow-0"
       id="linearGradient3038"
       gradientUnits="userSpaceOnUse"
       gradientTransform="matrix(1.0238095,0,0,1.0119048,-1.1428571,-98.071429)"
       x1="32.251034"
       y1="6.1317081"
       x2="32.251034"
       y2="90.238609" />
    <linearGradient
       inkscape:collect="always"
       xlink:href="#ButtonShadow-0"
       id="linearGradient3041"
       gradientUnits="userSpaceOnUse"
       gradientTransform="matrix(1.0238095,0,0,-1.0119048,-1.1428571,98.071429)"
       x1="32.251034"
       y1="6.1317081"
       x2="32.251034"
       y2="90.238609" />
    <linearGradient
       inkscape:collect="always"
       xlink:href="#ButtonShadow-0"
       id="linearGradient3044"
       gradientUnits="userSpaceOnUse"
       gradientTransform="matrix(1.0238095,0,0,-1.0119048,-1.1428571,98.071429)"
       x1="32.251034"
       y1="6.1317081"
       x2="32.251034"
       y2="90.238609" />
    <linearGradient
       inkscape:collect="always"
       xlink:href="#ButtonShadow-0"
       id="linearGradient3047"
       gradientUnits="userSpaceOnUse"
       gradientTransform="matrix(1.0238095,0,0,-1.0119048,-1.1428571,98.071429)"
       x1="32.251034"
       y1="6.1317081"
       x2="32.251034"
       y2="90.238609" />
  </defs>
  <metadata
     id="metadata2413">
    <rdf:RDF>
      <cc:Work
         rdf:about="">
        <dc:format>image/svg+xml</dc:format>
        <dc:type
           rdf:resource="http://purl.org/dc/dcmitype/StillImage" />
        <dc:title></dc:title>
      </cc:Work>
    </rdf:RDF>
  </metadata>
  <g
     id="layer2"
     style="display:none">
    <rect
       width="86"
       height="85"
       rx="6"
       ry="6"
       x="5"
       y="7"
       id="rect3745"
       style="opacity:0.9;fill:url(#ButtonShadow);fill-opacity:1;fill-rule:nonzero;stroke:none;filter:url(#filter3174)" />
  </g>
  <rect
     width="84"
     height="84"
     rx="6"
     ry="0"
     x="6"
     y="-91"
     transform="scale(1,-1)"
     id="rect3058"
     style="fill:#666666;fill-opacity:1;fill-rule:nonzero;stroke:none;display:inline" />
  <rect
     style="fill:#e6e6e6;fill-opacity:1;fill-rule:nonzero;stroke:none;display:inline"
     id="rect3716"
     transform="scale(1,-1)"
     y="-89.707947"
     x="7.2920523"
     ry="0"
     rx="5.8154211"
     height="81.415894"
     width="81.415894" />
  <g
     id="layer5" />
  <path
     d="m 44.47569,70.594471 c 0,1.355621 -1.138197,2.454569 -2.542231,2.454569 -1.404037,0 -2.542233,-1.098948 -2.542233,-2.454569 0,-1.355621 1.138196,-2.454568 2.542233,-2.454568 1.404034,0 2.542231,1.098947 2.542231,2.454568 z M 32.290508,32.548653 c 0,1.355621 -1.138196,2.454569 -2.542232,2.454569 -1.404036,0 -2.542232,-1.098948 -2.542232,-2.454569 0,-1.355621 1.138196,-2.454568 2.542232,-2.454568 1.404036,0 2.542232,1.098947 2.542232,2.454568 z m 43.480932,8.328001 c 0,1.355621 -1.138192,2.454568 -2.542224,2.454568 -1.404043,0 -2.542235,-1.098947 -2.542235,-2.454568 0,-1.355621 1.138192,-2.454569 2.542235,-2.454569 1.404032,0 2.542224,1.098948 2.542224,2.454569 z M 47.126277,77.795753 c -1.712078,-0.499199 -3.34291,-2.14658 -4.647792,-4.694959 -0.500139,-0.976749 -0.596398,-1.101008 -0.854458,-1.103004 -0.450517,-0.0035 -1.201058,-0.352103 -1.459516,-0.677931 -0.592697,-0.747195 -0.434415,-1.668254 0.212607,-2.329763 0.185572,-0.189728 0.214641,-0.422683 0.214641,-0.517678 0,-0.095 -0.124933,-0.618811 -0.27763,-1.164036 -0.331707,-1.184412 -0.940405,-3.951584 -1.045054,-4.750859 -0.04108,-0.313761 -0.109002,-0.620313 -0.150941,-0.681226 -0.05024,-0.07298 -0.638666,0.08059 -1.725263,0.450275 -3.106331,1.056835 -6.328079,1.87335 -9.34862,2.369301 -1.40142,0.230103 -5.002476,0.257104 -5.926282,0.04443 -2.122278,-0.488566 -3.271203,-1.558216 -3.399249,-3.164701 -0.07083,-0.888616 0.16465,-1.729624 0.837023,-2.989433 0.887881,-1.663597 1.930025,-2.986283 3.881536,-4.926437 1.594743,-1.585463 4.774319,-4.221801 6.535108,-5.418573 l 0.381078,-0.25901 -0.55575,-0.40301 C 22.564718,42.334026 18.497461,37.522525 18.715741,34.46933 c 0.183717,-2.569757 3.089528,-3.710878 8.182961,-3.213472 1.138635,0.111195 1.146587,0.110419 1.484465,-0.144795 1.030283,-0.778215 2.554146,-0.511982 3.213803,0.561482 0.230595,0.375246 0.349987,0.457112 0.83905,0.575322 0.942121,0.22772 3.671781,1.038695 5.163395,1.534033 0.769607,0.255572 1.425607,0.441048 1.457777,0.412169 0.03217,-0.02888 0.160822,-0.600228 0.285893,-1.269666 1.265619,-6.774237 3.369483,-11.682497 5.899627,-13.763674 1.295572,-1.065678 2.776565,-1.335778 4.123249,-0.75199 1.250189,0.541957 2.722838,2.138344 3.860866,4.185266 0.806123,1.44994 1.899585,4.446228 2.57841,7.065319 0.350514,1.352383 0.870145,3.859931 0.870145,4.199006 0,0.133721 0.05076,0.27129 0.112797,0.305709 0.06204,0.03442 0.870497,-0.189252 1.796576,-0.497046 8.256625,-2.744191 14.944593,-3.259424 17.538835,-1.35117 1.707248,1.255813 1.535407,3.771737 -0.447696,6.554598 -0.338705,0.47531 -0.40946,0.654553 -0.341552,0.8652 0.04712,0.14613 0.09008,0.591932 0.09546,0.99067 0.0088,0.648859 -0.02483,0.765711 -0.320028,1.112924 -0.466383,0.548549 -1.188223,0.815731 -1.978597,0.732345 -0.588786,-0.06212 -0.631527,-0.05037 -0.922536,0.253603 -0.544941,0.569209 -3.570023,3.072296 -4.978153,4.119133 -0.754944,0.56124 -1.372617,1.060425 -1.372617,1.109299 0,0.04887 0.384979,0.370177 0.855508,0.714004 1.368624,1.000087 3.660962,2.885071 4.696707,3.862083 4.764902,4.494741 6.630064,8.057531 5.399859,10.314692 -1.202015,2.205419 -5.374977,2.591671 -11.978691,1.108751 -1.683614,-0.37807 -5.6889,-1.549674 -7.121477,-2.083134 -0.466252,-0.173621 -0.88443,-0.280276 -0.929287,-0.237012 -0.04485,0.04327 -0.194326,0.70072 -0.332158,1.461011 -1.19995,6.619072 -3.220173,11.441471 -5.668041,13.529962 -0.37188,0.317284 -0.934189,0.69426 -1.249577,0.837724 -0.716801,0.326063 -1.7455,0.426208 -2.404442,0.234077 z m 1.535706,-1.343348 c 2.752197,-0.733682 5.107372,-5.649947 6.472276,-13.510443 0.156089,-0.898903 0.245877,-1.667539 0.199533,-1.708078 -0.04634,-0.04054 -0.828558,-0.355427 -1.738252,-0.699754 -0.909695,-0.344325 -2.537081,-1.03629 -3.616416,-1.537696 l -1.962426,-0.911648 -1.85886,0.853101 c -1.576788,0.723647 -3.334033,1.440759 -5.252391,2.143445 -0.372847,0.136573 -0.427698,0.200073 -0.427298,0.494696 6e-4,0.467843 0.277192,1.964067 0.74383,4.024265 0.589295,2.601714 0.600862,2.629703 1.164072,2.816461 0.617082,0.204622 0.973953,0.436248 1.250687,0.988958 0.284126,0.567479 0.265634,1.2553 -0.185097,1.86647 -0.37585,0.50963 -0.386615,0.464248 0.476293,2.007805 1.038863,1.8583 2.11278,2.881038 3.393852,3.232114 0.440394,0.120691 0.708291,0.108757 1.340197,-0.0597 z M 73.252203,63.69968 c 0.855693,-0.151131 1.78596,-0.607125 2.144171,-1.051016 0.463199,-0.574003 0.591849,-1.02226 0.530729,-1.849395 -0.12648,-1.711677 -1.713514,-3.990235 -4.793707,-6.882474 -1.804533,-1.694417 -6.260513,-5.092725 -6.587821,-5.024126 -0.0944,0.01978 -0.890029,0.520114 -1.768061,1.111843 -0.878041,0.59173 -2.369199,1.540007 -3.313688,2.107279 l -1.717252,1.031406 -0.137497,1.955204 c -0.07562,1.075362 -0.243031,2.696337 -0.372015,3.602167 -0.128987,0.905829 -0.211146,1.667943 -0.182581,1.693587 0.132677,0.119099 3.072104,1.128691 4.868041,1.672004 4.977038,1.505671 8.87307,2.067405 11.329681,1.633521 z m -46.15727,-0.09899 c 2.890031,-0.340978 6.70232,-1.300365 10.592111,-2.665575 0.856914,-0.300753 1.193311,-0.467317 1.192348,-0.59038 -6e-4,-0.09428 -0.101442,-0.891713 -0.223784,-1.772062 -0.122342,-0.880348 -0.284508,-2.521591 -0.360372,-3.647207 l -0.137934,-2.046572 -0.636381,-0.337082 c -1.109742,-0.587815 -3.676486,-2.153753 -4.806184,-2.932193 -0.599479,-0.413082 -1.131066,-0.751059 -1.181302,-0.751059 -0.123173,0 -0.762872,0.450655 -2.46257,1.734829 -1.755873,1.326615 -4.405503,3.637658 -5.583161,4.869708 -4.078028,4.266376 -4.400432,7.30901 -0.85601,8.078466 0.812265,0.176334 3.201563,0.207989 4.463239,0.05913 z m 15.296621,-4.41248 c 0.860869,-0.341747 2.118619,-0.879125 2.794999,-1.194171 l 1.22978,-0.572814 -1.115711,-0.521645 c -1.381022,-0.64569 -3.372867,-1.675322 -4.399378,-2.274144 -1.186852,-0.692358 -1.108256,-0.731097 -1.105986,0.545114 0.002,1.120835 0.11137,2.341159 0.350464,3.910156 0.155311,1.01918 -0.02854,1.010379 2.245832,0.107504 z m 13.30775,0.191528 c 0.413189,-2.779067 0.616711,-5.298989 0.427975,-5.298989 -0.06756,0 -0.152468,0.04303 -0.188674,0.09562 -0.107242,0.155763 -3.545818,1.960782 -4.993767,2.621386 -0.736404,0.335975 -1.33954,0.638032 -1.340302,0.671241 -0.0035,0.154414 5.449158,2.442557 5.829917,2.446437 0.137319,0.0014 0.2055,-0.136502 0.264851,-0.535695 z m -5.701658,-3.67682 c 1.864739,-0.899542 4.419738,-2.250041 5.696344,-3.010924 l 0.604632,-0.360374 0.07431,-1.240628 c 0.09175,-1.53174 0.07366,-6.78522 -0.02473,-7.182091 -0.06032,-0.243297 -0.38561,-0.464309 -1.996887,-1.356745 -1.058656,-0.586359 -1.938233,-1.066106 -1.954614,-1.066106 -0.01638,0 -0.613134,-0.291843 -1.326114,-0.64854 -2.390935,-1.196159 -2.828078,-1.399378 -3.010194,-1.399378 -0.42862,0 -5.955275,2.768699 -7.94556,3.980504 -0.494553,0.301112 -0.539505,0.364914 -0.609029,0.864419 -0.136853,0.983253 -0.01328,7.775457 0.146024,8.025991 0.126919,0.199611 2.170106,1.404504 3.650202,2.152575 2.077645,1.050082 4.445934,2.174161 4.585356,2.176379 0.0915,0.0015 1.041116,-0.419332 2.110262,-0.935082 z m -3.0861,-4.772225 c -2.013769,-0.647399 -2.957238,-2.723336 -1.999649,-4.399866 0.447076,-0.782734 1.167584,-1.286925 2.167755,-1.516937 0.874364,-0.201081 1.423366,-0.138419 2.374482,0.271015 2.007544,0.864204 2.550777,3.315396 1.070227,4.8291 -0.80643,0.824488 -2.439948,1.193749 -3.612815,0.816688 z M 37.96819,47.982149 c 0,-2.719977 -0.02972,-3.420988 -0.142586,-3.362817 -0.892659,0.460084 -5.16159,3.28502 -5.16159,3.415645 0,0.04597 0.329731,0.307675 0.732735,0.581572 0.967748,0.657724 4.376742,2.779519 4.485889,2.79207 0.04705,0.0054 0.08555,-1.536502 0.08555,-3.42647 z m 22.31114,2.028362 c 1.231906,-0.774369 2.426403,-1.557211 2.654437,-1.739649 0.406278,-0.325043 0.41003,-0.334901 0.186469,-0.490737 -1.933369,-1.347735 -4.891382,-3.222197 -5.084815,-3.222197 -0.05464,0 -0.113509,1.54364 -0.130831,3.430312 -0.01732,1.886671 0.0059,3.43029 0.05171,3.430264 0.04576,-2.7e-5 1.091122,-0.633624 2.32303,-1.407993 z M 34.298954,45.355932 c 1.373283,-0.884567 2.807125,-1.781818 3.186314,-1.993889 l 0.689437,-0.385587 0.07266,-1.129186 c 0.106984,-1.662708 0.27779,-3.324696 0.484366,-4.713044 0.274407,-1.844214 0.335396,-1.655894 -0.649472,-2.005388 -1.111115,-0.394295 -4.632217,-1.449191 -5.608666,-1.680314 l -0.760767,-0.180071 -0.352092,0.359978 c -0.696257,0.711845 -1.784311,0.900525 -2.656243,0.460617 -0.457086,-0.230608 -0.912818,-0.807401 -1.045708,-1.323487 -0.06617,-0.256975 -0.120022,-0.277016 -0.926729,-0.344876 -1.474174,-0.124006 -3.671002,-0.0025 -4.435712,0.245243 -3.655571,1.184521 -2.557818,4.746428 3.004863,9.749961 1.038145,0.933793 2.657497,2.27147 3.598559,2.972617 2.510339,1.870347 2.471957,1.846224 2.704722,1.699924 0.108675,-0.06831 1.321189,-0.847931 2.694471,-1.732498 z m 31.553649,0.885103 c 1.752261,-1.257546 2.778934,-2.071978 4.369245,-3.465981 l 1.284147,-1.125618 -0.07177,-0.485667 c -0.102098,-0.690874 0.02804,-1.286356 0.434794,-1.702223 0.471739,-0.482307 0.916331,-0.678696 1.611732,-0.63184 l 0.590036,0.03975 0.539156,-0.714024 c 1.203797,-1.594269 1.644376,-3.264889 1.123263,-4.259288 -0.302785,-0.577781 -0.578906,-0.817679 -1.320212,-1.147034 -1.838067,-0.81663 -5.565402,-0.631657 -10.152075,0.503809 -1.990269,0.492708 -7.004866,2.04597 -7.215396,2.234956 -0.03383,0.03037 0.05009,0.873995 0.186486,1.874736 0.229738,1.685639 0.464319,4.275153 0.468297,5.169457 0.0016,0.364841 0.04263,0.404507 0.999788,0.966931 1.661026,0.976022 3.796481,2.340727 4.762347,3.043477 0.501901,0.365173 0.938211,0.666919 0.969579,0.670543 0.03137,0.0036 0.670631,-0.433769 1.420583,-0.971989 z m -9.633495,-4.79131 c 0,-1.27081 -0.487478,-5.390656 -0.637847,-5.390656 -0.175107,0 -5.864041,2.480525 -5.864041,2.556875 0,0.03048 0.266886,0.165328 0.593082,0.29966 0.893396,0.367913 4.274785,2.124264 5.053295,2.624766 0.376426,0.242002 0.722909,0.443977 0.769962,0.448834 0.04705,0.0049 0.08555,-0.23791 0.08555,-0.539479 z M 40.231945,41.70678 c 0.750027,-0.467822 3.94926,-2.154132 5.005859,-2.638577 l 1.166961,-0.535046 -0.710689,-0.350658 c -1.492921,-0.736616 -5.077971,-2.153727 -5.275998,-2.085513 -0.160371,0.05524 -0.217009,0.363973 -0.443882,2.419586 -0.391836,3.550288 -0.388368,3.593218 0.257749,3.190208 z m 8.888489,-4.4053 c 1.055009,-0.473594 4.200916,-1.749649 5.672823,-2.301035 0.8121,-0.304218 0.790552,-0.08016 0.272382,-2.832421 -1.039259,-5.520019 -2.682878,-9.690574 -4.521686,-11.473426 -0.918662,-0.890705 -1.608121,-1.22227 -2.537758,-1.22042 -0.812246,0.0016 -1.452263,0.266625 -2.143642,0.887604 -2.143887,1.925586 -3.914759,6.283061 -5.026916,12.36942 -0.319684,1.74949 -0.333339,1.887958 -0.195923,1.9867 0.06773,0.04867 0.944438,0.412177 1.948239,0.807795 1.003801,0.395618 2.620719,1.065326 3.59315,1.488239 0.972432,0.422911 1.781823,0.772741 1.798647,0.777396 0.01682,0.0047 0.530132,-0.215776 1.140684,-0.489852 z"
     id="path4"
     inkscape:connector-curvature="0"
     style="fill:#666666" />
</svg>
