<?xml version="1.0" encoding="UTF-8" standalone="no"?>
<!-- Created with Inkscape (http://www.inkscape.org/) -->

<svg
   xmlns:dc="http://purl.org/dc/elements/1.1/"
   xmlns:cc="http://creativecommons.org/ns#"
   xmlns:rdf="http://www.w3.org/1999/02/22-rdf-syntax-ns#"
   xmlns:svg="http://www.w3.org/2000/svg"
   xmlns="http://www.w3.org/2000/svg"
   xmlns:xlink="http://www.w3.org/1999/xlink"
   xmlns:sodipodi="http://sodipodi.sourceforge.net/DTD/sodipodi-0.dtd"
   xmlns:inkscape="http://www.inkscape.org/namespaces/inkscape"
   version="1.0"
   width="96"
   height="96"
   id="svg2408"
   inkscape:version="0.48.4 r9939"
   sodipodi:docname="calibre.svg">
  <sodipodi:namedview
     pagecolor="#ffffff"
     bordercolor="#666666"
     borderopacity="1"
     objecttolerance="10"
     gridtolerance="10"
     guidetolerance="10"
     inkscape:pageopacity="0"
     inkscape:pageshadow="2"
     inkscape:window-width="640"
     inkscape:window-height="480"
     id="namedview119"
     showgrid="false"
     inkscape:zoom="4.1951993"
     inkscape:cx="113.16971"
     inkscape:cy="43.739137"
     inkscape:current-layer="svg2408" />
  <defs
     id="defs2410">
    <linearGradient
       x1="45.447727"
       y1="92.539597"
       x2="45.447727"
       y2="7.0165396"
       id="ButtonShadow"
       gradientUnits="userSpaceOnUse"
       gradientTransform="scale(1.0058652,0.994169)">
      <stop
         id="stop3750"
         style="stop-color:#000000;stop-opacity:1"
         offset="0" />
      <stop
         id="stop3752"
         style="stop-color:#000000;stop-opacity:0.58823532"
         offset="1" />
    </linearGradient>
    <linearGradient
       id="linearGradient3737">
      <stop
         id="stop3739"
         style="stop-color:#ffffff;stop-opacity:1"
         offset="0" />
      <stop
         id="stop3741"
         style="stop-color:#ffffff;stop-opacity:0"
         offset="1" />
    </linearGradient>
    <filter
       color-interpolation-filters="sRGB"
       id="filter3174">
      <feGaussianBlur
         stdDeviation="1.71"
         id="feGaussianBlur3176" />
    </filter>
    <linearGradient
       x1="36.357143"
       y1="6"
       x2="36.357143"
       y2="63.893143"
       id="linearGradient3188"
       xlink:href="#linearGradient3737"
       gradientUnits="userSpaceOnUse" />
    <filter
       x="-0.192"
       y="-0.192"
       width="1.3839999"
       height="1.3839999"
       color-interpolation-filters="sRGB"
       id="filter3794">
      <feGaussianBlur
         stdDeviation="5.28"
         id="feGaussianBlur3796" />
    </filter>
    <linearGradient
       x1="48"
       y1="20.220806"
       x2="48"
       y2="138.66119"
       id="linearGradient3613"
       xlink:href="#linearGradient3737"
       gradientUnits="userSpaceOnUse" />
    <radialGradient
       cx="48"
       cy="90.171875"
       r="42"
       fx="48"
       fy="90.171875"
       id="radialGradient3619"
       xlink:href="#linearGradient3737"
       gradientUnits="userSpaceOnUse"
       gradientTransform="matrix(1.1573129,0,0,0.99590774,-7.5510206,0.19713193)" />
    <clipPath
       id="clipPath3613">
      <rect
         width="84"
         height="84"
         rx="6"
         ry="6"
         x="6"
         y="6"
         id="rect3615"
         style="fill:#ffffff;fill-opacity:1;fill-rule:nonzero;stroke:none" />
    </clipPath>
    <linearGradient
       x1="48"
       y1="90"
       x2="48"
       y2="5.9877172"
       id="linearGradient3617"
       xlink:href="#ButtonColor"
       gradientUnits="userSpaceOnUse" />
    <linearGradient
       x1="58.650177"
       y1="122"
       x2="58.650177"
       y2="5.4252338"
       id="ButtonColor"
       gradientUnits="userSpaceOnUse"
       gradientTransform="matrix(1.0172414,0,0,1.0172414,-1.1034483,-1.1034483)">
      <stop
         id="stop3189"
         style="stop-color:#cda060;stop-opacity:1"
         offset="0" />
      <stop
         id="stop3191"
         style="stop-color:#dbbb8e;stop-opacity:1"
         offset="1" />
    </linearGradient>
    <linearGradient
       x1="5"
       y1="64"
       x2="11.227473"
       y2="64"
       id="linearGradient3300"
       xlink:href="#linearGradient3294"
       gradientUnits="userSpaceOnUse"
       gradientTransform="translate(1,-15.321429)" />
    <linearGradient
       id="linearGradient3294">
      <stop
         id="stop3296"
         style="stop-color:#72401f;stop-opacity:1"
         offset="0" />
      <stop
         id="stop3298"
         style="stop-color:#72401f;stop-opacity:0"
         offset="1" />
    </linearGradient>
    <linearGradient
       id="linearGradient3238">
      <stop
         id="stop3240"
         style="stop-color:#784421;stop-opacity:1"
         offset="0" />
      <stop
         id="stop3242"
         style="stop-color:#784421;stop-opacity:0"
         offset="1" />
    </linearGradient>
    <linearGradient
       id="linearGradient3250">
      <stop
         id="stop3252"
         style="stop-color:#c4875e;stop-opacity:1"
         offset="0" />
      <stop
         id="stop3254"
         style="stop-color:#c4875e;stop-opacity:0"
         offset="1" />
    </linearGradient>
    <linearGradient
       x1="5"
       y1="28"
       x2="21"
       y2="28"
       id="linearGradient3913"
       xlink:href="#linearGradient3238"
       gradientUnits="userSpaceOnUse"
       gradientTransform="matrix(1.125,0,0,1,0.375,-4.0000007)" />
    <linearGradient
       x1="5"
       y1="27"
       x2="21"
       y2="27"
       id="linearGradient3915"
       xlink:href="#linearGradient3250"
       gradientUnits="userSpaceOnUse"
       gradientTransform="matrix(1.125,0,0,1,0.375,-9.9999997)" />
    <linearGradient
       x1="5"
       y1="28"
       x2="21"
       y2="28"
       id="linearGradient3923"
       xlink:href="#linearGradient3238"
       gradientUnits="userSpaceOnUse"
       gradientTransform="matrix(1.125,0,0,1,0.375,-4.0000007)" />
    <linearGradient
       x1="5"
       y1="27"
       x2="21"
       y2="27"
       id="linearGradient3925"
       xlink:href="#linearGradient3250"
       gradientUnits="userSpaceOnUse"
       gradientTransform="matrix(1.125,0,0,1,0.375,-9.9999997)" />
    <linearGradient
       x1="5"
       y1="28"
       x2="21"
       y2="28"
       id="linearGradient3933"
       xlink:href="#linearGradient3238"
       gradientUnits="userSpaceOnUse"
       gradientTransform="matrix(1.125,0,0,1,0.375,-4.0000007)" />
    <linearGradient
       x1="5"
       y1="27"
       x2="21"
       y2="27"
       id="linearGradient3935"
       xlink:href="#linearGradient3250"
       gradientUnits="userSpaceOnUse"
       gradientTransform="matrix(1.125,0,0,1,0.375,-9.9999997)" />
    <linearGradient
       x1="5"
       y1="28"
       x2="21"
       y2="28"
       id="linearGradient3937"
       xlink:href="#linearGradient3238"
       gradientUnits="userSpaceOnUse"
       gradientTransform="matrix(1.125,0,0,1,0.375,-4.0000007)" />
    <linearGradient
       x1="5"
       y1="27"
       x2="21"
       y2="27"
       id="linearGradient3939"
       xlink:href="#linearGradient3250"
       gradientUnits="userSpaceOnUse"
       gradientTransform="matrix(1.125,0,0,1,0.375,-9.9999997)" />
    <linearGradient
       x1="45.447727"
       y1="92.539597"
       x2="45.447727"
       y2="7.0165396"
       id="ButtonShadow-0"
       gradientUnits="userSpaceOnUse"
       gradientTransform="matrix(1.0058652,0,0,0.994169,100,0)">
      <stop
         id="stop3750-8"
         style="stop-color:#000000;stop-opacity:1"
         offset="0" />
      <stop
         id="stop3752-5"
         style="stop-color:#000000;stop-opacity:0.58823532"
         offset="1" />
    </linearGradient>
    <linearGradient
       x1="32.251034"
       y1="6.1317081"
       x2="32.251034"
       y2="90.238609"
       id="linearGradient3780"
       xlink:href="#ButtonShadow-0"
       gradientUnits="userSpaceOnUse"
       gradientTransform="matrix(1.0238095,0,0,1.0119048,-1.1428571,-98.071429)" />
    <linearGradient
       x1="32.251034"
       y1="6.1317081"
       x2="32.251034"
       y2="90.238609"
       id="linearGradient3772"
       xlink:href="#ButtonShadow-0"
       gradientUnits="userSpaceOnUse"
       gradientTransform="matrix(1.0238095,0,0,1.0119048,-1.1428571,-98.071429)" />
    <linearGradient
       x1="32.251034"
       y1="6.1317081"
       x2="32.251034"
       y2="90.238609"
       id="linearGradient3725"
       xlink:href="#ButtonShadow-0"
       gradientUnits="userSpaceOnUse"
       gradientTransform="matrix(1.0238095,0,0,1.0119048,-1.1428571,-98.071429)" />
    <linearGradient
       x1="32.251034"
       y1="6.1317081"
       x2="32.251034"
       y2="90.238609"
       id="linearGradient3721"
       xlink:href="#ButtonShadow-0"
       gradientUnits="userSpaceOnUse"
       gradientTransform="translate(0,-97)" />
    <linearGradient
       x1="32.251034"
       y1="6.1317081"
       x2="32.251034"
       y2="90.238609"
       id="linearGradient2969"
       xlink:href="#ButtonShadow-0"
       gradientUnits="userSpaceOnUse"
       gradientTransform="matrix(1.0238095,0,0,1.0119048,-1.1428571,-98.071429)" />
    <linearGradient
       x1="5"
       y1="28"
       x2="21"
       y2="28"
       id="linearGradient3923-6"
       xlink:href="#linearGradient3238-9"
       gradientUnits="userSpaceOnUse"
       gradientTransform="matrix(1.125,0,0,1,0.42947455,51.63053)" />
    <linearGradient
       id="linearGradient3238-9">
      <stop
         id="stop3240-6"
         style="stop-color:#784421;stop-opacity:1"
         offset="0" />
      <stop
         id="stop3242-6"
         style="stop-color:#784421;stop-opacity:0"
         offset="1" />
    </linearGradient>
    <linearGradient
       x1="5"
       y1="27"
       x2="21"
       y2="27"
       id="linearGradient3925-0"
       xlink:href="#linearGradient3250-4"
       gradientUnits="userSpaceOnUse"
       gradientTransform="matrix(1.125,0,0,1,0.42947455,45.630531)" />
    <linearGradient
       id="linearGradient3250-4">
      <stop
         id="stop3252-4"
         style="stop-color:#c4875e;stop-opacity:1"
         offset="0" />
      <stop
         id="stop3254-3"
         style="stop-color:#c4875e;stop-opacity:0"
         offset="1" />
    </linearGradient>
    <linearGradient
       x1="5"
       y1="28"
       x2="21"
       y2="28"
       id="linearGradient3933-2"
       xlink:href="#linearGradient3238-9"
       gradientUnits="userSpaceOnUse"
       gradientTransform="matrix(1.125,0,0,1,0.42947455,33.63053)" />
    <linearGradient
       id="linearGradient3081">
      <stop
         id="stop3083"
         style="stop-color:#784421;stop-opacity:1"
         offset="0" />
      <stop
         id="stop3085"
         style="stop-color:#784421;stop-opacity:0"
         offset="1" />
    </linearGradient>
    <linearGradient
       x1="5"
       y1="27"
       x2="21"
       y2="27"
       id="linearGradient3935-1"
       xlink:href="#linearGradient3250-4"
       gradientUnits="userSpaceOnUse"
       gradientTransform="matrix(1.125,0,0,1,0.42947455,27.630531)" />
    <linearGradient
       id="linearGradient3088">
      <stop
         id="stop3090"
         style="stop-color:#c4875e;stop-opacity:1"
         offset="0" />
      <stop
         id="stop3092"
         style="stop-color:#c4875e;stop-opacity:0"
         offset="1" />
    </linearGradient>
    <linearGradient
       x1="5"
       y1="28"
       x2="21"
       y2="28"
       id="linearGradient3913-2"
       xlink:href="#linearGradient3238-9"
       gradientUnits="userSpaceOnUse"
       gradientTransform="matrix(1.125,0,0,1,0.42947455,15.63053)" />
    <linearGradient
       id="linearGradient3095">
      <stop
         id="stop3097"
         style="stop-color:#784421;stop-opacity:1"
         offset="0" />
      <stop
         id="stop3099"
         style="stop-color:#784421;stop-opacity:0"
         offset="1" />
    </linearGradient>
    <linearGradient
       x1="5"
       y1="27"
       x2="21"
       y2="27"
       id="linearGradient3915-1"
       xlink:href="#linearGradient3250-4"
       gradientUnits="userSpaceOnUse"
       gradientTransform="matrix(1.125,0,0,1,0.42947455,9.6305304)" />
    <linearGradient
       id="linearGradient3102">
      <stop
         id="stop3104"
         style="stop-color:#c4875e;stop-opacity:1"
         offset="0" />
      <stop
         id="stop3106"
         style="stop-color:#c4875e;stop-opacity:0"
         offset="1" />
    </linearGradient>
    <linearGradient
       x1="5"
       y1="28"
       x2="21"
       y2="28"
       id="linearGradient3937-9"
       xlink:href="#linearGradient3238-9"
       gradientUnits="userSpaceOnUse"
       gradientTransform="matrix(1.125,0,0,1,0.375,-4.0000007)" />
    <linearGradient
       id="linearGradient3109">
      <stop
         id="stop3111"
         style="stop-color:#784421;stop-opacity:1"
         offset="0" />
      <stop
         id="stop3113"
         style="stop-color:#784421;stop-opacity:0"
         offset="1" />
    </linearGradient>
    <linearGradient
       x1="5"
       y1="27"
       x2="21"
       y2="27"
       id="linearGradient3939-5"
       xlink:href="#linearGradient3250-4"
       gradientUnits="userSpaceOnUse"
       gradientTransform="matrix(1.125,0,0,1,0.42947455,-8.3694694)" />
    <linearGradient
       id="linearGradient3116">
      <stop
         id="stop3118"
         style="stop-color:#c4875e;stop-opacity:1"
         offset="0" />
      <stop
         id="stop3120"
         style="stop-color:#c4875e;stop-opacity:0"
         offset="1" />
    </linearGradient>
    <linearGradient
       x1="5"
       y1="28"
       x2="21"
       y2="28"
       id="linearGradient3130"
       xlink:href="#linearGradient3238-9"
       gradientUnits="userSpaceOnUse"
       gradientTransform="matrix(1.125,0,0,1,0.42947455,-2.3694709)" />
  </defs>
  <metadata
     id="metadata2413">
    <rdf:RDF>
      <cc:Work
         rdf:about="">
        <dc:format>image/svg+xml</dc:format>
        <dc:type
           rdf:resource="http://purl.org/dc/dcmitype/StillImage" />
        <dc:title />
      </cc:Work>
    </rdf:RDF>
  </metadata>
  <g
     id="layer2"
     style="display:none">
    <rect
       width="86"
       height="85"
       rx="6"
       ry="6"
       x="5"
       y="7"
       id="rect3745"
       style="opacity:0.9;fill:url(#ButtonShadow);fill-opacity:1;fill-rule:nonzero;stroke:none;filter:url(#filter3174)" />
  </g>
  <g
     id="layer1">
    <path
       d="M 12,6 C 8.676,6 6,8.676 6,12 l 0,72 c 0,3.324 2.676,6 6,6 L 24,90 24,6 12,6 z"
       id="rect3170"
       style="fill:#a05a2c;fill-opacity:1;fill-rule:nonzero;stroke:none;display:inline" />
    <rect
       width="84"
       height="84"
       rx="0"
       ry="6"
       x="6"
       y="6"
       id="rect2419"
       style="fill:#d3ab73;fill-opacity:1;fill-rule:nonzero;stroke:none" />
    <g
       transform="translate(0,2)"
       id="g3903">
      <rect
         width="18"
         height="2"
         x="6"
         y="20"
         id="rect3236"
         style="fill:url(#linearGradient3937);fill-opacity:1;fill-rule:nonzero;stroke:none" />
      <rect
         width="18"
         height="2"
         x="6"
         y="16"
         id="rect3246"
         style="fill:url(#linearGradient3939);fill-opacity:1;fill-rule:nonzero;stroke:none" />
    </g>
    <g
       transform="translate(0,20)"
       id="g3907">
      <rect
         width="18"
         height="2"
         x="6"
         y="20"
         id="rect3909"
         style="fill:url(#linearGradient3913);fill-opacity:1;fill-rule:nonzero;stroke:none" />
      <rect
         width="18"
         height="2"
         x="6"
         y="16"
         id="rect3911"
         style="fill:url(#linearGradient3915);fill-opacity:1;fill-rule:nonzero;stroke:none" />
    </g>
    <g
       transform="translate(0,56)"
       id="g3917">
      <rect
         width="18"
         height="2"
         x="6"
         y="20"
         id="rect3919"
         style="fill:url(#linearGradient3923);fill-opacity:1;fill-rule:nonzero;stroke:none" />
      <rect
         width="18"
         height="2"
         x="6"
         y="16"
         id="rect3921"
         style="fill:url(#linearGradient3925);fill-opacity:1;fill-rule:nonzero;stroke:none" />
    </g>
    <g
       transform="translate(0,38)"
       id="g3927">
      <rect
         width="18"
         height="2"
         x="6"
         y="20"
         id="rect3929"
         style="fill:url(#linearGradient3933);fill-opacity:1;fill-rule:nonzero;stroke:none" />
      <rect
         width="18"
         height="2"
         x="6"
         y="16"
         id="rect3931"
         style="fill:url(#linearGradient3935);fill-opacity:1;fill-rule:nonzero;stroke:none" />
    </g>
    <rect
       width="1"
       height="84"
       x="24"
       y="6"
       id="rect3941"
       style="opacity:0.1;fill:#ffffff;fill-opacity:1;stroke:none" />
    <rect
       width="1"
       height="84"
       x="23"
       y="6"
       id="rect3943"
       style="opacity:0.1;fill:#000000;fill-opacity:1;stroke:none" />
    <path
       d="m 28,10 0,0.498361 0,5.201639 0,0.498361 0.49948,0 4.557752,0 0,4.142623 -1.498439,0 0,-2.118033 0,-0.498361 -0.49948,0 -2.559833,0 -0.49948,0 0,0.498361 0,2.616393 0,0.498361 0.49948,0 2.060354,0 0,53.32459 -2.060354,0 -0.49948,0 0,0.498361 0,2.647541 0,0.49836 0.49948,0 2.559833,0 0.49948,0 0,-0.49836 0,-2.149181 1.498439,0 0,4.142623 -4.557752,0 -0.49948,0 L 28,80.3 28,85.501639 28,86 l 0.49948,0 5.057232,0 0.499479,0 0,-0.498361 0,-4.703278 4.245578,0 0,1.650819 -2.154006,0 -0.49948,0 0,0.498361 0,2.554098 0,0.498361 0.49948,0 2.653486,0 0.499479,0 0,-0.498361 0,-2.055737 35.398544,0 0,2.055737 0,0.498361 0.499479,0 2.684704,0 0.499479,0 0,-0.498361 0,-2.554098 0,-0.498361 -0.499479,0 -2.185224,0 0,-1.650819 4.245578,0 0,4.703278 0,0.498361 0.499479,0 5.057232,0 L 86,86 86,85.501639 86,80.3 l 0,-0.498361 -0.49948,0 -4.557752,0 0,-4.142623 1.529657,0 0,2.149181 0,0.49836 0.499479,0 2.528616,0 0.49948,0 0,-0.49836 0,-2.647541 0,-0.498361 -0.49948,0 -2.029136,0 0,-53.32459 2.029136,0 0.49948,0 0,-0.498361 0,-2.616393 0,-0.498361 -0.49948,0 -2.528616,0 -0.499479,0 0,0.498361 0,2.118033 -1.529657,0 0,-4.142623 4.557752,0 0.49948,0 L 86,15.7 86,10.498361 86,10 l -0.49948,0 -5.057232,0 -0.499479,0 0,0.498361 0,4.703278 -4.245578,0 0,-1.650819 2.185224,0 0.499479,0 0,-0.467213 0,-2.585246 0,-0.498361 -0.499479,0 -2.684704,0 -0.499479,0 0,0.498361 0,2.086885 -35.398544,0 0,-2.086885 0,-0.498361 -0.499479,0 -2.653486,0 -0.49948,0 0,0.498361 0,2.585246 0,0.467213 0.49948,0 2.154006,0 0,1.650819 -4.245578,0 0,-4.703278 0,-0.498361 -0.499479,0 L 28.49948,10 28,10 z m 0.998959,0.996721 4.058273,0 0,4.204918 -4.058273,0 0,-4.204918 z m 7.648283,0 1.654527,0 0,1.588525 -1.654527,0 0,-1.588525 z m 39.050989,0 1.685744,0 0,1.588525 -1.685744,0 0,-1.588525 z m 5.244537,0 4.058273,0 0,4.204918 -4.058273,0 0,-4.204918 z m -41.64204,2.554099 35.398544,0 0,1.650819 -2.091572,0 -0.499479,0 0,0.498361 0,2.585246 0,0.467213 0.499479,0 2.591051,0 0.49948,0 0,-0.467213 0,-2.086885 4.245578,0 0,4.142623 -2.154007,0 -0.499479,0 0,0.49836 0,2.585246 0,0.467213 0.499479,0 2.653486,0 0.49948,0 0,-0.467213 0,-2.086885 1.529657,0 0,53.32459 -1.529657,0 0,-2.055738 0,-0.49836 -0.49948,0 -2.653486,0 -0.499479,0 0,0.49836 0,2.554099 0,0.49836 0.499479,0 2.154007,0 0,4.142623 -4.245578,0 0,-2.055737 0,-0.498361 -0.49948,0 -2.591051,0 -0.499479,0 0,0.498361 0,2.554098 0,0.498361 0.499479,0 2.091572,0 0,1.650819 -35.398544,0 0,-1.650819 2.122789,0 0.49948,0 0,-0.498361 0,-2.554098 0,-0.498361 -0.49948,0 -2.622268,0 -0.49948,0 0,0.498361 0,2.055737 -4.245578,0 0,-4.142623 2.185224,0 0.49948,0 0,-0.49836 0,-2.554099 0,-0.49836 -0.49948,0 -2.684703,0 -0.49948,0 0,0.49836 0,2.055738 -1.498439,0 0,-53.32459 1.498439,0 0,2.086885 0,0.467213 0.49948,0 2.684703,0 0.49948,0 0,-0.467213 0,-2.585246 0,-0.49836 -0.49948,0 -2.185224,0 0,-4.142623 4.245578,0 0,2.086885 0,0.467213 0.49948,0 2.622268,0 0.49948,0 0,-0.467213 0,-2.585246 0,-0.498361 -0.49948,0 -2.122789,0 0,-1.650819 z m 0,2.647541 1.623309,0 0,1.588524 -1.623309,0 0,-1.588524 z m 33.806452,0 1.592092,0 0,1.588524 -1.592092,0 0,-1.588524 z m -44.108221,2.491803 1.560875,0 0,1.65082 -1.560875,0 0,-1.65082 z m 54.472425,0 1.529657,0 0,1.65082 -1.529657,0 0,-1.65082 z m -49.415193,2.647541 1.685744,0 0,1.588525 -1.685744,0 0,-1.588525 z m 44.233091,0 1.654527,0 0,1.588525 -1.654527,0 0,-1.588525 z m -44.233091,51.767213 1.685744,0 0,1.557377 -1.685744,0 0,-1.557377 z m 44.233091,0 1.654527,0 0,1.557377 -1.654527,0 0,-1.557377 z m -49.290323,2.554098 1.560875,0 0,1.65082 -1.560875,0 0,-1.65082 z m 54.472425,0 1.529657,0 0,1.65082 -1.529657,0 0,-1.65082 z m -44.170656,2.585246 1.623309,0 0,1.557377 -1.623309,0 0,-1.557377 z m 33.806452,0 1.592092,0 0,1.557377 -1.592092,0 0,-1.557377 z m -44.108221,2.554099 4.058273,0 0,4.204918 -4.058273,0 0,-4.204918 z m 51.943809,0 4.058273,0 0,4.204918 -4.058273,0 0,-4.204918 z m -44.295526,2.647541 1.654527,0 0,1.557377 -1.654527,0 0,-1.557377 z m 39.050989,0 1.685744,0 0,1.557377 -1.685744,0 0,-1.557377 z"
       id="path3189"
       style="opacity:0.85;fill:#a05a2c;fill-opacity:1;fill-rule:evenodd;stroke:none;display:inline" />
  </g>
  <rect
     width="18.121126"
     height="84.054153"
     x="5.9939113"
     y="5.9519377"
     id="rect3060"
     style="fill:#a05a2c;fill-opacity:1;fill-rule:evenodd;stroke:none" />
  <g
     id="layer5" />
  <rect
     width="18"
     height="2"
     x="6.0544758"
     y="21.630529"
     id="rect3236-9"
     style="fill:url(#linearGradient3130);fill-opacity:1;fill-rule:nonzero;stroke:none" />
  <rect
     width="18"
     height="2"
     x="6.0544758"
     y="17.630529"
     id="rect3246-7"
     style="fill:url(#linearGradient3939-5);fill-opacity:1;fill-rule:nonzero;stroke:none" />
  <rect
     width="18"
     height="2"
     x="6.0544758"
     y="39.630531"
     id="rect3909-5"
     style="fill:url(#linearGradient3913-2);fill-opacity:1;fill-rule:nonzero;stroke:none" />
  <rect
     width="18"
     height="2"
     x="6.0544758"
     y="35.630531"
     id="rect3911-6"
     style="fill:url(#linearGradient3915-1);fill-opacity:1;fill-rule:nonzero;stroke:none" />
  <rect
     width="18"
     height="2"
     x="6.0544758"
     y="75.630531"
     id="rect3919-3"
     style="fill:url(#linearGradient3923-6);fill-opacity:1;fill-rule:nonzero;stroke:none" />
  <rect
     width="18"
     height="2"
     x="6.0544758"
     y="71.630531"
     id="rect3921-1"
     style="fill:url(#linearGradient3925-0);fill-opacity:1;fill-rule:nonzero;stroke:none" />
  <rect
     width="18"
     height="2"
     x="6.0544758"
     y="57.630531"
     id="rect3929-9"
     style="fill:url(#linearGradient3933-2);fill-opacity:1;fill-rule:nonzero;stroke:none" />
  <rect
     width="18"
     height="2"
     x="6.0544758"
     y="53.630531"
     id="rect3931-5"
     style="fill:url(#linearGradient3935-1);fill-opacity:1;fill-rule:nonzero;stroke:none" />
  <text
     sodipodi:linespacing="125%"
     id="text3100"
     y="45.925068"
     x="42.932209"
     style="font-size:12.79733657999999963px;font-style:normal;font-variant:normal;font-weight:500;font-stretch:normal;line-height:125%;letter-spacing:0px;word-spacing:0px;fill:#000000;fill-opacity:1;stroke:none;font-family:Century Schoolbook L;-inkscape-font-specification:Century Schoolbook L Medium;opacity:0.3"
     xml:space="preserve"
     transform="scale(0.97622221,1.0243569)"><tspan
       style="font-style:normal;font-variant:normal;font-weight:normal;font-stretch:normal;fill:#000000;font-family:Sans;-inkscape-font-specification:Clean"
       y="45.925068"
       x="42.932209"
       id="tspan3102"
       sodipodi:role="line">Book</tspan></text>
  <text
     xml:space="preserve"
     style="font-size:12.4930439px;font-style:normal;font-variant:normal;font-weight:500;font-stretch:normal;line-height:125%;letter-spacing:0px;word-spacing:0px;fill:#8b4e26;fill-opacity:1;stroke:none;font-family:Century Schoolbook L;-inkscape-font-specification:Century Schoolbook L Medium"
     x="41.911377"
     y="46.575649"
     id="text3096"
     sodipodi:linespacing="125%"><tspan
       sodipodi:role="line"
       id="tspan3098"
       x="41.911377"
       y="46.575649"
       style="font-style:normal;font-variant:normal;font-weight:normal;font-stretch:normal;font-family:Sans;-inkscape-font-specification:Clean">Book</tspan></text>
</svg>
