<?xml version="1.0" encoding="UTF-8" standalone="no"?>
<!-- Created with Inkscape (http://www.inkscape.org/) -->

<svg
   xmlns:dc="http://purl.org/dc/elements/1.1/"
   xmlns:cc="http://creativecommons.org/ns#"
   xmlns:rdf="http://www.w3.org/1999/02/22-rdf-syntax-ns#"
   xmlns:svg="http://www.w3.org/2000/svg"
   xmlns="http://www.w3.org/2000/svg"
   xmlns:xlink="http://www.w3.org/1999/xlink"
   xmlns:sodipodi="http://sodipodi.sourceforge.net/DTD/sodipodi-0.dtd"
   xmlns:inkscape="http://www.inkscape.org/namespaces/inkscape"
   version="1.0"
   width="96"
   height="96"
   id="svg2408"
   inkscape:version="0.48.5 r10040"
   sodipodi:docname="qtdesigner.svg">
  <sodipodi:namedview
     pagecolor="#ffffff"
     bordercolor="#666666"
     borderopacity="1"
     objecttolerance="10"
     gridtolerance="10"
     guidetolerance="10"
     inkscape:pageopacity="0"
     inkscape:pageshadow="2"
     inkscape:window-width="1680"
     inkscape:window-height="991"
     id="namedview67"
     showgrid="false"
     inkscape:zoom="10.189222"
     inkscape:cx="31.003261"
     inkscape:cy="27.159163"
     inkscape:window-x="-2"
     inkscape:window-y="-3"
     inkscape:window-maximized="1"
     inkscape:current-layer="svg2408" />
  <defs
     id="defs2410">
    <linearGradient
       id="linearGradient3726">
      <stop
         id="stop3728"
         style="stop-color:#ffffff;stop-opacity:1"
         offset="0" />
      <stop
         id="stop3730"
         style="stop-color:#ffffff;stop-opacity:0"
         offset="1" />
    </linearGradient>
    <linearGradient
       id="linearGradient3718">
      <stop
         id="stop3720"
         style="stop-color:#b3b3b3;stop-opacity:1"
         offset="0" />
      <stop
         id="stop3722"
         style="stop-color:#efefef;stop-opacity:1"
         offset="1" />
    </linearGradient>
    <linearGradient
       x1="45.447727"
       y1="92.539597"
       x2="45.447727"
       y2="7.0165396"
       id="ButtonShadow"
       gradientUnits="userSpaceOnUse"
       gradientTransform="scale(1.0058652,0.994169)">
      <stop
         id="stop3750"
         style="stop-color:#000000;stop-opacity:1"
         offset="0" />
      <stop
         id="stop3752"
         style="stop-color:#000000;stop-opacity:0.58823532"
         offset="1" />
    </linearGradient>
    <linearGradient
       id="linearGradient3737">
      <stop
         id="stop3739"
         style="stop-color:#ffffff;stop-opacity:1"
         offset="0" />
      <stop
         id="stop3741"
         style="stop-color:#ffffff;stop-opacity:0"
         offset="1" />
    </linearGradient>
    <linearGradient
       id="linearGradient3700">
      <stop
         id="stop3702"
         style="stop-color:#509528;stop-opacity:1"
         offset="0" />
      <stop
         id="stop3704"
         style="stop-color:#78cd46;stop-opacity:1"
         offset="1" />
    </linearGradient>
    <filter
       color-interpolation-filters="sRGB"
       id="filter3174">
      <feGaussianBlur
         id="feGaussianBlur3176"
         stdDeviation="1.71" />
    </filter>
    <linearGradient
       x1="36.357143"
       y1="6"
       x2="36.357143"
       y2="63.893143"
       id="linearGradient3188"
       xlink:href="#linearGradient3737"
       gradientUnits="userSpaceOnUse" />
    <filter
       x="-0.192"
       y="-0.192"
       width="1.3839999"
       height="1.3839999"
       color-interpolation-filters="sRGB"
       id="filter3794">
      <feGaussianBlur
         id="feGaussianBlur3796"
         stdDeviation="5.28" />
    </filter>
    <linearGradient
       x1="48"
       y1="20.220806"
       x2="48"
       y2="138.66119"
       id="linearGradient3613"
       xlink:href="#linearGradient3737"
       gradientUnits="userSpaceOnUse" />
    <radialGradient
       cx="48"
       cy="90.171875"
       r="42"
       fx="48"
       fy="90.171875"
       id="radialGradient3619"
       xlink:href="#linearGradient3737"
       gradientUnits="userSpaceOnUse"
       gradientTransform="matrix(1.1573129,0,0,0.99590774,-7.5510206,0.19713193)" />
    <clipPath
       id="clipPath3613">
      <rect
         width="84"
         height="84"
         rx="6"
         ry="6"
         x="6"
         y="6"
         id="rect3615"
         style="fill:#ffffff;fill-opacity:1;fill-rule:nonzero;stroke:none" />
    </clipPath>
    <linearGradient
       x1="48"
       y1="90"
       x2="48"
       y2="5.9877172"
       id="linearGradient3617"
       xlink:href="#linearGradient3700"
       gradientUnits="userSpaceOnUse" />
    <linearGradient
       x1="45.447727"
       y1="92.539597"
       x2="45.447727"
       y2="7.0165396"
       id="ButtonShadow-0"
       gradientUnits="userSpaceOnUse"
       gradientTransform="matrix(1.0058652,0,0,0.994169,100,0)">
      <stop
         id="stop3750-8"
         style="stop-color:#000000;stop-opacity:1"
         offset="0" />
      <stop
         id="stop3752-5"
         style="stop-color:#000000;stop-opacity:0.58823532"
         offset="1" />
    </linearGradient>
    <linearGradient
       x1="32.251034"
       y1="6.1317081"
       x2="32.251034"
       y2="90.238609"
       id="linearGradient3780"
       xlink:href="#ButtonShadow-0"
       gradientUnits="userSpaceOnUse"
       gradientTransform="matrix(1.0238095,0,0,1.0119048,-1.1428571,-98.071429)" />
    <linearGradient
       x1="32.251034"
       y1="6.1317081"
       x2="32.251034"
       y2="90.238609"
       id="linearGradient3772"
       xlink:href="#ButtonShadow-0"
       gradientUnits="userSpaceOnUse"
       gradientTransform="matrix(1.0238095,0,0,1.0119048,-1.1428571,-98.071429)" />
    <linearGradient
       x1="32.251034"
       y1="6.1317081"
       x2="32.251034"
       y2="90.238609"
       id="linearGradient3725"
       xlink:href="#ButtonShadow-0"
       gradientUnits="userSpaceOnUse"
       gradientTransform="matrix(1.0238095,0,0,1.0119048,-1.1428571,-98.071429)" />
    <linearGradient
       x1="32.251034"
       y1="6.1317081"
       x2="32.251034"
       y2="90.238609"
       id="linearGradient3721"
       xlink:href="#ButtonShadow-0"
       gradientUnits="userSpaceOnUse"
       gradientTransform="translate(0,-97)" />
    <linearGradient
       x1="32.251034"
       y1="6.1317081"
       x2="32.251034"
       y2="90.238609"
       id="linearGradient3026"
       xlink:href="#ButtonShadow-0"
       gradientUnits="userSpaceOnUse"
       gradientTransform="matrix(1.0238095,0,0,1.0119048,-1.1428571,-98.071429)" />
    <linearGradient
       x1="-45.877167"
       y1="75.985176"
       x2="-3.84953"
       y2="22.234644"
       id="linearGradient3724"
       xlink:href="#linearGradient3718"
       gradientUnits="userSpaceOnUse"
       gradientTransform="matrix(0.87246696,0,0,0.87246696,96.795666,21.700793)" />
    <linearGradient
       x1="-16.228367"
       y1="38.28994"
       x2="-49.582024"
       y2="66.303574"
       id="linearGradient3732"
       xlink:href="#linearGradient3726"
       gradientUnits="userSpaceOnUse"
       gradientTransform="matrix(0.87246696,0,0,0.87246696,96.795666,21.700793)" />
    <linearGradient
       x1="-11.669582"
       y1="39.987526"
       x2="-33.248989"
       y2="72.85157"
       id="linearGradient3740"
       xlink:href="#linearGradient3726"
       gradientUnits="userSpaceOnUse"
       gradientTransform="matrix(0.87246696,0,0,0.87246696,96.795666,21.700793)" />
  </defs>
  <metadata
     id="metadata2413">
    <rdf:RDF>
      <cc:Work
         rdf:about="">
        <dc:format>image/svg+xml</dc:format>
        <dc:type
           rdf:resource="http://purl.org/dc/dcmitype/StillImage" />
        <dc:title />
      </cc:Work>
    </rdf:RDF>
  </metadata>
  <g
     id="layer2"
     style="display:none">
    <rect
       width="86"
       height="85"
       rx="6"
       ry="6"
       x="5"
       y="7"
       id="rect3745"
       style="opacity:0.9;fill:url(#ButtonShadow);fill-opacity:1;fill-rule:nonzero;stroke:none;filter:url(#filter3174)" />
  </g>
  <g
     id="layer1">
    <rect
       width="84"
       height="84"
       rx="6"
       ry="0"
       x="6"
       y="6"
       id="rect2419"
       style="fill:#63ad38;fill-opacity:1;fill-rule:nonzero;stroke:none" />
  </g>
  <g
     id="layer5" />
  <path
     style="font-size:136.83798218px;font-style:normal;font-variant:normal;font-weight:bold;font-stretch:normal;text-align:start;line-height:125%;writing-mode:lr-tb;text-anchor:start;opacity:0.3;fill:#000000;fill-opacity:1;stroke:none;font-family:UnDotum;-inkscape-font-specification:UnDotum Bold"
     id="path3698"
     inkscape:connector-curvature="0"
     d="m 30.40625,15.0625 c -4.696152,4.2e-5 -8.490767,1.708521 -11.375,5.125 -3.290999,3.893275 -4.937502,9.169648 -4.9375,15.84375 -2e-6,4.965886 0.952168,9.282631 2.875,12.9375 2.921213,5.442598 7.41016,8.156247 13.4375,8.15625 1.302305,5.816011 4.894544,8.875255 13.34375,7.59375 l 0,-4.21875 c -3.933283,0.362517 -4.78719,-1.799293 -5.09375,-5.625 l 0,-0.25 c 1.183252,-0.754809 2.257307,-1.691665 3.21875,-2.84375 3.143052,-3.774052 4.718715,-9.03613 4.71875,-15.75 -3.5e-5,-5.005571 -1.00325,-9.31384 -3,-12.96875 -2.958227,-5.323374 -7.345082,-7.999958 -13.1875,-8 z m 31.65625,1.6875 -5.9375,0.15625 -1.96875,9.3125 -4.21875,0 0,6.96875 3.875,0 0,13.34375 c -5e-6,3.654886 0.521303,6.217605 1.53125,7.6875 1.271776,1.946621 3.972996,2.906247 8.125,2.90625 1.383983,-3e-6 3.098938,-0.188003 5.15625,-0.625 l 0,-6.625 c -1.421426,0.07946 -2.476816,0.125007 -3.1875,0.125 -1.159579,7e-6 -1.982496,-0.196474 -2.46875,-0.59375 C 62.37025,48.929534 62.062487,47.69663 62.0625,45.75 l 0,-12.5625 6.125,0 0,-6.96875 -6.125,0 0,-9.46875 z m -31.65625,6.125 c 4.585185,3.4e-5 6.874975,4.399393 6.875,13.21875 -2.5e-5,8.819396 -2.289815,13.250008 -6.875,13.25 -4.659175,8e-6 -7.000012,-4.453376 -7,-13.3125 -1.2e-5,-0.357522 -1.2e-5,-0.704936 0,-1.0625 0.221853,-8.064543 2.56269,-12.093716 7,-12.09375 z" />
  <path
     style="font-size:136.83798218px;font-style:normal;font-variant:normal;font-weight:bold;font-stretch:normal;text-align:start;line-height:125%;writing-mode:lr-tb;text-anchor:start;fill:#ffffff;fill-opacity:1;stroke:none;font-family:UnDotum;-inkscape-font-specification:UnDotum Bold"
     id="path3665"
     inkscape:connector-curvature="0"
     d="m 30.40625,14.0625 c -4.696152,4.2e-5 -8.490767,1.708521 -11.375,5.125 -3.290999,3.893275 -4.937502,9.169648 -4.9375,15.84375 -2e-6,4.965886 0.952168,9.282631 2.875,12.9375 2.921213,5.442598 7.41016,8.156247 13.4375,8.15625 1.302305,5.816011 4.894544,8.875255 13.34375,7.59375 l 0,-4.21875 c -3.933283,0.362517 -4.78719,-1.799293 -5.09375,-5.625 l 0,-0.25 c 1.183252,-0.754809 2.257307,-1.691665 3.21875,-2.84375 3.143052,-3.774052 4.718715,-9.03613 4.71875,-15.75 -3.5e-5,-5.005571 -1.00325,-9.31384 -3,-12.96875 -2.958227,-5.323374 -7.345082,-7.999958 -13.1875,-8 z m 31.65625,1.6875 -5.9375,0.15625 -1.96875,9.3125 -4.21875,0 0,6.96875 3.875,0 0,13.34375 c -5e-6,3.654886 0.521303,6.217605 1.53125,7.6875 1.271776,1.946621 3.972996,2.906247 8.125,2.90625 1.383983,-3e-6 3.098938,-0.188003 5.15625,-0.625 l 0,-6.625 c -1.421426,0.07946 -2.476816,0.125007 -3.1875,0.125 -1.159579,7e-6 -1.982496,-0.196474 -2.46875,-0.59375 C 62.37025,47.929534 62.062487,46.69663 62.0625,44.75 l 0,-12.5625 6.125,0 0,-6.96875 -6.125,0 0,-9.46875 z m -31.65625,6.125 c 4.585185,3.4e-5 6.874975,4.399393 6.875,13.21875 -2.5e-5,8.819396 -2.289815,13.250008 -6.875,13.25 -4.659175,8e-6 -7.000012,-4.453376 -7,-13.3125 -1.2e-5,-0.357522 -1.2e-5,-0.704936 0,-1.0625 0.221853,-8.064543 2.56269,-12.093716 7,-12.09375 z" />
  <g
     transform="matrix(0.59891686,0.80081121,-0.80081121,0.59891686,91.509291,-29.528817)"
     id="g3045"
     style="fill:#000000;fill-opacity:1;opacity:0.3">
    <rect
       style="color:#000000;fill:#000000;fill-opacity:1;fill-rule:nonzero;stroke:none;stroke-width:3.79999995000000013;marker:none;visibility:visible;display:inline;overflow:visible;enable-background:accumulate"
       id="rect3047"
       width="2.7480018"
       height="18.450869"
       x="65.75576"
       y="64.496124"
       ry="1.3740009" />
    <rect
       ry="1.3740009"
       y="64.692406"
       x="63.302189"
       height="18.450869"
       width="2.0610013"
       id="rect3049"
       style="color:#000000;fill:#000000;fill-opacity:1;fill-rule:nonzero;stroke:none;stroke-width:3.79999995000000013;marker:none;visibility:visible;display:inline;overflow:visible;enable-background:accumulate" />
    <rect
       style="color:#000000;fill:#000000;fill-opacity:1;fill-rule:nonzero;stroke:none;stroke-width:3.79999995000000013;marker:none;visibility:visible;display:inline;overflow:visible;enable-background:accumulate"
       id="rect3051"
       width="2.0610013"
       height="18.450869"
       x="68.909615"
       y="64.79055"
       ry="1.3740009" />
    <path
       sodipodi:type="star"
       style="color:#000000;fill:#000000;fill-opacity:1;fill-rule:nonzero;stroke:none;stroke-width:3.79999995000000013;marker:none;visibility:visible;display:inline;overflow:visible;enable-background:accumulate"
       id="path3053"
       sodipodi:sides="3"
       sodipodi:cx="36.803596"
       sodipodi:cy="85.989426"
       sodipodi:r1="4.6293921"
       sodipodi:r2="2.3146961"
       sodipodi:arg1="-1.5707963"
       sodipodi:arg2="-0.52359878"
       inkscape:flatsided="false"
       inkscape:rounded="0"
       inkscape:randomized="0"
       d="m 36.803597,81.360034 2.004585,3.472044 2.004586,3.472044 -4.009171,0 -4.009172,0 2.004586,-3.472044 z"
       inkscape:transform-center-y="0.95639186"
       transform="matrix(-0.82864006,-0.00233047,0.00193113,-0.99999728,97.461562,171.86811)" />
  </g>
  <g
     id="g3039"
     transform="matrix(0.59891686,0.80081121,-0.80081121,0.59891686,91.411148,-30.351102)">
    <rect
       ry="1.3740009"
       y="64.496124"
       x="65.75576"
       height="18.450869"
       width="2.7480018"
       id="rect3031"
       style="color:#000000;fill:#ffffff;fill-opacity:1;fill-rule:nonzero;stroke:none;stroke-width:3.79999995;marker:none;visibility:visible;display:inline;overflow:visible;enable-background:accumulate" />
    <rect
       style="color:#000000;fill:#ffffff;fill-opacity:1;fill-rule:nonzero;stroke:none;stroke-width:3.79999995;marker:none;visibility:visible;display:inline;overflow:visible;enable-background:accumulate"
       id="rect3033"
       width="2.0610013"
       height="18.450869"
       x="63.302189"
       y="64.692406"
       ry="1.3740009" />
    <rect
       ry="1.3740009"
       y="64.79055"
       x="68.909615"
       height="18.450869"
       width="2.0610013"
       id="rect3035"
       style="color:#000000;fill:#ffffff;fill-opacity:1;fill-rule:nonzero;stroke:none;stroke-width:3.79999995;marker:none;visibility:visible;display:inline;overflow:visible;enable-background:accumulate" />
    <path
       transform="matrix(-0.82864006,-0.00233047,0.00193113,-0.99999728,97.461562,171.86811)"
       inkscape:transform-center-y="0.95639186"
       d="m 36.803597,81.360034 2.004585,3.472044 2.004586,3.472044 -4.009171,0 -4.009172,0 2.004586,-3.472044 z"
       inkscape:randomized="0"
       inkscape:rounded="0"
       inkscape:flatsided="false"
       sodipodi:arg2="-0.52359878"
       sodipodi:arg1="-1.5707963"
       sodipodi:r2="2.3146961"
       sodipodi:r1="4.6293921"
       sodipodi:cy="85.989426"
       sodipodi:cx="36.803596"
       sodipodi:sides="3"
       id="path3037"
       style="color:#000000;fill:#ffffff;fill-opacity:1;fill-rule:nonzero;stroke:none;stroke-width:3.79999995;marker:none;visibility:visible;display:inline;overflow:visible;enable-background:accumulate"
       sodipodi:type="star" />
  </g>
</svg>
