<?xml version="1.0" encoding="UTF-8" standalone="no"?>
<!-- Created with Inkscape (http://www.inkscape.org/) -->

<svg
   xmlns:dc="http://purl.org/dc/elements/1.1/"
   xmlns:cc="http://creativecommons.org/ns#"
   xmlns:rdf="http://www.w3.org/1999/02/22-rdf-syntax-ns#"
   xmlns:svg="http://www.w3.org/2000/svg"
   xmlns="http://www.w3.org/2000/svg"
   xmlns:xlink="http://www.w3.org/1999/xlink"
   xmlns:sodipodi="http://sodipodi.sourceforge.net/DTD/sodipodi-0.dtd"
   xmlns:inkscape="http://www.inkscape.org/namespaces/inkscape"
   version="1.0"
   width="96"
   height="96"
   id="svg2408"
   inkscape:version="0.48.5 r10040"
   sodipodi:docname="application-sxw.svg">
  <metadata
     id="metadata160">
    <rdf:RDF>
      <cc:Work
         rdf:about="">
        <dc:format>image/svg+xml</dc:format>
        <dc:type
           rdf:resource="http://purl.org/dc/dcmitype/StillImage" />
        <dc:title></dc:title>
      </cc:Work>
    </rdf:RDF>
  </metadata>
  <sodipodi:namedview
     pagecolor="#ffffff"
     bordercolor="#666666"
     borderopacity="1"
     objecttolerance="10"
     gridtolerance="10"
     guidetolerance="10"
     inkscape:pageopacity="0"
     inkscape:pageshadow="2"
     inkscape:window-width="1680"
     inkscape:window-height="991"
     id="namedview158"
     showgrid="false"
     inkscape:zoom="3.2459546"
     inkscape:cx="8.0124812"
     inkscape:cy="120.35897"
     inkscape:window-x="-2"
     inkscape:window-y="-3"
     inkscape:window-maximized="1"
     inkscape:current-layer="svg2408" />
  <defs
     id="defs2410">
    <linearGradient
       x1="61.294735"
       y1="121.32806"
       x2="117.36092"
       y2="18.868103"
       id="linearGradient3593"
       xlink:href="#linearGradient3951"
       gradientUnits="userSpaceOnUse" />
    <filter
       color-interpolation-filters="sRGB"
       id="filter3963">
      <feGaussianBlur
         stdDeviation="0.91605611"
         id="feGaussianBlur3965" />
    </filter>
    <linearGradient
       id="linearGradient3951">
      <stop
         id="stop3953"
         style="stop-color:#000000;stop-opacity:1"
         offset="0" />
      <stop
         id="stop3955"
         style="stop-color:#000000;stop-opacity:0"
         offset="1" />
    </linearGradient>
    <linearGradient
       x1="61.294735"
       y1="121.32806"
       x2="104.6299"
       y2="41.346642"
       id="linearGradient3595"
       xlink:href="#linearGradient3951"
       gradientUnits="userSpaceOnUse" />
    <filter
       x="-0.93333328"
       y="-0.13770492"
       width="2.8666666"
       height="1.2754098"
       color-interpolation-filters="sRGB"
       id="filter3457">
      <feGaussianBlur
         stdDeviation="0.92807767"
         id="feGaussianBlur3459" />
    </filter>
    <filter
       x="-1.0349605"
       y="-0.13573837"
       width="3.069921"
       height="1.2714767"
       color-interpolation-filters="sRGB"
       id="filter3451">
      <feGaussianBlur
         stdDeviation="0.9498173"
         id="feGaussianBlur3453" />
    </filter>
    <linearGradient
       id="linearGradient3439">
      <stop
         id="stop3441"
         style="stop-color:#3d3d3d;stop-opacity:1"
         offset="0" />
      <stop
         id="stop3443"
         style="stop-color:#ffffff;stop-opacity:1"
         offset="1" />
    </linearGradient>
    <linearGradient
       x1="137"
       y1="106"
       x2="139.03125"
       y2="106"
       id="linearGradient3558"
       xlink:href="#linearGradient3439"
       gradientUnits="userSpaceOnUse"
       spreadMethod="repeat" />
    <linearGradient
       x1="142.95775"
       y1="98.950562"
       x2="148.95775"
       y2="98.950562"
       id="linearGradient3556"
       xlink:href="#linearGradient3355"
       gradientUnits="userSpaceOnUse"
       gradientTransform="translate(0.04225159,12.549439)"
       spreadMethod="reflect" />
    <linearGradient
       x1="142.95775"
       y1="98.950562"
       x2="148.95775"
       y2="98.950562"
       id="linearGradient3554"
       xlink:href="#linearGradient3339"
       gradientUnits="userSpaceOnUse"
       gradientTransform="translate(0.04225159,11.549439)"
       spreadMethod="reflect" />
    <linearGradient
       x1="142.95775"
       y1="98.950562"
       x2="148.95775"
       y2="98.950562"
       id="linearGradient3552"
       xlink:href="#linearGradient3355"
       gradientUnits="userSpaceOnUse"
       gradientTransform="translate(0.04225159,10.549439)"
       spreadMethod="reflect" />
    <linearGradient
       x1="142.95775"
       y1="98.950562"
       x2="148.95775"
       y2="98.950562"
       id="linearGradient3550"
       xlink:href="#linearGradient3339"
       gradientUnits="userSpaceOnUse"
       gradientTransform="translate(0.04225159,9.5494389)"
       spreadMethod="reflect" />
    <linearGradient
       x1="142.95775"
       y1="98.950562"
       x2="148.95775"
       y2="98.950562"
       id="linearGradient3548"
       xlink:href="#linearGradient3355"
       gradientUnits="userSpaceOnUse"
       gradientTransform="translate(0.04225159,4.5494389)"
       spreadMethod="reflect" />
    <linearGradient
       x1="142.95775"
       y1="98.950562"
       x2="148.95775"
       y2="98.950562"
       id="linearGradient3546"
       xlink:href="#linearGradient3339"
       gradientUnits="userSpaceOnUse"
       gradientTransform="translate(0.04225159,3.5494389)"
       spreadMethod="reflect" />
    <linearGradient
       id="linearGradient3355">
      <stop
         id="stop3357"
         style="stop-color:#ffffff;stop-opacity:1"
         offset="0" />
      <stop
         id="stop3359"
         style="stop-color:#ffffff;stop-opacity:0.49803922"
         offset="0.69999999" />
      <stop
         id="stop3361"
         style="stop-color:#ffffff;stop-opacity:0"
         offset="1" />
    </linearGradient>
    <linearGradient
       x1="142.95775"
       y1="98.950562"
       x2="148.95775"
       y2="98.950562"
       id="linearGradient3544"
       xlink:href="#linearGradient3355"
       gradientUnits="userSpaceOnUse"
       gradientTransform="translate(0.04225159,2.5494389)"
       spreadMethod="reflect" />
    <linearGradient
       x1="142.95775"
       y1="98.950562"
       x2="148.95775"
       y2="98.950562"
       id="linearGradient3542"
       xlink:href="#linearGradient3339"
       gradientUnits="userSpaceOnUse"
       gradientTransform="translate(0.04225159,1.5494389)"
       spreadMethod="reflect" />
    <linearGradient
       id="linearGradient3461">
      <stop
         id="stop3463"
         style="stop-color:#444542;stop-opacity:1"
         offset="0" />
      <stop
         id="stop3465"
         style="stop-color:#71746e;stop-opacity:1"
         offset="1" />
    </linearGradient>
    <linearGradient
       x1="136"
       y1="106"
       x2="150"
       y2="106"
       id="linearGradient3540"
       xlink:href="#linearGradient3461"
       gradientUnits="userSpaceOnUse" />
    <linearGradient
       id="linearGradient3401">
      <stop
         id="stop3403"
         style="stop-color:#404040;stop-opacity:1"
         offset="0" />
      <stop
         id="stop3447"
         style="stop-color:#808080;stop-opacity:1"
         offset="0.2" />
      <stop
         id="stop3410"
         style="stop-color:#efefef;stop-opacity:1"
         offset="0.69999999" />
      <stop
         id="stop3405"
         style="stop-color:#dcdcdc;stop-opacity:1"
         offset="1" />
    </linearGradient>
    <linearGradient
       x1="136"
       y1="106"
       x2="150"
       y2="106"
       id="linearGradient3538"
       xlink:href="#linearGradient3401"
       gradientUnits="userSpaceOnUse" />
    <filter
       x="-0.60979599"
       y="-0.1494"
       width="2.2195919"
       height="1.2988"
       color-interpolation-filters="sRGB"
       id="filter3390">
      <feGaussianBlur
         stdDeviation="0.77812506"
         id="feGaussianBlur3392" />
    </filter>
    <filter
       x="-0.43161276"
       y="-0.11371106"
       width="1.8632255"
       height="1.2274221"
       color-interpolation-filters="sRGB"
       id="filter3382">
      <feGaussianBlur
         stdDeviation="0.73914765"
         id="feGaussianBlur3384" />
    </filter>
    <linearGradient
       x1="146.10596"
       y1="118.94019"
       x2="146.07562"
       y2="66"
       id="linearGradient3536"
       xlink:href="#linearGradient5452"
       gradientUnits="userSpaceOnUse"
       gradientTransform="matrix(1,0,0,1.2653524,-29.85843,-54.364173)" />
    <linearGradient
       id="linearGradient5452">
      <stop
         id="stop5454"
         style="stop-color:#ffffff;stop-opacity:1"
         offset="0" />
      <stop
         id="stop5456"
         style="stop-color:#ffffff;stop-opacity:0"
         offset="1" />
    </linearGradient>
    <linearGradient
       x1="146.10596"
       y1="118.94019"
       x2="146.07562"
       y2="66"
       id="linearGradient3534"
       xlink:href="#linearGradient5452"
       gradientUnits="userSpaceOnUse"
       gradientTransform="matrix(1,0,0,1.2653524,-23.73343,-54.364173)" />
    <linearGradient
       id="linearGradient3308">
      <stop
         id="stop3310"
         style="stop-color:#da8539;stop-opacity:1"
         offset="0" />
      <stop
         id="stop3312"
         style="stop-color:#fadfc7;stop-opacity:1"
         offset="1" />
    </linearGradient>
    <linearGradient
       x1="136.98804"
       y1="17.043356"
       x2="148.99513"
       y2="17.043356"
       id="linearGradient3532"
       xlink:href="#linearGradient3308"
       gradientUnits="userSpaceOnUse"
       gradientTransform="translate(-23.73343,0)" />
    <linearGradient
       id="linearGradient3394">
      <stop
         id="stop3396"
         style="stop-color:#000000;stop-opacity:1"
         offset="0" />
      <stop
         id="stop3402"
         style="stop-color:#7d7d7d;stop-opacity:1"
         offset="0.5" />
      <stop
         id="stop3398"
         style="stop-color:#000000;stop-opacity:1"
         offset="1" />
    </linearGradient>
    <linearGradient
       x1="141.25002"
       y1="4.9218717"
       x2="144.81252"
       y2="4.9218717"
       id="linearGradient3530"
       xlink:href="#linearGradient3394"
       gradientUnits="userSpaceOnUse"
       gradientTransform="translate(-23.73343,0)" />
    <linearGradient
       id="linearGradient3254">
      <stop
         id="stop3256"
         style="stop-color:#000000;stop-opacity:1"
         offset="0" />
      <stop
         id="stop3266"
         style="stop-color:#000000;stop-opacity:1"
         offset="0.06588447" />
      <stop
         id="stop3264"
         style="stop-color:#ad5f1b;stop-opacity:1"
         offset="0.07" />
      <stop
         id="stop3268"
         style="stop-color:#ad601a;stop-opacity:1"
         offset="0.1913653" />
      <stop
         id="stop3262"
         style="stop-color:#785800;stop-opacity:1"
         offset="0.20983393" />
      <stop
         id="stop3258"
         style="stop-color:#785700;stop-opacity:1"
         offset="1" />
    </linearGradient>
    <linearGradient
       x1="143"
       y1="2.4000001e-06"
       x2="143"
       y2="120.01752"
       id="linearGradient3528"
       xlink:href="#linearGradient3254"
       gradientUnits="userSpaceOnUse"
       gradientTransform="translate(-23.73343,0)" />
    <linearGradient
       id="linearGradient3278">
      <stop
         id="stop3280"
         style="stop-color:#945a00;stop-opacity:1"
         offset="0" />
      <stop
         id="stop3290"
         style="stop-color:#e28e0a;stop-opacity:1"
         offset="0.25" />
      <stop
         id="stop3286"
         style="stop-color:#ffba14;stop-opacity:1"
         offset="0.30000001" />
      <stop
         id="stop3288"
         style="stop-color:#f3ac00;stop-opacity:1"
         offset="0.69999999" />
      <stop
         id="stop3292"
         style="stop-color:#ffd314;stop-opacity:1"
         offset="0.75" />
      <stop
         id="stop3282"
         style="stop-color:#ffed94;stop-opacity:1"
         offset="1" />
    </linearGradient>
    <linearGradient
       x1="136"
       y1="60"
       x2="150"
       y2="60"
       id="linearGradient3526"
       xlink:href="#linearGradient3278"
       gradientUnits="userSpaceOnUse"
       gradientTransform="translate(-23.73343,0)" />
    <linearGradient
       id="linearGradient3339">
      <stop
         id="stop3341"
         style="stop-color:#000000;stop-opacity:1"
         offset="0" />
      <stop
         id="stop3347"
         style="stop-color:#000000;stop-opacity:0.49803922"
         offset="0.69999999" />
      <stop
         id="stop3343"
         style="stop-color:#000000;stop-opacity:0"
         offset="1" />
    </linearGradient>
    <linearGradient
       x1="137.40625"
       y1="116.46875"
       x2="148.53125"
       y2="116.46875"
       id="linearGradient3524"
       xlink:href="#linearGradient3339"
       gradientUnits="userSpaceOnUse"
       gradientTransform="matrix(1.0893815,0,0,1,-13.275943,0)" />
    <filter
       x="-0.18344349"
       y="-0.17668343"
       width="1.366887"
       height="1.3533669"
       color-interpolation-filters="sRGB"
       id="filter3509">
      <feGaussianBlur
         stdDeviation="0.65925"
         id="feGaussianBlur3511" />
    </filter>
    <filter
       x="-0.42857143"
       y="-0.16666667"
       width="1.8571428"
       height="1.3333333"
       color-interpolation-filters="sRGB"
       id="filter3495">
      <feGaussianBlur
         stdDeviation="0.55242721"
         id="feGaussianBlur3497" />
    </filter>
    <linearGradient
       id="linearGradient3485">
      <stop
         id="stop3487"
         style="stop-color:#e6605b;stop-opacity:1"
         offset="0" />
      <stop
         id="stop3489"
         style="stop-color:#f08682;stop-opacity:1"
         offset="1" />
    </linearGradient>
    <linearGradient
       x1="136.41356"
       y1="115.49392"
       x2="149.52968"
       y2="115.49392"
       id="linearGradient3522"
       xlink:href="#linearGradient3485"
       gradientUnits="userSpaceOnUse" />
    <linearGradient
       id="linearGradient3597">
      <stop
         id="stop3599"
         style="stop-color:#dcdcdc;stop-opacity:1"
         offset="0" />
      <stop
         id="stop3601"
         style="stop-color:#f5f5f5;stop-opacity:1"
         offset="1" />
    </linearGradient>
    <linearGradient
       x1="45.447727"
       y1="92.539597"
       x2="45.447727"
       y2="7.0165396"
       id="ButtonShadow"
       gradientUnits="userSpaceOnUse"
       gradientTransform="scale(1.0058652,0.994169)">
      <stop
         id="stop3750"
         style="stop-color:#000000;stop-opacity:1"
         offset="0" />
      <stop
         id="stop3752"
         style="stop-color:#000000;stop-opacity:0.58823532"
         offset="1" />
    </linearGradient>
    <linearGradient
       id="linearGradient3737">
      <stop
         id="stop3739"
         style="stop-color:#ffffff;stop-opacity:1"
         offset="0" />
      <stop
         id="stop3741"
         style="stop-color:#ffffff;stop-opacity:0"
         offset="1" />
    </linearGradient>
    <filter
       color-interpolation-filters="sRGB"
       id="filter3174">
      <feGaussianBlur
         id="feGaussianBlur3176"
         stdDeviation="1.71" />
    </filter>
    <linearGradient
       x1="36.357143"
       y1="6"
       x2="36.357143"
       y2="63.893143"
       id="linearGradient3188"
       xlink:href="#linearGradient3737"
       gradientUnits="userSpaceOnUse" />
    <linearGradient
       x1="45.447727"
       y1="92.539597"
       x2="45.447727"
       y2="7.0165396"
       id="linearGradient3638"
       xlink:href="#ButtonShadow"
       gradientUnits="userSpaceOnUse"
       gradientTransform="scale(1.0058652,0.994169)" />
    <linearGradient
       x1="48"
       y1="90"
       x2="48"
       y2="5.9877172"
       id="linearGradient3646"
       xlink:href="#linearGradient3597"
       gradientUnits="userSpaceOnUse" />
    <linearGradient
       id="linearGradient3737-6">
      <stop
         id="stop3739-6"
         style="stop-color:#ffffff;stop-opacity:1"
         offset="0" />
      <stop
         id="stop3741-4"
         style="stop-color:#ffffff;stop-opacity:0"
         offset="1" />
    </linearGradient>
    <radialGradient
       cx="48"
       cy="90.171875"
       r="42"
       fx="48"
       fy="90.171875"
       id="radialGradient2855"
       xlink:href="#linearGradient3737-6"
       gradientUnits="userSpaceOnUse"
       gradientTransform="matrix(1.1573129,0,0,0.99590774,-7.551021,0.1971319)" />
    <linearGradient
       x1="45.447727"
       y1="92.539597"
       x2="45.447727"
       y2="7.0165396"
       id="ButtonShadow-0"
       gradientUnits="userSpaceOnUse"
       gradientTransform="matrix(1.0058652,0,0,0.994169,100,0)">
      <stop
         id="stop3750-8"
         style="stop-color:#000000;stop-opacity:1"
         offset="0" />
      <stop
         id="stop3752-5"
         style="stop-color:#000000;stop-opacity:0.58823532"
         offset="1" />
    </linearGradient>
    <linearGradient
       x1="48"
       y1="90"
       x2="48"
       y2="5.9877172"
       id="linearGradient3779"
       xlink:href="#ButtonShadow"
       gradientUnits="userSpaceOnUse"
       gradientTransform="matrix(1.0238095,0,0,1.0119048,-1.142857,0.92857143)" />
    <linearGradient
       x1="48"
       y1="90"
       x2="48"
       y2="5.9877172"
       id="linearGradient3786"
       xlink:href="#ButtonShadow-0"
       gradientUnits="userSpaceOnUse"
       gradientTransform="translate(0,1)" />
    <linearGradient
       x1="48"
       y1="90"
       x2="48"
       y2="5.9877172"
       id="linearGradient3794"
       xlink:href="#ButtonShadow"
       gradientUnits="userSpaceOnUse"
       gradientTransform="matrix(1.0238095,0,0,1.0119048,-1.142857,0.92857143)" />
    <linearGradient
       x1="48"
       y1="90"
       x2="48"
       y2="5.9877172"
       id="linearGradient3816"
       xlink:href="#ButtonShadow"
       gradientUnits="userSpaceOnUse"
       gradientTransform="matrix(1.0238095,0,0,1.0119048,-1.142857,0.92857143)" />
    <linearGradient
       x1="48"
       y1="90"
       x2="48"
       y2="5.9877172"
       id="linearGradient3824"
       xlink:href="#ButtonShadow"
       gradientUnits="userSpaceOnUse"
       gradientTransform="matrix(1.0238095,0,0,1.0119048,-1.142857,0.92857143)" />
  </defs>
  <g
     id="layer2"
     style="display:none">
    <path
       d="M 11,7 C 7.676,7 5,9.676 5,13 l 0,73 c 0,3.324 2.676,6 6,6 l 74,0 c 3.324,0 6,-2.676 6,-6 L 91,13 C 91,9.676 88.324,7 85,7 l -5,0 0,2.5 c 1.470291,0.740605 2.5,2.242377 2.5,4 0,2.484 -2.016,4.5 -4.5,4.5 -2.484,0 -4.5,-2.016 -4.5,-4.5 0,-1.757623 1.029709,-3.259395 2.5,-4 L 76,7 68,7 68,9.5 c 1.470291,0.740605 2.5,2.242377 2.5,4 0,2.484 -2.016,4.5 -4.5,4.5 -2.484,0 -4.5,-2.016 -4.5,-4.5 0,-1.757623 1.029709,-3.259395 2.5,-4 L 64,7 56,7 56,9.5 c 1.470291,0.740605 2.5,2.242377 2.5,4 0,2.484 -2.016,4.5 -4.5,4.5 -2.484,0 -4.5,-2.016 -4.5,-4.5 0,-1.757623 1.029709,-3.259395 2.5,-4 L 52,7 44,7 44,9.5 c 1.470291,0.740605 2.5,2.242377 2.5,4 0,2.484 -2.016,4.5 -4.5,4.5 -2.484,0 -4.5,-2.016 -4.5,-4.5 0,-1.757623 1.029709,-3.259395 2.5,-4 L 40,7 32,7 32,9.5 c 1.470291,0.740605 2.5,2.242377 2.5,4 0,2.484 -2.016,4.5 -4.5,4.5 -2.484,0 -4.5,-2.016 -4.5,-4.5 0,-1.757623 1.029709,-3.259395 2.5,-4 L 28,7 20,7 20,9.5 c 1.470291,0.740605 2.5,2.242377 2.5,4 0,2.484 -2.016,4.5 -4.5,4.5 -2.484,0 -4.5,-2.016 -4.5,-4.5 0,-1.757623 1.029709,-3.259395 2.5,-4 L 16,7 11,7 z"
       id="rect3745"
       style="opacity:0.9;fill:url(#linearGradient3638);fill-opacity:1;fill-rule:nonzero;stroke:none;filter:url(#filter3174)" />
  </g>
  <g
     id="layer1-5"
     transform="matrix(2.4705909,0,0,2.1000023,-11.294183,-2.4000544)"
     style="fill:#1a1a1a">
    <path
       id="rect4090"
       transform="translate(7,4)"
       d="M 0,0 0,40 34,40 33.79661,0.01694915 23,0 z"
       inkscape:connector-curvature="0"
       style="fill:#1a1a1a"
       sodipodi:nodetypes="cccccc" />
    <g
       id="logo"
       transform="translate(10.9749,16.1118)"
       style="fill:#1a1a1a" />
  </g>
  <g
     id="g3035"
     transform="matrix(0.14512469,0,0,0.14512469,10.939028,-68.15673)"
     style="fill:#ffffff">
    <path
       inkscape:connector-curvature="0"
       id="path3033"
       d="m 197.87868,956.62479 -57.1928,-29.19119 57.4428,-0.25812 c 31.5935,-0.14197 83.27375,-0.14197 114.84493,0 l 57.40215,0.25812 -57.11467,29 c -31.41307,15.95 -57.35651,29.08605 -57.65211,29.19119 -0.2956,0.10517 -26.2743,-12.94484 -57.7303,-29 z"
       style="fill:#ffffff;fill-opacity:1" />
    <path
       inkscape:connector-curvature="0"
       id="path3031"
       d="m 246.58648,903.1836 c -12.6895,-12.7018 -21.1633,-27.61424 -28.3694,-49.92564 -7.8382,-24.26847 -11.6739,-52.8941 -11.5969,-86.54593 l 0.049,-21.27844 24.2013,-24.80511 24.2013,-24.80511 24.83472,24.80511 24.83477,24.80511 -0.52854,26 c -0.73474,36.1442 -3.95314,58.14909 -12.16921,83.20377 -5.06272,15.43861 -11.59491,28.59171 -19.48258,39.22982 -5.30296,7.15213 -15.37806,17.06642 -17.34326,17.06642 -0.4886,0 -4.3725,-3.4875 -8.6309,-7.75 z"
       style="fill:#ffffff;fill-opacity:1" />
    <path
       inkscape:connector-curvature="0"
       id="path3029"
       d="m 72.571376,861.46212 c -38.6517,-32.89865 -54.4042,-46.88945 -54.1707,-48.11243 0.5444,-2.85142 39.8853,-133.46394 40.3352,-133.91392 0.229,-0.22898 23.7982,2.03607 52.376004,5.03345 28.5778,2.99738 53.1989,5.45306 54.7135,5.45708 2.1938,0.006 11.5357,-7.62436 45.9316,-37.5155 23.7477,-20.63753 43.5245,-37.40003 43.9483,-37.24999 0.4239,0.15004 19.94547,16.9228 43.38132,37.27278 30.01372,26.06176 43.40501,37.08254 45.29774,37.27919 1.47792,0.15355 26.28816,-2.19541 55.13387,-5.21992 28.84572,-3.0245 52.54804,-5.39781 52.67183,-5.27402 0.71618,0.71618 40.3849,134.40474 40.15748,135.33572 -0.15184,0.62155 -24.69606,21.88609 -54.54273,47.25457 l -54.26667,46.12447 -19.23333,-0.0876 c -10.57833,-0.0482 -21.43085,-0.38568 -24.11671,-0.75 l -4.88339,-0.6624 57.63339,-47.80539 c 31.69836,-26.29298 57.63338,-48.07759 57.63338,-48.41024 0,-0.63038 -30.05881,-93.37026 -30.57536,-94.3336 -0.16197,-0.30207 -20.91128,1.99733 -46.10957,5.10978 l -45.81507,5.65899 -10,-8.60554 c -5.5,-4.73305 -21.8687,-18.87529 -36.37489,-31.42721 l -26.37489,-22.82167 -2.6251,2.41254 c -1.4438,1.32689 -17.7405,15.47071 -36.2149,31.43071 l -33.5897,29.01817 -42.9103,-5.32678 c -23.6006,-2.92972 -44.351604,-5.34319 -46.113304,-5.36327 -3.1788,-0.0362 -3.2266,0.0373 -6.3143,9.7135 -1.7111,5.3625 -8.4822,26.19149 -15.0469,46.28664 -6.5647,20.09515 -11.9104,37.19515 -11.8795,38 0.031,0.80485 25.9,22.83836 57.486704,48.96337 l 57.4302,47.5 -4.7365,0.66239 c -2.6052,0.36432 -13.5116,0.68303 -24.2366,0.70824 l -19.5,0.0458 -54.500104,-46.38791 z"
       style="fill:#ffffff;fill-opacity:1" />
    <path
       inkscape:connector-curvature="0"
       id="path3027"
       d="m 205.51418,899.76496 c -16.554,-12.86646 -86.6784,-71.55652 -112.207004,-93.91082 l -2.7643,-2.42055 7.6149,-28 c 4.188104,-15.4 7.950204,-28.35811 8.360004,-28.7958 0.4099,-0.43769 14.6544,0.79982 31.6544,2.75 17,1.95019 31.1745,3.5458 31.4989,3.5458 0.3244,0 0.8855,6.50838 1.2469,14.46306 2.2289,49.05155 16.0223,94.90265 39.0975,129.96477 3.5935,5.46029 6.4004,10.06106 6.2376,10.22393 -0.1629,0.16286 -4.9954,-3.35632 -10.7389,-7.8204 z"
       style="fill:#ffffff;fill-opacity:1" />
    <path
       inkscape:connector-curvature="0"
       id="path3025"
       d="m 300.15004,898.3165 c 23.55871,-35.10062 39.42142,-88.39054 39.42142,-132.43413 0,-8.3592 0.37136,-12.94878 1.04774,-12.94878 0.57626,0 15.02851,-1.59775 32.11611,-3.55056 17.0876,-1.95281 31.27226,-3.34666 31.52147,-3.09746 0.46543,0.46543 15.04631,52.77862 15.53995,55.75413 0.44966,2.7104 -108.24432,94.57034 -123.50256,104.37504 -2.28515,1.4684 -1.60187,0.0334 3.85587,-8.09825 z"
       style="fill:#ffffff;fill-opacity:1" />
  </g>
</svg>
