<?xml version="1.0" encoding="UTF-8" standalone="no"?>
<!-- Created with Inkscape (http://www.inkscape.org/) -->

<svg
   xmlns:dc="http://purl.org/dc/elements/1.1/"
   xmlns:cc="http://creativecommons.org/ns#"
   xmlns:rdf="http://www.w3.org/1999/02/22-rdf-syntax-ns#"
   xmlns:svg="http://www.w3.org/2000/svg"
   xmlns="http://www.w3.org/2000/svg"
   xmlns:xlink="http://www.w3.org/1999/xlink"
   xmlns:sodipodi="http://sodipodi.sourceforge.net/DTD/sodipodi-0.dtd"
   xmlns:inkscape="http://www.inkscape.org/namespaces/inkscape"
   version="1.0"
   width="96"
   height="96"
   id="svg2408"
   inkscape:version="0.48.5 r10040"
   sodipodi:docname="device-notifier.svg">
  <sodipodi:namedview
     pagecolor="#ffffff"
     bordercolor="#666666"
     borderopacity="1"
     objecttolerance="10"
     gridtolerance="10"
     guidetolerance="10"
     inkscape:pageopacity="0"
     inkscape:pageshadow="2"
     inkscape:window-width="1680"
     inkscape:window-height="991"
     id="namedview123"
     showgrid="false"
     inkscape:zoom="2.2179951"
     inkscape:cx="30.285183"
     inkscape:cy="40.976877"
     inkscape:window-x="-2"
     inkscape:window-y="-3"
     inkscape:window-maximized="1"
     inkscape:current-layer="svg2408"
     showguides="true"
     inkscape:guide-bbox="true">
    <sodipodi:guide
       orientation="0,1"
       position="27.379282,6.0409804"
       id="guide3085" />
  </sodipodi:namedview>
  <defs
     id="defs2410">
    <linearGradient
       id="linearGradient3733">
      <stop
         id="stop3735"
         style="stop-color:#ffbf67;stop-opacity:1"
         offset="0" />
      <stop
         id="stop3737"
         style="stop-color:#c70000;stop-opacity:1"
         offset="1" />
    </linearGradient>
    <linearGradient
       id="linearGradient4327">
      <stop
         id="stop4329"
         style="stop-color:#f0f0f0;stop-opacity:1"
         offset="0" />
      <stop
         id="stop4331"
         style="stop-color:#b4b4b4;stop-opacity:1"
         offset="1" />
    </linearGradient>
    <linearGradient
       id="linearGradient4225">
      <stop
         id="stop4227"
         style="stop-color:#000000;stop-opacity:1"
         offset="0" />
      <stop
         id="stop4229"
         style="stop-color:#484848;stop-opacity:1"
         offset="1" />
    </linearGradient>
    <linearGradient
       id="linearGradient3322">
      <stop
         id="stop3324"
         style="stop-color:#7a7a7a;stop-opacity:1"
         offset="0" />
      <stop
         id="stop3326"
         style="stop-color:#f9f9f9;stop-opacity:1"
         offset="0.2032043" />
      <stop
         id="stop3328"
         style="stop-color:#c9c9c9;stop-opacity:1"
         offset="0.42969123" />
      <stop
         id="stop3330"
         style="stop-color:#dedede;stop-opacity:0"
         offset="1" />
    </linearGradient>
    <linearGradient
       id="linearGradient3448">
      <stop
         id="stop3450"
         style="stop-color:#000000;stop-opacity:1"
         offset="0" />
      <stop
         id="stop3452"
         style="stop-color:#000000;stop-opacity:0"
         offset="1" />
    </linearGradient>
    <linearGradient
       id="linearGradient3376">
      <stop
         id="stop3378"
         style="stop-color:#767676;stop-opacity:1"
         offset="0" />
      <stop
         id="stop3380"
         style="stop-color:#fdfdfd;stop-opacity:1"
         offset="1" />
    </linearGradient>
    <linearGradient
       id="linearGradient3273">
      <stop
         id="stop3275"
         style="stop-color:#7a7a7a;stop-opacity:1"
         offset="0" />
      <stop
         id="stop3281"
         style="stop-color:#f9f9f9;stop-opacity:1"
         offset="0.14636412" />
      <stop
         id="stop3283"
         style="stop-color:#c9c9c9;stop-opacity:1"
         offset="0.37253973" />
      <stop
         id="stop3277"
         style="stop-color:#dedede;stop-opacity:0"
         offset="1" />
    </linearGradient>
    <linearGradient
       id="linearGradient3220">
      <stop
         id="stop3222"
         style="stop-color:#ffffff;stop-opacity:1"
         offset="0" />
      <stop
         id="stop3224"
         style="stop-color:#bfbfbf;stop-opacity:0"
         offset="1" />
    </linearGradient>
    <linearGradient
       id="linearGradient3173">
      <stop
         id="stop3175"
         style="stop-color:#e6e6e6;stop-opacity:1"
         offset="0" />
      <stop
         id="stop3189"
         style="stop-color:#c3c3c3;stop-opacity:1"
         offset="0.26003402" />
      <stop
         id="stop3187"
         style="stop-color:#b9b9b9;stop-opacity:1"
         offset="0.49180263" />
      <stop
         id="stop3191"
         style="stop-color:#c8c8c8;stop-opacity:1"
         offset="0.75914466" />
      <stop
         id="stop3177"
         style="stop-color:#e6e6e6;stop-opacity:1"
         offset="1" />
    </linearGradient>
    <linearGradient
       x1="45.447727"
       y1="92.539597"
       x2="45.447727"
       y2="7.0165396"
       id="ButtonShadow"
       gradientUnits="userSpaceOnUse"
       gradientTransform="scale(1.0058652,0.994169)">
      <stop
         id="stop3750"
         style="stop-color:#000000;stop-opacity:1"
         offset="0" />
      <stop
         id="stop3752"
         style="stop-color:#000000;stop-opacity:0.58823532"
         offset="1" />
    </linearGradient>
    <linearGradient
       id="linearGradient3737">
      <stop
         id="stop3739"
         style="stop-color:#ffffff;stop-opacity:1"
         offset="0" />
      <stop
         id="stop3741"
         style="stop-color:#ffffff;stop-opacity:0"
         offset="1" />
    </linearGradient>
    <filter
       x="-0.29508197"
       y="-0.46153846"
       width="1.5901639"
       height="1.9230769"
       color-interpolation-filters="sRGB"
       id="filter3179">
      <feGaussianBlur
         id="feGaussianBlur3181"
         stdDeviation="6.6964288" />
    </filter>
    <filter
       color-interpolation-filters="sRGB"
       id="filter3174">
      <feGaussianBlur
         id="feGaussianBlur3176"
         stdDeviation="1.71" />
    </filter>
    <linearGradient
       x1="36.357143"
       y1="6"
       x2="36.357143"
       y2="63.893143"
       id="linearGradient3188"
       xlink:href="#linearGradient3737"
       gradientUnits="userSpaceOnUse" />
    <linearGradient
       x1="-1.857143"
       y1="86.214287"
       x2="88"
       y2="8.6071424"
       id="linearGradient3179"
       xlink:href="#linearGradient3173"
       gradientUnits="userSpaceOnUse" />
    <linearGradient
       x1="6"
       y1="77.09375"
       x2="32"
       y2="77.09375"
       id="linearGradient3279"
       xlink:href="#linearGradient3322"
       gradientUnits="userSpaceOnUse" />
    <linearGradient
       x1="6"
       y1="77.09375"
       x2="32.030617"
       y2="77.09375"
       id="linearGradient3287"
       xlink:href="#linearGradient3273"
       gradientUnits="userSpaceOnUse"
       gradientTransform="matrix(-1,0,0,1,96.030615,0)" />
    <linearGradient
       x1="6"
       y1="75.5"
       x2="45.219246"
       y2="75.5"
       id="linearGradient3454"
       xlink:href="#linearGradient3448"
       gradientUnits="userSpaceOnUse"
       gradientTransform="matrix(-1,0,0,1,96,0)" />
    <linearGradient
       x1="48"
       y1="77.09375"
       x2="48"
       y2="90"
       id="linearGradient3460"
       xlink:href="#linearGradient3448"
       gradientUnits="userSpaceOnUse" />
    <linearGradient
       x1="41.041885"
       y1="72"
       x2="48"
       y2="19.160589"
       id="linearGradient3517"
       xlink:href="#linearGradient3737"
       gradientUnits="userSpaceOnUse" />
    <linearGradient
       x1="38.765545"
       y1="73"
       x2="38.765545"
       y2="-60.29591"
       id="linearGradient3527"
       xlink:href="#linearGradient3448"
       gradientUnits="userSpaceOnUse"
       gradientTransform="matrix(1.0277778,0,0,1.0499999,-0.3055556,-2.6499999)" />
    <linearGradient
       x1="44.324883"
       y1="12"
       x2="44.324883"
       y2="72.11245"
       id="linearGradient3547"
       xlink:href="#linearGradient4327"
       gradientUnits="userSpaceOnUse" />
    <linearGradient
       x1="46.810722"
       y1="8.046936"
       x2="46.548832"
       y2="77.872437"
       id="linearGradient3551"
       xlink:href="#linearGradient3220"
       gradientUnits="userSpaceOnUse"
       gradientTransform="matrix(1,0,0,-1,0,84)" />
    <linearGradient
       x1="15.999999"
       y1="85.0625"
       x2="20.178572"
       y2="85.0625"
       id="linearGradient3556"
       xlink:href="#linearGradient3376"
       gradientUnits="userSpaceOnUse" />
    <radialGradient
       cx="18.089285"
       cy="85.0625"
       r="2.0892856"
       fx="18.089285"
       fy="85.0625"
       id="radialGradient3558"
       xlink:href="#linearGradient3733"
       gradientUnits="userSpaceOnUse"
       gradientTransform="matrix(1,0,0,1.0042736,0,-0.3635233)" />
    <linearGradient
       x1="67.071426"
       y1="80"
       x2="67.071426"
       y2="88.011475"
       id="linearGradient4231"
       xlink:href="#linearGradient4225"
       gradientUnits="userSpaceOnUse"
       gradientTransform="translate(-2,0)" />
    <linearGradient
       x1="67.071426"
       y1="80"
       x2="67.071426"
       y2="88.011475"
       id="linearGradient4239"
       xlink:href="#linearGradient3737"
       gradientUnits="userSpaceOnUse" />
    <clipPath
       id="clipPath3306">
      <rect
         width="72"
         height="60"
         rx="4"
         ry="4"
         x="12"
         y="12"
         id="rect3308"
         style="fill:#ffffff;fill-opacity:1;fill-rule:nonzero;stroke:none" />
    </clipPath>
    <linearGradient
       x1="15.656256"
       y1="69.394279"
       x2="46.594883"
       y2="39.82095"
       id="linearGradient3540"
       xlink:href="#linearGradient3220"
       gradientUnits="userSpaceOnUse" />
    <filter
       x="-0.12267826"
       y="-0.17991199"
       width="1.2453564"
       height="1.3598239"
       color-interpolation-filters="sRGB"
       id="filter3642">
      <feGaussianBlur
         id="feGaussianBlur3644"
         stdDeviation="3.178304" />
    </filter>
    <linearGradient
       id="linearGradient3767">
      <stop
         id="stop3769"
         style="stop-color:#4d4d4d;stop-opacity:0.70731705"
         offset="0" />
      <stop
         id="stop3771"
         style="stop-color:#4d4d4d;stop-opacity:0.25203252"
         offset="1" />
    </linearGradient>
    <linearGradient
       x1="32.251034"
       y1="6.1317081"
       x2="32.251034"
       y2="90.238609"
       id="linearGradient3721"
       xlink:href="#ButtonShadow-0"
       gradientUnits="userSpaceOnUse"
       gradientTransform="translate(0,-97)" />
    <linearGradient
       x1="45.447727"
       y1="92.539597"
       x2="45.447727"
       y2="7.0165396"
       id="ButtonShadow-0"
       gradientUnits="userSpaceOnUse"
       gradientTransform="matrix(1.0058652,0,0,0.994169,100,0)">
      <stop
         id="stop3750-8"
         style="stop-color:#000000;stop-opacity:1"
         offset="0" />
      <stop
         id="stop3752-5"
         style="stop-color:#000000;stop-opacity:0.58823532"
         offset="1" />
    </linearGradient>
    <linearGradient
       x1="32.251034"
       y1="6.1317081"
       x2="32.251034"
       y2="90.238609"
       id="linearGradient3725"
       xlink:href="#ButtonShadow-0"
       gradientUnits="userSpaceOnUse"
       gradientTransform="matrix(1.0238095,0,0,1.0119048,-1.1428571,-98.071429)" />
    <linearGradient
       x1="32.251034"
       y1="6.1317081"
       x2="32.251034"
       y2="90.238609"
       id="linearGradient3772"
       xlink:href="#ButtonShadow-0"
       gradientUnits="userSpaceOnUse"
       gradientTransform="matrix(1.0238095,0,0,1.0119048,-1.1428571,-98.071429)" />
    <linearGradient
       x1="32.251034"
       y1="6.1317081"
       x2="32.251034"
       y2="90.238609"
       id="linearGradient3780"
       xlink:href="#ButtonShadow-0"
       gradientUnits="userSpaceOnUse"
       gradientTransform="matrix(1.0238095,0,0,1.0119048,-1.1428571,-98.071429)" />
    <linearGradient
       x1="32.251034"
       y1="6.1317081"
       x2="32.251034"
       y2="90.238609"
       id="linearGradient3039"
       xlink:href="#ButtonShadow-0"
       gradientUnits="userSpaceOnUse"
       gradientTransform="matrix(1.0238095,0,0,1.0119048,-1.1428571,-98.071429)" />
    <linearGradient
       x1="50"
       y1="62"
       x2="50"
       y2="20"
       id="linearGradient3949"
       xlink:href="#linearGradient3767"
       gradientUnits="userSpaceOnUse" />
    <clipPath
       id="clipPath3980">
      <path
         d="m -84,12 c -2.216,0 -4,1.784 -4,4 l 0,52 c 0,2.216 1.784,4 4,4 l 64,0 c 2.216,0 4,-1.784 4,-4 l 0,-52 c 0,-2.216 -1.784,-4 -4,-4 l -64,0 z m 32,8 c 8.413849,0 15.809201,3.796888 20.09375,9.53125 l -3.71875,1.875 -11.71875,5.90625 A 1.1937775,1.1937775 0 0 0 -47.5625,37.5 c -1.095677,-1.06642 -2.667782,-1.75 -4.4375,-1.75 -3.313708,0 -6,2.350506 -6,5.25 0,2.899494 2.686292,5.25 6,5.25 1.752367,0 3.311852,-0.6705 4.40625,-1.71875 a 1.1937775,1.1937775 0 0 0 0.25,0.15625 l 11.71875,5.90625 3.71875,1.875 C -36.190799,58.203112 -43.586151,62 -52,62 -65.254834,62 -76,52.59798 -76,41 -76,29.40202 -65.254834,20 -52,20 z m 23.78125,10.5 c 4.287187,6.497423 4.287187,14.502577 0,21 l -3.875,-1.96875 L -43.8125,43.625 C -43.301968,42.852783 -43,41.956275 -43,41 c 0,-0.956275 -0.301968,-1.852783 -0.8125,-2.625 l 11.71875,-5.90625 3.875,-1.96875 z"
         inkscape:connector-curvature="0"
         id="path3982"
         style="opacity:0.2;fill:#803300;fill-opacity:1;fill-rule:nonzero;stroke:none;display:inline" />
    </clipPath>
    <filter
       x="-0.21883003"
       y="-0.26570469"
       width="1.4376601"
       height="1.5314094"
       color-interpolation-filters="sRGB"
       id="filter3988">
      <feGaussianBlur
         id="feGaussianBlur3990"
         stdDeviation="4.649832" />
    </filter>
    <linearGradient
       inkscape:collect="always"
       xlink:href="#linearGradient4225-5"
       id="linearGradient3145"
       gradientUnits="userSpaceOnUse"
       gradientTransform="translate(8.7159164,1.7588106)"
       x1="46.178307"
       y1="80"
       x2="46.178307"
       y2="84.029495" />
    <linearGradient
       id="linearGradient4225-5">
      <stop
         id="stop4227-2"
         style="stop-color:#000000;stop-opacity:1"
         offset="0" />
      <stop
         id="stop4229-0"
         style="stop-color:#484848;stop-opacity:1"
         offset="1" />
    </linearGradient>
    <linearGradient
       x1="52.92857"
       y1="60"
       x2="52.92857"
       y2="19.986593"
       id="linearGradient3381"
       xlink:href="#linearGradient3767-9"
       gradientUnits="userSpaceOnUse"
       gradientTransform="translate(0,2.5000001e-6)" />
    <linearGradient
       id="linearGradient3767-9">
      <stop
         id="stop3769-1"
         style="stop-color:#4d4d4d;stop-opacity:0.70731705"
         offset="0" />
      <stop
         id="stop3771-0"
         style="stop-color:#4d4d4d;stop-opacity:0.25203252"
         offset="1" />
    </linearGradient>
  </defs>
  <metadata
     id="metadata2413">
    <rdf:RDF>
      <cc:Work
         rdf:about="">
        <dc:format>image/svg+xml</dc:format>
        <dc:type
           rdf:resource="http://purl.org/dc/dcmitype/StillImage" />
        <dc:title />
      </cc:Work>
    </rdf:RDF>
  </metadata>
  <g
     id="layer2"
     style="display:none">
    <rect
       width="86"
       height="85"
       rx="6"
       ry="6"
       x="5"
       y="7"
       id="rect3745"
       style="opacity:0.9;fill:url(#ButtonShadow);fill-opacity:1;fill-rule:nonzero;stroke:none;filter:url(#filter3174)" />
  </g>
  <rect
     style="fill:#cacaca;fill-opacity:1;fill-rule:nonzero;stroke:none"
     id="rect3171"
     y="6"
     x="6"
     ry="0"
     rx="6"
     height="83.887093"
     width="84" />
  <rect
     style="opacity:0.15;fill:#ffffff;fill-opacity:1;fill-rule:nonzero;stroke:none;filter:url(#filter3179)"
     id="rect2399"
     transform="matrix(1.0880985,0,0,1.1015333,-1.1722568,-1.4100719)"
     y="13.887781"
     x="13.306199"
     ry="9"
     rx="9"
     height="34.82143"
     width="54.464287" />
  <rect
     style="opacity:0.8;fill:#7b7b7b;fill-opacity:1;fill-rule:nonzero;stroke:none"
     id="rect3492"
     y="11"
     x="11"
     ry="4.1999998"
     rx="4.1111112"
     height="63"
     width="74" />
  <rect
     style="fill:#cacaca;fill-opacity:1;fill-rule:nonzero;stroke:none"
     id="rect3519"
     y="12"
     x="12"
     ry="4"
     rx="4"
     height="60"
     width="72" />
  <g
     id="layer1">
    <g
       id="g3318">
      <path
         style="opacity:0.3;fill:#000000;fill-opacity:1;fill-rule:nonzero;stroke:none"
         id="path4053"
         d="m 22.780837,83.508926 a 3.2897709,3.2897709 0 0 1 -6.579542,0 3.2897709,3.2897709 0 1 1 6.579542,0 z"
         inkscape:connector-curvature="0" />
      <path
         d="m 20.178571,85.0625 a 2.0892856,2.0982144 0 1 1 -4.178572,0 2.0892856,2.0982144 0 1 1 4.178572,0 z"
         transform="matrix(1.1923077,0,0,1.1872339,-2.0769275,-17.480158)"
         id="path3364"
         style="fill:#0084ff;fill-opacity:1;fill-rule:nonzero;stroke:none;stroke-width:0.84049987999999998;stroke-linecap:square;stroke-linejoin:miter;stroke-miterlimit:4;stroke-opacity:1;stroke-dasharray:none;stroke-dashoffset:0" />
    </g>
  </g>
  <rect
     style="fill:#999999;fill-opacity:1;fill-rule:evenodd;stroke:none"
     id="rect3082"
     width="83.696457"
     height="2.0820873"
     x="6.2248263"
     y="76.044968"
     rx="6.0297518"
     ry="0.14412965" />
  <path
     inkscape:connector-curvature="0"
     style="fill:#f9f9f9;fill-opacity:1;stroke:none;display:inline"
     id="path3620"
     d="m 48,14.099348 c -16.731386,0 -30.294854,10.648268 -30.294854,23.783572 0,8.366918 5.507935,15.717825 13.827765,19.95728 -0.316375,2.209894 -1.757115,7.619388 -8.577805,9.469389 8.834085,0.921235 14.700901,-3.211936 17.81544,-6.331279 2.316645,0.445283 4.737993,0.688183 7.229454,0.688183 16.731386,0 30.294854,-10.648269 30.294854,-23.783573 C 78.294854,24.747616 64.731386,14.099348 48,14.099348 z" />
  <g
     transform="matrix(0.62980351,0,0,0.62980351,18.045431,12.052161)"
     id="g3095">
    <path
       style="fill:#737373;fill-opacity:1;stroke:none;display:inline"
       id="path1334"
       inkscape:connector-curvature="0"
       d="m 63.561765,46.385188 c 0,-1.632631 -1.214678,-3.031399 -2.938029,-3.659088 l 0,-4.076707 c 0,-1.457386 -0.911529,-2.829584 -2.007647,-3.818181 -0.01169,-0.01054 -0.01276,-0.02933 -0.02449,-0.03977 0,0 0,-0.01989 0,-0.01989 -1.7e-5,-2.1e-5 -0.04894,-0.05963 -0.04897,-0.05966 -2.1e-4,-2.41e-4 -0.04218,-0.05362 -0.04897,-0.05966 -0.0068,-0.006 -0.0203,0.0036 -0.02448,0 -0.0042,-0.0036 0.0041,-0.01646 0,-0.01988 -0.01651,-0.01369 -0.04949,-0.02143 -0.07345,-0.03977 -0.008,-0.0068 -0.01614,-0.01341 -0.02449,-0.01989 -0.02631,-0.01864 -8.126685,-6.149101 -8.226466,-6.224432 -0.388808,-0.40146 -0.670662,-0.954154 -0.685543,-1.451705 l 0,-3.559659 c 2.454562,-0.664683 4.235656,-2.531335 4.235656,-4.713068 8e-6,-2.739375 -2.786947,-4.951706 -6.218813,-4.951706 -3.432907,0 -6.218825,2.21233 -6.218825,4.951704 3e-6,2.182165 1.779675,4.048453 4.235657,4.713068 l 0,3.519886 c 0,-0.007 4.59e-4,0.03066 0,0.03977 -4.58e-4,0.0091 -0.003,-0.0041 0,0.03977 l 0,6.144886 c -0.01587,0.496942 -0.292826,1.008768 -0.685541,1.411932 -0.04962,0.03746 -2.042443,1.557754 -4.088751,3.102272 -1.035811,0.781812 -2.085229,1.559571 -2.864577,2.147728 -0.389673,0.294078 -0.701642,0.543337 -0.930374,0.715908 -0.114367,0.08629 -0.20735,0.152136 -0.26932,0.198864 -0.03098,0.02336 -0.05719,0.02753 -0.07345,0.03977 -0.0081,0.0061 -0.0166,0.02917 -0.02448,0.03977 -0.02242,0.01758 -0.05814,0.027 -0.07345,0.03977 -0.0046,0.0038 0.0047,0.01588 0,0.01989 -0.0047,0.004 -0.01698,-0.0068 -0.02448,0 -0.0075,0.0068 -0.04876,0.0793 -0.04897,0.07955 -2.7e-5,3.1e-5 -0.04895,0.03975 -0.04897,0.03977 0,0 0,0.01989 0,0.01989 0,0 -0.02448,0.01989 -0.02448,0.01989 -0.0044,0.0039 0.0043,0.01597 0,0.01989 -0.0099,0.01973 -0.02448,0.03977 -0.02448,0.03977 -1.07951,0.986759 -1.983169,2.336337 -1.983169,3.778407 l 0,3.738637 -2.76664,0 0,7.93466 9.517343,0 0,-7.93466 -2.784368,0 c 0,-0.832356 0,-1.696898 0,-3.798291 0.01431,-0.497258 0.290637,-1.005878 0.685541,-1.411935 l 6.512624,-4.931818 0,21.97443 -4.295589,0 6.364744,9.306822 6.366392,-9.306822 -4.469222,0 0,-28.119315 6.512624,4.911931 c 0.39014,0.402952 0.671099,0.953826 0.68554,1.451705 0,1.714333 -2.35e-4,3.049209 0,4.096591 -1.763873,0.61572 -3.011477,2.023581 -3.011477,3.678976 0,2.220106 2.236826,4.036935 4.970164,4.036935 2.733331,0 4.945676,-1.816829 4.945676,-4.036935 z" />
    <path
       style="opacity:0.4;fill:#000000;fill-opacity:1;stroke:none;display:inline"
       id="path3504"
       inkscape:connector-curvature="0"
       d="m 47.468019,13.649304 c -3.432906,0 -6.21875,2.198126 -6.21875,4.9375 0,0.136983 0.04875,0.271976 0.0625,0.40625 0.373316,-2.453845 2.979193,-4.34375 6.15625,-4.34375 3.204424,0 5.851363,1.920565 6.1875,4.40625 0.01808,-0.153609 0.03125,-0.311537 0.03125,-0.46875 0,-2.739373 -2.786884,-4.9375 -6.21875,-4.9375 z m 2,13.21875 0,1 c 0.01488,0.497551 0.298693,1.06729 0.6875,1.46875 0.09978,0.07533 8.192442,6.200116 8.21875,6.21875 0.0084,0.0065 0.02327,-0.0068 0.03125,0 0.02396,0.01835 0.04599,0.04881 0.0625,0.0625 0.0042,0.0036 0.02447,-0.006 0.03125,0 0.0068,0.006 0.03104,0.06226 0.03125,0.0625 2.6e-5,2.9e-5 0.06248,0.06248 0.0625,0.0625 0,0 1e-6,0.03125 0,0.03125 0.01173,0.01044 0.01956,0.02072 0.03125,0.03125 1.096118,0.988597 2.000001,2.355113 2,3.8125 l 0,-1 c 1e-6,-1.457387 -0.903882,-2.823903 -2,-3.8125 -0.01169,-0.01053 -0.01952,-0.02081 -0.03125,-0.03125 1e-6,10e-7 0,-0.03125 0,-0.03125 -1.6e-5,-2.1e-5 -0.06247,-0.06247 -0.0625,-0.0625 -2.08e-4,-2.41e-4 -0.02446,-0.05646 -0.03125,-0.0625 -0.0068,-0.006 -0.02707,0.0036 -0.03125,0 -0.01651,-0.01369 -0.03854,-0.04415 -0.0625,-0.0625 -0.008,-0.0068 -0.0229,0.0065 -0.03125,0 -0.02631,-0.01863 -8.118969,-6.143419 -8.21875,-6.21875 -0.388807,-0.40146 -0.672619,-0.971199 -0.6875,-1.46875 z m -3.96875,6.1875 c -0.01587,0.496942 -0.294785,1.003086 -0.6875,1.40625 -0.04962,0.03746 -2.047442,1.580482 -4.09375,3.125 -1.035812,0.781812 -2.095652,1.536843 -2.875,2.125 -0.389673,0.294078 -0.677518,0.546179 -0.90625,0.71875 -0.114367,0.08629 -0.21928,0.172022 -0.28125,0.21875 -0.03099,0.02336 -0.04624,0.01901 -0.0625,0.03125 -0.0081,0.0061 -0.02336,0.02064 -0.03125,0.03125 -0.02242,0.01758 -0.07844,0.01847 -0.09375,0.03125 -0.0046,0.0038 0.0047,0.02724 0,0.03125 -0.0075,0.0068 -0.0623,0.09351 -0.0625,0.09375 -2.8e-5,3.1e-5 -0.03124,0.03123 -0.03125,0.03125 0,10e-7 -0.03125,0.03125 -0.03125,0.03125 -0.0044,0.0039 0.0043,0.02733 0,0.03125 -0.0099,0.01973 -0.03125,0.03125 -0.03125,0.03125 -1.07951,0.986761 -1.96875,2.33918 -1.96875,3.78125 l 0,1 c 0,-1.44207 0.88924,-2.794489 1.96875,-3.78125 0,0 0.0213,-0.01152 0.03125,-0.03125 0.0043,-0.0039 -0.0044,-0.02734 0,-0.03125 0,0 0.03125,-0.03125 0.03125,-0.03125 1.5e-5,-2.1e-5 0.03122,-0.03122 0.03125,-0.03125 2.03e-4,-2.43e-4 0.05499,-0.08693 0.0625,-0.09375 0.0047,-0.004 -0.0046,-0.02742 0,-0.03125 0.01531,-0.01278 0.07133,-0.01367 0.09375,-0.03125 0.0079,-0.01061 0.02312,-0.02513 0.03125,-0.03125 0.01626,-0.01224 0.03151,-0.0079 0.0625,-0.03125 0.06197,-0.04673 0.166883,-0.132464 0.28125,-0.21875 0.228732,-0.172571 0.516577,-0.424672 0.90625,-0.71875 0.779348,-0.588157 1.839188,-1.343188 2.875,-2.125 2.046308,-1.544518 4.044131,-3.087545 4.09375,-3.125 0.392715,-0.403164 0.671626,-0.909306 0.6875,-1.40625 l 0,-1 z m 11.15625,9.625 c -1.763874,0.615722 -3,2.032105 -3,3.6875 0,0.182068 0.03337,0.355386 0.0625,0.53125 0.20676,-1.453138 1.339535,-2.660943 2.9375,-3.21875 -5.7e-5,-0.255849 1.2e-5,-0.708501 0,-1 z m 3.96875,0.03125 0,1 c 1.552786,0.565565 2.664589,1.762907 2.875,3.1875 0.02883,-0.175864 0.0625,-0.349182 0.0625,-0.53125 0,-1.632631 -1.214149,-3.028561 -2.9375,-3.65625 z m -29.0625,5.8125 0,1 2.78125,0 0,-1 -2.78125,0 z m 6.71875,0 c 0,0.24449 0,0.781678 0,1 l 2.8125,0 0,-1 -2.8125,0 z m 2.90625,11.8125 0.6875,1 3.625,0 0,-1 -4.3125,0 z m 8.28125,0 0,1 3.78125,0 0.6875,-1 -4.46875,0 z" />
  </g>
</svg>
