<?xml version="1.0" encoding="UTF-8" standalone="no"?>
<!-- Created with Inkscape (http://www.inkscape.org/) -->

<svg
   xmlns:dc="http://purl.org/dc/elements/1.1/"
   xmlns:cc="http://creativecommons.org/ns#"
   xmlns:rdf="http://www.w3.org/1999/02/22-rdf-syntax-ns#"
   xmlns:svg="http://www.w3.org/2000/svg"
   xmlns="http://www.w3.org/2000/svg"
   xmlns:xlink="http://www.w3.org/1999/xlink"
   xmlns:sodipodi="http://sodipodi.sourceforge.net/DTD/sodipodi-0.dtd"
   xmlns:inkscape="http://www.inkscape.org/namespaces/inkscape"
   version="1.0"
   width="96"
   height="96"
   id="svg2408"
   inkscape:version="0.48.4 r9939"
   sodipodi:docname="dosbox.svg">
  <sodipodi:namedview
     pagecolor="#ffffff"
     bordercolor="#666666"
     borderopacity="1"
     objecttolerance="10"
     gridtolerance="10"
     guidetolerance="10"
     inkscape:pageopacity="0"
     inkscape:pageshadow="2"
     inkscape:window-width="1366"
     inkscape:window-height="709"
     id="namedview64"
     showgrid="false"
     inkscape:zoom="2.4583333"
     inkscape:cx="48.813559"
     inkscape:cy="47.18644"
     inkscape:window-x="0"
     inkscape:window-y="-3"
     inkscape:window-maximized="1"
     inkscape:current-layer="svg2408" />
  <defs
     id="defs2410">
    <linearGradient
       id="linearGradient4229">
      <stop
         id="stop4231"
         style="stop-color:#123565;stop-opacity:1"
         offset="0" />
      <stop
         id="stop4233"
         style="stop-color:#1c54a0;stop-opacity:1"
         offset="1" />
    </linearGradient>
    <linearGradient
       id="linearGradient4213">
      <stop
         id="stop4215"
         style="stop-color:#ffffff;stop-opacity:1"
         offset="0" />
      <stop
         id="stop4217"
         style="stop-color:#ffffff;stop-opacity:0"
         offset="1" />
    </linearGradient>
    <linearGradient
       id="linearGradient4208">
      <stop
         id="stop4210"
         style="stop-color:#f3840c;stop-opacity:1"
         offset="0" />
      <stop
         id="stop4212"
         style="stop-color:#f2b80c;stop-opacity:1"
         offset="1" />
    </linearGradient>
    <linearGradient
       x1="45.447727"
       y1="92.539597"
       x2="45.447727"
       y2="7.0165396"
       id="ButtonShadow"
       gradientUnits="userSpaceOnUse"
       gradientTransform="scale(1.0058652,0.994169)">
      <stop
         id="stop3750"
         style="stop-color:#000000;stop-opacity:1"
         offset="0" />
      <stop
         id="stop3752"
         style="stop-color:#000000;stop-opacity:0.58823532"
         offset="1" />
    </linearGradient>
    <linearGradient
       id="linearGradient3737">
      <stop
         id="stop3739"
         style="stop-color:#ffffff;stop-opacity:1"
         offset="0" />
      <stop
         id="stop3741"
         style="stop-color:#ffffff;stop-opacity:0"
         offset="1" />
    </linearGradient>
    <filter
       color-interpolation-filters="sRGB"
       id="filter3174">
      <feGaussianBlur
         stdDeviation="1.71"
         id="feGaussianBlur3176" />
    </filter>
    <linearGradient
       x1="45.447727"
       y1="92.539597"
       x2="45.447727"
       y2="7.0165396"
       id="ButtonShadow-0"
       gradientUnits="userSpaceOnUse"
       gradientTransform="matrix(1.0058652,0,0,0.994169,100,0)">
      <stop
         id="stop3750-8"
         style="stop-color:#000000;stop-opacity:1"
         offset="0" />
      <stop
         id="stop3752-5"
         style="stop-color:#000000;stop-opacity:0.58823532"
         offset="1" />
    </linearGradient>
    <linearGradient
       x1="32.251034"
       y1="6.1317081"
       x2="32.251034"
       y2="90.238609"
       id="linearGradient3780"
       xlink:href="#ButtonShadow-0"
       gradientUnits="userSpaceOnUse"
       gradientTransform="matrix(1.0238095,0,0,1.0119048,-1.1428571,-98.071429)" />
    <linearGradient
       x1="32.251034"
       y1="6.1317081"
       x2="32.251034"
       y2="90.238609"
       id="linearGradient3772"
       xlink:href="#ButtonShadow-0"
       gradientUnits="userSpaceOnUse"
       gradientTransform="matrix(1.0238095,0,0,1.0119048,-1.1428571,-98.071429)" />
    <linearGradient
       x1="32.251034"
       y1="6.1317081"
       x2="32.251034"
       y2="90.238609"
       id="linearGradient3725"
       xlink:href="#ButtonShadow-0"
       gradientUnits="userSpaceOnUse"
       gradientTransform="matrix(1.0238095,0,0,1.0119048,-1.1428571,-98.071429)" />
    <linearGradient
       x1="32.251034"
       y1="6.1317081"
       x2="32.251034"
       y2="90.238609"
       id="linearGradient3721"
       xlink:href="#ButtonShadow-0"
       gradientUnits="userSpaceOnUse"
       gradientTransform="translate(0,-97)" />
    <linearGradient
       x1="32.251034"
       y1="6.1317081"
       x2="32.251034"
       y2="90.238609"
       id="linearGradient3059"
       xlink:href="#ButtonShadow-0"
       gradientUnits="userSpaceOnUse"
       gradientTransform="matrix(1.0238095,0,0,1.0119048,-1.1428571,-98.071429)" />
    <radialGradient
       cx="48"
       cy="90.171875"
       r="42"
       fx="48"
       fy="90.171875"
       id="radialGradient3424"
       xlink:href="#linearGradient3737"
       gradientUnits="userSpaceOnUse"
       gradientTransform="matrix(1.1573129,0,0,0.99590774,-7.5510206,0.19713193)" />
    <linearGradient
       x1="36.357143"
       y1="6"
       x2="36.357143"
       y2="63.893143"
       id="linearGradient3427"
       xlink:href="#linearGradient3737"
       gradientUnits="userSpaceOnUse" />
    <linearGradient
       x1="48"
       y1="90"
       x2="48"
       y2="5.9877172"
       id="linearGradient3433"
       xlink:href="#linearGradient4208"
       gradientUnits="userSpaceOnUse" />
    <linearGradient
       x1="39.078926"
       y1="58.664307"
       x2="39.091385"
       y2="53.714558"
       id="linearGradient4219"
       xlink:href="#linearGradient4213"
       gradientUnits="userSpaceOnUse"
       gradientTransform="matrix(1.0075619,0,0,1,-0.6794906,0)" />
    <linearGradient
       x1="40.294678"
       y1="89.365746"
       x2="40.148972"
       y2="54.36396"
       id="linearGradient4235"
       xlink:href="#linearGradient4229"
       gradientUnits="userSpaceOnUse" />
    <linearGradient
       inkscape:collect="always"
       xlink:href="#ButtonShadow-0"
       id="linearGradient3041"
       gradientUnits="userSpaceOnUse"
       gradientTransform="matrix(1.0238095,0,0,1.0119048,-1.1428571,-98.071429)"
       x1="32.251034"
       y1="6.1317081"
       x2="32.251034"
       y2="90.238609" />
    <linearGradient
       inkscape:collect="always"
       xlink:href="#ButtonShadow-0"
       id="linearGradient3043"
       gradientUnits="userSpaceOnUse"
       gradientTransform="matrix(1.0238095,0,0,1.0119048,-1.1428571,-98.071429)"
       x1="32.251034"
       y1="6.1317081"
       x2="32.251034"
       y2="90.238609" />
    <linearGradient
       inkscape:collect="always"
       xlink:href="#ButtonShadow-0"
       id="linearGradient3045"
       gradientUnits="userSpaceOnUse"
       gradientTransform="matrix(1.0238095,0,0,1.0119048,-1.1428571,-98.071429)"
       x1="32.251034"
       y1="6.1317081"
       x2="32.251034"
       y2="90.238609" />
    <linearGradient
       inkscape:collect="always"
       xlink:href="#ButtonShadow-0"
       id="linearGradient3047"
       gradientUnits="userSpaceOnUse"
       gradientTransform="matrix(1.0238095,0,0,1.0119048,-1.1428571,-98.071429)"
       x1="32.251034"
       y1="6.1317081"
       x2="32.251034"
       y2="90.238609" />
    <linearGradient
       inkscape:collect="always"
       xlink:href="#ButtonShadow-0"
       id="linearGradient3049"
       gradientUnits="userSpaceOnUse"
       gradientTransform="translate(0,-97)"
       x1="32.251034"
       y1="6.1317081"
       x2="32.251034"
       y2="90.238609" />
    <linearGradient
       inkscape:collect="always"
       xlink:href="#linearGradient4208"
       id="linearGradient3051"
       gradientUnits="userSpaceOnUse"
       x1="48"
       y1="90"
       x2="48"
       y2="5.9877172" />
    <linearGradient
       inkscape:collect="always"
       xlink:href="#linearGradient4229"
       id="linearGradient3053"
       gradientUnits="userSpaceOnUse"
       x1="40.294678"
       y1="89.365746"
       x2="40.148972"
       y2="54.36396" />
    <linearGradient
       inkscape:collect="always"
       xlink:href="#linearGradient3737"
       id="linearGradient3055"
       gradientUnits="userSpaceOnUse"
       x1="36.357143"
       y1="6"
       x2="36.357143"
       y2="63.893143" />
    <radialGradient
       inkscape:collect="always"
       xlink:href="#linearGradient3737"
       id="radialGradient3057"
       gradientUnits="userSpaceOnUse"
       gradientTransform="matrix(1.1573129,0,0,0.99590774,-7.5510206,0.19713193)"
       cx="48"
       cy="90.171875"
       fx="48"
       fy="90.171875"
       r="42" />
    <linearGradient
       inkscape:collect="always"
       xlink:href="#linearGradient4213"
       id="linearGradient3060"
       gradientUnits="userSpaceOnUse"
       gradientTransform="matrix(1.0075619,0,0,1,-0.6794906,0)"
       x1="39.078926"
       y1="58.664307"
       x2="39.091385"
       y2="53.714558" />
    <linearGradient
       inkscape:collect="always"
       xlink:href="#linearGradient4213"
       id="linearGradient3076"
       gradientUnits="userSpaceOnUse"
       gradientTransform="matrix(1.0075619,0,0,1,-0.6794906,0)"
       x1="39.078926"
       y1="58.664307"
       x2="39.091385"
       y2="53.714558" />
    <radialGradient
       inkscape:collect="always"
       xlink:href="#linearGradient3737"
       id="radialGradient3079"
       gradientUnits="userSpaceOnUse"
       gradientTransform="matrix(1.1573129,0,0,0.99590774,-7.5510206,0.19713193)"
       cx="48"
       cy="90.171875"
       fx="48"
       fy="90.171875"
       r="42" />
    <linearGradient
       inkscape:collect="always"
       xlink:href="#linearGradient3737"
       id="linearGradient3082"
       gradientUnits="userSpaceOnUse"
       x1="36.357143"
       y1="6"
       x2="36.357143"
       y2="63.893143" />
    <linearGradient
       inkscape:collect="always"
       xlink:href="#linearGradient4208"
       id="linearGradient3089"
       gradientUnits="userSpaceOnUse"
       x1="48"
       y1="90"
       x2="48"
       y2="5.9877172" />
  </defs>
  <metadata
     id="metadata2413">
    <rdf:RDF>
      <cc:Work
         rdf:about="">
        <dc:format>image/svg+xml</dc:format>
        <dc:type
           rdf:resource="http://purl.org/dc/dcmitype/StillImage" />
        <dc:title />
      </cc:Work>
    </rdf:RDF>
  </metadata>
  <g
     id="layer2"
     style="display:none">
    <rect
       width="86"
       height="85"
       rx="6"
       ry="6"
       x="5"
       y="7"
       id="rect3745"
       style="opacity:0.9;fill:url(#ButtonShadow);fill-opacity:1;fill-rule:nonzero;stroke:none;filter:url(#filter3174)" />
  </g>
  <g
     transform="matrix(1.3872362,0,0,1.5325437,-34.854605,-47.92456)"
     id="layer5" />
  <rect
     style="fill:url(#linearGradient3089);fill-opacity:1;fill-rule:nonzero;stroke:none"
     id="rect2419"
     y="6"
     x="6"
     ry="6"
     rx="6"
     height="84"
     width="84" />
  <rect
     style="fill:#184889;fill-opacity:1;fill-rule:nonzero;stroke:none"
     id="rect4204"
     y="6"
     x="6"
     ry="6"
     rx="0"
     height="84"
     width="84" />
  <rect
     style="fill:#000000;fill-opacity:1;stroke:none"
     id="rect4209"
     y="6.8384337"
     x="6.168129"
     ry="5.7945895"
     rx="4.2486868"
     height="50.972286"
     width="83.688499" />
  <rect
     style="fill:none;stroke:url(#linearGradient3076);stroke-width:1.00377381;stroke-opacity:1"
     id="rect4211"
     y="6.8384337"
     x="5.8915081"
     ry="5.7945895"
     rx="3.1985664"
     height="50.972286"
     width="83.965118" />
  <g
     style="font-size:12px;font-style:normal;font-variant:normal;font-weight:normal;font-stretch:normal;line-height:125%;letter-spacing:0px;word-spacing:0px;fill:#b0b0b0;fill-opacity:1;stroke:none;font-family:Cantarell;-inkscape-font-specification:Cantarell"
     id="text4221">
    <path
       inkscape:connector-curvature="0"
       id="path4238"
       d="m 13.005846,23.610139 c -0.504,-0.288 -0.888001,-0.684001 -1.164,-1.188 -0.276,-0.504 -0.42,-1.104001 -0.42,-1.764 0,-0.959999 0.288,-1.740001 0.864,-2.364 0.263999,-0.288 0.6,-0.528 0.996,-0.696 0.395999,-0.168 0.816,-0.264 1.236,-0.264 0.419999,0 0.768,0.036 1.044,0.084 0.275999,0.048 0.6,0.144 0.984,0.276 l 0.276,-0.816 c -0.384,-0.144 -0.756001,-0.252 -1.128,-0.324 -0.372,-0.072 -0.828001,-0.108 -1.356,-0.108 -0.528,0 -1.056001,0.096 -1.572,0.312 -0.516,0.215999 -0.960001,0.504 -1.32,0.876 -0.36,0.371999 -0.636001,0.828 -0.84,1.344 -0.204,0.515999 -0.312,1.092 -0.312,1.692 0,1.259998 0.384,2.28 1.128,3.072 0.359999,0.371999 0.804,0.66 1.32,0.876 0.515999,0.215999 1.08,0.312 1.704,0.312 0.923999,0 1.752,-0.168001 2.484,-0.504 l -0.252,-0.792 c -0.648,0.263999 -1.296001,0.396 -1.944,0.396 -0.648,0 -1.224001,-0.132001 -1.728,-0.42" />
    <path
       inkscape:connector-curvature="0"
       id="path4240"
       d="m 18.350721,23.574139 0,1.236 1.224,0 0,-1.236 -1.224,0 m 0,-4.584 0,1.236 1.224,0 0,-1.236 -1.224,0" />
    <path
       inkscape:connector-curvature="0"
       id="path4242"
       d="m 20.742846,16.482139 2.904,8.856 0.996,0 -2.904,-8.856 -0.996,0" />
    <path
       inkscape:connector-curvature="0"
       id="path4244"
       d="m 25.453033,18.198139 0,0.912 4.092,2.064 -4.092,1.968 0,0.96 5.112,-2.412 0,-0.972 -5.112,-2.52" />
    <path
       inkscape:connector-curvature="0"
       id="path4246"
       d="m 34.698283,18.918139 c -0.971999,0.012 -1.692,0.3 -2.172,0.876 -0.479999,0.575999 -0.72,1.332001 -0.708,2.292 0.012,0.755999 0.18,1.38 0.516,1.848 0.48,0.671999 1.236001,1.008 2.28,0.996 0.504,0 1.020001,-0.108001 1.572,-0.324 l -0.228,-0.66 c -0.479999,0.168 -0.924,0.228 -1.32,0.18 -0.395999,-0.048 -0.72,-0.144 -0.972,-0.288 -0.563999,-0.324 -0.852,-0.912001 -0.9,-1.74 -0.084,-1.523999 0.564002,-2.304 1.968,-2.364 0.372,-0.012 0.804001,0.06 1.284,0.228 l 0.24,-0.696 c -0.551999,-0.24 -1.068,-0.36 -1.56,-0.348" />
    <path
       inkscape:connector-curvature="0"
       id="path4248"
       d="m 41.619846,19.926139 0,3.816 c -0.216,0.12 -0.420001,0.204 -0.612,0.264 -0.192,0.06 -0.420001,0.096 -0.696,0.096 -0.6,0 -1.068001,-0.192001 -1.392,-0.588 -0.324,-0.396 -0.48,-0.936001 -0.48,-1.62 0,-0.684 0.156,-1.224001 0.492,-1.632 0.335999,-0.408 0.804,-0.612 1.392,-0.612 0.455999,0 0.876,0.096 1.296,0.276 m 0,-0.768 c -0.456,-0.192 -0.924001,-0.276 -1.392,-0.276 -0.792,0 -1.452001,0.252 -1.98,0.768 -0.552,0.551999 -0.828,1.332001 -0.828,2.328 0,1.199999 0.408,2.064 1.212,2.568 0.407999,0.251999 0.888,0.372 1.464,0.372 0.575999,0 1.128,-0.180001 1.644,-0.516 l 0.168,0.408 0.708,0 0,-8.052 -0.996,0 0,2.4" />
    <path
       inkscape:connector-curvature="0"
       style="font-size:20px;fill:#b0b0b0"
       id="path4250"
       d="m 11.517846,33.822163 0,13.86 3.94,0 c 2.499997,0 4.380001,-0.580002 5.68,-1.78 1.299998,-1.199999 1.94,-2.920003 1.94,-5.16 0,-2.239998 -0.620002,-3.980002 -1.84,-5.16 -1.219999,-1.179999 -2.940003,-1.76 -5.14,-1.76 l -4.58,0 m 1.84,1.46 2.32,0 c 1.339998,0 2.440001,0.26 3.3,0.74 1.459998,0.799999 2.18,2.320002 2.18,4.58 0,1.639998 -0.340001,2.9 -1,3.8 -0.879999,1.199998 -2.360002,1.8 -4.46,1.8 l -2.34,0 0,-10.92" />
    <path
       inkscape:connector-curvature="0"
       style="font-size:20px;fill:#b0b0b0"
       id="path4252"
       d="m 28.512221,37.882163 c 0.399999,-0.84 0.94,-1.520001 1.66,-2 0.719999,-0.48 1.540001,-0.72 2.44,-0.72 0.899999,0 1.72,0.24 2.44,0.72 0.719999,0.479999 1.26,1.14 1.66,2 0.399999,0.859999 0.6,1.800001 0.6,2.88 0,1.079998 -0.200001,2.04 -0.6,2.88 -0.4,0.839999 -0.940001,1.52 -1.66,2 -0.72,0.479999 -1.540001,0.72 -2.44,0.72 -0.899999,0 -1.720001,-0.240001 -2.44,-0.72 -0.72,-0.48 -1.260001,-1.160001 -1.66,-2 -0.4,-0.84 -0.6,-1.800002 -0.6,-2.88 0,-1.079999 0.2,-2.040001 0.6,-2.88 m -2.48,2.88 c 0,1.399998 0.26,2.660001 0.8,3.72 0.539999,1.059998 1.300001,1.9 2.3,2.48 0.999999,0.579999 2.160001,0.88 3.48,0.88 1.319998,0 2.460001,-0.300001 3.46,-0.88 0.999999,-0.58 1.76,-1.420002 2.3,-2.48 0.539999,-1.059999 0.82,-2.320002 0.82,-3.72 0,-1.399999 -0.280001,-2.640002 -0.82,-3.72 -0.54,-1.079999 -1.300001,-1.900001 -2.3,-2.48 -0.999999,-0.58 -2.140002,-0.88 -3.46,-0.88 -1.319999,0 -2.480001,0.3 -3.48,0.88 -0.999999,0.579999 -1.760001,1.400001 -2.3,2.48 -0.54,1.079998 -0.8,2.320001 -0.8,3.72" />
    <path
       inkscape:connector-curvature="0"
       style="font-size:20px;fill:#b0b0b0"
       id="path4254"
       d="m 45.103158,34.002163 c -0.679999,0.219999 -1.26,0.52 -1.72,0.88 -0.459999,0.359999 -0.8,0.8 -1.06,1.28 -0.26,0.479999 -0.4,1.02 -0.4,1.58 0,0.559999 0.14,1.08 0.42,1.52 0.28,0.439999 0.640001,0.8 1.08,1.06 0.44,0.259999 0.920001,0.48 1.46,0.68 0.54,0.199999 1.040001,0.38 1.58,0.56 0.54,0.179999 1.040001,0.36 1.48,0.56 0.979999,0.439999 1.48,1.08 1.48,1.92 0,0.659999 -0.32,1.2 -0.94,1.6 -0.619999,0.399999 -1.420001,0.6 -2.38,0.6 -0.959999,0 -2.260001,-0.320001 -3.88,-0.92 l -0.58,1.62 c 0.779999,0.299999 1.500001,0.54 2.14,0.7 0.64,0.159999 1.320001,0.22 2.08,0.22 0.759999,0 1.440001,-0.08 2.06,-0.24 1.119999,-0.32 1.960001,-0.860001 2.54,-1.62 0.5,-0.68 0.76,-1.420001 0.76,-2.2 0,-1.059999 -0.380001,-1.880001 -1.16,-2.46 -0.359999,-0.26 -0.76,-0.520001 -1.2,-0.74 -0.439999,-0.22 -1.040001,-0.440001 -1.78,-0.66 -0.739999,-0.22 -1.480001,-0.520001 -2.18,-0.88 -0.779999,-0.4 -1.16,-0.940001 -1.16,-1.64 0,-0.64 0.340001,-1.180001 1,-1.58 0.659999,-0.4 1.440001,-0.6 2.36,-0.6 0.919999,0 1.940001,0.16 3.12,0.5 l 0.54,-1.5 c -1.239999,-0.38 -2.300001,-0.56 -3.24,-0.56 -0.939999,0 -1.740001,0.1 -2.42,0.32" />
    <path
       inkscape:connector-curvature="0"
       style="font-size:20px;fill:#b0b0b0"
       id="path4256"
       d="m 55.895346,35.082163 2.66,0 c 0.459999,0 0.86,0.04 1.2,0.14 1.059999,0.299999 1.58,0.960001 1.58,2 0,1.579998 -1.220003,2.4 -3.68,2.46 l -1.76,0.06 0,-4.66 m 0,5.94 2.42,-0.12 c 1.239998,-0.06 2.26,0.14 3,0.64 0.739999,0.499999 1.12,1.18 1.12,2.1 0,0.679999 -0.200001,1.24 -0.62,1.66 -0.18,0.179999 -0.400001,0.34 -0.68,0.46 -0.28,0.119999 -0.520001,0.2 -0.74,0.26 -0.22,0.06 -0.460001,0.1 -0.76,0.14 -0.3,0.04 -0.520001,0.06 -0.68,0.06 l -0.54,0 -2.52,0 0,-5.2 m -1.66,-7.22 0,13.88 4.5,0 c 1.739998,0 3.080001,-0.420001 4.02,-1.26 0.879999,-0.8 1.32,-1.780002 1.32,-2.94 0,-0.86 -0.260001,-1.620001 -0.82,-2.3 -0.56,-0.68 -1.260001,-1.100001 -2.12,-1.26 0.419999,-0.16 0.84,-0.520001 1.22,-1.08 0.379999,-0.56 0.58,-1.140001 0.58,-1.7 0,-0.88 -0.280001,-1.620001 -0.86,-2.24 -0.68,-0.72 -1.660002,-1.1 -2.96,-1.1 l -4.88,0" />
    <path
       inkscape:connector-curvature="0"
       style="font-size:20px;fill:#b0b0b0"
       id="path4258"
       d="m 68.491596,40.182163 c 0.539999,-0.68 1.260001,-1.02 2.16,-1.02 0.899999,0 1.64,0.34 2.18,1.02 0.539999,0.679999 0.8,1.580001 0.8,2.7 0,1.119998 -0.260001,2.02 -0.8,2.7 -0.54,0.679999 -1.280001,1 -2.18,1 -0.899999,0 -1.620001,-0.320001 -2.16,-1 -0.54,-0.68 -0.82,-1.580002 -0.82,-2.7 0,-1.119999 0.28,-2.020001 0.82,-2.7 m -1.26,6.36 c 0.819999,0.879999 1.940001,1.34 3.38,1.34 1.439998,0 2.6,-0.460001 3.44,-1.36 0.839999,-0.9 1.24,-2.120002 1.24,-3.66 0,-1.539999 -0.400001,-2.780001 -1.22,-3.66 -0.82,-0.88 -1.960002,-1.32 -3.4,-1.32 -1.439999,0 -2.580001,0.44 -3.42,1.34 -0.84,0.899999 -1.24,2.100001 -1.24,3.66 0,1.559998 0.4,2.78 1.22,3.66" />
    <path
       inkscape:connector-curvature="0"
       style="font-size:20px;fill:#b0b0b0"
       id="path4260"
       d="m 84.298783,38.042163 -2.62,3.82 -2.72,-3.82 -1.86,0 3.5,4.9 -3.38,4.74 1.7,0 2.46,-3.62 2.58,3.62 1.86,0 -3.36,-4.72 3.56,-4.92 -1.72,0" />
  </g>
</svg>
