<?xml version="1.0" encoding="UTF-8" standalone="no"?>
<!-- Created with Inkscape (http://www.inkscape.org/) -->

<svg
   xmlns:dc="http://purl.org/dc/elements/1.1/"
   xmlns:cc="http://creativecommons.org/ns#"
   xmlns:rdf="http://www.w3.org/1999/02/22-rdf-syntax-ns#"
   xmlns:svg="http://www.w3.org/2000/svg"
   xmlns="http://www.w3.org/2000/svg"
   xmlns:xlink="http://www.w3.org/1999/xlink"
   xmlns:sodipodi="http://sodipodi.sourceforge.net/DTD/sodipodi-0.dtd"
   xmlns:inkscape="http://www.inkscape.org/namespaces/inkscape"
   version="1.0"
   width="96"
   height="96"
   id="svg2408"
   inkscape:version="0.48.4 r9939"
   sodipodi:docname="ksysguard.svg">
  <sodipodi:namedview
     pagecolor="#ffffff"
     bordercolor="#666666"
     borderopacity="1"
     objecttolerance="10"
     gridtolerance="10"
     guidetolerance="10"
     inkscape:pageopacity="0"
     inkscape:pageshadow="2"
     inkscape:window-width="1680"
     inkscape:window-height="991"
     id="namedview68"
     showgrid="false"
     inkscape:zoom="6.0923484"
     inkscape:cx="42.700358"
     inkscape:cy="56.97012"
     inkscape:window-x="-2"
     inkscape:window-y="-3"
     inkscape:window-maximized="1"
     inkscape:current-layer="svg2408" />
  <defs
     id="defs2410">
    <linearGradient
       id="linearGradient3224">
      <stop
         id="stop3226"
         style="stop-color:#42394b;stop-opacity:1"
         offset="0" />
      <stop
         id="stop3228"
         style="stop-color:#000000;stop-opacity:1"
         offset="1" />
    </linearGradient>
    <linearGradient
       id="linearGradient3465">
      <stop
         id="stop3467"
         style="stop-color:#919191;stop-opacity:1"
         offset="0" />
      <stop
         id="stop3469"
         style="stop-color:#fdfdfd;stop-opacity:1"
         offset="1" />
    </linearGradient>
    <linearGradient
       id="linearGradient3187">
      <stop
         id="stop3189"
         style="stop-color:#b4b4b4;stop-opacity:1"
         offset="0" />
      <stop
         id="stop3191"
         style="stop-color:#e6e6e6;stop-opacity:1"
         offset="1" />
    </linearGradient>
    <linearGradient
       x1="45.447727"
       y1="92.539597"
       x2="45.447727"
       y2="7.0165396"
       id="ButtonShadow"
       gradientUnits="userSpaceOnUse"
       gradientTransform="scale(1.0058652,0.994169)">
      <stop
         id="stop3750"
         style="stop-color:#000000;stop-opacity:1"
         offset="0" />
      <stop
         id="stop3752"
         style="stop-color:#000000;stop-opacity:0.58823532"
         offset="1" />
    </linearGradient>
    <linearGradient
       id="linearGradient3737">
      <stop
         id="stop3739"
         style="stop-color:#ffffff;stop-opacity:1"
         offset="0" />
      <stop
         id="stop3741"
         style="stop-color:#ffffff;stop-opacity:0"
         offset="1" />
    </linearGradient>
    <filter
       color-interpolation-filters="sRGB"
       id="filter3174">
      <feGaussianBlur
         id="feGaussianBlur3176"
         stdDeviation="1.71" />
    </filter>
    <linearGradient
       x1="36.357143"
       y1="6"
       x2="36.357143"
       y2="63.893143"
       id="linearGradient3188"
       xlink:href="#linearGradient3737"
       gradientUnits="userSpaceOnUse" />
    <linearGradient
       x1="48"
       y1="90"
       x2="48"
       y2="5.9877172"
       id="linearGradient3427"
       xlink:href="#linearGradient3187"
       gradientUnits="userSpaceOnUse" />
    <radialGradient
       cx="47.098362"
       cy="78.286942"
       r="38.957481"
       fx="47.098362"
       fy="78.286942"
       id="radialGradient3205"
       xlink:href="#linearGradient3224"
       gradientUnits="userSpaceOnUse"
       gradientTransform="matrix(1.3830053,-1.0350102e-8,0,1.3123934,-18.038924,-24.218731)" />
    <linearGradient
       x1="43.17857"
       y1="13"
       x2="43.17857"
       y2="83.294571"
       id="linearGradient3279"
       xlink:href="#linearGradient3465"
       gradientUnits="userSpaceOnUse"
       gradientTransform="matrix(1.0294118,0,0,1.0294118,-1.4117647,-1.411765)" />
    <linearGradient
       id="linearGradient3737-7">
      <stop
         id="stop3739-2"
         style="stop-color:#ffffff;stop-opacity:1"
         offset="0" />
      <stop
         id="stop3741-7"
         style="stop-color:#ffffff;stop-opacity:0"
         offset="1" />
    </linearGradient>
    <radialGradient
       cx="48"
       cy="90.171875"
       r="42"
       fx="48"
       fy="90.171875"
       id="radialGradient2874"
       xlink:href="#linearGradient3737-7"
       gradientUnits="userSpaceOnUse"
       gradientTransform="matrix(1.1573129,0,0,0.99590774,-7.551021,0.1971319)" />
    <linearGradient
       id="linearGradient3737-4">
      <stop
         id="stop3739-8"
         style="stop-color:#ffffff;stop-opacity:1"
         offset="0" />
      <stop
         id="stop3741-71"
         style="stop-color:#ffffff;stop-opacity:0"
         offset="1" />
    </linearGradient>
    <clipPath
       id="clipPath3613">
      <rect
         width="84"
         height="84"
         rx="6"
         ry="6"
         x="6"
         y="6"
         id="rect3615"
         style="fill:#ffffff;fill-opacity:1;fill-rule:nonzero;stroke:none" />
    </clipPath>
    <filter
       x="-0.192"
       y="-0.192"
       width="1.3839999"
       height="1.3839999"
       color-interpolation-filters="sRGB"
       id="filter3794">
      <feGaussianBlur
         id="feGaussianBlur3796"
         stdDeviation="5.28" />
    </filter>
    <linearGradient
       x1="48"
       y1="20.220806"
       x2="48"
       y2="138.66119"
       id="linearGradient2908"
       xlink:href="#linearGradient3737-4"
       gradientUnits="userSpaceOnUse" />
    <linearGradient
       x1="45.447727"
       y1="92.539597"
       x2="45.447727"
       y2="7.0165396"
       id="ButtonShadow-0"
       gradientUnits="userSpaceOnUse"
       gradientTransform="matrix(1.0058652,0,0,0.994169,100,0)">
      <stop
         id="stop3750-8"
         style="stop-color:#000000;stop-opacity:1"
         offset="0" />
      <stop
         id="stop3752-5"
         style="stop-color:#000000;stop-opacity:0.58823532"
         offset="1" />
    </linearGradient>
    <linearGradient
       x1="32.251034"
       y1="6.1317081"
       x2="32.251034"
       y2="90.238609"
       id="linearGradient3780"
       xlink:href="#ButtonShadow-0"
       gradientUnits="userSpaceOnUse"
       gradientTransform="matrix(1.0238095,0,0,1.0119048,-1.1428571,-98.071429)" />
    <linearGradient
       x1="32.251034"
       y1="6.1317081"
       x2="32.251034"
       y2="90.238609"
       id="linearGradient3772"
       xlink:href="#ButtonShadow-0"
       gradientUnits="userSpaceOnUse"
       gradientTransform="matrix(1.0238095,0,0,1.0119048,-1.1428571,-98.071429)" />
    <linearGradient
       x1="32.251034"
       y1="6.1317081"
       x2="32.251034"
       y2="90.238609"
       id="linearGradient3725"
       xlink:href="#ButtonShadow-0"
       gradientUnits="userSpaceOnUse"
       gradientTransform="matrix(1.0238095,0,0,1.0119048,-1.1428571,-98.071429)" />
    <linearGradient
       x1="32.251034"
       y1="6.1317081"
       x2="32.251034"
       y2="90.238609"
       id="linearGradient3721"
       xlink:href="#ButtonShadow-0"
       gradientUnits="userSpaceOnUse"
       gradientTransform="translate(0,-97)" />
    <linearGradient
       x1="32.251034"
       y1="6.1317081"
       x2="32.251034"
       y2="90.238609"
       id="linearGradient3224-3"
       xlink:href="#ButtonShadow-0"
       gradientUnits="userSpaceOnUse"
       gradientTransform="matrix(1.0238095,0,0,1.0119048,-1.1428571,-98.071429)" />
    <linearGradient
       x1="15.593941"
       y1="61.447784"
       x2="111.61377"
       y2="61.447784"
       id="linearGradient3810"
       xlink:href="#linearGradient5852"
       gradientUnits="userSpaceOnUse"
       gradientTransform="matrix(0.7031498,0,0,0.699561,3.1971487,4.047236)"
       spreadMethod="reflect" />
    <linearGradient
       id="linearGradient5852">
      <stop
         id="stop5854"
         style="stop-color:#f3cb20;stop-opacity:0"
         offset="0" />
      <stop
         id="stop5856"
         style="stop-color:#f3cb20;stop-opacity:1"
         offset="0.22019713" />
      <stop
         id="stop5862"
         style="stop-color:#f3cb20;stop-opacity:1"
         offset="0.56106508" />
      <stop
         id="stop5858"
         style="stop-color:#f3cb20;stop-opacity:0"
         offset="1" />
    </linearGradient>
    <linearGradient
       x1="15.593941"
       y1="61.447784"
       x2="111.61377"
       y2="61.447784"
       id="linearGradient3810-1"
       xlink:href="#linearGradient5852-4"
       gradientUnits="userSpaceOnUse"
       gradientTransform="matrix(0.7031498,0,0,0.699561,3.1971487,4.047236)"
       spreadMethod="reflect" />
    <linearGradient
       id="linearGradient5852-4">
      <stop
         id="stop5854-5"
         style="stop-color:#f3cb20;stop-opacity:0"
         offset="0" />
      <stop
         id="stop5856-3"
         style="stop-color:#f3cb20;stop-opacity:1"
         offset="0.22019713" />
      <stop
         id="stop5862-3"
         style="stop-color:#f3cb20;stop-opacity:1"
         offset="0.56106508" />
      <stop
         id="stop5858-2"
         style="stop-color:#f3cb20;stop-opacity:0"
         offset="1" />
    </linearGradient>
  </defs>
  <metadata
     id="metadata2413">
    <rdf:RDF>
      <cc:Work
         rdf:about="">
        <dc:format>image/svg+xml</dc:format>
        <dc:type
           rdf:resource="http://purl.org/dc/dcmitype/StillImage" />
        <dc:title></dc:title>
      </cc:Work>
    </rdf:RDF>
  </metadata>
  <g
     id="layer2"
     style="display:none">
    <rect
       width="86"
       height="85"
       rx="6"
       ry="6"
       x="5"
       y="7"
       id="rect3745"
       style="opacity:0.9;fill:url(#ButtonShadow);fill-opacity:1;fill-rule:nonzero;stroke:none;filter:url(#filter3174)" />
  </g>
  <g
     id="layer3">
    <path
       d="m 19,13 c -3.289406,0 -6,2.710594 -6,6 l 0,58 c 0,3.289406 2.710594,6 6,6 l 58,0 c 3.289406,0 6,-2.710594 6,-6 l 0,-58 c 0,-3.289406 -2.710594,-6 -6,-6 l -58,0 z m 0,4 58,0 c 1.142594,0 2,0.857406 2,2 l 0,58 c 0,1.142594 -0.857406,2 -2,2 l -58,0 c -1.142594,0 -2,-0.857406 -2,-2 l 0,-58 c 0,-1.142594 0.857406,-2 2,-2 z"
       inkscape:connector-curvature="0"
       id="rect3222-3"
       style="font-size:medium;font-style:normal;font-variant:normal;font-weight:normal;font-stretch:normal;text-indent:0;text-align:start;text-decoration:none;line-height:normal;letter-spacing:normal;word-spacing:normal;text-transform:none;direction:ltr;block-progression:tb;writing-mode:lr-tb;text-anchor:start;opacity:0.15;color:#000000;fill:#000000;fill-opacity:1;stroke:none;stroke-width:4;marker:none;visibility:visible;display:inline;overflow:visible;enable-background:accumulate;font-family:Abandoned Bitplane;-inkscape-font-specification:Abandoned Bitplane" />
    <path
       d="m 17,14 c -1.662,0 -3,1.338 -3,3 l 0,62 c 0,1.662 1.338,3 3,3 l 62,0 c 1.662,0 3,-1.338 3,-3 l 0,-62 c 0,-1.662 -1.338,-3 -3,-3 l -62,0 z m 0,1.9375 62,0 c 0.618163,0 1.0625,0.444337 1.0625,1.0625 l 0,62 c 0,0.618163 -0.444337,1.0625 -1.0625,1.0625 l -62,0 c -0.618163,0 -1.0625,-0.444337 -1.0625,-1.0625 l 0,-62 c 0,-0.618163 0.444337,-1.0625 1.0625,-1.0625 z"
       inkscape:connector-curvature="0"
       id="rect3981"
       style="opacity:0.3;color:#000000;fill:#000000;fill-opacity:1;fill-rule:nonzero;stroke:none;stroke-width:1;marker:none;visibility:visible;display:inline;overflow:visible;enable-background:accumulate" />
    <path
       d="m 17,14 c -1.662,0 -3,1.338 -3,3 l 0,62 c 0,1.662 1.338,3 3,3 l 62,0 c 1.662,0 3,-1.338 3,-3 l 0,-62 c 0,-1.662 -1.338,-3 -3,-3 l -62,0 z m 0,0.96875 62,0 c 1.140081,0 2.03125,0.891169 2.03125,2.03125 l 0,62 c 0,1.140081 -0.891169,2.03125 -2.03125,2.03125 l -62,0 c -1.140081,0 -2.03125,-0.891169 -2.03125,-2.03125 l 0,-62 c 0,-1.140081 0.891169,-2.03125 2.03125,-2.03125 z"
       inkscape:connector-curvature="0"
       id="rect3977"
       style="opacity:0.6;color:#000000;fill:#000000;fill-opacity:1;fill-rule:nonzero;stroke:none;stroke-width:1;marker:none;visibility:visible;display:inline;overflow:visible;enable-background:accumulate" />
  </g>
  <rect
     style="fill:#d35f5f;fill-opacity:1;fill-rule:evenodd;stroke:none"
     id="rect3060"
     width="83.638985"
     height="83.309753"
     x="6.1385145"
     y="6.0985861"
     rx="6.6406922"
     ry="0" />
  <g
     id="layer1"
     style="display:inline;fill:#ddc529;fill-opacity:1">
    <path
       d="m 17,12 c -2.752703,0 -5,2.247297 -5,5 l 0,62 c 0,2.752703 2.247298,5 5,5 l 62,0 c 2.752703,0 5.000001,-2.247297 5,-5 l 0,-62 c 0,-2.752703 -2.247297,-5 -5,-5 l -62,0 z m 0,2 62,0 c 1.679298,0 3,1.320703 3,3 l 0,62 c 10e-7,1.679297 -1.320703,3 -3,3 l -62,0 c -1.679296,0 -3,-1.320703 -3,-3 l 0,-62 c 0,-1.679297 1.320703,-3 3,-3 z"
       inkscape:connector-curvature="0"
       id="rect3425"
       style="fill:#ddc529;fill-opacity:1;fill-rule:nonzero;stroke:none" />
  </g>
  <path
     d="m 51.332684,27.709693 c -0.247222,0.03769 -0.463738,0.290433 -0.510832,0.596302 l -0.544886,3.450035 c -8.1e-5,0.0071 -8.1e-5,0.01419 0,0.0213 l -2.281714,16.249241 -7.492194,0 c -0.312429,-0.0018 -0.597366,0.354625 -0.595972,0.745378 l 0,1.362975 c -0.0013,0.390754 0.283543,0.747124 0.595972,0.74538 l 8.905494,0 c 0.275335,-0.0035 0.532769,-0.278098 0.578943,-0.6176 l 1.362216,-9.732506 2.247659,17.335362 0.52786,3.705594 c 0.05844,0.325869 0.311916,0.579654 0.578941,0.579654 0.267025,0 0.520499,-0.253785 0.578943,-0.579654 l 0.544887,-3.705594 c 8.2e-5,-0.0071 8.2e-5,-0.01419 0,-0.0213 l 1.140858,-9.64732 3.64393,0 c 0.247423,-9.71e-4 0.484909,-0.217033 0.561915,-0.511118 l 1.4133,6.346362 c 0.126012,0.579026 0.898171,0.66817 1.106801,0.127779 l 1.277079,-3.343553 16.789328,0 c 0.312428,0.0018 0.597365,-0.354626 0.59597,-0.745378 l 0,-1.362976 c 0.0013,-0.390752 -0.283542,-0.747122 -0.59597,-0.745379 l -17.845046,0 c -0.09451,7.47e-4 -0.188788,0.0302 -0.272444,0.08518 L 61.87284,40.082961 c -0.06263,-0.31025 -0.301835,-0.550522 -0.557569,-0.56007 -0.255734,-0.0095 -0.505966,0.212452 -0.583287,0.517476 l -1.345191,5.302833 -3.86529,0 c -0.280193,0.005 -0.540011,0.291822 -0.578943,0.638896 l -0.289471,2.385209 -2.145493,-16.568689 c 8.1e-5,-0.0071 8.1e-5,-0.01419 0,-0.0213 L 51.979737,28.30599 c -0.05607,-0.361378 -0.354471,-0.636375 -0.647053,-0.596302 z"
     id="path3808-8"
     style="fill:#ddc529;fill-opacity:1;fill-rule:evenodd;stroke:none;display:inline"
     inkscape:connector-curvature="0"
     sodipodi:nodetypes="ccccccccccccccsccccccccccccccccsccccccccc" />
  <path
     sodipodi:type="star"
     style="color:#000000;fill:#ddc529;fill-opacity:1;fill-rule:nonzero;stroke:none;stroke-width:0.5;marker:none;visibility:visible;display:inline;overflow:visible;enable-background:accumulate"
     id="path3054"
     sodipodi:sides="3"
     sodipodi:cx="11.835222"
     sodipodi:cy="41.486252"
     sodipodi:r1="19.700087"
     sodipodi:r2="9.639123"
     sodipodi:arg1="0.96007036"
     sodipodi:arg2="2.0027944"
     inkscape:flatsided="false"
     inkscape:rounded="0"
     inkscape:randomized="0"
     d="M 23.13248,57.625192 7.799455,50.239838 -7.7901385,43.200494 6.2722777,33.614382 20.163325,23.63307 21.433934,40.604536 z"
     inkscape:transform-center-x="0.55629844"
     inkscape:transform-center-y="-0.60637915"
     transform="matrix(0.82917629,0.08681657,-0.06891711,1.0445337,23.382224,4.5528333)" />
  <rect
     style="color:#000000;fill:#ddc529;fill-opacity:1;fill-rule:nonzero;stroke:none;stroke-width:0.5;marker:none;visibility:visible;display:inline;overflow:visible;enable-background:accumulate"
     id="rect3056"
     width="10.44413"
     height="16.163984"
     x="13.873067"
     y="40.833908"
     rx="0.79421556"
     ry="0.7804299" />
  <rect
     style="color:#000000;fill:#ddc529;fill-opacity:1;fill-rule:nonzero;stroke:none;stroke-width:0.5;marker:none;visibility:visible;display:inline;overflow:visible;enable-background:accumulate"
     id="rect3066"
     width="8.207016"
     height="2.2979646"
     x="43.333046"
     y="65.305756"
     rx="1.5671871" />
  <rect
     rx="1.5671871"
     y="69.305756"
     x="43.333046"
     height="2.2979646"
     width="8.207016"
     id="rect3068"
     style="color:#000000;fill:#ddc529;fill-opacity:1;fill-rule:nonzero;stroke:none;stroke-width:0.5;marker:none;visibility:visible;display:inline;overflow:visible;enable-background:accumulate" />
  <rect
     style="color:#000000;fill:#ddc529;fill-opacity:1;fill-rule:nonzero;stroke:none;stroke-width:0.5;marker:none;visibility:visible;display:inline;overflow:visible;enable-background:accumulate"
     id="rect3070"
     width="8.207016"
     height="2.2979646"
     x="43.333046"
     y="73.305756"
     rx="1.5671871" />
  <rect
     rx="1.5671871"
     y="77.305756"
     x="43.333046"
     height="2.2979646"
     width="8.207016"
     id="rect3072"
     style="color:#000000;fill:#ddc529;fill-opacity:1;fill-rule:nonzero;stroke:none;stroke-width:0.5;marker:none;visibility:visible;display:inline;overflow:visible;enable-background:accumulate" />
  <rect
     rx="1.5671871"
     y="73.305756"
     x="55.333046"
     height="2.2979646"
     width="8.207016"
     id="rect3078"
     style="color:#000000;fill:#ddc529;fill-opacity:1;fill-rule:nonzero;stroke:none;stroke-width:0.5;marker:none;visibility:visible;display:inline;overflow:visible;enable-background:accumulate" />
  <rect
     style="color:#000000;fill:#ddc529;fill-opacity:1;fill-rule:nonzero;stroke:none;stroke-width:0.5;marker:none;visibility:visible;display:inline;overflow:visible;enable-background:accumulate"
     id="rect3080"
     width="8.207016"
     height="2.2979646"
     x="55.333046"
     y="77.305756"
     rx="1.5671871" />
  <rect
     style="color:#000000;fill:#ddc529;fill-opacity:1;fill-rule:nonzero;stroke:none;stroke-width:0.5;marker:none;visibility:visible;display:inline;overflow:visible;enable-background:accumulate"
     id="rect3084"
     width="8.207016"
     height="2.2979646"
     x="67.333046"
     y="69.305756"
     rx="1.5671871" />
  <rect
     rx="1.5671871"
     y="73.305756"
     x="67.333046"
     height="2.2979646"
     width="8.207016"
     id="rect3086"
     style="color:#000000;fill:#ddc529;fill-opacity:1;fill-rule:nonzero;stroke:none;stroke-width:0.5;marker:none;visibility:visible;display:inline;overflow:visible;enable-background:accumulate" />
  <rect
     style="color:#000000;fill:#ddc529;fill-opacity:1;fill-rule:nonzero;stroke:none;stroke-width:0.5;marker:none;visibility:visible;display:inline;overflow:visible;enable-background:accumulate"
     id="rect3088"
     width="8.207016"
     height="2.2979646"
     x="67.333046"
     y="77.305756"
     rx="1.5671871" />
</svg>
