<?xml version="1.0" encoding="UTF-8" standalone="no"?>
<!-- Created with Inkscape (http://www.inkscape.org/) -->

<svg
   xmlns:dc="http://purl.org/dc/elements/1.1/"
   xmlns:cc="http://creativecommons.org/ns#"
   xmlns:rdf="http://www.w3.org/1999/02/22-rdf-syntax-ns#"
   xmlns:svg="http://www.w3.org/2000/svg"
   xmlns="http://www.w3.org/2000/svg"
   xmlns:xlink="http://www.w3.org/1999/xlink"
   xmlns:sodipodi="http://sodipodi.sourceforge.net/DTD/sodipodi-0.dtd"
   xmlns:inkscape="http://www.inkscape.org/namespaces/inkscape"
   version="1.0"
   width="96"
   height="96"
   id="svg2408"
   inkscape:version="0.48.4 r9939"
   sodipodi:docname="filezilla.svg">
  <sodipodi:namedview
     pagecolor="#ffffff"
     bordercolor="#666666"
     borderopacity="1"
     objecttolerance="10"
     gridtolerance="10"
     guidetolerance="10"
     inkscape:pageopacity="0"
     inkscape:pageshadow="2"
     inkscape:window-width="1680"
     inkscape:window-height="991"
     id="namedview52"
     showgrid="false"
     inkscape:zoom="7.0631493"
     inkscape:cx="44.896417"
     inkscape:cy="45.853901"
     inkscape:window-x="0"
     inkscape:window-y="-3"
     inkscape:window-maximized="1"
     inkscape:current-layer="svg2408" />
  <defs
     id="defs2410">
    <linearGradient
       x1="58.650177"
       y1="122"
       x2="58.650177"
       y2="5.4252338"
       id="ButtonColor"
       gradientUnits="userSpaceOnUse">
      <stop
         id="stop3189"
         style="stop-color:#a00000;stop-opacity:1"
         offset="0" />
      <stop
         id="stop3191"
         style="stop-color:#ff0505;stop-opacity:1"
         offset="1" />
    </linearGradient>
    <linearGradient
       x1="45.447727"
       y1="92.539597"
       x2="45.447727"
       y2="7.0165396"
       id="ButtonShadow"
       gradientUnits="userSpaceOnUse"
       gradientTransform="scale(1.0058652,0.994169)">
      <stop
         id="stop3750"
         style="stop-color:#000000;stop-opacity:1"
         offset="0" />
      <stop
         id="stop3752"
         style="stop-color:#000000;stop-opacity:0.58823532"
         offset="1" />
    </linearGradient>
    <linearGradient
       id="linearGradient3737">
      <stop
         id="stop3739"
         style="stop-color:#ffffff;stop-opacity:1"
         offset="0" />
      <stop
         id="stop3741"
         style="stop-color:#ffffff;stop-opacity:0"
         offset="1" />
    </linearGradient>
    <filter
       color-interpolation-filters="sRGB"
       id="filter3174">
      <feGaussianBlur
         id="feGaussianBlur3176"
         stdDeviation="1.71" />
    </filter>
    <linearGradient
       x1="31.714285"
       y1="6"
       x2="31.714285"
       y2="74.09301"
       id="linearGradient3434"
       xlink:href="#linearGradient3737"
       gradientUnits="userSpaceOnUse" />
    <linearGradient
       x1="48"
       y1="90"
       x2="48"
       y2="5.9877172"
       id="linearGradient3441"
       xlink:href="#ButtonColor"
       gradientUnits="userSpaceOnUse" />
    <linearGradient
       id="linearGradient3737-0">
      <stop
         id="stop3739-3"
         style="stop-color:#fdff98;stop-opacity:1"
         offset="0" />
      <stop
         id="stop3741-0"
         style="stop-color:#ffffff;stop-opacity:0"
         offset="1" />
    </linearGradient>
    <filter
       x="-0.192"
       y="-0.192"
       width="1.3839999"
       height="1.3839999"
       color-interpolation-filters="sRGB"
       id="filter3794">
      <feGaussianBlur
         id="feGaussianBlur3796"
         stdDeviation="5.28" />
    </filter>
    <linearGradient
       x1="48"
       y1="20.220806"
       x2="48"
       y2="138.66119"
       id="linearGradient2885"
       xlink:href="#linearGradient3737-0"
       gradientUnits="userSpaceOnUse" />
    <clipPath
       id="clipPath2880">
      <path
         d="M 12,6 C 8.8423036,6 6.2807978,8.4087223 6.03125,11.5 8.5006537,11.517094 10.5,13.526594 10.5,16 c 0,2.484001 -2.016,4.5 -4.5,4.5 l 0,7 c 2.484,0 4.5,2.016 4.5,4.5 0,2.484001 -2.016,4.5 -4.5,4.5 l 0,7 c 2.484,0 4.5,2.016 4.5,4.5 0,2.484001 -2.016,4.5 -4.5,4.5 l 0,7 c 2.484,0 4.5,2.016 4.5,4.5 0,2.484001 -2.016,4.5 -4.5,4.5 l 0,7 c 2.484,-4e-6 4.5,2.016 4.5,4.5 0,2.473403 -1.9993463,4.482906 -4.46875,4.5 C 6.2807978,87.591278 8.8423036,90 12,90 c 0,-2.484 2.016,-4.5 4.5,-4.5 2.484001,0 4.5,2.016 4.5,4.5 l 7,0 c 0,-2.484 2.016,-4.5 4.5,-4.5 2.484001,0 4.5,2.016 4.5,4.5 l 7,0 c 0,-2.484 2.016,-4.5 4.5,-4.5 2.484001,0 4.5,2.016 4.5,4.5 l 7,0 c 0,-2.484 2.016,-4.5 4.5,-4.5 2.484001,0 4.5,2.016 4.5,4.5 l 7,0 c -4e-6,-2.484 2.016,-4.5 4.5,-4.5 2.452216,0 4.449324,1.966103 4.5,4.40625 C 87.688537,89.461133 89.746004,87.259273 89.96875,84.5 87.499346,84.482903 85.5,82.473406 85.5,80 c 0,-2.484004 2.016,-4.5 4.5,-4.5 l 0,-7 c -2.484,10e-7 -4.5,-2.016 -4.5,-4.5 0,-2.484 2.016,-4.5 4.5,-4.5 l 0,-7 c -2.484,10e-7 -4.5,-2.016 -4.5,-4.5 0,-2.484 2.016,-4.5 4.5,-4.5 l 0,-7 c -2.484,10e-7 -4.5,-2.016 -4.5,-4.5 0,-2.484 2.016,-4.5 4.5,-4.5 l 0,-7 c -2.484,1e-6 -4.5,-2.016 -4.5,-4.5 0,-2.473406 1.999346,-4.482906 4.46875,-4.5 C 89.746004,8.7407268 87.688537,6.538867 85,6.09375 84.949321,8.5338976 82.952219,10.5 80.5,10.5 78.015996,10.5 76,8.4840001 76,6 l -7,0 c 10e-7,2.4840004 -2.016,4.5 -4.5,4.5 C 62.016,10.5 60,8.4840001 60,6 l -7,0 c 10e-7,2.4840004 -2.016,4.5 -4.5,4.5 C 46.016,10.5 44,8.4840001 44,6 l -7,0 c 10e-7,2.4840004 -2.016,4.5 -4.5,4.5 C 30.016,10.5 28,8.4840001 28,6 l -7,0 c 1e-6,2.4840004 -2.016,4.5 -4.5,4.5 C 14.016,10.5 12,8.4840001 12,6 z"
         inkscape:connector-curvature="0"
         id="path2882"
         style="fill:#ffffff;fill-opacity:1;fill-rule:nonzero;stroke:none" />
    </clipPath>
    <radialGradient
       cx="47.967342"
       cy="89.688721"
       r="42"
       fx="47.967342"
       fy="89.688721"
       id="radialGradient3684"
       xlink:href="#linearGradient3737"
       gradientUnits="userSpaceOnUse"
       gradientTransform="matrix(1.3341109,0,0,0.95758929,-16.026413,2.1112584)" />
    <linearGradient
       x1="40.716122"
       y1="91.15094"
       x2="40.716122"
       y2="7.2913489"
       id="linearGradient3643"
       xlink:href="#ButtonShadow"
       gradientUnits="userSpaceOnUse" />
    <linearGradient
       x1="40.716122"
       y1="91.15094"
       x2="40.716122"
       y2="7.2913489"
       id="linearGradient3652"
       xlink:href="#ButtonShadow"
       gradientUnits="userSpaceOnUse"
       gradientTransform="matrix(1.0238095,0,0,1.0119048,-1.142857,-0.08333333)" />
    <linearGradient
       x1="40.716122"
       y1="91.15094"
       x2="40.716122"
       y2="7.2913489"
       id="linearGradient3660"
       xlink:href="#ButtonShadow"
       gradientUnits="userSpaceOnUse"
       gradientTransform="matrix(1.0238095,0,0,1.0119048,-1.142857,-0.08333333)" />
    <linearGradient
       x1="40.716122"
       y1="91.15094"
       x2="40.716122"
       y2="7.2913489"
       id="linearGradient3674"
       xlink:href="#ButtonShadow"
       gradientUnits="userSpaceOnUse"
       gradientTransform="matrix(1.0238095,0,0,1.0119048,-1.142857,-0.08333333)" />
    <linearGradient
       x1="40.716122"
       y1="91.15094"
       x2="40.716122"
       y2="7.2913489"
       id="linearGradient3682"
       xlink:href="#ButtonShadow"
       gradientUnits="userSpaceOnUse"
       gradientTransform="matrix(1.0238095,0,0,1.0119048,-1.142857,-0.08333333)" />
  </defs>
  <metadata
     id="metadata2413">
    <rdf:RDF>
      <cc:Work
         rdf:about="">
        <dc:format>image/svg+xml</dc:format>
        <dc:type
           rdf:resource="http://purl.org/dc/dcmitype/StillImage" />
      </cc:Work>
    </rdf:RDF>
  </metadata>
  <g
     id="layer2"
     style="display:none">
    <path
       d="m 11,7 c -2.8840938,0 -5.2600098,2.0142918 -5.84375,4.71875 2.508553,0.0336 4.5312502,2.077266 4.53125,4.59375 0,2.53742 -2.0563306,4.59375 -4.59375,4.59375 -0.031404,0 -0.062496,6.28e-4 -0.09375,0 l 0,7.15625 c 0.031254,-6.28e-4 0.062346,0 0.09375,0 2.5374193,0 4.5937502,2.056331 4.59375,4.59375 0,2.53742 -2.0563306,4.593749 -4.59375,4.59375 -0.031404,0 -0.062496,6.28e-4 -0.09375,0 l 0,7.15625 c 0.031254,-6.28e-4 0.062346,0 0.09375,0 2.5374193,0 4.5937502,2.056331 4.59375,4.59375 0,2.53742 -2.0563306,4.593749 -4.59375,4.59375 -0.031404,0 -0.062496,6.28e-4 -0.09375,0 L 5,60.75 c 0.031254,-6.28e-4 0.062346,0 0.09375,0 2.5374193,0 4.5937502,2.056331 4.59375,4.59375 0,2.53742 -2.0563306,4.593753 -4.59375,4.59375 -0.031404,0 -0.062496,6.28e-4 -0.09375,0 l 0,7.15625 c 0.031254,-6.28e-4 0.062346,0 0.09375,0 2.5374193,-4e-6 4.5937502,2.056332 4.59375,4.59375 0,2.537416 -2.0563306,4.593753 -4.59375,4.59375 -0.031404,0 -0.062496,6.28e-4 -0.09375,0 C 5.1443858,89.475105 7.7692544,92 11,92 l 0.21875,0 c -6.28e-4,-0.03125 0,-0.06235 0,-0.09375 0,-2.53742 2.05633,-4.593748 4.59375,-4.59375 2.53742,0 4.59375,2.056327 4.59375,4.59375 0,0.0314 6.28e-4,0.0625 0,0.09375 l 7.15625,0 c -6.28e-4,-0.03125 0,-0.06235 0,-0.09375 0,-2.53742 2.056329,-4.593748 4.59375,-4.59375 2.53742,0 4.593752,2.056327 4.59375,4.59375 0,0.0314 6.28e-4,0.0625 0,0.09375 l 7.15625,0 c -6.28e-4,-0.03125 0,-0.06235 0,-0.09375 0,-2.53742 2.056329,-4.593748 4.59375,-4.59375 2.53742,0 4.593748,2.056327 4.59375,4.59375 0,0.0314 6.28e-4,0.0625 0,0.09375 L 60.25,92 c -6.28e-4,-0.03125 0,-0.06235 0,-0.09375 0,-2.53742 2.056333,-4.593748 4.59375,-4.59375 2.53742,0 4.593749,2.056327 4.59375,4.59375 0,0.0314 6.28e-4,0.0625 0,0.09375 l 7.15625,0 c -6.28e-4,-0.03125 0,-0.06235 0,-0.09375 -5e-6,-2.53742 2.056334,-4.593748 4.59375,-4.59375 2.537416,0 4.593749,2.056327 4.59375,4.59375 0,0.01047 7e-5,0.0208 0,0.03125 2.865173,-0.366463 5.086108,-2.72217 5.21875,-5.65625 -0.03125,6.28e-4 -0.06235,0 -0.09375,0 -2.53742,-3e-6 -4.593748,-2.05633 -4.59375,-4.59375 0,-2.537423 2.056327,-4.593752 4.59375,-4.59375 0.0314,0 0.0625,-6.28e-4 0.09375,0 l 0,-7.15625 c -0.03125,6.28e-4 -0.06235,0 -0.09375,0 -2.53742,10e-7 -4.593748,-2.056331 -4.59375,-4.59375 0,-2.537419 2.056327,-4.593749 4.59375,-4.59375 0.0314,0 0.0625,-6.28e-4 0.09375,0 l 0,-7.15625 c -0.03125,6.28e-4 -0.06235,0 -0.09375,0 -2.53742,10e-7 -4.593748,-2.056331 -4.59375,-4.59375 0,-2.537419 2.056327,-4.593749 4.59375,-4.59375 0.0314,0 0.0625,-6.28e-4 0.09375,0 L 91,37.25 c -0.03125,6.28e-4 -0.06235,0 -0.09375,0 -2.53742,10e-7 -4.593748,-2.056331 -4.59375,-4.59375 0,-2.537419 2.056327,-4.593749 4.59375,-4.59375 0.0314,0 0.0625,-6.28e-4 0.09375,0 l 0,-7.15625 c -0.03125,6.28e-4 -0.06235,0 -0.09375,0 -2.53742,1e-6 -4.593748,-2.056332 -4.59375,-4.59375 0,-2.516483 2.022694,-4.560154 4.53125,-4.59375 -0.537373,-2.4896403 -2.580279,-4.400576 -5.15625,-4.6875 -0.428865,2.094046 -2.279755,3.65625 -4.5,3.65625 -2.230714,0 -4.082641,-1.5787033 -4.5,-3.6875 l -7.34375,0 c -0.417358,2.1087966 -2.269287,3.6875 -4.5,3.6875 -2.23071,0 -4.082641,-1.5787033 -4.5,-3.6875 L 53,7 C 52.582641,9.1087966 50.730709,10.6875 48.5,10.6875 46.26929,10.6875 44.417359,9.1087967 44,7 l -7.34375,0 c -0.417359,2.1087966 -2.269291,3.6875 -4.5,3.6875 -2.23071,0 -4.082641,-1.5787033 -4.5,-3.6875 L 20.3125,7 c -0.417359,2.1087966 -2.269291,3.6875 -4.5,3.6875 -2.23071,0 -4.082641,-1.5787033 -4.5,-3.6875 L 11,7 z"
       inkscape:connector-curvature="0"
       id="rect3745"
       style="opacity:0.9;fill:url(#ButtonShadow);fill-opacity:1;fill-rule:nonzero;stroke:none;filter:url(#filter3174)" />
  </g>
  <g
     id="layer1">
    <path
       d="M 12,6 C 8.8423036,6 6.2807978,8.4087223 6.03125,11.5 8.5006537,11.517094 10.5,13.526594 10.5,16 c 0,2.484001 -2.016,4.5 -4.5,4.5 l 0,7 c 2.484,0 4.5,2.016 4.5,4.5 0,2.484001 -2.016,4.5 -4.5,4.5 l 0,7 c 2.484,0 4.5,2.016 4.5,4.5 0,2.484001 -2.016,4.5 -4.5,4.5 l 0,7 c 2.484,0 4.5,2.016 4.5,4.5 0,2.484001 -2.016,4.5 -4.5,4.5 l 0,7 c 2.484,-4e-6 4.5,2.016 4.5,4.5 0,2.473403 -1.9993463,4.482906 -4.46875,4.5 C 6.2807978,87.591278 8.8423036,90 12,90 c 0,-2.484 2.016,-4.5 4.5,-4.5 2.484001,0 4.5,2.016 4.5,4.5 l 7,0 c 0,-2.484 2.016,-4.5 4.5,-4.5 2.484001,0 4.5,2.016 4.5,4.5 l 7,0 c 0,-2.484 2.016,-4.5 4.5,-4.5 2.484001,0 4.5,2.016 4.5,4.5 l 7,0 c 0,-2.484 2.016,-4.5 4.5,-4.5 2.484001,0 4.5,2.016 4.5,4.5 l 7,0 c -4e-6,-2.484 2.016,-4.5 4.5,-4.5 2.452216,0 4.449324,1.966103 4.5,4.40625 C 87.688537,89.461133 89.746004,87.259273 89.96875,84.5 87.499346,84.482903 85.5,82.473406 85.5,80 c 0,-2.484004 2.016,-4.5 4.5,-4.5 l 0,-7 c -2.484,10e-7 -4.5,-2.016 -4.5,-4.5 0,-2.484 2.016,-4.5 4.5,-4.5 l 0,-7 c -2.484,10e-7 -4.5,-2.016 -4.5,-4.5 0,-2.484 2.016,-4.5 4.5,-4.5 l 0,-7 c -2.484,10e-7 -4.5,-2.016 -4.5,-4.5 0,-2.484 2.016,-4.5 4.5,-4.5 l 0,-7 c -2.484,1e-6 -4.5,-2.016 -4.5,-4.5 0,-2.473406 1.999346,-4.482906 4.46875,-4.5 C 89.746004,8.7407268 87.688537,6.538867 85,6.09375 84.949321,8.5338976 82.952219,10.5 80.5,10.5 78.015996,10.5 76,8.4840001 76,6 l -7,0 c 10e-7,2.4840004 -2.016,4.5 -4.5,4.5 C 62.016,10.5 60,8.4840001 60,6 l -7,0 c 10e-7,2.4840004 -2.016,4.5 -4.5,4.5 C 46.016,10.5 44,8.4840001 44,6 l -7,0 c 10e-7,2.4840004 -2.016,4.5 -4.5,4.5 C 30.016,10.5 28,8.4840001 28,6 l -7,0 c 1e-6,2.4840004 -2.016,4.5 -4.5,4.5 C 14.016,10.5 12,8.4840001 12,6 z"
       inkscape:connector-curvature="0"
       id="rect2419"
       style="fill:#d31a13;fill-opacity:1;fill-rule:nonzero;stroke:none" />
    <path
       d="m 12,6 c -3.1576964,0 -5.7192022,2.4087223 -5.96875,5.5 0.3875592,0.0027 0.7665092,0.06132 1.125,0.15625 C 7.6623387,9.7083063 9.2475019,8.2914957 11.28125,8 c 0.513582,2.458142 2.613584,4.375 5.21875,4.375 2.650061,0 4.786743,-1.978914 5.25,-4.5 l 5.5,0 c 0.463258,2.521086 2.599939,4.5 5.25,4.5 2.650061,0 4.786743,-1.978914 5.25,-4.5 l 5.5,0 c 0.463258,2.521086 2.599939,4.5 5.25,4.5 2.650061,0 4.786743,-1.978914 5.25,-4.5 l 5.5,0 c 0.463258,2.521086 2.599939,4.5 5.25,4.5 2.650061,0 4.786743,-1.978914 5.25,-4.5 l 5.5,0 c 0.463258,2.521085 2.599936,4.5 5.25,4.5 2.533754,0 4.599245,-1.797591 5.1875,-4.15625 1.565145,0.5523941 2.734682,1.812675 3.15625,3.4375 0.358491,-0.09493 0.737441,-0.153567 1.125,-0.15625 C 89.746004,8.7407268 87.688537,6.538867 85,6.09375 84.949321,8.5338976 82.952219,10.5 80.5,10.5 78.015996,10.5 76,8.4840001 76,6 l -7,0 c 10e-7,2.4840004 -2.016,4.5 -4.5,4.5 C 62.016,10.5 60,8.4840001 60,6 l -7,0 c 10e-7,2.4840004 -2.016,4.5 -4.5,4.5 C 46.016,10.5 44,8.4840001 44,6 l -7,0 c 10e-7,2.4840004 -2.016,4.5 -4.5,4.5 C 30.016,10.5 28,8.4840001 28,6 l -7,0 c 1e-6,2.4840004 -2.016,4.5 -4.5,4.5 C 14.016,10.5 12,8.4840001 12,6 z M 8.03125,12 C 9.4964802,12.742423 10.5,14.246206 10.5,16 c 0,2.484001 -2.016,4.5 -4.5,4.5 l 0,7 c 0.3210719,0 0.6354089,0.02973 0.9375,0.09375 l 0,-5.40625 c 2.5210853,-0.463258 4.5,-2.599938 4.5,-5.25 0,-2.251307 -1.432067,-4.133632 -3.40625,-4.9375 z m 79.9375,0 c -1.974183,0.803868 -3.40625,2.686193 -3.40625,4.9375 0,2.650061 1.978914,4.786743 4.5,5.25 l 0,5.40625 C 89.364591,27.52973 89.678928,27.5 90,27.5 l 0,-7 c -2.484,1e-6 -4.5,-2.016 -4.5,-4.5 0,-1.753794 1.00352,-3.257577 2.46875,-4 z M 8.1875,28.09375 C 9.5566917,28.865674 10.5,30.317187 10.5,32 c 0,2.484001 -2.016,4.5 -4.5,4.5 l 0,7 c 0.3210719,0 0.6354089,0.02973 0.9375,0.09375 l 0,-5.40625 c 2.5210853,-0.463258 4.5,-2.599938 4.5,-5.25 0,-2.189151 -1.359088,-4.009194 -3.25,-4.84375 z m 79.625,0 c -1.890912,0.834556 -3.25,2.654599 -3.25,4.84375 0,2.650061 1.978914,4.786743 4.5,5.25 l 0,5.40625 C 89.364591,43.52973 89.678928,43.5 90,43.5 l 0,-7 c -2.484,10e-7 -4.5,-2.016 -4.5,-4.5 0,-1.682813 0.943308,-3.134326 2.3125,-3.90625 z m -79.625,16 C 9.5566917,44.865674 10.5,46.317187 10.5,48 c 0,2.484001 -2.016,4.5 -4.5,4.5 l 0,7 c 0.3210719,0 0.6354089,0.02973 0.9375,0.09375 l 0,-5.40625 c 2.5210853,-0.463258 4.5,-2.599938 4.5,-5.25 0,-2.189151 -1.359088,-4.009194 -3.25,-4.84375 z m 79.625,0 c -1.890912,0.834556 -3.25,2.654599 -3.25,4.84375 0,2.650061 1.978914,4.786743 4.5,5.25 l 0,5.40625 C 89.364591,59.52973 89.678928,59.5 90,59.5 l 0,-7 c -2.484,10e-7 -4.5,-2.016 -4.5,-4.5 0,-1.682813 0.943308,-3.134326 2.3125,-3.90625 z m -79.625,16 C 9.5566917,60.865674 10.5,62.317187 10.5,64 c 0,2.484001 -2.016,4.5 -4.5,4.5 l 0,7 c 0.3210719,-10e-7 0.6354089,0.02973 0.9375,0.09375 l 0,-5.40625 c 2.5210853,-0.463258 4.5,-2.599938 4.5,-5.25 0,-2.189151 -1.359088,-4.009194 -3.25,-4.84375 z m 79.625,0 c -1.890912,0.834556 -3.25,2.654599 -3.25,4.84375 0,2.650061 1.978914,4.786743 4.5,5.25 l 0,5.40625 C 89.364591,75.52973 89.678928,75.5 90,75.5 l 0,-7 c -2.484,10e-7 -4.5,-2.016 -4.5,-4.5 0,-1.682813 0.943308,-3.134326 2.3125,-3.90625 z m -79.625,16 C 9.5566917,76.865674 10.5,78.317187 10.5,80 10.5,82.473403 8.5006537,84.482906 6.03125,84.5 6.2807978,87.591278 8.8423036,90 12,90 c 0,-2.162928 1.527437,-3.974973 3.5625,-4.40625 -2.154233,0.400506 -3.831866,2.130376 -4.28125,4.28125 -2.0541834,-0.294425 -3.6354873,-1.740587 -4.125,-3.71875 2.4131399,-0.548077 4.28125,-2.64583 4.28125,-5.21875 0,-2.189151 -1.359087,-4.009195 -3.25,-4.84375 z m 79.625,0 c -1.890912,0.834555 -3.25,2.654597 -3.25,4.84375 0,2.572922 1.868111,4.670672 4.28125,5.21875 -0.408658,1.653304 -1.572152,2.940917 -3.15625,3.5 -0.514722,-2.063828 -2.149193,-3.686183 -4.25,-4.0625 2.010646,0.421213 3.518381,2.188088 3.5625,4.3125 C 87.688537,89.461133 89.746004,87.259273 89.96875,84.5 87.499346,84.482903 85.5,82.473406 85.5,80 c 0,-1.682816 0.943308,-3.134327 2.3125,-3.90625 z m -70.34375,9.5 C 19.488914,86.036288 21,87.847644 21,90 l 0.75,0 c -0.405351,-2.205949 -2.090608,-3.993005 -4.28125,-4.40625 z m 14.0625,0 C 29.340608,86.006995 27.655351,87.794051 27.25,90 L 28,90 c 0,-2.152356 1.511086,-3.963712 3.53125,-4.40625 z m 1.9375,0 C 35.488914,86.036288 37,87.847644 37,90 l 0.75,0 c -0.405351,-2.205949 -2.090608,-3.993005 -4.28125,-4.40625 z m 14.0625,0 C 45.340608,86.006995 43.655351,87.794051 43.25,90 L 44,90 c 0,-2.152356 1.511086,-3.963712 3.53125,-4.40625 z m 1.9375,0 C 51.488914,86.036288 53,87.847644 53,90 l 0.75,0 c -0.405351,-2.205949 -2.090608,-3.993005 -4.28125,-4.40625 z m 14.0625,0 C 61.340608,86.006995 59.655351,87.794051 59.25,90 L 60,90 c 0,-2.152356 1.511086,-3.963712 3.53125,-4.40625 z m 1.9375,0 C 67.488914,86.036288 69,87.847644 69,90 l 0.75,0 c -0.405351,-2.205949 -2.090608,-3.993005 -4.28125,-4.40625 z m 14.0625,0 C 77.340608,86.006994 75.655349,87.794049 75.25,90 L 76,90 c -3e-6,-2.152356 1.511085,-3.963712 3.53125,-4.40625 z"
       inkscape:connector-curvature="0"
       id="path3421"
       style="opacity:0.50000000000000000;fill:#d62b20;fill-opacity:1;fill-rule:nonzero;stroke:none" />
  </g>
  <g
     id="layer4" />
  <g
     id="layer3">
    <path
       d="m 31.84375,21.21875 a 1.0168017,1.0168017 0 0 0 -1,0.8125 L 19.8125,70.5 a 1.0168017,1.0168017 0 0 0 1,1.25 l 8.96875,0 a 1.0168017,1.0168017 0 0 0 1,-0.78125 l 5,-20.90625 20.9375,0 -20.875,18.53125 A 1.0168017,1.0168017 0 0 0 35.78125,70 L 41.75,76.8125 a 1.0168017,1.0168017 0 0 0 1.21875,0.25 L 46,75.5 c 2.767216,-1.410455 4.562718,-1.65706 6.25,-1.46875 1.687282,0.18831 3.329535,0.877081 5.59375,1.5 4.241881,1.167011 8.865947,2.456064 17.375,-2.40625 a 1.0168017,1.0168017 0 0 0 0.5,-1.0625 L 74.0625,63.6875 A 1.0168017,1.0168017 0 0 0 72.46875,63.03125 C 68.087125,66.119637 65.571444,66.203197 63.125,65.59375 61.265585,65.130541 59.244031,64.264123 56.90625,63.75 L 73.8125,49.5625 a 1.0168017,1.0168017 0 0 0 0.34375,-0.53125 L 76.1875,40.75 a 1.0168017,1.0168017 0 0 0 -1,-1.28125 l -37.46875,0 2,-7.875 24.59375,0 a 1.0168017,1.0168017 0 0 0 1,-0.8125 l 1.75,-8.3125 a 1.0168017,1.0168017 0 0 0 -1,-1.25 l -34.21875,0 z"
       id="path3651"
       style="opacity:0.3;fill:#300000;fill-opacity:1;stroke:none;display:inline" />
    <path
       d="m 31.838284,21.263412 -11.018373,48.453103 8.952427,0 5.200449,-21.683269 24.437931,0 -22.885961,20.309085 5.966056,6.810202 3.055877,-1.560987 c 5.778868,-2.9455 8.202566,-1.223206 12.586972,-0.01699 4.265372,1.173474 8.275228,2.429384 16.594503,-2.324486 L 73.07605,62.859435 c -9.079254,6.399509 -11.951588,0.689889 -18.418078,0.463254 l 18.513284,-15.52955 2.008833,-8.290084 -38.77951,0 2.496349,-9.949559 25.417981,0 1.743142,-8.290084 -34.219767,0 z"
       inkscape:connector-curvature="0"
       id="path3307"
       style="fill:#ffffff;fill-opacity:1;stroke:none;display:inline" />
  </g>
</svg>
