<?xml version="1.0" encoding="UTF-8" standalone="no"?>
<!-- Created using Karbon, part of Calligra: http://www.calligra.org/karbon -->

<svg
   xmlns:dc="http://purl.org/dc/elements/1.1/"
   xmlns:cc="http://creativecommons.org/ns#"
   xmlns:rdf="http://www.w3.org/1999/02/22-rdf-syntax-ns#"
   xmlns:svg="http://www.w3.org/2000/svg"
   xmlns="http://www.w3.org/2000/svg"
   xmlns:sodipodi="http://sodipodi.sourceforge.net/DTD/sodipodi-0.dtd"
   xmlns:inkscape="http://www.inkscape.org/namespaces/inkscape"
   width="96"
   height="96"
   id="svg2"
   version="1.1"
   inkscape:version="0.48.5 r10040"
   sodipodi:docname="glade.svg">
  <metadata
     id="metadata31">
    <rdf:RDF>
      <cc:Work
         rdf:about="">
        <dc:format>image/svg+xml</dc:format>
        <dc:type
           rdf:resource="http://purl.org/dc/dcmitype/StillImage" />
        <dc:title />
      </cc:Work>
    </rdf:RDF>
  </metadata>
  <sodipodi:namedview
     pagecolor="#ffffff"
     bordercolor="#666666"
     borderopacity="1"
     objecttolerance="10"
     gridtolerance="10"
     guidetolerance="10"
     inkscape:pageopacity="0"
     inkscape:pageshadow="2"
     inkscape:window-width="1680"
     inkscape:window-height="991"
     id="namedview29"
     showgrid="false"
     inkscape:zoom="8.9149242"
     inkscape:cx="42.38148"
     inkscape:cy="39.995956"
     inkscape:window-x="-2"
     inkscape:window-y="-3"
     inkscape:window-maximized="1"
     inkscape:current-layer="svg2"
     inkscape:showpageshadow="false"
     borderlayer="true"
     showguides="false"
     inkscape:guide-bbox="true">
    <sodipodi:guide
       position="9.5367432e-07,48.000001"
       orientation="47.999999,0"
       id="guide4064" />
    <sodipodi:guide
       position="9.5367432e-07,1.9073486e-06"
       orientation="0,47.999999"
       id="guide4066" />
    <sodipodi:guide
       position="48,1.9073486e-06"
       orientation="-47.999999,0"
       id="guide4068" />
    <sodipodi:guide
       position="48,48.000001"
       orientation="0,-47.999999"
       id="guide4070" />
    <sodipodi:guide
       position="4.000001,44.000001"
       orientation="39.999999,0"
       id="guide4072" />
    <sodipodi:guide
       position="4.000001,4.0000019"
       orientation="0,39.999999"
       id="guide4074" />
    <sodipodi:guide
       position="44,4.0000019"
       orientation="-39.999999,0"
       id="guide4076" />
    <sodipodi:guide
       position="44,44.000001"
       orientation="0,-39.999999"
       id="guide4078" />
    <sodipodi:guide
       position="15.000001,15.000002"
       orientation="0,17.999999"
       id="guide4082" />
    <sodipodi:guide
       position="33,15.000002"
       orientation="-17.999999,0"
       id="guide4084" />
    <sodipodi:guide
       position="33,33.000001"
       orientation="0,-17.999999"
       id="guide4086" />
    <sodipodi:guide
       position="37,44.000001"
       orientation="11,0"
       id="guide4094" />
    <sodipodi:guide
       position="37,33.000001"
       orientation="0,11"
       id="guide4096" />
    <sodipodi:guide
       position="48,33.000001"
       orientation="-11,0"
       id="guide4098" />
    <sodipodi:guide
       position="48,44.000001"
       orientation="0,-11"
       id="guide4100" />
    <inkscape:grid
       type="xygrid"
       id="grid4107"
       empspacing="5"
       visible="true"
       enabled="true"
       snapvisiblegridlinesonly="true" />
  </sodipodi:namedview>
  <defs
     id="defs4" />
  <g
     id="g3031"
     transform="translate(23.999999,-24.000002)">
    <path
       inkscape:connector-curvature="0"
       id="rect4088"
       d="m -18.000045,29.999955 0,84.000085 84.000092,0 0.08895,-83.916925 -19.338976,-0.08316 z"
       style="fill:#3498db;fill-opacity:1;stroke:none"
       sodipodi:nodetypes="cccccc" />
    <path
       inkscape:connector-curvature="0"
       id="rect3300-3"
       d="m -10.650781,29.999957 0,3.884185 -7.349264,0 0,0.631641 7.349264,0 0,11.96837 -7.349264,0 0,0.631643 7.349264,0 0,11.968371 -7.349264,0 0,0.631643 7.349264,0 0,11.96837 -7.349264,0 0,0.631643 7.349264,0 0,11.968371 -7.349264,0 0,0.631642 7.349264,0 0,11.968371 -7.349264,0 0,0.631643 7.349264,0 0,11.96837 -7.349264,0 0,0.63164 7.349264,0 0,3.88419 0.574218,0 0,-3.88419 10.88033765,0 0,3.88419 0.57422085,0 0,-3.88419 10.8803375,0 0,3.88419 0.57422,0 0,-3.88419 10.880338,0 0,3.88419 0.57422,0 0,-3.88419 10.880338,0 0,3.88419 0.57422,0 0,-3.88419 10.880338,0 0,3.88419 0.57422,0 0,-3.88419 10.880338,0 0,3.88419 0.57422,0 0,-3.88419 7.349262,0 0,-0.63164 -7.349262,0 0,-11.96837 7.349262,0 0,-0.631643 -7.349262,0 0,-11.968371 7.349262,0 0,-0.631642 -7.349262,0 0,-11.968371 7.349262,0 0,-0.631643 -7.349262,0 0,-11.96837 7.349262,0 0,-0.631643 -7.349262,0 0,-11.968371 7.441467,0 -0.03883,-0.671302 -7.402638,0.03966 -0.01983,-16.439479 -0.534561,-0.01694 -0.01983,16.456414 -10.880338,0 0,-11.96837 18.870012,0.03966 -0.01103,-0.6713 -18.858988,0 0.0096,-3.889973 -0.573667,0.03066 -0.0102,3.859271 -10.880338,0 0,-3.884185 -0.57422,0 0,3.884185 -10.880338,0 0,-3.884185 -0.57422,0 0,3.884185 -10.880338,0 0,-3.884185 -0.57422,0 0,3.884185 -10.8803375,0 0,-3.884185 -0.57422085,0 0,3.884185 -10.88033765,0 0,-3.884185 z m 0.574218,4.515826 10.88033765,0 0,11.96837 -10.88033765,0 z m 11.4545585,0 10.8803375,0 0,11.96837 -10.8803375,0 z m 11.4545575,0 10.880338,0 0,11.96837 -10.880338,0 z m 11.454558,0 10.880338,0 0,11.96837 -10.880338,0 z m 11.454558,0 10.880338,0 0,11.96837 -10.880338,0 z m -45.818232,12.600013 10.88033765,0 0,11.968371 -10.88033765,0 z m 11.4545585,0 10.8803375,0 0,11.968371 -10.8803375,0 z m 11.4545575,0 10.880338,0 0,11.968371 -10.880338,0 z m 11.454558,0 10.880338,0 0,11.968371 -10.880338,0 z m 11.454558,0 10.880338,0 0,11.968371 -10.880338,0 z m 11.454558,0 10.880338,0 0,11.968371 -10.880338,0 z m -57.27279,12.600014 10.88033765,0 0,11.96837 -10.88033765,0 z m 11.4545585,0 10.8803375,0 0,11.96837 -10.8803375,0 z m 11.4545575,0 10.880338,0 0,11.96837 -10.880338,0 z m 11.454558,0 10.880338,0 0,11.96837 -10.880338,0 z m 11.454558,0 10.880338,0 0,11.96837 -10.880338,0 z m 11.454558,0 10.880338,0 0,11.96837 -10.880338,0 z m -57.27279,12.600013 10.88033765,0 0,11.968371 -10.88033765,0 z m 11.4545585,0 10.8803375,0 0,11.968371 -10.8803375,0 z m 11.4545575,0 10.880338,0 0,11.968371 -10.880338,0 z m 11.454558,0 10.880338,0 0,11.968371 -10.880338,0 z m 11.454558,0 10.880338,0 0,11.968371 -10.880338,0 z m 11.454558,0 10.880338,0 0,11.968371 -10.880338,0 z m -57.27279,12.600013 10.88033765,0 0,11.968371 -10.88033765,0 z m 11.4545585,0 10.8803375,0 0,11.968371 -10.8803375,0 z m 11.4545575,0 10.880338,0 0,11.968371 -10.880338,0 z m 11.454558,0 10.880338,0 0,11.968371 -10.880338,0 z m 11.454558,0 10.880338,0 0,11.968371 -10.880338,0 z m 11.454558,0 10.880338,0 0,11.968371 -10.880338,0 z m -57.27279,12.600014 10.88033765,0 0,11.96837 -10.88033765,0 z m 11.4545585,0 10.8803375,0 0,11.96837 -10.8803375,0 z m 11.4545575,0 10.880338,0 0,11.96837 -10.880338,0 z m 11.454558,0 10.880338,0 0,11.96837 -10.880338,0 z m 11.454558,0 10.880338,0 0,11.96837 -10.880338,0 z m 11.454558,0 10.880338,0 0,11.96837 -10.880338,0 z"
       style="fill:#68b1e1;fill-opacity:1;fill-rule:evenodd;stroke:none"
       sodipodi:nodetypes="cccccccccccccccccccccccccccccccccccccccccccccccccccccccccccccccccccccccccccccccccccccccccccccccccccccccccccccccccccccccccccccccccccccccccccccccccccccccccccccccccccccccccccccccccccccccccccccccccccccccccccccccccccccccccccccccccccccccccccccccccccccccccccccccccccccccccccccccccccccccccccc" />
    <g
       transform="matrix(2.0177219,0,0,2.2194941,-23.523937,19.389695)"
       id="g3986">
      <path
         style="font-size:medium;font-style:normal;font-variant:normal;font-weight:normal;font-stretch:normal;text-indent:0;text-align:start;text-decoration:none;line-height:normal;letter-spacing:normal;word-spacing:normal;text-transform:none;direction:ltr;block-progression:tb;writing-mode:lr-tb;text-anchor:start;baseline-shift:baseline;color:#000000;fill:#2c3e50;fill-opacity:1;stroke:none;stroke-width:0.60000002;marker:none;visibility:visible;display:inline;overflow:visible;enable-background:accumulate;font-family:Sans;-inkscape-font-specification:Sans"
         d="M 42.857242,19.199758 C 29.893944,26.705863 17.033129,34.296189 5.9394494,40.734664 c 12.9995046,0 25.7685986,0 36.9177856,0 3.4e-5,-7.533851 -1.19e-4,-15.043747 7e-6,-21.534906 z m -5.255306,9.933337 0,7.689718 -13.204082,0 z"
         id="path3025"
         inkscape:connector-curvature="0"
         sodipodi:nodetypes="cccccccc" />
      <rect
         inkscape:transform-center-y="11.274761"
         inkscape:transform-center-x="16.856039"
         style="fill:#ecf0f1;fill-opacity:1;stroke:none"
         id="rect4113-5"
         width="0.41518399"
         height="2.4911044"
         x="6.2391324"
         y="38.183681"
         transform="matrix(0.86357525,-0.50421998,0.50421998,0.86357525,0,0)" />
      <rect
         inkscape:transform-center-y="11.591367"
         inkscape:transform-center-x="18.703698"
         y="38.183681"
         x="4.5783982"
         height="1.2455522"
         width="0.41518399"
         id="rect4117-3"
         style="fill:#ecf0f1;fill-opacity:1;stroke:none"
         transform="matrix(0.86357525,-0.50421998,0.50421998,0.86357525,0,0)" />
      <rect
         inkscape:transform-center-y="12.476392"
         inkscape:transform-center-x="20.219476"
         style="fill:#ecf0f1;fill-opacity:1;stroke:none"
         id="rect4119-7"
         width="0.41518399"
         height="1.2455522"
         x="2.9176598"
         y="38.183681"
         transform="matrix(0.86357525,-0.50421998,0.50421998,0.86357525,0,0)" />
      <rect
         inkscape:transform-center-y="13.929833"
         inkscape:transform-center-x="21.403368"
         y="38.183681"
         x="1.2569238"
         height="2.4911044"
         width="0.41518399"
         id="rect4121-1"
         style="fill:#ecf0f1;fill-opacity:1;stroke:none"
         transform="matrix(0.86357525,-0.50421998,0.50421998,0.86357525,0,0)" />
      <rect
         inkscape:transform-center-y="14.246439"
         inkscape:transform-center-x="23.251028"
         style="fill:#ecf0f1;fill-opacity:1;stroke:none"
         id="rect4133-8"
         width="0.41518399"
         height="1.2455522"
         x="-0.40381229"
         y="38.183681"
         transform="matrix(0.86357525,-0.50421998,0.50421998,0.86357525,0,0)" />
      <rect
         inkscape:transform-center-y="15.131463"
         inkscape:transform-center-x="24.766804"
         y="38.183681"
         x="-2.0645483"
         height="1.2455522"
         width="0.41518399"
         id="rect4135-1"
         style="fill:#ecf0f1;fill-opacity:1;stroke:none"
         transform="matrix(0.86357525,-0.50421998,0.50421998,0.86357525,0,0)" />
      <rect
         inkscape:transform-center-y="16.901511"
         inkscape:transform-center-x="27.798357"
         y="38.183681"
         x="-5.3860211"
         height="1.2455522"
         width="0.41518399"
         id="rect4137-3"
         style="fill:#ecf0f1;fill-opacity:1;stroke:none"
         transform="matrix(0.86357525,-0.50421998,0.50421998,0.86357525,0,0)" />
      <rect
         inkscape:transform-center-y="17.786534"
         inkscape:transform-center-x="29.314132"
         style="fill:#ecf0f1;fill-opacity:1;stroke:none"
         id="rect4139-0"
         width="0.41518399"
         height="1.2455522"
         x="-7.0467572"
         y="38.183681"
         transform="matrix(0.86357525,-0.50421998,0.50421998,0.86357525,0,0)" />
      <rect
         inkscape:transform-center-y="19.556581"
         inkscape:transform-center-x="32.345684"
         style="fill:#ecf0f1;fill-opacity:1;stroke:none"
         id="rect4141-1"
         width="0.41518399"
         height="1.2455522"
         x="-10.368229"
         y="38.183681"
         transform="matrix(0.86357525,-0.50421998,0.50421998,0.86357525,0,0)" />
      <rect
         inkscape:transform-center-y="20.441606"
         inkscape:transform-center-x="33.86146"
         y="38.183681"
         x="-12.028965"
         height="1.2455522"
         width="0.41518399"
         id="rect4143-0"
         style="fill:#ecf0f1;fill-opacity:1;stroke:none"
         transform="matrix(0.86357525,-0.50421998,0.50421998,0.86357525,0,0)" />
      <rect
         inkscape:transform-center-y="16.584904"
         inkscape:transform-center-x="25.950696"
         y="38.183681"
         x="-3.7252846"
         height="2.4911044"
         width="0.41518399"
         id="rect4145-2"
         style="fill:#ecf0f1;fill-opacity:1;stroke:none"
         transform="matrix(0.86357525,-0.50421998,0.50421998,0.86357525,0,0)" />
      <rect
         inkscape:transform-center-y="19.239975"
         inkscape:transform-center-x="30.498024"
         style="fill:#ecf0f1;fill-opacity:1;stroke:none"
         id="rect4147-1"
         width="0.41518399"
         height="2.4911044"
         x="-8.7074928"
         y="38.183681"
         transform="matrix(0.86357525,-0.50421998,0.50421998,0.86357525,0,0)" />
      <rect
         inkscape:transform-center-y="0.97108225"
         inkscape:transform-center-x="0.51438399"
         style="fill:#ecf0f1;fill-opacity:1;stroke:none"
         id="rect4151-7"
         width="0.41518399"
         height="1.2455522"
         x="24.507233"
         y="38.183681"
         transform="matrix(0.86357525,-0.50421998,0.50421998,0.86357525,0,0)" />
      <rect
         inkscape:transform-center-y="1.856106"
         inkscape:transform-center-x="2.0301601"
         y="38.183681"
         x="22.846497"
         height="1.2455522"
         width="0.41518399"
         id="rect4153-8"
         style="fill:#ecf0f1;fill-opacity:1;stroke:none"
         transform="matrix(0.86357525,-0.50421998,0.50421998,0.86357525,0,0)" />
      <rect
         inkscape:transform-center-y="3.3095457"
         inkscape:transform-center-x="3.2140521"
         style="fill:#ecf0f1;fill-opacity:1;stroke:none"
         id="rect4155-9"
         width="0.41518399"
         height="2.4911044"
         x="21.18576"
         y="38.183681"
         transform="matrix(0.86357525,-0.50421998,0.50421998,0.86357525,0,0)" />
      <rect
         inkscape:transform-center-y="3.6261534"
         inkscape:transform-center-x="5.0617121"
         y="38.183681"
         x="19.525024"
         height="1.2455522"
         width="0.41518399"
         id="rect4157-4"
         style="fill:#ecf0f1;fill-opacity:1;stroke:none"
         transform="matrix(0.86357525,-0.50421998,0.50421998,0.86357525,0,0)" />
      <rect
         inkscape:transform-center-y="4.511179"
         inkscape:transform-center-x="6.5774916"
         style="fill:#ecf0f1;fill-opacity:1;stroke:none"
         id="rect4159-3"
         width="0.41518399"
         height="1.2455522"
         x="17.864285"
         y="38.183681"
         transform="matrix(0.86357525,-0.50421998,0.50421998,0.86357525,0,0)" />
      <rect
         inkscape:transform-center-y="6.2812254"
         inkscape:transform-center-x="9.6090419"
         style="fill:#ecf0f1;fill-opacity:1;stroke:none"
         id="rect4161-3"
         width="0.41518399"
         height="1.2455522"
         x="14.542814"
         y="38.183681"
         transform="matrix(0.86357525,-0.50421998,0.50421998,0.86357525,0,0)" />
      <rect
         inkscape:transform-center-y="7.1662497"
         inkscape:transform-center-x="11.124819"
         y="38.183681"
         x="12.882077"
         height="1.2455522"
         width="0.41518399"
         id="rect4163-4"
         style="fill:#ecf0f1;fill-opacity:1;stroke:none"
         transform="matrix(0.86357525,-0.50421998,0.50421998,0.86357525,0,0)" />
      <rect
         inkscape:transform-center-y="8.9362971"
         inkscape:transform-center-x="14.156371"
         y="38.183681"
         x="9.560605"
         height="1.2455522"
         width="0.41518399"
         id="rect4165-7"
         style="fill:#ecf0f1;fill-opacity:1;stroke:none"
         transform="matrix(0.86357525,-0.50421998,0.50421998,0.86357525,0,0)" />
      <rect
         inkscape:transform-center-y="9.8213207"
         inkscape:transform-center-x="15.672147"
         style="fill:#ecf0f1;fill-opacity:1;stroke:none"
         id="rect4167-6"
         width="0.41518399"
         height="1.2455522"
         x="7.899869"
         y="38.183681"
         transform="matrix(0.86357525,-0.50421998,0.50421998,0.86357525,0,0)" />
      <rect
         inkscape:transform-center-y="5.9646189"
         inkscape:transform-center-x="7.7613837"
         style="fill:#ecf0f1;fill-opacity:1;stroke:none"
         id="rect4169-0"
         width="0.41518399"
         height="2.4911044"
         x="16.203548"
         y="38.183681"
         transform="matrix(0.86357525,-0.50421998,0.50421998,0.86357525,0,0)" />
      <rect
         inkscape:transform-center-y="8.6196894"
         inkscape:transform-center-x="12.308711"
         y="38.183681"
         x="11.221341"
         height="2.4911044"
         width="0.41518399"
         id="rect4171-6"
         style="fill:#ecf0f1;fill-opacity:1;stroke:none"
         transform="matrix(0.86357525,-0.50421998,0.50421998,0.86357525,0,0)" />
    </g>
  </g>
</svg>
