<?xml version="1.0" encoding="UTF-8" standalone="no"?>
<!-- Created with Inkscape (http://www.inkscape.org/) -->

<svg
   xmlns:dc="http://purl.org/dc/elements/1.1/"
   xmlns:cc="http://creativecommons.org/ns#"
   xmlns:rdf="http://www.w3.org/1999/02/22-rdf-syntax-ns#"
   xmlns:svg="http://www.w3.org/2000/svg"
   xmlns="http://www.w3.org/2000/svg"
   xmlns:xlink="http://www.w3.org/1999/xlink"
   xmlns:sodipodi="http://sodipodi.sourceforge.net/DTD/sodipodi-0.dtd"
   xmlns:inkscape="http://www.inkscape.org/namespaces/inkscape"
   version="1.0"
   width="96"
   height="96"
   id="svg2408"
   style="display:inline"
   inkscape:version="0.91 r13725"
   sodipodi:docname="preferences-system-power-management.svg">
  <sodipodi:namedview
     pagecolor="#ffffff"
     bordercolor="#666666"
     borderopacity="1"
     objecttolerance="10"
     gridtolerance="10"
     guidetolerance="10"
     inkscape:pageopacity="0"
     inkscape:pageshadow="2"
     inkscape:window-width="1366"
     inkscape:window-height="697"
     id="namedview92"
     showgrid="false"
     inkscape:zoom="2.7576468"
     inkscape:cx="112.33554"
     inkscape:cy="32.442924"
     inkscape:window-x="-4"
     inkscape:window-y="0"
     inkscape:window-maximized="1"
     inkscape:current-layer="svg2408" />
  <defs
     id="defs2410">
    <linearGradient
       id="linearGradient3858">
      <stop
         id="stop3860"
         style="stop-color:#225500;stop-opacity:1"
         offset="0" />
      <stop
         id="stop3862"
         style="stop-color:#225500;stop-opacity:0"
         offset="1" />
    </linearGradient>
    <linearGradient
       id="linearGradient3833">
      <stop
         id="stop3835"
         style="stop-color:#ffffff;stop-opacity:1"
         offset="0" />
      <stop
         id="stop3837"
         style="stop-color:#ffffff;stop-opacity:0"
         offset="1" />
    </linearGradient>
    <linearGradient
       id="linearGradient3788">
      <stop
         id="stop3790"
         style="stop-color:#d9d9d9;stop-opacity:1"
         offset="0" />
      <stop
         id="stop3792"
         style="stop-color:#c6c6c6;stop-opacity:1"
         offset="0.25015625" />
      <stop
         id="stop3796"
         style="stop-color:#696969;stop-opacity:1"
         offset="1" />
    </linearGradient>
    <linearGradient
       id="linearGradient3702">
      <stop
         id="stop3705"
         style="stop-color:#88ff02;stop-opacity:1"
         offset="0" />
      <stop
         id="stop3707"
         style="stop-color:#1f8000;stop-opacity:1"
         offset="1" />
    </linearGradient>
    <linearGradient
       id="linearGradient3675">
      <stop
         id="stop3677"
         style="stop-color:#666666;stop-opacity:1"
         offset="0" />
      <stop
         id="stop3683"
         style="stop-color:#e6e6e6;stop-opacity:1"
         offset="0.25015625" />
      <stop
         id="stop3685"
         style="stop-color:#808080;stop-opacity:1"
         offset="0.51292795" />
      <stop
         id="stop3679"
         style="stop-color:#474747;stop-opacity:1"
         offset="1" />
    </linearGradient>
    <linearGradient
       id="linearGradient3614">
      <stop
         id="stop3616"
         style="stop-color:#ffffff;stop-opacity:0.48062015"
         offset="0" />
      <stop
         id="stop3618"
         style="stop-color:#ffffff;stop-opacity:0.12403101"
         offset="1" />
    </linearGradient>
    <linearGradient
       x1="45.447727"
       y1="92.539597"
       x2="45.447727"
       y2="7.0165396"
       id="ButtonShadow"
       gradientUnits="userSpaceOnUse"
       gradientTransform="scale(1.0058652,0.994169)">
      <stop
         id="stop3750"
         style="stop-color:#000000;stop-opacity:1"
         offset="0" />
      <stop
         id="stop3752"
         style="stop-color:#000000;stop-opacity:0.58823532"
         offset="1" />
    </linearGradient>
    <linearGradient
       id="linearGradient3737">
      <stop
         id="stop3739"
         style="stop-color:#ffffff;stop-opacity:1"
         offset="0" />
      <stop
         id="stop3741"
         style="stop-color:#ffffff;stop-opacity:0"
         offset="1" />
    </linearGradient>
    <linearGradient
       x1="36.357143"
       y1="6"
       x2="36.357143"
       y2="63.893143"
       id="linearGradient3188"
       xlink:href="#linearGradient3737"
       gradientUnits="userSpaceOnUse" />
    <radialGradient
       cx="48"
       cy="90.171875"
       r="42"
       fx="48"
       fy="90.171875"
       id="radialGradient3619"
       xlink:href="#linearGradient3737"
       gradientUnits="userSpaceOnUse"
       gradientTransform="matrix(1.1573129,0,0,0.99590774,-7.5510206,0.19713193)" />
    <linearGradient
       x1="-16"
       y1="8"
       x2="-16"
       y2="88"
       id="linearGradient3761"
       xlink:href="#linearGradient3675"
       gradientUnits="userSpaceOnUse"
       gradientTransform="matrix(0,-1,1,0,0,0)" />
    <linearGradient
       x1="-16"
       y1="8"
       x2="-16"
       y2="88"
       id="linearGradient3767"
       xlink:href="#linearGradient3675"
       gradientUnits="userSpaceOnUse"
       gradientTransform="matrix(0,1,1,0,0,96)" />
    <linearGradient
       x1="32"
       y1="6.0500002"
       x2="64"
       y2="6.0500002"
       id="linearGradient3777"
       xlink:href="#linearGradient3788"
       gradientUnits="userSpaceOnUse" />
    <linearGradient
       x1="26"
       y1="6"
       x2="26"
       y2="120.01754"
       id="linearGradient3839"
       xlink:href="#linearGradient3833"
       gradientUnits="userSpaceOnUse"
       gradientTransform="translate(-2,0)" />
    <linearGradient
       x1="26"
       y1="6"
       x2="26"
       y2="72.022263"
       id="linearGradient3843"
       xlink:href="#linearGradient3833"
       gradientUnits="userSpaceOnUse"
       gradientTransform="matrix(0.57142857,0,0,1,50.857143,0)" />
    <linearGradient
       x1="26"
       y1="6"
       x2="26"
       y2="72.022263"
       id="linearGradient3873"
       xlink:href="#linearGradient3833"
       gradientUnits="userSpaceOnUse"
       gradientTransform="matrix(0.23809524,0,0,1,47.190476,-96.000008)" />
    <linearGradient
       x1="6"
       y1="63"
       x2="32.019222"
       y2="63"
       id="linearGradient3897"
       xlink:href="#linearGradient3858"
       gradientUnits="userSpaceOnUse"
       gradientTransform="matrix(-1,0,0,1,96,0)" />
    <radialGradient
       cx="48"
       cy="90.199997"
       r="42"
       fx="48"
       fy="90.199997"
       id="radialGradient3901"
       xlink:href="#linearGradient3702"
       gradientUnits="userSpaceOnUse"
       gradientTransform="matrix(1.3333333,5.3333334e-8,-3.8095238e-8,0.95238092,-15.999997,-5.9047602)" />
    <linearGradient
       x1="-90"
       y1="48"
       x2="-6"
       y2="48"
       id="linearGradient3925"
       xlink:href="#linearGradient3614"
       gradientUnits="userSpaceOnUse"
       gradientTransform="matrix(1,0,0,-1,96,96)" />
    <linearGradient
       x1="45.447727"
       y1="92.539597"
       x2="45.447727"
       y2="7.0165396"
       id="linearGradient3938"
       xlink:href="#ButtonShadow"
       gradientUnits="userSpaceOnUse"
       gradientTransform="scale(1.0058652,0.994169)" />
    <filter
       color-interpolation-filters="sRGB"
       id="filter3941">
      <feGaussianBlur
         id="feGaussianBlur3943"
         stdDeviation="1.75" />
    </filter>
    <clipPath
       id="clipPath3950">
      <path
         d="M 0,0 0,16 0,80 0,96 96,96 96,80 96,16 96,0 0,0 z m 12.21875,6.28125 71.5625,0 c 3.302546,0 5.9375,2.634954 5.9375,5.9375 L 89.71875,16 88,16 l 0,64 1.71875,0 0,3.78125 c 0,3.302546 -2.634954,5.9375 -5.9375,5.9375 l -71.5625,0 c -3.3025464,0 -5.9375,-2.634954 -5.9375,-5.9375 L 6.28125,80 8,80 8,16 l -1.71875,0 0,-3.78125 c 0,-3.302546 2.6349536,-5.9375 5.9375,-5.9375 z"
         inkscape:connector-curvature="0"
         id="path3952"
         style="fill:#ff00ff;fill-opacity:1;stroke:none" />
    </clipPath>
    <linearGradient
       x1="64"
       y1="47"
       x2="82.835136"
       y2="47"
       id="linearGradient3976"
       xlink:href="#linearGradient3833"
       gradientUnits="userSpaceOnUse"
       gradientTransform="translate(4,0)" />
    <linearGradient
       x1="40"
       y1="91"
       x2="40"
       y2="3.3073549"
       id="linearGradient3794"
       xlink:href="#ButtonShadow"
       gradientUnits="userSpaceOnUse" />
    <linearGradient
       x1="45.447727"
       y1="92.539597"
       x2="45.447727"
       y2="7.0165396"
       id="linearGradient3803"
       xlink:href="#ButtonShadow"
       gradientUnits="userSpaceOnUse"
       gradientTransform="scale(1.0058652,0.994169)" />
    <linearGradient
       x1="45.447727"
       y1="92.539597"
       x2="45.447727"
       y2="7.0165396"
       id="linearGradient3817"
       xlink:href="#ButtonShadow"
       gradientUnits="userSpaceOnUse"
       gradientTransform="scale(1.0058652,0.994169)" />
    <linearGradient
       x1="45.447727"
       y1="92.539597"
       x2="45.447727"
       y2="7.0165396"
       id="linearGradient3825"
       xlink:href="#ButtonShadow"
       gradientUnits="userSpaceOnUse"
       gradientTransform="scale(1.0058652,0.994169)" />
    <linearGradient
       x1="45.447727"
       y1="92.539597"
       x2="45.447727"
       y2="7.0165396"
       id="linearGradient3837"
       xlink:href="#ButtonShadow"
       gradientUnits="userSpaceOnUse"
       gradientTransform="scale(1.0058652,0.994169)" />
    <linearGradient
       inkscape:collect="always"
       xlink:href="#ButtonShadow"
       id="linearGradient3060"
       gradientUnits="userSpaceOnUse"
       x1="40"
       y1="91"
       x2="40"
       y2="3.3073549" />
    <linearGradient
       inkscape:collect="always"
       xlink:href="#ButtonShadow"
       id="linearGradient3064"
       gradientUnits="userSpaceOnUse"
       gradientTransform="scale(1.0058652,0.994169)"
       x1="45.447727"
       y1="92.539597"
       x2="45.447727"
       y2="7.0165396" />
    <linearGradient
       inkscape:collect="always"
       xlink:href="#ButtonShadow"
       id="linearGradient3067"
       gradientUnits="userSpaceOnUse"
       gradientTransform="scale(1.0058652,0.994169)"
       x1="45.447727"
       y1="92.539597"
       x2="45.447727"
       y2="7.0165396" />
    <linearGradient
       inkscape:collect="always"
       xlink:href="#ButtonShadow"
       id="linearGradient3070"
       gradientUnits="userSpaceOnUse"
       gradientTransform="scale(1.0058652,0.994169)"
       x1="45.447727"
       y1="92.539597"
       x2="45.447727"
       y2="7.0165396" />
    <linearGradient
       inkscape:collect="always"
       xlink:href="#ButtonShadow"
       id="linearGradient3073"
       gradientUnits="userSpaceOnUse"
       gradientTransform="scale(1.0058652,0.994169)"
       x1="45.447727"
       y1="92.539597"
       x2="45.447727"
       y2="7.0165396" />
  </defs>
  <metadata
     id="metadata2413">
    <rdf:RDF>
      <cc:Work
         rdf:about="">
        <dc:format>image/svg+xml</dc:format>
        <dc:type
           rdf:resource="http://purl.org/dc/dcmitype/StillImage" />
        <dc:title />
      </cc:Work>
    </rdf:RDF>
  </metadata>
  <g
     id="layer2"
     style="display:none">
    <path
       d="M 33.125,3 C 31.94775,3 31,3.892 31,5 L 31,7 11,7 C 7.676,7 5,9.676 5,13 l 0,4 2,0 0,64 -2,0 0,5 c 0,3.324 2.676,6 6,6 l 74,0 c 3.324,0 6,-2.676 6,-6 l 0,-5 -2,0 0,-64 2,0 0,-4 C 91,9.676 88.324,7 85,7 L 65,7 65,5 C 65,3.892 64.05225,3 62.875,3 l -29.75,0 z"
       inkscape:connector-curvature="0"
       clip-path="url(#clipPath3950)"
       id="rect3745"
       style="opacity:0.9;fill:url(#linearGradient3938);fill-opacity:1;fill-rule:nonzero;stroke:none;filter:url(#filter3941)" />
  </g>
  <g
     id="layer4">
    <path
       d="M 8,36 8,80 88,80 88,36 8,36 z"
       inkscape:connector-curvature="0"
       id="rect3814"
       style="fill:#2b8f00;fill-opacity:1;fill-rule:nonzero;stroke:none;display:inline" />
  </g>
  <rect
     style="fill:#9a9a9a;fill-opacity:1;stroke:none"
     id="rect3769"
     y="2"
     x="32"
     ry="2"
     rx="2"
     height="8.1000004"
     width="32" />
  <path
     style="fill:#9a9a9a;fill-opacity:1;fill-rule:nonzero;stroke:none"
     id="rect3754"
     inkscape:connector-curvature="0"
     d="M 12,6 C 8.676,6 6,8.676 6,12 l 0,4 84,0 0,-4 C 90,8.676 87.324,6 84,6 L 12,6 z" />
  <path
     style="fill:#9a9a9a;fill-opacity:1;fill-rule:nonzero;stroke:none"
     id="path3765"
     inkscape:connector-curvature="0"
     d="M 12,90 C 8.676,90 6,87.324 6,84 l 0,-4 84,0 0,4 c 0,3.324 -2.676,6 -6,6 l -72,0 z" />
  <rect
     style="opacity:0.2;fill:#000000;fill-opacity:1;stroke:none"
     id="rect3798"
     y="5"
     x="32"
     height="1"
     width="32" />
  <rect
     style="opacity:0.28999999;fill:#ffffff;fill-opacity:1;stroke:none;display:inline"
     id="rect3847"
     y="80"
     x="6"
     height="2"
     width="84" />
  <rect
     style="opacity:0.1;fill:#000000;fill-opacity:1;stroke:none;display:inline"
     id="rect3854"
     y="14"
     x="6"
     height="2"
     width="84" />
  <path
     style="opacity:0.1;fill:#000000;fill-opacity:1;stroke:none;display:inline"
     id="rect3869"
     inkscape:connector-curvature="0"
     d="m 8,16 0,2 80,0 0,-2 -80,0 z" />
  <rect
     style="opacity:0.75;fill:#000000;fill-opacity:0.10196079000000000;stroke:none"
     id="rect3987"
     y="16"
     x="8"
     height="20"
     width="2" />
  <rect
     style="opacity:0.75;fill:#000000;fill-opacity:0.10196079000000000;stroke:none"
     id="rect3989"
     y="16"
     x="86"
     height="20"
     width="2" />
  <g
     id="layer5"
     style="display:inline" />
  <g
     id="layer6"
     transform="matrix(1.4238172,0,0,1,-35.600642,0)">
    <path
       d="m 69.398043,22.568731 0,2 16.998603,0 0,-2 -16.998603,0 z m 0,8 0,2 16.998603,0 0,-2 -16.998603,0 z m 0,8 0,2 16.998603,0 0,-2 -16.998603,0 z m 0,8 0,2 16.998603,0 0,-2 -16.998603,0 z m 0,8 0,2 16.998603,0 0,-2 -16.998603,0 z m 0,8 0,2 16.998603,0 0,-2 -16.998603,0 z m 0,8 0,2 16.998603,0 0,-2 -16.998603,0 z"
       inkscape:connector-curvature="0"
       id="rect3955"
       style="opacity:0.8;fill:#cadec2;fill-opacity:1;stroke:none" />
    <path
       d="m 58.715852,39.947791 0,15.473322 6.718259,0 -6.718259,20.631096 0,-15.473322 -6.718256,0 6.718256,-20.631096 z"
       inkscape:connector-curvature="0"
       id="path3887"
       style="fill:#f2f2f2;fill-opacity:0.8;stroke:none;display:inline" />
  </g>
</svg>
