<?xml version="1.0" encoding="UTF-8" standalone="no"?>
<!-- Created with Inkscape (http://www.inkscape.org/) -->

<svg
   xmlns:dc="http://purl.org/dc/elements/1.1/"
   xmlns:cc="http://creativecommons.org/ns#"
   xmlns:rdf="http://www.w3.org/1999/02/22-rdf-syntax-ns#"
   xmlns:svg="http://www.w3.org/2000/svg"
   xmlns="http://www.w3.org/2000/svg"
   xmlns:sodipodi="http://sodipodi.sourceforge.net/DTD/sodipodi-0.dtd"
   xmlns:inkscape="http://www.inkscape.org/namespaces/inkscape"
   width="96"
   height="96"
   id="svg2"
   version="1.1"
   inkscape:version="0.48.5 r10040"
   sodipodi:docname="gtk-recordmydesktop.svg">
  <defs
     id="defs4" />
  <sodipodi:namedview
     id="base"
     pagecolor="#ffffff"
     bordercolor="#666666"
     borderopacity="1.0"
     inkscape:pageopacity="0.0"
     inkscape:pageshadow="2"
     inkscape:zoom="5.6568545"
     inkscape:cx="-19.695366"
     inkscape:cy="34.449167"
     inkscape:document-units="px"
     inkscape:current-layer="layer1"
     showgrid="true"
     inkscape:window-width="1680"
     inkscape:window-height="991"
     inkscape:window-x="-2"
     inkscape:window-y="-3"
     inkscape:window-maximized="1"
     showguides="false">
    <sodipodi:guide
       position="4,44.000017"
       orientation="40,0"
       id="guide4083" />
    <sodipodi:guide
       position="4,4.0000174"
       orientation="0,40"
       id="guide4085" />
    <sodipodi:guide
       position="44,4.0000174"
       orientation="-40,0"
       id="guide4087" />
    <sodipodi:guide
       position="44,44.000017"
       orientation="0,-40"
       id="guide4089" />
    <sodipodi:guide
       position="9,39.000017"
       orientation="30,0"
       id="guide4115" />
    <sodipodi:guide
       position="9,9.0000174"
       orientation="0,30"
       id="guide4117" />
    <sodipodi:guide
       position="39,9.0000174"
       orientation="-30,0"
       id="guide4119" />
    <sodipodi:guide
       position="39,39.000017"
       orientation="0,-30"
       id="guide4121" />
    <sodipodi:guide
       position="14,34.000017"
       orientation="20,0"
       id="guide4125" />
    <sodipodi:guide
       position="14,14.000017"
       orientation="0,20"
       id="guide4127" />
    <sodipodi:guide
       position="34,14.000017"
       orientation="-20,0"
       id="guide4129" />
    <sodipodi:guide
       position="34,34.000017"
       orientation="0,-20"
       id="guide4131" />
    <inkscape:grid
       type="xygrid"
       id="grid3958"
       empspacing="5"
       visible="true"
       enabled="true"
       snapvisiblegridlinesonly="true" />
  </sodipodi:namedview>
  <metadata
     id="metadata7">
    <rdf:RDF>
      <cc:Work
         rdf:about="">
        <dc:format>image/svg+xml</dc:format>
        <dc:type
           rdf:resource="http://purl.org/dc/dcmitype/StillImage" />
        <dc:title />
      </cc:Work>
    </rdf:RDF>
  </metadata>
  <g
     inkscape:label="Capa 1"
     inkscape:groupmode="layer"
     id="layer1"
     transform="translate(0,-956.3622)">
    <g
       transform="matrix(1.6786866,0,0,1.6786866,58.840454,346.76352)"
       id="g3058" />
    <g
       id="g3023"
       transform="matrix(2.1000023,0,0,2.1000023,-52.800109,-1104.8007)">
      <g
         transform="translate(-1.9e-6,1004.3622)"
         id="g3913">
        <path
           inkscape:connector-curvature="0"
           style="fill:#2c3e50;fill-opacity:1;stroke:none"
           d="m 28.000002,-20 0,40 40,0 0,-40 -40,0 z m 3,3 3,0 0,3 -3,0 0,-3 z m 31,0 3,0 0,3 -3,0 0,-3 z m -31,7.5000001 3,0 0,3 -3,0 0,-3 z m 31,0 3,0 0,3 -3,0 0,-3 z m -31,8 3,0 0,3 -3,0 0,-3 z m 31,0 3,0 0,3 -3,0 0,-3 z m -31,8 3,0 0,3 -3,0 0,-3 z m 31,0 3,0 0,3 -3,0 0,-3 z m -31,7.4999999 3,0 0,3 -3,0 0,-3 z m 31,0 3,0 0,3 -3,0 0,-3 z"
           id="rect4197" />
      </g>
      <g
         transform="translate(24,-24.001583)"
         id="g3013">
        <path
           style="fill:#3498db;fill-opacity:1;stroke:none"
           d="m 13,7 0,8 22,0 0,-8 -6.0625,0 0,2.15625 0,0.875 0,0.03125 -4.5,0 0,1.125 1.59375,0 0,0.4375 -4.0625,0 0,-0.4375 1.59375,0 0,-1.125 -4.5,0 0,-0.03125 0,-0.875 L 19.0625,7 13,7 z m 6.5,0 0,2.15625 9,0 0,-2.15625 -9,0 z"
           id="rect4323"
           transform="translate(0,1004.3622)"
           inkscape:connector-curvature="0" />
        <path
           style="fill:#3498db;fill-opacity:1;stroke:none"
           d="m 13,33 0,8 6.0625,0 0,-5.53125 9.875,0 0,5.53125 6.0625,0 0,-8 -22,0 z m 6.5,3.15625 0,4.84375 9,0 0,-4.84375 -9,0 z"
           transform="translate(0,1004.3622)"
           id="rect4325"
           inkscape:connector-curvature="0" />
        <rect
           transform="translate(-1.9e-6,1004.3622)"
           style="fill:#3498db;fill-opacity:1;stroke:none"
           id="rect4186"
           width="21.99999"
           height="14"
           x="13.000008"
           y="17.000002" />
        <rect
           transform="translate(-1.9e-6,1004.3622)"
           style="fill:#e74c3c;fill-opacity:1;stroke:none"
           id="rect4069"
           width="4.232233"
           height="4.232233"
           x="21.883886"
           y="20.93371"
           ry="2.1161165" />
        <path
           transform="translate(-1.9e-6,1004.3622)"
           style="fill:#e74c3c;fill-opacity:1;stroke:none"
           d="m 24.000002,37.815665 c -1.172329,0 -2.125,0.952672 -2.125,2.125 0,0.397621 0.123265,0.745368 0.3125,1.0625 l 3.625,0 c 0.189235,-0.317132 0.3125,-0.664879 0.3125,-1.0625 0,-1.172328 -0.952671,-2.125 -2.125,-2.125 z"
           id="path4110"
           inkscape:connector-curvature="0" />
        <path
           transform="translate(-1.9e-6,1004.3622)"
           style="fill:#e74c3c;fill-opacity:1;stroke:none"
           d="m 22.250002,7 c 0.379537,0.5627134 1.017295,0.9375 1.75,0.9375 0.732705,0 1.370463,-0.3747866 1.75,-0.9375 l -3.5,0 z"
           id="rect4069-5"
           inkscape:connector-curvature="0" />
        <g
           transform="matrix(0.79724129,0,0,0.79724129,48.990184,705.78379)"
           id="layer1-3"
           inkscape:label="Capa 1">
          <path
             style="fill:#2c3e50;fill-opacity:1;stroke:none"
             d="m 19.0625,19.5 0,6.53125 0,0.875 0,0.03125 4.5,0 0,1.125 -1.59375,0 0,0.4375 4.0625,0 0,-0.4375 -1.59375,0 0,-1.125 4.5,0 0,-0.03125 0,-0.875 0,-6.53125 -9.875,0 z m 0.4375,0.6875 9,0 0,5.84375 -9,0 0,-5.84375 z"
             id="rect4118"
             transform="matrix(1.2543254,0,0,1.2543254,-61.449631,374.51448)"
             inkscape:connector-curvature="0" />
        </g>
      </g>
    </g>
    <g
       id="g3991"
       transform="translate(-35.062502,996.7997)" />
  </g>
</svg>
