<?xml version="1.0" encoding="UTF-8" standalone="no"?>
<!-- Created with Inkscape (http://www.inkscape.org/) -->

<svg
   xmlns:dc="http://purl.org/dc/elements/1.1/"
   xmlns:cc="http://creativecommons.org/ns#"
   xmlns:rdf="http://www.w3.org/1999/02/22-rdf-syntax-ns#"
   xmlns:svg="http://www.w3.org/2000/svg"
   xmlns="http://www.w3.org/2000/svg"
   xmlns:xlink="http://www.w3.org/1999/xlink"
   xmlns:sodipodi="http://sodipodi.sourceforge.net/DTD/sodipodi-0.dtd"
   xmlns:inkscape="http://www.inkscape.org/namespaces/inkscape"
   version="1.0"
   width="96"
   height="96"
   id="svg2408"
   inkscape:version="0.48.4 r9939"
   sodipodi:docname="internet-telephony.svg">
  <metadata
     id="metadata135">
    <rdf:RDF>
      <cc:Work
         rdf:about="">
        <dc:format>image/svg+xml</dc:format>
        <dc:type
           rdf:resource="http://purl.org/dc/dcmitype/StillImage" />
        <dc:title />
      </cc:Work>
    </rdf:RDF>
  </metadata>
  <sodipodi:namedview
     pagecolor="#ffffff"
     bordercolor="#666666"
     borderopacity="1"
     objecttolerance="10"
     gridtolerance="10"
     guidetolerance="10"
     inkscape:pageopacity="0"
     inkscape:pageshadow="2"
     inkscape:window-width="1366"
     inkscape:window-height="709"
     id="namedview133"
     showgrid="false"
     inkscape:zoom="3.3697883"
     inkscape:cx="54.939094"
     inkscape:cy="37.425758"
     inkscape:window-x="0"
     inkscape:window-y="-3"
     inkscape:window-maximized="1"
     inkscape:current-layer="svg2408" />
  <defs
     id="defs2410">
    <linearGradient
       id="linearGradient3891">
      <stop
         id="stop3893"
         style="stop-color:#ac6b0e;stop-opacity:1"
         offset="0" />
      <stop
         id="stop3895"
         style="stop-color:#bd750f;stop-opacity:0"
         offset="1" />
    </linearGradient>
    <linearGradient
       id="linearGradient3844">
      <stop
         id="stop3846"
         style="stop-color:#bd750f;stop-opacity:1"
         offset="0" />
      <stop
         id="stop3848"
         style="stop-color:#bd750f;stop-opacity:0"
         offset="1" />
    </linearGradient>
    <linearGradient
       id="linearGradient3828">
      <stop
         id="stop3830"
         style="stop-color:#eacc72;stop-opacity:1"
         offset="0" />
      <stop
         id="stop3836"
         style="stop-color:#d49110;stop-opacity:1"
         offset="1" />
    </linearGradient>
    <linearGradient
       id="linearGradient3544">
      <stop
         id="stop3546"
         style="stop-color:#040404;stop-opacity:1"
         offset="0" />
      <stop
         id="stop3548"
         style="stop-color:#4b4b4b;stop-opacity:1"
         offset="1" />
    </linearGradient>
    <linearGradient
       id="linearGradient3495">
      <stop
         id="stop3497"
         style="stop-color:#555555;stop-opacity:1"
         offset="0" />
      <stop
         id="stop3503"
         style="stop-color:#797979;stop-opacity:1"
         offset="0.43958005" />
      <stop
         id="stop3505"
         style="stop-color:#999999;stop-opacity:1"
         offset="0.57803553" />
      <stop
         id="stop3499"
         style="stop-color:#d3d3d3;stop-opacity:1"
         offset="1" />
    </linearGradient>
    <linearGradient
       id="linearGradient3436">
      <stop
         id="stop3438"
         style="stop-color:#ffffff;stop-opacity:1"
         offset="0" />
      <stop
         id="stop3440"
         style="stop-color:#ffffff;stop-opacity:0"
         offset="1" />
    </linearGradient>
    <linearGradient
       id="linearGradient3322">
      <stop
         id="stop3324"
         style="stop-color:#6b6b6b;stop-opacity:1"
         offset="0" />
      <stop
         id="stop3326"
         style="stop-color:#282828;stop-opacity:1"
         offset="1" />
    </linearGradient>
    <linearGradient
       id="linearGradient3330">
      <stop
         id="stop3332"
         style="stop-color:#f0f0f0;stop-opacity:1"
         offset="0" />
      <stop
         id="stop3338"
         style="stop-color:#b4b4b4;stop-opacity:1"
         offset="0.56385005" />
      <stop
         id="stop3340"
         style="stop-color:#a0a0a0;stop-opacity:1"
         offset="0.64175642" />
      <stop
         id="stop3334"
         style="stop-color:#787878;stop-opacity:1"
         offset="1" />
    </linearGradient>
    <linearGradient
       id="linearGradient3187">
      <stop
         id="stop3189"
         style="stop-color:#505050;stop-opacity:1"
         offset="0" />
      <stop
         id="stop3191"
         style="stop-color:#8c8c8c;stop-opacity:1"
         offset="1" />
    </linearGradient>
    <linearGradient
       x1="45.447727"
       y1="92.539597"
       x2="45.447727"
       y2="7.0165396"
       id="ButtonShadow"
       gradientUnits="userSpaceOnUse"
       gradientTransform="scale(1.0058652,0.994169)">
      <stop
         id="stop3750"
         style="stop-color:#000000;stop-opacity:1"
         offset="0" />
      <stop
         id="stop3752"
         style="stop-color:#000000;stop-opacity:0.58823532"
         offset="1" />
    </linearGradient>
    <linearGradient
       id="linearGradient3737">
      <stop
         id="stop3739"
         style="stop-color:#ffffff;stop-opacity:1"
         offset="0" />
      <stop
         id="stop3741"
         style="stop-color:#ffffff;stop-opacity:0"
         offset="1" />
    </linearGradient>
    <linearGradient
       x1="48"
       y1="90"
       x2="48"
       y2="5.9877172"
       id="linearGradient3706"
       xlink:href="#linearGradient3187"
       gradientUnits="userSpaceOnUse" />
    <filter
       color-interpolation-filters="sRGB"
       id="filter3174">
      <feGaussianBlur
         id="feGaussianBlur3176"
         stdDeviation="1.71" />
    </filter>
    <linearGradient
       x1="36.357143"
       y1="6"
       x2="36.357143"
       y2="63.893143"
       id="linearGradient3188"
       xlink:href="#linearGradient3737"
       gradientUnits="userSpaceOnUse" />
    <linearGradient
       x1="67.288132"
       y1="31.233255"
       x2="68.182961"
       y2="92.192421"
       id="linearGradient4782"
       xlink:href="#linearGradient3436"
       gradientUnits="userSpaceOnUse" />
    <linearGradient
       id="linearGradient3737-2">
      <stop
         id="stop3739-2"
         style="stop-color:#ffffff;stop-opacity:1"
         offset="0" />
      <stop
         id="stop3741-6"
         style="stop-color:#ffffff;stop-opacity:0"
         offset="1" />
    </linearGradient>
    <radialGradient
       cx="48"
       cy="90.171875"
       r="42"
       fx="48"
       fy="90.171875"
       id="radialGradient2874"
       xlink:href="#linearGradient3737-2"
       gradientUnits="userSpaceOnUse"
       gradientTransform="matrix(1.1573129,0,0,0.99590774,-7.551021,0.1971319)" />
    <linearGradient
       id="linearGradient3737-7">
      <stop
         id="stop3739-6"
         style="stop-color:#ffffff;stop-opacity:1"
         offset="0" />
      <stop
         id="stop3741-7"
         style="stop-color:#ffffff;stop-opacity:0"
         offset="1" />
    </linearGradient>
    <clipPath
       id="clipPath3613">
      <rect
         width="84"
         height="84"
         rx="6"
         ry="6"
         x="6"
         y="6"
         id="rect3615"
         style="fill:#ffffff;fill-opacity:1;fill-rule:nonzero;stroke:none" />
    </clipPath>
    <filter
       x="-0.192"
       y="-0.192"
       width="1.3839999"
       height="1.3839999"
       color-interpolation-filters="sRGB"
       id="filter3794">
      <feGaussianBlur
         id="feGaussianBlur3796"
         stdDeviation="5.28" />
    </filter>
    <linearGradient
       x1="48"
       y1="20.220806"
       x2="48"
       y2="138.66119"
       id="linearGradient2908"
       xlink:href="#linearGradient3737-7"
       gradientUnits="userSpaceOnUse" />
    <radialGradient
       cx="71.417786"
       cy="32.694695"
       r="34.448795"
       fx="71.417786"
       fy="32.694695"
       id="radialGradient3801"
       xlink:href="#linearGradient3330"
       gradientUnits="userSpaceOnUse"
       gradientTransform="matrix(-4.7003791e-8,1.4648233,-2.0367749,-6.5356785e-8,114.59173,-87.793832)" />
    <linearGradient
       x1="74.862663"
       y1="30.972258"
       x2="74.862663"
       y2="80.730537"
       id="linearGradient3803"
       xlink:href="#linearGradient3322"
       gradientUnits="userSpaceOnUse"
       gradientTransform="matrix(0.95273054,0,0,0.95273055,-20.041905,-14.328634)" />
    <radialGradient
       cx="86.749855"
       cy="80.75312"
       r="34.497154"
       fx="86.749855"
       fy="80.75312"
       id="radialGradient3838"
       xlink:href="#linearGradient3828"
       gradientUnits="userSpaceOnUse" />
    <linearGradient
       x1="32.347824"
       y1="48"
       x2="63.652176"
       y2="48"
       id="linearGradient3850"
       xlink:href="#linearGradient3844"
       gradientUnits="userSpaceOnUse" />
    <linearGradient
       x1="32.482758"
       y1="48"
       x2="63.517242"
       y2="48"
       id="linearGradient3858"
       xlink:href="#linearGradient3891"
       gradientUnits="userSpaceOnUse" />
    <linearGradient
       x1="59.141357"
       y1="31.833477"
       x2="59.141357"
       y2="99.173645"
       id="linearGradient3878"
       xlink:href="#linearGradient3544"
       gradientUnits="userSpaceOnUse" />
    <linearGradient
       x1="24"
       y1="48"
       x2="48"
       y2="48"
       id="linearGradient3966"
       xlink:href="#linearGradient3737"
       gradientUnits="userSpaceOnUse"
       gradientTransform="matrix(0.5,0.8660254,-0.8660254,0.5,65.569219,-17.569219)" />
    <linearGradient
       id="linearGradient3376">
      <stop
         id="stop3378"
         style="stop-color:#1c1c1c;stop-opacity:1"
         offset="0" />
      <stop
         id="stop3380"
         style="stop-color:#949494;stop-opacity:1"
         offset="1" />
    </linearGradient>
    <linearGradient
       id="linearGradient3366">
      <stop
         id="stop3368"
         style="stop-color:#c1ff97;stop-opacity:1"
         offset="0" />
      <stop
         id="stop3370"
         style="stop-color:#30c700;stop-opacity:1"
         offset="1" />
    </linearGradient>
    <linearGradient
       x1="15.706575"
       y1="85.0625"
       x2="20.471994"
       y2="85.0625"
       id="linearGradient4089"
       xlink:href="#linearGradient3495"
       gradientUnits="userSpaceOnUse" />
    <linearGradient
       x1="15.999999"
       y1="85.0625"
       x2="20.178572"
       y2="85.0625"
       id="linearGradient4091"
       xlink:href="#linearGradient3376"
       gradientUnits="userSpaceOnUse" />
    <linearGradient
       x1="15.999999"
       y1="85.0625"
       x2="20.178572"
       y2="85.0625"
       id="linearGradient4115"
       xlink:href="#linearGradient3737"
       gradientUnits="userSpaceOnUse" />
    <linearGradient
       x1="15.999999"
       y1="85.0625"
       x2="20.178572"
       y2="85.0625"
       id="linearGradient4123"
       xlink:href="#linearGradient3376"
       gradientUnits="userSpaceOnUse" />
    <radialGradient
       cx="18.089285"
       cy="85.0625"
       r="2.0892856"
       fx="18.089285"
       fy="85.0625"
       id="radialGradient4125"
       xlink:href="#linearGradient3366"
       gradientUnits="userSpaceOnUse"
       gradientTransform="matrix(1,0,0,1.0042736,0,-0.3635233)" />
    <linearGradient
       x1="15.999999"
       y1="85.0625"
       x2="20.178572"
       y2="85.0625"
       id="linearGradient4134"
       xlink:href="#linearGradient3376"
       gradientUnits="userSpaceOnUse" />
    <radialGradient
       cx="18.089285"
       cy="85.0625"
       r="2.0892856"
       fx="18.089285"
       fy="85.0625"
       id="radialGradient4136"
       xlink:href="#linearGradient3366"
       gradientUnits="userSpaceOnUse"
       gradientTransform="matrix(1,0,0,1.0042736,0,-0.3635233)" />
    <linearGradient
       x1="45.447727"
       y1="92.539597"
       x2="45.447727"
       y2="7.0165396"
       id="ButtonShadow-0"
       gradientUnits="userSpaceOnUse"
       gradientTransform="matrix(1.0058652,0,0,0.994169,100,0)">
      <stop
         id="stop3750-8"
         style="stop-color:#000000;stop-opacity:1"
         offset="0" />
      <stop
         id="stop3752-5"
         style="stop-color:#000000;stop-opacity:0.58823532"
         offset="1" />
    </linearGradient>
    <linearGradient
       x1="32.251034"
       y1="6.1317081"
       x2="32.251034"
       y2="90.238609"
       id="linearGradient3780"
       xlink:href="#ButtonShadow-0"
       gradientUnits="userSpaceOnUse"
       gradientTransform="matrix(1.0238095,0,0,1.0119048,-1.1428571,-98.071429)" />
    <linearGradient
       x1="32.251034"
       y1="6.1317081"
       x2="32.251034"
       y2="90.238609"
       id="linearGradient3772"
       xlink:href="#ButtonShadow-0"
       gradientUnits="userSpaceOnUse"
       gradientTransform="matrix(1.0238095,0,0,1.0119048,-1.1428571,-98.071429)" />
    <linearGradient
       x1="32.251034"
       y1="6.1317081"
       x2="32.251034"
       y2="90.238609"
       id="linearGradient3725-7"
       xlink:href="#ButtonShadow-0"
       gradientUnits="userSpaceOnUse"
       gradientTransform="matrix(1.0238095,0,0,1.0119048,-1.1428571,-98.071429)" />
    <linearGradient
       x1="32.251034"
       y1="6.1317081"
       x2="32.251034"
       y2="90.238609"
       id="linearGradient3721-5"
       xlink:href="#ButtonShadow-0"
       gradientUnits="userSpaceOnUse"
       gradientTransform="translate(0,-97)" />
    <linearGradient
       x1="32.251034"
       y1="6.1317081"
       x2="32.251034"
       y2="90.238609"
       id="linearGradient2918"
       xlink:href="#ButtonShadow-0"
       gradientUnits="userSpaceOnUse"
       gradientTransform="matrix(1.0238095,0,0,1.0119048,-1.1428571,-98.071429)" />
    <linearGradient
       inkscape:collect="always"
       xlink:href="#linearGradient3322"
       id="linearGradient3116"
       gradientUnits="userSpaceOnUse"
       gradientTransform="matrix(0.95273054,0,0,0.95273055,-20.041905,-14.328634)"
       x1="74.862663"
       y1="30.972258"
       x2="74.862663"
       y2="80.730537" />
  </defs>
  <g
     id="layer2"
     style="display:none">
    <rect
       width="86"
       height="85"
       rx="6"
       ry="6"
       x="5"
       y="7"
       id="rect3745"
       style="opacity:0.9;fill:url(#ButtonShadow);fill-opacity:1;fill-rule:nonzero;stroke:none;filter:url(#filter3174)" />
  </g>
  <g
     id="layer1">
    <rect
       width="84"
       height="84"
       rx="6"
       ry="0"
       x="6"
       y="6"
       id="rect2419"
       style="fill:#747474;fill-opacity:1;fill-rule:nonzero;stroke:none" />
  </g>
  <g
     id="layer4" />
  <g
     transform="matrix(0.98345139,0,0,1,-2.1746767,4.003344)"
     id="g3084"
     style="fill:#ffffff">
    <g
       id="g3086"
       transform="matrix(9.1566305,0,0,-9.1566305,38.30146,36.840376)"
       style="fill:#ffffff">
      <path
         inkscape:connector-curvature="0"
         d="m 0,0 0.488,0 c 0.139,0 0.25,0.11 0.25,0.248 l 0,1.455 c 0,0.138 -0.111,0.249 -0.25,0.249 L 0,1.952 0,0 z"
         style="fill:#ffffff;fill-opacity:1;fill-rule:nonzero;stroke:none"
         id="path3088" />
    </g>
    <g
       id="g3090"
       transform="matrix(9.1566305,0,0,-9.1566305,38.30146,63.389917)"
       style="fill:#ffffff">
      <path
         inkscape:connector-curvature="0"
         d="m 0,0 0.488,0 c 0.139,0 0.25,-0.111 0.25,-0.249 l 0,-1.455 c 0,-0.137 -0.111,-0.248 -0.25,-0.248 L 0,-1.952 0,0 z"
         style="fill:#ffffff;fill-opacity:1;fill-rule:nonzero;stroke:none"
         id="path3092" />
    </g>
    <g
       id="g3094"
       transform="matrix(9.1566305,0,0,-9.1566305,32.953988,50.11925)"
       style="fill:#ffffff">
      <path
         inkscape:connector-curvature="0"
         d="m 0,0 c -0.004,1.33 0.246,1.449 0.389,1.449 l 0.041,0 0,1.952 -0.051,0 C 0.125,3.401 -1.113,2.943 -1.113,0 c 0,-2.943 1.238,-3.401 1.492,-3.401 l 0.051,0 0,1.952 -0.041,0 C 0.246,-1.449 0.004,-1.329 0,0"
         style="fill:#ffffff;fill-opacity:1;fill-rule:nonzero;stroke:none"
         id="path3096" />
    </g>
    <g
       id="g3098"
       transform="matrix(9.1566305,0,0,-9.1566305,48.315885,24.08973)"
       style="fill:#ffffff">
      <path
         inkscape:connector-curvature="0"
         d="M 0,0 C 0.084,-0.101 0.129,-0.228 0.129,-0.358 0.129,-0.489 0.084,-0.616 0,-0.717 l 0.275,-0.226 c 0.135,0.164 0.209,0.372 0.209,0.585 0,0.212 -0.074,0.421 -0.209,0.585 L 0,0 z"
         style="fill:#ffffff;fill-opacity:1;fill-rule:nonzero;stroke:none"
         id="path3100" />
    </g>
    <g
       id="g3102"
       transform="matrix(9.1566305,0,0,-9.1566305,56.417892,38.709059)"
       style="fill:#ffffff">
      <path
         inkscape:connector-curvature="0"
         d="m 0,0 c 0.301,0.329 0.467,0.756 0.467,1.202 0,0.444 -0.164,0.871 -0.465,1.199 L -0.266,2.168 C -0.023,1.904 0.111,1.562 0.111,1.202 0.111,0.842 -0.023,0.498 -0.27,0.233 L 0,0 z"
         style="fill:#ffffff;fill-opacity:1;fill-rule:nonzero;stroke:none"
         id="path3104" />
    </g>
    <g
       id="g3106"
       transform="matrix(9.1566305,0,0,-9.1566305,61.997793,44.69215)"
       style="fill:#ffffff">
      <path
         inkscape:connector-curvature="0"
         d="m 0,0 c 0.467,0.493 0.725,1.14 0.725,1.818 0,0.677 -0.256,1.322 -0.719,1.815 L -0.258,3.393 C 0.145,2.966 0.367,2.406 0.367,1.818 0.367,1.229 0.145,0.668 -0.262,0.24 L 0,0 z"
         style="fill:#ffffff;fill-opacity:1;fill-rule:nonzero;stroke:none"
         id="path3108" />
    </g>
    <g
       id="g3110"
       transform="matrix(9.1566305,0,0,-9.1566305,67.595207,50.673994)"
       style="fill:#ffffff">
      <path
         inkscape:connector-curvature="0"
         d="m 0,0 c 0.631,0.658 0.979,1.523 0.979,2.436 0,0.909 -0.346,1.771 -0.973,2.428 L -0.252,4.618 C 0.313,4.027 0.623,3.252 0.623,2.436 0.623,1.615 0.311,0.838 -0.258,0.247 L 0,0 z"
         style="fill:#ffffff;fill-opacity:1;fill-rule:nonzero;stroke:none"
         id="path3112" />
    </g>
  </g>
  <g
     id="g3116"
     transform="translate(-1.6611033,4.3000985)">
    <g
       transform="matrix(9.1566305,0,0,-9.1566305,38.30146,36.840376)"
       id="g4100">
      <path
         id="path4102"
         style="fill:#231f20;fill-opacity:1;fill-rule:nonzero;stroke:none"
         d="m 0,0 0.488,0 c 0.139,0 0.25,0.11 0.25,0.248 l 0,1.455 c 0,0.138 -0.111,0.249 -0.25,0.249 L 0,1.952 0,0 z"
         inkscape:connector-curvature="0" />
    </g>
    <g
       transform="matrix(9.1566305,0,0,-9.1566305,38.30146,63.389917)"
       id="g4104">
      <path
         id="path4106"
         style="fill:#231f20;fill-opacity:1;fill-rule:nonzero;stroke:none"
         d="m 0,0 0.488,0 c 0.139,0 0.25,-0.111 0.25,-0.249 l 0,-1.455 c 0,-0.137 -0.111,-0.248 -0.25,-0.248 L 0,-1.952 0,0 z"
         inkscape:connector-curvature="0" />
    </g>
    <g
       transform="matrix(9.1566305,0,0,-9.1566305,32.953988,50.11925)"
       id="g4108">
      <path
         id="path4110"
         style="fill:#231f20;fill-opacity:1;fill-rule:nonzero;stroke:none"
         d="m 0,0 c -0.004,1.33 0.246,1.449 0.389,1.449 l 0.041,0 0,1.952 -0.051,0 C 0.125,3.401 -1.113,2.943 -1.113,0 c 0,-2.943 1.238,-3.401 1.492,-3.401 l 0.051,0 0,1.952 -0.041,0 C 0.246,-1.449 0.004,-1.329 0,0"
         inkscape:connector-curvature="0" />
    </g>
    <g
       transform="matrix(9.1566305,0,0,-9.1566305,48.315885,24.08973)"
       id="g4112">
      <path
         id="path4114"
         style="fill:#231f20;fill-opacity:1;fill-rule:nonzero;stroke:none"
         d="M 0,0 C 0.084,-0.101 0.129,-0.228 0.129,-0.358 0.129,-0.489 0.084,-0.616 0,-0.717 l 0.275,-0.226 c 0.135,0.164 0.209,0.372 0.209,0.585 0,0.212 -0.074,0.421 -0.209,0.585 L 0,0 z"
         inkscape:connector-curvature="0" />
    </g>
    <g
       transform="matrix(9.1566305,0,0,-9.1566305,56.417892,38.709059)"
       id="g4116">
      <path
         id="path4118"
         style="fill:#231f20;fill-opacity:1;fill-rule:nonzero;stroke:none"
         d="m 0,0 c 0.301,0.329 0.467,0.756 0.467,1.202 0,0.444 -0.164,0.871 -0.465,1.199 L -0.266,2.168 C -0.023,1.904 0.111,1.562 0.111,1.202 0.111,0.842 -0.023,0.498 -0.27,0.233 L 0,0 z"
         inkscape:connector-curvature="0" />
    </g>
    <g
       transform="matrix(9.1566305,0,0,-9.1566305,61.997793,44.69215)"
       id="g4124">
      <path
         id="path4126"
         style="fill:#231f20;fill-opacity:1;fill-rule:nonzero;stroke:none"
         d="m 0,0 c 0.467,0.493 0.725,1.14 0.725,1.818 0,0.677 -0.256,1.322 -0.719,1.815 L -0.258,3.393 C 0.145,2.966 0.367,2.406 0.367,1.818 0.367,1.229 0.145,0.668 -0.262,0.24 L 0,0 z"
         inkscape:connector-curvature="0" />
    </g>
    <g
       transform="matrix(9.1566305,0,0,-9.1566305,67.595207,50.673994)"
       id="g4132">
      <path
         id="path4134"
         style="fill:#231f20;fill-opacity:1;fill-rule:nonzero;stroke:none"
         d="m 0,0 c 0.631,0.658 0.979,1.523 0.979,2.436 0,0.909 -0.346,1.771 -0.973,2.428 L -0.252,4.618 C 0.313,4.027 0.623,3.252 0.623,2.436 0.623,1.615 0.311,0.838 -0.258,0.247 L 0,0 z"
         inkscape:connector-curvature="0" />
    </g>
  </g>
</svg>
