<?xml version="1.0" encoding="UTF-8" standalone="no"?>
<!-- Created with Inkscape (http://www.inkscape.org/) -->

<svg
   xmlns:dc="http://purl.org/dc/elements/1.1/"
   xmlns:cc="http://creativecommons.org/ns#"
   xmlns:rdf="http://www.w3.org/1999/02/22-rdf-syntax-ns#"
   xmlns:svg="http://www.w3.org/2000/svg"
   xmlns="http://www.w3.org/2000/svg"
   xmlns:xlink="http://www.w3.org/1999/xlink"
   xmlns:sodipodi="http://sodipodi.sourceforge.net/DTD/sodipodi-0.dtd"
   xmlns:inkscape="http://www.inkscape.org/namespaces/inkscape"
   version="1.0"
   width="96"
   height="96"
   id="svg2408"
   inkscape:version="0.48.5 r10040"
   sodipodi:docname="juk.svg">
  <sodipodi:namedview
     pagecolor="#ffffff"
     bordercolor="#666666"
     borderopacity="1"
     objecttolerance="10"
     gridtolerance="10"
     guidetolerance="10"
     inkscape:pageopacity="0"
     inkscape:pageshadow="2"
     inkscape:window-width="1680"
     inkscape:window-height="991"
     id="namedview62"
     showgrid="false"
     inkscape:zoom="6.744145"
     inkscape:cx="107.45692"
     inkscape:cy="46.832612"
     inkscape:window-x="-2"
     inkscape:window-y="-3"
     inkscape:window-maximized="1"
     inkscape:current-layer="svg2408" />
  <defs
     id="defs2410">
    <linearGradient
       id="linearGradient3775">
      <stop
         id="stop3777"
         style="stop-color:#dc916c;stop-opacity:1"
         offset="0" />
      <stop
         id="stop3779"
         style="stop-color:#dc916c;stop-opacity:0"
         offset="1" />
    </linearGradient>
    <linearGradient
       id="linearGradient3712">
      <stop
         id="stop3714"
         style="stop-color:#e7cf93;stop-opacity:1"
         offset="0" />
      <stop
         id="stop3716"
         style="stop-color:#fefef4;stop-opacity:1"
         offset="1" />
    </linearGradient>
    <linearGradient
       x1="45.447727"
       y1="92.539597"
       x2="45.447727"
       y2="7.0165396"
       id="ButtonShadow"
       gradientUnits="userSpaceOnUse"
       gradientTransform="scale(1.0058652,0.994169)">
      <stop
         id="stop3750"
         style="stop-color:#000000;stop-opacity:1"
         offset="0" />
      <stop
         id="stop3752"
         style="stop-color:#000000;stop-opacity:0.58823532"
         offset="1" />
    </linearGradient>
    <linearGradient
       id="linearGradient3737">
      <stop
         id="stop3739"
         style="stop-color:#ffffff;stop-opacity:1"
         offset="0" />
      <stop
         id="stop3741"
         style="stop-color:#ffffff;stop-opacity:0"
         offset="1" />
    </linearGradient>
    <linearGradient
       id="linearGradient3700">
      <stop
         id="stop3702"
         style="stop-color:#553025;stop-opacity:1"
         offset="0" />
      <stop
         id="stop3704"
         style="stop-color:#a55033;stop-opacity:1"
         offset="1" />
    </linearGradient>
    <filter
       color-interpolation-filters="sRGB"
       id="filter3174">
      <feGaussianBlur
         id="feGaussianBlur3176"
         stdDeviation="1.71" />
    </filter>
    <linearGradient
       x1="36.357143"
       y1="6"
       x2="36.357143"
       y2="63.893143"
       id="linearGradient3188"
       xlink:href="#linearGradient3737"
       gradientUnits="userSpaceOnUse" />
    <filter
       x="-0.192"
       y="-0.192"
       width="1.3839999"
       height="1.3839999"
       color-interpolation-filters="sRGB"
       id="filter3794">
      <feGaussianBlur
         id="feGaussianBlur3796"
         stdDeviation="5.28" />
    </filter>
    <linearGradient
       x1="48"
       y1="20.220806"
       x2="48"
       y2="138.66119"
       id="linearGradient3613"
       xlink:href="#linearGradient3737"
       gradientUnits="userSpaceOnUse" />
    <radialGradient
       cx="48"
       cy="90.171875"
       r="42"
       fx="48"
       fy="90.171875"
       id="radialGradient3619"
       xlink:href="#linearGradient3737"
       gradientUnits="userSpaceOnUse"
       gradientTransform="matrix(1.1573129,0,0,0.99590774,-7.5510206,0.19713193)" />
    <clipPath
       id="clipPath3613">
      <rect
         width="84"
         height="84"
         rx="6"
         ry="6"
         x="6"
         y="6"
         id="rect3615"
         style="fill:#ffffff;fill-opacity:1;fill-rule:nonzero;stroke:none" />
    </clipPath>
    <linearGradient
       x1="48"
       y1="90"
       x2="48"
       y2="5.9877172"
       id="linearGradient3617"
       xlink:href="#linearGradient3700"
       gradientUnits="userSpaceOnUse" />
    <linearGradient
       x1="45.447727"
       y1="92.539597"
       x2="45.447727"
       y2="7.0165396"
       id="ButtonShadow-0"
       gradientUnits="userSpaceOnUse"
       gradientTransform="matrix(1.0058652,0,0,0.994169,100,0)">
      <stop
         id="stop3750-8"
         style="stop-color:#000000;stop-opacity:1"
         offset="0" />
      <stop
         id="stop3752-5"
         style="stop-color:#000000;stop-opacity:0.58823532"
         offset="1" />
    </linearGradient>
    <linearGradient
       x1="32.251034"
       y1="6.1317081"
       x2="32.251034"
       y2="90.238609"
       id="linearGradient3780"
       xlink:href="#ButtonShadow-0"
       gradientUnits="userSpaceOnUse"
       gradientTransform="matrix(1.0238095,0,0,1.0119048,-1.1428571,-98.071429)" />
    <linearGradient
       x1="32.251034"
       y1="6.1317081"
       x2="32.251034"
       y2="90.238609"
       id="linearGradient3772"
       xlink:href="#ButtonShadow-0"
       gradientUnits="userSpaceOnUse"
       gradientTransform="matrix(1.0238095,0,0,1.0119048,-1.1428571,-98.071429)" />
    <linearGradient
       x1="32.251034"
       y1="6.1317081"
       x2="32.251034"
       y2="90.238609"
       id="linearGradient3725"
       xlink:href="#ButtonShadow-0"
       gradientUnits="userSpaceOnUse"
       gradientTransform="matrix(1.0238095,0,0,1.0119048,-1.1428571,-98.071429)" />
    <linearGradient
       x1="32.251034"
       y1="6.1317081"
       x2="32.251034"
       y2="90.238609"
       id="linearGradient3721"
       xlink:href="#ButtonShadow-0"
       gradientUnits="userSpaceOnUse"
       gradientTransform="translate(0,-97)" />
    <linearGradient
       x1="32.251034"
       y1="6.1317081"
       x2="32.251034"
       y2="90.238609"
       id="linearGradient3026"
       xlink:href="#ButtonShadow-0"
       gradientUnits="userSpaceOnUse"
       gradientTransform="matrix(1.0238095,0,0,1.0119048,-1.1428571,-98.071429)" />
    <linearGradient
       x1="47.2644"
       y1="77.865364"
       x2="47.2644"
       y2="12.540652"
       id="linearGradient3718"
       xlink:href="#linearGradient3712"
       gradientUnits="userSpaceOnUse" />
    <radialGradient
       cx="108.53934"
       cy="7.457119"
       r="56.542881"
       fx="108.53934"
       fy="7.457119"
       id="radialGradient2935"
       xlink:href="#linearGradient3775"
       gradientUnits="userSpaceOnUse"
       gradientTransform="matrix(-1.3703659,1.180354e-8,-1.2492802e-8,-1.4503877,228.44457,16.815712)" />
  </defs>
  <metadata
     id="metadata2413">
    <rdf:RDF>
      <cc:Work
         rdf:about="">
        <dc:format>image/svg+xml</dc:format>
        <dc:type
           rdf:resource="http://purl.org/dc/dcmitype/StillImage" />
        <dc:title />
      </cc:Work>
    </rdf:RDF>
  </metadata>
  <g
     id="layer2"
     style="display:none">
    <rect
       width="86"
       height="85"
       rx="6"
       ry="6"
       x="5"
       y="7"
       id="rect3745"
       style="opacity:0.9;fill:url(#ButtonShadow);fill-opacity:1;fill-rule:nonzero;stroke:none;filter:url(#filter3174)" />
  </g>
  <g
     id="layer1"
     style="fill:#33a944;fill-opacity:1"
     transform="translate(-0.91108991,0.52062281)">
    <rect
       width="84"
       height="84"
       rx="6"
       ry="0"
       x="6"
       y="6"
       id="rect2419"
       style="fill:#33a944;fill-opacity:1;fill-rule:nonzero;stroke:none" />
  </g>
  <g
     id="layer5" />
  <g
     id="g3032"
     transform="matrix(1.1094073,0,0,1.1094073,-5.2515525,-5.2515524)">
    <g
       transform="translate(0.82442211,0.13553536)"
       id="g3916">
      <path
         inkscape:connector-curvature="0"
         id="path3031"
         d="m 24.839591,17.427964 0,9.358971 0,21.976225 c -1.073949,-0.564299 -2.248128,-0.918604 -3.468258,-0.918531 -4.232057,2.35e-4 -8.077567,3.901522 -8.077567,8.1891 0,4.287346 3.84551,8.188872 8.077567,8.189103 4.232057,2.34e-4 8.086587,-3.901287 8.086587,-8.189103 l 0,-29.246794 25.400811,0 0,21.976225 c -1.073942,-0.564299 -2.248124,-0.918604 -3.468256,-0.918531 -4.232059,2.35e-4 -8.077568,3.901522 -8.077568,8.1891 0,4.287346 3.845509,8.188872 8.077568,8.189103 4.232057,2.34e-4 8.086586,-3.901287 8.086586,-8.189103 l 0,-29.246794 0,-9.358971 -34.63747,0 z"
         style="opacity:0.3;fill:#000000;fill-opacity:1;fill-rule:evenodd;stroke:none" />
      <path
         style="fill:#ff7f2a;fill-opacity:1;fill-rule:evenodd;stroke:none"
         d="m 24.69047,17.427964 0,9.06073 0,21.275912 c -1.060078,-0.546317 -2.219092,-0.889331 -3.423463,-0.889261 -4.177398,2.28e-4 -7.973241,3.777193 -7.973241,7.92814 0,4.150721 3.795843,7.927918 7.973241,7.928142 4.177398,2.26e-4 7.982144,-3.776966 7.982144,-7.928142 l 0,-28.314791 25.072746,0 0,21.275912 c -1.060071,-0.546317 -2.219088,-0.889331 -3.423462,-0.889261 -4.177399,2.28e-4 -7.973241,3.777193 -7.973241,7.92814 0,4.150721 3.795842,7.927918 7.973241,7.928142 4.177398,2.26e-4 7.982144,-3.776966 7.982144,-7.928142 l 0,-28.314791 0,-9.06073 -34.190109,0 z"
         id="folderGlyph"
         inkscape:connector-curvature="0" />
    </g>
    <rect
       rx="3.2154455"
       y="83.774597"
       x="-27.02113"
       height="25.712488"
       width="11.108162"
       id="rect3884"
       style="opacity:0.3;fill:#000000;fill-opacity:1;fill-rule:evenodd;stroke:none"
       transform="matrix(0.60386361,-0.79708766,0.84766943,0.53052478,0,0)" />
    <rect
       transform="matrix(0.63156038,-0.7753267,0.86425041,0.50306186,0,0)"
       style="fill:#ff7f2a;fill-opacity:1;fill-rule:evenodd;stroke:none"
       id="rect3819"
       width="10.460745"
       height="24.838621"
       x="-29.167847"
       y="84.926178"
       rx="3.0280397" />
    <rect
       transform="matrix(0.63818026,-0.76988697,0.86802964,0.49651238,0,0)"
       rx="2.2217069"
       y="87.774498"
       x="-28.608299"
       height="19.011747"
       width="7.6751671"
       id="rect3821"
       style="opacity:0.9;fill:#e1eaf6;fill-opacity:1;fill-rule:evenodd;stroke:none" />
    <text
       transform="matrix(0.83261617,0.55385044,-0.55385044,0.83261617,0,0)"
       sodipodi:linespacing="125%"
       id="text3933"
       y="19.997982"
       x="88.948586"
       style="font-size:6.41291809px;font-style:normal;font-variant:normal;font-weight:normal;font-stretch:normal;line-height:125%;letter-spacing:0px;word-spacing:0px;fill:#000000;fill-opacity:1;stroke:none;font-family:DejaVu Sans;-inkscape-font-specification:DejaVu Sans"
       xml:space="preserve"><tspan
         y="19.997982"
         x="88.948586"
         id="tspan3935"
         sodipodi:role="line">Juk</tspan></text>
    <path
       inkscape:connector-curvature="0"
       id="path3035"
       d="m 54.045686,58.370727 c 0,0 0.799408,1.284763 1.855768,1.456065 1.05636,0.171301 0.342603,1.484614 0.342603,1.484614 0,0 -2.05562,1.113461 -2.255472,1.113461 -0.199852,0 -1.884319,-3.08343 0.0571,-4.05414 z"
       style="fill:#ff7f2a;fill-opacity:1;stroke:none" />
    <path
       d="m 59.94329,61.897366 c 0,0.420698 -0.370557,0.761742 -0.827663,0.761742 -0.457105,0 -0.827662,-0.341044 -0.827662,-0.761742 0,-0.420699 0.370557,-0.761743 0.827662,-0.761743 0.457106,0 0.827663,0.341044 0.827663,0.761743 z"
       sodipodi:ry="0.76174271"
       sodipodi:rx="0.82766271"
       sodipodi:cy="61.897366"
       sodipodi:cx="59.115627"
       id="path3064"
       style="color:#000000;fill:#ff7f2a;fill-opacity:1;fill-rule:nonzero;stroke:none;stroke-width:3.79999995;marker:none;visibility:visible;display:inline;overflow:visible;enable-background:accumulate"
       sodipodi:type="arc" />
    <rect
       transform="matrix(0.58068476,-0.8141285,0.8141285,0.58068476,0,0)"
       ry="0.5004341"
       rx="3.0280397"
       y="80.288918"
       x="-16.716217"
       height="4.0034728"
       width="1.3159562"
       id="rect3066"
       style="color:#000000;fill:#808080;fill-opacity:1;fill-rule:nonzero;stroke:none;stroke-width:3.79999995;marker:none;visibility:visible;display:inline;overflow:visible;enable-background:accumulate" />
  </g>
</svg>
