<?xml version="1.0" encoding="UTF-8" standalone="no"?>
<!-- Created with Inkscape (http://www.inkscape.org/) -->

<svg
   xmlns:dc="http://purl.org/dc/elements/1.1/"
   xmlns:cc="http://creativecommons.org/ns#"
   xmlns:rdf="http://www.w3.org/1999/02/22-rdf-syntax-ns#"
   xmlns:svg="http://www.w3.org/2000/svg"
   xmlns="http://www.w3.org/2000/svg"
   xmlns:xlink="http://www.w3.org/1999/xlink"
   xmlns:sodipodi="http://sodipodi.sourceforge.net/DTD/sodipodi-0.dtd"
   xmlns:inkscape="http://www.inkscape.org/namespaces/inkscape"
   version="1.0"
   width="96"
   height="96"
   id="svg2408"
   inkscape:version="0.48.4 r9939"
   sodipodi:docname="kaddressbook.svg">
  <sodipodi:namedview
     pagecolor="#ffffff"
     bordercolor="#666666"
     borderopacity="1"
     objecttolerance="10"
     gridtolerance="10"
     guidetolerance="10"
     inkscape:pageopacity="0"
     inkscape:pageshadow="2"
     inkscape:window-width="1366"
     inkscape:window-height="709"
     id="namedview105"
     showgrid="false"
     inkscape:zoom="3.0394944"
     inkscape:cx="-13.964145"
     inkscape:cy="37.379776"
     inkscape:window-x="0"
     inkscape:window-y="-3"
     inkscape:window-maximized="1"
     inkscape:current-layer="svg2408" />
  <defs
     id="defs2410">
    <linearGradient
       id="linearGradient3853">
      <stop
         id="stop3855"
         style="stop-color:#000000;stop-opacity:1"
         offset="0" />
      <stop
         id="stop3857"
         style="stop-color:#313131;stop-opacity:1"
         offset="1" />
    </linearGradient>
    <linearGradient
       x1="45.447727"
       y1="92.539597"
       x2="45.447727"
       y2="7.0165396"
       id="ButtonShadow"
       gradientUnits="userSpaceOnUse"
       gradientTransform="scale(1.0058652,0.994169)">
      <stop
         id="stop3750"
         style="stop-color:#000000;stop-opacity:1"
         offset="0" />
      <stop
         id="stop3752"
         style="stop-color:#000000;stop-opacity:0.58823532"
         offset="1" />
    </linearGradient>
    <linearGradient
       id="linearGradient3737">
      <stop
         id="stop3739"
         style="stop-color:#ffffff;stop-opacity:1"
         offset="0" />
      <stop
         id="stop3741"
         style="stop-color:#ffffff;stop-opacity:0"
         offset="1" />
    </linearGradient>
    <linearGradient
       id="linearGradient3700">
      <stop
         id="stop3702"
         style="stop-color:#da8714;stop-opacity:1"
         offset="0" />
      <stop
         id="stop3704"
         style="stop-color:#f4d468;stop-opacity:1"
         offset="1" />
    </linearGradient>
    <filter
       color-interpolation-filters="sRGB"
       id="filter3174">
      <feGaussianBlur
         id="feGaussianBlur3176"
         stdDeviation="1.71" />
    </filter>
    <linearGradient
       x1="36.357143"
       y1="6"
       x2="36.357143"
       y2="63.893143"
       id="linearGradient3188"
       xlink:href="#linearGradient3737"
       gradientUnits="userSpaceOnUse" />
    <filter
       x="-0.192"
       y="-0.192"
       width="1.3839999"
       height="1.3839999"
       color-interpolation-filters="sRGB"
       id="filter3794">
      <feGaussianBlur
         id="feGaussianBlur3796"
         stdDeviation="5.28" />
    </filter>
    <linearGradient
       x1="48"
       y1="20.220806"
       x2="48"
       y2="138.66119"
       id="linearGradient3613"
       xlink:href="#linearGradient3737"
       gradientUnits="userSpaceOnUse" />
    <radialGradient
       cx="48"
       cy="90.171875"
       r="42"
       fx="48"
       fy="90.171875"
       id="radialGradient3619"
       xlink:href="#linearGradient3737"
       gradientUnits="userSpaceOnUse"
       gradientTransform="matrix(1.1573129,0,0,0.99590774,-7.5510206,0.19713193)" />
    <clipPath
       id="clipPath3613">
      <rect
         width="84"
         height="84"
         rx="6"
         ry="6"
         x="6"
         y="6"
         id="rect3615"
         style="fill:#ffffff;fill-opacity:1;fill-rule:nonzero;stroke:none" />
    </clipPath>
    <linearGradient
       x1="48"
       y1="90"
       x2="48"
       y2="5.9877172"
       id="linearGradient3617"
       xlink:href="#linearGradient3700"
       gradientUnits="userSpaceOnUse" />
    <linearGradient
       id="linearGradient5060">
      <stop
         id="stop5062"
         style="stop-color:#000000;stop-opacity:1"
         offset="0" />
      <stop
         id="stop5064"
         style="stop-color:#000000;stop-opacity:0"
         offset="1" />
    </linearGradient>
    <linearGradient
       id="linearGradient6954">
      <stop
         id="stop6960"
         style="stop-color:#f5f5f5;stop-opacity:1"
         offset="0" />
      <stop
         id="stop6962"
         style="stop-color:#d2d2d2;stop-opacity:1"
         offset="1" />
    </linearGradient>
    <linearGradient
       id="linearGradient3785">
      <stop
         id="stop3787"
         style="stop-color:#bdbdbd;stop-opacity:1"
         offset="0" />
      <stop
         id="stop3789"
         style="stop-color:#8c8c8c;stop-opacity:1"
         offset="1" />
    </linearGradient>
    <linearGradient
       id="linearGradient3341">
      <stop
         id="stop3343"
         style="stop-color:#ffffff;stop-opacity:1"
         offset="0" />
      <stop
         id="stop3345"
         style="stop-color:#ffffff;stop-opacity:0"
         offset="1" />
    </linearGradient>
    <linearGradient
       id="linearGradient2895">
      <stop
         id="stop2897"
         style="stop-color:#000000;stop-opacity:1"
         offset="0" />
      <stop
         id="stop2899"
         style="stop-color:#000000;stop-opacity:0"
         offset="1" />
    </linearGradient>
    <linearGradient
       x1="27.055927"
       y1="5.134068"
       x2="43.429096"
       y2="5.134068"
       id="linearGradient2949"
       xlink:href="#linearGradient2895"
       gradientUnits="userSpaceOnUse"
       gradientTransform="matrix(0.85509232,0,0,1.178723,-69.95703,42.805784)" />
    <radialGradient
       cx="30"
       cy="33.1875"
       r="4.6875"
       fx="30"
       fy="33.1875"
       id="radialGradient2952"
       xlink:href="#linearGradient5060"
       gradientUnits="userSpaceOnUse"
       gradientTransform="matrix(1.5279732,-7.0647448e-7,2.1308638e-7,0.46086628,-85.660631,57.562164)" />
    <linearGradient
       x1="38"
       y1="39"
       x2="43"
       y2="38.599998"
       id="linearGradient2955"
       xlink:href="#linearGradient5060"
       gradientUnits="userSpaceOnUse"
       gradientTransform="translate(-69.821429,42.857143)" />
    <linearGradient
       x1="22"
       y1="39"
       x2="17"
       y2="37.4375"
       id="linearGradient2958"
       xlink:href="#linearGradient5060"
       gradientUnits="userSpaceOnUse"
       gradientTransform="translate(-69.821429,42.857143)" />
    <radialGradient
       cx="26.375898"
       cy="12.31301"
       r="8"
       fx="26.375898"
       fy="12.31301"
       id="radialGradient2961"
       xlink:href="#linearGradient6954"
       gradientUnits="userSpaceOnUse"
       gradientTransform="matrix(1.640165,-0.1325824,0.12811381,1.5848844,-88.21778,37.629717)" />
    <linearGradient
       x1="30"
       y1="5"
       x2="30"
       y2="44.678879"
       id="linearGradient2963"
       xlink:href="#linearGradient3785"
       gradientUnits="userSpaceOnUse"
       gradientTransform="translate(-69.821429,42.857143)" />
    <linearGradient
       x1="24.786562"
       y1="53.869164"
       x2="24.87495"
       y2="83.5"
       id="linearGradient2966"
       xlink:href="#linearGradient3341"
       gradientUnits="userSpaceOnUse"
       gradientTransform="translate(-65.69638,3.357143)" />
    <radialGradient
       cx="24.999998"
       cy="28.659998"
       r="16"
       fx="24.999998"
       fy="28.659998"
       id="radialGradient2969"
       xlink:href="#linearGradient6954"
       gradientUnits="userSpaceOnUse"
       gradientTransform="matrix(1.3125,0,0,0.37326701,-77.633927,63.159311)" />
    <linearGradient
       x1="30"
       y1="25.084745"
       x2="30"
       y2="45"
       id="linearGradient2971"
       xlink:href="#linearGradient3785"
       gradientUnits="userSpaceOnUse"
       gradientTransform="translate(-69.821429,42.857143)" />
    <radialGradient
       cx="32"
       cy="41.5"
       r="21"
       fx="32"
       fy="41.5"
       id="radialGradient2974"
       xlink:href="#linearGradient5060"
       gradientUnits="userSpaceOnUse"
       gradientTransform="matrix(0.85714286,0,0,0.28571429,-67.25,72)" />
    <filter
       x="-0.20689654"
       y="-0.2857143"
       width="1.4137931"
       height="1.5714287"
       color-interpolation-filters="sRGB"
       id="filter3842">
      <feGaussianBlur
         id="feGaussianBlur3844"
         stdDeviation="5" />
    </filter>
    <clipPath
       id="clipPath3846">
      <path
         d="m 102,6 c -3.324,0 -6,2.676 -6,6 l 0,72 c 0,3.324 2.676,6 6,6 l 72,0 c 3.324,0 6,-2.676 6,-6 l 0,-72 c 0,-3.324 -2.676,-6 -6,-6 l -72,0 z m 36,21 c 4.27575,0 7.7501,3.22498 7.75,7.21875 -0.017,0.50192 -0.053,1.06898 -0.0937,1.65625 0.5842,0.43883 0.63569,1.74219 0.0625,3.09375 -0.20688,0.48783 -0.46974,0.90718 -0.75,1.25 -0.0907,0.424 -0.13328,0.75622 -0.25,1.25 -0.31758,0.95347 -1.58219,2.81614 -2.53125,4.28125 -0.0612,0.9744 -0.0577,1.9482 0.0625,2.9375 1.59781,1.39047 4.55784,2.451439 6.96875,3.46875 0.99952,-0.415702 1.91915,-0.840829 2.5625,-1.375 0.1571,-0.91653 0.1406,-1.7255 0.0625,-2.53125 -0.78289,-1.0445 -1.65985,-2.26031 -1.875,-2.90625 -0.0694,-0.31812 -0.0988,-0.53048 -0.15625,-0.8125 -0.008,-0.0088 -0.0232,-0.02225 -0.0312,-0.03125 -0.24058,-0.27087 -0.48169,-0.61965 -0.65625,-1.03125 -0.45269,-1.06743 -0.3825,-2.10425 0.125,-2.375 -0.0357,-0.42697 -0.0545,-0.81298 -0.0625,-1.15625 0,-2.99532 2.60569,-5.4375 5.8125,-5.4375 3.20682,0 5.8125,2.44217 5.8125,5.4375 -0.0127,0.37644 -0.0632,0.7783 -0.0937,1.21875 0.43815,0.32912 0.49239,1.29882 0.0625,2.3125 -0.15516,0.36587 -0.35231,0.68039 -0.5625,0.9375 -0.068,0.318 -0.1,0.56717 -0.1875,0.9375 -0.23818,0.7151 -1.1632,2.11991 -1.875,3.21875 -0.0459,0.7308 -0.0589,1.47678 0.0312,2.21875 2.22581,1.93697 8.02225,2.96722 8.03125,4.625 L 167,60.46875 c 0,1.01728 -1.51441,1.92514 -3.90625,2.5625 l -0.4375,1.4375 a 0.84317393,0.843822 0 0 1 -0.5,0.53125 c -0.10882,0.04212 -0.1705,0.13205 -0.46875,0.21875 C 160.11641,65.67522 157.68988,66 155,66 c -2.51238,0 -4.74599,-0.278913 -6.3125,-0.6875 l -0.46875,1.65625 a 1.1242319,1.125096 0 0 1 -0.65625,0.71875 c -0.1451,0.05616 -0.25859,0.16571 -0.65625,0.28125 C 144.81146,68.57738 141.58651,69 138,69 c -3.58651,0 -6.78021,-0.42262 -8.875,-1.03125 -0.39766,-0.11554 -0.51115,-0.22505 -0.65625,-0.28125 a 1.1242319,1.125096 0 0 1 -0.6875,-0.75 L 127.375,65.28125 C 125.80443,65.695778 123.53462,66 121,66 118.31012,66 115.91484,65.67522 114.34375,65.21875 114.0455,65.1321 113.98382,65.0421 113.875,65 a 0.84317393,0.843822 0 0 1 -0.53125,-0.5625 L 113,63.0625 c -2.45175,-0.63836 -4,-1.56194 -4,-2.59375 l 0.78125,-5.0625 c -0.009,-1.93697 5.74656,-2.75398 8,-4.625 0.1571,-0.91653 0.1406,-1.7255 0.0625,-2.53125 -0.78289,-1.0445 -1.65985,-2.26031 -1.875,-2.90625 -0.0695,-0.31812 -0.0988,-0.53048 -0.15625,-0.8125 -0.008,-0.0088 -0.0233,-0.02225 -0.0312,-0.03125 -0.24058,-0.27087 -0.48169,-0.61965 -0.65625,-1.03125 -0.45269,-1.06743 -0.3825,-2.10425 0.125,-2.375 -0.0357,-0.42697 -0.0545,-0.81298 -0.0625,-1.15625 0,-2.99532 2.60569,-5.4375 5.8125,-5.4375 3.20682,0 5.8125,2.44217 5.8125,5.4375 -0.0127,0.37644 -0.0631,0.7783 -0.0937,1.21875 0.43815,0.32912 0.49239,1.29882 0.0625,2.3125 -0.15516,0.36587 -0.35231,0.68039 -0.5625,0.9375 -0.068,0.318 -0.1,0.56717 -0.1875,0.9375 -0.23818,0.7151 -1.1632,2.11991 -1.875,3.21875 -0.0459,0.7308 -0.0589,1.47678 0.0312,2.21875 0.56995,0.49599 1.36884,0.938591 2.25,1.34375 2.44969,-1.03953 5.58983,-2.033128 7.28125,-3.4375 0.20939,-1.22203 0.19785,-2.26942 0.0937,-3.34375 -1.04386,-1.39267 -2.24438,-3.01374 -2.53125,-3.875 -0.0926,-0.42416 -0.14215,-0.71772 -0.21875,-1.09375 -0.0107,-0.0118 -0.0205,-0.01925 -0.0312,-0.03125 -0.32077,-0.36116 -0.64226,-0.82619 -0.875,-1.375 -0.60358,-1.42323 -0.52042,-2.82649 0.15625,-3.1875 -0.0476,-0.56929 -0.0521,-1.10481 -0.0625,-1.5625 C 130.25,30.22497 133.72425,27 138,27 z"
         inkscape:connector-curvature="0"
         id="path3849"
         style="fill:url(#linearGradient3851);fill-opacity:1;fill-rule:nonzero;stroke:none" />
    </clipPath>
    <linearGradient
       x1="48"
       y1="90"
       x2="48"
       y2="5.9877172"
       id="linearGradient3851"
       xlink:href="#linearGradient3700"
       gradientUnits="userSpaceOnUse"
       gradientTransform="translate(90,0)" />
    <linearGradient
       x1="48"
       y1="27"
       x2="48"
       y2="69"
       id="linearGradient3859"
       xlink:href="#linearGradient3853"
       gradientUnits="userSpaceOnUse" />
    <linearGradient
       x1="45.447727"
       y1="92.539597"
       x2="45.447727"
       y2="7.0165396"
       id="ButtonShadow-0"
       gradientUnits="userSpaceOnUse"
       gradientTransform="matrix(1.0058652,0,0,0.994169,100,0)">
      <stop
         id="stop3750-8"
         style="stop-color:#000000;stop-opacity:1"
         offset="0" />
      <stop
         id="stop3752-5"
         style="stop-color:#000000;stop-opacity:0.58823532"
         offset="1" />
    </linearGradient>
    <linearGradient
       x1="32.251034"
       y1="6.1317081"
       x2="32.251034"
       y2="90.238609"
       id="linearGradient3780"
       xlink:href="#ButtonShadow-0"
       gradientUnits="userSpaceOnUse"
       gradientTransform="matrix(1.0238095,0,0,1.0119048,-1.1428571,-98.071429)" />
    <linearGradient
       x1="32.251034"
       y1="6.1317081"
       x2="32.251034"
       y2="90.238609"
       id="linearGradient3772"
       xlink:href="#ButtonShadow-0"
       gradientUnits="userSpaceOnUse"
       gradientTransform="matrix(1.0238095,0,0,1.0119048,-1.1428571,-98.071429)" />
    <linearGradient
       x1="32.251034"
       y1="6.1317081"
       x2="32.251034"
       y2="90.238609"
       id="linearGradient3725"
       xlink:href="#ButtonShadow-0"
       gradientUnits="userSpaceOnUse"
       gradientTransform="matrix(1.0238095,0,0,1.0119048,-1.1428571,-98.071429)" />
    <linearGradient
       x1="32.251034"
       y1="6.1317081"
       x2="32.251034"
       y2="90.238609"
       id="linearGradient3721"
       xlink:href="#ButtonShadow-0"
       gradientUnits="userSpaceOnUse"
       gradientTransform="translate(0,-97)" />
    <linearGradient
       x1="32.251034"
       y1="6.1317081"
       x2="32.251034"
       y2="90.238609"
       id="linearGradient3059"
       xlink:href="#ButtonShadow-0"
       gradientUnits="userSpaceOnUse"
       gradientTransform="matrix(1.0238095,0,0,1.0119048,-1.1428571,-98.071429)" />
    <linearGradient
       inkscape:collect="always"
       xlink:href="#linearGradient2895"
       id="linearGradient3108"
       gradientUnits="userSpaceOnUse"
       gradientTransform="matrix(0.85509232,0,0,1.178723,-69.95703,42.805784)"
       x1="27.055927"
       y1="5.134068"
       x2="43.429096"
       y2="5.134068" />
    <radialGradient
       inkscape:collect="always"
       xlink:href="#linearGradient5060"
       id="radialGradient3111"
       gradientUnits="userSpaceOnUse"
       gradientTransform="matrix(1.5279732,-7.0647448e-7,2.1308638e-7,0.46086628,-85.660631,57.562164)"
       cx="30"
       cy="33.1875"
       fx="30"
       fy="33.1875"
       r="4.6875" />
    <linearGradient
       inkscape:collect="always"
       xlink:href="#linearGradient5060"
       id="linearGradient3114"
       gradientUnits="userSpaceOnUse"
       gradientTransform="translate(-69.821429,42.857143)"
       x1="38"
       y1="39"
       x2="43"
       y2="38.599998" />
    <linearGradient
       inkscape:collect="always"
       xlink:href="#linearGradient5060"
       id="linearGradient3117"
       gradientUnits="userSpaceOnUse"
       gradientTransform="translate(-69.821429,42.857143)"
       x1="22"
       y1="39"
       x2="17"
       y2="37.4375" />
    <radialGradient
       inkscape:collect="always"
       xlink:href="#linearGradient6954"
       id="radialGradient3120"
       gradientUnits="userSpaceOnUse"
       gradientTransform="matrix(1.640165,-0.1325824,0.12811381,1.5848844,-88.21778,37.629717)"
       cx="26.375898"
       cy="12.31301"
       fx="26.375898"
       fy="12.31301"
       r="8" />
    <linearGradient
       inkscape:collect="always"
       xlink:href="#linearGradient3785"
       id="linearGradient3122"
       gradientUnits="userSpaceOnUse"
       gradientTransform="translate(-69.821429,42.857143)"
       x1="30"
       y1="5"
       x2="30"
       y2="44.678879" />
    <linearGradient
       inkscape:collect="always"
       xlink:href="#linearGradient3341"
       id="linearGradient3125"
       gradientUnits="userSpaceOnUse"
       gradientTransform="translate(-65.69638,3.357143)"
       x1="24.786562"
       y1="53.869164"
       x2="24.87495"
       y2="83.5" />
    <radialGradient
       inkscape:collect="always"
       xlink:href="#linearGradient6954"
       id="radialGradient3128"
       gradientUnits="userSpaceOnUse"
       gradientTransform="matrix(1.3125,0,0,0.37326701,-77.633927,63.159311)"
       cx="24.999998"
       cy="28.659998"
       fx="24.999998"
       fy="28.659998"
       r="16" />
    <linearGradient
       inkscape:collect="always"
       xlink:href="#linearGradient3785"
       id="linearGradient3130"
       gradientUnits="userSpaceOnUse"
       gradientTransform="translate(-69.821429,42.857143)"
       x1="30"
       y1="25.084745"
       x2="30"
       y2="45" />
    <radialGradient
       inkscape:collect="always"
       xlink:href="#linearGradient5060"
       id="radialGradient3133"
       gradientUnits="userSpaceOnUse"
       gradientTransform="matrix(0.85714286,0,0,0.28571429,-67.25,72)"
       cx="32"
       cy="41.5"
       fx="32"
       fy="41.5"
       r="21" />
  </defs>
  <metadata
     id="metadata2413">
    <rdf:RDF>
      <cc:Work
         rdf:about="">
        <dc:format>image/svg+xml</dc:format>
        <dc:type
           rdf:resource="http://purl.org/dc/dcmitype/StillImage" />
        <dc:title />
      </cc:Work>
    </rdf:RDF>
  </metadata>
  <g
     id="layer2"
     style="display:none">
    <rect
       width="86"
       height="85"
       rx="6"
       ry="6"
       x="5"
       y="7"
       id="rect3745"
       style="opacity:0.9;fill:url(#ButtonShadow);fill-opacity:1;fill-rule:nonzero;stroke:none;filter:url(#filter3174)" />
  </g>
  <g
     id="layer1">
    <rect
       width="84"
       height="84"
       rx="6"
       ry="0"
       x="6"
       y="6"
       id="rect2419"
       style="fill:#cccccc;fill-opacity:1;fill-rule:nonzero;stroke:none" />
  </g>
  <g
     id="layer5" />
  <rect
     style="opacity:0.9;fill:#ffffff;fill-opacity:1;fill-rule:evenodd;stroke:none"
     id="rect3080"
     width="41.454262"
     height="42.112267"
     x="6.9090433"
     y="7.8274398"
     rx="6" />
  <path
     d="m 26.833008,10.906567 c -4.992394,0 -9.036172,4.003501 -9.036172,8.930057 0.01212,0.564585 0.01563,1.195057 0.07116,1.897319 -0.790083,0.445319 -0.89448,2.19078 -0.189735,3.946425 0.271754,0.67698 0.645292,1.224137 1.01983,1.669642 0.01248,0.0149 0.03486,0.0361 0.04744,0.0506 0.0894,0.463857 0.152766,0.817547 0.260886,1.340774 0.334945,1.062418 1.72209,3.063317 2.940905,4.781246 0.121546,1.325261 0.125962,2.641344 -0.118585,4.148805 C 18.32057,40.74878 9.3401536,42.12548 9.3536011,45.31131 l -0.1660198,1.214276 35.2908727,0 -0.16602,-1.214285 c -0.01431,-2.726645 -9.033699,-4.454046 -12.498851,-7.639875 -0.140299,-1.220349 -0.166287,-2.415576 -0.09487,-3.617558 1.10813,-1.8073 2.570098,-4.136338 2.940905,-5.312494 0.136281,-0.60911 0.202478,-1.020128 0.30832,-1.543153 0.327231,-0.422888 0.635972,-0.916098 0.87753,-1.517857 0.66926,-1.667237 0.587239,-3.278617 -0.09487,-3.819937 0.04767,-0.724434 0.09866,-1.40466 0.118585,-2.023808 6e-6,-4.926546 -4.043779,-8.930047 -9.036173,-8.930047 z"
     inkscape:connector-curvature="0"
     id="path3798-9"
     style="fill:#1a1a1a;fill-opacity:1;stroke:none;display:inline;enable-background:new" />
  <g
     transform="matrix(1.7176984,0,0,1.4333175,31.005513,-6.7359658)"
     id="g23"
     style="fill:#ffffff;fill-opacity:1">
    <text
       sodipodi:linespacing="125%"
       style="font-size:10.50872612000000039px;font-weight:bold;line-height:125%;letter-spacing:0px;word-spacing:0px;fill:#1a1a1a;fill-opacity:1;font-family:TheMixPlain"
       line-height="125%"
       font-weight="bold"
       font-size="12px"
       y="20.141726"
       x="13.651586"
       xml:space="preserve"
       id="text25"
       transform="scale(0.87572745,1.1419078)"><tspan
         y="20.141726"
         x="13.651586"
         id="tspan27"
         style="fill:#1a1a1a;fill-opacity:1;font-size:3.82390058000000010px">kaddress</tspan></text>
    <path
       style="fill:#ffffff;fill-opacity:1;stroke:#f9f9f9;stroke-width:1.13801479px;stroke-opacity:1"
       inkscape:connector-curvature="0"
       d="m 12,26.5 h 4"
       id="path29" />
    <path
       style="fill:#ffffff;fill-opacity:1;stroke:#f9f9f9;stroke-width:1.13801479px;stroke-opacity:1"
       inkscape:connector-curvature="0"
       d="m 17,26.5 h 1"
       id="path31" />
    <path
       style="fill:#ffffff;fill-opacity:1;stroke:#f9f9f9;stroke-width:1.13801479px;stroke-opacity:1"
       inkscape:connector-curvature="0"
       d="m 19,26.5 h 5"
       id="path33" />
    <path
       style="fill:#ffffff;fill-opacity:1;stroke:#f9f9f9;stroke-width:1.13801479px;stroke-opacity:1"
       inkscape:connector-curvature="0"
       d="m 25,26.5 h 2"
       id="path35" />
    <path
       style="fill:#ffffff;fill-opacity:1;stroke:#f9f9f9;stroke-width:1.13801467px;stroke-opacity:1"
       inkscape:connector-curvature="0"
       d="m 28.34629,26.5 h 1.086573"
       id="path37" />
    <path
       style="fill:#ffffff;fill-opacity:1;stroke:#f9f9f9;stroke-width:1.13801479px;stroke-opacity:1"
       inkscape:connector-curvature="0"
       d="M 30.581768,26.5 H 32.72721"
       id="path39" />
    <path
       style="fill:#ffffff;fill-opacity:1;stroke:#f9f9f9;stroke-width:1.13801479px;stroke-opacity:1"
       inkscape:connector-curvature="0"
       d="m 12,28.5 h 1"
       id="path41" />
    <path
       style="fill:#ffffff;fill-opacity:1;stroke:#f9f9f9;stroke-width:1.13801479px;stroke-opacity:1"
       inkscape:connector-curvature="0"
       d="m 14,28.5 h 4"
       id="path43" />
    <path
       style="fill:#ffffff;fill-opacity:1;stroke:#f9f9f9;stroke-width:1.13801479px;stroke-opacity:1"
       inkscape:connector-curvature="0"
       d="m 19,28.5 h 3"
       id="path45" />
    <path
       style="fill:#ffffff;fill-opacity:1;stroke:#f9f9f9;stroke-width:1.13801479px;stroke-opacity:1"
       inkscape:connector-curvature="0"
       d="m 23,28.5 h 2"
       id="path47" />
    <path
       style="fill:#ffffff;fill-opacity:1;stroke:#f9f9f9;stroke-width:1.13801467px;stroke-opacity:1"
       inkscape:connector-curvature="0"
       d="m 26.173145,28.5 h 3.259718"
       id="path49" />
    <path
       style="fill:#ffffff;fill-opacity:1;stroke:#f9f9f9;stroke-width:1.13801479px;stroke-opacity:1"
       inkscape:connector-curvature="0"
       d="M 30.581768,28.5 H 32.72721"
       id="path51" />
    <path
       style="fill:#ffffff;fill-opacity:1;stroke:#f9f9f9;stroke-width:1.13801479px;stroke-opacity:1"
       inkscape:connector-curvature="0"
       d="m 12,30.5 h 3"
       id="path53" />
    <path
       style="fill:#ffffff;fill-opacity:1;stroke:#f9f9f9;stroke-width:1.13801479px;stroke-opacity:1"
       inkscape:connector-curvature="0"
       d="m 16,30.5 h 2"
       id="path55" />
    <path
       style="fill:#ffffff;fill-opacity:1;stroke:#f9f9f9;stroke-width:1.13801479px;stroke-opacity:1"
       inkscape:connector-curvature="0"
       d="m 19,30.5 h 7"
       id="path57" />
    <path
       style="fill:#ffffff;fill-opacity:1;stroke:#f9f9f9;stroke-width:1.13801467px;stroke-opacity:1"
       inkscape:connector-curvature="0"
       d="M 27.259717,30.5 H 28.34629"
       id="path59" />
    <path
       style="fill:#ffffff;fill-opacity:1;stroke:#f9f9f9;stroke-width:1.13801479px;stroke-opacity:1"
       inkscape:connector-curvature="0"
       d="M 29.509047,30.5 H 32.72721"
       id="path61" />
    <path
       style="fill:#ffffff;fill-opacity:1;stroke:#f9f9f9;stroke-width:1.13801479px;stroke-opacity:1"
       inkscape:connector-curvature="0"
       d="m 12,32.5 h 4"
       id="path63" />
    <path
       style="fill:#ffffff;fill-opacity:1;stroke:#f9f9f9;stroke-width:1.13801479px;stroke-opacity:1"
       inkscape:connector-curvature="0"
       d="m 17,32.5 h 2"
       id="path65" />
    <path
       style="fill:#ffffff;fill-opacity:1;stroke:#f9f9f9;stroke-width:1.13801479px;stroke-opacity:1"
       inkscape:connector-curvature="0"
       d="m 20,32.5 h 1"
       id="path67" />
    <path
       style="fill:#ffffff;fill-opacity:1;stroke:#f9f9f9;stroke-width:1.13801479px;stroke-opacity:1"
       inkscape:connector-curvature="0"
       d="m 22,32.5 h 1"
       id="path69" />
    <path
       style="fill:#ffffff;fill-opacity:1;stroke:#f9f9f9;stroke-width:1.13801467px;stroke-opacity:1"
       inkscape:connector-curvature="0"
       d="M 23.999999,32.5 H 28.34629"
       id="path71" />
    <path
       style="fill:#ffffff;fill-opacity:1;stroke:#f9f9f9;stroke-width:1.13801479px;stroke-opacity:1"
       inkscape:connector-curvature="0"
       d="M 29.509047,32.5 H 32.72721"
       id="path73" />
    <path
       style="fill:#ffffff;fill-opacity:1;stroke:#f9f9f9;stroke-width:1.13801479px;stroke-opacity:1"
       inkscape:connector-curvature="0"
       d="m 12,34.5 h 3"
       id="path75" />
    <path
       style="fill:#ffffff;fill-opacity:1;stroke:#f9f9f9;stroke-width:1.13801479px;stroke-opacity:1"
       inkscape:connector-curvature="0"
       d="m 16,34.5 h 1"
       id="path77" />
    <path
       style="fill:#ffffff;fill-opacity:1;stroke:#f9f9f9;stroke-width:1.13801479px;stroke-opacity:1"
       inkscape:connector-curvature="0"
       d="m 18,34.5 h 2"
       id="path79" />
    <path
       style="fill:#ffffff;fill-opacity:1;stroke:#f9f9f9;stroke-width:1.13801479px;stroke-opacity:1"
       inkscape:connector-curvature="0"
       d="m 21,34.5 h 6"
       id="path81" />
    <path
       style="fill:#ffffff;fill-opacity:1;stroke:#f9f9f9;stroke-width:1.13801467px;stroke-opacity:1"
       inkscape:connector-curvature="0"
       d="m 28.34629,34.5 h 2.173146"
       id="path83" />
    <path
       style="fill:#ffffff;fill-opacity:1;stroke:#f9f9f9;stroke-width:1.13801479px;stroke-opacity:1"
       inkscape:connector-curvature="0"
       d="M 31.654489,34.5 H 32.72721"
       id="path85" />
    <path
       style="fill:#ffffff;fill-opacity:1;stroke:#f9f9f9;stroke-width:1.13801479px;stroke-opacity:1"
       inkscape:connector-curvature="0"
       d="m 12,36.5 h 2"
       id="path87" />
    <path
       style="fill:#ffffff;fill-opacity:1;stroke:#f9f9f9;stroke-width:1.13801479px;stroke-opacity:1"
       inkscape:connector-curvature="0"
       d="m 15,36.5 h 6"
       id="path89" />
    <path
       style="fill:#ffffff;fill-opacity:1;stroke:#f9f9f9;stroke-width:1.13801479px;stroke-opacity:1"
       inkscape:connector-curvature="0"
       d="m 21.999999,36.5 h 5.363606 5.363605"
       id="path91" />
    <path
       style="fill:#ffffff;fill-opacity:1;stroke:#f9f9f9;stroke-width:1.13801479px;stroke-opacity:1"
       inkscape:connector-curvature="0"
       d="m 12,38.5 h 3"
       id="path93" />
    <path
       style="fill:#ffffff;fill-opacity:1;stroke:#f9f9f9;stroke-width:1.13801479px;stroke-opacity:1"
       inkscape:connector-curvature="0"
       d="m 16,38.5 h 4"
       id="path95" />
  </g>
  <rect
     style="opacity:0.9;fill:#1a1a1a;fill-opacity:1;fill-rule:evenodd;stroke:none"
     id="rect3929"
     width="79.94751"
     height="3.6190231"
     x="8.0262451"
     y="55.558731"
     rx="0" />
  <g
     id="g3944"
     transform="translate(-0.98700628,8.8830565)">
    <rect
       y="61.125778"
       x="10.528067"
       height="19.411123"
       width="2.6320167"
       id="rect3931"
       style="opacity:0.9;fill:#1a1a1a;fill-opacity:1;fill-rule:evenodd;stroke:none" />
    <rect
       style="opacity:0.9;fill:#1a1a1a;fill-opacity:1;fill-rule:evenodd;stroke:none"
       id="rect3933"
       width="2.6320167"
       height="19.411123"
       x="16.528067"
       y="61.125778" />
    <rect
       y="61.125778"
       x="22.528067"
       height="19.411123"
       width="2.6320167"
       id="rect3938"
       style="opacity:0.9;fill:#1a1a1a;fill-opacity:1;fill-rule:evenodd;stroke:none" />
    <rect
       style="opacity:0.9;fill:#1a1a1a;fill-opacity:1;fill-rule:evenodd;stroke:none"
       id="rect3940"
       width="2.6320167"
       height="19.411123"
       x="28.528067"
       y="61.125778" />
    <rect
       y="61.125778"
       x="34.528069"
       height="19.411123"
       width="2.6320167"
       id="rect3942"
       style="opacity:0.9;fill:#1a1a1a;fill-opacity:1;fill-rule:evenodd;stroke:none" />
  </g>
</svg>
