<?xml version="1.0" encoding="UTF-8" standalone="no"?>
<!-- Created with Inkscape (http://www.inkscape.org/) -->

<svg
   xmlns:dc="http://purl.org/dc/elements/1.1/"
   xmlns:cc="http://creativecommons.org/ns#"
   xmlns:rdf="http://www.w3.org/1999/02/22-rdf-syntax-ns#"
   xmlns:svg="http://www.w3.org/2000/svg"
   xmlns="http://www.w3.org/2000/svg"
   xmlns:xlink="http://www.w3.org/1999/xlink"
   xmlns:sodipodi="http://sodipodi.sourceforge.net/DTD/sodipodi-0.dtd"
   xmlns:inkscape="http://www.inkscape.org/namespaces/inkscape"
   version="1.0"
   width="96"
   height="96"
   id="svg2408"
   inkscape:version="0.48.5 r10040"
   sodipodi:docname="calligraauthor.svg">
  <sodipodi:namedview
     pagecolor="#ffffff"
     bordercolor="#666666"
     borderopacity="1"
     objecttolerance="10"
     gridtolerance="10"
     guidetolerance="10"
     inkscape:pageopacity="0"
     inkscape:pageshadow="2"
     inkscape:window-width="1680"
     inkscape:window-height="988"
     id="namedview54"
     showgrid="false"
     inkscape:zoom="6.6940502"
     inkscape:cx="35.551234"
     inkscape:cy="50.180586"
     inkscape:window-x="0"
     inkscape:window-y="-3"
     inkscape:window-maximized="1"
     inkscape:current-layer="svg2408" />
  <defs
     id="defs2410">
    <linearGradient
       x1="45.447727"
       y1="92.539597"
       x2="45.447727"
       y2="7.0165396"
       id="ButtonShadow"
       gradientUnits="userSpaceOnUse"
       gradientTransform="scale(1.0058652,0.994169)">
      <stop
         id="stop3750"
         style="stop-color:#000000;stop-opacity:1"
         offset="0" />
      <stop
         id="stop3752"
         style="stop-color:#000000;stop-opacity:0.58823532"
         offset="1" />
    </linearGradient>
    <linearGradient
       id="linearGradient3737">
      <stop
         id="stop3739"
         style="stop-color:#ffffff;stop-opacity:1"
         offset="0" />
      <stop
         id="stop3741"
         style="stop-color:#ffffff;stop-opacity:0"
         offset="1" />
    </linearGradient>
    <filter
       color-interpolation-filters="sRGB"
       id="filter3174">
      <feGaussianBlur
         id="feGaussianBlur3176"
         stdDeviation="1.71" />
    </filter>
    <linearGradient
       x1="36.357143"
       y1="6"
       x2="36.357143"
       y2="63.893143"
       id="linearGradient3188"
       xlink:href="#linearGradient3737"
       gradientUnits="userSpaceOnUse" />
    <filter
       x="-0.192"
       y="-0.192"
       width="1.3839999"
       height="1.3839999"
       color-interpolation-filters="sRGB"
       id="filter3794">
      <feGaussianBlur
         id="feGaussianBlur3796"
         stdDeviation="5.28" />
    </filter>
    <linearGradient
       x1="48"
       y1="20.220806"
       x2="48"
       y2="138.66119"
       id="linearGradient3613"
       xlink:href="#linearGradient3737"
       gradientUnits="userSpaceOnUse" />
    <radialGradient
       cx="48"
       cy="90.171875"
       r="42"
       fx="48"
       fy="90.171875"
       id="radialGradient3619"
       xlink:href="#linearGradient3737"
       gradientUnits="userSpaceOnUse"
       gradientTransform="matrix(1.1573129,0,0,0.99590774,-7.5510206,0.19713193)" />
    <clipPath
       id="clipPath3613">
      <rect
         width="84"
         height="84"
         rx="6"
         ry="6"
         x="6"
         y="6"
         id="rect3615"
         style="fill:#ffffff;fill-opacity:1;fill-rule:nonzero;stroke:none" />
    </clipPath>
    <linearGradient
       x1="48"
       y1="90"
       x2="48"
       y2="5.9877172"
       id="linearGradient3617"
       xlink:href="#linearGradient3640"
       gradientUnits="userSpaceOnUse" />
    <linearGradient
       x1="45.447727"
       y1="92.539597"
       x2="45.447727"
       y2="7.0165396"
       id="ButtonShadow-0"
       gradientUnits="userSpaceOnUse"
       gradientTransform="matrix(1.0058652,0,0,0.994169,100,0)">
      <stop
         id="stop3750-8"
         style="stop-color:#000000;stop-opacity:1"
         offset="0" />
      <stop
         id="stop3752-5"
         style="stop-color:#000000;stop-opacity:0.58823532"
         offset="1" />
    </linearGradient>
    <linearGradient
       x1="32.251034"
       y1="6.1317081"
       x2="32.251034"
       y2="90.238609"
       id="linearGradient3780"
       xlink:href="#ButtonShadow-0"
       gradientUnits="userSpaceOnUse"
       gradientTransform="matrix(1.0238095,0,0,1.0119048,-1.1428571,-98.071429)" />
    <linearGradient
       x1="32.251034"
       y1="6.1317081"
       x2="32.251034"
       y2="90.238609"
       id="linearGradient3772"
       xlink:href="#ButtonShadow-0"
       gradientUnits="userSpaceOnUse"
       gradientTransform="matrix(1.0238095,0,0,1.0119048,-1.1428571,-98.071429)" />
    <linearGradient
       x1="32.251034"
       y1="6.1317081"
       x2="32.251034"
       y2="90.238609"
       id="linearGradient3725"
       xlink:href="#ButtonShadow-0"
       gradientUnits="userSpaceOnUse"
       gradientTransform="matrix(1.0238095,0,0,1.0119048,-1.1428571,-98.071429)" />
    <linearGradient
       x1="32.251034"
       y1="6.1317081"
       x2="32.251034"
       y2="90.238609"
       id="linearGradient3721"
       xlink:href="#ButtonShadow-0"
       gradientUnits="userSpaceOnUse"
       gradientTransform="translate(0,-97)" />
    <linearGradient
       x1="32.251034"
       y1="6.1317081"
       x2="32.251034"
       y2="90.238609"
       id="linearGradient3026"
       xlink:href="#ButtonShadow-0"
       gradientUnits="userSpaceOnUse"
       gradientTransform="matrix(1.0238095,0,0,1.0119048,-1.1428571,-98.071429)" />
    <linearGradient
       id="linearGradient3640">
      <stop
         id="stop3642"
         style="stop-color:#2a782a;stop-opacity:1"
         offset="0" />
      <stop
         id="stop3644"
         style="stop-color:#278f27;stop-opacity:1"
         offset="1" />
    </linearGradient>
  </defs>
  <metadata
     id="metadata2413">
    <rdf:RDF>
      <cc:Work
         rdf:about="">
        <dc:format>image/svg+xml</dc:format>
        <dc:type
           rdf:resource="http://purl.org/dc/dcmitype/StillImage" />
        <dc:title></dc:title>
      </cc:Work>
    </rdf:RDF>
  </metadata>
  <g
     id="layer2"
     style="display:none">
    <rect
       width="86"
       height="85"
       rx="6"
       ry="6"
       x="5"
       y="7"
       id="rect3745"
       style="opacity:0.9;fill:url(#ButtonShadow);fill-opacity:1;fill-rule:nonzero;stroke:none;filter:url(#filter3174)" />
  </g>
  <g
     id="layer1"
     style="fill:#17547d;fill-opacity:1">
    <rect
       width="84"
       height="84"
       rx="6"
       ry="0"
       x="6"
       y="6"
       id="rect2419"
       style="fill:#17547d;fill-opacity:1;fill-rule:nonzero;stroke:none" />
    <path
       d="M 12,6 C 8.676,6 6,8.676 6,12 l 0,2 0,68 0,2 c 0,0.334721 0.04135,0.6507 0.09375,0.96875 0.0487,0.295596 0.09704,0.596915 0.1875,0.875 0.00988,0.03038 0.020892,0.0636 0.03125,0.09375 0.098865,0.287771 0.2348802,0.547452 0.375,0.8125 0.1445918,0.273507 0.3156161,0.535615 0.5,0.78125 0.1843839,0.245635 0.3737765,0.473472 0.59375,0.6875 0.439947,0.428056 0.94291,0.814526 1.5,1.09375 0.278545,0.139612 0.5734731,0.246947 0.875,0.34375 -0.2562018,-0.100222 -0.4867109,-0.236272 -0.71875,-0.375 -0.00741,-0.0044 -0.023866,0.0045 -0.03125,0 -0.031933,-0.0193 -0.062293,-0.04251 -0.09375,-0.0625 -0.120395,-0.0767 -0.2310226,-0.163513 -0.34375,-0.25 -0.1061728,-0.0808 -0.2132809,-0.161112 -0.3125,-0.25 C 8.4783201,88.557317 8.3087904,88.373362 8.15625,88.1875 8.0486711,88.057245 7.9378561,87.922215 7.84375,87.78125 7.818661,87.74287 7.805304,87.69538 7.78125,87.65625 7.716487,87.553218 7.6510225,87.451733 7.59375,87.34375 7.4927417,87.149044 7.3880752,86.928049 7.3125,86.71875 7.30454,86.69694 7.288911,86.6782 7.28125,86.65625 7.2494249,86.5643 7.2454455,86.469419 7.21875,86.375 7.1884177,86.268382 7.1483606,86.171969 7.125,86.0625 7.0521214,85.720988 7,85.364295 7,85 L 7,83 7,15 7,13 C 7,10.218152 9.2181517,8 12,8 l 2,0 68,0 2,0 c 2.781848,0 5,2.218152 5,5 l 0,2 0,68 0,2 c 0,0.364295 -0.05212,0.720988 -0.125,1.0625 -0.04415,0.206893 -0.08838,0.397658 -0.15625,0.59375 -0.0077,0.02195 -0.0233,0.04069 -0.03125,0.0625 -0.06274,0.173739 -0.138383,0.367449 -0.21875,0.53125 -0.04158,0.0828 -0.07904,0.169954 -0.125,0.25 -0.0546,0.09721 -0.126774,0.18835 -0.1875,0.28125 -0.09411,0.140965 -0.204921,0.275995 -0.3125,0.40625 -0.143174,0.17445 -0.303141,0.346998 -0.46875,0.5 -0.01117,0.0102 -0.01998,0.02115 -0.03125,0.03125 -0.138386,0.125556 -0.285091,0.234436 -0.4375,0.34375 -0.102571,0.07315 -0.204318,0.153364 -0.3125,0.21875 -0.0074,0.0045 -0.02384,-0.0044 -0.03125,0 -0.232039,0.138728 -0.462548,0.274778 -0.71875,0.375 0.301527,-0.0968 0.596455,-0.204138 0.875,-0.34375 0.55709,-0.279224 1.060053,-0.665694 1.5,-1.09375 0.219973,-0.214028 0.409366,-0.441865 0.59375,-0.6875 0.184384,-0.245635 0.355408,-0.507743 0.5,-0.78125 0.14012,-0.265048 0.276135,-0.524729 0.375,-0.8125 0.01041,-0.03078 0.02133,-0.06274 0.03125,-0.09375 0.09046,-0.278085 0.1388,-0.579404 0.1875,-0.875 C 89.95865,84.6507 90,84.334721 90,84 l 0,-2 0,-68 0,-2 C 90,8.676 87.324,6 84,6 L 12,6 z"
       inkscape:connector-curvature="0"
       id="rect3728"
       style="opacity:0.29999999999999999;fill:#17547d;fill-opacity:1;fill-rule:nonzero;stroke:none" />
  </g>
  <path
     inkscape:connector-curvature="0"
     id="path3906"
     d="m 46.395199,18.981987 -1.543748,0.02161 c -0.08688,0.0011 -0.29068,0.09527 -0.614407,0.06175 -0.232111,0.01605 -0.464024,0.03131 -0.694692,0.05249 0.01407,0.04263 0.01346,0.09331 -0.01235,0.16055 -0.04168,0.108571 -0.217162,0.145542 -0.669982,0.145107 -0.662354,-6.92e-4 -1.451123,0.18277 -1.451123,0.336542 -2e-5,0.05224 0.13337,0.09571 0.296399,0.09571 0.27991,0 0.2964,0.02195 0.2964,0.395199 -2e-5,0.333904 0.03083,0.3952 0.203775,0.3952 0.112592,0 0.390457,-0.108591 0.617499,-0.240825 0.227042,-0.132224 0.66936,-0.337629 0.981824,-0.453867 0.312435,-0.116199 0.5681,-0.247187 0.5681,-0.293307 -2e-5,-0.135267 0.545256,-0.217558 0.947856,-0.142025 l 0.3705,0.07102 -0.314915,0.280958 c -0.173661,0.155145 -0.382445,0.284049 -0.463134,0.284049 -0.08067,0 -0.145108,0.06669 -0.145108,0.1482 -2e-5,0.08151 0.08466,0.1482 0.191425,0.1482 0.243967,0 0.464794,0.36879 0.311832,0.521792 -0.05838,0.05834 -0.362704,0.137282 -0.676157,0.175982 -0.637249,0.07868 -0.913938,0.184015 -1.389373,0.53105 -0.178976,0.130653 -0.645806,0.312346 -1.037399,0.401374 -0.746186,0.169659 -1.823224,0.485809 -2.241523,0.657642 -0.241813,0.09929 -0.242652,0.101645 -0.0494,0.243907 0.14164,0.104284 0.335673,0.129754 0.691599,0.08645 0.903071,-0.109885 1.574495,-0.268716 1.945123,-0.456949 0.480415,-0.243977 0.867997,-0.249964 0.805832,-0.01235 -0.03225,0.123243 0.04093,0.205108 0.250092,0.284049 0.230896,0.08716 0.31042,0.191247 0.364325,0.478558 0.05432,0.289523 0.134398,0.396345 0.38285,0.500184 0.324755,0.135682 0.845974,0.780134 0.845974,1.046656 -2e-5,0.111002 -0.07778,0.137066 -0.2964,0.104975 -0.320566,-0.04705 -0.371547,0.05552 -0.191425,0.392117 0.09486,0.177228 0.08342,0.193638 -0.0988,0.13585 -0.113333,-0.03599 -0.288456,-0.03905 -0.392117,-0.0062 -0.429414,0.136285 -0.296123,0.337877 0.741,1.108418 0.715064,0.531286 0.984639,0.781645 0.861416,0.802749 -0.321801,0.05512 -0.954269,0.324567 -1.244266,0.531049 -0.254578,0.181259 -0.27661,0.240756 -0.219207,0.58045 0.0613,0.362931 0.04866,0.385942 -0.302575,0.555749 -0.309797,0.149781 -0.407589,0.280799 -0.629849,0.845974 -0.144772,0.368178 -0.375964,0.783503 -0.512525,0.920074 -0.234195,0.234176 -0.263924,0.240509 -0.531049,0.101883 -0.155818,-0.08082 -0.319667,-0.126385 -0.364325,-0.0988 -0.130189,0.08047 -0.0952,0.518156 0.06793,0.833634 0.140069,0.270899 0.13497,0.318689 -0.0741,0.710114 -0.147587,0.276255 -0.2223,0.592395 -0.2223,0.916992 -2e-5,0.485117 -0.0058,0.494474 -0.321099,0.524874 -0.341166,0.03289 -0.418813,0.208587 -0.179075,0.40755 0.22143,0.183768 0.06982,0.399991 -0.277875,0.398282 -0.349554,-0.0017 -1.696157,-0.920094 -1.593148,-1.086799 0.03268,-0.05292 0.387424,-0.09571 0.787306,-0.09571 0.718967,0 0.729065,-0.0044 0.932434,-0.33345 0.113087,-0.183017 0.206858,-0.490275 0.206858,-0.682342 -2e-5,-0.302812 -0.04198,-0.362872 -0.311842,-0.456949 -0.171142,-0.05965 -0.493447,-0.111348 -0.7163,-0.114233 -0.381071,-0.0049 -1.0867,-0.116485 -2.488512,-0.389024 -0.818913,-0.159206 -1.233161,-0.03074 -1.994533,0.614407 -0.68577,0.581091 -1.04889,1.062187 -1.148549,1.515966 -0.05754,0.262007 -0.105054,0.296439 -0.336532,0.262432 -0.193124,-0.02836 -0.333983,0.03265 -0.50635,0.216135 -0.131562,0.140019 -0.193065,0.256257 -0.13585,0.256257 0.05722,0 0.159345,0.130712 0.225383,0.290225 0.09951,0.240281 0.09299,0.337727 -0.03705,0.568099 -0.08632,0.152942 -0.242732,0.477944 -0.3458,0.722474 -0.103078,0.24453 -0.659104,1.089269 -1.234999,1.877198 -1.301906,1.781264 -1.468848,2.114051 -1.522131,3.031922 -0.03511,0.605169 -0.0077,0.764781 0.175983,1.062099 0.118925,0.192443 0.281451,0.351975 0.361242,0.351975 0.25769,0 0.672284,-0.269941 0.907724,-0.589707 0.175103,-0.237881 0.292349,-0.304274 0.493999,-0.280967 0.21157,0.02445 0.269566,0.0879 0.2964,0.324182 0.01846,0.162437 0.162941,0.473459 0.3211,0.688517 0.353931,0.481264 0.362289,0.69317 0.03397,1.176331 -0.14734,0.216787 -0.235302,0.456307 -0.206867,0.565017 0.02721,0.104026 0.01029,0.191425 -0.03705,0.191425 -0.177385,0 -0.290225,-0.403213 -0.290225,-1.034307 -2e-5,-0.833328 -0.174431,-0.944043 -0.657642,-0.416817 -0.293356,0.320092 -0.330357,0.421816 -0.330357,0.916982 -2e-5,0.306941 0.05228,0.736938 0.117325,0.954041 0.114667,0.382692 0.10704,0.404289 -0.200682,0.67925 -0.174609,0.155995 -0.401306,0.284049 -0.50635,0.284049 -0.22394,0 -0.590961,0.459588 -0.867591,1.086799 -0.230836,0.523304 -0.558783,0.846626 -0.954042,0.944774 l -0.284049,0.07102 0.07102,-0.651467 c 0.06817,-0.636509 0.06341,-0.650291 -0.20995,-0.824367 -0.369126,-0.235074 -0.39766,-0.279515 -0.614417,-0.991081 -0.102297,-0.335801 -0.324735,-0.819091 -0.497082,-1.074449 L 27.564561,43.836328 27.76216,43.62947 c 0.40178,-0.428999 0.498723,-1.049748 0.163643,-1.049748 -0.185606,0 -0.18691,-0.0096 -0.0093,-0.351975 0.224227,-0.43219 0.07421,-0.478854 -0.339624,-0.104975 -0.537244,0.485354 -0.792771,0.610208 -0.901549,0.441507 -0.07138,-0.110646 -0.104758,-0.107198 -0.18525,0.01544 -0.127491,0.194181 -0.124784,0.361775 0.01235,0.740999 0.132224,0.365708 0.0449,0.964741 -0.1729,1.182506 -0.08328,0.08325 -0.257581,0.151292 -0.385942,0.151292 -0.305608,0 -0.935507,0.75745 -0.935507,1.123849 -1.9e-5,0.145582 -0.0667,0.425482 -0.148199,0.620592 -0.08153,0.195061 -0.1482,0.504956 -0.1482,0.688507 -2e-5,0.402135 0.108541,0.417726 0.799656,0.120407 0.55818,-0.240133 0.879942,-0.718463 0.879942,-1.312181 -2e-5,-0.375489 0.17456,-0.845974 0.314925,-0.845974 0.04832,0 0.219414,0.0653 0.379767,0.1482 0.40501,0.209456 0.412549,0.651694 0.01235,0.802749 -0.240469,0.09076 -0.306399,0.20006 -0.447692,0.762607 -0.09803,0.390161 -0.140593,0.8084 -0.104975,1.031234 0.04438,0.277469 0.02093,0.409525 -0.09572,0.506349 -0.20992,0.174174 -0.200662,0.332737 0.01544,0.265514 0.377722,-0.117483 2.34711,-0.352211 2.513222,-0.299481 0.159207,0.05053 0.161202,0.0825 0.03705,0.321098 -0.07591,0.145908 -0.24696,0.367082 -0.382849,0.494 -0.198114,0.185052 -0.285986,0.212904 -0.441517,0.129675 -0.23053,-0.123362 -0.318008,-0.05888 -0.318008,0.237742 -1.9e-5,0.257957 -0.391208,0.450182 -0.839799,0.413715 -0.262304,-0.0213 -0.300727,0.01063 -0.330357,0.271699 -0.02682,0.235905 0.03382,0.354801 0.30875,0.5928 0.290462,0.251544 0.391939,0.462502 0.651457,1.349242 0.36634,1.251862 0.371132,1.338531 0.08336,1.698123 l -0.2223,0.277875 -0.639107,-0.145112 c -0.350917,-0.08108 -0.650953,-0.186322 -0.666899,-0.231563 -0.111377,-0.315578 -0.207499,-0.360259 -0.503257,-0.237737 -0.328302,0.135956 -0.566489,0.05728 -0.981834,-0.3211 l -0.225382,-0.203779 -0.219217,0.219217 c -0.276442,0.27642 -0.275079,0.810174 0.0031,1.355411 0.177504,0.34796 0.187187,0.423698 0.06792,0.639112 -0.07445,0.134484 -0.137025,0.345874 -0.138932,0.466212 -0.002,0.120347 -0.09202,0.266024 -0.200692,0.324187 -0.139674,0.07474 -0.1976,0.207094 -0.1976,0.450775 -2e-5,0.301762 0.03523,0.350996 0.287142,0.401374 0.264379,0.05288 0.297091,0.107786 0.413715,0.694687 0.133617,0.672311 0.280285,0.846992 0.929341,1.105324 0.205909,0.08196 0.349159,0.2461 0.4693,0.537224 0.213526,0.517521 0.210493,0.721096 -0.0093,1.133112 -0.159681,0.299322 -0.187384,0.312074 -0.367417,0.175987 -0.425818,-0.321952 -0.734113,-0.147261 -1.265874,0.710124 -0.292329,0.471304 -0.327937,0.736005 -0.117325,0.910812 0.172594,0.143228 0.3507,0.05804 0.355067,-0.1729 0.0056,-0.302004 0.293307,0.182444 0.293307,0.493999 -1.9e-5,0.211124 -0.09796,0.344728 -0.410642,0.571187 -0.22553,0.163365 -0.469141,0.299488 -0.540307,0.299488 -0.07119,-1.2e-5 -0.183491,0.188954 -0.250092,0.419899 -0.06657,0.230933 -0.17861,0.507244 -0.250082,0.614412 -0.07146,0.107187 -0.129675,0.335974 -0.129675,0.509437 -2e-5,0.173451 -0.136354,0.673148 -0.302575,1.108411 l -0.302574,0.7904 0.219207,0.426074 c 0.57215,1.117266 1.047239,2.35454 1.000349,2.599673 -0.03598,0.188144 0.03682,0.361489 0.262442,0.642199 0.201236,0.250438 0.308552,0.500224 0.311842,0.713217 0.0044,0.290481 0.0842,0.384124 0.716299,0.836706 0.391179,0.280098 1.250531,0.969326 1.908064,1.534481 1.537375,1.32137 2.058703,1.701009 2.769489,2.013048 0.318304,0.139743 0.869429,0.381348 1.222649,0.537225 0.35319,0.155876 1.253672,0.44292 2.00379,0.636024 1.194995,0.307653 1.512913,0.350621 2.568798,0.351975 1.218588,0.0016 1.452783,0.04217 3.183204,0.543399 0.48904,0.14166 1.260657,0.321169 1.716648,0.398292 0.455962,0.07708 0.837221,0.151796 0.845975,0.166725 0.0088,0.01496 0.08992,0.148892 0.182167,0.2964 0.09221,0.147528 0.169807,0.418951 0.169807,0.605149 -2e-5,0.299334 0.0429,0.355393 0.3705,0.484732 0.203755,0.08045 0.703939,0.224908 1.111499,0.3211 0.40753,0.09618 0.963299,0.25606 1.234998,0.355067 0.27168,0.09901 0.62737,0.210582 0.7904,0.247 0.241496,0.05394 0.459064,0.185121 0.568099,0.324182 0.04978,0.01884 0.186416,0.06705 0.247,0.08954 0.122848,0.0014 0.244213,0.0093 0.367407,0.0093 0.533184,0 1.063472,-0.01342 1.590066,-0.04014 0.526613,-0.02672 1.049107,-0.06761 1.568448,-0.120407 0.519362,-0.0528 1.035394,-0.116308 1.546831,-0.194518 0.511428,-0.07822 1.01924,-0.171793 1.522141,-0.274782 0.502872,-0.102989 1.000646,-0.215601 1.494349,-0.342717 0.493673,-0.127126 0.982733,-0.266206 1.466556,-0.416807 0.483833,-0.150601 0.962331,-0.314401 1.435691,-0.487825 0.47333,-0.173423 0.94262,-0.357072 1.404806,-0.552666 0.462186,-0.195605 0.917357,-0.40345 1.367766,-0.620582 0.450419,-0.217133 0.895828,-0.444323 1.333799,-0.682342 0.43798,-0.238009 0.868777,-0.485839 1.293666,-0.744082 0.262472,-0.159552 0.517652,-0.330021 0.774956,-0.497092 -0.158415,-0.0074 -0.315458,-9.88e-4 -0.475474,-0.0247 -0.226568,-0.05874 -0.365777,-0.418645 -0.364325,-0.947856 9.88e-4,-0.364295 0.127255,-0.595873 1.065192,-1.945123 0.585478,-0.84228 1.320243,-1.864858 1.633281,-2.272398 0.847446,-1.103318 1.605943,-2.683425 1.691948,-3.525922 0.03786,-0.370817 0.132362,-0.892923 0.20995,-1.160898 0.205227,-0.708852 0.167021,-1.735174 -0.06483,-1.735174 -0.04646,-1.2e-5 -0.822351,0.74921 -1.722833,1.667249 -0.900472,0.918027 -1.713348,1.690036 -1.806181,1.71356 -0.277232,0.07028 -0.797987,-0.112953 -0.907724,-0.318012 -0.08544,-0.159623 -0.0509,-0.228153 0.206858,-0.416812 0.309322,-0.226452 2.467082,-2.858997 3.439481,-4.195908 0.28406,-0.390588 0.538924,-0.847199 0.565007,-1.012699 0.04821,-0.306084 0.339862,-0.975442 1.268956,-2.920772 l 0.5187,-1.086799 0.05559,-1.383199 c 0.03124,-0.760761 0.03544,-1.501526 0.0061,-1.645635 -0.07653,-0.377239 -0.45114,-0.416536 -1.154714,-0.120413 -0.641231,0.26988 -0.861535,0.24538 -1.268966,-0.13585 -0.589411,-0.551513 -0.596356,-1.211306 -0.0093,-0.864499 l 0.287142,0.166725 0.685424,-0.50635 c 0.744784,-0.552617 1.257664,-1.11791 2.090231,-2.303273 0.808825,-1.151572 1.008855,-1.236965 2.00379,-0.852149 1.004716,0.388619 1.141426,0.393816 1.543749,0.0741 0.197846,-0.15725 0.398628,-0.28405 0.447692,-0.28405 0.194952,0 0.724825,0.475504 1.157806,1.040491 0.439304,0.573238 1.989306,2.121107 2.124198,2.121107 0.08798,0 0.258549,-0.458699 0.339624,-0.910807 0.203271,-0.181802 0.362744,-0.38037 0.503267,-0.583542 0.02598,-0.51953 0.04013,-1.039415 0.04013,-1.565357 1e-5,-0.533213 -0.01343,-1.063462 -0.04013,-1.590065 -0.02674,-0.526603 -0.06452,-1.052209 -0.117334,-1.571531 -0.05281,-0.519361 -0.11937,-1.03232 -0.1976,-1.543748 -0.07823,-0.511457 -0.168691,-1.019249 -0.2717,-1.522141 -0.103009,-0.502891 -0.218664,-1.003728 -0.3458,-1.497441 -0.127135,-0.493693 -0.266216,-0.982703 -0.416807,-1.466556 -0.15062,-0.483853 -0.311289,-0.962311 -0.484742,-1.435691 -0.173443,-0.47335 -0.360125,-0.939538 -0.555749,-1.401714 C 74.678518,37.402928 74.473775,36.944684 74.256633,36.494295 74.03948,36.043866 73.809227,35.601549 73.571218,35.163579 73.33318,34.725609 73.08536,34.294802 72.827126,33.869913 72.568863,33.445043 72.302193,33.024432 72.024377,32.613306 71.746532,32.20218 71.459726,31.799748 71.162971,31.403008 70.866186,31.006267 70.557959,30.617637 70.242887,30.235934 69.927824,29.85423 69.606101,29.478099 69.273422,29.112085 68.940714,28.746071 68.598016,28.387309 68.248374,28.037636 67.898681,27.687963 67.539929,27.348388 67.173925,27.01567 66.807891,26.68299 66.434872,26.358166 66.053158,26.043113 65.671465,25.72806 65.282825,25.422896 64.886084,25.12612 c -0.39676,-0.296755 -0.802245,-0.583581 -1.213391,-0.861406 -0.411146,-0.277826 -0.828644,-0.547559 -1.253514,-0.805842 -0.424898,-0.258243 -0.855696,-0.506063 -1.293666,-0.744082 -0.43796,-0.238019 -0.883389,-0.465229 -1.333798,-0.682332 -0.450399,-0.217152 -0.905541,-0.424987 -1.367766,-0.620591 -0.462216,-0.195604 -0.931466,-0.379254 -1.404807,-0.552657 -0.47337,-0.173444 -0.951828,-0.337214 -1.435691,-0.487835 -0.483862,-0.150591 -0.972862,-0.289691 -1.466556,-0.416807 -0.493713,-0.127116 -0.991467,-0.239728 -1.494348,-0.342707 -0.502911,-0.103009 -1.010693,-0.1935 -1.522141,-0.2717 -0.511457,-0.07823 -1.027479,-0.144811 -1.546831,-0.1976 -0.519332,-0.05281 -1.041845,-0.09369 -1.568448,-0.120417 -0.526594,-0.02673 -1.056853,-0.04014 -1.590066,-0.04013 z m -16.589116,4.841195 c -0.229848,0.146619 -0.462838,0.289019 -0.688516,0.441507 -0.411117,0.277825 -0.816641,0.564651 -1.213382,0.861407 -0.396751,0.296765 -0.78537,0.601939 -1.167074,0.916992 -0.381713,0.315053 -0.754772,0.639898 -1.120756,0.972557 -0.366024,0.332689 -0.724796,0.672294 -1.074449,1.021966 -0.349682,0.349673 -0.69239,0.708435 -1.025049,1.074449 -0.332699,0.366014 -0.654431,0.742145 -0.969484,1.123849 -0.315033,0.381704 -0.623318,0.770333 -0.920064,1.167074 -0.296775,0.396741 -0.583591,0.799172 -0.861417,1.210299 -0.138685,0.205207 -0.26754,0.418111 -0.401374,0.626757 0.115665,-0.06381 0.345187,-0.273459 0.592799,-0.565007 0.288417,-0.339625 1.205981,-1.293676 2.040841,-2.118023 1.056744,-1.043495 1.577468,-1.631295 1.713555,-1.938948 0.107495,-0.243038 0.260002,-0.467729 0.336543,-0.497082 0.0765,-0.02938 0.491786,-0.321792 0.923156,-0.651467 0.717396,-0.54828 1.111499,-0.730793 1.111499,-0.515617 -10e-6,0.04592 -0.09356,0.166073 -0.206857,0.268617 -0.113324,0.102544 -0.367911,0.409664 -0.565017,0.682332 -0.197116,0.272678 -0.895068,1.119531 -1.549924,1.88029 -0.654865,0.76076 -1.367222,1.605716 -1.58389,1.877199 -0.216609,0.271482 -0.515835,0.627162 -0.6669,0.790399 -0.739082,0.798669 -2.301425,3.449134 -2.53483,4.30397 -0.139446,0.510677 -0.113669,0.997366 0.05558,1.052832 0.06223,0.02041 0.32769,-0.237634 0.589707,-0.571182 0.262067,-0.333549 0.812669,-0.856437 1.222649,-1.163981 0.763802,-0.57299 0.880119,-0.634197 2.917689,-1.503616 1.31891,-0.562775 1.544391,-0.729628 1.880291,-1.389374 0.127432,-0.250349 0.6183,-0.872788 1.089881,-1.383199 0.471572,-0.51041 1.152748,-1.301194 1.512874,-1.759873 0.360106,-0.458678 1.065804,-1.275536 1.568448,-1.812365 0.502635,-0.53681 0.913899,-1.039247 0.913899,-1.117664 -10e-6,-0.07848 -0.05367,-0.225333 -0.117325,-0.327285 -0.09475,-0.151687 -0.067,-0.288426 0.157468,-0.747164 0.150808,-0.308296 0.26014,-0.576607 0.240815,-0.595893 -0.04229,-0.0423 -0.853325,0.106625 -1.096057,0.200692 -0.141768,0.05491 -0.1729,0.01185 -0.1729,-0.237742 -10e-6,-0.238335 0.06436,-0.336957 0.2964,-0.45695 0.16301,-0.0843 0.2964,-0.197906 0.2964,-0.250092 -10e-6,-0.05216 -0.277875,-0.234215 -0.6175,-0.404457 -0.339634,-0.170242 -0.638415,-0.325397 -0.660724,-0.3458 -0.0068,-0.0062 -0.01002,-0.01359 -0.01235,-0.02161 -0.115625,-0.05675 -0.13745,-0.05531 -0.23465,-0.0988 z m 8.959916,0.580449 c -0.04595,-0.0014 -0.09026,0.0012 -0.132757,0.0031 -0.510242,0.02245 -0.781142,0.275365 -0.781142,0.740999 -1e-5,0.216925 -0.06928,0.360896 -0.2223,0.463125 -0.219859,0.146857 -0.221361,0.149732 -0.03396,0.35815 0.200514,0.223041 0.340692,0.21406 0.898457,-0.06175 0.501073,-0.247791 1.037398,-0.827361 1.037398,-1.120757 -9e-6,-0.216648 -0.05539,-0.273518 -0.308749,-0.324192 -0.166241,-0.03324 -0.319124,-0.05449 -0.45695,-0.05866 z m 2.642898,0.598965 c -0.173513,5.93e-4 -0.235164,0.07288 -0.38285,0.311842 -0.11687,0.189073 -0.20995,0.495097 -0.20995,0.67925 -10e-6,0.502022 0.828339,2.467538 1.105324,2.62129 0.349119,0.193776 0.951621,0.159009 1.333799,-0.07719 0.380587,-0.235223 0.352696,-0.299641 -0.216125,-0.466207 -0.21737,-0.06368 -0.50635,-0.20334 -0.642199,-0.30875 -0.239057,-0.185517 -0.247,-0.229058 -0.247,-1.373941 -10e-6,-0.650647 -0.03167,-1.21108 -0.06792,-1.24735 -0.03628,-0.03627 -0.240173,-0.09178 -0.453867,-0.120407 -0.09001,-0.01208 -0.16138,-0.01871 -0.219207,-0.01853 z m -5.81067,0.710135 c -0.08463,0.01272 -0.187532,0.07146 -0.296399,0.1729 -0.278912,0.259824 -0.191079,0.409693 0.213032,0.370499 0.258184,-0.02507 0.311842,-0.07141 0.311842,-0.274792 -10e-6,-0.178758 -0.07765,-0.269269 -0.194507,-0.268607 -0.01138,4.9e-5 -0.02187,-0.0018 -0.03397,0 z m -0.558832,1.216464 c -0.01985,-6.92e-4 -0.04028,4.94e-4 -0.06175,0.0031 -0.143349,0.01752 -0.338015,0.113344 -0.725567,0.327275 -0.602917,0.332807 -0.73189,0.452069 -0.824367,0.753349 -0.10207,0.33262 -0.0823,0.3911 0.253185,0.889199 0.198074,0.294128 0.410869,0.537225 0.475464,0.537225 0.06463,0 0.207421,-0.151283 0.314935,-0.33345 0.117048,-0.19842 0.377949,-0.417173 0.651457,-0.549574 0.485977,-0.235263 0.498297,-0.269783 0.3952,-1.021967 -0.04776,-0.348368 -0.115962,-0.472392 -0.305658,-0.558832 -0.05956,-0.02713 -0.113442,-0.04412 -0.1729,-0.04632 z m -10.383256,8.694391 c -0.07747,-0.0056 -0.140237,0.132985 -0.280968,0.410642 -0.205316,0.405188 -0.256257,0.651991 -0.256257,1.197949 -10e-6,0.625265 0.02266,0.706083 0.25935,0.892291 0.143171,0.112603 0.316663,0.206858 0.385942,0.206858 0.06924,0 0.406354,-0.188955 0.750257,-0.4199 0.343892,-0.230945 0.682499,-0.531049 0.750256,-0.666899 0.132817,-0.266207 0.17458,-1.286335 0.05249,-1.284399 -0.04077,6.92e-4 -0.31863,0.06745 -0.6175,0.1482 -0.503217,0.135959 -0.553467,0.135218 -0.663806,-0.0247 -0.209041,-0.302822 -0.302308,-0.45447 -0.379767,-0.460042 z m 28.86192,7.86386 c 0.129754,-0.0029 1.52221,0.822183 1.985266,1.179423 0.437298,0.337392 0.564236,0.389232 0.818181,0.33345 0.277954,-0.06105 0.366558,-0.0032 1.117674,0.744092 0.44787,0.445538 0.999638,0.962172 1.225742,1.148549 0.531988,0.438414 1.160108,1.349824 1.092964,1.58388 -0.0281,0.09793 -0.08127,0.256879 -0.120408,0.351974 -0.05582,0.135554 -0.02296,0.1729 0.157458,0.1729 l 0.231567,0 -0.2223,0.154375 c -0.135968,0.09523 -0.532877,0.174075 -1.034316,0.206867 -0.447692,0.02925 -0.910876,0.115537 -1.031215,0.191415 -0.286312,0.180498 -0.264102,0.189775 -0.561934,-0.200682 -0.234551,-0.307495 -0.256257,-0.42158 -0.256257,-1.222648 -2e-5,-0.971865 -0.02005,-1.006504 -0.642199,-1.207216 -0.948776,-0.306033 -1.922745,-0.898852 -2.469998,-1.503606 -0.486757,-0.537867 -0.543399,-0.649531 -0.543399,-1.037399 -2e-5,-0.35155 0.09681,-0.708257 0.243907,-0.892292 0.0015,-0.0019 0.0051,-0.003 0.0093,-0.0031 z m -5.406212,4.523178 c 0.208251,-0.0093 0.440984,0.02552 0.707042,0.0988 0.19016,0.05238 0.811088,0.165056 1.380106,0.250093 1.13779,0.170023 1.422007,0.330425 1.540666,0.870673 0.05763,0.262314 0.0226,0.341304 -0.265525,0.586624 -0.183283,0.156045 -0.472046,0.416728 -0.639107,0.577357 -0.261325,0.251258 -0.417143,0.303336 -1.114591,0.38285 -0.445933,0.05088 -0.855735,0.120269 -0.910806,0.154385 -0.05511,0.034 -0.211798,-0.01206 -0.348893,-0.101893 -0.195594,-0.128143 -0.281026,-0.138547 -0.392107,-0.04631 -0.0779,0.06457 -0.138942,0.184449 -0.138942,0.265515 -2e-5,0.12591 -0.03974,0.123272 -0.256257,-0.01852 -0.289593,-0.189784 -0.476987,-0.09747 -0.571192,0.277865 -0.03105,0.123669 -0.171369,0.284654 -0.30875,0.358151 -0.137411,0.07356 -0.333637,0.279396 -0.438424,0.456949 -0.256416,0.434651 -0.714225,0.651447 -1.491266,0.707042 l -0.648365,0.04631 -0.280967,-0.426065 c -0.280542,-0.424 -0.283437,-0.432595 -0.225382,-1.586984 0.04166,-0.829188 0.114568,-1.279607 0.250082,-1.583881 0.104333,-0.234205 0.217745,-0.54834 0.253175,-0.697775 0.05819,-0.245655 0.105706,-0.271698 0.500174,-0.271698 0.536395,0 0.944774,0.145304 0.944774,0.336541 -2e-5,0.197244 0.472284,0.552657 0.734825,0.552657 0.140789,0 0.333805,-0.156835 0.555749,-0.453857 0.360294,-0.482163 0.705787,-0.714234 1.163981,-0.734833 z m -13.202136,3.874813 c 0.08277,-0.0043 0.183896,0.04904 0.302584,0.16055 0.225066,0.211471 0.23797,0.216125 0.561915,0.216125 0.12596,0 0.265228,0.131858 0.389034,0.370499 0.406275,0.783215 0.68663,0.998166 1.441856,1.111499 0.38036,0.05707 0.832222,0.150863 1.006524,0.206862 0.387968,0.124626 0.722475,0.627953 0.722475,1.092974 -2e-5,0.298353 0.07897,0.407851 0.642199,0.873762 0.512129,0.423662 0.642199,0.587395 0.642199,0.808924 -1.9e-5,0.211766 0.04716,0.277875 0.1976,0.277875 0.108502,-1.2e-5 0.372061,0.158119 0.586625,0.351975 0.310705,0.280698 0.456317,0.346066 0.716299,0.321099 0.344802,-0.03313 0.342845,-0.02452 0.20995,-0.697774 -0.05057,-0.25618 -0.03404,-0.2717 0.302574,-0.2717 0.196335,-1.2e-5 0.357863,0.03335 0.35815,0.0741 0,0.04074 0.101892,0.200727 0.225392,0.355062 0.221816,0.277222 0.227497,0.276526 0.450765,0.09571 0.190279,-0.154101 0.209159,-0.22434 0.126592,-0.441512 -0.07577,-0.199231 -0.284939,-0.334616 -0.920074,-0.598975 -0.665595,-0.277067 -0.885988,-0.424281 -1.154724,-0.774961 l -0.330357,-0.435338 0.299482,-0.07719 c 0.33671,-0.08725 0.463125,-0.227013 0.463125,-0.518699 -2e-5,-0.15005 0.131661,-0.240247 0.561924,-0.385938 0.529429,-0.179233 0.57628,-0.181189 0.815099,-0.0247 0.220759,0.144643 0.253175,0.237244 0.253175,0.707037 -2e-5,0.495411 0.01894,0.544067 0.250092,0.602062 0.242228,0.06079 0.244303,0.06849 0.07718,0.253175 -0.149336,0.165003 -0.151945,0.205494 -0.02778,0.28405 0.07933,0.05018 0.178443,0.0918 0.219208,0.09262 0.04073,7.9e-4 0.0741,0.09201 0.0741,0.200687 -2e-5,0.158601 0.06555,0.1976 0.333449,0.1976 0.235104,-2e-6 0.376023,0.06479 0.478557,0.219212 0.144989,0.218396 0.146698,0.21733 0.546492,0.03705 0.220699,-0.09952 0.452721,-0.150018 0.515607,-0.11115 0.06291,0.03888 0.313957,0.04286 0.558842,0.0062 0.381793,-0.05728 0.462601,-0.112128 0.552657,-0.3705 l 0.104985,-0.299487 0.731732,0.04631 c 0.677075,0.04344 0.758299,0.02702 1.096066,-0.219213 0.20089,-0.146482 0.554999,-0.472441 0.784214,-0.722474 l 0.416817,-0.453862 0.0988,0.364325 c 0.05575,0.200689 0.101606,0.470999 0.101883,0.598974 0,0.128004 0.114637,0.366409 0.253184,0.531049 0.178947,0.212696 0.236725,0.375326 0.200683,0.558837 -0.130021,0.662106 -0.09425,1.066323 0.120417,1.367762 0.119469,0.16782 0.219207,0.418126 0.219207,0.558836 -1.9e-5,0.376337 -0.634858,0.799109 -1.423341,0.947862 -0.567645,0.107108 -0.660536,0.09954 -0.913899,-0.06175 -0.155264,-0.09885 -0.31777,-0.236433 -0.361232,-0.305662 -0.04345,-0.06923 -0.254637,-0.1235 -0.469299,-0.1235 -0.326959,-1.2e-5 -0.389025,0.03182 -0.389025,0.200687 -2e-5,0.110831 -0.09187,0.379639 -0.203775,0.598975 -0.148891,0.291873 -0.176476,0.434369 -0.0988,0.527962 0.0821,0.09891 -0.0045,0.176861 -0.382849,0.339624 -0.268993,0.115713 -0.64959,0.20995 -0.845974,0.20995 -0.196425,-1.2e-5 -0.49237,0.06892 -0.657642,0.154375 -0.264804,0.136925 -0.342036,0.139807 -0.660715,0.01544 -0.248205,-0.09683 -0.454212,-0.114133 -0.657641,-0.05557 -0.215187,0.06193 -0.402916,0.03901 -0.67925,-0.08336 l -0.379757,-0.169812 -0.642199,0.339624 c -0.801574,0.425114 -0.959268,0.643993 -0.892292,1.238087 0.04147,0.368037 0.0134,0.485898 -0.154375,0.642199 -0.112661,0.104963 -0.22884,0.183249 -0.259349,0.175987 -0.0305,-0.0073 -0.277875,-0.09241 -0.549575,-0.191424 -0.271719,-0.09905 -0.730882,-0.182879 -1.018874,-0.18525 -0.539912,-0.0045 -0.925676,-0.14947 -1.472731,-0.558837 -0.275464,-0.206119 -0.414377,-0.235435 -1.102241,-0.225388 -0.647782,0.0095 -0.886314,-0.03429 -1.330706,-0.237737 -0.677422,-0.310135 -0.802236,-0.589969 -0.40755,-0.904636 l 0.2717,-0.216125 -0.250093,-0.194512 c -0.392176,-0.308475 -0.612183,-0.806504 -0.481649,-1.092974 0.143813,-0.315688 0.14159,-0.327275 -0.08954,-0.327275 -0.109431,-1.2e-5 -0.281896,-0.0512 -0.38285,-0.114237 -0.148793,-0.09291 -0.236912,-0.07725 -0.475465,0.09262 -0.253313,0.180346 -0.348694,0.195915 -0.666899,0.108062 -0.405672,-0.112012 -1.424418,-0.07205 -2.42369,0.09571 -0.353229,0.0593 -0.864203,0.136458 -1.133106,0.169813 -0.380795,0.04721 -0.555621,0.13169 -0.7904,0.382849 -0.167238,0.178846 -0.515824,0.395165 -0.784234,0.484737 -0.475474,0.158672 -0.495708,0.15482 -1.160898,-0.104975 -0.596564,-0.233012 -0.676157,-0.294339 -0.676157,-0.521787 -2e-5,-0.347204 0.505183,-0.547791 0.969474,-0.385937 0.258895,0.09024 0.366034,0.07689 0.632932,-0.07719 0.472046,-0.272512 0.669794,-0.739127 0.669991,-1.590061 l 0,-0.716299 0.6916,-0.688512 c 0.667927,-0.666635 0.691599,-0.706449 0.691599,-1.173249 -2e-5,-0.394638 0.04071,-0.511927 0.225392,-0.632937 0.203419,-0.133302 0.258441,-0.130737 0.565007,0.02779 0.327314,0.169272 0.355255,0.168103 0.688507,-0.0031 0.190812,-0.09802 0.426193,-0.311664 0.521792,-0.475474 0.09556,-0.163833 0.368494,-0.40633 0.608242,-0.540312 l 0.438414,-0.243913 0.06175,0.25935 c 0.221589,0.901183 0.999954,1.550847 3.158515,2.633635 1.129796,0.566724 1.188138,0.61005 1.330716,1.012699 0.170627,0.482003 0.310133,0.491999 0.441507,0.03396 0.06949,-0.242357 0.05194,-0.402362 -0.07719,-0.673074 -0.197481,-0.414103 -0.08726,-0.558333 0.351985,-0.466212 0.642792,0.134811 0.255358,-0.453585 -0.657642,-0.997261 -0.502071,-0.29896 -0.650241,-0.343824 -0.969474,-0.290225 -0.37043,0.06214 -0.392137,0.0509 -1.259699,-0.827449 -0.821155,-0.831406 -0.883024,-0.924486 -0.883024,-1.299836 -1.9e-5,-0.305569 0.08124,-0.468352 0.219208,-0.475475 z m 30.439636,2.019223 c 0.114529,-0.0062 0.161943,0.143428 0.163633,0.45695 0.0016,0.295992 -0.583927,1.540255 -0.815099,1.732085 -0.224988,0.18669 -0.674646,0.211941 -1.201032,0.06484 -0.365303,-0.102092 -0.590477,-0.10995 -0.892281,-0.03396 -0.361361,0.09098 -0.471138,0.0695 -1.068284,-0.209949 -0.657721,-0.307783 -0.663807,-0.316289 -0.663807,-0.70395 -2e-5,-0.504631 0.147627,-0.776779 0.422992,-0.774961 0.120328,7.9e-4 0.528362,0.154404 0.907714,0.339624 0.655014,0.319784 0.716122,0.330002 1.231916,0.23465 0.709769,-0.131208 1.058019,-0.316753 1.515966,-0.808924 0.17866,-0.192049 0.309224,-0.291598 0.398282,-0.2964 z m -32.119235,0.16055 c -0.17453,-0.0038 -0.416807,0.791683 -0.416807,1.389373 -1e-5,0.367149 -0.06816,0.700062 -0.191425,0.941687 -0.186939,0.366408 -0.187285,0.38155 -0.0061,0.657637 0.184568,0.28137 0.5359,0.533692 0.756442,0.540312 0.06402,0.0019 0.189033,-0.06866 0.274782,-0.154375 0.344011,-0.344034 0.352597,-0.482445 0.08953,-1.435686 -0.140631,-0.509711 -0.283921,-1.14682 -0.318007,-1.414074 -0.0341,-0.267255 -0.113057,-0.501928 -0.1729,-0.521787 -0.0055,-0.0018 -0.0098,-0.003 -0.01544,-0.0031 z m 3.09059,3.544446 c -0.08462,0.004 -0.148991,0.04686 -0.243908,0.132763 -0.110665,0.100132 -0.202045,0.141778 -0.203784,0.09263 -0.0072,-0.205547 -0.293308,0.312375 -0.293308,0.531049 -9e-6,0.216063 0.03093,0.235801 0.3211,0.182162 0.176595,-0.03265 0.45448,-0.02134 0.6175,0.02779 0.46015,0.138583 0.69889,0.122961 0.920074,-0.06484 0.149306,-0.126792 0.189261,-0.245369 0.148199,-0.444599 -0.0464,-0.225068 -0.107524,-0.2717 -0.358149,-0.2717 -0.166429,-1.2e-5 -0.448255,-0.05279 -0.626767,-0.117325 -0.105024,-0.03799 -0.181071,-0.06294 -0.243907,-0.06793 -0.0131,-0.001 -0.02497,-5.93e-4 -0.03705,0 z m 7.922517,0.305662 c -0.104797,0.01139 -0.200327,0.06833 -0.314925,0.175988 -0.172979,0.162484 -0.305934,0.203908 -0.490907,0.157462 -0.206759,-0.05189 -0.250092,-0.02967 -0.250092,0.129675 -10e-6,0.441228 0.896016,0.557449 1.343056,0.1729 0.316288,-0.272068 0.271364,-0.521525 -0.11115,-0.6175 -0.04746,-0.01193 -0.0913,-0.01823 -0.132757,-0.01853 -0.01556,-9.8e-5 -0.02826,-0.0016 -0.04322,0 z m 8.552366,3.254222 c 0.324419,0.0036 0.952876,0.334472 1.710473,0.904637 0.541621,0.407597 0.841983,0.557216 1.315274,0.657637 0.428545,0.09095 0.677174,0.205829 0.830542,0.382849 0.529676,0.611452 1.19285,1.201037 1.352313,1.201037 0.09537,-1.2e-5 0.500501,0.111806 0.901549,0.250087 0.401059,0.138238 0.920687,0.298716 1.151642,0.355062 0.338152,0.0825 0.419899,0.14326 0.419899,0.3211 -2e-5,0.152357 0.114203,0.285121 0.3705,0.429162 0.354771,0.199406 0.815099,0.706394 0.815099,0.898461 -2e-5,0.186918 -0.26917,0.287982 -0.920074,0.3458 -0.637487,0.05661 -0.673015,0.04765 -0.774967,-0.175987 -0.13993,-0.307074 -0.438711,-0.376581 -0.802749,-0.188338 -0.282973,0.146311 -0.304126,0.140375 -0.608232,-0.154375 C 58.325,66.17192 58.1497,66.094098 57.889955,66.094098 57.51824,66.094086 57.210567,65.823346 56.287539,64.686199 55.965827,64.289861 55.854262,64.2169 55.565075,64.2169 c -0.281857,-1.2e-5 -0.449797,-0.103805 -0.950949,-0.577362 -0.334952,-0.316509 -0.810772,-0.690458 -1.055934,-0.830537 -0.245152,-0.14009 -0.64137,-0.427403 -0.879932,-0.639112 -0.424336,-0.376588 -0.429641,-0.390837 -0.293317,-0.676162 0.07809,-0.163456 0.230747,-0.304185 0.348892,-0.321099 0.01884,-0.0027 0.0401,-0.0033 0.06175,-0.0031 z M 23.23589,62.537301 c -0.05069,-1.2e-5 -0.120338,0.08727 -0.154375,0.194513 -0.03406,0.107266 -0.162447,0.273991 -0.28405,0.370499 -0.121622,0.09652 -0.254992,0.231562 -0.296399,0.299487 -0.122858,0.201511 0.533816,0.154405 0.688507,-0.0494 0.149919,-0.197493 0.18523,-0.815099 0.04632,-0.815099 z"
     style="fill:#103b57;fill-opacity:1;stroke:none;display:inline" />
  <path
     style="fill:#219aaf;fill-opacity:1;stroke:none;display:inline"
     d="m 46.098938,18.093221 -1.543749,0.02161 c -0.08688,0.0011 -0.290679,0.09527 -0.614407,0.06175 -0.23211,0.01604 -0.464023,0.03131 -0.694691,0.05249 0.01407,0.04263 0.01346,0.09331 -0.01235,0.16055 -0.04168,0.108571 -0.217163,0.145542 -0.669982,0.145108 -0.662355,-6.92e-4 -1.451124,0.18277 -1.451124,0.336542 -2e-5,0.05223 0.13337,0.09571 0.2964,0.09571 0.27991,0 0.2964,0.02195 0.2964,0.3952 -2e-5,0.333904 0.03083,0.395199 0.203774,0.395199 0.112593,0 0.390458,-0.108591 0.6175,-0.240824 0.227042,-0.132224 0.669359,-0.337629 0.981824,-0.453867 0.312435,-0.116199 0.568099,-0.247188 0.568099,-0.293308 -2e-5,-0.135267 0.545257,-0.217557 0.947857,-0.142025 l 0.370499,0.07102 -0.314914,0.280957 c -0.173661,0.155146 -0.382445,0.28405 -0.463135,0.28405 -0.08067,0 -0.145107,0.06669 -0.145107,0.1482 -2e-5,0.08151 0.08466,0.1482 0.191425,0.1482 0.243966,0 0.464794,0.36879 0.311832,0.521791 -0.05838,0.05834 -0.362704,0.137283 -0.676157,0.175983 -0.63725,0.07867 -0.913939,0.184015 -1.389374,0.531049 -0.178976,0.130653 -0.645805,0.312346 -1.037399,0.401375 -0.746186,0.169659 -1.823223,0.485809 -2.241522,0.657642 -0.241813,0.09929 -0.242653,0.101645 -0.0494,0.243907 0.141639,0.104283 0.335672,0.129754 0.691599,0.08645 0.903071,-0.109885 1.574495,-0.268716 1.945123,-0.45695 0.480415,-0.243976 0.867997,-0.249963 0.805832,-0.01235 -0.03225,0.123243 0.04093,0.205109 0.250092,0.28405 0.230895,0.08716 0.310419,0.191247 0.364325,0.478557 0.05432,0.289523 0.134397,0.396346 0.382849,0.500185 0.324756,0.135681 0.845974,0.780133 0.845974,1.046656 -1.9e-5,0.111002 -0.07777,0.137065 -0.296399,0.104975 -0.320566,-0.04705 -0.371547,0.05552 -0.191425,0.392117 0.09486,0.177227 0.08342,0.193638 -0.0988,0.13585 -0.113333,-0.03599 -0.288456,-0.03905 -0.392117,-0.0062 -0.429414,0.136285 -0.296123,0.337877 0.740999,1.108417 0.715064,0.531287 0.98464,0.781646 0.861417,0.802749 -0.321801,0.05512 -0.954269,0.324568 -1.244266,0.53105 -0.254578,0.181258 -0.276611,0.240756 -0.219208,0.580449 0.0613,0.362932 0.04866,0.385942 -0.302574,0.55575 -0.309797,0.14978 -0.40759,0.280799 -0.62985,0.845974 -0.144771,0.368178 -0.375963,0.783503 -0.512524,0.920074 -0.234196,0.234176 -0.263924,0.240509 -0.53105,0.101882 -0.155817,-0.08082 -0.319667,-0.126384 -0.364324,-0.0988 -0.130189,0.08047 -0.0952,0.518156 0.06793,0.833634 0.140068,0.270899 0.13497,0.318689 -0.0741,0.710114 -0.147588,0.276254 -0.2223,0.592394 -0.2223,0.916991 -2e-5,0.485118 -0.0058,0.494474 -0.3211,0.524875 -0.341166,0.03289 -0.418813,0.208586 -0.179075,0.40755 0.221431,0.183767 0.06982,0.399991 -0.277874,0.398282 -0.349554,-0.0017 -1.696158,-0.920094 -1.593149,-1.086799 0.03268,-0.05292 0.387424,-0.09571 0.787307,-0.09571 0.718967,0 0.729064,-0.0044 0.932434,-0.333449 0.113086,-0.183017 0.206857,-0.490275 0.206857,-0.682342 -1.9e-5,-0.302812 -0.04198,-0.362872 -0.311842,-0.45695 -0.171141,-0.05964 -0.493446,-0.111347 -0.716299,-0.114232 -0.381071,-0.0049 -1.0867,-0.116485 -2.488513,-0.389025 -0.818913,-0.159206 -1.233161,-0.03074 -1.994533,0.614407 -0.68577,0.581092 -1.048889,1.062188 -1.148548,1.515966 -0.05754,0.262008 -0.105054,0.296439 -0.336533,0.262432 -0.193124,-0.02835 -0.333983,0.03265 -0.506349,0.216135 -0.131562,0.140019 -0.193065,0.256257 -0.13585,0.256257 0.05722,0 0.159344,0.130713 0.225382,0.290225 0.09951,0.240281 0.09299,0.337728 -0.03705,0.5681 -0.08632,0.152942 -0.242731,0.477944 -0.345799,0.722474 -0.103078,0.24453 -0.659104,1.089269 -1.234999,1.877198 -1.301906,1.781263 -1.468848,2.114051 -1.522131,3.031922 -0.03511,0.605169 -0.0077,0.76478 0.175982,1.062099 0.118926,0.192442 0.281452,0.351974 0.361242,0.351974 0.25769,0 0.672284,-0.269941 0.907724,-0.589707 0.175104,-0.23788 0.292349,-0.304274 0.494,-0.280967 0.21157,0.02445 0.269566,0.0879 0.2964,0.324183 0.01846,0.162436 0.16294,0.473459 0.321099,0.688516 0.353931,0.481264 0.36229,0.693171 0.03397,1.176332 -0.147341,0.216786 -0.235302,0.456307 -0.206867,0.565017 0.02721,0.104026 0.01029,0.191424 -0.03705,0.191424 -0.177386,0 -0.290225,-0.403212 -0.290225,-1.034306 -2e-5,-0.833328 -0.174431,-0.944043 -0.657642,-0.416817 -0.293357,0.320092 -0.330357,0.421816 -0.330357,0.916981 -2e-5,0.306942 0.05229,0.736939 0.117325,0.954042 0.114667,0.382691 0.10704,0.404289 -0.200683,0.679249 -0.174609,0.155995 -0.401305,0.28405 -0.506349,0.28405 -0.22394,0 -0.590962,0.459587 -0.867592,1.086799 -0.230836,0.523303 -0.558782,0.846626 -0.954041,0.944774 l -0.28405,0.07102 0.07102,-0.651467 c 0.06817,-0.636508 0.06341,-0.650291 -0.20995,-0.824366 -0.369127,-0.235075 -0.39766,-0.279515 -0.614417,-0.991082 -0.102297,-0.335801 -0.324736,-0.81909 -0.497082,-1.074449 l -0.314925,-0.466217 0.1976,-0.206857 c 0.40178,-0.428999 0.498722,-1.049749 0.163642,-1.049749 -0.185605,0 -0.186909,-0.0096 -0.0093,-0.351975 0.224226,-0.43219 0.07421,-0.478853 -0.339625,-0.104974 -0.537244,0.485354 -0.79277,0.610208 -0.901549,0.441507 -0.07138,-0.110646 -0.104757,-0.107198 -0.185249,0.01544 -0.127492,0.194181 -0.124785,0.361776 0.01235,0.740999 0.132223,0.365708 0.04489,0.964742 -0.1729,1.182507 -0.08328,0.08325 -0.257582,0.151292 -0.385942,0.151292 -0.305608,0 -0.935507,0.757449 -0.935507,1.123849 -2e-5,0.145582 -0.0667,0.425482 -0.1482,0.620592 -0.08153,0.19506 -0.1482,0.504956 -0.1482,0.688507 -1.9e-5,0.402135 0.108542,0.417726 0.799657,0.120407 0.55818,-0.240133 0.879942,-0.718463 0.879942,-1.312181 -2e-5,-0.375489 0.174559,-0.845974 0.314924,-0.845974 0.04832,0 0.219415,0.0653 0.379767,0.148199 0.405011,0.209456 0.412549,0.651695 0.01235,0.80275 -0.240469,0.09076 -0.306398,0.20006 -0.447692,0.762606 -0.09803,0.390161 -0.140592,0.808401 -0.104975,1.031234 0.04438,0.27747 0.02093,0.409526 -0.09572,0.50635 -0.20992,0.174173 -0.200662,0.332737 0.01544,0.265514 0.377721,-0.117483 2.34711,-0.352211 2.513222,-0.299482 0.159206,0.05053 0.161202,0.0825 0.03705,0.321099 -0.07591,0.145908 -0.24696,0.367081 -0.38285,0.494 -0.198113,0.185052 -0.285986,0.212903 -0.441517,0.129674 -0.230529,-0.123361 -0.318007,-0.05887 -0.318007,0.237743 -2e-5,0.257956 -0.391208,0.450181 -0.839799,0.413714 -0.262304,-0.0213 -0.300727,0.01063 -0.330357,0.2717 -0.02682,0.235905 0.03382,0.3548 0.308749,0.592799 0.290462,0.251545 0.39194,0.462503 0.651457,1.349243 0.36634,1.251861 0.371132,1.338531 0.08336,1.698123 l -0.2223,0.277875 -0.639107,-0.145113 c -0.350917,-0.08108 -0.650953,-0.186322 -0.666899,-0.231562 -0.111377,-0.315579 -0.2075,-0.360259 -0.503257,-0.237737 -0.328302,0.135955 -0.566489,0.05728 -0.981834,-0.3211 l -0.225382,-0.20378 -0.219218,0.219217 c -0.276442,0.276421 -0.275078,0.810174 0.0031,1.355412 0.177504,0.34796 0.187186,0.423698 0.06792,0.639111 -0.07445,0.134485 -0.137026,0.345874 -0.138932,0.466212 -0.002,0.120348 -0.09202,0.266024 -0.200693,0.324188 -0.139673,0.07474 -0.197599,0.207094 -0.197599,0.450774 -2e-5,0.301763 0.03523,0.350997 0.287142,0.401375 0.264378,0.05288 0.297091,0.107786 0.413714,0.694687 0.133617,0.67231 0.280286,0.846991 0.929342,1.105323 0.205909,0.08196 0.349159,0.246101 0.469299,0.537225 0.213527,0.517521 0.210494,0.721096 -0.0093,1.133111 -0.15968,0.299322 -0.187384,0.312075 -0.367417,0.175988 -0.425817,-0.321953 -0.734113,-0.147262 -1.265874,0.710124 -0.292329,0.471304 -0.327936,0.736005 -0.117324,0.910811 0.172593,0.143229 0.3507,0.05804 0.355067,-0.172899 0.0056,-0.302004 0.293307,0.182444 0.293307,0.493999 -2e-5,0.211124 -0.09796,0.344728 -0.410642,0.571187 -0.225531,0.163365 -0.469142,0.299487 -0.540307,0.299487 -0.0712,-1.2e-5 -0.183491,0.188955 -0.250092,0.4199 -0.06657,0.230933 -0.178611,0.507243 -0.250083,0.614412 -0.07146,0.107187 -0.129674,0.335974 -0.129674,0.509437 -2e-5,0.173451 -0.136354,0.673148 -0.302575,1.108411 l -0.302575,0.790399 0.219207,0.426075 c 0.572151,1.117266 1.04724,2.35454 1.000349,2.599673 -0.03598,0.188145 0.03682,0.361489 0.262443,0.6422 0.201235,0.250438 0.308552,0.500214 0.311842,0.713206 0.0044,0.290492 0.0842,0.384134 0.716299,0.836717 0.391178,0.280098 1.25053,0.969326 1.908063,1.534481 1.537376,1.32137 2.058704,1.701008 2.76949,2.013048 0.318304,0.139743 0.869429,0.381348 1.222649,0.537224 0.35319,0.155877 1.253672,0.44292 2.00379,0.636025 1.194995,0.307653 1.512913,0.350621 2.568797,0.351974 1.218589,0.0016 1.452784,0.04217 3.183205,0.5434 0.48904,0.141659 1.260657,0.321169 1.716648,0.398292 0.455962,0.07708 0.837221,0.151796 0.845974,0.166725 0.0088,0.01496 0.08992,0.148891 0.182167,0.296399 0.09221,0.147528 0.169808,0.418951 0.169808,0.60515 -2e-5,0.299334 0.0429,0.355393 0.370499,0.484732 0.203755,0.08045 0.70394,0.224908 1.111499,0.3211 0.40753,0.09618 0.963299,0.256059 1.234999,0.355067 0.27168,0.099 0.62737,0.210582 0.790399,0.246999 0.241497,0.05393 0.459064,0.185122 0.5681,0.324183 0.04978,0.01884 0.186415,0.06705 0.246999,0.08954 0.122848,0.0014 0.244214,0.0093 0.367408,0.0093 0.533183,-1e-5 1.063472,-0.01342 1.590065,-0.04014 0.526614,-0.02672 1.049107,-0.06761 1.568449,-0.120408 0.519361,-0.05281 1.035393,-0.116307 1.546831,-0.194517 0.511428,-0.07822 1.019239,-0.171793 1.522141,-0.274782 0.502872,-0.102999 1.000645,-0.215601 1.494348,-0.342717 0.493674,-0.127126 0.982733,-0.266207 1.466556,-0.416807 0.483833,-0.150601 0.962331,-0.314402 1.435691,-0.487825 0.473331,-0.173423 0.942621,-0.357073 1.404806,-0.552667 0.462186,-0.195604 0.917358,-0.403449 1.367767,-0.620582 0.450418,-0.217132 0.895828,-0.444323 1.333798,-0.682342 0.43798,-0.238008 0.868777,-0.485838 1.293666,-0.744081 0.262472,-0.159552 0.517653,-0.330022 0.774957,-0.497092 -0.158416,-0.0074 -0.315458,-9.88e-4 -0.475474,-0.0247 -0.226568,-0.05874 -0.365777,-0.418645 -0.364325,-0.947857 9.88e-4,-0.364295 0.127254,-0.595872 1.065191,-1.945123 0.585479,-0.842279 1.320244,-1.864858 1.633281,-2.272398 0.847446,-1.103321 1.605943,-2.683426 1.691948,-3.525922 0.03786,-0.370818 0.132363,-0.892924 0.20995,-1.160899 0.205227,-0.708852 0.167022,-1.735173 -0.06483,-1.735173 -0.04646,-1.2e-5 -0.822351,0.749209 -1.722833,1.667248 -0.900473,0.918027 -1.713349,1.690037 -1.806181,1.713561 -0.277233,0.07027 -0.797987,-0.112953 -0.907724,-0.318012 -0.08544,-0.159623 -0.0509,-0.228154 0.206857,-0.416812 0.309323,-0.226453 2.467083,-2.858998 3.439482,-4.195908 0.284059,-0.390588 0.538923,-0.8472 0.565007,-1.012699 0.04821,-0.306085 0.339861,-0.975442 1.268956,-2.920773 l 0.518699,-1.086798 0.05559,-1.383199 c 0.03124,-0.760761 0.03544,-1.501526 0.0061,-1.645636 -0.07653,-0.377239 -0.45114,-0.416535 -1.154714,-0.120412 -0.641231,0.26988 -0.861535,0.245379 -1.268966,-0.13585 -0.589411,-0.551513 -0.596357,-1.211307 -0.0093,-0.864499 l 0.287143,0.166725 0.685424,-0.50635 c 0.744783,-0.552617 1.257663,-1.117911 2.09023,-2.303274 0.808826,-1.151572 1.008856,-1.236964 2.003791,-0.852149 1.004716,0.38862 1.141425,0.393817 1.543748,0.0741 0.197847,-0.15725 0.398628,-0.284049 0.447692,-0.284049 0.194952,0 0.724826,0.475504 1.157807,1.040491 0.439303,0.573238 1.989306,2.121106 2.124197,2.121106 0.08798,0 0.25855,-0.458698 0.339625,-0.910806 0.203271,-0.181802 0.362744,-0.38037 0.503267,-0.583542 0.02597,-0.519531 0.04013,-1.039416 0.04013,-1.565357 9e-6,-0.533213 -0.01343,-1.063462 -0.04013,-1.590065 -0.02674,-0.526603 -0.06452,-1.052209 -0.117335,-1.571531 -0.05281,-0.519361 -0.11937,-1.032321 -0.1976,-1.543748 -0.07823,-0.511458 -0.168691,-1.01925 -0.271699,-1.522141 -0.103009,-0.502892 -0.218664,-1.003728 -0.3458,-1.497441 -0.127136,-0.493693 -0.266216,-0.982704 -0.416807,-1.466556 -0.150621,-0.483853 -0.311289,-0.962311 -0.484742,-1.435691 -0.173443,-0.473351 -0.360126,-0.939538 -0.555749,-1.401714 -0.195614,-0.462216 -0.400357,-0.920459 -0.6175,-1.370849 -0.217152,-0.450428 -0.447405,-0.892746 -0.685414,-1.330716 -0.238039,-0.43797 -0.485859,-0.868777 -0.744092,-1.293666 -0.258263,-0.424869 -0.524934,-0.84548 -0.802749,-1.256606 -0.277845,-0.411126 -0.564651,-0.813558 -0.861407,-1.210299 -0.296785,-0.396741 -0.605011,-0.78537 -0.920084,-1.167074 C 69.631562,28.965465 69.30984,28.589334 68.977161,28.223319 68.644452,27.857305 68.301755,27.498543 67.952112,27.148871 67.60242,26.799198 67.243667,26.459623 66.877663,26.126904 66.511629,25.794225 66.13861,25.469401 65.756897,25.154348 65.375203,24.839294 64.986564,24.53413 64.589823,24.237355 64.193062,23.9406 63.787578,23.653774 63.376432,23.375948 c -0.411146,-0.277825 -0.828645,-0.547559 -1.253514,-0.805841 -0.424899,-0.258243 -0.855696,-0.506063 -1.293666,-0.744082 -0.43796,-0.238019 -0.88339,-0.465229 -1.333799,-0.682332 -0.450399,-0.217152 -0.90554,-0.424988 -1.367766,-0.620592 -0.462215,-0.195604 -0.931466,-0.379253 -1.404806,-0.552657 -0.47337,-0.173443 -0.951828,-0.337214 -1.435691,-0.487834 -0.483863,-0.150591 -0.972863,-0.289691 -1.466556,-0.416807 -0.493713,-0.127116 -0.991467,-0.239728 -1.494348,-0.342707 -0.502912,-0.103009 -1.010694,-0.1935 -1.522141,-0.2717 -0.511458,-0.07823 -1.02748,-0.144811 -1.546831,-0.1976 -0.519332,-0.05281 -1.041845,-0.09369 -1.568449,-0.120417 -0.526593,-0.02673 -1.056852,-0.04014 -1.590066,-0.04013 z m -16.589116,4.841196 c -0.229848,0.146619 -0.462838,0.289019 -0.688517,0.441507 -0.411116,0.277825 -0.81664,0.564651 -1.213381,0.861406 -0.396751,0.296766 -0.78537,0.60194 -1.167074,0.916993 -0.381713,0.315053 -0.754772,0.639897 -1.120756,0.972556 -0.366024,0.332689 -0.724796,0.672294 -1.074449,1.021967 -0.349683,0.349672 -0.69239,0.708435 -1.025049,1.074449 -0.332699,0.366014 -0.654431,0.742145 -0.969484,1.123849 -0.315034,0.381703 -0.623319,0.770333 -0.920064,1.167073 -0.296776,0.396741 -0.583592,0.799173 -0.861417,1.210299 -0.138685,0.205208 -0.26754,0.418112 -0.401375,0.626757 0.115666,-0.06381 0.345188,-0.273458 0.5928,-0.565007 0.288417,-0.339624 1.205981,-1.293676 2.04084,-2.118023 1.056744,-1.043495 1.577469,-1.631295 1.713556,-1.938948 0.107494,-0.243038 0.260002,-0.467728 0.336542,-0.497082 0.0765,-0.02938 0.491787,-0.321791 0.923157,-0.651467 0.717396,-0.54828 1.111499,-0.730793 1.111499,-0.515616 -1e-5,0.04592 -0.09356,0.166072 -0.206858,0.268617 -0.113323,0.102544 -0.367911,0.409664 -0.565017,0.682332 -0.197115,0.272677 -0.895067,1.119531 -1.549923,1.88029 -0.654865,0.760759 -1.367223,1.605716 -1.583891,1.877198 -0.216609,0.271483 -0.515834,0.627162 -0.666899,0.790399 -0.739083,0.798669 -2.301425,3.449135 -2.53483,4.303971 -0.139446,0.510677 -0.113669,0.997365 0.05558,1.052832 0.06223,0.02041 0.327689,-0.237634 0.589707,-0.571182 0.262067,-0.333549 0.812668,-0.856438 1.222649,-1.163982 0.763802,-0.57299 0.880119,-0.634196 2.917689,-1.503616 1.31891,-0.562774 1.544391,-0.729627 1.880291,-1.389373 0.127432,-0.250349 0.618299,-0.872789 1.089881,-1.383199 0.471572,-0.51041 1.152748,-1.301195 1.512873,-1.759873 0.360106,-0.458679 1.065804,-1.275537 1.568449,-1.812366 0.502635,-0.536809 0.913899,-1.039246 0.913899,-1.117664 -10e-6,-0.07848 -0.05367,-0.225333 -0.117325,-0.327284 -0.09475,-0.151688 -0.067,-0.288427 0.157467,-0.747165 0.150809,-0.308295 0.260141,-0.576607 0.240815,-0.595893 -0.04229,-0.0423 -0.853325,0.106625 -1.096056,0.200693 -0.141768,0.05491 -0.1729,0.01185 -0.1729,-0.237742 -10e-6,-0.238335 0.06436,-0.336958 0.2964,-0.45695 0.16301,-0.0843 0.296399,-0.197906 0.296399,-0.250092 -10e-6,-0.05216 -0.277874,-0.234215 -0.617499,-0.404457 -0.339635,-0.170242 -0.638415,-0.325398 -0.660724,-0.3458 -0.0068,-0.0062 -0.01002,-0.01359 -0.01235,-0.02161 -0.115626,-0.05675 -0.137451,-0.05531 -0.23465,-0.0988 z m 8.959916,0.580449 c -0.04595,-0.0014 -0.09026,0.0012 -0.132758,0.0031 -0.510242,0.02245 -0.781141,0.275365 -0.781141,0.740999 -10e-6,0.216925 -0.06928,0.360896 -0.2223,0.463124 -0.219859,0.146857 -0.221361,0.149733 -0.03396,0.358151 0.200515,0.223041 0.340692,0.21406 0.898457,-0.06175 0.501074,-0.247791 1.037399,-0.827361 1.037399,-1.120757 -10e-6,-0.216649 -0.05539,-0.273518 -0.30875,-0.324193 -0.16624,-0.03324 -0.319123,-0.05449 -0.456949,-0.05866 z m 2.642897,0.598964 c -0.173512,5.93e-4 -0.235163,0.07288 -0.382849,0.311843 -0.116871,0.189073 -0.20995,0.495097 -0.20995,0.67925 -10e-6,0.502022 0.828338,2.467537 1.105324,2.62129 0.349119,0.193776 0.951621,0.159008 1.333798,-0.07719 0.380587,-0.235222 0.352696,-0.29964 -0.216124,-0.466207 -0.21737,-0.06368 -0.50635,-0.20334 -0.6422,-0.308749 -0.239056,-0.185517 -0.247,-0.229058 -0.247,-1.373941 -9e-6,-0.650647 -0.03166,-1.211081 -0.06793,-1.24735 -0.03628,-0.03627 -0.240172,-0.09178 -0.453866,-0.120408 -0.09001,-0.01208 -0.16138,-0.01871 -0.219208,-0.01853 z m -5.810669,0.710136 c -0.08463,0.01272 -0.187532,0.07146 -0.2964,0.172899 -0.278912,0.259824 -0.191079,0.409694 0.213033,0.3705 0.258184,-0.02508 0.311842,-0.07141 0.311842,-0.274792 -1e-5,-0.178759 -0.07765,-0.269269 -0.194508,-0.268607 -0.01138,4.9e-5 -0.02187,-0.0018 -0.03397,0 z m -0.558832,1.216464 c -0.01985,-6.92e-4 -0.04028,4.94e-4 -0.06175,0.0031 -0.143349,0.01752 -0.338014,0.113343 -0.725567,0.327275 -0.602916,0.332807 -0.731889,0.452068 -0.824366,0.753349 -0.10207,0.33262 -0.0823,0.391099 0.253184,0.889199 0.198074,0.294127 0.41087,0.537224 0.475465,0.537224 0.06462,0 0.207421,-0.151282 0.314935,-0.333449 0.117048,-0.19842 0.377949,-0.417173 0.651457,-0.549575 0.485976,-0.235262 0.498297,-0.269783 0.395199,-1.021966 -0.04776,-0.348369 -0.115961,-0.472392 -0.305657,-0.558832 -0.05956,-0.02713 -0.113442,-0.04412 -0.1729,-0.04632 z m -10.383257,8.694391 c -0.07747,-0.0056 -0.140236,0.132984 -0.280967,0.410642 -0.205316,0.405188 -0.256257,0.65199 -0.256257,1.197949 -10e-6,0.625265 0.02266,0.706083 0.259349,0.892291 0.143171,0.112602 0.316664,0.206857 0.385942,0.206857 0.06924,0 0.406355,-0.188954 0.750257,-0.419899 0.343893,-0.230945 0.6825,-0.53105 0.750257,-0.666899 0.132817,-0.266207 0.174579,-1.286336 0.05249,-1.284399 -0.04076,6.91e-4 -0.318629,0.06745 -0.617499,0.1482 -0.503217,0.135958 -0.553467,0.135217 -0.663807,-0.0247 -0.209041,-0.302822 -0.302308,-0.45447 -0.379767,-0.460042 z m 28.861921,7.863859 c 0.129754,-0.0029 1.52221,0.822183 1.985265,1.179424 0.437299,0.337392 0.564237,0.389232 0.818182,0.33345 0.277954,-0.06105 0.366558,-0.0032 1.117674,0.744091 0.44787,0.445539 0.999638,0.962173 1.225741,1.148549 0.531988,0.438415 1.160109,1.349824 1.092964,1.58388 -0.0281,0.09793 -0.08127,0.25688 -0.120407,0.351975 -0.05582,0.135553 -0.02296,0.1729 0.157457,0.1729 l 0.231567,0 -0.222299,0.154374 c -0.135969,0.09523 -0.532878,0.174076 -1.034317,0.206868 -0.447692,0.02924 -0.910876,0.115536 -1.031214,0.191415 -0.286312,0.180497 -0.264102,0.189774 -0.561934,-0.200683 -0.234551,-0.307495 -0.256258,-0.421579 -0.256258,-1.222647 -1.9e-5,-0.971865 -0.02005,-1.006505 -0.642199,-1.207217 -0.948775,-0.306032 -1.922745,-0.898852 -2.469997,-1.503606 -0.486758,-0.537866 -0.5434,-0.64953 -0.5434,-1.037399 -2e-5,-0.351549 0.09681,-0.708257 0.243907,-0.892291 0.0015,-0.0019 0.0051,-0.003 0.0093,-0.0031 z m -5.406212,4.523178 c 0.20825,-0.0093 0.440983,0.02552 0.707042,0.0988 0.19016,0.05238 0.811088,0.165055 1.380106,0.250092 1.137789,0.170024 1.422007,0.330426 1.540666,0.870673 0.05763,0.262314 0.0226,0.341305 -0.265525,0.586625 -0.183284,0.156044 -0.472046,0.416728 -0.639107,0.577357 -0.261326,0.251258 -0.417143,0.303335 -1.114591,0.382849 -0.445934,0.05088 -0.855736,0.12027 -0.910807,0.154385 -0.05511,0.034 -0.211797,-0.01206 -0.348892,-0.101892 -0.195594,-0.128144 -0.281026,-0.138547 -0.392107,-0.04631 -0.0779,0.06458 -0.138942,0.18445 -0.138942,0.265515 -2e-5,0.125911 -0.03974,0.123273 -0.256258,-0.01852 -0.289592,-0.189785 -0.476986,-0.09747 -0.571192,0.277865 -0.03105,0.123669 -0.171368,0.284653 -0.308749,0.35815 -0.137411,0.07356 -0.333638,0.279397 -0.438425,0.45695 -0.256415,0.43465 -0.714224,0.651447 -1.491266,0.707042 l -0.648364,0.04631 -0.280967,-0.426064 c -0.280543,-0.424 -0.283438,-0.432596 -0.225383,-1.586985 0.04166,-0.829188 0.114569,-1.279607 0.250083,-1.583881 0.104332,-0.234205 0.217745,-0.548339 0.253174,-0.697774 0.05819,-0.245655 0.105706,-0.271699 0.500175,-0.271699 0.536394,0 0.944774,0.145304 0.944774,0.336541 -2e-5,0.197245 0.472283,0.552657 0.734824,0.552657 0.14079,0 0.333805,-0.156835 0.55575,-0.453857 0.360293,-0.482162 0.705787,-0.714233 1.163981,-0.734833 z m -13.202137,3.874814 c 0.08277,-0.0043 0.183897,0.04904 0.302585,0.16055 0.225066,0.211471 0.237969,0.216124 0.561914,0.216124 0.12596,0 0.265229,0.131859 0.389035,0.3705 0.406275,0.783214 0.68663,0.998165 1.441856,1.111499 0.38036,0.05707 0.832221,0.150862 1.006524,0.206862 0.387967,0.124625 0.722474,0.627953 0.722474,1.092974 -1.9e-5,0.298353 0.07897,0.407851 0.6422,0.873762 0.512129,0.423662 0.642199,0.587395 0.642199,0.808924 -2e-5,0.211766 0.04716,0.277875 0.1976,0.277875 0.108502,-1.2e-5 0.37206,0.158119 0.586624,0.351974 0.310706,0.280699 0.456317,0.346067 0.716299,0.3211 0.344802,-0.03313 0.342846,-0.02452 0.20995,-0.697774 -0.05057,-0.256181 -0.03404,-0.2717 0.302575,-0.2717 0.196335,-1.2e-5 0.357863,0.03335 0.35815,0.0741 0,0.04074 0.101892,0.200727 0.225392,0.355062 0.221815,0.277222 0.227496,0.276526 0.450764,0.09571 0.190279,-0.1541 0.20916,-0.22434 0.126593,-0.441512 -0.07577,-0.199231 -0.284939,-0.334615 -0.920074,-0.598974 -0.665595,-0.277068 -0.885988,-0.424281 -1.154724,-0.774962 l -0.330357,-0.435337 0.299482,-0.07719 c 0.33671,-0.08725 0.463124,-0.227013 0.463124,-0.5187 -1.9e-5,-0.150049 0.131661,-0.240247 0.561925,-0.385937 0.529429,-0.179234 0.57628,-0.181189 0.815099,-0.0247 0.220759,0.144642 0.253175,0.237243 0.253175,0.707037 -2e-5,0.49541 0.01894,0.544066 0.250092,0.602062 0.242228,0.06079 0.244302,0.06849 0.07718,0.253175 -0.149336,0.165002 -0.151944,0.205493 -0.02778,0.284049 0.07933,0.05018 0.178442,0.09181 0.219207,0.09262 0.04073,7.91e-4 0.0741,0.09201 0.0741,0.200687 -2e-5,0.158602 0.06555,0.1976 0.33345,0.1976 0.235104,-2e-6 0.376022,0.06479 0.478557,0.219213 0.144989,0.218396 0.146698,0.21733 0.546492,0.03705 0.220699,-0.09952 0.452721,-0.150017 0.515607,-0.111149 0.06291,0.03888 0.313956,0.04286 0.558842,0.0062 0.381792,-0.05728 0.462601,-0.112128 0.552657,-0.3705 l 0.104984,-0.299487 0.731732,0.04631 c 0.677076,0.04344 0.758299,0.02702 1.096067,-0.219212 0.200889,-0.146483 0.554998,-0.472441 0.784214,-0.722474 l 0.416817,-0.453862 0.0988,0.364324 c 0.05575,0.20069 0.101606,0.470999 0.101882,0.598975 0,0.128004 0.114638,0.366409 0.253185,0.531049 0.178946,0.212696 0.236725,0.375326 0.200682,0.558837 -0.13002,0.662106 -0.09425,1.066323 0.120418,1.367761 0.119468,0.167821 0.219207,0.418126 0.219207,0.558837 -2e-5,0.376337 -0.634859,0.799109 -1.423341,0.947862 -0.567645,0.107108 -0.660537,0.09954 -0.913899,-0.06175 -0.155264,-0.09885 -0.31777,-0.236433 -0.361232,-0.305662 -0.04345,-0.06923 -0.254637,-0.1235 -0.4693,-0.1235 -0.326958,-1.2e-5 -0.389024,0.03182 -0.389024,0.200687 -2e-5,0.110831 -0.09187,0.379639 -0.203775,0.598974 -0.148892,0.291874 -0.176477,0.434369 -0.0988,0.527962 0.0821,0.09891 -0.0045,0.176862 -0.38285,0.339625 -0.268992,0.115712 -0.649589,0.20995 -0.845974,0.20995 -0.196424,-1.2e-5 -0.492369,0.06892 -0.657642,0.154375 -0.264803,0.136924 -0.342035,0.139806 -0.660714,0.01544 -0.248205,-0.09683 -0.454213,-0.114134 -0.657642,-0.05557 -0.215186,0.06193 -0.402916,0.03901 -0.679249,-0.08336 l -0.379757,-0.169813 -0.6422,0.339625 c -0.801573,0.425113 -0.959268,0.643993 -0.892291,1.238086 0.04147,0.368038 0.0134,0.485898 -0.154375,0.6422 -0.112662,0.104963 -0.22884,0.183249 -0.25935,0.175987 -0.0305,-0.0073 -0.277875,-0.09241 -0.549574,-0.191425 -0.27172,-0.09905 -0.730882,-0.182878 -1.018874,-0.18525 -0.539912,-0.0045 -0.925676,-0.149469 -1.472731,-0.558837 -0.275464,-0.206118 -0.414377,-0.235435 -1.102242,-0.225387 -0.647781,0.0095 -0.886314,-0.03429 -1.330706,-0.237737 -0.677421,-0.310135 -0.802235,-0.589969 -0.407549,-0.904637 l 0.271699,-0.216124 -0.250092,-0.194513 c -0.392176,-0.308475 -0.612184,-0.806503 -0.481649,-1.092974 0.143813,-0.315687 0.14159,-0.327274 -0.08954,-0.327274 -0.109431,-1.2e-5 -0.281896,-0.0512 -0.382849,-0.114238 -0.148793,-0.09291 -0.236913,-0.07725 -0.475465,0.09263 -0.253313,0.180347 -0.348694,0.195915 -0.666899,0.108063 -0.405673,-0.112012 -1.424418,-0.07205 -2.42369,0.09571 -0.35323,0.0593 -0.864203,0.136457 -1.133107,0.169812 -0.380794,0.04721 -0.555621,0.131691 -0.790399,0.38285 -0.167239,0.178845 -0.515824,0.395165 -0.784234,0.484737 -0.475475,0.158672 -0.495709,0.154819 -1.160899,-0.104975 -0.596564,-0.233013 -0.676157,-0.29434 -0.676157,-0.521787 -1.9e-5,-0.347205 0.505184,-0.547791 0.969474,-0.385937 0.258896,0.09024 0.366034,0.07689 0.632932,-0.07719 0.472046,-0.272512 0.669794,-0.739127 0.669992,-1.590061 l 0,-0.7163 0.691599,-0.688511 c 0.667927,-0.666635 0.6916,-0.706449 0.6916,-1.173249 -2e-5,-0.394639 0.0407,-0.511927 0.225392,-0.632937 0.203419,-0.133302 0.258441,-0.130737 0.565007,0.02779 0.327314,0.169272 0.355255,0.168103 0.688507,-0.0031 0.190812,-0.09802 0.426193,-0.311665 0.521792,-0.475475 0.09556,-0.163833 0.368494,-0.406329 0.608241,-0.540312 l 0.438415,-0.243912 0.06175,0.25935 c 0.221588,0.901182 0.999954,1.550847 3.158514,2.633635 1.129797,0.566724 1.188138,0.610049 1.330716,1.012699 0.170628,0.482003 0.310133,0.491998 0.441507,0.03396 0.06949,-0.242357 0.05194,-0.402363 -0.07719,-0.673074 -0.197481,-0.414103 -0.08726,-0.558333 0.351985,-0.466212 0.642792,0.13481 0.255358,-0.453586 -0.657642,-0.997262 -0.502072,-0.298959 -0.650242,-0.343823 -0.969474,-0.290224 -0.370431,0.06214 -0.392137,0.0509 -1.259699,-0.82745 -0.821156,-0.831406 -0.883024,-0.924485 -0.883024,-1.299836 -2e-5,-0.305568 0.08124,-0.468351 0.219207,-0.475474 z m 30.439637,2.019223 c 0.114529,-0.0062 0.161943,0.143427 0.163632,0.456949 0.0016,0.295993 -0.583927,1.540256 -0.815099,1.732086 -0.224987,0.186689 -0.674645,0.211941 -1.201031,0.06484 -0.365303,-0.102092 -0.590478,-0.109949 -0.892282,-0.03396 -0.36136,0.09098 -0.471137,0.0695 -1.068284,-0.20995 -0.65772,-0.307782 -0.663807,-0.316288 -0.663807,-0.703949 -1.9e-5,-0.504632 0.147627,-0.77678 0.422992,-0.774962 0.120329,7.91e-4 0.528363,0.154405 0.907715,0.339625 0.655013,0.319783 0.716121,0.330001 1.231916,0.23465 0.709768,-0.131209 1.058018,-0.316753 1.515966,-0.808925 0.17866,-0.192049 0.309224,-0.291598 0.398282,-0.296399 z m -32.119235,0.16055 c -0.17453,-0.0038 -0.416807,0.791683 -0.416807,1.389373 -10e-6,0.367148 -0.06816,0.700062 -0.191425,0.941687 -0.186939,0.366408 -0.187285,0.38155 -0.0061,0.657636 0.184569,0.281371 0.535901,0.533693 0.756442,0.540312 0.06402,0.0019 0.189034,-0.06866 0.274782,-0.154374 0.344012,-0.344035 0.352598,-0.482445 0.08953,-1.435686 -0.140632,-0.509711 -0.283921,-1.14682 -0.318007,-1.414074 -0.0341,-0.267256 -0.113057,-0.501928 -0.1729,-0.521787 -0.0055,-0.0018 -0.0098,-0.003 -0.01544,-0.0031 z m 3.090589,3.544446 c -0.08462,0.004 -0.14899,0.04686 -0.243907,0.132762 -0.110666,0.100133 -0.202046,0.141778 -0.203785,0.09262 -0.0072,-0.205546 -0.293307,0.312376 -0.293307,0.53105 -1e-5,0.216062 0.03093,0.2358 0.3211,0.182162 0.176595,-0.03265 0.454479,-0.02134 0.617499,0.02779 0.460151,0.138584 0.698891,0.122962 0.920074,-0.06484 0.149307,-0.126792 0.189261,-0.24537 0.1482,-0.4446 -0.0464,-0.225068 -0.107524,-0.271699 -0.35815,-0.271699 -0.166428,-1.2e-5 -0.448255,-0.05279 -0.626766,-0.117325 -0.105025,-0.03799 -0.181071,-0.06294 -0.243908,-0.06792 -0.0131,-0.001 -0.02497,-5.93e-4 -0.03705,0 z m 7.922517,0.305662 c -0.104797,0.01139 -0.200326,0.06833 -0.314924,0.175987 -0.172979,0.162485 -0.305934,0.203909 -0.490907,0.157463 -0.206759,-0.05189 -0.250093,-0.02967 -0.250093,0.129675 -1e-5,0.441227 0.896017,0.557448 1.343057,0.172899 0.316288,-0.272068 0.271363,-0.521525 -0.11115,-0.617499 -0.04746,-0.01193 -0.0913,-0.01823 -0.132758,-0.01852 -0.01556,-9.9e-5 -0.02826,-0.0016 -0.04322,0 z m 8.552367,3.254222 c 0.324419,0.0036 0.952875,0.334472 1.710473,0.904636 0.541621,0.407597 0.841983,0.557217 1.315274,0.657637 0.428544,0.09095 0.677174,0.20583 0.830541,0.38285 0.529676,0.611452 1.192851,1.201036 1.352314,1.201036 0.09537,-1.2e-5 0.5005,0.111807 0.901549,0.250087 0.401058,0.138238 0.920687,0.298717 1.151641,0.355063 0.338153,0.0825 0.4199,0.143259 0.4199,0.321099 -2e-5,0.152358 0.114203,0.285122 0.3705,0.429162 0.35477,0.199407 0.815099,0.706395 0.815099,0.898462 -2e-5,0.186917 -0.269171,0.287982 -0.920074,0.3458 -0.637487,0.05661 -0.673015,0.04765 -0.774967,-0.175988 -0.13993,-0.307073 -0.438711,-0.376581 -0.802749,-0.188337 -0.282973,0.146311 -0.304126,0.140375 -0.608232,-0.154375 -0.231854,-0.224752 -0.407155,-0.302575 -0.6669,-0.302575 -0.371714,-1.2e-5 -0.679387,-0.270751 -1.602415,-1.407898 -0.321713,-0.396338 -0.433277,-0.4693 -0.722465,-0.4693 -0.281856,-1.2e-5 -0.449796,-0.103804 -0.950949,-0.577362 -0.334951,-0.316508 -0.810771,-0.690458 -1.055934,-0.830536 -0.245152,-0.140091 -0.641369,-0.427404 -0.879931,-0.639112 -0.424336,-0.376589 -0.429641,-0.390838 -0.293317,-0.676162 0.07809,-0.163457 0.230747,-0.304185 0.348892,-0.3211 0.01884,-0.0027 0.0401,-0.0033 0.06175,-0.0031 z m -29.559695,1.367761 c -0.0507,-1.2e-5 -0.120339,0.08727 -0.154375,0.194512 -0.03406,0.107266 -0.162447,0.273992 -0.28405,0.3705 -0.121623,0.09652 -0.254993,0.231562 -0.2964,0.299487 -0.122857,0.20151 0.533816,0.154405 0.688507,-0.0494 0.149919,-0.197493 0.18523,-0.815099 0.04632,-0.815099 z"
     id="path2653"
     inkscape:connector-curvature="0" />
  <path
     style="fill:#ffcc00;fill-opacity:1;stroke:none"
     d="m 70.516737,9.7017692 c 0,0 14.236587,14.1351118 4.109794,28.1612018 -4.786585,6.629648 6.778467,-0.375956 6.778467,-0.375956 0,0 -7.844051,11.478977 -10.975806,14.29946 -6.511683,5.864472 2.785825,2.541649 2.785825,2.541649 l -5.747207,3.966099 c 0,0 -6.792278,4.765988 -4.615386,4.027315 2.176891,-0.738674 10.243992,-1.741716 10.243992,-1.741716 0,0 -4.036192,4.868486 -10.561065,10.254263 -9.996348,8.427476 -8.32359,7.71491 -26.608389,14.243221 0,0 14.531484,-9.994461 12.93865,-31.95955 -3.169659,-7.633795 4.245023,-0.09826 3.930332,7.205347 4.289244,-6.604654 -0.885363,-25.057667 1.268168,-19.638533 4.614894,13.3687 4.09048,-0.09647 4.09048,-0.09647 l -1.352977,-9.443 c 0,0 5.246977,7.254592 4.951084,4.946438 -1.040273,-5.123639 -2.127633,-11.13096 -2.127633,-11.13096 l 5.822501,5.562723 z"
     id="path4201"
     inkscape:connector-curvature="0"
     sodipodi:nodetypes="cscsccscccccccccccc" />
  <path
     style="fill:#c87137;stroke:none"
     d="m 38.778699,87.310781 c 0,0 7.406507,-8.314822 15.700159,-19.692597 8.293652,-11.377775 16.578131,-27.909913 16.541441,-48.527367 -1.192271,18.545766 -6.63841,36.721154 -30.310392,62.061627 -4.890418,5.235113 -8.666179,4.925793 -8.666179,4.925793 z"
     id="path3032"
     inkscape:connector-curvature="0"
     sodipodi:nodetypes="cscscc" />
</svg>
