<?xml version="1.0" encoding="UTF-8" standalone="no"?>
<!-- Created with Inkscape (http://www.inkscape.org/) -->

<svg
   xmlns:dc="http://purl.org/dc/elements/1.1/"
   xmlns:cc="http://creativecommons.org/ns#"
   xmlns:rdf="http://www.w3.org/1999/02/22-rdf-syntax-ns#"
   xmlns:svg="http://www.w3.org/2000/svg"
   xmlns="http://www.w3.org/2000/svg"
   xmlns:xlink="http://www.w3.org/1999/xlink"
   xmlns:sodipodi="http://sodipodi.sourceforge.net/DTD/sodipodi-0.dtd"
   xmlns:inkscape="http://www.inkscape.org/namespaces/inkscape"
   version="1.0"
   width="96"
   height="96"
   id="svg2408"
   style="display:inline"
   inkscape:version="0.48.5 r10040"
   sodipodi:docname="k3b.svg">
  <sodipodi:namedview
     pagecolor="#ffffff"
     bordercolor="#666666"
     borderopacity="1"
     objecttolerance="10"
     gridtolerance="10"
     guidetolerance="10"
     inkscape:pageopacity="0"
     inkscape:pageshadow="2"
     inkscape:window-width="1680"
     inkscape:window-height="988"
     id="namedview118"
     showgrid="false"
     inkscape:zoom="3.9985234"
     inkscape:cx="44.320158"
     inkscape:cy="42.167464"
     inkscape:window-x="0"
     inkscape:window-y="-3"
     inkscape:window-maximized="1"
     inkscape:current-layer="svg2408" />
  <defs
     id="defs2410">
    <linearGradient
       id="linearGradient3604">
      <stop
         id="stop3606"
         style="stop-color:#2f2f2f;stop-opacity:1"
         offset="0" />
      <stop
         id="stop3608"
         style="stop-color:#ffffff;stop-opacity:1"
         offset="0.43731192" />
      <stop
         id="stop3610"
         style="stop-color:#979797;stop-opacity:1"
         offset="0.62138397" />
      <stop
         id="stop3612"
         style="stop-color:#505050;stop-opacity:1"
         offset="0.7723214" />
      <stop
         id="stop3614"
         style="stop-color:#e6e6e6;stop-opacity:1"
         offset="1" />
    </linearGradient>
    <linearGradient
       id="linearGradient3435">
      <stop
         id="stop3437"
         style="stop-color:#ededed;stop-opacity:1"
         offset="0" />
      <stop
         id="stop3439"
         style="stop-color:#b0b0b0;stop-opacity:1"
         offset="1" />
    </linearGradient>
    <linearGradient
       id="linearGradient3387">
      <stop
         id="stop3389"
         style="stop-color:#a2a2a2;stop-opacity:1"
         offset="0" />
      <stop
         id="stop3391"
         style="stop-color:#ffffff;stop-opacity:1"
         offset="1" />
    </linearGradient>
    <linearGradient
       id="linearGradient3354">
      <stop
         id="stop3356"
         style="stop-color:#b4b4b4;stop-opacity:1"
         offset="0" />
      <stop
         id="stop3362"
         style="stop-color:#646464;stop-opacity:1"
         offset="0.20467032" />
      <stop
         id="stop3364"
         style="stop-color:#ffffff;stop-opacity:1"
         offset="0.49567693" />
      <stop
         id="stop3358"
         style="stop-color:#3c3c3c;stop-opacity:1"
         offset="1" />
    </linearGradient>
    <linearGradient
       id="linearGradient3290">
      <stop
         id="stop3292"
         style="stop-color:#ffffff;stop-opacity:1"
         offset="0" />
      <stop
         id="stop3304"
         style="stop-color:#8c8c8c;stop-opacity:1"
         offset="0.48973215" />
      <stop
         id="stop3306"
         style="stop-color:#cfcfcf;stop-opacity:1"
         offset="0.50044644" />
      <stop
         id="stop3298"
         style="stop-color:#ffffff;stop-opacity:1"
         offset="0.62276787" />
      <stop
         id="stop3300"
         style="stop-color:#c8c8c8;stop-opacity:1"
         offset="0.81696427" />
      <stop
         id="stop3294"
         style="stop-color:#505050;stop-opacity:1"
         offset="1" />
    </linearGradient>
    <linearGradient
       id="linearGradient3236">
      <stop
         id="stop3238"
         style="stop-color:#497c1c;stop-opacity:1"
         offset="0" />
      <stop
         id="stop3242"
         style="stop-color:#d3f88e;stop-opacity:1"
         offset="0.2" />
      <stop
         id="stop3240"
         style="stop-color:#d3f88e;stop-opacity:0"
         offset="1" />
    </linearGradient>
    <linearGradient
       id="linearGradient3199">
      <stop
         id="stop3201"
         style="stop-color:#63b01e;stop-opacity:1"
         offset="0" />
      <stop
         id="stop3203"
         style="stop-color:#a1e153;stop-opacity:1"
         offset="1" />
    </linearGradient>
    <linearGradient
       x1="45.447727"
       y1="92.539597"
       x2="45.447727"
       y2="7.0165396"
       id="ButtonShadow"
       gradientUnits="userSpaceOnUse"
       gradientTransform="scale(1.0058652,0.994169)">
      <stop
         id="stop3750"
         style="stop-color:#000000;stop-opacity:1"
         offset="0" />
      <stop
         id="stop3752"
         style="stop-color:#000000;stop-opacity:0.58823532"
         offset="1" />
    </linearGradient>
    <linearGradient
       id="linearGradient3737">
      <stop
         id="stop3739"
         style="stop-color:#ffffff;stop-opacity:1"
         offset="0" />
      <stop
         id="stop3741"
         style="stop-color:#ffffff;stop-opacity:0"
         offset="1" />
    </linearGradient>
    <linearGradient
       id="linearGradient3700">
      <stop
         id="stop3702"
         style="stop-color:#3f7013;stop-opacity:1"
         offset="0" />
      <stop
         id="stop3704"
         style="stop-color:#63b01e;stop-opacity:1"
         offset="1" />
    </linearGradient>
    <filter
       color-interpolation-filters="sRGB"
       id="filter3174">
      <feGaussianBlur
         id="feGaussianBlur3176"
         stdDeviation="1.71" />
    </filter>
    <linearGradient
       x1="19.035713"
       y1="74"
       x2="87.5"
       y2="27.428572"
       id="linearGradient3220"
       xlink:href="#linearGradient3737"
       gradientUnits="userSpaceOnUse" />
    <linearGradient
       x1="6"
       y1="73"
       x2="24"
       y2="73"
       id="linearGradient3234"
       xlink:href="#linearGradient3236"
       gradientUnits="userSpaceOnUse" />
    <linearGradient
       x1="6"
       y1="73"
       x2="24"
       y2="73"
       id="linearGradient3246"
       xlink:href="#linearGradient3236"
       gradientUnits="userSpaceOnUse"
       gradientTransform="matrix(-1,0,0,1,96,0)" />
    <linearGradient
       x1="38.748035"
       y1="65.59034"
       x2="38.748035"
       y2="5.8331571"
       id="linearGradient3223"
       xlink:href="#linearGradient3199"
       gradientUnits="userSpaceOnUse" />
    <radialGradient
       cx="90"
       cy="90"
       r="42"
       fx="90"
       fy="90"
       id="radialGradient3229"
       xlink:href="#linearGradient3700"
       gradientUnits="userSpaceOnUse"
       gradientTransform="matrix(0,-1.085034,2,0,-90,187.65306)" />
    <clipPath
       id="clipPath3235">
      <path
         d="m 66,6 0,55 c 0,1.662 1.338,3 3,3 l 6,0 c 1.662,0 3,-1.338 3,-3 l 0,-55 -4,0 0,2 -4,0 0,-2 -4,0 z"
         inkscape:connector-curvature="0"
         id="path3237"
         style="fill:#ffffff;fill-opacity:1;fill-rule:nonzero;stroke:none" />
    </clipPath>
    <filter
       x="-0.16615385"
       y="-0.036610167"
       width="1.3323077"
       height="1.0732203"
       color-interpolation-filters="sRGB"
       id="filter3243">
      <feGaussianBlur
         id="feGaussianBlur3245"
         stdDeviation="0.9" />
    </filter>
    <linearGradient
       x1="68.75"
       y1="59"
       x2="75.25"
       y2="59"
       id="linearGradient3360"
       xlink:href="#linearGradient3354"
       gradientUnits="userSpaceOnUse"
       gradientTransform="translate(0,-1)" />
    <linearGradient
       x1="69"
       y1="54"
       x2="73"
       y2="54"
       id="linearGradient3372"
       xlink:href="#linearGradient3290"
       gradientUnits="userSpaceOnUse"
       gradientTransform="translate(0,-1)" />
    <linearGradient
       x1="63.484772"
       y1="64.163078"
       x2="79"
       y2="65"
       id="linearGradient3393"
       xlink:href="#linearGradient3387"
       gradientUnits="userSpaceOnUse" />
    <filter
       x="-0.16182838"
       y="-0.095353596"
       width="1.3236568"
       height="1.1907072"
       color-interpolation-filters="sRGB"
       id="filter3429">
      <feGaussianBlur
         id="feGaussianBlur3431"
         stdDeviation="0.53551312" />
    </filter>
    <linearGradient
       x1="68.96875"
       y1="17.5"
       x2="75.0625"
       y2="17.5"
       id="linearGradient3489"
       xlink:href="#linearGradient3435"
       gradientUnits="userSpaceOnUse"
       gradientTransform="matrix(-1,0,0,1,144.03125,-2)" />
    <linearGradient
       x1="68.02903"
       y1="17.763245"
       x2="75.97097"
       y2="17.763245"
       id="linearGradient3516"
       xlink:href="#linearGradient3435"
       gradientUnits="userSpaceOnUse"
       gradientTransform="translate(0,-2)" />
    <linearGradient
       x1="68.75"
       y1="59"
       x2="72.250572"
       y2="59"
       id="linearGradient3530"
       xlink:href="#linearGradient3354"
       gradientUnits="userSpaceOnUse"
       gradientTransform="matrix(1.1262691,0,0,1,-7.4019692,-49.5)" />
    <linearGradient
       x1="69"
       y1="54"
       x2="73"
       y2="54"
       id="linearGradient3602"
       xlink:href="#linearGradient3604"
       gradientUnits="userSpaceOnUse"
       gradientTransform="matrix(-1,0,0,1,144,-4)" />
    <linearGradient
       x1="45.447727"
       y1="92.539597"
       x2="45.447727"
       y2="7.0165396"
       id="ButtonShadow-0"
       gradientUnits="userSpaceOnUse"
       gradientTransform="matrix(1.0058652,0,0,0.994169,100,0)">
      <stop
         id="stop3750-8"
         style="stop-color:#000000;stop-opacity:1"
         offset="0" />
      <stop
         id="stop3752-5"
         style="stop-color:#000000;stop-opacity:0.58823532"
         offset="1" />
    </linearGradient>
    <linearGradient
       x1="32.251034"
       y1="6.1317081"
       x2="32.251034"
       y2="90.238609"
       id="linearGradient3780"
       xlink:href="#ButtonShadow-0"
       gradientUnits="userSpaceOnUse"
       gradientTransform="matrix(1.0238095,0,0,1.0119048,-1.1428571,-98.071429)" />
    <linearGradient
       x1="32.251034"
       y1="6.1317081"
       x2="32.251034"
       y2="90.238609"
       id="linearGradient3772"
       xlink:href="#ButtonShadow-0"
       gradientUnits="userSpaceOnUse"
       gradientTransform="matrix(1.0238095,0,0,1.0119048,-1.1428571,-98.071429)" />
    <linearGradient
       x1="32.251034"
       y1="6.1317081"
       x2="32.251034"
       y2="90.238609"
       id="linearGradient3725"
       xlink:href="#ButtonShadow-0"
       gradientUnits="userSpaceOnUse"
       gradientTransform="matrix(1.0238095,0,0,1.0119048,-1.1428571,-98.071429)" />
    <linearGradient
       x1="32.251034"
       y1="6.1317081"
       x2="32.251034"
       y2="90.238609"
       id="linearGradient3721"
       xlink:href="#ButtonShadow-0"
       gradientUnits="userSpaceOnUse"
       gradientTransform="translate(0,-97)" />
    <linearGradient
       x1="32.251034"
       y1="6.1317081"
       x2="32.251034"
       y2="90.238609"
       id="linearGradient2918"
       xlink:href="#ButtonShadow-0"
       gradientUnits="userSpaceOnUse"
       gradientTransform="matrix(1.0238095,0,0,1.0119048,-1.1428571,-98.071429)" />
    <linearGradient
       gradientTransform="matrix(-4.2195487,-0.09814187,0.09814187,-4.2195487,92.993425,93.624149)"
       x1="21.310946"
       y1="11.446488"
       x2="6.589735"
       y2="11.788887"
       id="linearGradient2988"
       xlink:href="#linearGradient3308"
       gradientUnits="userSpaceOnUse" />
    <linearGradient
       id="linearGradient3308">
      <stop
         id="stop3310"
         style="stop-color:#fc0000;stop-opacity:1"
         offset="0" />
      <stop
         id="stop3312"
         style="stop-color:#fc0000;stop-opacity:0"
         offset="1" />
    </linearGradient>
    <radialGradient
       gradientTransform="matrix(6.5929274,-0.57183006,0.57183006,6.5929274,-20.670237,-20.8895)"
       cx="5.9628973"
       cy="10.957597"
       r="1.5017668"
       fx="5.9628973"
       fy="10.957597"
       id="radialGradient3300"
       xlink:href="#linearGradient3293"
       gradientUnits="userSpaceOnUse" />
    <linearGradient
       id="linearGradient3293">
      <stop
         id="stop3296"
         style="stop-color:#ffc64e;stop-opacity:1"
         offset="0" />
      <stop
         id="stop3839"
         style="stop-color:#f30000;stop-opacity:0.83064514"
         offset="0.30000001" />
      <stop
         id="stop3302"
         style="stop-color:#fb0000;stop-opacity:0.47580644"
         offset="0.43782738" />
      <stop
         id="stop3298-9"
         style="stop-color:#ffb56f;stop-opacity:0"
         offset="1" />
    </linearGradient>
    <linearGradient
       x1="5"
       y1="64"
       x2="123"
       y2="64"
       id="linearGradient3927"
       xlink:href="#linearGradient3247"
       gradientUnits="userSpaceOnUse"
       gradientTransform="matrix(-0.0945087,0.55118269,0.55116053,0.09451249,19.311201,6.4219812)" />
    <linearGradient
       id="linearGradient3247">
      <stop
         id="stop3249"
         style="stop-color:#ffffff;stop-opacity:0"
         offset="0" />
      <stop
         id="stop3293"
         style="stop-color:#d5d5d5;stop-opacity:0"
         offset="0.30000001" />
      <stop
         id="stop3251"
         style="stop-color:#eb8888;stop-opacity:0.2578125"
         offset="0.5" />
      <stop
         id="stop3295"
         style="stop-color:#e28f25;stop-opacity:0"
         offset="0.69999999" />
      <stop
         id="stop3253"
         style="stop-color:#ffffff;stop-opacity:0"
         offset="1" />
    </linearGradient>
    <linearGradient
       x1="26.180153"
       y1="61.92226"
       x2="93.607834"
       y2="61.92226"
       id="linearGradient3948"
       xlink:href="#linearGradient3330"
       gradientUnits="userSpaceOnUse"
       gradientTransform="matrix(0,0.28234448,-0.33916637,0,69.538127,30.834213)" />
    <linearGradient
       id="linearGradient3330">
      <stop
         id="stop3332"
         style="stop-color:#ffffff;stop-opacity:0.203125"
         offset="0" />
      <stop
         id="stop3334"
         style="stop-color:#ffffff;stop-opacity:0.6796875"
         offset="1" />
    </linearGradient>
    <linearGradient
       gradientTransform="matrix(0,0.12447512,-0.14952564,0,57.795138,40.289641)"
       x1="25.220379"
       y1="61.92226"
       x2="94.567612"
       y2="61.92226"
       id="linearGradient3368"
       xlink:href="#linearGradient3362"
       gradientUnits="userSpaceOnUse" />
    <linearGradient
       id="linearGradient3362">
      <stop
         id="stop3364-1"
         style="stop-color:#4d4d4d;stop-opacity:1"
         offset="0" />
      <stop
         id="stop3366"
         style="stop-color:#ffffff;stop-opacity:1"
         offset="1" />
    </linearGradient>
    <radialGradient
       cx="59.893993"
       cy="61.92226"
       r="33.71384"
       fx="59.893993"
       fy="61.92226"
       id="radialGradient3348"
       xlink:href="#linearGradient3342"
       gradientUnits="userSpaceOnUse"
       gradientTransform="matrix(0,0.26689125,-0.26851911,0,65.163489,31.759768)" />
    <linearGradient
       id="linearGradient3342">
      <stop
         id="stop3344"
         style="stop-color:#000000;stop-opacity:0"
         offset="0" />
      <stop
         id="stop3350"
         style="stop-color:#000000;stop-opacity:0"
         offset="0.85000002" />
      <stop
         id="stop3346"
         style="stop-color:#000000;stop-opacity:1"
         offset="1" />
    </linearGradient>
    <clipPath
       id="clipPath3999">
      <path
         d="m 18,14.8125 c -18.21479,0 -33,14.784477 -33,33 0,18.215529 14.78521,33 33,33 18.2148,0 33,-14.784471 33,-33 0,-0.27935 0.007,-0.566055 0,-0.84375 l -21.28125,0 c 0.0194,0.275437 0.0312,0.563419 0.0312,0.84375 0,6.483487 -5.26677,11.75 -11.75,11.75 -6.48323,0 -11.75,-5.266513 -11.75,-11.75 0,-6.483491 5.26677,-11.75 11.75,-11.75 0.0213,0 0.0413,-1.13e-4 0.0625,0 l 0,-21.25 c -0.0211,-4e-5 -0.0414,0 -0.0625,0 z"
         inkscape:connector-curvature="0"
         id="path4001"
         style="fill:#ff00ff;fill-opacity:1;fill-rule:evenodd;stroke:none;display:inline" />
    </clipPath>
    <clipPath
       id="clipPath4187">
      <path
         d="m 48,102 c -19.88225,0 -36,16.11775 -36,36 0,19.88225 16.11775,36 36,36 19.88225,0 36,-16.11775 36,-36 0,-19.88225 -16.11775,-36 -36,-36 z m 0,24 c 6.62742,0 12,5.37258 12,12 0,6.62742 -5.37258,12 -12,12 -6.62742,0 -12,-5.37258 -12,-12 0,-6.62742 5.37258,-12 12,-12 z"
         inkscape:connector-curvature="0"
         id="path4189"
         style="fill:#bbb1bf;fill-opacity:1;stroke:none" />
    </clipPath>
    <filter
       x="-0.18000001"
       y="-0.18000001"
       width="1.36"
       height="1.36"
       color-interpolation-filters="sRGB"
       id="filter4195">
      <feGaussianBlur
         id="feGaussianBlur4197"
         stdDeviation="5.2159999" />
    </filter>
    <linearGradient
       inkscape:collect="always"
       xlink:href="#ButtonShadow-0"
       id="linearGradient3112"
       gradientUnits="userSpaceOnUse"
       gradientTransform="matrix(1.0238095,0,0,1.0119048,-1.1428571,-98.071429)"
       x1="32.251034"
       y1="6.1317081"
       x2="32.251034"
       y2="90.238609" />
    <linearGradient
       inkscape:collect="always"
       xlink:href="#ButtonShadow-0"
       id="linearGradient3114"
       gradientUnits="userSpaceOnUse"
       gradientTransform="matrix(1.0238095,0,0,1.0119048,-1.1428571,-98.071429)"
       x1="32.251034"
       y1="6.1317081"
       x2="32.251034"
       y2="90.238609" />
    <linearGradient
       inkscape:collect="always"
       xlink:href="#ButtonShadow-0"
       id="linearGradient3116"
       gradientUnits="userSpaceOnUse"
       gradientTransform="matrix(1.0238095,0,0,1.0119048,-1.1428571,-98.071429)"
       x1="32.251034"
       y1="6.1317081"
       x2="32.251034"
       y2="90.238609" />
    <linearGradient
       inkscape:collect="always"
       xlink:href="#ButtonShadow-0"
       id="linearGradient3118"
       gradientUnits="userSpaceOnUse"
       gradientTransform="matrix(1.0238095,0,0,1.0119048,-1.1428571,-98.071429)"
       x1="32.251034"
       y1="6.1317081"
       x2="32.251034"
       y2="90.238609" />
    <linearGradient
       inkscape:collect="always"
       xlink:href="#ButtonShadow-0"
       id="linearGradient3122"
       gradientUnits="userSpaceOnUse"
       gradientTransform="matrix(1.0238095,0,0,1.0119048,-1.1428571,-98.071429)"
       x1="32.251034"
       y1="6.1317081"
       x2="32.251034"
       y2="90.238609" />
    <linearGradient
       inkscape:collect="always"
       xlink:href="#ButtonShadow-0"
       id="linearGradient3125"
       gradientUnits="userSpaceOnUse"
       gradientTransform="matrix(1.0238095,0,0,-1.0119048,-1.1428571,98.071429)"
       x1="32.251034"
       y1="6.1317081"
       x2="32.251034"
       y2="90.238609" />
    <linearGradient
       inkscape:collect="always"
       xlink:href="#ButtonShadow-0"
       id="linearGradient3128"
       gradientUnits="userSpaceOnUse"
       gradientTransform="matrix(1.0238095,0,0,-1.0119048,-1.1428571,98.071429)"
       x1="32.251034"
       y1="6.1317081"
       x2="32.251034"
       y2="90.238609" />
    <linearGradient
       inkscape:collect="always"
       xlink:href="#ButtonShadow-0"
       id="linearGradient3131"
       gradientUnits="userSpaceOnUse"
       gradientTransform="matrix(1.0238095,0,0,-1.0119048,-1.1428571,98.071429)"
       x1="32.251034"
       y1="6.1317081"
       x2="32.251034"
       y2="90.238609" />
  </defs>
  <metadata
     id="metadata2413">
    <rdf:RDF>
      <cc:Work
         rdf:about="">
        <dc:format>image/svg+xml</dc:format>
        <dc:type
           rdf:resource="http://purl.org/dc/dcmitype/StillImage" />
        <dc:title></dc:title>
      </cc:Work>
    </rdf:RDF>
  </metadata>
  <g
     id="layer2"
     style="display:none">
    <rect
       width="86"
       height="85"
       rx="6"
       ry="6"
       x="5"
       y="7"
       id="rect3745"
       style="opacity:0.9;fill:url(#ButtonShadow);fill-opacity:1;fill-rule:nonzero;stroke:none;filter:url(#filter3174)" />
  </g>
  <rect
     style="fill:#668000;fill-opacity:1;fill-rule:nonzero;stroke:none;display:inline"
     id="rect3716"
     transform="scale(1,-1)"
     y="-91"
     x="6"
     ry="0"
     rx="6"
     height="84"
     width="84" />
  <g
     id="g3142"
     transform="matrix(0.87583808,0,0,0.87583808,5.8211388,5.8909864)">
    <path
       d="m 48.217407,14.143451 0,21.25 c 6.21327,-10e-7 11.30552,4.828182 11.71875,10.9375 l 21.28125,0 c -0.42774,-17.844213 -15.05419,-32.1875 -33,-32.1875 z"
       inkscape:connector-curvature="0"
       id="rect4005"
       style="opacity:0.2;color:#000000;fill:#cccccc;fill-opacity:1;fill-rule:nonzero;stroke:none;stroke-width:1;marker:none;visibility:visible;display:inline;overflow:visible;enable-background:accumulate" />
    <path
       d="m 48.216866,35.330951 c -6.513378,0 -11.801101,5.287938 -11.801101,11.801576 0,6.513637 5.287723,11.801574 11.801101,11.801574 6.513378,0 11.801105,-5.28793 11.801105,-11.801574 0,-6.513638 -5.287727,-11.801575 -11.801105,-11.801576 z m 0,8.336893 c 1.91243,-1e-6 3.464544,1.552178 3.464544,3.464683 0,1.912505 -1.552114,3.464677 -3.464544,3.464677 -1.912431,0 -3.464542,-1.552172 -3.464542,-3.464677 0,-1.912505 1.552115,-3.464683 3.464542,-3.464683 z"
       inkscape:connector-curvature="0"
       id="path3307"
       style="opacity:0.3;fill:#cccccc;fill-opacity:1;fill-rule:evenodd;stroke:none;display:inline" />
    <g
       transform="translate(30.217407,-0.669049)"
       clip-path="url(#clipPath3999)"
       id="g3981"
       style="fill:#cccccc">
      <g
         transform="matrix(0.91666667,0,0,0.91666667,-26,-78.5)"
         clip-path="url(#clipPath4187)"
         id="g4175"
         style="opacity:0.6;fill:#cccccc;display:inline;filter:url(#filter4195)">
        <path
           d="m 60.947452,57.784124 a 20.708128,18.814091 0 0 1 -2.615496,2.905857 L 43.689098,47.38641 z"
           transform="matrix(1.5055399,0.86922388,-0.95672979,1.6571045,27.560302,21.500167)"
           id="path4039"
           style="fill:#cccccc;fill-opacity:1;stroke:none"
           inkscape:connector-curvature="0" />
      </g>
    </g>
    <path
       inkscape:connector-curvature="0"
       style="opacity:0.3;fill:none;stroke:#0a0a0a;stroke-width:1;stroke-linecap:round;stroke-linejoin:miter;stroke-miterlimit:4;stroke-opacity:1;stroke-dasharray:none;stroke-dashoffset:0;display:inline"
       id="path3933"
       d="m 48.216865,51.225626 a 4.0683655,3.8474325 0 1 1 0,-7.694864 4.0683655,3.8474325 0 1 1 0,7.694864 z" />
    <path
       d="m 48.216865,51.201061 a 4.0683655,4.0685332 0 1 1 0,-8.137066 4.0683655,4.0685332 0 1 1 0,8.137066 z"
       id="path3352"
       style="fill:none;stroke:#cccccc;stroke-width:0.99999994;stroke-linecap:round;stroke-linejoin:miter;stroke-miterlimit:4;stroke-opacity:1;stroke-dasharray:none;stroke-dashoffset:0;display:inline"
       inkscape:connector-curvature="0" />
    <path
       d="m 57.994533,47.135987 c 0,-5.302035 -4.330452,-9.687945 -9.78283,-9.687945 -5.452378,0 -9.772231,4.38591 -9.772231,9.687945 0,5.302035 4.319853,9.679122 9.772231,9.679122 5.452378,0 9.78283,-4.377087 9.78283,-9.679122 z m -1.102291,0 c 0,4.891566 -3.939727,8.770325 -8.680539,8.770325 -4.740812,0 -8.66994,-3.878759 -8.66994,-8.770325 0,-4.891566 3.929128,-8.779149 8.66994,-8.779149 4.740812,0 8.680539,3.887583 8.680539,8.779149 z"
       inkscape:connector-curvature="0"
       id="path3942"
       style="font-size:medium;font-style:normal;font-variant:normal;font-weight:normal;font-stretch:normal;text-indent:0;text-align:start;text-decoration:none;line-height:normal;letter-spacing:normal;word-spacing:normal;text-transform:none;direction:ltr;block-progression:tb;writing-mode:lr-tb;text-anchor:start;color:#000000;fill:#cccccc;fill-opacity:1;stroke:none;stroke-width:3.23149872;marker:none;visibility:visible;display:inline;overflow:visible;enable-background:accumulate;font-family:Abandoned Bitplane;-inkscape-font-specification:Abandoned Bitplane" />
    <path
       style="opacity:0.3;fill:#000000;fill-opacity:1;fill-rule:evenodd;stroke:none;display:inline"
       id="path3065"
       inkscape:connector-curvature="0"
       d="m 48.158286,13.025385 c -18.940622,0 -34.312723,15.420435 -34.312723,34.42061 0,19.000181 15.372101,34.420616 34.312723,34.420616 18.940632,0 34.312724,-15.420435 34.312724,-34.420616 0,-19.000175 -15.372092,-34.42061 -34.312724,-34.42061 z m 0,22.169207 c 6.741578,-10e-7 12.213,5.488629 12.213,12.251403 0,6.762769 -5.471422,12.251395 -12.213,12.251395 -6.741577,0 -12.213,-5.488626 -12.213,-12.251395 0,-6.762774 5.471423,-12.251403 12.213,-12.251403 z" />
    <path
       d="M 79.281975,36.198298 C 73.136999,19.05135 54.232846,10.122412 37.085206,16.267635 19.937562,22.412861 11.007863,41.316654 17.152839,58.463603 23.297819,75.610561 42.201969,84.53949 59.349613,78.394264 76.497252,72.249041 85.426954,53.345256 79.281975,36.198298 z m -20.007687,7.170183 c 2.187196,6.103151 -0.991173,12.831617 -7.094569,15.0189 -6.103394,2.187281 -12.831986,-0.990814 -15.019181,-7.093965 -2.187194,-6.103151 0.99117,-12.831616 7.094564,-15.018897 6.103396,-2.187283 12.831991,0.990811 15.019186,7.093962 z"
       inkscape:connector-curvature="0"
       id="path3865"
       style="fill:#cccccc;fill-opacity:1;fill-rule:evenodd;stroke:none;display:inline" />
    <path
       transform="translate(0.217407,-0.669049)"
       d="m 76.474781,47.953342 c 0,14.527202 -11.776624,26.303826 -26.303825,26.303826 -14.527202,0 -26.303826,-11.776624 -26.303826,-26.303826 0,-14.527201 11.776624,-26.303825 26.303826,-26.303825 14.527201,0 26.303825,11.776624 26.303825,26.303825 z"
       sodipodi:ry="26.303825"
       sodipodi:rx="26.303825"
       sodipodi:cy="47.953342"
       sodipodi:cx="50.170956"
       id="path3866"
       style="opacity:0;fill:#000000;fill-opacity:1;fill-rule:evenodd;stroke:none"
       sodipodi:type="arc" />
    <path
       inkscape:connector-curvature="0"
       id="path3870"
       d="M 67.186896,20.328016 C 52.282266,9.857554 31.685355,13.456232 21.214472,28.361462 10.743585,43.266697 14.343289,63.863424 29.247918,74.333886 44.152557,84.804354 64.749455,81.205674 75.220342,66.30044 85.691226,51.39521 82.091534,30.798484 67.186896,20.328016 z m -0.963895,0.774097 c 2.153215,1.497931 4.172516,3.294318 5.963726,5.373401 11.463742,13.306129 9.974575,33.39905 -3.331555,44.862794 -13.30613,11.463743 -33.39905,9.974574 -44.862794,-3.331555 -8.427052,-9.781399 -10.10731,-23.711891 -4.247139,-35.216211 l 18.025667,9.187665 c 0.245997,-0.479529 0.513269,-0.948088 0.83182,-1.401543 0.563301,-0.801856 1.233033,-1.496796 1.941532,-2.111396 L 27.323933,23.143959 C 38.55098,13.471426 54.595641,13.013292 66.223001,21.102113 z"
       style="fill:#e6e6e6;fill-opacity:1;fill-rule:evenodd;stroke:none;display:inline" />
    <path
       style="fill:#e6e6e6;fill-opacity:1;fill-rule:evenodd;stroke:none;display:inline"
       d="M 30.98566,75.474636 C 46.51994,84.98593 66.849415,80.09761 76.361091,64.562705 85.87277,49.027794 80.983439,28.698567 65.449159,19.187273 49.914869,9.675975 29.585408,14.564296 20.073728,30.099205 10.56205,45.63411 15.451371,65.963337 30.98566,75.474636 z m 0.913245,-0.833248 C 29.655652,73.281995 27.527257,71.616308 25.608701,69.654125 13.329949,57.096151 13.551112,36.949335 26.109086,24.67058 38.66706,12.391828 58.813875,12.612992 71.092629,25.170965 c 9.02617,9.231426 11.580158,23.028492 6.455925,34.878944 l -18.56836,-8.034541 c -0.215318,0.494065 -0.452559,0.978522 -0.741929,1.451134 -0.511699,0.835731 -1.136348,1.571457 -1.804746,2.229446 l 14.158726,14.45856 c -10.595791,10.360198 -26.579776,11.827594 -38.69334,4.48688 z"
       id="path3874"
       inkscape:connector-curvature="0" />
  </g>
</svg>
