<?xml version="1.0" encoding="UTF-8" standalone="no"?>
<!-- Created with Inkscape (http://www.inkscape.org/) -->

<svg
   xmlns:dc="http://purl.org/dc/elements/1.1/"
   xmlns:cc="http://creativecommons.org/ns#"
   xmlns:rdf="http://www.w3.org/1999/02/22-rdf-syntax-ns#"
   xmlns:svg="http://www.w3.org/2000/svg"
   xmlns="http://www.w3.org/2000/svg"
   xmlns:xlink="http://www.w3.org/1999/xlink"
   xmlns:sodipodi="http://sodipodi.sourceforge.net/DTD/sodipodi-0.dtd"
   xmlns:inkscape="http://www.inkscape.org/namespaces/inkscape"
   version="1.0"
   width="96"
   height="96"
   id="svg2408"
   inkscape:version="0.48.4 r9939"
   sodipodi:docname="krfb.svg">
  <sodipodi:namedview
     pagecolor="#ffffff"
     bordercolor="#666666"
     borderopacity="1"
     objecttolerance="10"
     gridtolerance="10"
     guidetolerance="10"
     inkscape:pageopacity="0"
     inkscape:pageshadow="2"
     inkscape:window-width="1680"
     inkscape:window-height="991"
     id="namedview77"
     showgrid="false"
     inkscape:zoom="6.049964"
     inkscape:cx="-4.219512"
     inkscape:cy="49.49162"
     inkscape:window-x="0"
     inkscape:window-y="-3"
     inkscape:window-maximized="1"
     inkscape:current-layer="svg2408" />
  <defs
     id="defs2410">
    <linearGradient
       x1="65.15625"
       y1="16.125"
       x2="65.15625"
       y2="69.687508"
       id="linearGradient2675"
       xlink:href="#linearGradient3737"
       gradientUnits="userSpaceOnUse" />
    <linearGradient
       id="linearGradient3687">
      <stop
         id="stop3689"
         style="stop-color:#ffffff;stop-opacity:1"
         offset="0" />
      <stop
         id="stop3691"
         style="stop-color:#ffffff;stop-opacity:0"
         offset="1" />
    </linearGradient>
    <linearGradient
       id="linearGradient3175">
      <stop
         id="stop3177"
         style="stop-color:#55a6eb;stop-opacity:1"
         offset="0" />
      <stop
         id="stop3179"
         style="stop-color:#1754c4;stop-opacity:1"
         offset="1" />
    </linearGradient>
    <radialGradient
       cx="48"
       cy="-15.894132"
       r="35.9375"
       fx="48"
       fy="-15.894132"
       id="radialGradient3465"
       xlink:href="#linearGradient3175"
       gradientUnits="userSpaceOnUse"
       gradientTransform="matrix(-0.00506833,1.2204755,-1.3843695,-0.00574561,26.241279,-46.842142)" />
    <linearGradient
       x1="45.447727"
       y1="92.539597"
       x2="45.447727"
       y2="7.0165396"
       id="ButtonShadow"
       gradientUnits="userSpaceOnUse"
       gradientTransform="scale(1.0058652,0.994169)">
      <stop
         id="stop3750"
         style="stop-color:#000000;stop-opacity:1"
         offset="0" />
      <stop
         id="stop3752"
         style="stop-color:#000000;stop-opacity:0.58823532"
         offset="1" />
    </linearGradient>
    <linearGradient
       id="linearGradient3737">
      <stop
         id="stop3739"
         style="stop-color:#ffffff;stop-opacity:1"
         offset="0" />
      <stop
         id="stop3741"
         style="stop-color:#ffffff;stop-opacity:0"
         offset="1" />
    </linearGradient>
    <linearGradient
       id="linearGradient3700">
      <stop
         id="stop3702"
         style="stop-color:#dcdcdc;stop-opacity:1"
         offset="0" />
      <stop
         id="stop3704"
         style="stop-color:#f0f0f0;stop-opacity:1"
         offset="1" />
    </linearGradient>
    <filter
       color-interpolation-filters="sRGB"
       id="filter3174">
      <feGaussianBlur
         stdDeviation="1.71"
         id="feGaussianBlur3176" />
    </filter>
    <linearGradient
       x1="36.357143"
       y1="6"
       x2="36.357143"
       y2="63.893143"
       id="linearGradient3188"
       xlink:href="#linearGradient3737"
       gradientUnits="userSpaceOnUse" />
    <linearGradient
       x1="24.995535"
       y1="-2.75"
       x2="46.020512"
       y2="75.716286"
       id="linearGradient3507"
       xlink:href="#linearGradient3737"
       gradientUnits="userSpaceOnUse" />
    <linearGradient
       x1="24.995535"
       y1="-2.75"
       x2="46.020512"
       y2="75.716286"
       id="linearGradient3519"
       xlink:href="#linearGradient3737"
       gradientUnits="userSpaceOnUse" />
    <filter
       x="-0.168"
       y="-0.42000002"
       width="1.336"
       height="1.84"
       color-interpolation-filters="sRGB"
       id="filter3531">
      <feGaussianBlur
         stdDeviation="0.55"
         id="feGaussianBlur3533" />
    </filter>
    <linearGradient
       x1="10.898764"
       y1="20.867033"
       x2="67.260826"
       y2="64.556129"
       id="linearGradient3701"
       xlink:href="#linearGradient3737"
       gradientUnits="userSpaceOnUse"
       gradientTransform="translate(-80,0)" />
    <linearGradient
       x1="48"
       y1="90"
       x2="48"
       y2="5.9877172"
       id="linearGradient3735"
       xlink:href="#linearGradient3700"
       gradientUnits="userSpaceOnUse" />
    <linearGradient
       x1="142.47113"
       y1="16.125"
       x2="142.47113"
       y2="64.188072"
       id="linearGradient4126"
       xlink:href="#linearGradient3687"
       gradientUnits="userSpaceOnUse"
       gradientTransform="translate(-80,0)" />
    <linearGradient
       x1="68.517296"
       y1="9.0625"
       x2="68.517296"
       y2="87.868492"
       id="linearGradient4151"
       xlink:href="#linearGradient3737"
       gradientUnits="userSpaceOnUse" />
    <filter
       color-interpolation-filters="sRGB"
       id="filter4161">
      <feGaussianBlur
         id="feGaussianBlur4163"
         stdDeviation="0.50332031" />
    </filter>
    <linearGradient
       id="linearGradient3737-1">
      <stop
         id="stop3739-7"
         style="stop-color:#ffffff;stop-opacity:1"
         offset="0" />
      <stop
         id="stop3741-2"
         style="stop-color:#ffffff;stop-opacity:0"
         offset="1" />
    </linearGradient>
    <radialGradient
       cx="48"
       cy="90.171875"
       r="42"
       fx="48"
       fy="90.171875"
       id="radialGradient2874"
       xlink:href="#linearGradient3737-1"
       gradientUnits="userSpaceOnUse"
       gradientTransform="matrix(1.1573129,0,0,0.99590774,-7.551021,0.1971319)" />
    <linearGradient
       x1="45.447727"
       y1="92.539597"
       x2="45.447727"
       y2="7.0165396"
       id="ButtonShadow-0"
       gradientUnits="userSpaceOnUse"
       gradientTransform="matrix(1.0058652,0,0,0.994169,100,0)">
      <stop
         id="stop3750-8"
         style="stop-color:#000000;stop-opacity:1"
         offset="0" />
      <stop
         id="stop3752-5"
         style="stop-color:#000000;stop-opacity:0.58823532"
         offset="1" />
    </linearGradient>
    <linearGradient
       x1="32.251034"
       y1="6.1317081"
       x2="32.251034"
       y2="90.238609"
       id="linearGradient3780"
       xlink:href="#ButtonShadow-0"
       gradientUnits="userSpaceOnUse"
       gradientTransform="matrix(1.0238095,0,0,1.0119048,-1.1428571,-98.071429)" />
    <linearGradient
       x1="32.251034"
       y1="6.1317081"
       x2="32.251034"
       y2="90.238609"
       id="linearGradient3772"
       xlink:href="#ButtonShadow-0"
       gradientUnits="userSpaceOnUse"
       gradientTransform="matrix(1.0238095,0,0,1.0119048,-1.1428571,-98.071429)" />
    <linearGradient
       x1="32.251034"
       y1="6.1317081"
       x2="32.251034"
       y2="90.238609"
       id="linearGradient3725"
       xlink:href="#ButtonShadow-0"
       gradientUnits="userSpaceOnUse"
       gradientTransform="matrix(1.0238095,0,0,1.0119048,-1.1428571,-98.071429)" />
    <linearGradient
       x1="32.251034"
       y1="6.1317081"
       x2="32.251034"
       y2="90.238609"
       id="linearGradient3721"
       xlink:href="#ButtonShadow-0"
       gradientUnits="userSpaceOnUse"
       gradientTransform="translate(0,-97)" />
    <linearGradient
       x1="32.251034"
       y1="6.1317081"
       x2="32.251034"
       y2="90.238609"
       id="linearGradient2918"
       xlink:href="#ButtonShadow-0"
       gradientUnits="userSpaceOnUse"
       gradientTransform="matrix(1.0238095,0,0,1.0119048,-1.1428571,-98.071429)" />
    <radialGradient
       cx="69.75"
       cy="75.973572"
       r="58.5"
       fx="69.75"
       fy="75.973572"
       id="radialGradient4250"
       xlink:href="#linearGradient5226-0"
       gradientUnits="userSpaceOnUse"
       gradientTransform="matrix(1.8204306,-0.04488221,0.00642858,0.17333875,-76.250795,38.536388)" />
    <linearGradient
       id="linearGradient5226-0">
      <stop
         id="stop5228-7"
         style="stop-color:#ffffff;stop-opacity:1"
         offset="0" />
      <stop
         id="stop5230-6"
         style="stop-color:#ffffff;stop-opacity:0"
         offset="1" />
    </linearGradient>
    <radialGradient
       cx="64.230392"
       cy="68.449158"
       r="43.769611"
       fx="64.230392"
       fy="68.449158"
       id="radialGradient4252"
       xlink:href="#linearGradient5226-0"
       gradientUnits="userSpaceOnUse"
       gradientTransform="matrix(1.1718712,0,0,0.60839504,-27.200855,4.7279874)" />
    <linearGradient
       id="linearGradient3102">
      <stop
         id="stop3104"
         style="stop-color:#ffffff;stop-opacity:1"
         offset="0" />
      <stop
         id="stop3106"
         style="stop-color:#ffffff;stop-opacity:0"
         offset="1" />
    </linearGradient>
    <radialGradient
       cx="49.233551"
       cy="70.608253"
       r="25.483549"
       fx="49.233551"
       fy="70.608253"
       id="radialGradient4246"
       xlink:href="#linearGradient5226-0"
       gradientUnits="userSpaceOnUse"
       gradientTransform="matrix(0.3771669,-0.34759552,1.4461199,1.0393835,-81.149975,-11.526773)" />
    <linearGradient
       id="linearGradient3109">
      <stop
         id="stop3111"
         style="stop-color:#ffffff;stop-opacity:1"
         offset="0" />
      <stop
         id="stop3113"
         style="stop-color:#ffffff;stop-opacity:0"
         offset="1" />
    </linearGradient>
    <radialGradient
       cx="63.875"
       cy="2.2173476"
       r="58.375"
       fx="63.875"
       fy="2.2173476"
       id="radialGradient4248"
       xlink:href="#linearGradient5226-0"
       gradientUnits="userSpaceOnUse"
       gradientTransform="matrix(0.88213736,0,0,0.21756083,-8.4800467,34.548891)" />
    <linearGradient
       id="linearGradient3116">
      <stop
         id="stop3118"
         style="stop-color:#ffffff;stop-opacity:1"
         offset="0" />
      <stop
         id="stop3120"
         style="stop-color:#ffffff;stop-opacity:0"
         offset="1" />
    </linearGradient>
    <linearGradient
       x1="48"
       y1="90"
       x2="48"
       y2="5.9877172"
       id="linearGradient3345"
       xlink:href="#linearGradient3700-5-1"
       gradientUnits="userSpaceOnUse" />
    <linearGradient
       id="linearGradient3700-5-1">
      <stop
         id="stop3702-0-2"
         style="stop-color:#3781c6;stop-opacity:1"
         offset="0" />
      <stop
         id="stop3704-4-9"
         style="stop-color:#88b2db;stop-opacity:1"
         offset="1" />
    </linearGradient>
    <radialGradient
       cx="63.98003"
       cy="61.948856"
       r="58.01997"
       fx="63.98003"
       fy="61.948856"
       id="radialGradient5232-9"
       xlink:href="#linearGradient3875"
       gradientUnits="userSpaceOnUse"
       gradientTransform="matrix(0.87824286,0,0,0.55212133,-8.3947451,9.4010965)" />
    <linearGradient
       id="linearGradient3875">
      <stop
         id="stop3877"
         style="stop-color:#ffffff;stop-opacity:1"
         offset="0" />
      <stop
         id="stop3879"
         style="stop-color:#ffffff;stop-opacity:0.42635658"
         offset="1" />
    </linearGradient>
    <linearGradient
       gradientTransform="matrix(0.80571851,0,0,0.65693685,9.1207714,13.006246)"
       y2="5.9877172"
       x2="48"
       y1="90"
       x1="48"
       gradientUnits="userSpaceOnUse"
       id="linearGradient3136"
       xlink:href="#linearGradient3700-5-1"
       inkscape:collect="always" />
    <radialGradient
       inkscape:collect="always"
       xlink:href="#linearGradient5226-0"
       id="radialGradient3126"
       gradientUnits="userSpaceOnUse"
       gradientTransform="matrix(0.3771669,-0.34759552,1.4461199,1.0393835,-81.149975,-11.526773)"
       cx="49.233551"
       cy="70.608253"
       fx="49.233551"
       fy="70.608253"
       r="25.483549" />
    <radialGradient
       inkscape:collect="always"
       xlink:href="#linearGradient5226-0"
       id="radialGradient3128"
       gradientUnits="userSpaceOnUse"
       gradientTransform="matrix(1.1718712,0,0,0.60839504,-27.200855,4.7279874)"
       cx="64.230392"
       cy="68.449158"
       fx="64.230392"
       fy="68.449158"
       r="43.769611" />
    <radialGradient
       inkscape:collect="always"
       xlink:href="#linearGradient5226-0"
       id="radialGradient3130"
       gradientUnits="userSpaceOnUse"
       gradientTransform="matrix(0.88213736,0,0,0.21756083,-8.4800467,34.548891)"
       cx="63.875"
       cy="2.2173476"
       fx="63.875"
       fy="2.2173476"
       r="58.375" />
    <radialGradient
       inkscape:collect="always"
       xlink:href="#linearGradient5226-0"
       id="radialGradient3132"
       gradientUnits="userSpaceOnUse"
       gradientTransform="matrix(1.8204306,-0.04488221,0.00642858,0.17333875,-76.250795,38.536388)"
       cx="69.75"
       cy="75.973572"
       fx="69.75"
       fy="75.973572"
       r="58.5" />
  </defs>
  <metadata
     id="metadata2413">
    <rdf:RDF>
      <cc:Work
         rdf:about="">
        <dc:format>image/svg+xml</dc:format>
        <dc:type
           rdf:resource="http://purl.org/dc/dcmitype/StillImage" />
        <dc:title />
      </cc:Work>
    </rdf:RDF>
  </metadata>
  <g
     id="layer2"
     style="display:none">
    <rect
       width="86"
       height="85"
       rx="6"
       ry="6"
       x="5"
       y="7"
       id="rect3745"
       style="opacity:0.9;fill:url(#ButtonShadow);fill-opacity:1;fill-rule:nonzero;stroke:none;filter:url(#filter3174)" />
  </g>
  <g
     id="layer3">
    <path
       d="m 12.0625,12.0625 0,53.875 71.875,0 0,-53.875 -71.875,0 z"
       transform="matrix(-1.0008688,0,0,-1.1558456,96.010447,88.220854)"
       id="path3215"
       style="fill:#5493ce;fill-opacity:1;fill-rule:nonzero;stroke:none" />
    <path
       d="m 12,12 0,62.28125 71.9375,0 L 83.9375,12 12,12 z m 3,3 66,0 0,56 -66,0 0,-56 z"
       inkscape:connector-curvature="0"
       id="path3726"
       style="fill:#488bca;fill-opacity:1;fill-rule:nonzero;stroke:none;opacity:0.69999999999999996" />
  </g>
  <g
     id="layer1"
     style="display:inline">
    <path
       d="M 12,6 C 6.0313562,6 6,6.3619367 6,12 l 0,72 c 0,5.968644 0.1966464,6 6,6 l 72,0 c 5.968644,0 6,0.464515 6,-6 L 90,12 C 90,6.0313562 89.803354,6 84,6 z m 2,7.494924 68.378807,0 0,58.505076 L 14,72 z"
       inkscape:connector-curvature="0"
       id="rect2419"
       style="fill:#dcdcdc;fill-opacity:1;fill-rule:nonzero;stroke:none"
       sodipodi:nodetypes="sssssssssccccc" />
    <path
       d="M 11.3125,8 C 9.42859,8 8,9.4293755 8,11.3125 l 0,63.375 C 8,76.570624 9.42859,78 11.3125,78 l 73.375,0 C 86.57141,78 88,76.570624 88,74.6875 l 0,-63.375 C 88,9.4293754 86.57141,8 84.6875,8 L 11.3125,8 z M 14,14 l 68,0 0,58 -68,0 0,-58 z"
       inkscape:connector-curvature="0"
       id="path3174"
       style="fill:#000000;fill-opacity:1;fill-rule:nonzero;stroke:none" />
    <path
       d="m 33,74 c -1.662,0 -3,1.338 -3,3 l -3,0 0,1 c 1.656,0 3,1.344 3,3 l 0,2 c 0,1.662 1.338,3 3,3 l 30,0 c 1.662,0 3,-1.338 3,-3 l 0,-2 c 0,-1.656 1.344,-3 3,-3 l 0,-1 -3,0 c 0,-1.662 -1.338,-3 -3,-3 l -30,0 z"
       inkscape:connector-curvature="0"
       id="rect3535"
       style="fill:#000000;fill-opacity:1;fill-rule:nonzero;stroke:none" />
    <path
       d="m 14,72 68,0 0,1 -68,0 0,-1 z"
       inkscape:connector-curvature="0"
       id="rect3483"
       style="fill:#4c8dcb;fill-opacity:1;fill-rule:nonzero;stroke:none" />
    <rect
       width="5"
       height="2"
       rx="1"
       ry="1"
       x="55.323669"
       y="81.23436"
       id="rect3485"
       style="fill:#7fff2a;fill-opacity:1;fill-rule:nonzero;stroke:none" />
  </g>
  <g
     id="layer4"
     style="display:none">
    <path
       d="m 11.3125,9.15625 c -1.296799,0 -2.15625,0.860159 -2.15625,2.15625 l 0,63.375 c 0,1.296091 0.859451,2.15625 2.15625,2.15625 l 21.40625,0 c 0.426766,-0.0067 0.822797,0.221297 1.03125,0.59375 l 3.28125,6 c 0.294483,0.539885 0.491672,1.007766 0.65625,1.21875 0.164578,0.210984 0.117222,0.1875 0.3125,0.1875 l 7.15625,0 -4.46875,-13.6875 -24.6875,0 C 15.362464,71.153739 14.846261,70.637536 14.84375,70 l 0,-54 c -0.0056,-0.571296 0.405297,-1.061742 0.96875,-1.15625 0.0624,-0.0051 0.125102,-0.0051 0.1875,0 l 6.25,0 -1.875,-5.6875 -9.0625,0 z m 28.6875,0 3.28125,5.6875 36.71875,0 c 0.637536,0.0025 1.153739,0.518714 1.15625,1.15625 l 0,54 C 81.153739,70.637536 80.637536,71.153739 80,71.15625 l -4.21875,0 3.28125,5.6875 5.625,0 c 1.296799,0 2.15625,-0.860159 2.15625,-2.15625 l 0,-63.375 c 0,-1.296091 -0.859451,-2.15625 -2.15625,-2.15625 l -44.6875,0 z"
       inkscape:connector-curvature="0"
       id="path3488"
       style="opacity:0.4;fill:url(#linearGradient3507);fill-opacity:1;fill-rule:evenodd;stroke:none" />
    <path
       d="m 17,17 0,52 22.96875,0 -17,-52 L 17,17 z m 27.53125,0 30,52 L 79,69 79,17 44.53125,17 z"
       inkscape:connector-curvature="0"
       id="path3515"
       style="opacity:0.6;fill:url(#linearGradient3519);fill-opacity:1;fill-rule:evenodd;stroke:none" />
  </g>
  <g
     id="layer5"
     style="display:inline">
    <path
       d="M 11.3125,8 C 9.42859,8 8,9.4293755 8,11.3125 l 0,63.375 C 8,76.570624 9.42859,78 11.3125,78 L 27,78 c 1.656,0 3,1.344 3,3 l 0,2 c 0,1.662 1.338,3 3,3 l 30,0 c 1.662,0 3,-1.338 3,-3 l 0,-2 c 0,-1.656 1.344,-3 3,-3 l 15.6875,0 C 86.57141,78 88,76.570624 88,74.6875 l 0,-63.375 C 88,9.4293754 86.57141,8 84.6875,8 L 11.3125,8 z M 14,14 l 68,0 0,58 -68,0 0,-58 z"
       inkscape:connector-curvature="0"
       id="path3691"
       style="fill:#000000;fill-opacity:1;fill-rule:nonzero;stroke:none;display:none" />
  </g>
  <g
     id="g3114"
     transform="matrix(1,0,0,1.0664178,0,-4.0005426)">
    <rect
       style="fill:#4c8dcb;fill-opacity:1;fill-rule:nonzero;stroke:none;display:inline"
       id="rect2419-8"
       y="16.947866"
       x="13.955083"
       ry="3.9416211"
       rx="4.834311"
       height="55.182693"
       width="67.680359" />
    <path
       style="opacity:0.69999999999999996;fill:#a6c6e5;fill-opacity:1;stroke:none;display:inline"
       id="path3522-9"
       inkscape:connector-curvature="0"
       d="m 38.347308,17.01118 c 1.329532,1.455504 0.09072,3.886043 2.096061,3.861916 0.97645,1.12544 -1.946173,0.335722 0.164044,1.203135 1.213493,0.779119 -1.283832,1.224276 0.218978,1.923458 -1.732036,0.728618 0.280744,3.810958 1.567219,4.582384 2.117389,1.453185 0.936406,-3.076694 3.299015,-3.312335 1.2838,-1.194833 3.538587,-1.961828 5.139896,-3.1638 -1.564947,-0.103573 -2.478769,-0.897674 -0.99669,-1.389587 2.72772,2.278698 0.683974,-1.079158 -0.825975,-1.610824 1.461058,-0.378895 2.882039,-0.101434 2.679313,-1.084307 1.544015,-0.920907 -1.484343,-1.218239 -2.56536,-1.01004 -3.592167,0 -7.184326,0 -10.776501,0 z m -22.400462,0.950626 c -1.973817,0.458442 -2.111499,4.304003 -0.127585,2.168614 0.486931,-0.876817 2.737088,-1.933503 0.127585,-2.168614 z m 9.222653,0.133681 c -1.137884,1.454617 0.165101,2.620862 1.111819,0.846651 0.670125,-0.740882 -0.497877,-0.819505 -1.111819,-0.846651 z m 2.843341,0.326778 c -2.198605,0.830752 -0.541926,2.767985 -0.487507,3.198836 2.316094,0.653214 3.604163,-0.427084 4.48035,1.419255 2.203769,1.035432 -0.04335,2.834628 -0.870611,3.303194 1.490047,-1.057924 4.354232,2.876269 3.603383,0.797732 -0.89579,-0.533218 2.40519,0.85659 0.692611,-0.876358 -1.576041,-2.070068 0.125104,-0.926749 0.789564,-0.443612 2.259944,-1.652095 -2.557028,-1.851782 -1.354598,-3.551985 -1.053678,-0.695733 -2.435598,-2.803395 -4.301465,-2.391417 -1.249058,1.316874 -0.172545,-2.869363 -2.005119,-0.774515 -0.09499,1.171011 -0.03457,2.656947 -0.568604,0.628263 -0.357796,-0.355144 0.615569,-1.180783 0.022,-1.309393 z m -4.483735,0.01485 c -1.475755,0.401094 -1.396494,2.026634 0.418133,2.200902 0.621558,-0.577576 0.246948,-2.091527 -0.418133,-2.2009 z m -5.759601,0.519874 c -1.916866,0.370248 -1.134444,1.630275 -0.547543,1.985145 -2.372775,0.484528 3.62226,0.619266 0.638677,0.926145 -2.48225,0.808179 2.390295,1.760334 3.189652,0.802089 3.065265,0.611132 0.110309,-2.000391 -0.15876,-3.416036 -1.299424,-1.136909 -0.05128,2.620883 -1.226197,0.121084 -0.409939,0.742328 -1.713383,0.10939 -1.895829,-0.418426 z m 60.913225,0.163388 c -2.572208,0.820674 1.598691,3.917624 0.56211,1.100148 -0.10327,-0.340206 0.2322,-1.239094 -0.56211,-1.100148 z m -53.713724,1.247699 c -1.848385,1.416116 2.349467,2.587177 -0.530883,3.642156 -0.431881,-1.315149 -1.17496,0.657993 -2.822808,-0.404089 -2.832825,0.961586 -4.281483,-0.500879 -6.653248,-1.503354 -1.424534,-0.144562 -0.889337,1.103456 -0.98369,2.271999 0,3.229411 0,6.458824 0,9.688235 1.396705,1.197973 0.544931,0.528556 0,0.198134 0.766615,2.128496 -0.338056,5.239903 2.683729,6.478007 0.513697,0.776792 2.66925,4.086138 2.768626,3.095949 -1.080641,-0.922581 -2.189421,-3.688435 -0.360878,-1.223281 1.637829,2.343308 3.847107,3.863172 7.07459,4.420801 1.764572,0.489322 3.21576,2.171387 4.767534,1.801296 0.877467,1.885763 -2.600385,3.696642 0.116756,5.455513 1.418484,1.780594 3.799914,2.948442 2.510587,5.448272 -0.901655,2.441449 -0.515604,5.101695 -1.295426,7.376424 -0.24203,1.384614 2.367233,4.89898 2.141173,2.08481 0.761863,-1.955647 0.741777,-4.107503 2.536071,-5.492438 2.455113,0.01584 0.469227,-2.1522 2.906227,-1.868982 1.487074,-1.589046 1.917795,-3.484713 4.427351,-4.115695 0.299767,-1.928861 4.172671,-4.882946 0.17173,-5.633927 -1.087406,-0.436942 -3.887189,-0.594057 -3.673222,-0.809652 0.4335,-1.913939 -3.620472,-2.45881 -5.34533,-3.241863 -2.264674,-1.310495 -5.66761,2.177054 -6.465497,-0.828002 -0.476083,-0.945485 -2.216797,-0.960819 -1.416799,-2.419748 -1.441745,1.168981 -4.261719,0.813698 -3.523429,-1.443831 1.12121,-1.901278 5.427028,-1.991236 6.160731,0.29566 -1.01871,-2.522174 1.969128,-4.485589 3.627772,-6.279965 0.337724,-0.857665 2.344432,-1.59453 1.653882,-0.454651 1.17647,-0.03459 2.95963,-1.765388 0.869701,-0.966539 -0.02957,-1.578423 -1.831382,-1.129548 -2.415544,-0.905422 1.0827,-1.400927 6.643133,-0.635026 4.314695,-2.924928 -1.804246,-0.595992 -1.654156,-4.073907 -3.479092,-2.136346 0.153569,-1.193814 -3.714372,-3.53069 -3.629964,-1.5288 0.472143,1.791318 0.08633,3.854874 -0.918455,5.029054 -0.209688,-2.624878 -5.701011,-2.044741 -4.994996,-4.841842 1.02282,-1.33311 2.218023,-3.176622 2.331895,-3.010781 1.83305,-0.570555 3.307145,-2.230185 1.182658,-3.321216 -0.113542,0.950905 -1.597764,2.912816 -1.388784,0.539948 -1.374391,1.328441 -1.060487,-2.113897 -2.347663,-2.470905 z m 43.871373,0.920918 c -3.219603,0.642059 -4.495965,3.148996 -6.088662,5.225413 -2.347751,0.862942 -2.25838,4.568905 0.364515,3.38527 0.702006,0.999542 -0.491093,2.575011 1.553676,1.268056 1.649305,-1.779349 0.288399,-4.657178 3.095103,-5.779167 0.204443,0.872406 -2.589048,4.129996 0.674378,3.594552 2.950187,0.09075 -2.144702,0.239643 -0.70983,1.775953 -1.490797,-0.721096 -0.716155,1.969394 -2.662086,1.343286 -1.685821,0.747573 -2.791274,-0.347103 -2.405094,-1.54629 -1.32618,0.630721 0.41712,2.410055 -1.885042,2.516991 -0.515701,1.492908 -4.756463,1.267889 -2.344803,2.788072 1.07072,2.262258 -3.989547,0.141819 -2.552951,2.856604 1.229084,2.684511 3.804925,-0.889525 4.849966,-1.580034 2.016294,-1.275053 5.004044,2.174096 3.189655,2.302296 2.034503,-0.222532 1.616424,-1.799933 -0.01361,-2.410614 -0.880393,-1.861447 2.787004,0.912901 2.583617,1.84618 1.293943,1.975312 0.761098,-2.022417 2.077827,-0.252509 -0.153731,1.866992 5.296939,0.438981 2.694636,2.818445 -2.237383,0.367382 -4.439613,-0.470227 -6.365844,0.06627 -1.792812,-0.01293 -1.702862,-1.574529 -2.355583,-1.965591 -2.280482,0.151046 -5.098538,0.133966 -6.625238,1.635881 -1.650933,1.846614 -4.031678,4.428047 -2.232267,6.785944 1.800676,3.494127 6.266218,0.181242 8.833076,2.244798 0.762959,0.86041 -0.661173,1.883182 1.044775,2.815165 0.641932,1.985287 -0.728756,3.870281 0.847834,5.768091 0.815258,1.784794 1.321201,4.456175 4.35552,2.825265 3.211409,-1.575502 2.35605,-4.479852 5.005881,-6.088514 -2.096696,-3.308046 2.56511,-4.758525 3.728237,-7.44406 -2.541196,0.303293 -4.80512,-1.762186 -5.419094,-3.841133 -1.067528,-1.009791 -0.792569,-2.498731 0.399903,-0.601763 1.63904,1.294774 1.674452,5.136705 4.70642,3.160279 1.386117,-0.472651 5.171584,-2.27563 2.155385,-3.096128 -1.944231,1.148016 -4.089223,-3.430305 -1.234215,-0.774781 2.075546,0.717873 3.529014,1.145591 3.529014,-1.234527 0,-6.41254 0,-12.911968 0,-19.367952 -0.646509,0.538604 -2.307416,1.533344 -3.145751,0.872353 -1.442534,0.163761 -3.346865,2.45197 -2.893537,0.240015 -1.253891,-0.06769 -0.224457,1.983315 -1.947131,2.040674 -0.173463,1.054442 -1.740247,0.195262 -1.151719,1.196587 -1.2091,-0.699208 -2.232379,-2.906842 0.149978,-1.521188 3.537934,-0.865311 -2.333039,-2.817126 -2.786208,-3.2889 0.761767,-0.148797 -0.828769,-0.795975 -1.020692,-0.579288 z m -29.198981,0.579288 c -1.177558,0.799883 2.238721,0.950517 0,0 z m -15.729536,0.430752 c -1.317065,1.123136 2.097511,1.032486 0,0 z m 7.636939,1.114014 c -0.997367,1.331986 1.473684,0.491764 0,0 z m 21.835439,1.574474 c -1.167671,1.095934 -2.708866,-0.288425 -2.733988,0.653555 0.211622,0.284623 1.059254,2.316057 2.916258,0.816944 0.996658,-0.34256 0.604248,-1.206114 -0.18227,-1.470499 z m -24.861048,0.653555 c -2.214768,1.576836 3.761335,1.722119 0.469185,0.180848 l -0.469185,-0.180848 z m 29.217205,4.366934 c -1.594588,0.847711 0.764974,2.647984 -0.03472,3.493642 -0.999171,1.419241 3.713009,-0.09997 1.196178,-1.232299 -0.179328,-0.972845 -1.474481,-2.159826 -1.161475,-2.261343 z m -1.075375,1.708155 c -2.22168,0.512063 -0.50434,3.155825 0.282541,0.665801 0.04424,-0.144361 0.104227,-0.670629 -0.282541,-0.665801 z m -17.789137,1.916105 c -2.066845,1.148957 -0.321022,2.295801 1.19372,1.778837 -0.310975,-0.693226 -1.179709,-1.129999 -1.19372,-1.778837 z m 39.041332,1.930957 c 1.031279,0.424301 -1.889845,1.149123 -0.04012,1.89587 1.076424,1.031975 0.670608,3.247238 -1.079018,1.679375 0.32506,-1.750518 -2.371681,-3.05782 1.119167,-3.575245 z m -5.30394,0.01485 c -0.139921,1.124639 2.976284,2.872764 -0.382749,2.302297 -1.776408,0.169882 -4.437068,-0.04425 -2.199152,-1.848807 0.707139,-0.346088 2.563844,1.194046 1.597676,-0.24554 0.342535,-0.01782 0.661551,-0.123228 0.984225,-0.20795 z m -10.261558,2.435977 c -1.295685,0.680519 0.89595,1.202333 0,0 z m -32.534439,6.342452 c -0.218439,0.594104 4.097868,1.196184 1.119377,0.244357 l -0.444008,-0.12741 -0.675369,-0.116944 z m 3.353683,0.846651 c -1.30922,1.083546 2.6974,0.32372 0,0 z m 43.780246,9.937005 c -2.844766,0.05984 -2.46657,6.041864 -0.483535,2.502235 0.188054,-0.768101 0.941804,-1.781892 0.483535,-2.502235 z" />
    <path
       style="fill:none;stroke:url(#radialGradient3126);stroke-width:1.93671787;stroke-linecap:butt;stroke-linejoin:miter;stroke-miterlimit:4;stroke-opacity:1;stroke-dasharray:none;display:inline"
       id="path3583"
       inkscape:connector-curvature="0"
       d="m 14.7608,32.401066 c 41.293103,5.797115 25.487812,39.072559 25.487812,39.072559" />
    <path
       style="fill:none;stroke:url(#radialGradient3128);stroke-width:1.93671787;stroke-linecap:butt;stroke-linejoin:miter;stroke-miterlimit:4;stroke-opacity:1;stroke-dasharray:none;display:inline"
       id="path3581"
       inkscape:connector-curvature="0"
       d="M 31.420432,71.357683 C 30.566092,61.154759 54.345222,31.821354 80.687374,26.719892" />
    <path
       style="fill:none;stroke:url(#radialGradient3130);stroke-width:1.93671787;stroke-linecap:butt;stroke-linejoin:miter;stroke-miterlimit:4;stroke-opacity:1;stroke-dasharray:none;display:inline"
       id="path3577"
       inkscape:connector-curvature="0"
       d="M 14.903191,44.343124 C 37.543202,31.58947 67.445103,30.893816 80.829763,45.386604" />
    <path
       style="opacity:0.6;fill:none;stroke:url(#radialGradient3132);stroke-width:1.45253825;stroke-linecap:butt;stroke-linejoin:miter;stroke-miterlimit:4;stroke-opacity:1;stroke-dasharray:none;display:inline"
       id="path3585"
       inkscape:connector-curvature="0"
       d="M 14.903191,57.560548 C 56.196293,50.024297 80.972154,37.734412 80.972154,37.734412" />
  </g>
</svg>
