<?xml version="1.0" encoding="UTF-8" standalone="no"?>
<!-- Created with Inkscape (http://www.inkscape.org/) -->

<svg
   xmlns:dc="http://purl.org/dc/elements/1.1/"
   xmlns:cc="http://creativecommons.org/ns#"
   xmlns:rdf="http://www.w3.org/1999/02/22-rdf-syntax-ns#"
   xmlns:svg="http://www.w3.org/2000/svg"
   xmlns="http://www.w3.org/2000/svg"
   xmlns:xlink="http://www.w3.org/1999/xlink"
   xmlns:sodipodi="http://sodipodi.sourceforge.net/DTD/sodipodi-0.dtd"
   xmlns:inkscape="http://www.inkscape.org/namespaces/inkscape"
   version="1.0"
   width="96"
   height="96"
   id="svg2408"
   inkscape:version="0.48.4 r9939"
   sodipodi:docname="krita.svg">
  <sodipodi:namedview
     pagecolor="#ffffff"
     bordercolor="#666666"
     borderopacity="1"
     objecttolerance="10"
     gridtolerance="10"
     guidetolerance="10"
     inkscape:pageopacity="0"
     inkscape:pageshadow="2"
     inkscape:window-width="1680"
     inkscape:window-height="991"
     id="namedview54"
     showgrid="false"
     inkscape:zoom="6.0241639"
     inkscape:cx="124.78596"
     inkscape:cy="29.111084"
     inkscape:window-x="0"
     inkscape:window-y="-3"
     inkscape:window-maximized="1"
     inkscape:current-layer="svg2408" />
  <defs
     id="defs2410">
    <linearGradient
       x1="45.447727"
       y1="92.539597"
       x2="45.447727"
       y2="7.0165396"
       id="ButtonShadow"
       gradientUnits="userSpaceOnUse"
       gradientTransform="scale(1.0058652,0.994169)">
      <stop
         id="stop3750"
         style="stop-color:#000000;stop-opacity:1"
         offset="0" />
      <stop
         id="stop3752"
         style="stop-color:#000000;stop-opacity:0.58823532"
         offset="1" />
    </linearGradient>
    <linearGradient
       id="linearGradient3737">
      <stop
         id="stop3739"
         style="stop-color:#ffffff;stop-opacity:1"
         offset="0" />
      <stop
         id="stop3741"
         style="stop-color:#ffffff;stop-opacity:0"
         offset="1" />
    </linearGradient>
    <filter
       color-interpolation-filters="sRGB"
       id="filter3174">
      <feGaussianBlur
         id="feGaussianBlur3176"
         stdDeviation="1.71" />
    </filter>
    <linearGradient
       x1="36.357143"
       y1="6"
       x2="36.357143"
       y2="63.893143"
       id="linearGradient3188"
       xlink:href="#linearGradient3737"
       gradientUnits="userSpaceOnUse" />
    <filter
       x="-0.192"
       y="-0.192"
       width="1.3839999"
       height="1.3839999"
       color-interpolation-filters="sRGB"
       id="filter3794">
      <feGaussianBlur
         id="feGaussianBlur3796"
         stdDeviation="5.28" />
    </filter>
    <linearGradient
       x1="48"
       y1="20.220806"
       x2="48"
       y2="138.66119"
       id="linearGradient3613"
       xlink:href="#linearGradient3737"
       gradientUnits="userSpaceOnUse" />
    <radialGradient
       cx="48"
       cy="90.171875"
       r="42"
       fx="48"
       fy="90.171875"
       id="radialGradient3619"
       xlink:href="#linearGradient3737"
       gradientUnits="userSpaceOnUse"
       gradientTransform="matrix(1.1573129,0,0,0.99590774,-7.5510206,0.19713193)" />
    <clipPath
       id="clipPath3613">
      <rect
         width="84"
         height="84"
         rx="6"
         ry="6"
         x="6"
         y="6"
         id="rect3615"
         style="fill:#ffffff;fill-opacity:1;fill-rule:nonzero;stroke:none" />
    </clipPath>
    <linearGradient
       x1="48"
       y1="90"
       x2="48"
       y2="5.9877172"
       id="linearGradient3617"
       xlink:href="#linearGradient3640"
       gradientUnits="userSpaceOnUse" />
    <linearGradient
       x1="45.447727"
       y1="92.539597"
       x2="45.447727"
       y2="7.0165396"
       id="ButtonShadow-0"
       gradientUnits="userSpaceOnUse"
       gradientTransform="matrix(1.0058652,0,0,0.994169,100,0)">
      <stop
         id="stop3750-8"
         style="stop-color:#000000;stop-opacity:1"
         offset="0" />
      <stop
         id="stop3752-5"
         style="stop-color:#000000;stop-opacity:0.58823532"
         offset="1" />
    </linearGradient>
    <linearGradient
       x1="32.251034"
       y1="6.1317081"
       x2="32.251034"
       y2="90.238609"
       id="linearGradient3780"
       xlink:href="#ButtonShadow-0"
       gradientUnits="userSpaceOnUse"
       gradientTransform="matrix(1.0238095,0,0,1.0119048,-1.1428571,-98.071429)" />
    <linearGradient
       x1="32.251034"
       y1="6.1317081"
       x2="32.251034"
       y2="90.238609"
       id="linearGradient3772"
       xlink:href="#ButtonShadow-0"
       gradientUnits="userSpaceOnUse"
       gradientTransform="matrix(1.0238095,0,0,1.0119048,-1.1428571,-98.071429)" />
    <linearGradient
       x1="32.251034"
       y1="6.1317081"
       x2="32.251034"
       y2="90.238609"
       id="linearGradient3725"
       xlink:href="#ButtonShadow-0"
       gradientUnits="userSpaceOnUse"
       gradientTransform="matrix(1.0238095,0,0,1.0119048,-1.1428571,-98.071429)" />
    <linearGradient
       x1="32.251034"
       y1="6.1317081"
       x2="32.251034"
       y2="90.238609"
       id="linearGradient3721"
       xlink:href="#ButtonShadow-0"
       gradientUnits="userSpaceOnUse"
       gradientTransform="translate(0,-97)" />
    <linearGradient
       x1="32.251034"
       y1="6.1317081"
       x2="32.251034"
       y2="90.238609"
       id="linearGradient3026"
       xlink:href="#ButtonShadow-0"
       gradientUnits="userSpaceOnUse"
       gradientTransform="matrix(1.0238095,0,0,1.0119048,-1.1428571,-98.071429)" />
    <linearGradient
       id="linearGradient3640">
      <stop
         id="stop3642"
         style="stop-color:#2a782a;stop-opacity:1"
         offset="0" />
      <stop
         id="stop3644"
         style="stop-color:#278f27;stop-opacity:1"
         offset="1" />
    </linearGradient>
  </defs>
  <metadata
     id="metadata2413">
    <rdf:RDF>
      <cc:Work
         rdf:about="">
        <dc:format>image/svg+xml</dc:format>
        <dc:type
           rdf:resource="http://purl.org/dc/dcmitype/StillImage" />
        <dc:title />
      </cc:Work>
    </rdf:RDF>
  </metadata>
  <g
     id="layer2"
     style="display:none">
    <rect
       width="86"
       height="85"
       rx="6"
       ry="6"
       x="5"
       y="7"
       id="rect3745"
       style="opacity:0.9;fill:url(#ButtonShadow);fill-opacity:1;fill-rule:nonzero;stroke:none;filter:url(#filter3174)" />
  </g>
  <g
     id="layer1"
     style="fill:#3787da;fill-opacity:1">
    <rect
       width="84"
       height="84"
       rx="6"
       ry="0"
       x="6"
       y="6"
       id="rect2419"
       style="fill:#3787da;fill-opacity:1;fill-rule:nonzero;stroke:none" />
  </g>
  <g
     id="g3048">
    <path
       id="shape2"
       d="m 25.654873,31.442091 c 29.427626,6.742861 44.053584,10.094155 43.877731,10.053746 -0.175899,-0.04062 -3.39734,10.118931 -9.664367,30.478401 z"
       inkscape:connector-curvature="0"
       style="fill:#f39c12;fill-rule:evenodd;stroke:none" />
    <path
       id="shape21"
       stroke-miterlimit="2.00000000000"
       d="m 56.495279,56.439385 1.98845,-2.076965 9.914142,10.815607 -1.45888,1.005324 z"
       inkscape:connector-curvature="0"
       style="fill:#ecf0f1;fill-rule:evenodd;stroke:none" />
    <g
       transform="matrix(1.0284,0,0,1.0160645,-1.2677258,-0.21782847)"
       style="fill:#666666;opacity:0.35"
       id="g3052">
      <path
         id="path3050"
         d="M 53.081828,17.898898 24.764902,34.460217 66.444538,43.295952 z"
         inkscape:connector-curvature="0"
         style="fill:#666666;fill-rule:evenodd;stroke:none" />
      <path
         id="path3058"
         d="M 47.827969,13.576229 C 35.136742,13.810287 24.170631,20.671406 18.313254,30.795786 l 13.263822,1.964715 20.895945,-10.432968 -4.645052,-8.751304 z"
         style="fill:#666666;fill-rule:evenodd;stroke:none"
         inkscape:connector-curvature="0" />
      <path
         id="path3060"
         d="m 48.495909,13.55958 c -1.627815,0 -3.227249,0.118803 -4.794235,0.329672 l 5.692729,10.123274 17.837671,-5.064967 C 61.830285,15.549263 55.413713,13.55958 48.495909,13.55958 z"
         style="fill:#666666;fill-rule:evenodd;stroke:none"
         inkscape:connector-curvature="0" />
      <path
         id="path3070"
         stroke-miterlimit="2.00000000000"
         d="m 54.820976,58.047735 3.705161,-3.675743 10.122777,11.136415 -2.829344,2.750478 z"
         inkscape:connector-curvature="0"
         style="fill:#666666;fill-rule:evenodd;stroke:none" />
    </g>
    <g
       id="g3034">
      <path
         style="fill:#c0392b;fill-rule:evenodd;stroke:none"
         inkscape:connector-curvature="0"
         d="M 53.081828,17.898898 24.764902,34.460217 66.444538,43.295952 z"
         id="shape1" />
      <path
         inkscape:connector-curvature="0"
         style="fill:#75a039;fill-rule:evenodd;stroke:none"
         d="m 27.583013,27.572322 3.407499,49.530782 c 3.093149,1.772197 6.480375,3.099602 10.093659,3.866158 C 45.219623,77.156157 51.423245,73.2104 59.742355,69.131027 L 27.583013,27.572322 z"
         id="shape3" />
      <path
         inkscape:connector-curvature="0"
         style="fill:#1abc9c;fill-rule:evenodd;stroke:none"
         d="m 31.455017,28.990913 -16.53909,27.236269 c 2.693078,10.274087 10.082253,18.65036 19.838091,22.764047 L 31.455017,28.990913 z"
         id="shape4" />
      <path
         inkscape:connector-curvature="0"
         style="fill:#3498db;fill-rule:evenodd;stroke:none"
         d="m 20.296724,27.772125 c -4.089258,5.594528 -6.520021,12.444384 -6.520021,19.886905 0,4.463228 0.890994,8.707376 2.464928,12.607471 L 33.207929,30.229683 20.296724,27.772125 z"
         id="shape5" />
      <path
         inkscape:connector-curvature="0"
         style="fill:#8e44ad;fill-rule:evenodd;stroke:none"
         d="M 47.827969,13.576229 C 35.136742,13.810287 24.170631,20.671406 18.313254,30.795786 l 13.263822,1.964715 20.895945,-10.432968 -4.645052,-8.751304 z"
         id="shape6" />
      <path
         inkscape:connector-curvature="0"
         style="fill:#9b59b6;fill-rule:evenodd;stroke:none"
         d="m 48.495909,13.55958 c -1.627815,0 -3.227249,0.118803 -4.794235,0.329672 l 5.692729,10.123274 17.837671,-5.064967 C 61.830285,15.549263 55.413713,13.55958 48.495909,13.55958 z"
         id="shape7" />
      <path
         inkscape:connector-curvature="0"
         style="fill:#8bc941;fill-rule:evenodd;stroke:none"
         d="m 60.172951,62.677439 -20.604355,17.90887 c 2.851248,0.73914 5.833146,1.172169 8.927313,1.172169 7.754236,0 14.875134,-2.501721 20.641652,-6.690019 l -8.96461,-12.39102 z"
         id="shape8" />
      <path
         inkscape:connector-curvature="0"
         style="fill:#e74c3c;fill-rule:evenodd;stroke:none"
         d="M 64.194143,17.249246 49.418136,23.989218 65.445254,43.356637 82.44885,40.526116 C 80.250116,30.308007 73.413888,21.831624 64.194143,17.249246 z"
         id="shape9" />
      <path
         inkscape:connector-curvature="0"
         style="fill:#f1c40f;fill-rule:evenodd;stroke:none"
         d="m 81.567306,37.252703 -18.851443,2.713969 -5.797836,25.607887 9.229072,11.441965 C 76.366842,71.094646 83.215113,60.203386 83.215113,47.65903 c 0,-3.633834 -0.585419,-7.127059 -1.647807,-10.406327 z"
         id="shape10" />
      <path
         style="fill:#800000;fill-rule:evenodd;stroke:none"
         inkscape:connector-curvature="0"
         d="m 13.776705,15.622661 2.110741,-2.063079 42.716387,40.889482 -3.705144,3.675745 z"
         stroke-miterlimit="2.00000000000"
         id="shape01" />
      <path
         style="fill:#bdc3c7;fill-rule:evenodd;stroke:none"
         inkscape:connector-curvature="0"
         d="m 54.820976,58.047735 3.705161,-3.675743 10.122777,11.136415 -2.829344,2.750478 z"
         stroke-miterlimit="2.00000000000"
         id="shape1111" />
      <path
         style="fill:#000000;fill-rule:evenodd;stroke:none"
         inkscape:connector-curvature="0"
         d="m 66.833524,66.010958 c 7.562269,-7.361283 5.681034,6.965717 16.381591,14.91316 C 71.914158,84.733413 57.848202,74.75748 66.833524,66.010958 z"
         id="shape31" />
    </g>
  </g>
  <g
     id="g3088"
     style="fill:#000000;opacity:0.3"
     transform="matrix(1.023521,0,0,1.0209549,-1.1406692,-0.28413928)">
    <path
       id="path3090"
       stroke-miterlimit="2.00000000000"
       d="m 56.495279,56.439385 1.98845,-2.076965 9.914142,10.815607 -1.45888,1.005324 z"
       inkscape:connector-curvature="0"
       style="fill:#000000;fill-rule:evenodd;stroke:none" />
    <g
       transform="matrix(1.0284,0,0,1.0160645,-1.2677258,-0.21782847)"
       style="opacity:0.34999999999999998;fill:#000000"
       id="g3092">
      <path
         id="path3094"
         d="M 53.081828,17.898898 24.764902,34.460217 66.444538,43.295952 z"
         inkscape:connector-curvature="0"
         style="fill:#000000;fill-rule:evenodd;stroke:none" />
      <path
         id="path3096"
         d="m 48.495909,13.55958 c -1.627815,0 -3.227249,0.118803 -4.794235,0.329672 l 5.692729,10.123274 17.837671,-5.064967 C 61.830285,15.549263 55.413713,13.55958 48.495909,13.55958 z"
         style="fill:#000000;fill-rule:evenodd;stroke:none"
         inkscape:connector-curvature="0" />
      <path
         id="path3098"
         stroke-miterlimit="2.00000000000"
         d="m 54.820976,58.047735 3.705161,-3.675743 10.122777,11.136415 -2.829344,2.750478 z"
         inkscape:connector-curvature="0"
         style="fill:#000000;fill-rule:evenodd;stroke:none" />
    </g>
    <g
       id="g3100"
       style="fill:#000000">
      <path
         style="fill:#000000;fill-rule:evenodd;stroke:none"
         inkscape:connector-curvature="0"
         d="M 53.081828,17.898898 24.764902,34.460217 66.444538,43.295952 z"
         id="path3102" />
      <g
         id="g3104"
         style="fill:#000000">
        <path
           style="fill:#000000;fill-rule:evenodd;stroke:none"
           inkscape:connector-curvature="0"
           d="m 25.654873,31.442091 c 29.427626,6.742861 44.053584,10.094155 43.877731,10.053746 -0.175899,-0.04062 -3.39734,10.118931 -9.664367,30.478401 z"
           id="path3106" />
        <path
           id="path3108"
           d="m 27.583013,27.572322 3.407499,49.530782 c 3.093149,1.772197 6.480375,3.099602 10.093659,3.866158 C 45.219623,77.156157 51.423245,73.2104 59.742355,69.131027 L 27.583013,27.572322 z"
           style="fill:#000000;fill-rule:evenodd;stroke:none"
           inkscape:connector-curvature="0" />
        <path
           id="path3110"
           d="m 31.455017,28.990913 -16.53909,27.236269 c 2.693078,10.274087 10.082253,18.65036 19.838091,22.764047 L 31.455017,28.990913 z"
           style="fill:#000000;fill-rule:evenodd;stroke:none"
           inkscape:connector-curvature="0" />
        <path
           id="path3112"
           d="m 20.296724,27.772125 c -4.089258,5.594528 -6.520021,12.444384 -6.520021,19.886905 0,4.463228 0.890994,8.707376 2.464928,12.607471 L 33.207929,30.229683 20.296724,27.772125 z"
           style="fill:#000000;fill-rule:evenodd;stroke:none"
           inkscape:connector-curvature="0" />
        <path
           id="path3114"
           d="M 47.827969,13.576229 C 35.136742,13.810287 24.170631,20.671406 18.313254,30.795786 l 13.263822,1.964715 20.895945,-10.432968 -4.645052,-8.751304 z"
           style="fill:#000000;fill-rule:evenodd;stroke:none"
           inkscape:connector-curvature="0" />
        <path
           id="path3116"
           d="m 48.495909,13.55958 c -1.627815,0 -3.227249,0.118803 -4.794235,0.329672 l 5.692729,10.123274 17.837671,-5.064967 C 61.830285,15.549263 55.413713,13.55958 48.495909,13.55958 z"
           style="fill:#000000;fill-rule:evenodd;stroke:none"
           inkscape:connector-curvature="0" />
        <path
           id="path3118"
           d="m 60.172951,62.677439 -20.604355,17.90887 c 2.851248,0.73914 5.833146,1.172169 8.927313,1.172169 7.754236,0 14.875134,-2.501721 20.641652,-6.690019 l -8.96461,-12.39102 z"
           style="fill:#000000;fill-rule:evenodd;stroke:none"
           inkscape:connector-curvature="0" />
        <path
           id="path3120"
           d="M 64.194143,17.249246 49.418136,23.989218 65.445254,43.356637 82.44885,40.526116 C 80.250116,30.308007 73.413888,21.831624 64.194143,17.249246 z"
           style="fill:#000000;fill-rule:evenodd;stroke:none"
           inkscape:connector-curvature="0" />
        <path
           id="path3122"
           d="m 81.567306,37.252703 -18.851443,2.713969 -5.797836,25.607887 9.229072,11.441965 C 76.366842,71.094646 83.215113,60.203386 83.215113,47.65903 c 0,-3.633834 -0.585419,-7.127059 -1.647807,-10.406327 z"
           style="fill:#000000;fill-rule:evenodd;stroke:none"
           inkscape:connector-curvature="0" />
      </g>
      <path
         style="fill:#000000;fill-rule:evenodd;stroke:none"
         inkscape:connector-curvature="0"
         d="m 13.776705,15.622661 2.110741,-2.063079 42.716387,40.889482 -3.705144,3.675745 z"
         stroke-miterlimit="2.00000000000"
         id="path3124" />
      <path
         style="fill:#000000;fill-rule:evenodd;stroke:none"
         inkscape:connector-curvature="0"
         d="m 54.820976,58.047735 3.705161,-3.675743 10.122777,11.136415 -2.829344,2.750478 z"
         stroke-miterlimit="2.00000000000"
         id="path3126" />
      <path
         style="fill:#000000;fill-rule:evenodd;stroke:none"
         inkscape:connector-curvature="0"
         d="m 66.833524,66.010958 c 7.562269,-7.361283 5.681034,6.965717 16.381591,14.91316 C 71.914158,84.733413 57.848202,74.75748 66.833524,66.010958 z"
         id="path3128" />
    </g>
  </g>
  <g
     id="g3107">
    <path
       style="fill:#ecf0f1;fill-rule:evenodd;stroke:none"
       inkscape:connector-curvature="0"
       d="m 56.495279,56.439385 1.98845,-2.076965 9.914142,10.815607 -1.45888,1.005324 z"
       stroke-miterlimit="2.00000000000"
       id="path3111" />
    <g
       id="g3113"
       style="fill:#666666;opacity:0.35"
       transform="matrix(1.0284,0,0,1.0160645,-1.2677258,-0.21782847)">
      <path
         style="fill:#666666;fill-rule:evenodd;stroke:none"
         inkscape:connector-curvature="0"
         d="M 53.081828,17.898898 24.764902,34.460217 66.444538,43.295952 z"
         id="path3115" />
      <path
         inkscape:connector-curvature="0"
         style="fill:#666666;fill-rule:evenodd;stroke:none"
         d="m 48.495909,13.55958 c -1.627815,0 -3.227249,0.118803 -4.794235,0.329672 l 5.692729,10.123274 17.837671,-5.064967 C 61.830285,15.549263 55.413713,13.55958 48.495909,13.55958 z"
         id="path3125" />
      <path
         style="fill:#666666;fill-rule:evenodd;stroke:none"
         inkscape:connector-curvature="0"
         d="m 54.820976,58.047735 3.705161,-3.675743 10.122777,11.136415 -2.829344,2.750478 z"
         stroke-miterlimit="2.00000000000"
         id="path3135" />
    </g>
    <g
       id="g3139">
      <path
         id="path3141"
         d="M 53.081828,17.898898 24.764902,34.460217 66.444538,43.295952 z"
         inkscape:connector-curvature="0"
         style="fill:#c0392b;fill-rule:evenodd;stroke:none" />
      <g
         id="g3077">
        <path
           id="path3109"
           d="m 25.654873,31.442091 c 29.427626,6.742861 44.053584,10.094155 43.877731,10.053746 -0.175899,-0.04062 -3.39734,10.118931 -9.664367,30.478401 z"
           inkscape:connector-curvature="0"
           style="fill:#f39c12;fill-rule:evenodd;stroke:none" />
        <path
           inkscape:connector-curvature="0"
           style="fill:#75a039;fill-rule:evenodd;stroke:none"
           d="m 27.583013,27.572322 3.407499,49.530782 c 3.093149,1.772197 6.480375,3.099602 10.093659,3.866158 C 45.219623,77.156157 51.423245,73.2104 59.742355,69.131027 L 27.583013,27.572322 z"
           id="path3143" />
        <path
           inkscape:connector-curvature="0"
           style="fill:#1abc9c;fill-rule:evenodd;stroke:none"
           d="m 31.455017,28.990913 -16.53909,27.236269 c 2.693078,10.274087 10.082253,18.65036 19.838091,22.764047 L 31.455017,28.990913 z"
           id="path3145" />
        <path
           inkscape:connector-curvature="0"
           style="fill:#3498db;fill-rule:evenodd;stroke:none"
           d="m 20.296724,27.772125 c -4.089258,5.594528 -6.520021,12.444384 -6.520021,19.886905 0,4.463228 0.890994,8.707376 2.464928,12.607471 L 33.207929,30.229683 20.296724,27.772125 z"
           id="path3147" />
        <path
           inkscape:connector-curvature="0"
           style="fill:#8e44ad;fill-rule:evenodd;stroke:none"
           d="M 47.827969,13.576229 C 35.136742,13.810287 24.170631,20.671406 18.313254,30.795786 l 13.263822,1.964715 20.895945,-10.432968 -4.645052,-8.751304 z"
           id="path3149" />
        <path
           inkscape:connector-curvature="0"
           style="fill:#9b59b6;fill-rule:evenodd;stroke:none"
           d="m 48.495909,13.55958 c -1.627815,0 -3.227249,0.118803 -4.794235,0.329672 l 5.692729,10.123274 17.837671,-5.064967 C 61.830285,15.549263 55.413713,13.55958 48.495909,13.55958 z"
           id="path3151" />
        <path
           inkscape:connector-curvature="0"
           style="fill:#8bc941;fill-rule:evenodd;stroke:none"
           d="m 60.172951,62.677439 -20.604355,17.90887 c 2.851248,0.73914 5.833146,1.172169 8.927313,1.172169 7.754236,0 14.875134,-2.501721 20.641652,-6.690019 l -8.96461,-12.39102 z"
           id="path3153" />
        <path
           inkscape:connector-curvature="0"
           style="fill:#e74c3c;fill-rule:evenodd;stroke:none"
           d="M 64.194143,17.249246 49.418136,23.989218 65.445254,43.356637 82.44885,40.526116 C 80.250116,30.308007 73.413888,21.831624 64.194143,17.249246 z"
           id="path3155" />
        <path
           inkscape:connector-curvature="0"
           style="fill:#f1c40f;fill-rule:evenodd;stroke:none"
           d="m 81.567306,37.252703 -18.851443,2.713969 -5.797836,25.607887 9.229072,11.441965 C 76.366842,71.094646 83.215113,60.203386 83.215113,47.65903 c 0,-3.633834 -0.585419,-7.127059 -1.647807,-10.406327 z"
           id="path3157" />
      </g>
      <path
         id="path3159"
         stroke-miterlimit="2.00000000000"
         d="m 13.776705,15.622661 2.110741,-2.063079 42.716387,40.889482 -3.705144,3.675745 z"
         inkscape:connector-curvature="0"
         style="fill:#800000;fill-rule:evenodd;stroke:none" />
      <path
         id="path3161"
         stroke-miterlimit="2.00000000000"
         d="m 54.820976,58.047735 3.705161,-3.675743 10.122777,11.136415 -2.829344,2.750478 z"
         inkscape:connector-curvature="0"
         style="fill:#bdc3c7;fill-rule:evenodd;stroke:none" />
      <path
         id="path3163"
         d="m 66.833524,66.010958 c 7.562269,-7.361283 5.681034,6.965717 16.381591,14.91316 C 71.914158,84.733413 57.848202,74.75748 66.833524,66.010958 z"
         inkscape:connector-curvature="0"
         style="fill:#000000;fill-rule:evenodd;stroke:none" />
    </g>
  </g>
</svg>
