<?xml version="1.0" encoding="UTF-8" standalone="no"?>
<!-- Created with Inkscape (http://www.inkscape.org/) -->

<svg
   xmlns:dc="http://purl.org/dc/elements/1.1/"
   xmlns:cc="http://creativecommons.org/ns#"
   xmlns:rdf="http://www.w3.org/1999/02/22-rdf-syntax-ns#"
   xmlns:svg="http://www.w3.org/2000/svg"
   xmlns="http://www.w3.org/2000/svg"
   xmlns:xlink="http://www.w3.org/1999/xlink"
   xmlns:sodipodi="http://sodipodi.sourceforge.net/DTD/sodipodi-0.dtd"
   xmlns:inkscape="http://www.inkscape.org/namespaces/inkscape"
   version="1.0"
   width="96"
   height="96"
   id="svg2408"
   inkscape:version="0.48.4 r9939"
   sodipodi:docname="mediainfo.svg">
  <sodipodi:namedview
     pagecolor="#ffffff"
     bordercolor="#666666"
     borderopacity="1"
     objecttolerance="10"
     gridtolerance="10"
     guidetolerance="10"
     inkscape:pageopacity="0"
     inkscape:pageshadow="2"
     inkscape:window-width="1680"
     inkscape:window-height="991"
     id="namedview55"
     showgrid="false"
     inkscape:zoom="7.1907615"
     inkscape:cx="67.489547"
     inkscape:cy="45.716084"
     inkscape:window-x="0"
     inkscape:window-y="-3"
     inkscape:window-maximized="1"
     inkscape:current-layer="svg2408" />
  <defs
     id="defs2410">
    <linearGradient
       id="linearGradient3697">
      <stop
         id="stop3699"
         style="stop-color:#ffffff;stop-opacity:1"
         offset="0" />
      <stop
         id="stop3701"
         style="stop-color:#ffffff;stop-opacity:0"
         offset="1" />
    </linearGradient>
    <linearGradient
       x1="45.447727"
       y1="92.539597"
       x2="45.447727"
       y2="7.0165396"
       id="ButtonShadow"
       gradientUnits="userSpaceOnUse"
       gradientTransform="scale(1.0058652,0.994169)">
      <stop
         id="stop3750"
         style="stop-color:#000000;stop-opacity:1"
         offset="0" />
      <stop
         id="stop3752"
         style="stop-color:#000000;stop-opacity:0.58823532"
         offset="1" />
    </linearGradient>
    <linearGradient
       id="linearGradient3737">
      <stop
         id="stop3739"
         style="stop-color:#ffffff;stop-opacity:1"
         offset="0" />
      <stop
         id="stop3741"
         style="stop-color:#ffffff;stop-opacity:0"
         offset="1" />
    </linearGradient>
    <linearGradient
       id="linearGradient3700">
      <stop
         id="stop3702"
         style="stop-color:#ca0019;stop-opacity:1"
         offset="0" />
      <stop
         id="stop3704"
         style="stop-color:#e68995;stop-opacity:1"
         offset="1" />
    </linearGradient>
    <filter
       color-interpolation-filters="sRGB"
       id="filter3174">
      <feGaussianBlur
         id="feGaussianBlur3176"
         stdDeviation="1.71" />
    </filter>
    <linearGradient
       x1="36.357143"
       y1="6"
       x2="36.357143"
       y2="63.893143"
       id="linearGradient3188"
       xlink:href="#linearGradient3737"
       gradientUnits="userSpaceOnUse" />
    <filter
       x="-0.192"
       y="-0.192"
       width="1.3839999"
       height="1.3839999"
       color-interpolation-filters="sRGB"
       id="filter3794">
      <feGaussianBlur
         id="feGaussianBlur3796"
         stdDeviation="5.28" />
    </filter>
    <linearGradient
       x1="48"
       y1="20.220806"
       x2="48"
       y2="138.66119"
       id="linearGradient3613"
       xlink:href="#linearGradient3737"
       gradientUnits="userSpaceOnUse" />
    <radialGradient
       cx="48"
       cy="90.171875"
       r="42"
       fx="48"
       fy="90.171875"
       id="radialGradient3619"
       xlink:href="#linearGradient3737"
       gradientUnits="userSpaceOnUse"
       gradientTransform="matrix(1.1573129,0,0,0.99590774,-7.5510206,0.19713193)" />
    <clipPath
       id="clipPath3613">
      <rect
         width="84"
         height="84"
         rx="6"
         ry="6"
         x="6"
         y="6"
         id="rect3615"
         style="fill:#ffffff;fill-opacity:1;fill-rule:nonzero;stroke:none" />
    </clipPath>
    <linearGradient
       x1="48"
       y1="90"
       x2="48"
       y2="5.9877172"
       id="linearGradient3617"
       xlink:href="#linearGradient3700"
       gradientUnits="userSpaceOnUse" />
    <linearGradient
       x1="45.447727"
       y1="92.539597"
       x2="45.447727"
       y2="7.0165396"
       id="ButtonShadow-0"
       gradientUnits="userSpaceOnUse"
       gradientTransform="matrix(1.0058652,0,0,0.994169,100,0)">
      <stop
         id="stop3750-8"
         style="stop-color:#000000;stop-opacity:1"
         offset="0" />
      <stop
         id="stop3752-5"
         style="stop-color:#000000;stop-opacity:0.58823532"
         offset="1" />
    </linearGradient>
    <linearGradient
       x1="32.251034"
       y1="6.1317081"
       x2="32.251034"
       y2="90.238609"
       id="linearGradient3780"
       xlink:href="#ButtonShadow-0"
       gradientUnits="userSpaceOnUse"
       gradientTransform="matrix(1.0238095,0,0,1.0119048,-1.1428571,-98.071429)" />
    <linearGradient
       x1="32.251034"
       y1="6.1317081"
       x2="32.251034"
       y2="90.238609"
       id="linearGradient3772"
       xlink:href="#ButtonShadow-0"
       gradientUnits="userSpaceOnUse"
       gradientTransform="matrix(1.0238095,0,0,1.0119048,-1.1428571,-98.071429)" />
    <linearGradient
       x1="32.251034"
       y1="6.1317081"
       x2="32.251034"
       y2="90.238609"
       id="linearGradient3725"
       xlink:href="#ButtonShadow-0"
       gradientUnits="userSpaceOnUse"
       gradientTransform="matrix(1.0238095,0,0,1.0119048,-1.1428571,-98.071429)" />
    <linearGradient
       x1="32.251034"
       y1="6.1317081"
       x2="32.251034"
       y2="90.238609"
       id="linearGradient3721"
       xlink:href="#ButtonShadow-0"
       gradientUnits="userSpaceOnUse"
       gradientTransform="translate(0,-97)" />
    <linearGradient
       x1="32.251034"
       y1="6.1317081"
       x2="32.251034"
       y2="90.238609"
       id="linearGradient3026"
       xlink:href="#ButtonShadow-0"
       gradientUnits="userSpaceOnUse"
       gradientTransform="matrix(1.0238095,0,0,1.0119048,-1.1428571,-98.071429)" />
    <linearGradient
       x1="96"
       y1="16"
       x2="16"
       y2="64"
       id="linearGradient3703"
       xlink:href="#linearGradient3697"
       gradientUnits="userSpaceOnUse" />
    <linearGradient
       x1="51.42857"
       y1="72.785713"
       x2="90.714287"
       y2="72.785713"
       id="linearGradient3844"
       xlink:href="#linearGradient3157"
       gradientUnits="userSpaceOnUse" />
    <linearGradient
       id="linearGradient3157">
      <stop
         id="stop3159"
         style="stop-color:#1066de;stop-opacity:1"
         offset="0" />
      <stop
         id="stop3161"
         style="stop-color:#67a3f5;stop-opacity:1"
         offset="1" />
    </linearGradient>
  </defs>
  <metadata
     id="metadata2413">
    <rdf:RDF>
      <cc:Work
         rdf:about="">
        <dc:format>image/svg+xml</dc:format>
        <dc:type
           rdf:resource="http://purl.org/dc/dcmitype/StillImage" />
        <dc:title />
      </cc:Work>
    </rdf:RDF>
  </metadata>
  <g
     id="layer2"
     style="display:none">
    <rect
       width="86"
       height="85"
       rx="6"
       ry="6"
       x="5"
       y="7"
       id="rect3745"
       style="opacity:0.9;fill:url(#ButtonShadow);fill-opacity:1;fill-rule:nonzero;stroke:none;filter:url(#filter3174)" />
  </g>
  <g
     id="layer1">
    <rect
       width="84"
       height="84"
       rx="6"
       ry="0"
       x="6"
       y="6"
       id="rect2419"
       style="fill:#cd0e25;fill-opacity:1;fill-rule:nonzero;stroke:none" />
  </g>
  <g
     id="layer5" />
  <path
     style="opacity:0.3;fill:#000000;fill-opacity:1;stroke:none;display:inline"
     id="path3057"
     d="m 48.003657,31.896914 a 14.51583,15.758771 0 0 1 0,31.517541 14.51583,15.758771 0 1 1 0,-31.517541 z"
     inkscape:connector-curvature="0" />
  <g
     id="g3027"
     transform="matrix(1.3363493,0,0,1.0894712,-16.144766,-4.2946176)">
    <path
       inkscape:connector-curvature="0"
       style="opacity:0.3;fill:#000000;fill-opacity:1;fill-rule:evenodd;stroke:none"
       d="m 26.031153,13.804865 0,68.39027 9.875247,0 0,-2.124604 c 0,-0.609935 0.699393,-1.098933 1.574315,-1.098933 l 20.93123,0 c 0.874922,0 1.610095,0.488998 1.610095,1.098933 l 0,2.124604 9.946807,0 0,-68.39027 -9.946807,0 0,3.260168 c 0,0.609935 -0.735173,1.098934 -1.610095,1.098934 l -20.93123,0 c -0.874922,0 -1.574315,-0.488999 -1.574315,-1.098934 l 0,-3.260168 -9.875247,0 z m 9.803687,6.410443 24.11564,0 0,26.117977 -24.11564,0 0,-26.117977 z m -7.621114,0.402942 4.400925,0 0,6.850016 -4.400925,0 0,-6.850016 z m 35.171623,0 4.365145,0 0,6.850016 -4.365145,0 0,-6.850016 z m -35.171623,23.920111 4.400925,0 0,6.813385 -4.400925,0 0,-6.813385 z m 35.171623,0 4.365145,0 0,6.813385 -4.365145,0 0,-6.813385 z m -27.550509,6.483705 24.11564,0 0,26.117976 -24.11564,0 0,-26.117976 z m -7.621114,17.473036 4.400925,0 0,6.850016 -4.400925,0 0,-6.850016 z m 35.171623,0 4.365145,0 0,6.850016 -4.365145,0 0,-6.850016 z"
       id="path3040" />
    <path
       inkscape:connector-curvature="0"
       id="folderGlyph"
       d="m 26.031153,13.804865 0,66.801039 9.875247,0 0,-2.075234 c 0,-0.595761 0.699393,-1.073396 1.574315,-1.073396 l 20.93123,0 c 0.874922,0 1.610095,0.477635 1.610095,1.073396 l 0,2.075234 9.946807,0 0,-66.801039 -9.946807,0 0,3.18441 c 0,0.595762 -0.735173,1.073396 -1.610095,1.073396 l -20.93123,0 c -0.874922,0 -1.574315,-0.477634 -1.574315,-1.073396 l 0,-3.18441 -9.875247,0 z m 9.803687,6.261479 24.11564,0 0,25.511056 -24.11564,0 0,-25.511056 z m -7.621114,0.393579 4.400925,0 0,6.690838 -4.400925,0 0,-6.690838 z m 35.171623,0 4.365145,0 0,6.690838 -4.365145,0 0,-6.690838 z m -35.171623,23.364263 4.400925,0 0,6.655058 -4.400925,0 0,-6.655058 z m 35.171623,0 4.365145,0 0,6.655058 -4.365145,0 0,-6.655058 z m -27.550509,6.333039 24.11564,0 0,25.511055 -24.11564,0 0,-25.511055 z m -7.621114,17.067003 4.400925,0 0,6.690838 -4.400925,0 0,-6.690838 z m 35.171623,0 4.365145,0 0,6.690838 -4.365145,0 0,-6.690838 z"
       style="fill:#ffffff;fill-opacity:1;fill-rule:evenodd;stroke:none" />
  </g>
  <path
     inkscape:connector-curvature="0"
     d="m 48,31.548039 a 14.51583,15.351273 0 0 1 0,30.702546 14.51583,15.351273 0 1 1 0,-30.702546 z"
     id="path3836"
     style="fill:#4e69dd;fill-opacity:1;stroke:none;display:inline" />
  <path
     d="m 48.019204,41.649525 c -0.844842,2.1e-5 -1.536077,-0.268896 -2.07369,-0.806749 -0.512022,-0.564702 -0.768039,-1.27733 -0.768039,-2.137885 0,-0.887397 0.268811,-1.613472 0.806435,-2.178222 0.537623,-0.564696 1.216054,-0.847058 2.035294,-0.847085 0.819229,2.7e-5 1.484855,0.295835 1.996887,0.887423 0.537613,0.564751 0.806424,1.277377 0.806435,2.137884 -1.1e-5,0.860555 -0.268822,1.573183 -0.806435,2.137885 -0.512032,0.537853 -1.177658,0.80677 -1.996887,0.806749"
     inkscape:connector-curvature="0"
     id="path4415"
     style="font-size:42.4517746px;font-style:normal;font-variant:normal;font-weight:bold;font-stretch:normal;text-align:start;line-height:125%;writing-mode:lr-tb;text-anchor:start;fill:#ffffff;fill-opacity:1;stroke:none;font-family:MgOpen Canonica;-inkscape-font-specification:MgOpen Canonica Bold" />
  <path
     d="m 52.022569,57.000797 -8.045139,0 0,-0.868917 c 1.118334,0 1.677491,-0.687893 1.677501,-2.063682 l 0,-7.75986 c -10e-6,-1.472319 -0.52493,-2.208486 -1.574801,-2.208501 l 0,-0.832714 6.299174,0 0,10.801075 c -10e-6,1.375789 0.547738,2.063682 1.643265,2.063682 l 0,0.868917"
     inkscape:connector-curvature="0"
     id="path4410"
     style="font-size:42.4517746px;font-style:normal;font-variant:normal;font-weight:bold;font-stretch:normal;text-align:start;line-height:125%;writing-mode:lr-tb;text-anchor:start;fill:#ffffff;fill-opacity:1;stroke:none;font-family:MgOpen Canonica;-inkscape-font-specification:MgOpen Canonica Bold" />
</svg>
