<?xml version="1.0" encoding="UTF-8" standalone="no"?>
<!-- Created using Karbon, part of Calligra: http://www.calligra.org/karbon -->

<svg
   xmlns:dc="http://purl.org/dc/elements/1.1/"
   xmlns:cc="http://creativecommons.org/ns#"
   xmlns:rdf="http://www.w3.org/1999/02/22-rdf-syntax-ns#"
   xmlns:svg="http://www.w3.org/2000/svg"
   xmlns="http://www.w3.org/2000/svg"
   xmlns:sodipodi="http://sodipodi.sourceforge.net/DTD/sodipodi-0.dtd"
   xmlns:inkscape="http://www.inkscape.org/namespaces/inkscape"
   width="96"
   height="96"
   id="svg2"
   version="1.1"
   inkscape:version="0.48.5 r10040"
   sodipodi:docname="muondiscover.svg">
  <metadata
     id="metadata34">
    <rdf:RDF>
      <cc:Work
         rdf:about="">
        <dc:format>image/svg+xml</dc:format>
        <dc:type
           rdf:resource="http://purl.org/dc/dcmitype/StillImage" />
      </cc:Work>
    </rdf:RDF>
  </metadata>
  <sodipodi:namedview
     pagecolor="#797979"
     bordercolor="#666666"
     borderopacity="1"
     objecttolerance="10"
     gridtolerance="10"
     guidetolerance="10"
     inkscape:pageopacity="0"
     inkscape:pageshadow="2"
     inkscape:window-width="1366"
     inkscape:window-height="706"
     id="namedview32"
     showgrid="false"
     inkscape:zoom="2.4583333"
     inkscape:cx="76.596126"
     inkscape:cy="48.153494"
     inkscape:window-x="-2"
     inkscape:window-y="-3"
     inkscape:window-maximized="1"
     inkscape:current-layer="svg2" />
  <defs
     id="defs4" />
  <rect
     style="fill:none"
     y="44.499935"
     x="5.999999"
     ry="3.4916377"
     rx="3.4916327"
     height="7.0000167"
     width="7.0000067"
     id="rect3264" />
  <rect
     style="fill:none"
     y="44.499935"
     x="82.999992"
     ry="3.4916377"
     rx="3.4916327"
     height="7.0000167"
     width="7.0000067"
     id="rect4066" />
  <rect
     style="fill:none"
     y="44.499996"
     x="-90"
     ry="3.4916327"
     rx="3.4916377"
     height="7.0000067"
     width="7.0000167"
     transform="matrix(0,-1,1,0,0,0)"
     id="rect4068" />
  <rect
     style="fill:none"
     y="44.499996"
     x="-13.000017"
     ry="3.4916327"
     rx="3.4916377"
     height="7.0000067"
     width="7.0000167"
     transform="matrix(0,-1,1,0,0,0)"
     id="rect4070" />
  <g
     id="g3073"
     transform="matrix(1.1999991,0,0,1.199982,-9.5999612,-9.5990323)">
    <rect
       id="rect4072"
       width="70.000053"
       height="70.000153"
       x="12.999999"
       y="12.999842"
       style="fill:#3498db;fill-rule:evenodd" />
    <rect
       id="rect4094"
       transform="matrix(0,-1,1,0,0,0)"
       width="3.5000079"
       height="3.5000029"
       rx="1.7458189"
       ry="1.7458163"
       x="-16.498955"
       y="46.249996"
       style="fill:none" />
    <rect
       id="rect4096"
       transform="matrix(0,-1,1,0,0,0)"
       width="3.5000079"
       height="3.5000029"
       rx="1.7458189"
       ry="1.7458163"
       x="-16.500128"
       y="46.249996"
       style="fill:none" />
    <rect
       id="rect4098"
       width="63.000057"
       height="15.750031"
       x="16.499998"
       y="16.499933"
       style="fill:#2c2c2c;fill-rule:evenodd" />
    <rect
       id="rect4100"
       transform="matrix(0,-1,1,0,0,0)"
       width="3.5000079"
       height="3.5000029"
       rx="1.7458189"
       ry="1.7458163"
       x="-22.311447"
       y="12.999999"
       style="fill:none" />
    <rect
       id="rect4102"
       transform="matrix(0,-1,1,0,0,0)"
       width="3.5000079"
       height="3.5000029"
       rx="1.7458189"
       ry="1.7458163"
       x="-22.311447"
       y="79.499992"
       style="fill:none" />
    <rect
       id="rect4104"
       width="15.750021"
       height="15.750043"
       rx="7.8561697"
       ry="7.8561811"
       x="12.999999"
       y="40.124058"
       style="fill:none" />
    <rect
       id="rect4106"
       width="15.750021"
       height="15.750043"
       rx="7.8561697"
       ry="7.8561811"
       x="67.249992"
       y="40.124058"
       style="fill:none" />
    <rect
       id="rect4125"
       width="7.0000067"
       height="7.0000167"
       rx="3.4916327"
       ry="3.4916377"
       x="28.749998"
       y="35.749924"
       style="fill:#2c2c2c;fill-rule:evenodd" />
    <rect
       id="rect4127"
       width="7.0000067"
       height="7.0000167"
       rx="3.4916327"
       ry="3.4916377"
       x="60.249996"
       y="35.749924"
       style="fill:#2c2c2c;fill-rule:evenodd" />
    <rect
       id="rect4129"
       transform="matrix(0,-1,1,0,0,0)"
       width="3.5000079"
       height="3.5000029"
       rx="1.7458189"
       ry="1.7458163"
       x="-35.748875"
       y="46.249996"
       style="fill:none" />
    <rect
       id="rect4226"
       transform="matrix(0,-1,1,0,0,0)"
       width="3.5000079"
       height="3.5000029"
       rx="1.7458189"
       ry="1.7458163"
       x="-42.74976"
       y="30.499996"
       style="fill:none" />
    <rect
       id="rect4228"
       transform="matrix(0,-1,1,0,0,0)"
       width="3.5000079"
       height="3.5000029"
       rx="1.7458189"
       ry="1.7458163"
       x="-42.74976"
       y="61.999996"
       style="fill:none" />
    <rect
       id="rect4230"
       transform="matrix(0,-1,1,0,0,0)"
       width="15.750034"
       height="3.5000029"
       rx="1.7500039"
       ry="1.7500014"
       x="-55.874077"
       y="30.499996"
       style="fill:#ffffff;fill-rule:evenodd" />
    <rect
       id="rect4232"
       transform="matrix(0,-1,1,0,0,0)"
       width="15.750034"
       height="3.5000029"
       rx="1.7500039"
       ry="1.7500014"
       x="-55.91013"
       y="61.999996"
       style="fill:#ffffff;fill-rule:evenodd" />
    <rect
       id="rect4234"
       width="35.000019"
       height="3.5000079"
       rx="1.7500014"
       ry="1.7500039"
       x="30.499996"
       y="52.410122"
       style="fill:#ffffff;fill-rule:evenodd" />
    <path
       id="shape0"
       d="m 82.938395,73.35207 c 0.05967,3.77682 -2.37692,7.419152 -5.868415,8.848344 -3.430017,1.485052 -7.690147,0.720476 -10.366894,-1.896005 -2.711154,-2.518516 -3.700765,-6.668016 -2.435024,-10.143241 1.223849,-3.601995 4.762051,-6.256171 8.568686,-6.398849 3.700952,-0.239 7.398072,1.90549 9.050597,5.21933 0.691775,1.344737 1.052975,2.856616 1.05105,4.370421 z"
       inkscape:connector-curvature="0"
       style="fill:#ffffff" />
    <path
       id="shape1"
       d="m 70.09189,76.730431 c 0.105455,-2.347033 0.212765,-4.692159 0.320092,-7.039192 -0.709835,-0.655033 -1.419687,-1.310064 -2.12765,-1.965095 -0.335142,0.03437 -0.527187,0.46406 -0.800205,0.666488 -0.308796,0.215798 -0.491433,0.527082 -0.16758,0.828816 0.318203,0.532809 0.638295,1.065615 0.956498,1.59842 -0.342685,0.490806 -0.308788,1.300515 -1.058173,1.239404 -0.532852,0.131776 -1.093947,0.192886 -1.610796,0.370493 -0.04632,0.511806 -0.04783,1.057982 0,1.569788 0.686306,0.234885 1.41686,0.36092 2.121061,0.553805 0.05836,0.651211 0.800205,1.24896 0.18074,1.789395 -0.286195,0.477436 -0.643933,0.924299 -0.884941,1.422735 0.323856,0.395325 0.702311,0.781078 1.093944,1.111461 0.397285,-0.278828 0.689132,-0.746691 1.044995,-1.099999 0.310677,-0.349475 0.621355,-0.697043 0.933905,-1.046519 z"
       inkscape:connector-curvature="0"
       style="fill:#3498db" />
    <path
       id="shape2"
       d="m 71.829096,68.948083 c 2.008826,1.240717 4.015761,2.483376 6.024586,3.724093 0.942428,-0.207743 1.884838,-0.417411 2.827247,-0.625171 0.146895,-0.309698 -0.116357,-0.702119 -0.146895,-1.046432 -0.02098,-0.380888 -0.190767,-0.704043 -0.618099,-0.579006 -0.623823,0 -1.245738,0 -1.86956,0 -0.238473,-0.557848 -0.946243,-0.952193 -0.501743,-1.571589 0.167878,-0.536691 0.41398,-1.057982 0.53417,-1.600442 -0.41398,-0.3097 -0.877555,-0.596317 -1.34113,-0.823303 -0.560875,0.475131 -1.053062,1.04644 -1.587232,1.560049 -0.58758,-0.288541 -1.488025,0.04617 -1.623475,-0.777141 -0.25753,-0.500137 -0.450223,-1.046442 -0.747824,-1.517725 -0.507455,0.07502 -1.037801,0.203902 -1.524271,0.373179 0.02289,0.588624 0.238465,1.188789 0.337668,1.781266 0.07822,0.367396 0.15834,0.736734 0.236558,1.104147 z"
       inkscape:connector-curvature="0"
       style="fill:#3498db" />
    <path
       id="shape3"
       d="m 77.75528,74.336078 c -2.03266,1.105249 -4.065303,2.208608 -6.097963,3.31195 -0.246904,0.921358 -0.491893,1.842717 -0.738797,2.765983 0.199054,0.274891 0.669895,0.229391 0.983787,0.367781 0.344517,0.16114 0.708174,0.166828 0.80578,-0.265423 0.30051,-0.542186 0.601003,-1.084389 0.901495,-1.626592 0.600985,0.05499 1.288105,-0.375358 1.615408,0.309015 0.384702,0.398126 0.72156,0.860704 1.138812,1.220907 0.467023,-0.212345 0.941675,-0.481548 1.36276,-0.775391 -0.143552,-0.714719 -0.403847,-1.416155 -0.593337,-2.125186 0.533995,-0.373468 0.677547,-1.315686 1.460375,-1.044576 0.560787,0.01895 1.131164,0.102358 1.686212,0.06823 0.17801,-0.479631 0.321545,-1.000974 0.409605,-1.505256 -0.444045,-0.21233 -0.997203,-0.23887 -1.483352,-0.379159 -0.484225,-0.106166 -0.968468,-0.214226 -1.450785,-0.322286 z"
       inkscape:connector-curvature="0"
       style="fill:#3498db" />
    <path
       id="shape4"
       d="m 77.887422,73.315547 c 0.05523,2.328466 -1.919942,4.460686 -4.243662,4.584534 -2.318015,0.234378 -4.594128,-1.5739 -4.896974,-3.883325 -0.399985,-2.257958 1.165671,-4.628344 3.394161,-5.154249 2.209445,-0.621179 4.723653,0.703114 5.466475,2.873418 0.184765,0.504946 0.28,1.042284 0.28,1.579622 z"
       inkscape:connector-curvature="0"
       style="fill:#ffffff" />
  </g>
</svg>
