<?xml version="1.0" encoding="UTF-8" standalone="no"?>
<!-- Created with Inkscape (http://www.inkscape.org/) -->

<svg
   xmlns:dc="http://purl.org/dc/elements/1.1/"
   xmlns:cc="http://creativecommons.org/ns#"
   xmlns:rdf="http://www.w3.org/1999/02/22-rdf-syntax-ns#"
   xmlns:svg="http://www.w3.org/2000/svg"
   xmlns="http://www.w3.org/2000/svg"
   xmlns:xlink="http://www.w3.org/1999/xlink"
   xmlns:sodipodi="http://sodipodi.sourceforge.net/DTD/sodipodi-0.dtd"
   xmlns:inkscape="http://www.inkscape.org/namespaces/inkscape"
   version="1.0"
   width="96"
   height="96"
   id="svg2408"
   inkscape:version="0.48.4 r9939"
   sodipodi:docname="nvidia-settings.svg">
  <sodipodi:namedview
     pagecolor="#ffffff"
     bordercolor="#666666"
     borderopacity="1"
     objecttolerance="10"
     gridtolerance="10"
     guidetolerance="10"
     inkscape:pageopacity="0"
     inkscape:pageshadow="2"
     inkscape:window-width="1680"
     inkscape:window-height="991"
     id="namedview71"
     showgrid="false"
     inkscape:zoom="4.009473"
     inkscape:cx="59.44435"
     inkscape:cy="49.002401"
     inkscape:window-x="0"
     inkscape:window-y="-3"
     inkscape:window-maximized="1"
     inkscape:current-layer="svg2408" />
  <defs
     id="defs2410">
    <linearGradient
       id="linearGradient3819">
      <stop
         id="stop3821"
         style="stop-color:#000000;stop-opacity:1"
         offset="0" />
      <stop
         id="stop3823"
         style="stop-color:#000000;stop-opacity:0"
         offset="1" />
    </linearGradient>
    <linearGradient
       id="linearGradient3756">
      <stop
         id="stop3758"
         style="stop-color:#dbff9a;stop-opacity:1"
         offset="0" />
      <stop
         id="stop3772"
         style="stop-color:#dfffa7;stop-opacity:1"
         offset="0.17644246" />
      <stop
         id="stop3774"
         style="stop-color:#c1ff53;stop-opacity:1"
         offset="0.29336214" />
      <stop
         id="stop3776"
         style="stop-color:#82c50c;stop-opacity:1"
         offset="0.49318853" />
      <stop
         id="stop3764"
         style="stop-color:#609501;stop-opacity:1"
         offset="0.75466347" />
      <stop
         id="stop3760"
         style="stop-color:#7cbf06;stop-opacity:1"
         offset="1" />
    </linearGradient>
    <linearGradient
       x1="45.447727"
       y1="92.539597"
       x2="45.447727"
       y2="7.0165396"
       id="ButtonShadow"
       gradientUnits="userSpaceOnUse"
       gradientTransform="scale(1.0058652,0.994169)">
      <stop
         id="stop3750"
         style="stop-color:#000000;stop-opacity:1"
         offset="0" />
      <stop
         id="stop3752"
         style="stop-color:#000000;stop-opacity:0.58823532"
         offset="1" />
    </linearGradient>
    <linearGradient
       id="linearGradient3737">
      <stop
         id="stop3739"
         style="stop-color:#ffffff;stop-opacity:1"
         offset="0" />
      <stop
         id="stop3741"
         style="stop-color:#ffffff;stop-opacity:0"
         offset="1" />
    </linearGradient>
    <linearGradient
       id="linearGradient3700">
      <stop
         id="stop3702"
         style="stop-color:#222222;stop-opacity:1"
         offset="0" />
      <stop
         id="stop3704"
         style="stop-color:#333333;stop-opacity:1"
         offset="1" />
    </linearGradient>
    <filter
       color-interpolation-filters="sRGB"
       id="filter3174">
      <feGaussianBlur
         id="feGaussianBlur3176"
         stdDeviation="1.71" />
    </filter>
    <filter
       x="-0.192"
       y="-0.192"
       width="1.3839999"
       height="1.3839999"
       color-interpolation-filters="sRGB"
       id="filter3794">
      <feGaussianBlur
         id="feGaussianBlur3796"
         stdDeviation="5.28" />
    </filter>
    <linearGradient
       x1="48"
       y1="20.220806"
       x2="48"
       y2="138.66119"
       id="linearGradient3613"
       xlink:href="#linearGradient3737"
       gradientUnits="userSpaceOnUse" />
    <radialGradient
       cx="48"
       cy="90.171875"
       r="42"
       fx="48"
       fy="90.171875"
       id="radialGradient3619"
       xlink:href="#linearGradient3737"
       gradientUnits="userSpaceOnUse"
       gradientTransform="matrix(1.1573129,0,0,0.99590774,-7.5510206,0.19713193)" />
    <clipPath
       id="clipPath3613">
      <rect
         width="84"
         height="84"
         rx="6"
         ry="6"
         x="6"
         y="6"
         id="rect3615"
         style="fill:#ffffff;fill-opacity:1;fill-rule:nonzero;stroke:none" />
    </clipPath>
    <linearGradient
       x1="48"
       y1="90"
       x2="48"
       y2="5.9877172"
       id="linearGradient3617"
       xlink:href="#linearGradient3700"
       gradientUnits="userSpaceOnUse" />
    <linearGradient
       x1="65.928574"
       y1="6"
       x2="65.928574"
       y2="90.001488"
       id="linearGradient3762"
       xlink:href="#linearGradient3756"
       gradientUnits="userSpaceOnUse" />
    <filter
       color-interpolation-filters="sRGB"
       id="filter3795">
      <feGaussianBlur
         id="feGaussianBlur3797"
         stdDeviation="1.215" />
    </filter>
    <clipPath
       id="clipPath3805">
      <rect
         width="80.307129"
         height="41.668793"
         rx="6"
         ry="4.4196429"
         x="7.8286824"
         y="28.31978"
         id="rect3807"
         style="fill:#ffffff;fill-opacity:1;stroke:none" />
    </clipPath>
    <linearGradient
       x1="-41"
       y1="48"
       x2="-35"
       y2="48"
       id="linearGradient3825"
       xlink:href="#linearGradient3819"
       gradientUnits="userSpaceOnUse"
       gradientTransform="matrix(0.66666667,0,0,1,-13.666667,0)" />
    <linearGradient
       x1="-41"
       y1="48"
       x2="-35"
       y2="48"
       id="linearGradient3829"
       xlink:href="#linearGradient3737"
       gradientUnits="userSpaceOnUse"
       gradientTransform="matrix(0.50000001,0,0,1,61.499999,0)" />
    <linearGradient
       x1="36.357143"
       y1="6"
       x2="36.357143"
       y2="63.893143"
       id="linearGradient3868"
       xlink:href="#linearGradient3737"
       gradientUnits="userSpaceOnUse" />
    <linearGradient
       x1="36.357143"
       y1="6"
       x2="36.357143"
       y2="63.893143"
       id="linearGradient3875"
       xlink:href="#linearGradient3737"
       gradientUnits="userSpaceOnUse" />
    <linearGradient
       x1="45.447727"
       y1="92.539597"
       x2="45.447727"
       y2="7.0165396"
       id="ButtonShadow-0"
       gradientUnits="userSpaceOnUse"
       gradientTransform="matrix(1.0058652,0,0,0.994169,100,0)">
      <stop
         id="stop3750-8"
         style="stop-color:#000000;stop-opacity:1"
         offset="0" />
      <stop
         id="stop3752-5"
         style="stop-color:#000000;stop-opacity:0.58823532"
         offset="1" />
    </linearGradient>
    <linearGradient
       x1="32.251034"
       y1="6.1317081"
       x2="32.251034"
       y2="90.238609"
       id="linearGradient3780"
       xlink:href="#ButtonShadow-0"
       gradientUnits="userSpaceOnUse"
       gradientTransform="matrix(1.0238095,0,0,1.0119048,-1.1428571,-98.071429)" />
    <linearGradient
       x1="32.251034"
       y1="6.1317081"
       x2="32.251034"
       y2="90.238609"
       id="linearGradient3772"
       xlink:href="#ButtonShadow-0"
       gradientUnits="userSpaceOnUse"
       gradientTransform="matrix(1.0238095,0,0,1.0119048,-1.1428571,-98.071429)" />
    <linearGradient
       x1="32.251034"
       y1="6.1317081"
       x2="32.251034"
       y2="90.238609"
       id="linearGradient3725"
       xlink:href="#ButtonShadow-0"
       gradientUnits="userSpaceOnUse"
       gradientTransform="matrix(1.0238095,0,0,1.0119048,-1.1428571,-98.071429)" />
    <linearGradient
       x1="32.251034"
       y1="6.1317081"
       x2="32.251034"
       y2="90.238609"
       id="linearGradient3721"
       xlink:href="#ButtonShadow-0"
       gradientUnits="userSpaceOnUse"
       gradientTransform="translate(0,-97)" />
    <linearGradient
       x1="32.251034"
       y1="6.1317081"
       x2="32.251034"
       y2="90.238609"
       id="linearGradient3071"
       xlink:href="#ButtonShadow-0"
       gradientUnits="userSpaceOnUse"
       gradientTransform="matrix(1.0238095,0,0,1.0119048,-1.1428571,-98.071429)" />
  </defs>
  <metadata
     id="metadata2413">
    <rdf:RDF>
      <cc:Work
         rdf:about="">
        <dc:format>image/svg+xml</dc:format>
        <dc:type
           rdf:resource="http://purl.org/dc/dcmitype/StillImage" />
      </cc:Work>
    </rdf:RDF>
  </metadata>
  <g
     id="layer2"
     style="display:none">
    <rect
       width="86"
       height="85"
       rx="6"
       ry="6"
       x="5"
       y="7"
       id="rect3745"
       style="opacity:0.9;fill:url(#ButtonShadow);fill-opacity:1;fill-rule:nonzero;stroke:none;filter:url(#filter3174)" />
  </g>
  <g
     id="layer1"
     style="display:inline">
    <rect
       width="84"
       height="84"
       rx="6"
       ry="0"
       x="6"
       y="6"
       id="rect2419"
       style="fill:#f2f2f2;fill-opacity:1;fill-rule:nonzero;stroke:none" />
  </g>
  <g
     id="layer3">
    <path
       d="m 41.09375,6 0,23.15625 c 0.45785,-0.03541 0.91464,-0.07808 1.375,-0.09375 C 60.20044,28.464883 71.75,43.625 71.75,43.625 c 0,0 -13.26928,16.125 -27.09375,16.125 -1.26699,0 -2.44843,-0.115384 -3.5625,-0.3125 l 0,4.3125 c 0.95268,0.120965 1.93805,0.1875 2.96875,0.1875 12.86459,0 22.17906,-6.56784 31.1875,-14.34375 1.49357,1.196173 7.61803,4.100795 8.875,5.375 -8.56532,7.171087 -28.52664,12.96875 -39.84375,12.96875 -1.09088,0 -2.15773,-0.08816 -3.1875,-0.1875 l 0,22.25 L 84,90 c 3.324,0 6,-2.676 6,-6 L 90,12 C 90,8.676 87.324,6 84,6 L 41.09375,6 z m 0,61.75 0,-4 c -15.74361,-1.980878 -21.125,-19.34375 -21.125,-19.34375 0,0 7.04388,-10.392601 21.125,-11.46875 l 0,-3.78125 C 25.49712,30.408832 12,43.625 12,43.625 c 0,0 7.64066,22.100249 29.09375,24.125 z m 0,-34.8125 0,4.65625 c 0.83391,-0.08932 1.70531,-0.15625 2.59375,-0.15625 8.16763,0 13,6.34375 13,6.34375 l -6.625,5.625 C 47.07818,44.431334 46.0577,42.22481 41.09375,41.625 l 0,14.125 c 1.12504,0.37825 2.38702,0.625 3.78125,0.625 9.68785,0 18.71875,-12.5625 18.71875,-12.5625 0,0 -8.37418,-11.338 -21.125,-10.9375 -0.46631,0.01473 -0.92185,0.03085 -1.375,0.0625 z m 0,22.8125 c -6.70822,-2.253833 -8.875,-10.0625 -8.875,-10.0625 0,0 3.89507,-4.660116 8.875,-4.0625 l 0,-4.03125 c -9.48822,1.026008 -15.1875,7.34375 -15.1875,7.34375 0,0 3.28907,12.378727 15.1875,14.5 l 0,-3.6875 z"
       inkscape:connector-curvature="0"
       id="path21"
       style="fill:#659d02;fill-opacity:1;fill-rule:nonzero;stroke-width:0;stroke-linecap:butt;stroke-linejoin:miter;stroke-miterlimit:10" />
    <path
       d="M 41.09375,29.15625 C 25.49712,30.408832 12,43.625 12,43.625 c 0,0 0.133774,0.377176 0.28125,0.75 1.391896,-1.321508 14.088333,-13.036236 28.8125,-14.21875 l 0,-1 z m 1.375,3.71875 c -0.46631,0.01473 -0.92185,0.03085 -1.375,0.0625 l 0,1 c 0.45315,-0.03165 0.90869,-0.04777 1.375,-0.0625 11.156968,-0.350437 18.972802,8.272812 20.75,10.4375 0.233108,-0.302786 0.375,-0.5 0.375,-0.5 0,0 -8.37418,-11.338 -21.125,-10.9375 z m -1.375,4.71875 c -9.48822,1.026008 -15.1875,7.34375 -15.1875,7.34375 0,0 0.06756,0.30706 0.21875,0.75 1.09829,-1.114652 6.527506,-6.180957 14.96875,-7.09375 l 0,-1 z m 0,4.03125 0,1 c 4.96395,0.59981 5.98443,2.806334 8.96875,7.78125 l 6.625,-5.625 c 0,0 -0.198936,-0.260014 -0.5,-0.59375 l -6.125,5.21875 C 47.07818,44.431334 46.0577,42.22481 41.09375,41.625 z m 30.25,2.46875 C 69.356619,46.396591 57.300732,59.75 44.65625,59.75 c -1.26699,0 -2.44843,-0.115384 -3.5625,-0.3125 l 0,1 c 1.11407,0.197116 2.29551,0.3125 3.5625,0.3125 13.82447,0 27.09375,-16.125 27.09375,-16.125 0,0 -0.185185,-0.264221 -0.40625,-0.53125 z m -51.15625,1 c -0.103144,0.139838 -0.21875,0.3125 -0.21875,0.3125 0,0 5.38139,17.362872 21.125,19.34375 l 0,-1 C 27.145896,61.995066 21.332513,48.225438 20.1875,45.09375 z m 12.28125,1.34375 c -0.05952,0.06661 -0.25,0.25 -0.25,0.25 0,0 2.16678,7.808667 8.875,10.0625 l 0,-1 c -5.49314,-1.845589 -7.918431,-7.355105 -8.625,-9.3125 z m 51.03125,9 c -8.861762,6.948918 -28.154254,12.5 -39.21875,12.5 -1.09088,0 -2.15773,-0.08816 -3.1875,-0.1875 l 0,1 c 1.02977,0.09934 2.09662,0.1875 3.1875,0.1875 11.31711,0 31.27843,-5.797663 39.84375,-12.96875 C 83.979935,55.821696 83.760126,55.622853 83.5,55.4375 z"
       inkscape:connector-curvature="0"
       id="path3766"
       style="opacity:0.6;fill:#ffffff;fill-opacity:1;fill-rule:nonzero;stroke-width:0;stroke-linecap:butt;stroke-linejoin:miter;stroke-miterlimit:10" />
  </g>
  <g
     id="layer5"
     style="display:inline" />
  <rect
     style="fill:#659d02;fill-opacity:1;fill-rule:evenodd;stroke:none"
     id="rect3034"
     width="5.5740142"
     height="83.984222"
     x="84.436516"
     y="6.0335617"
     rx="2.8111176"
     ry="0" />
</svg>
