<?xml version="1.0" encoding="UTF-8" standalone="no"?>
<!-- Created with Inkscape (http://www.inkscape.org/) -->

<svg
   xmlns:dc="http://purl.org/dc/elements/1.1/"
   xmlns:cc="http://creativecommons.org/ns#"
   xmlns:rdf="http://www.w3.org/1999/02/22-rdf-syntax-ns#"
   xmlns:svg="http://www.w3.org/2000/svg"
   xmlns="http://www.w3.org/2000/svg"
   xmlns:xlink="http://www.w3.org/1999/xlink"
   xmlns:sodipodi="http://sodipodi.sourceforge.net/DTD/sodipodi-0.dtd"
   xmlns:inkscape="http://www.inkscape.org/namespaces/inkscape"
   version="1.0"
   width="96"
   height="96"
   id="svg2408"
   inkscape:version="0.48.5 r10040"
   sodipodi:docname="utilities-terminal.svg">
  <sodipodi:namedview
     pagecolor="#ffffff"
     bordercolor="#666666"
     borderopacity="1"
     objecttolerance="10"
     gridtolerance="10"
     guidetolerance="10"
     inkscape:pageopacity="0"
     inkscape:pageshadow="2"
     inkscape:window-width="1401"
     inkscape:window-height="935"
     id="namedview50"
     showgrid="false"
     inkscape:zoom="2.6497932"
     inkscape:cx="-20.279739"
     inkscape:cy="30.905532"
     inkscape:window-x="89"
     inkscape:window-y="34"
     inkscape:window-maximized="0"
     inkscape:current-layer="svg2408"
     showguides="true"
     inkscape:guide-bbox="true">
    <sodipodi:guide
       orientation="0,1"
       position="-9.535992,5.0189432"
       id="guide3016" />
  </sodipodi:namedview>
  <defs
     id="defs2410">
    <linearGradient
       x1="45.447727"
       y1="92.539597"
       x2="45.447727"
       y2="7.0165396"
       id="ButtonShadow"
       gradientUnits="userSpaceOnUse"
       gradientTransform="scale(1.0058652,0.994169)">
      <stop
         id="stop3750"
         style="stop-color:#000000;stop-opacity:1"
         offset="0" />
      <stop
         id="stop3752"
         style="stop-color:#000000;stop-opacity:0.58823532"
         offset="1" />
    </linearGradient>
    <linearGradient
       id="linearGradient3737">
      <stop
         id="stop3739"
         style="stop-color:#ffffff;stop-opacity:1"
         offset="0" />
      <stop
         id="stop3741"
         style="stop-color:#ffffff;stop-opacity:0"
         offset="1" />
    </linearGradient>
    <linearGradient
       id="linearGradient3700">
      <stop
         id="stop3702"
         style="stop-color:#2295c5;stop-opacity:1"
         offset="0" />
      <stop
         id="stop3704"
         style="stop-color:#68d8f4;stop-opacity:1"
         offset="1" />
    </linearGradient>
    <filter
       color-interpolation-filters="sRGB"
       id="filter3174">
      <feGaussianBlur
         id="feGaussianBlur3176"
         stdDeviation="1.71" />
    </filter>
    <linearGradient
       x1="36.357143"
       y1="6"
       x2="36.357143"
       y2="63.893143"
       id="linearGradient3188"
       xlink:href="#linearGradient3737"
       gradientUnits="userSpaceOnUse" />
    <filter
       x="-0.192"
       y="-0.192"
       width="1.3839999"
       height="1.3839999"
       color-interpolation-filters="sRGB"
       id="filter3794">
      <feGaussianBlur
         id="feGaussianBlur3796"
         stdDeviation="5.28" />
    </filter>
    <linearGradient
       x1="48"
       y1="20.220806"
       x2="48"
       y2="138.66119"
       id="linearGradient3613"
       xlink:href="#linearGradient3737"
       gradientUnits="userSpaceOnUse" />
    <radialGradient
       cx="48"
       cy="90.171875"
       r="42"
       fx="48"
       fy="90.171875"
       id="radialGradient3619"
       xlink:href="#linearGradient3737"
       gradientUnits="userSpaceOnUse"
       gradientTransform="matrix(1.1573129,0,0,0.99590774,-7.5510206,0.19713193)" />
    <clipPath
       id="clipPath3613">
      <rect
         width="84"
         height="84"
         rx="6"
         ry="6"
         x="6"
         y="6"
         id="rect3615"
         style="fill:#ffffff;fill-opacity:1;fill-rule:nonzero;stroke:none" />
    </clipPath>
    <linearGradient
       x1="48"
       y1="90"
       x2="48"
       y2="5.9877172"
       id="linearGradient3617"
       xlink:href="#linearGradient3700"
       gradientUnits="userSpaceOnUse" />
    <linearGradient
       x1="45.447727"
       y1="92.539597"
       x2="45.447727"
       y2="7.0165396"
       id="ButtonShadow-0"
       gradientUnits="userSpaceOnUse"
       gradientTransform="matrix(1.0058652,0,0,0.994169,100,0)">
      <stop
         id="stop3750-8"
         style="stop-color:#000000;stop-opacity:1"
         offset="0" />
      <stop
         id="stop3752-5"
         style="stop-color:#000000;stop-opacity:0.58823532"
         offset="1" />
    </linearGradient>
    <linearGradient
       x1="32.251034"
       y1="6.1317081"
       x2="32.251034"
       y2="90.238609"
       id="linearGradient3780"
       xlink:href="#ButtonShadow-0"
       gradientUnits="userSpaceOnUse"
       gradientTransform="matrix(1.0238095,0,0,1.0119048,-1.1428571,-98.071429)" />
    <linearGradient
       x1="32.251034"
       y1="6.1317081"
       x2="32.251034"
       y2="90.238609"
       id="linearGradient3772"
       xlink:href="#ButtonShadow-0"
       gradientUnits="userSpaceOnUse"
       gradientTransform="matrix(1.0238095,0,0,1.0119048,-1.1428571,-98.071429)" />
    <linearGradient
       x1="32.251034"
       y1="6.1317081"
       x2="32.251034"
       y2="90.238609"
       id="linearGradient3725"
       xlink:href="#ButtonShadow-0"
       gradientUnits="userSpaceOnUse"
       gradientTransform="matrix(1.0238095,0,0,1.0119048,-1.1428571,-98.071429)" />
    <linearGradient
       x1="32.251034"
       y1="6.1317081"
       x2="32.251034"
       y2="90.238609"
       id="linearGradient3721"
       xlink:href="#ButtonShadow-0"
       gradientUnits="userSpaceOnUse"
       gradientTransform="translate(0,-97)" />
    <linearGradient
       x1="32.251034"
       y1="6.1317081"
       x2="32.251034"
       y2="90.238609"
       id="linearGradient3122"
       xlink:href="#ButtonShadow-0"
       gradientUnits="userSpaceOnUse"
       gradientTransform="matrix(1.0238095,0,0,1.0119048,-1.1428571,-98.071429)" />
  </defs>
  <metadata
     id="metadata2413">
    <rdf:RDF>
      <cc:Work
         rdf:about="">
        <dc:format>image/svg+xml</dc:format>
        <dc:type
           rdf:resource="http://purl.org/dc/dcmitype/StillImage" />
        <dc:title></dc:title>
      </cc:Work>
    </rdf:RDF>
  </metadata>
  <g
     id="layer2"
     style="display:none">
    <rect
       width="86"
       height="85"
       rx="6"
       ry="6"
       x="5"
       y="7"
       id="rect3745"
       style="opacity:0.9;fill:url(#ButtonShadow);fill-opacity:1;fill-rule:nonzero;stroke:none;filter:url(#filter3174)" />
  </g>
  <g
     id="layer1"
     transform="matrix(1.0046116,0,0,1.007246,-0.22135915,-0.23716556)"
     style="fill:#f9ad00;fill-opacity:1">
    <rect
       width="83.516838"
       height="84.761032"
       rx="0"
       ry="0"
       x="6.2415833"
       y="5.8210654"
       id="rect2419"
       style="fill:#f9ad00;fill-opacity:1;fill-rule:nonzero;stroke:none" />
  </g>
  <g
     id="layer5" />
  <g
     id="g3870"
     transform="matrix(0.8944596,0,0,0.8944596,158.91479,13.900473)">
    <path
       sodipodi:nodetypes="scsccsccscsssccsssssscccsssssccscccscscscs"
       inkscape:connector-curvature="0"
       id="path3028"
       d="M -119.5,-4.78125 C -126.95266,-4.5045641 -151.21875,9.5 -151.21875,9.5 c 0,0 -2.11254,3.250189 -2.4375,4.875 -0.32496,1.62481 5.84375,24.375 5.84375,24.375 l -0.15625,1.625 c 0,0 -5.51682,6.619042 -6.65625,10.96875 -1.66428,6.353271 1.59375,15.5625 1.59375,15.5625 2.16076,2.619707 8.61559,2.38521 14.625,1.90625 5.68684,8.773978 15.43193,13.299848 21.28125,12 5.84932,-1.299849 11.21875,-16.5625 11.21875,-16.5625 0,0 3.25236,-1.500602 5,-1.875 3.127159,-0.669936 6.043901,-4.631421 7.34375,-6.09375 1.299848,-1.46233 0.324962,-12.343939 0,-13.96875 -0.324962,-1.624811 -9.25,-9.59375 -9.25,-9.59375 L -110.78125,7.375 c 0,0 -2.10687,-10.2439582 -7.46875,-12.03125 -0.33512,-0.1117057 -0.75316,-0.1434457 -1.25,-0.125 z m -2.65625,4.4375 c 0.62806,0.0125613 1.21855,0.21854526 1.6875,0.6875 1.87582,1.875819 7.53084,12.195259 8.46875,14.875 0.93791,2.679741 2.25082,4.28084 0.375,5.21875 -1.87582,0.937909 -1.71875,2.6875 -1.71875,2.6875 l -3.90625,-2.8125 -0.125,-8.46875 c 0,0 -1.07067,6.964871 -2.8125,5.625 -1.74183,-1.33987 -3.48632,-2.530431 -4.15625,-4.40625 -0.66994,-1.875819 -1.34722,-7.9144181 -3.89297,-10.4601724 -0.78128,-0.781274 1.8754,7.1194821 1.20547,10.3351724 -0.66994,3.21569 -1.18709,4.942198 -2.125,4.40625 -0.9379,-0.535948 -5.08435,-0.663189 -6.15625,-5.21875 l -1.75,-4.15625 c 0,0 1.20506,9.785538 1.875,10.1875 0.66993,0.401961 -7.91871,-0.283492 -10.0625,-5.375 0,0 -0.91769,4.444849 4.84375,8.0625 0,0 -0.55106,3.341099 -6.3125,-0.8125 0,0 4.54923,3.896854 4.28125,4.96875 -0.26797,1.071897 -0.78125,1.0625 -0.78125,1.0625 0,0 -3.4906,1.197715 -4.5625,-1.75 -1.07189,-2.947716 -0.6875,-10.96875 -0.6875,-10.96875 0,0 5.66291,-4.8153519 13.53125,-8.1875 7.50327,-3.2156897 8.71875,-4.03125 8.71875,-4.03125 0,0 2.17831,-1.50643386 4.0625,-1.46875 z"
       style="fill:#1a1a1a;fill-opacity:1;stroke:none" />
    <g
       id="g3848">
      <path
         style="color:#000000;fill:#fbae00;fill-opacity:0.99215686;fill-rule:nonzero;stroke:none;stroke-width:3.79999995;marker:none;visibility:visible;display:inline;overflow:visible;enable-background:accumulate"
         d="m -106.60243,44.9288 c 1.69557,15.450487 -3.09537,30.602573 -11.85557,32.649765 -8.76021,2.047193 -18.96111,-8.605592 -22.94964,-23.62838 -3.98853,-15.022788 -0.19016,-29.343571 12.12355,-31.845842 14.41369,-2.929006 21.23889,9.677488 22.68166,22.824457 z"
         id="path3798"
         inkscape:connector-curvature="0"
         sodipodi:nodetypes="sssss" />
      <path
         style="fill:#f9ad00;fill-opacity:1;stroke:none"
         d="m -102.76808,35.839806 0.26797,24.385647 c 0,0 4.421575,-1.741832 4.421575,-3.349677 0,-1.607845 0.133987,-14.872565 0.133987,-14.872565 0,0 -2.545752,-5.761444 -4.823532,-6.163405 z"
         id="path3801"
         inkscape:connector-curvature="0" />
      <path
         inkscape:connector-curvature="0"
         id="path3803"
         d="m -147.11779,43.44725 c 0,0 -0.45241,4.219775 -0.009,11.220191 0.44374,7.000415 3.34101,12.426075 3.34101,12.426075 0,0 -5.69875,-0.744552 -6.17056,-2.281615 -0.94406,-3.075584 -2.0997,-14.134353 -2.0997,-14.134353 0,0 2.70384,-6.631338 4.93792,-7.230298 z"
         style="fill:#f9ad00;fill-opacity:1;stroke:none"
         inkscape:transform-center-x="1.3398707"
         sodipodi:nodetypes="czcscc" />
      <g
         id="g3815">
        <path
           transform="translate(35.908535,40.062134)"
           d="m -131.70928,15.406777 c 0,0.406995 -0.32994,0.736929 -0.73693,0.736929 -0.407,0 -0.73693,-0.329934 -0.73693,-0.736929 0,-0.406994 0.32993,-0.736928 0.73693,-0.736928 0.40699,0 0.73693,0.329934 0.73693,0.736928 z"
           sodipodi:ry="0.73692888"
           sodipodi:rx="0.73692888"
           sodipodi:cy="15.406777"
           sodipodi:cx="-132.44621"
           id="path3805"
           style="color:#000000;fill:#f9ad00;fill-opacity:1;fill-rule:nonzero;stroke:none;stroke-width:3.79999995;marker:none;visibility:visible;display:inline;overflow:visible;enable-background:accumulate"
           sodipodi:type="arc" />
        <path
           sodipodi:type="arc"
           style="color:#000000;fill:#f9ad00;fill-opacity:1;fill-rule:nonzero;stroke:none;stroke-width:3.79999995;marker:none;visibility:visible;display:inline;overflow:visible;enable-background:accumulate"
           id="path3807"
           sodipodi:cx="-132.44621"
           sodipodi:cy="15.406777"
           sodipodi:rx="0.73692888"
           sodipodi:ry="0.73692888"
           d="m -131.70928,15.406777 c 0,0.406995 -0.32994,0.736929 -0.73693,0.736929 -0.407,0 -0.73693,-0.329934 -0.73693,-0.736929 0,-0.406994 0.32993,-0.736928 0.73693,-0.736928 0.40699,0 0.73693,0.329934 0.73693,0.736928 z"
           transform="translate(35.908535,36.990237)" />
        <path
           transform="translate(36.042522,33.918341)"
           d="m -131.70928,15.406777 c 0,0.406995 -0.32994,0.736929 -0.73693,0.736929 -0.407,0 -0.73693,-0.329934 -0.73693,-0.736929 0,-0.406994 0.32993,-0.736928 0.73693,-0.736928 0.40699,0 0.73693,0.329934 0.73693,0.736928 z"
           sodipodi:ry="0.73692888"
           sodipodi:rx="0.73692888"
           sodipodi:cy="15.406777"
           sodipodi:cx="-132.44621"
           id="path3809"
           style="color:#000000;fill:#f9ad00;fill-opacity:1;fill-rule:nonzero;stroke:none;stroke-width:3.79999995;marker:none;visibility:visible;display:inline;overflow:visible;enable-background:accumulate"
           sodipodi:type="arc" />
        <path
           transform="translate(36.042522,31.094806)"
           d="m -131.70928,15.406777 c 0,0.406995 -0.32994,0.736929 -0.73693,0.736929 -0.407,0 -0.73693,-0.329934 -0.73693,-0.736929 0,-0.406994 0.32993,-0.736928 0.73693,-0.736928 0.40699,0 0.73693,0.329934 0.73693,0.736928 z"
           sodipodi:ry="0.73692888"
           sodipodi:rx="0.73692888"
           sodipodi:cy="15.406777"
           sodipodi:cx="-132.44621"
           id="path3811"
           style="color:#000000;fill:#f9ad00;fill-opacity:1;fill-rule:nonzero;stroke:none;stroke-width:3.79999995;marker:none;visibility:visible;display:inline;overflow:visible;enable-background:accumulate"
           sodipodi:type="arc" />
        <path
           sodipodi:type="arc"
           style="color:#000000;fill:#f9ad00;fill-opacity:1;fill-rule:nonzero;stroke:none;stroke-width:3.79999995;marker:none;visibility:visible;display:inline;overflow:visible;enable-background:accumulate"
           id="path3813"
           sodipodi:cx="-132.44621"
           sodipodi:cy="15.406777"
           sodipodi:rx="0.73692888"
           sodipodi:ry="0.73692888"
           d="m -131.70928,15.406777 c 0,0.406995 -0.32994,0.736929 -0.73693,0.736929 -0.407,0 -0.73693,-0.329934 -0.73693,-0.736929 0,-0.406994 0.32993,-0.736928 0.73693,-0.736928 0.40699,0 0.73693,0.329934 0.73693,0.736928 z"
           transform="translate(36.176509,27.879116)" />
      </g>
      <g
         id="g3822"
         transform="matrix(0.98583315,-0.16108464,0.16772896,0.94678093,-65.922327,-3.5222395)">
        <path
           sodipodi:type="arc"
           style="color:#000000;fill:#f9ad00;fill-opacity:1;fill-rule:nonzero;stroke:none;stroke-width:3.79999995;marker:none;visibility:visible;display:inline;overflow:visible;enable-background:accumulate"
           id="path3824"
           sodipodi:cx="-132.44621"
           sodipodi:cy="15.406777"
           sodipodi:rx="0.73692888"
           sodipodi:ry="0.73692888"
           d="m -131.70928,15.406777 c 0,0.406995 -0.32994,0.736929 -0.73693,0.736929 -0.407,0 -0.73693,-0.329934 -0.73693,-0.736929 0,-0.406994 0.32993,-0.736928 0.73693,-0.736928 0.40699,0 0.73693,0.329934 0.73693,0.736928 z"
           transform="translate(35.908535,40.062134)" />
        <path
           transform="translate(35.908535,36.990237)"
           d="m -131.70928,15.406777 c 0,0.406995 -0.32994,0.736929 -0.73693,0.736929 -0.407,0 -0.73693,-0.329934 -0.73693,-0.736929 0,-0.406994 0.32993,-0.736928 0.73693,-0.736928 0.40699,0 0.73693,0.329934 0.73693,0.736928 z"
           sodipodi:ry="0.73692888"
           sodipodi:rx="0.73692888"
           sodipodi:cy="15.406777"
           sodipodi:cx="-132.44621"
           id="path3826"
           style="color:#000000;fill:#f9ad00;fill-opacity:1;fill-rule:nonzero;stroke:none;stroke-width:3.79999995;marker:none;visibility:visible;display:inline;overflow:visible;enable-background:accumulate"
           sodipodi:type="arc" />
        <path
           sodipodi:type="arc"
           style="color:#000000;fill:#f9ad00;fill-opacity:1;fill-rule:nonzero;stroke:none;stroke-width:3.79999995;marker:none;visibility:visible;display:inline;overflow:visible;enable-background:accumulate"
           id="path3828"
           sodipodi:cx="-132.44621"
           sodipodi:cy="15.406777"
           sodipodi:rx="0.73692888"
           sodipodi:ry="0.73692888"
           d="m -131.70928,15.406777 c 0,0.406995 -0.32994,0.736929 -0.73693,0.736929 -0.407,0 -0.73693,-0.329934 -0.73693,-0.736929 0,-0.406994 0.32993,-0.736928 0.73693,-0.736928 0.40699,0 0.73693,0.329934 0.73693,0.736928 z"
           transform="translate(36.042522,33.918341)" />
        <path
           sodipodi:type="arc"
           style="color:#000000;fill:#f9ad00;fill-opacity:1;fill-rule:nonzero;stroke:none;stroke-width:3.79999995;marker:none;visibility:visible;display:inline;overflow:visible;enable-background:accumulate"
           id="path3830"
           sodipodi:cx="-132.44621"
           sodipodi:cy="15.406777"
           sodipodi:rx="0.73692888"
           sodipodi:ry="0.73692888"
           d="m -131.70928,15.406777 c 0,0.406995 -0.32994,0.736929 -0.73693,0.736929 -0.407,0 -0.73693,-0.329934 -0.73693,-0.736929 0,-0.406994 0.32993,-0.736928 0.73693,-0.736928 0.40699,0 0.73693,0.329934 0.73693,0.736928 z"
           transform="translate(36.042522,31.094806)" />
        <path
           transform="translate(36.176509,27.879116)"
           d="m -131.70928,15.406777 c 0,0.406995 -0.32994,0.736929 -0.73693,0.736929 -0.407,0 -0.73693,-0.329934 -0.73693,-0.736929 0,-0.406994 0.32993,-0.736928 0.73693,-0.736928 0.40699,0 0.73693,0.329934 0.73693,0.736928 z"
           sodipodi:ry="0.73692888"
           sodipodi:rx="0.73692888"
           sodipodi:cy="15.406777"
           sodipodi:cx="-132.44621"
           id="path3832"
           style="color:#000000;fill:#f9ad00;fill-opacity:1;fill-rule:nonzero;stroke:none;stroke-width:3.79999995;marker:none;visibility:visible;display:inline;overflow:visible;enable-background:accumulate"
           sodipodi:type="arc" />
      </g>
      <path
         style="fill:#1a1a1a;fill-opacity:1;stroke:none"
         d="m -126.75177,74.026121 c 0,0 11.92485,2.947716 14.20263,-2.813728 2.27778,-5.761444 4.42158,-22.509828 4.01962,-23.581725 -0.40197,-1.071896 -3.61766,-4.019612 -16.74839,4.287587 0,0 -6.83333,-0.803923 -10.58498,0.401961 -0.99627,0.320229 -2.67974,2.813728 -2.67974,3.885625 0,1.071896 4.82354,12.996745 11.79086,17.82028 z"
         id="path3834"
         inkscape:connector-curvature="0"
         sodipodi:nodetypes="csscssc" />
      <path
         style="fill:#ffffff;fill-opacity:0.99215686;stroke:none"
         d="m -133.31713,63.709117 0.26797,-5.49347 c 0,0 19.02616,-6.565367 20.23205,-5.49347 1.20588,1.071896 1.87582,2.813728 1.87582,2.813728 l 0.9379,0.267974 0.93792,-6.967327 c 0,0 -3.34968,-4.689548 -15.94447,4.153599 l -10.71896,0.803922 c 0,0 -2.14379,2.545755 -1.47386,4.555561 0.66994,2.009806 3.88563,5.359483 3.88563,5.359483 z"
         id="path3836"
         inkscape:connector-curvature="0"
         sodipodi:nodetypes="ccscccccsc" />
      <path
         sodipodi:type="arc"
         style="color:#000000;fill:#f9ad00;fill-opacity:1;fill-rule:nonzero;stroke:none;stroke-width:3.79999995;marker:none;visibility:visible;display:inline;overflow:visible;enable-background:accumulate"
         id="path3838"
         sodipodi:cx="-120.92333"
         sodipodi:cy="67.125786"
         sodipodi:rx="2.7467349"
         sodipodi:ry="1.8088255"
         d="m -118.1766,67.125786 c 0,0.998987 -1.22975,1.808825 -2.74673,1.808825 -1.51698,0 -2.74674,-0.809838 -2.74674,-1.808825 0,-0.998987 1.22976,-1.808826 2.74674,-1.808826 1.51698,0 2.74673,0.809839 2.74673,1.808826 z" />
      <path
         style="fill:#1a1a1a;fill-opacity:1;stroke:none"
         d="m -139.48054,41.065301 c 0,0 13.13073,0.803922 13.93466,0.267974 0.80392,-0.535948 7.10131,-2.947716 8.84314,-5.895431 l 3.48367,-0.267974 c 0,0 -3.88563,1.875819 -3.48367,2.411767 0.40196,0.535948 2.27778,-0.133987 2.27778,-0.133987 0,0 -3.61765,2.009806 -2.67974,2.679741 0.93791,0.669936 3.34968,0.93791 3.34968,0.93791 l -12.05884,1.607845 -11.12093,4.823534 c 0,0 3.34968,-2.545754 2.94772,-2.947715 -0.40196,-0.401962 -2.27778,-0.267975 -2.27778,-0.267975 0,0 3.34968,-0.937909 3.0817,-1.473857 -0.26797,-0.535949 -6.29739,-1.741832 -6.29739,-1.741832 z"
         id="path3840"
         inkscape:connector-curvature="0" />
      <path
         style="fill:#f9ad00;fill-opacity:1;stroke:none"
         d="m -146.31388,36.777715 c 0,0 -4.46197,-21.665647 -4.01961,-23.045777 1.07077,-3.340712 15.00879,-10.1802149 15.00879,-10.1802149 0,0 16.46921,-8.9765734 18.08602,-3.08450413 0,0 6.43138,13.26471903 7.50327,17.55230603 1.0719,4.287586 -4.55555,-21.8398922 -9.11111,-22.3758405 0,0 -19.83009,5.895431 -33.49678,16.7483835 0,0 0.12895,11.258275 6.16341,25.055582 l 0,-1.205884 z"
         id="path3846"
         inkscape:connector-curvature="0"
         sodipodi:nodetypes="csccsccccc" />
    </g>
  </g>
</svg>
