<?xml version="1.0" encoding="UTF-8" standalone="no"?>
<!-- Created with Inkscape (http://www.inkscape.org/) -->

<svg
   xmlns:dc="http://purl.org/dc/elements/1.1/"
   xmlns:cc="http://creativecommons.org/ns#"
   xmlns:rdf="http://www.w3.org/1999/02/22-rdf-syntax-ns#"
   xmlns:svg="http://www.w3.org/2000/svg"
   xmlns="http://www.w3.org/2000/svg"
   xmlns:xlink="http://www.w3.org/1999/xlink"
   xmlns:sodipodi="http://sodipodi.sourceforge.net/DTD/sodipodi-0.dtd"
   xmlns:inkscape="http://www.inkscape.org/namespaces/inkscape"
   version="1.0"
   width="96"
   height="96"
   id="svg2408"
   inkscape:version="0.48.5 r10040"
   sodipodi:docname="opera.svg">
  <sodipodi:namedview
     pagecolor="#ffffff"
     bordercolor="#666666"
     borderopacity="1"
     objecttolerance="10"
     gridtolerance="10"
     guidetolerance="10"
     inkscape:pageopacity="0"
     inkscape:pageshadow="2"
     inkscape:window-width="1680"
     inkscape:window-height="988"
     id="namedview156"
     showgrid="false"
     inkscape:zoom="4.4122345"
     inkscape:cx="38.605273"
     inkscape:cy="71.337392"
     inkscape:window-x="0"
     inkscape:window-y="-3"
     inkscape:window-maximized="1"
     inkscape:current-layer="svg2408" />
  <defs
     id="defs2410">
    <radialGradient
       cx="622.72803"
       cy="621.17328"
       r="510.71881"
       fx="622.72803"
       fy="621.17328"
       id="radialGradient3809"
       gradientUnits="userSpaceOnUse">
      <stop
         id="stop3811"
         style="stop-color:#f0f0f0;stop-opacity:1"
         offset="0" />
      <stop
         id="stop3813"
         style="stop-color:#e1e1e1;stop-opacity:1"
         offset="0.2814" />
      <stop
         id="stop3815"
         style="stop-color:#c0c0c0;stop-opacity:1"
         offset="0.75150001" />
      <stop
         id="stop3817"
         style="stop-color:#b2b2b2;stop-opacity:1"
         offset="1" />
    </radialGradient>
    <linearGradient
       id="linearGradient3985">
      <stop
         id="stop3987"
         style="stop-color:#000000;stop-opacity:1"
         offset="0" />
      <stop
         id="stop3989"
         style="stop-color:#000000;stop-opacity:0"
         offset="1" />
    </linearGradient>
    <linearGradient
       x1="45.447727"
       y1="92.539597"
       x2="45.447727"
       y2="7.0165396"
       id="ButtonShadow"
       gradientUnits="userSpaceOnUse"
       gradientTransform="scale(1.0058652,0.994169)">
      <stop
         id="stop3750"
         style="stop-color:#000000;stop-opacity:1"
         offset="0" />
      <stop
         id="stop3752"
         style="stop-color:#000000;stop-opacity:0.58823532"
         offset="1" />
    </linearGradient>
    <linearGradient
       id="linearGradient3737">
      <stop
         id="stop3739"
         style="stop-color:#ffffff;stop-opacity:1"
         offset="0" />
      <stop
         id="stop3741"
         style="stop-color:#ffffff;stop-opacity:0"
         offset="1" />
    </linearGradient>
    <filter
       color-interpolation-filters="sRGB"
       id="filter3174">
      <feGaussianBlur
         id="feGaussianBlur3176"
         stdDeviation="1.71" />
    </filter>
    <linearGradient
       x1="36.357143"
       y1="6"
       x2="36.357143"
       y2="63.893143"
       id="linearGradient3188"
       xlink:href="#linearGradient3737"
       gradientUnits="userSpaceOnUse" />
    <filter
       x="-0.192"
       y="-0.192"
       width="1.3839999"
       height="1.3839999"
       color-interpolation-filters="sRGB"
       id="filter3794">
      <feGaussianBlur
         id="feGaussianBlur3796"
         stdDeviation="5.28" />
    </filter>
    <linearGradient
       x1="48"
       y1="20.220806"
       x2="48"
       y2="138.66119"
       id="linearGradient3613"
       xlink:href="#linearGradient3737"
       gradientUnits="userSpaceOnUse" />
    <radialGradient
       cx="48"
       cy="90.171875"
       r="42"
       fx="48"
       fy="90.171875"
       id="radialGradient3619"
       xlink:href="#linearGradient3737"
       gradientUnits="userSpaceOnUse"
       gradientTransform="matrix(1.1573129,0,0,0.99590774,-7.5510206,0.19713193)" />
    <clipPath
       id="clipPath3613">
      <rect
         width="84"
         height="84"
         rx="6"
         ry="6"
         x="6"
         y="6"
         id="rect3615"
         style="fill:#ffffff;fill-opacity:1;fill-rule:nonzero;stroke:none" />
    </clipPath>
    <linearGradient
       x1="48"
       y1="90"
       x2="48"
       y2="5.9877172"
       id="linearGradient3617"
       xlink:href="#radialGradient3809"
       gradientUnits="userSpaceOnUse"
       gradientTransform="translate(0,-96)" />
    <radialGradient
       cx="622.72803"
       cy="621.17328"
       r="510.71881"
       fx="622.72803"
       fy="621.17328"
       id="XMLID_22_"
       gradientUnits="userSpaceOnUse">
      <stop
         id="stop14"
         style="stop-color:#ffffff;stop-opacity:1"
         offset="0" />
      <stop
         id="stop16"
         style="stop-color:#e6e6e6;stop-opacity:1"
         offset="0.2814" />
      <stop
         id="stop18"
         style="stop-color:#c0c0c0;stop-opacity:1"
         offset="0.75150001" />
      <stop
         id="stop20"
         style="stop-color:#b2b2b2;stop-opacity:1"
         offset="1" />
    </radialGradient>
    <mask
       id="XMLID_23_">
      <g
         id="g31"
         style="filter:url(#Adobe_OpacityMaskFilter)">
        <radialGradient
           cx="88.977501"
           cy="-20.899401"
           r="673.11609"
           fx="88.977501"
           fy="-20.899401"
           id="XMLID_24_"
           gradientUnits="userSpaceOnUse">
          <stop
             id="stop34"
             style="stop-color:#ffffff;stop-opacity:1"
             offset="0.30899999" />
          <stop
             id="stop36"
             style="stop-color:#000000;stop-opacity:1"
             offset="1" />
        </radialGradient>
        <ellipse
           cx="295.89499"
           cy="286.172"
           rx="512.93402"
           ry="349.10599"
           id="ellipse38"
           style="fill:url(#XMLID_24_) #000000" />
      </g>
    </mask>
    <mask
       id="XMLID_13_">
      <g
         id="g193"
         style="filter:url(#Adobe_OpacityMaskFilter_4_)">
        <linearGradient
           x1="340.0488"
           y1="266.93359"
           x2="372.38071"
           y2="417.81519"
           id="XMLID_14_"
           gradientUnits="userSpaceOnUse">
          <stop
             id="stop196"
             style="stop-color:#ffffff;stop-opacity:1"
             offset="0" />
          <stop
             id="stop198"
             style="stop-color:#f8f8f8;stop-opacity:1"
             offset="0.0867" />
          <stop
             id="stop200"
             style="stop-color:#e4e4e4;stop-opacity:1"
             offset="0.2156" />
          <stop
             id="stop202"
             style="stop-color:#c2c2c2;stop-opacity:1"
             offset="0.37079999" />
          <stop
             id="stop204"
             style="stop-color:#949494;stop-opacity:1"
             offset="0.54650003" />
          <stop
             id="stop206"
             style="stop-color:#595959;stop-opacity:1"
             offset="0.73940003" />
          <stop
             id="stop208"
             style="stop-color:#151515;stop-opacity:1"
             offset="0.94379997" />
          <stop
             id="stop210"
             style="stop-color:#000000;stop-opacity:1"
             offset="0.99440002" />
        </linearGradient>
        <ellipse
           cx="363.052"
           cy="374.28201"
           rx="215.32401"
           ry="183.32201"
           id="ellipse212"
           style="fill:url(#XMLID_14_) #000000" />
      </g>
    </mask>
    <mask
       id="XMLID_10_">
      <g
         id="g159">
        <radialGradient
           cx="657.2124"
           cy="155.23289"
           r="606.95343"
           fx="657.2124"
           fy="155.23289"
           id="XMLID_11_"
           gradientUnits="userSpaceOnUse"
           gradientTransform="matrix(0.931,0,0,0.9299,28.7459,21.6629)">
          <stop
             id="stop162"
             style="stop-color:#c9c9c8;stop-opacity:1"
             offset="0" />
          <stop
             id="stop164"
             style="stop-color:#c4c4c4;stop-opacity:1"
             offset="0.0881" />
          <stop
             id="stop166"
             style="stop-color:#b8b8b7;stop-opacity:1"
             offset="0.2192" />
          <stop
             id="stop168"
             style="stop-color:#a1a0a0;stop-opacity:1"
             offset="0.37689999" />
          <stop
             id="stop170"
             style="stop-color:#7f7f7e;stop-opacity:1"
             offset="0.55559999" />
          <stop
             id="stop172"
             style="stop-color:#4f4f4e;stop-opacity:1"
             offset="0.75169998" />
          <stop
             id="stop174"
             style="stop-color:#121212;stop-opacity:1"
             offset="0.95950001" />
          <stop
             id="stop176"
             style="stop-color:#000000;stop-opacity:1"
             offset="1" />
        </radialGradient>
        <circle
           cx="408.427"
           cy="444.22601"
           r="302.95401"
           id="circle178"
           style="fill:url(#XMLID_11_) #000000" />
      </g>
    </mask>
    <linearGradient
       x1="220.9512"
       y1="634.63232"
       x2="278.14471"
       y2="560.35498"
       id="XMLID_5_"
       gradientUnits="userSpaceOnUse">
      <stop
         id="stop119"
         style="stop-color:#ffffff;stop-opacity:1"
         offset="0" />
      <stop
         id="stop121"
         style="stop-color:#193d6b;stop-opacity:1"
         offset="1" />
    </linearGradient>
    <linearGradient
       x1="429.84909"
       y1="815.45459"
       x2="480.12021"
       y2="643.30768"
       id="XMLID_4_"
       gradientUnits="userSpaceOnUse"
       gradientTransform="matrix(-1.12563,0,0,1.12563,1028.91,-39.5467)">
      <stop
         id="stop112"
         style="stop-color:#ffffff;stop-opacity:1"
         offset="0" />
      <stop
         id="stop114"
         style="stop-color:#e5eaf2;stop-opacity:1"
         offset="1" />
    </linearGradient>
    <mask
       id="XMLID_2_">
      <g
         id="g86">
        <linearGradient
           x1="206.09081"
           y1="397.62061"
           x2="186.92191"
           y2="563.47321"
           id="XMLID_3_"
           gradientUnits="userSpaceOnUse">
          <stop
             id="stop89"
             style="stop-color:#ffffff;stop-opacity:1"
             offset="0" />
          <stop
             id="stop91"
             style="stop-color:#cbcbcb;stop-opacity:1"
             offset="0.1111" />
          <stop
             id="stop93"
             style="stop-color:#969696;stop-opacity:1"
             offset="0.2396" />
          <stop
             id="stop95"
             style="stop-color:#686868;stop-opacity:1"
             offset="0.3698" />
          <stop
             id="stop97"
             style="stop-color:#424242;stop-opacity:1"
             offset="0.4991" />
          <stop
             id="stop99"
             style="stop-color:#252525;stop-opacity:1"
             offset="0.62730002" />
          <stop
             id="stop101"
             style="stop-color:#111111;stop-opacity:1"
             offset="0.75419998" />
          <stop
             id="stop103"
             style="stop-color:#040404;stop-opacity:1"
             offset="0.87919998" />
          <stop
             id="stop105"
             style="stop-color:#000000;stop-opacity:1"
             offset="1" />
        </linearGradient>
        <ellipse
           cx="194.76401"
           cy="495.62299"
           rx="160.94"
           ry="123.604"
           id="ellipse107"
           style="fill:url(#XMLID_3_) #000000" />
      </g>
    </mask>
    <mask
       id="XMLID_26_">
      <g
         id="g69">
        <linearGradient
           x1="211.7222"
           y1="562.85791"
           x2="200.0733"
           y2="466.75449"
           id="XMLID_1_"
           gradientUnits="userSpaceOnUse">
          <stop
             id="stop72"
             style="stop-color:#ffffff;stop-opacity:1"
             offset="0" />
          <stop
             id="stop74"
             style="stop-color:#000000;stop-opacity:1"
             offset="1" />
        </linearGradient>
        <ellipse
           cx="203.617"
           cy="495.98801"
           rx="80.542"
           ry="59.682999"
           id="ellipse76"
           style="fill:url(#XMLID_1_) #000000" />
      </g>
    </mask>
    <linearGradient
       id="linearGradient5498">
      <stop
         id="stop5500"
         style="stop-color:#eeeeee;stop-opacity:1"
         offset="0" />
      <stop
         id="stop5502"
         style="stop-color:#eeeeee;stop-opacity:0"
         offset="1" />
    </linearGradient>
    <radialGradient
       cx="375.21439"
       cy="783.16357"
       r="300.5752"
       fx="375.21439"
       fy="783.16357"
       id="radialGradient29545"
       gradientUnits="userSpaceOnUse"
       gradientTransform="matrix(1.12563,0,0,1.12563,-41.8734,-39.5467)">
      <stop
         id="stop29547"
         style="stop-color:#eeeeef;stop-opacity:0.941176"
         offset="0.0112" />
      <stop
         id="stop29549"
         style="stop-color:#6193cf;stop-opacity:1"
         offset="0.29210001" />
      <stop
         id="stop29551"
         style="stop-color:#2c72c7;stop-opacity:1"
         offset="0.45750001" />
      <stop
         id="stop29553"
         style="stop-color:#0057ae;stop-opacity:1"
         offset="0.6767" />
      <stop
         id="stop29555"
         style="stop-color:#004d9a;stop-opacity:1"
         offset="0.8653" />
      <stop
         id="stop29557"
         style="stop-color:#00438a;stop-opacity:1"
         offset="1" />
    </radialGradient>
    <linearGradient
       x1="220.36789"
       y1="756.76105"
       x2="185.21225"
       y2="491.06723"
       id="linearGradient3928"
       xlink:href="#linearGradient5498"
       gradientUnits="userSpaceOnUse"
       gradientTransform="matrix(0.08428564,0,0,0.08428564,12.002509,12.007535)" />
    <linearGradient
       x1="247.47713"
       y1="274.88394"
       x2="130.31757"
       y2="580.54669"
       id="linearGradient3931"
       xlink:href="#linearGradient5498"
       gradientUnits="userSpaceOnUse"
       gradientTransform="matrix(0.08428564,0,0,0.08428564,12.002509,12.007535)" />
    <linearGradient
       x1="370.62177"
       y1="-309.6048"
       x2="370.20648"
       y2="458.38397"
       id="linearGradient3934"
       xlink:href="#linearGradient5498"
       gradientUnits="userSpaceOnUse"
       gradientTransform="matrix(0.08428564,0,0,0.08428564,12.002509,12.007535)" />
    <linearGradient
       x1="1508.4957"
       y1="-363.42487"
       x2="361.1441"
       y2="630.52039"
       id="linearGradient3937"
       xlink:href="#linearGradient5498"
       gradientUnits="userSpaceOnUse"
       gradientTransform="matrix(0.08428564,0,0,0.08428564,12.002509,12.007535)" />
    <linearGradient
       x1="331.49609"
       y1="790.51508"
       x2="409.85471"
       y2="688.75092"
       id="linearGradient3940"
       xlink:href="#XMLID_5_"
       gradientUnits="userSpaceOnUse"
       gradientTransform="matrix(0.09487444,0,0,0.09487444,8.473189,8.6743156)" />
    <linearGradient
       x1="319.186"
       y1="713.54639"
       x2="373.12509"
       y2="626.00598"
       id="linearGradient3943"
       xlink:href="#XMLID_5_"
       gradientUnits="userSpaceOnUse"
       gradientTransform="matrix(0.09487444,0,0,0.09487444,8.473189,8.6743156)" />
    <linearGradient
       x1="264.5405"
       y1="704.23578"
       x2="335.09619"
       y2="612.60522"
       id="linearGradient3946"
       xlink:href="#XMLID_5_"
       gradientUnits="userSpaceOnUse"
       gradientTransform="matrix(0.09487444,0,0,0.09487444,8.473189,8.6743156)" />
    <linearGradient
       x1="237.20799"
       y1="684.01898"
       x2="328.18469"
       y2="565.86761"
       id="linearGradient3949"
       xlink:href="#XMLID_5_"
       gradientUnits="userSpaceOnUse"
       gradientTransform="matrix(0.09487444,0,0,0.09487444,8.473189,8.6743156)" />
    <linearGradient
       x1="220.9512"
       y1="634.63232"
       x2="278.14471"
       y2="560.35498"
       id="linearGradient3952"
       xlink:href="#XMLID_5_"
       gradientUnits="userSpaceOnUse"
       gradientTransform="matrix(0.09487444,0,0,0.09487444,8.473189,8.6743156)" />
    <linearGradient
       x1="429.84909"
       y1="815.45459"
       x2="480.12021"
       y2="643.30768"
       id="linearGradient3955"
       xlink:href="#XMLID_4_"
       gradientUnits="userSpaceOnUse"
       gradientTransform="matrix(-0.09487444,0,0,0.09487444,98.72485,8.6743156)" />
    <radialGradient
       cx="375.21439"
       cy="783.16357"
       r="300.5752"
       fx="375.21439"
       fy="783.16357"
       id="radialGradient3959"
       xlink:href="#radialGradient29545"
       gradientUnits="userSpaceOnUse"
       gradientTransform="matrix(0.09487444,0,0,0.09487444,8.473189,8.6743156)" />
    <radialGradient
       cx="663.91144"
       cy="649.22662"
       r="427.12018"
       fx="663.91144"
       fy="649.22662"
       id="radialGradient3972"
       xlink:href="#XMLID_22_"
       gradientUnits="userSpaceOnUse"
       gradientTransform="matrix(0.08428564,0,0,0.08428564,12.002509,12.007534)" />
    <linearGradient
       x1="13.1875"
       y1="48"
       x2="82.8125"
       y2="48"
       id="linearGradient3991"
       xlink:href="#linearGradient3985"
       gradientUnits="userSpaceOnUse"
       gradientTransform="matrix(0,1,-1,0,96,0)" />
    <linearGradient
       x1="45.447727"
       y1="92.539597"
       x2="45.447727"
       y2="7.0165396"
       id="ButtonShadow-0"
       gradientUnits="userSpaceOnUse"
       gradientTransform="matrix(1.0058652,0,0,0.994169,100,0)">
      <stop
         id="stop3750-8"
         style="stop-color:#000000;stop-opacity:1"
         offset="0" />
      <stop
         id="stop3752-5"
         style="stop-color:#000000;stop-opacity:0.58823532"
         offset="1" />
    </linearGradient>
    <linearGradient
       x1="32.251034"
       y1="6.1317081"
       x2="32.251034"
       y2="90.238609"
       id="linearGradient3780"
       xlink:href="#ButtonShadow-0"
       gradientUnits="userSpaceOnUse"
       gradientTransform="matrix(1.0238095,0,0,1.0119048,-1.1428571,-98.071429)" />
    <linearGradient
       x1="32.251034"
       y1="6.1317081"
       x2="32.251034"
       y2="90.238609"
       id="linearGradient3772"
       xlink:href="#ButtonShadow-0"
       gradientUnits="userSpaceOnUse"
       gradientTransform="matrix(1.0238095,0,0,1.0119048,-1.1428571,-98.071429)" />
    <linearGradient
       x1="32.251034"
       y1="6.1317081"
       x2="32.251034"
       y2="90.238609"
       id="linearGradient3725"
       xlink:href="#ButtonShadow-0"
       gradientUnits="userSpaceOnUse"
       gradientTransform="matrix(1.0238095,0,0,1.0119048,-1.1428571,-98.071429)" />
    <linearGradient
       x1="32.251034"
       y1="6.1317081"
       x2="32.251034"
       y2="90.238609"
       id="linearGradient3721"
       xlink:href="#ButtonShadow-0"
       gradientUnits="userSpaceOnUse"
       gradientTransform="translate(0,-97)" />
    <linearGradient
       x1="32.251034"
       y1="6.1317081"
       x2="32.251034"
       y2="90.238609"
       id="linearGradient3059"
       xlink:href="#ButtonShadow-0"
       gradientUnits="userSpaceOnUse"
       gradientTransform="matrix(1.0238095,0,0,1.0119048,-1.1428571,-98.071429)" />
    <linearGradient
       inkscape:collect="always"
       xlink:href="#ButtonShadow-0"
       id="linearGradient3112"
       gradientUnits="userSpaceOnUse"
       gradientTransform="matrix(1.0238095,0,0,1.0119048,-1.1428571,-98.071429)"
       x1="32.251034"
       y1="6.1317081"
       x2="32.251034"
       y2="90.238609" />
    <linearGradient
       inkscape:collect="always"
       xlink:href="#ButtonShadow-0"
       id="linearGradient3114"
       gradientUnits="userSpaceOnUse"
       gradientTransform="matrix(1.0238095,0,0,1.0119048,-1.1428571,-98.071429)"
       x1="32.251034"
       y1="6.1317081"
       x2="32.251034"
       y2="90.238609" />
    <linearGradient
       inkscape:collect="always"
       xlink:href="#ButtonShadow-0"
       id="linearGradient3116"
       gradientUnits="userSpaceOnUse"
       gradientTransform="matrix(1.0238095,0,0,1.0119048,-1.1428571,-98.071429)"
       x1="32.251034"
       y1="6.1317081"
       x2="32.251034"
       y2="90.238609" />
    <linearGradient
       inkscape:collect="always"
       xlink:href="#ButtonShadow-0"
       id="linearGradient3118"
       gradientUnits="userSpaceOnUse"
       gradientTransform="matrix(1.0238095,0,0,1.0119048,-1.1428571,-98.071429)"
       x1="32.251034"
       y1="6.1317081"
       x2="32.251034"
       y2="90.238609" />
    <linearGradient
       inkscape:collect="always"
       xlink:href="#ButtonShadow-0"
       id="linearGradient3122"
       gradientUnits="userSpaceOnUse"
       gradientTransform="matrix(1.0238095,0,0,1.0119048,-1.1428571,-98.071429)"
       x1="32.251034"
       y1="6.1317081"
       x2="32.251034"
       y2="90.238609" />
    <linearGradient
       inkscape:collect="always"
       xlink:href="#ButtonShadow-0"
       id="linearGradient3125"
       gradientUnits="userSpaceOnUse"
       gradientTransform="matrix(1.0238095,0,0,-1.0119048,-1.1428571,98.071429)"
       x1="32.251034"
       y1="6.1317081"
       x2="32.251034"
       y2="90.238609" />
    <linearGradient
       inkscape:collect="always"
       xlink:href="#ButtonShadow-0"
       id="linearGradient3128"
       gradientUnits="userSpaceOnUse"
       gradientTransform="matrix(1.0238095,0,0,-1.0119048,-1.1428571,98.071429)"
       x1="32.251034"
       y1="6.1317081"
       x2="32.251034"
       y2="90.238609" />
    <linearGradient
       inkscape:collect="always"
       xlink:href="#ButtonShadow-0"
       id="linearGradient3131"
       gradientUnits="userSpaceOnUse"
       gradientTransform="matrix(1.0238095,0,0,-1.0119048,-1.1428571,98.071429)"
       x1="32.251034"
       y1="6.1317081"
       x2="32.251034"
       y2="90.238609" />
  </defs>
  <metadata
     id="metadata2413">
    <rdf:RDF>
      <cc:Work
         rdf:about="">
        <dc:format>image/svg+xml</dc:format>
        <dc:type
           rdf:resource="http://purl.org/dc/dcmitype/StillImage" />
        <dc:title></dc:title>
      </cc:Work>
    </rdf:RDF>
  </metadata>
  <g
     id="layer2"
     style="display:none">
    <rect
       width="86"
       height="85"
       rx="6"
       ry="6"
       x="5"
       y="7"
       id="rect3745"
       style="opacity:0.9;fill:url(#ButtonShadow);fill-opacity:1;fill-rule:nonzero;stroke:none;filter:url(#filter3174)" />
  </g>
  <rect
     style="fill:#bf0e0e;fill-opacity:1;fill-rule:nonzero;stroke:none;display:inline"
     id="rect3716"
     transform="scale(1,-1)"
     y="-91"
     x="6"
     ry="0"
     rx="6"
     height="84"
     width="84" />
  <path
     inkscape:connector-curvature="0"
     id="path3881"
     d="m 48.016069,17.71875 c -11.707878,0 -21.211589,13.949379 -21.211589,31.160467 0,17.211088 9.503711,31.160466 21.211589,31.160466 11.707879,0 21.179451,-13.949378 21.179451,-31.160466 0,-17.211088 -9.471572,-31.160467 -21.179451,-31.160467 z m 0,5.305962 c 9.710325,0 17.579909,11.579906 17.579909,25.854505 0,14.274599 -7.869583,25.854505 -17.579909,25.854505 -9.710324,0 -17.579907,-11.579906 -17.579907,-25.854505 0,-14.274599 7.869583,-25.854505 17.579907,-25.854505 z"
     style="color:#000000;fill:#000000;fill-opacity:1;fill-rule:evenodd;stroke:none;stroke-width:0.92223984000000003;marker:none;visibility:visible;display:inline;overflow:visible;enable-background:accumulate;opacity:0.3" />
  <path
     style="color:#000000;fill:#efebeb;fill-opacity:1;fill-rule:evenodd;stroke:none;stroke-width:0.92223984;marker:none;visibility:visible;display:inline;overflow:visible;enable-background:accumulate"
     d="M 48.016069,17.71875 C 36.308191,17.71875 26.80448,31.274536 26.80448,48 c 0,16.725464 9.503711,30.28125 21.211589,30.28125 11.707879,0 21.179451,-13.555786 21.179451,-30.28125 0,-16.725464 -9.471572,-30.28125 -21.179451,-30.28125 z m 0,5.15625 c 9.710325,0 17.579909,11.25317 17.579909,25.125 0,13.87183 -7.869583,25.125 -17.579909,25.125 -9.710324,0 -17.579907,-11.25317 -17.579907,-25.125 0,-13.87183 7.869583,-25.125 17.579907,-25.125 z"
     id="path3876"
     inkscape:connector-curvature="0" />
  <path
     inkscape:connector-curvature="0"
     id="path3109"
     d="m 47.916526,17.71875 c -10.358829,0 -18.767469,12.549938 -18.767469,28.034363 0,15.484424 8.40864,28.034363 18.767469,28.034363 10.358831,0 18.739035,-12.549939 18.739035,-28.034363 0,-15.484425 -8.380204,-28.034363 -18.739035,-28.034363 z m 0,4.773653 c 8.591447,0 15.554252,10.418178 15.554252,23.26071 0,12.842532 -6.962804,23.26071 -15.554252,23.26071 -8.591445,0 -15.554249,-10.418178 -15.554249,-23.26071 0,-12.842532 6.962804,-23.26071 15.554249,-23.26071 z"
     style="color:#000000;fill:#efebeb;fill-opacity:1;fill-rule:evenodd;stroke:none;stroke-width:0.92223984;marker:none;visibility:visible;display:inline;overflow:visible;enable-background:accumulate" />
  <path
     inkscape:connector-curvature="0"
     id="path3891"
     d="m 76.990802,63.968693 c -0.479371,0 -0.959021,0.0566 -1.430664,0.179443 l -0.756131,2.374716 0,0.03317 c -0.274239,0.138265 -0.543003,0.293899 -0.798095,0.48349 -0.253609,0.189299 -0.49111,0.411479 -0.719602,0.6482 l -0.02409,-0.01659 -1.969978,-0.340933 c -0.627737,0.938296 -1.120617,2.025295 -1.436877,3.196602 l 1.218507,2.046761 0.02015,0.01268 c -0.08434,0.750363 -0.08161,1.516142 0.0042,2.268846 l -0.02483,0.01659 -1.219003,2.051738 c 0.155081,0.585555 0.351097,1.152669 0.590604,1.688266 0.239506,0.537743 0.52155,1.041822 0.836175,1.508433 l 1.980857,-0.342786 0.02481,-0.01659 c 0.460172,0.471975 0.971567,0.857501 1.516921,1.139399 l 0,0.02829 0.760791,2.386717 c 0.942181,0.231451 1.915859,0.223059 2.858219,-0.01073 l 0.757684,-2.376668 0,-0.03122 c 0.272503,-0.137583 0.539806,-0.292924 0.793432,-0.480855 0.255091,-0.190958 0.494526,-0.414994 0.724267,-0.652593 l 0.02409,0.0166 1.967645,0.340932 c 0.628125,-0.941319 1.120377,-2.027246 1.436884,-3.199333 l -1.216961,-2.043151 -0.02015,-0.01463 c 0.08448,-0.749972 0.082,-1.5178 -0.0036,-2.267772 l 0.02482,-0.0166 1.217735,-2.047542 c -0.154903,-0.585746 -0.349452,-1.153836 -0.588984,-1.68953 -0.23953,-0.537548 -0.522933,-1.040457 -0.837724,-1.507067 l -1.979306,0.341712 -0.02486,0.01756 C 80.237767,67.222859 79.725948,66.836359 79.18083,66.555634 l -7.55e-4,-0.0283 -0.759238,-2.383691 c -0.471583,-0.115818 -0.950509,-0.172315 -1.429881,-0.170364 z m -7.53e-4,3.742353 c 1.145895,0 2.285309,0.965218 3.096013,2.013968 0.810704,1.048361 1.28301,2.519617 1.28301,4.001802 0,1.482184 -0.142638,3.15772 -0.953343,4.20608 -0.810704,1.048555 -2.279785,2.012991 -3.425681,2.012894 -1.145895,0 -2.668622,-0.863711 -3.478293,-1.912268 -0.80967,-1.048361 -0.896069,-2.824717 -0.896069,-4.306706 0,-1.48199 0.471011,-2.953441 1.280681,-4.001802 0.809671,-1.04875 1.947786,-2.013871 3.093682,-2.013968 z"
     style="opacity:0.3;fill:#000000;fill-opacity:1;fill-rule:evenodd;stroke:none"
     sodipodi:nodetypes="cccccccccccccccccccccccccccccccccccccccccccccscccscc" />
  <path
     sodipodi:nodetypes="cccccccccccccccccccccccccccccccccccccccccccccscccscc"
     style="fill:#ffffff;fill-opacity:1;fill-rule:evenodd;stroke:none"
     d="m 76.979584,63.710789 c -0.468906,0 -0.938085,0.0537 -1.399431,0.170262 l -0.739622,2.25321 0,0.03148 c -0.268253,0.131192 -0.531149,0.278863 -0.780671,0.458753 -0.248073,0.179612 -0.480389,0.390425 -0.703893,0.615034 l -0.02357,-0.01574 -1.92697,-0.323488 c -0.614032,0.890285 -1.096152,1.921667 -1.405507,3.033042 l 1.191904,1.942035 0.01971,0.01203 c -0.0825,0.711968 -0.07983,1.438565 0.0041,2.152756 l -0.02429,0.01574 -1.192389,1.946756 c 0.151695,0.555595 0.343432,1.093691 0.57771,1.601884 0.234277,0.510229 0.510163,0.988516 0.81792,1.431251 l 1.937611,-0.325247 0.02427,-0.01574 c 0.450126,0.447826 0.950356,0.813625 1.483804,1.081099 l 0,0.02685 0.744181,2.264598 c 0.921612,0.219609 1.874032,0.211646 2.795819,-0.01018 l 0.741143,-2.255061 0,-0.02962 c 0.266553,-0.130543 0.52802,-0.277936 0.776109,-0.456253 0.249523,-0.181185 0.48373,-0.393758 0.708455,-0.619199 l 0.02357,0.01574 1.924687,0.323487 c 0.614411,-0.893154 1.095916,-1.923518 1.405514,-3.035634 l -1.190393,-1.938609 -0.01971,-0.01389 c 0.08264,-0.711598 0.08021,-1.44014 -0.0035,-2.151738 l 0.02428,-0.01574 1.19115,-1.942776 c -0.151521,-0.555792 -0.341822,-1.094814 -0.576125,-1.603098 -0.234301,-0.510044 -0.511517,-0.98722 -0.819435,-1.429956 l -1.936094,0.324228 -0.02432,0.01667 c -0.44994,-0.447273 -0.950585,-0.813997 -1.483802,-1.08036 l -7.38e-4,-0.02685 -0.742663,-2.261727 C 77.917111,63.766891 77.44864,63.713285 76.979734,63.715137 z m -7.37e-4,3.55087 c 1.120878,0 2.504141,0.81952 3.297146,1.814608 0.793005,0.994719 0.986274,2.487008 0.986274,3.893355 0,1.406346 -0.139524,2.996149 -0.932529,3.990868 -0.793005,0.994905 -2.230013,1.909994 -3.350892,1.909902 -1.120878,0 -2.610361,-0.819519 -3.402355,-1.814424 -0.791994,-0.994718 -0.876507,-2.680185 -0.876507,-4.086346 0,-1.406162 0.192003,-3.043103 0.983997,-4.037821 0.791994,-0.99509 2.173987,-1.670049 3.294866,-1.670142 z"
     id="path4112"
     inkscape:connector-curvature="0" />
  <path
     transform="matrix(0.32075985,0,0,0.42951687,65.077986,56.662894)"
     d="m 41.845195,39.184326 a 4.6895475,4.6895475 0 1 1 -9.379095,0 4.6895475,4.6895475 0 1 1 9.379095,0 z"
     sodipodi:ry="4.6895475"
     sodipodi:rx="4.6895475"
     sodipodi:cy="39.184326"
     sodipodi:cx="37.155647"
     id="path3893"
     style="opacity:0.3;fill:#000000;fill-opacity:1;fill-rule:evenodd;stroke:none"
     sodipodi:type="arc" />
  <path
     sodipodi:type="arc"
     style="fill:#ffffff;fill-opacity:1;fill-rule:evenodd;stroke:none"
     id="path3143"
     sodipodi:cx="37.155647"
     sodipodi:cy="39.184326"
     sodipodi:rx="4.6895475"
     sodipodi:ry="4.6895475"
     d="m 41.845195,39.184326 a 4.6895475,4.6895475 0 1 1 -9.379095,0 4.6895475,4.6895475 0 1 1 9.379095,0 z"
     transform="matrix(0.32075985,0,0,0.45101414,65.062225,55.296645)" />
</svg>
