<?xml version="1.0" encoding="UTF-8" standalone="no"?>
<!-- Created with Inkscape (http://www.inkscape.org/) -->

<svg
   xmlns:dc="http://purl.org/dc/elements/1.1/"
   xmlns:cc="http://creativecommons.org/ns#"
   xmlns:rdf="http://www.w3.org/1999/02/22-rdf-syntax-ns#"
   xmlns:svg="http://www.w3.org/2000/svg"
   xmlns="http://www.w3.org/2000/svg"
   xmlns:xlink="http://www.w3.org/1999/xlink"
   xmlns:sodipodi="http://sodipodi.sourceforge.net/DTD/sodipodi-0.dtd"
   xmlns:inkscape="http://www.inkscape.org/namespaces/inkscape"
   version="1.0"
   width="96"
   height="96"
   id="svg2408"
   inkscape:version="0.48.4 r9939"
   sodipodi:docname="pidgin.svg">
  <sodipodi:namedview
     pagecolor="#ffffff"
     bordercolor="#666666"
     borderopacity="1"
     objecttolerance="10"
     gridtolerance="10"
     guidetolerance="10"
     inkscape:pageopacity="0"
     inkscape:pageshadow="2"
     inkscape:window-width="1680"
     inkscape:window-height="991"
     id="namedview63"
     showgrid="false"
     inkscape:zoom="3.6898866"
     inkscape:cx="136.26286"
     inkscape:cy="21.479014"
     inkscape:window-x="0"
     inkscape:window-y="-3"
     inkscape:window-maximized="1"
     inkscape:current-layer="svg2408" />
  <defs
     id="defs2410">
    <linearGradient
       x1="45.447727"
       y1="92.539597"
       x2="45.447727"
       y2="7.0165396"
       id="ButtonShadow"
       gradientUnits="userSpaceOnUse"
       gradientTransform="scale(1.0058652,0.994169)">
      <stop
         id="stop3750"
         style="stop-color:#000000;stop-opacity:1"
         offset="0" />
      <stop
         id="stop3752"
         style="stop-color:#000000;stop-opacity:0.58823532"
         offset="1" />
    </linearGradient>
    <linearGradient
       id="linearGradient3737">
      <stop
         id="stop3739"
         style="stop-color:#ffffff;stop-opacity:1"
         offset="0" />
      <stop
         id="stop3741"
         style="stop-color:#ffffff;stop-opacity:0"
         offset="1" />
    </linearGradient>
    <linearGradient
       id="linearGradient3700">
      <stop
         id="stop3702"
         style="stop-color:#2276c5;stop-opacity:1"
         offset="0" />
      <stop
         id="stop3704"
         style="stop-color:#68baf4;stop-opacity:1"
         offset="1" />
    </linearGradient>
    <filter
       color-interpolation-filters="sRGB"
       id="filter3174">
      <feGaussianBlur
         id="feGaussianBlur3176"
         stdDeviation="1.71" />
    </filter>
    <linearGradient
       x1="48"
       y1="20.220806"
       x2="48"
       y2="138.66119"
       id="linearGradient3613"
       xlink:href="#linearGradient3737"
       gradientUnits="userSpaceOnUse" />
    <clipPath
       id="clipPath3613">
      <rect
         width="84"
         height="84"
         rx="6"
         ry="6"
         x="6"
         y="6"
         id="rect3615"
         style="fill:#ffffff;fill-opacity:1;fill-rule:nonzero;stroke:none" />
    </clipPath>
    <linearGradient
       x1="48"
       y1="90"
       x2="48"
       y2="5.9877172"
       id="linearGradient3151"
       xlink:href="#linearGradient3700"
       gradientUnits="userSpaceOnUse"
       gradientTransform="translate(-110,0)" />
    <linearGradient
       x1="36.357143"
       y1="6"
       x2="36.357143"
       y2="63.893143"
       id="linearGradient3153"
       xlink:href="#linearGradient3737"
       gradientUnits="userSpaceOnUse"
       gradientTransform="translate(-110,0)" />
    <radialGradient
       cx="48"
       cy="90.171875"
       r="42"
       fx="48"
       fy="90.171875"
       id="radialGradient3155"
       xlink:href="#linearGradient3737"
       gradientUnits="userSpaceOnUse"
       gradientTransform="matrix(1.1573129,0,0,0.99590774,-117.55102,0.19713193)" />
    <linearGradient
       x1="10.31979"
       y1="21"
       x2="10.31979"
       y2="0.99929649"
       id="ButtonColor"
       gradientUnits="userSpaceOnUse">
      <stop
         id="stop3189"
         style="stop-color:#892a77;stop-opacity:1"
         offset="0" />
      <stop
         id="stop3191"
         style="stop-color:#c16bae;stop-opacity:1"
         offset="1" />
    </linearGradient>
    <linearGradient
       x1="48"
       y1="90"
       x2="48"
       y2="5.9877172"
       id="linearGradient3948"
       xlink:href="#ButtonColor"
       gradientUnits="userSpaceOnUse" />
    <linearGradient
       x1="44"
       y1="6"
       x2="44"
       y2="64.215118"
       id="linearGradient3967"
       xlink:href="#linearGradient3737"
       gradientUnits="userSpaceOnUse" />
    <radialGradient
       cx="48"
       cy="72"
       r="42"
       fx="48"
       fy="72"
       id="radialGradient3982"
       xlink:href="#linearGradient3737"
       gradientUnits="userSpaceOnUse"
       gradientTransform="matrix(1.1428571,0,0,0.95238095,-6.8571426,3.4285712)" />
    <linearGradient
       x1="48"
       y1="90"
       x2="48"
       y2="5.9877172"
       id="linearGradient3989"
       xlink:href="#ButtonShadow"
       gradientUnits="userSpaceOnUse"
       gradientTransform="translate(0,1)" />
    <linearGradient
       x1="48"
       y1="90.868095"
       x2="48"
       y2="5.9877172"
       id="linearGradient4001"
       xlink:href="#ButtonShadow"
       gradientUnits="userSpaceOnUse"
       gradientTransform="translate(-1,1)" />
    <linearGradient
       x1="48"
       y1="90.868095"
       x2="48"
       y2="5.9877172"
       id="linearGradient4009"
       xlink:href="#ButtonShadow"
       gradientUnits="userSpaceOnUse"
       gradientTransform="translate(-1,1)" />
    <linearGradient
       x1="48"
       y1="90.868095"
       x2="48"
       y2="5.9877172"
       id="linearGradient4023"
       xlink:href="#ButtonShadow"
       gradientUnits="userSpaceOnUse"
       gradientTransform="translate(-1,1)" />
    <linearGradient
       x1="48"
       y1="90.868095"
       x2="48"
       y2="5.9877172"
       id="linearGradient4031"
       xlink:href="#ButtonShadow"
       gradientUnits="userSpaceOnUse"
       gradientTransform="translate(-1,1)" />
    <linearGradient
       id="linearGradient3249">
      <stop
         id="stop3251"
         style="stop-color:#ffffff;stop-opacity:1"
         offset="0" />
      <stop
         id="stop3253"
         style="stop-color:#ffffff;stop-opacity:0"
         offset="1" />
    </linearGradient>
    <linearGradient
       x1="55.530148"
       y1="-20.940042"
       x2="55.530148"
       y2="55.140068"
       id="linearGradient2890"
       xlink:href="#linearGradient3249"
       gradientUnits="userSpaceOnUse"
       gradientTransform="matrix(0.69844891,0,0,0.69844891,3.299249,3.2861578)" />
    <filter
       x="-0.19410552"
       y="-0.19410552"
       width="1.388211"
       height="1.388211"
       color-interpolation-filters="sRGB"
       id="filter4055">
      <feGaussianBlur
         id="feGaussianBlur4057"
         stdDeviation="5.3379019" />
    </filter>
    <radialGradient
       inkscape:collect="always"
       xlink:href="#linearGradient3737"
       id="radialGradient3034"
       gradientUnits="userSpaceOnUse"
       gradientTransform="matrix(1.1573129,0,0,0.99590774,-117.55102,0.19713193)"
       cx="48"
       cy="90.171875"
       fx="48"
       fy="90.171875"
       r="42" />
    <linearGradient
       inkscape:collect="always"
       xlink:href="#linearGradient3737"
       id="linearGradient3037"
       gradientUnits="userSpaceOnUse"
       gradientTransform="translate(-110,0)"
       x1="36.357143"
       y1="6"
       x2="36.357143"
       y2="63.893143" />
    <linearGradient
       inkscape:collect="always"
       xlink:href="#linearGradient3700"
       id="linearGradient3040"
       gradientUnits="userSpaceOnUse"
       gradientTransform="translate(-110,0)"
       x1="48"
       y1="90"
       x2="48"
       y2="5.9877172" />
  </defs>
  <metadata
     id="metadata2413">
    <rdf:RDF>
      <cc:Work
         rdf:about="">
        <dc:format>image/svg+xml</dc:format>
        <dc:type
           rdf:resource="http://purl.org/dc/dcmitype/StillImage" />
        <dc:title />
      </cc:Work>
    </rdf:RDF>
  </metadata>
  <g
     id="layer2"
     style="display:none">
    <rect
       width="86"
       height="85"
       rx="6"
       ry="6"
       x="5"
       y="7"
       id="rect3745"
       style="opacity:0.9;fill:url(#ButtonShadow);fill-opacity:1;fill-rule:nonzero;stroke:none;filter:url(#filter3174)" />
  </g>
  <path
     style="fill:#a84e96;fill-opacity:1;fill-rule:nonzero;stroke:none"
     id="rect2419"
     inkscape:connector-curvature="0"
     d="M 12,6 C 8.676,6 6,8.676 6,12 l 0,56 c 0,3.324 2.676,6 6,6 l 12,0 -3,16 23,-16 40,0 c 3.324,0 6,-2.676 6,-6 L 90,12 C 90,8.676 87.324,6 84,6 L 12,6 z" />
  <path
     style="opacity:0.5;fill:url(#linearGradient3037);fill-opacity:1;fill-rule:nonzero;stroke:none"
     id="path3147"
     inkscape:connector-curvature="0"
     d="m -98,6 c -3.324,0 -6,2.676 -6,6 l 0,2 0,68 0,2 c 0,0.334721 0.0413,0.6507 0.0937,0.96875 0.0487,0.295596 0.097,0.596915 0.1875,0.875 0.01,0.03038 0.0209,0.0636 0.0312,0.09375 0.0989,0.287771 0.23488,0.547452 0.375,0.8125 0.14459,0.273507 0.31562,0.535615 0.5,0.78125 0.18438,0.245635 0.37378,0.473472 0.59375,0.6875 0.43995,0.428056 0.94291,0.814526 1.5,1.09375 0.27854,0.139612 0.57347,0.246947 0.875,0.34375 -0.2562,-0.100222 -0.48671,-0.236272 -0.71875,-0.375 -0.007,-0.0044 -0.0239,0.0045 -0.0312,0 -0.0319,-0.0193 -0.0623,-0.04251 -0.0937,-0.0625 -0.1204,-0.0767 -0.23102,-0.163513 -0.34375,-0.25 -0.10617,-0.0808 -0.21328,-0.161112 -0.3125,-0.25 -0.17793,-0.161433 -0.34746,-0.345388 -0.5,-0.53125 -0.10758,-0.130255 -0.21839,-0.265285 -0.3125,-0.40625 -0.0251,-0.03838 -0.0384,-0.08587 -0.0625,-0.125 -0.0648,-0.103032 -0.13023,-0.204517 -0.1875,-0.3125 -0.10101,-0.194706 -0.20568,-0.415701 -0.28125,-0.625 -0.008,-0.02181 -0.0236,-0.04055 -0.0312,-0.0625 -0.0318,-0.09195 -0.0358,-0.186831 -0.0625,-0.28125 -0.0303,-0.106618 -0.0704,-0.203031 -0.0937,-0.3125 C -102.94788,85.720988 -103,85.364295 -103,85 l 0,-2 0,-68 0,-2 c 0,-2.781848 2.21815,-5 5,-5 l 2,0 68,0 2,0 c 2.781848,0 5,2.218152 5,5 l 0,2 0,68 0,2 c 0,0.364295 -0.05212,0.720988 -0.125,1.0625 -0.04415,0.206893 -0.08838,0.397658 -0.15625,0.59375 -0.0077,0.02195 -0.0233,0.04069 -0.03125,0.0625 -0.06274,0.173739 -0.138383,0.367449 -0.21875,0.53125 -0.04158,0.0828 -0.07904,0.169954 -0.125,0.25 -0.0546,0.09721 -0.126774,0.18835 -0.1875,0.28125 -0.09411,0.140965 -0.204921,0.275995 -0.3125,0.40625 -0.143174,0.17445 -0.303141,0.346998 -0.46875,0.5 -0.01117,0.0102 -0.01998,0.02115 -0.03125,0.03125 -0.138386,0.125556 -0.285091,0.234436 -0.4375,0.34375 -0.102571,0.07315 -0.204318,0.153364 -0.3125,0.21875 -0.0074,0.0045 -0.02384,-0.0044 -0.03125,0 -0.232039,0.138728 -0.462548,0.274778 -0.71875,0.375 0.301527,-0.0968 0.596455,-0.204138 0.875,-0.34375 0.55709,-0.279224 1.060053,-0.665694 1.5,-1.09375 0.219973,-0.214028 0.409366,-0.441865 0.59375,-0.6875 0.184384,-0.245635 0.355408,-0.507743 0.5,-0.78125 0.14012,-0.265048 0.276135,-0.524729 0.375,-0.8125 0.01041,-0.03078 0.02133,-0.06274 0.03125,-0.09375 0.09046,-0.278085 0.1388,-0.579404 0.1875,-0.875 C -20.04135,84.6507 -20,84.334721 -20,84 l 0,-2 0,-68 0,-2 c 0,-3.324 -2.676,-6 -6,-6 l -72,0 z" />
  <path
     style="opacity:0.2;fill:url(#radialGradient3034);fill-opacity:1;fill-rule:nonzero;stroke:none"
     id="path3149"
     inkscape:connector-curvature="0"
     d="m -98,90 c -3.324,0 -6,-2.676 -6,-6 l 0,-2 0,-68 0,-2 c 0,-0.334721 0.0413,-0.6507 0.0937,-0.96875 0.0487,-0.295596 0.097,-0.596915 0.1875,-0.875 0.01,-0.03038 0.0209,-0.0636 0.0312,-0.09375 0.0989,-0.287771 0.23488,-0.547452 0.375,-0.8125 0.14459,-0.273507 0.31562,-0.535615 0.5,-0.78125 0.18438,-0.245635 0.37378,-0.473472 0.59375,-0.6875 0.43995,-0.428056 0.94291,-0.814526 1.5,-1.09375 0.27854,-0.139612 0.57347,-0.246947 0.875,-0.34375 -0.2562,0.100222 -0.48671,0.236272 -0.71875,0.375 -0.007,0.0044 -0.0239,-0.0045 -0.0312,0 -0.0319,0.0193 -0.0623,0.04251 -0.0937,0.0625 -0.1204,0.0767 -0.23102,0.163513 -0.34375,0.25 -0.10617,0.0808 -0.21328,0.161112 -0.3125,0.25 -0.17793,0.161433 -0.34746,0.345388 -0.5,0.53125 -0.10758,0.130255 -0.21839,0.265285 -0.3125,0.40625 -0.0251,0.03838 -0.0384,0.08587 -0.0625,0.125 -0.0648,0.103032 -0.13023,0.204517 -0.1875,0.3125 -0.10101,0.194706 -0.20568,0.415701 -0.28125,0.625 -0.008,0.02181 -0.0236,0.04055 -0.0312,0.0625 -0.0318,0.09195 -0.0358,0.186831 -0.0625,0.28125 -0.0303,0.106618 -0.0704,0.203031 -0.0937,0.3125 C -102.94788,10.279012 -103,10.635705 -103,11 l 0,2 0,68 0,2 c 0,2.781848 2.21815,5 5,5 l 2,0 68,0 2,0 c 2.781848,0 5,-2.218152 5,-5 l 0,-2 0,-68 0,-2 c 0,-0.364295 -0.05212,-0.720988 -0.125,-1.0625 -0.04415,-0.206893 -0.08838,-0.397658 -0.15625,-0.59375 -0.0077,-0.02195 -0.0233,-0.04069 -0.03125,-0.0625 -0.06274,-0.173739 -0.138383,-0.367449 -0.21875,-0.53125 -0.04158,-0.0828 -0.07904,-0.169954 -0.125,-0.25 -0.0546,-0.09721 -0.126774,-0.18835 -0.1875,-0.28125 -0.09411,-0.140965 -0.204921,-0.275995 -0.3125,-0.40625 -0.143174,-0.17445 -0.303141,-0.346998 -0.46875,-0.5 -0.01117,-0.0102 -0.01998,-0.02115 -0.03125,-0.03125 -0.138386,-0.125556 -0.285091,-0.234436 -0.4375,-0.34375 -0.102571,-0.07315 -0.204318,-0.153364 -0.3125,-0.21875 -0.0074,-0.0045 -0.02384,0.0044 -0.03125,0 -0.232039,-0.138728 -0.462548,-0.274778 -0.71875,-0.375 0.301527,0.0968 0.596455,0.204138 0.875,0.34375 0.55709,0.279224 1.060053,0.665694 1.5,1.09375 0.219973,0.214028 0.409366,0.441865 0.59375,0.6875 0.184384,0.245635 0.355408,0.507743 0.5,0.78125 0.14012,0.265048 0.276135,0.524729 0.375,0.8125 0.01041,0.03078 0.02133,0.06274 0.03125,0.09375 0.09046,0.278085 0.1388,0.579404 0.1875,0.875 C -20.04135,11.3493 -20,11.665279 -20,12 l 0,2 0,68 0,2 c 0,3.324 -2.676,6 -6,6 l -72,0 z" />
  <g
     id="layer5"
     style="display:inline" />
  <g
     id="layer4">
    <path
       d="m 55.34375,16.03125 a 0.98129583,0.98129583 0 0 0 -0.625,1.53125 c 1.318089,1.911264 2.441453,3.774319 3.375,5.625 0.931287,1.846272 1.694337,3.733871 2.28125,5.625 a 0.98129583,0.98129583 0 0 0 0,0.03125 c 0.604803,1.896179 1.067057,3.810611 1.34375,5.8125 0.277172,1.989195 0.406243,4.115856 0.40625,6.34375 -7e-6,2.24494 -0.128836,4.367789 -0.40625,6.375 -0.276571,1.984763 -0.738519,3.883759 -1.34375,5.78125 a 0.98129583,0.98129583 0 0 0 0,0.03125 c -0.586504,1.889836 -1.350437,3.764775 -2.28125,5.59375 -0.934452,1.852501 -2.056535,3.727983 -3.375,5.65625 a 0.98129583,0.98129583 0 0 0 0.8125,1.53125 l 7.0625,0 a 0.98129583,0.98129583 0 0 0 0.8125,-0.40625 c 1.31433,-1.894704 2.446,-3.801319 3.40625,-5.6875 0.959392,-1.884546 1.756352,-3.824597 2.375,-5.8125 0.0029,-0.0092 -0.0028,-0.02208 0,-0.03125 0.631991,-1.986768 1.114621,-4.074524 1.40625,-6.21875 0.309535,-2.166855 0.437485,-4.426127 0.4375,-6.84375 -1.5e-5,-2.423077 -0.130341,-4.715556 -0.4375,-6.84375 -0.0014,-0.0103 0.0014,-0.02095 0,-0.03125 -0.292102,-2.133597 -0.776986,-4.195028 -1.40625,-6.15625 -0.0029,-0.0092 0.0029,-0.02204 0,-0.03125 -0.619053,-1.98902 -1.415127,-3.912874 -2.375,-5.78125 -0.960248,-1.886152 -2.091923,-3.792774 -3.40625,-5.6875 a 0.98129583,0.98129583 0 0 0 -0.8125,-0.40625 l -7.0625,0 a 0.98129583,0.98129583 0 0 0 -0.1875,0 z m -29.53125,10 A 0.98129583,0.98129583 0 0 0 25.03125,27 l 0,8 A 0.98129583,0.98129583 0 0 0 26,35.96875 l 8,0 A 0.98129583,0.98129583 0 0 0 34.96875,35 l 0,-8 A 0.98129583,0.98129583 0 0 0 34,26.03125 l -8,0 a 0.98129583,0.98129583 0 0 0 -0.1875,0 z m 14,11 A 0.98129583,0.98129583 0 0 0 39.03125,38 l 0,6 A 0.98129583,0.98129583 0 0 0 40,44.96875 l 14,0 A 0.98129583,0.98129583 0 0 0 54.96875,44 l 0,-6 A 0.98129583,0.98129583 0 0 0 54,37.03125 l -14,0 a 0.98129583,0.98129583 0 0 0 -0.1875,0 z m -13.875,9 A 0.98129583,0.98129583 0 0 0 25.15625,47 l 0,7.90625 A 0.98129583,0.98129583 0 0 0 26.125,55.875 l 2.40625,0 c -0.03863,0.170484 -0.02553,0.289326 -0.09375,0.5625 -0.164541,0.65879 -0.43833,1.33793 -0.75,2.03125 -0.315658,0.702141 -0.644766,1.394829 -1.0625,2.03125 a 0.98129583,0.98129583 0 0 0 -0.03125,0 C 26.183697,61.150723 25.744034,61.771899 25.25,62.375 A 0.98129583,0.98129583 0 0 0 26,63.96875 l 5.03125,0 a 0.98129583,0.98129583 0 0 0 0.78125,-0.375 c 0.47532,-0.649895 0.948498,-1.341082 1.34375,-2.09375 0.39691,-0.755885 0.727819,-1.607698 1,-2.5 0.27378,-0.878554 0.460754,-1.80261 0.59375,-2.8125 0.0014,-0.01075 -0.0014,-0.02049 0,-0.03125 0.152087,-1.03292 0.218738,-2.182585 0.21875,-3.40625 l 0,-5.75 A 0.98129583,0.98129583 0 0 0 34,46.03125 l -7.875,0 a 0.98129583,0.98129583 0 0 0 -0.1875,0 z"
       id="path4082"
       style="font-size:24px;font-style:normal;font-variant:normal;font-weight:bold;font-stretch:normal;text-align:start;line-height:125%;writing-mode:lr-tb;text-anchor:start;opacity:0.15;fill:#5e1a50;fill-opacity:1;stroke:none;font-family:Liberation Sans;-inkscape-font-specification:Abandoned Bitplane Bold" />
    <path
       d="m 55.53125,17 c 1.341014,1.944507 2.482024,3.855847 3.4375,5.75 0.95547,1.894214 1.740289,3.836802 2.34375,5.78125 0.620215,1.944497 1.090027,3.938208 1.375,6 0.284957,2.045067 0.406243,4.205799 0.40625,6.46875 -7e-6,2.279738 -0.121291,4.438195 -0.40625,6.5 -0.284973,2.045055 -0.754785,4.024281 -1.375,5.96875 -0.603461,1.944474 -1.38828,3.872575 -2.34375,5.75 -0.955476,1.89418 -2.096486,3.820004 -3.4375,5.78125 l 7.0625,0 c 1.290721,-1.86067 2.40503,-3.718609 3.34375,-5.5625 0.938701,-1.843902 1.70903,-3.743029 2.3125,-5.6875 0.620206,-1.944472 1.09002,-3.967159 1.375,-6.0625 0.301712,-2.112092 0.437485,-4.338435 0.4375,-6.71875 C 70.062485,38.5717 69.926714,36.328593 69.625,34.25 69.34002,32.154683 68.870206,30.146483 68.25,28.21875 67.64653,26.274304 66.876201,24.389664 65.9375,22.5625 64.99878,20.718635 63.884471,18.860695 62.59375,17 l -7.0625,0 z M 26,27 l 0,8 8,0 0,-8 -8,0 z m 14,11 0,6 14,0 0,-6 -14,0 z m -13.875,9 0,7.90625 3.53125,0 c -9e-6,0.713489 -0.09861,1.049922 -0.28125,1.78125 -0.182657,0.731322 -0.452493,1.45617 -0.78125,2.1875 -0.328778,0.731324 -0.699635,1.460593 -1.15625,2.15625 C 26.999138,61.726898 26.51141,62.375687 26,63 l 5.03125,0 c 0.45661,-0.624313 0.884691,-1.273102 1.25,-1.96875 0.365285,-0.695657 0.681778,-1.474156 0.9375,-2.3125 0.255694,-0.820518 0.434641,-1.706455 0.5625,-2.6875 C 33.927349,55.050201 33.999988,53.945093 34,52.75 L 34,47 26.125,47 z"
       inkscape:connector-curvature="0"
       id="path4078"
       style="font-size:24px;font-style:normal;font-variant:normal;font-weight:bold;font-stretch:normal;text-align:start;line-height:125%;writing-mode:lr-tb;text-anchor:start;opacity:0.3;fill:#5e1a50;fill-opacity:1;stroke:none;font-family:Liberation Sans;-inkscape-font-specification:Abandoned Bitplane Bold" />
    <path
       d="m 55.53125,16 c 1.341014,1.944507 2.482024,3.855847 3.4375,5.75 0.95547,1.894214 1.740289,3.836802 2.34375,5.78125 0.620215,1.944497 1.090027,3.938208 1.375,6 0.284957,2.045067 0.406243,4.205799 0.40625,6.46875 -7e-6,2.279738 -0.121291,4.438195 -0.40625,6.5 -0.284973,2.045055 -0.754785,4.024281 -1.375,5.96875 -0.603461,1.944474 -1.38828,3.872575 -2.34375,5.75 -0.955476,1.89418 -2.096486,3.820004 -3.4375,5.78125 l 7.0625,0 c 1.290721,-1.86067 2.40503,-3.718609 3.34375,-5.5625 0.938701,-1.843902 1.70903,-3.743029 2.3125,-5.6875 0.620206,-1.944472 1.09002,-3.967159 1.375,-6.0625 0.301712,-2.112092 0.437485,-4.338435 0.4375,-6.71875 C 70.062485,37.5717 69.926714,35.328593 69.625,33.25 69.34002,31.154683 68.870206,29.146483 68.25,27.21875 67.64653,25.274304 66.876201,23.389664 65.9375,21.5625 64.99878,19.718635 63.884471,17.860695 62.59375,16 l -7.0625,0 z M 26,26 l 0,8 8,0 0,-8 -8,0 z m 14,11 0,6 14,0 0,-6 -14,0 z m -13.875,9 0,7.90625 3.53125,0 c -9e-6,0.713489 -0.09861,1.049922 -0.28125,1.78125 -0.182657,0.731322 -0.452493,1.45617 -0.78125,2.1875 -0.328778,0.731324 -0.699635,1.460593 -1.15625,2.15625 C 26.999138,60.726898 26.51141,61.375687 26,62 l 5.03125,0 c 0.45661,-0.624313 0.884691,-1.273102 1.25,-1.96875 0.365285,-0.695657 0.681778,-1.474156 0.9375,-2.3125 0.255694,-0.820518 0.434641,-1.706455 0.5625,-2.6875 C 33.927349,54.050201 33.999988,52.945093 34,51.75 L 34,46 26.125,46 z"
       inkscape:connector-curvature="0"
       id="path4075"
       style="font-size:24px;font-style:normal;font-variant:normal;font-weight:bold;font-stretch:normal;text-align:start;line-height:125%;writing-mode:lr-tb;text-anchor:start;fill:#ffffff;fill-opacity:1;stroke:none;font-family:Liberation Sans;-inkscape-font-specification:Abandoned Bitplane Bold" />
  </g>
</svg>
