<?xml version="1.0" encoding="UTF-8" standalone="no"?>
<!-- Created with Inkscape (http://www.inkscape.org/) -->

<svg
   xmlns:dc="http://purl.org/dc/elements/1.1/"
   xmlns:cc="http://creativecommons.org/ns#"
   xmlns:rdf="http://www.w3.org/1999/02/22-rdf-syntax-ns#"
   xmlns:svg="http://www.w3.org/2000/svg"
   xmlns="http://www.w3.org/2000/svg"
   xmlns:xlink="http://www.w3.org/1999/xlink"
   xmlns:sodipodi="http://sodipodi.sourceforge.net/DTD/sodipodi-0.dtd"
   xmlns:inkscape="http://www.inkscape.org/namespaces/inkscape"
   version="1.0"
   width="96"
   height="96"
   id="svg2408"
   inkscape:version="0.48.4 r9939"
   sodipodi:docname="preferences-desktop-accessibility.svg">
  <sodipodi:namedview
     pagecolor="#ffffff"
     bordercolor="#666666"
     borderopacity="1"
     objecttolerance="10"
     gridtolerance="10"
     guidetolerance="10"
     inkscape:pageopacity="0"
     inkscape:pageshadow="2"
     inkscape:window-width="618"
     inkscape:window-height="449"
     id="namedview62"
     showgrid="false"
     inkscape:zoom="3.3474369"
     inkscape:cx="81.953398"
     inkscape:cy="47.162871"
     inkscape:window-x="151"
     inkscape:window-y="84"
     inkscape:window-maximized="0"
     inkscape:current-layer="svg2408" />
  <defs
     id="defs2410">
    <linearGradient
       id="ButtonColor">
      <stop
         id="stop3189"
         style="stop-color:#1d5282;stop-opacity:1"
         offset="0" />
      <stop
         id="stop3191"
         style="stop-color:#568ec2;stop-opacity:1"
         offset="1" />
    </linearGradient>
    <linearGradient
       x1="45.447727"
       y1="92.539597"
       x2="45.447727"
       y2="7.0165396"
       id="ButtonShadow"
       gradientUnits="userSpaceOnUse"
       gradientTransform="scale(1.0058652,0.994169)">
      <stop
         id="stop3750"
         style="stop-color:#000000;stop-opacity:1"
         offset="0" />
      <stop
         id="stop3752"
         style="stop-color:#000000;stop-opacity:0.58823532"
         offset="1" />
    </linearGradient>
    <linearGradient
       id="linearGradient3737">
      <stop
         id="stop3739"
         style="stop-color:#ffffff;stop-opacity:1"
         offset="0" />
      <stop
         id="stop3741"
         style="stop-color:#ffffff;stop-opacity:0"
         offset="1" />
    </linearGradient>
    <linearGradient
       x1="48"
       y1="90"
       x2="48"
       y2="5.9877172"
       id="linearGradient3706"
       xlink:href="#ButtonColor"
       gradientUnits="userSpaceOnUse" />
    <filter
       color-interpolation-filters="sRGB"
       id="filter3218">
      <feGaussianBlur
         id="feGaussianBlur3220"
         stdDeviation="1.71" />
    </filter>
    <linearGradient
       x1="124.39286"
       y1="6"
       x2="124.39286"
       y2="63.606895"
       id="linearGradient3230"
       xlink:href="#linearGradient3737"
       gradientUnits="userSpaceOnUse"
       gradientTransform="translate(-100,0)" />
    <linearGradient
       id="linearGradient3737-6">
      <stop
         id="stop3739-6"
         style="stop-color:#ffffff;stop-opacity:1"
         offset="0" />
      <stop
         id="stop3741-4"
         style="stop-color:#ffffff;stop-opacity:0"
         offset="1" />
    </linearGradient>
    <radialGradient
       cx="48"
       cy="90.171875"
       r="42"
       fx="48"
       fy="90.171875"
       id="radialGradient2874"
       xlink:href="#linearGradient3737-6"
       gradientUnits="userSpaceOnUse"
       gradientTransform="matrix(1.1573129,0,0,0.99590774,-7.551021,0.1971319)" />
    <linearGradient
       id="linearGradient3737-2">
      <stop
         id="stop3739-5"
         style="stop-color:#ffffff;stop-opacity:1"
         offset="0" />
      <stop
         id="stop3741-8"
         style="stop-color:#ffffff;stop-opacity:0"
         offset="1" />
    </linearGradient>
    <clipPath
       id="clipPath3613">
      <rect
         width="84"
         height="84"
         rx="6"
         ry="6"
         x="6"
         y="6"
         id="rect3615"
         style="fill:#ffffff;fill-opacity:1;fill-rule:nonzero;stroke:none" />
    </clipPath>
    <filter
       x="-0.192"
       y="-0.192"
       width="1.3839999"
       height="1.3839999"
       color-interpolation-filters="sRGB"
       id="filter3794">
      <feGaussianBlur
         id="feGaussianBlur3796"
         stdDeviation="5.28" />
    </filter>
    <linearGradient
       x1="48"
       y1="20.220806"
       x2="48"
       y2="138.66119"
       id="linearGradient2908"
       xlink:href="#linearGradient3737-2"
       gradientUnits="userSpaceOnUse" />
    <linearGradient
       x1="45.447727"
       y1="92.539597"
       x2="45.447727"
       y2="7.0165396"
       id="ButtonShadow-0"
       gradientUnits="userSpaceOnUse"
       gradientTransform="matrix(1.0058652,0,0,0.994169,100,0)">
      <stop
         id="stop3750-8"
         style="stop-color:#000000;stop-opacity:1"
         offset="0" />
      <stop
         id="stop3752-5"
         style="stop-color:#000000;stop-opacity:0.58823532"
         offset="1" />
    </linearGradient>
    <linearGradient
       x1="32.251034"
       y1="6.1317081"
       x2="32.251034"
       y2="90.238609"
       id="linearGradient3780"
       xlink:href="#ButtonShadow-0"
       gradientUnits="userSpaceOnUse"
       gradientTransform="matrix(1.0238095,0,0,1.0119048,-1.1428571,-98.071429)" />
    <linearGradient
       x1="32.251034"
       y1="6.1317081"
       x2="32.251034"
       y2="90.238609"
       id="linearGradient3772"
       xlink:href="#ButtonShadow-0"
       gradientUnits="userSpaceOnUse"
       gradientTransform="matrix(1.0238095,0,0,1.0119048,-1.1428571,-98.071429)" />
    <linearGradient
       x1="32.251034"
       y1="6.1317081"
       x2="32.251034"
       y2="90.238609"
       id="linearGradient3725"
       xlink:href="#ButtonShadow-0"
       gradientUnits="userSpaceOnUse"
       gradientTransform="matrix(1.0238095,0,0,1.0119048,-1.1428571,-98.071429)" />
    <linearGradient
       x1="32.251034"
       y1="6.1317081"
       x2="32.251034"
       y2="90.238609"
       id="linearGradient3721"
       xlink:href="#ButtonShadow-0"
       gradientUnits="userSpaceOnUse"
       gradientTransform="translate(0,-97)" />
    <linearGradient
       x1="32.251034"
       y1="6.1317081"
       x2="32.251034"
       y2="90.238609"
       id="linearGradient3071"
       xlink:href="#ButtonShadow-0"
       gradientUnits="userSpaceOnUse"
       gradientTransform="matrix(1.0238095,0,0,1.0119048,-1.1428571,-98.071429)" />
  </defs>
  <metadata
     id="metadata2413">
    <rdf:RDF>
      <cc:Work
         rdf:about="">
        <dc:format>image/svg+xml</dc:format>
        <dc:type
           rdf:resource="http://purl.org/dc/dcmitype/StillImage" />
        <dc:title></dc:title>
      </cc:Work>
    </rdf:RDF>
  </metadata>
  <g
     id="layer2"
     style="display:none">
    <rect
       width="86"
       height="85"
       rx="7"
       ry="7"
       x="5"
       y="7"
       id="rect3745"
       style="opacity:0.9;fill:url(#ButtonShadow);fill-opacity:1;fill-rule:nonzero;stroke:none;filter:url(#filter3218)" />
  </g>
  <g
     id="layer1">
    <rect
       width="84"
       height="84"
       rx="6"
       ry="0"
       x="6"
       y="6"
       id="rect2419"
       style="fill:#2d6394;fill-opacity:1;fill-rule:nonzero;stroke:none" />
    <path
       d="M 12,6 C 8.676,6 6,8.676 6,12 l 0,2 0,68 0,2 c 0,3.324 2.676,6 6,6 l 2,0 68,0 2,0 c 3.324,0 6,-2.676 6,-6 l 0,-2 0,-68 0,-2 C 90,8.676 87.324,6 84,6 L 82,6 14,6 12,6 z m 4,6 64,0 c 2.216,0 4,1.784 4,4 l 0,64 c 0,2.216 -1.784,4 -4,4 l -64,0 c -2.216,0 -4,-1.784 -4,-4 l 0,-64 c 0,-2.216 1.784,-4 4,-4 z"
       inkscape:connector-curvature="0"
       id="rect3312"
       style="opacity:0.69999999999999996;fill:#316798;fill-opacity:1;fill-rule:nonzero;stroke:none" />
    <g
       transform="translate(100,0)"
       id="g3716">
      <path
         d="m -84,12 c -2.216,0 -4,1.784 -4,4 l 0,64 c 0,2.216 1.784,4 4,4 l 64,0 c 2.216,0 4,-1.784 4,-4 l 0,-64 c 0,-2.216 -1.784,-4 -4,-4 l -64,0 z m 0,3.03125 64,0 c 0.587885,0 0.96875,0.380865 0.96875,0.96875 l 0,64 c 0,0.587885 -0.380865,0.96875 -0.96875,0.96875 l -64,0 c -0.587885,0 -0.96875,-0.380865 -0.96875,-0.96875 l 0,-64 c 0,-0.587885 0.380865,-0.96875 0.96875,-0.96875 z"
         inkscape:connector-curvature="0"
         id="path3703"
         style="opacity:0.05000000000000000;fill:#316798;fill-opacity:1;fill-rule:nonzero;stroke:none" />
      <path
         d="m -84,12 c -2.216,0 -4,1.784 -4,4 l 0,64 c 0,2.216 1.784,4 4,4 l 64,0 c 2.216,0 4,-1.784 4,-4 l 0,-64 c 0,-2.216 -1.784,-4 -4,-4 l -64,0 z m 0,1.9375 64,0 c 1.172336,0 2.0625,0.890164 2.0625,2.0625 l 0,64 c 0,1.172336 -0.890164,2.0625 -2.0625,2.0625 l -64,0 c -1.172336,0 -2.0625,-0.890164 -2.0625,-2.0625 l 0,-64 c 0,-1.172336 0.890164,-2.0625 2.0625,-2.0625 z"
         inkscape:connector-curvature="0"
         id="path3662"
         style="opacity:0.10000000000000001;fill:#316798;fill-opacity:1;fill-rule:nonzero;stroke:none" />
      <path
         d="m -84,12 c -2.216,0 -4,1.784 -4,4 l 0,64 c 0,2.216 1.784,4 4,4 l 64,0 c 2.216,0 4,-1.784 4,-4 l 0,-64 c 0,-2.216 -1.784,-4 -4,-4 l -64,0 z m 0,1.03125 64,0 c 1.664921,0 2.96875,1.303829 2.96875,2.96875 l 0,64 c 0,1.664921 -1.303829,2.96875 -2.96875,2.96875 l -64,0 c -1.664921,0 -2.96875,-1.303829 -2.96875,-2.96875 l 0,-64 c 0,-1.664921 1.303829,-2.96875 2.96875,-2.96875 z"
         inkscape:connector-curvature="0"
         id="path3636"
         style="opacity:0.22000001999999999;fill:#316798;fill-opacity:1;fill-rule:nonzero;stroke:none" />
    </g>
  </g>
  <g
     id="layer3" />
  <g
     id="g3811"
     transform="matrix(1.1717792,0,0,1.1717792,-15.670617,-7.9572905)">
    <g
       transform="matrix(1.0291893,0,0,1.0653594,-1.1248668,-1.5298788)"
       style="opacity:0.3;fill:#000000"
       id="g3037">
      <path
         inkscape:connector-curvature="0"
         id="path3039"
         d="M 10.4375,58.25 C 17.03125,52.854167 23.625,47.458333 30.21875,42.0625 29.186192,42.1243 28.151788,42.195687 27.119961,42.0871 26.172534,41.968628 25.220687,41.862486 24.285907,41.66084 23.216467,41.431707 22.120189,41.300783 21.09375,40.90625 20.109837,40.59993 19.191759,40.130232 18.25,39.71875 17.478739,39.322651 16.750647,38.857135 16.032081,38.371938 14.422501,37.307824 12.781665,36.284193 11.224516,35.14567 10.933885,34.857627 10.572157,34.663113 10.1875,34.53125 c 0.08333,7.90625 0.166667,15.8125 0.25,23.71875 z"
         inkscape:transform-center-y="0.072338711"
         inkscape:transform-center-x="-4.6330143"
         style="fill:#000000;fill-opacity:1;fill-rule:evenodd;stroke:none"
         transform="matrix(1.3744616,0,0,0.96862222,27.70574,-9.2259212)" />
      <rect
         ry="0"
         rx="1.8671002"
         y="23.407145"
         x="38.536949"
         height="45.706612"
         width="3.7342005"
         id="rect3041"
         style="fill:#000000;fill-opacity:1;fill-rule:evenodd;stroke:none" />
    </g>
    <g
       transform="matrix(1,0,0,1.0261438,0,-0.61195151)"
       id="g3033">
      <path
         inkscape:connector-curvature="0"
         transform="matrix(1.3744616,0,0,0.96862222,27.70574,-9.2259212)"
         style="fill:#ffffff;fill-opacity:1;fill-rule:evenodd;stroke:none"
         inkscape:transform-center-x="-4.6330143"
         inkscape:transform-center-y="0.072338711"
         d="M 10.4375,58.25 C 17.03125,52.854167 23.625,47.458333 30.21875,42.0625 29.186192,42.1243 28.151788,42.195687 27.119961,42.0871 26.172534,41.968628 25.220687,41.862486 24.285907,41.66084 23.216467,41.431707 22.120189,41.300783 21.09375,40.90625 20.109837,40.59993 19.191759,40.130232 18.25,39.71875 17.478739,39.322651 16.750647,38.857135 16.032081,38.371938 14.422501,37.307824 12.781665,36.284193 11.224516,35.14567 10.933885,34.857627 10.572157,34.663113 10.1875,34.53125 c 0.08333,7.90625 0.166667,15.8125 0.25,23.71875 z"
         id="path3027" />
      <rect
         style="fill:#ffffff;fill-opacity:1;fill-rule:evenodd;stroke:none"
         id="rect3029"
         width="3.7342005"
         height="45.706612"
         x="38.536949"
         y="23.407145"
         rx="1.8671002"
         ry="0" />
    </g>
  </g>
</svg>
