<?xml version="1.0" encoding="UTF-8" standalone="no"?>
<!-- Created with Inkscape (http://www.inkscape.org/) -->

<svg
   xmlns:dc="http://purl.org/dc/elements/1.1/"
   xmlns:cc="http://creativecommons.org/ns#"
   xmlns:rdf="http://www.w3.org/1999/02/22-rdf-syntax-ns#"
   xmlns:svg="http://www.w3.org/2000/svg"
   xmlns="http://www.w3.org/2000/svg"
   xmlns:sodipodi="http://sodipodi.sourceforge.net/DTD/sodipodi-0.dtd"
   xmlns:inkscape="http://www.inkscape.org/namespaces/inkscape"
   width="96"
   height="96"
   id="svg2"
   version="1.1"
   inkscape:version="0.48.5 r10040"
   sodipodi:docname="fluxgui.svg">
  <defs
     id="defs4" />
  <sodipodi:namedview
     id="base"
     pagecolor="#ffffff"
     bordercolor="#666666"
     borderopacity="1.0"
     inkscape:pageopacity="0.0"
     inkscape:pageshadow="2"
     inkscape:zoom="4.0312503"
     inkscape:cx="0.46934938"
     inkscape:cy="39.925071"
     inkscape:document-units="px"
     inkscape:current-layer="layer1"
     showgrid="false"
     inkscape:window-width="1680"
     inkscape:window-height="991"
     inkscape:window-x="-2"
     inkscape:window-y="-3"
     inkscape:window-maximized="1"
     inkscape:showpageshadow="false"
     borderlayer="true"
     showguides="false">
    <inkscape:grid
       type="xygrid"
       id="grid3850"
       empspacing="5"
       visible="true"
       enabled="true"
       snapvisiblegridlinesonly="true" />
    <sodipodi:guide
       position="4,44.000017"
       orientation="40,0"
       id="guide4072" />
    <sodipodi:guide
       position="4,4.0000174"
       orientation="0,40"
       id="guide4074" />
    <sodipodi:guide
       position="44,4.0000174"
       orientation="-40,0"
       id="guide4076" />
    <sodipodi:guide
       position="44,44.000017"
       orientation="0,-40"
       id="guide4078" />
    <sodipodi:guide
       position="9,39.000017"
       orientation="30,0"
       id="guide4082" />
    <sodipodi:guide
       position="9,9.0000174"
       orientation="0,30"
       id="guide4084" />
    <sodipodi:guide
       position="39,9.0000174"
       orientation="-30,0"
       id="guide4086" />
    <sodipodi:guide
       position="39,39.000017"
       orientation="0,-30"
       id="guide4088" />
    <sodipodi:guide
       position="15,33.000017"
       orientation="18,0"
       id="guide4090" />
    <sodipodi:guide
       position="15,15.000017"
       orientation="0,18"
       id="guide4092" />
    <sodipodi:guide
       position="33,15.000017"
       orientation="-18,0"
       id="guide4094" />
    <sodipodi:guide
       position="33,33.000017"
       orientation="0,-18"
       id="guide4096" />
  </sodipodi:namedview>
  <metadata
     id="metadata7">
    <rdf:RDF>
      <cc:Work
         rdf:about="">
        <dc:format>image/svg+xml</dc:format>
        <dc:type
           rdf:resource="http://purl.org/dc/dcmitype/StillImage" />
        <dc:title></dc:title>
      </cc:Work>
    </rdf:RDF>
  </metadata>
  <g
     inkscape:label="Capa 1"
     inkscape:groupmode="layer"
     id="layer1"
     transform="translate(0,-956.3622)">
    <rect
       style="color:#000000;fill:#6f917c;fill-opacity:1;fill-rule:nonzero;stroke:none;stroke-width:0.20000000000000001;marker:none;visibility:visible;display:inline;overflow:visible;enable-background:accumulate"
       id="rect2999"
       width="84.000092"
       height="84.000092"
       x="5.9999542"
       y="962.36218" />
    <g
       id="g3032"
       style="fill:#ffffff"
       transform="matrix(0.92963883,0.00978732,-0.00978732,0.92963883,13.207852,70.200287)">
      <path
         id="path3000"
         d="m 62.909167,984.35081 -2.922885,4.64223 c 4.571642,3.56964 7.515989,9.1283 7.515989,15.37586 0,6.2725 -2.962138,11.8571 -7.565113,15.425 l 2.898323,4.6176 c 6.134694,-4.5463 10.119566,-11.8199 10.119566,-20.0426 0,-8.19604 -3.945147,-15.46872 -10.04588,-20.01809 z m -29.842896,0.0246 c -6.085147,4.5507 -10.021318,11.80978 -10.021318,19.99349 0,8.2278 3.978441,15.5214 10.119566,20.0672 l 3.659746,-4.1019 c -5.032046,-3.5274 -8.326536,-9.3557 -8.326536,-15.9653 0,-6.5705 3.246572,-12.38243 8.228288,-15.91619 l -3.635184,-4.0773 c -0.0053,0.004 -0.01919,-0.004 -0.02456,0 z"
         style="color:#000000;fill:#ffffff;fill-opacity:1;fill-rule:nonzero;stroke:none;stroke-width:0.2;marker:none;visibility:visible;display:inline;overflow:visible;enable-background:accumulate"
         inkscape:connector-curvature="0" />
      <path
         transform="matrix(0.49805034,0,0,0.49805034,20.819579,979.04167)"
         d="m 79.627901,50.852718 c 0,13.837087 -11.217175,25.054263 -25.054262,25.054263 -13.837087,0 -25.054262,-11.217176 -25.054262,-25.054263 0,-13.837087 11.217175,-25.054262 25.054262,-25.054262 13.837087,0 25.054262,11.217175 25.054262,25.054262 z"
         sodipodi:ry="25.054262"
         sodipodi:rx="25.054262"
         sodipodi:cy="50.852718"
         sodipodi:cx="54.573639"
         id="path3005"
         style="color:#000000;fill:#ffffff;fill-opacity:1;fill-rule:nonzero;stroke:none;stroke-width:0.2;marker:none;visibility:visible;display:inline;overflow:visible;enable-background:accumulate"
         sodipodi:type="arc" />
      <path
         inkscape:connector-curvature="0"
         style="color:#000000;fill:#ffffff;fill-opacity:1;fill-rule:nonzero;stroke:none;stroke-width:0.2;marker:none;visibility:visible;display:inline;overflow:visible;enable-background:accumulate"
         d="m 71.028321,973.43608 -4.514614,7.17027 c 7.061243,5.51358 11.609007,14.09934 11.609007,23.74915 0,9.6884 -4.575244,18.3142 -11.684882,23.8251 l 4.476676,7.1322 c 9.475493,-7.0221 15.630426,-18.2567 15.630426,-30.9573 0,-12.65938 -6.093575,-23.89258 -15.516613,-30.91942 z m -46.09458,0.038 c -9.398964,7.0289 -15.4786746,18.24109 -15.4786746,30.88152 0,12.7084 6.1449996,23.9739 15.6304256,30.9953 l 5.652751,-6.3357 c -7.772371,-5.4484 -12.860957,-14.4506 -12.860957,-24.6596 0,-10.14872 5.014574,-19.12567 12.709205,-24.58382 l -5.614812,-6.2977 c -0.0082,0.006 -0.02964,-0.006 -0.03793,0 z"
         id="path3030" />
    </g>
  </g>
</svg>
