<?xml version="1.0" encoding="UTF-8" standalone="no"?>
<!-- Created with Inkscape (http://www.inkscape.org/) -->

<svg
   xmlns:dc="http://purl.org/dc/elements/1.1/"
   xmlns:cc="http://creativecommons.org/ns#"
   xmlns:rdf="http://www.w3.org/1999/02/22-rdf-syntax-ns#"
   xmlns:svg="http://www.w3.org/2000/svg"
   xmlns="http://www.w3.org/2000/svg"
   xmlns:sodipodi="http://sodipodi.sourceforge.net/DTD/sodipodi-0.dtd"
   xmlns:inkscape="http://www.inkscape.org/namespaces/inkscape"
   width="96"
   height="96"
   id="svg2"
   version="1.1"
   inkscape:version="0.48.5 r10040"
   viewBox="0 0 27.093332 27.093336"
   sodipodi:docname="sigil.svg">
  <defs
     id="defs4" />
  <sodipodi:namedview
     id="base"
     pagecolor="#ffffff"
     bordercolor="#666666"
     borderopacity="1.0"
     inkscape:pageopacity="0"
     inkscape:pageshadow="2"
     inkscape:zoom="7.6897862"
     inkscape:cx="25.694731"
     inkscape:cy="48.278554"
     inkscape:document-units="px"
     inkscape:current-layer="layer1"
     showgrid="false"
     inkscape:showpageshadow="false"
     borderlayer="true"
     units="px"
     fit-margin-top="0"
     fit-margin-left="0"
     fit-margin-right="0"
     fit-margin-bottom="0"
     showguides="false"
     inkscape:window-width="1680"
     inkscape:window-height="988"
     inkscape:window-x="0"
     inkscape:window-y="-3"
     inkscape:window-maximized="1">
    <sodipodi:guide
       position="-6.6748425e-06,47.999999"
       orientation="47.999977,0"
       id="guide4120" />
    <sodipodi:guide
       position="-6.6748425e-06,2.2810037e-05"
       orientation="0,48.000004"
       id="guide4122" />
    <sodipodi:guide
       position="47.999997,2.2810037e-05"
       orientation="-47.999977,0"
       id="guide4124" />
    <sodipodi:guide
       position="47.999997,47.999999"
       orientation="0,-48.000004"
       id="guide4126" />
    <sodipodi:guide
       position="3.9999733,44.000154"
       orientation="39.999962,0"
       id="guide4138" />
    <sodipodi:guide
       position="3.9999733,4.0001921"
       orientation="0,40.000003"
       id="guide4140" />
    <sodipodi:guide
       position="43.999976,4.0001921"
       orientation="-39.999962,0"
       id="guide4142" />
    <sodipodi:guide
       position="43.999976,44.000154"
       orientation="0,-40.000003"
       id="guide4144" />
    <sodipodi:guide
       position="6.9999922,47.999999"
       orientation="39.999962,0"
       id="guide4148" />
    <sodipodi:guide
       position="6.9999922,8.0000369"
       orientation="0,34.000006"
       id="guide4150" />
    <sodipodi:guide
       position="40.999998,8.0000369"
       orientation="-39.999962,0"
       id="guide4152" />
    <sodipodi:guide
       position="40.999998,47.999999"
       orientation="0,-34.000006"
       id="guide4154" />
    <sodipodi:guide
       position="14.999993,32.999986"
       orientation="17.999951,0"
       id="guide4158" />
    <sodipodi:guide
       position="14.999993,15.000036"
       orientation="0,17.999998"
       id="guide4160" />
    <sodipodi:guide
       position="32.999991,15.000036"
       orientation="-17.999951,0"
       id="guide4162" />
    <sodipodi:guide
       position="32.999991,32.999986"
       orientation="0,-17.999998"
       id="guide4164" />
    <sodipodi:guide
       position="1.9999969,44.000046"
       orientation="39.999962,0"
       id="guide3279" />
    <sodipodi:guide
       position="1.9999969,4.0000839"
       orientation="0,44.000003"
       id="guide3281" />
    <sodipodi:guide
       position="46,4.0000839"
       orientation="-39.999962,0"
       id="guide3283" />
    <sodipodi:guide
       position="46,44.000046"
       orientation="0,-44.000003"
       id="guide3285" />
  </sodipodi:namedview>
  <metadata
     id="metadata7">
    <rdf:RDF>
      <cc:Work
         rdf:about="">
        <dc:format>image/svg+xml</dc:format>
        <dc:type
           rdf:resource="http://purl.org/dc/dcmitype/StillImage" />
        <dc:title></dc:title>
      </cc:Work>
    </rdf:RDF>
  </metadata>
  <g
     inkscape:label="Capa 1"
     inkscape:groupmode="layer"
     id="layer1"
     transform="translate(38.119153,-384.29827)">
    <rect
       style="color:#000000;fill:#445500;fill-opacity:1;fill-rule:nonzero;stroke:none;stroke-width:0.20000000000000001;marker:none;visibility:visible;display:inline;overflow:visible;enable-background:accumulate"
       id="rect3005"
       width="23.706694"
       height="23.706696"
       x="-36.425835"
       y="385.99158"
       ry="0" />
    <g
       style="font-size:23.39448547px;font-style:normal;font-variant:normal;font-stretch:normal;line-height:125%;letter-spacing:0px;word-spacing:0px;fill:#000000;fill-opacity:1;stroke:none;font-family:URW Gothic L;-inkscape-font-specification:URW Gothic L Book"
       id="text3005">
      <path
         d="m -24.337773,389.95284 c 2.227618,-0.0467 4.876597,0.3831 6.134198,1.58781 0.571141,0.80725 0.820016,2.86093 0.820031,3.59199 -1.5e-5,0.42648 -0.129476,0.78821 -0.388385,1.0852 -0.251322,0.28939 -0.559745,0.43409 -0.92527,0.43408 -0.812446,-0.13142 -1.66777,-0.46356 -2.072443,-0.82756 -0.913857,-0.85291 -1.812472,-1.27937 -2.695849,-1.27938 -0.42647,10e-6 -0.769162,0.10282 -1.028078,0.30842 -0.473046,1.0384 2.850917,0.81889 4.507987,1.59918 1.941912,0.94432 2.912873,2.33412 2.912888,4.16943 -1.5e-5,1.62208 -0.662553,2.94716 -1.987617,3.97523 -1.355552,1.05093 -3.126129,1.57639 -5.311737,1.57639 -0.974776,0 -2.002853,-0.11423 -3.084234,-0.3427 -1.081388,-0.23607 -1.861965,-0.51023 -2.341733,-0.82246 -2.76098,-2.18167 -2.698588,-4.9352 -1.236125,-6.63031 0.190384,-0.24369 0.430268,-0.36554 0.719655,-0.36554 0.289383,0 0.567344,0.1485 0.833885,0.4455 0.159921,0.16754 0.573583,0.52093 1.167587,1.42715 0.281766,0.42647 0.727266,0.78058 1.336501,1.06235 0.616842,0.28177 1.252726,0.42266 1.907656,0.42265 0.186328,-0.0212 1.319271,-0.26929 0.1485,-0.54265 -1.089007,-0.34269 -1.919084,-0.65492 -2.490233,-0.93669 -0.571158,-0.28938 -1.104235,-0.65111 -1.599233,-1.08519 -1.203233,-1.06615 -1.804849,-2.277 -1.804848,-3.63255 -1e-6,-0.67014 0.156115,-1.32126 0.468347,-1.95335 0.312229,-0.63967 0.753922,-1.19179 1.325078,-1.65634 1.279382,-1.07376 2.840536,-1.61064 4.683467,-1.61066"
         style="fill:#88aa00;stroke:#000000;stroke-width:0.36688894;stroke-miterlimit:4;stroke-opacity:1;stroke-dasharray:none;font-family:Cooper Black;-inkscape-font-specification:Cooper Black"
         id="path3010"
         inkscape:connector-curvature="0"
         sodipodi:nodetypes="cccccccccccscccscccccccsccc" />
      <path
         sodipodi:nodetypes="cccccccccccscccscccccccsccc"
         inkscape:connector-curvature="0"
         id="path3780"
         style="fill:#88aa00;stroke:#000000;stroke-width:0.36688894;stroke-miterlimit:4;stroke-opacity:1;stroke-dasharray:none;font-family:Cooper Black;-inkscape-font-specification:Cooper Black"
         d="m -24.337773,389.95284 c 2.227618,-0.0467 4.876597,0.3831 6.134198,1.58781 0.571141,0.80725 0.820016,2.86093 0.820031,3.59199 -1.5e-5,0.42648 -0.129476,0.78821 -0.388385,1.0852 -0.251322,0.28939 -0.559745,0.43409 -0.92527,0.43408 -0.812446,-0.13142 -1.66777,-0.46356 -2.072443,-0.82756 -0.913857,-0.85291 -1.812472,-1.27937 -2.695849,-1.27938 -0.42647,10e-6 -0.769162,0.10282 -1.028078,0.30842 -0.473046,1.0384 2.850917,0.81889 4.507987,1.59918 1.941912,0.94432 2.912873,2.33412 2.912888,4.16943 -1.5e-5,1.62208 -0.662553,2.94716 -1.987617,3.97523 -1.355552,1.05093 -3.126129,1.57639 -5.311737,1.57639 -0.974776,0 -2.002853,-0.11423 -3.084234,-0.3427 -1.081388,-0.23607 -1.861965,-0.51023 -2.341733,-0.82246 -2.76098,-2.18167 -2.698588,-4.9352 -1.236125,-6.63031 0.190384,-0.24369 0.430268,-0.36554 0.719655,-0.36554 0.289383,0 0.567344,0.1485 0.833885,0.4455 0.159921,0.16754 0.573583,0.52093 1.167587,1.42715 0.281766,0.42647 0.727266,0.78058 1.336501,1.06235 0.616842,0.28177 1.252726,0.42266 1.907656,0.42265 0.186328,-0.0212 1.319271,-0.26929 0.1485,-0.54265 -1.089007,-0.34269 -1.919084,-0.65492 -2.490233,-0.93669 -0.571158,-0.28938 -1.104235,-0.65111 -1.599233,-1.08519 -1.203233,-1.06615 -1.804849,-2.277 -1.804848,-3.63255 -1e-6,-0.67014 0.156115,-1.32126 0.468347,-1.95335 0.312229,-0.63967 0.753922,-1.19179 1.325078,-1.65634 1.279382,-1.07376 2.840536,-1.61064 4.683467,-1.61066" />
    </g>
    <g
       id="g3801"
       style="font-size:23.39448546999999934px;font-style:normal;font-variant:normal;font-stretch:normal;line-height:125%;letter-spacing:0px;word-spacing:0px;fill:#000000;fill-opacity:1;stroke:#bae7ae;font-family:URW Gothic L;-inkscape-font-specification:URW Gothic L Book;stroke-opacity:1;stroke-width:0.14526537;stroke-miterlimit:4;stroke-dasharray:none"
       transform="matrix(0.96715551,0,0,0.97566789,-0.76969105,9.7407272)">
      <path
         sodipodi:nodetypes="cccccccccccscccscccccccsccc"
         inkscape:connector-curvature="0"
         id="path3803"
         style="fill:#88aa00;stroke:#bae7ae;stroke-width:0.14526537;stroke-miterlimit:4;stroke-opacity:1;stroke-dasharray:none;font-family:Cooper Black;-inkscape-font-specification:Cooper Black"
         d="m -24.337773,389.95284 c 2.227618,-0.0467 4.876597,0.3831 6.134198,1.58781 0.571141,0.80725 0.820016,2.86093 0.820031,3.59199 -1.5e-5,0.42648 -0.167423,0.63775 -0.426332,0.93474 -0.251322,0.28939 -0.521798,0.20836 -0.887323,0.20836 -0.812446,-0.13142 -1.66777,-0.46356 -2.072443,-0.82756 -0.913857,-0.85291 -1.812472,-1.27937 -2.695849,-1.27938 -0.42647,1e-5 -1.034793,0.25328 -1.293709,0.45888 -0.473046,1.0384 3.116548,1.04459 4.773618,1.82488 1.941912,0.94432 2.912873,2.33412 2.912888,4.16943 -1.5e-5,1.62208 -0.662553,2.94716 -1.987617,3.97523 -1.355552,1.05093 -3.126129,1.57639 -5.311737,1.57639 -0.974776,0 -2.002853,-0.11423 -3.084234,-0.3427 -1.081388,-0.23607 -1.861965,-0.51023 -2.341733,-0.82246 -2.76098,-2.18167 -2.888324,-4.67189 -1.425861,-6.367 0.190384,-0.24369 0.430268,-0.40314 0.719655,-0.40314 0.289383,0 0.567344,0.14853 0.833885,0.4455 0.159921,0.16754 0.459741,0.40808 1.053745,1.3143 0.281766,0.42647 0.954949,0.85581 1.564184,1.13758 0.616842,0.28177 1.442463,0.42266 2.097393,0.42265 0.186328,-0.0212 1.357218,-0.49499 0.186447,-0.76835 -1.089007,-0.34269 -2.070873,-0.6173 -2.642022,-0.89907 -0.571158,-0.28938 -1.104235,-0.65111 -1.599233,-1.08519 -1.203233,-1.06615 -1.804849,-2.277 -1.804848,-3.63255 -1e-6,-0.67014 0.156115,-1.32126 0.468347,-1.95335 0.312229,-0.63967 0.753922,-1.19179 1.325078,-1.65634 1.279382,-1.07376 2.840536,-1.61064 4.683467,-1.61066" />
    </g>
  </g>
</svg>
