<?xml version="1.0" encoding="UTF-8" standalone="no"?>
<!-- Created using Karbon, part of Calligra: http://www.calligra.org/karbon -->

<svg
   xmlns:dc="http://purl.org/dc/elements/1.1/"
   xmlns:cc="http://creativecommons.org/ns#"
   xmlns:rdf="http://www.w3.org/1999/02/22-rdf-syntax-ns#"
   xmlns:svg="http://www.w3.org/2000/svg"
   xmlns="http://www.w3.org/2000/svg"
   xmlns:sodipodi="http://sodipodi.sourceforge.net/DTD/sodipodi-0.dtd"
   xmlns:inkscape="http://www.inkscape.org/namespaces/inkscape"
   width="96"
   height="96"
   id="svg2"
   version="1.1"
   inkscape:version="0.48.4 r9939"
   sodipodi:docname="start-here-opensuse.svg">
  <metadata
     id="metadata12">
    <rdf:RDF>
      <cc:Work
         rdf:about="">
        <dc:format>image/svg+xml</dc:format>
        <dc:type
           rdf:resource="http://purl.org/dc/dcmitype/StillImage" />
        <dc:title />
      </cc:Work>
    </rdf:RDF>
  </metadata>
  <sodipodi:namedview
     pagecolor="#ffffff"
     bordercolor="#666666"
     borderopacity="1"
     objecttolerance="10"
     gridtolerance="10"
     guidetolerance="10"
     inkscape:pageopacity="0"
     inkscape:pageshadow="2"
     inkscape:window-width="618"
     inkscape:window-height="449"
     id="namedview10"
     showgrid="false"
     inkscape:zoom="6.8924649"
     inkscape:cx="5.6241092"
     inkscape:cy="21.620514"
     inkscape:window-x="362"
     inkscape:window-y="92"
     inkscape:window-maximized="0"
     inkscape:current-layer="svg2" />
  <defs
     id="defs4" />
  <g
     id="g3808"
     transform="matrix(1.8873226,0,0,1.8873225,2.6930427,2.6930433)">
    <rect
       y="0"
       x="0"
       style="fill:#cccccc;fill-rule:evenodd;stroke:none"
       height="40.004005"
       width="40.004005"
       stroke-miterlimit="2.00000000000"
       transform="translate(4.00394,4.00394)"
       id="rect3810" />
    <rect
       y="0"
       x="0"
       id="rect3812"
       transform="translate(4.00394,4.00394)"
       stroke-miterlimit="2.00000000000"
       width="40.004005"
       height="40.004005"
       style="fill:#2eab2e;fill-opacity:1;fill-rule:evenodd;stroke:none" />
  </g>
  <path
     inkscape:connector-curvature="0"
     style="font-size:20.48839951px;fill:#ffffff;fill-opacity:1;fill-rule:evenodd;stroke:none;font-family:TrebuchetMS-Bold"
     d="M 48,15.80325 C 30.222946,15.80325 15.809329,30.217947 15.809329,48 15.809329,65.782051 30.222948,80.19675 48,80.19675 65.777053,80.19675 80.190664,65.782051 80.190671,48 80.190671,30.217949 65.777053,15.80325 48,15.80325 z m 0.154137,4.458924 c 15.317181,0 27.744443,12.419397 27.744443,27.737826 0,15.320078 -12.428902,27.737826 -27.744443,27.737826 -8.270685,0 -15.692202,-3.625503 -20.772764,-9.368481 2.089005,-1.621623 5.584039,-1.226004 9.888404,-0.73525 2.06275,0.234709 4.414206,0.503202 6.841259,0.557364 6.780647,0.0394 14.076364,-1.19837 18.579294,-3.166309 2.911149,-1.27695 4.775039,-2.117877 5.940155,-3.178171 0.420101,-0.344676 0.640715,-0.920485 0.865536,-1.517928 l 0.154137,-0.403203 c 0.188731,-0.482546 0.459541,-1.520901 0.580972,-2.087152 0.05415,-0.247844 0.08075,-0.514366 -0.09485,-0.652239 l -0.628396,0.118606 c -1.975777,1.185031 -6.912111,3.442018 -11.536474,3.533934 -5.7304,0.119822 -17.279937,-5.769856 -18.484438,-6.391915 l -0.118563,-0.142305 c -0.288817,-0.689359 -2.017231,-4.793335 -2.383177,-5.656671 8.313352,5.475445 15.205802,8.506086 20.48821,8.977142 5.873174,0.521942 10.454491,-2.685219 12.413856,-4.055722 0.382359,-0.260971 0.674599,-0.465613 0.794394,-0.509928 l 0.130421,-0.213463 C 70.487181,48.781338 67.405747,38.789804 65.08536,36.390195 64.442082,35.732028 63.93065,35.091492 62.891888,34.480923 54.493208,29.584866 34.551676,26.636152 33.617944,26.499926 l -0.154116,0.04744 -0.05927,0.130446 c 0,0 -0.0748,4.141661 -0.08299,4.601229 -0.684303,-0.226499 -2.806157,-0.921316 -5.845305,-1.755105 3.965405,-4.907549 10.042449,-9.261754 20.677895,-9.261754 z m 7.327379,14.681244 c 0.141532,-0.0021 0.284374,-0.0047 0.426839,0 4.704769,0.169056 8.401148,4.132459 8.240338,8.834836 -0.08369,2.274868 -1.042601,4.376727 -2.703306,5.929417 -1.66563,1.560899 -3.830442,2.374476 -6.118004,2.300618 -4.696573,-0.175626 -8.392954,-4.139022 -8.240342,-8.834836 0.08043,-2.278153 1.044614,-4.393517 2.715162,-5.941278 1.559983,-1.463339 3.556565,-2.256893 5.679313,-2.288757 z m -0.225277,2.514072 c -1.370211,0.08332 -2.663249,0.639788 -3.675545,1.589085 -1.153626,1.083271 -1.834334,2.549942 -1.885201,4.138737 -0.108304,3.282636 2.459859,6.045137 5.738596,6.166597 1.593417,0.04923 3.104901,-0.509099 4.268376,-1.589085 1.160195,-1.088196 1.835971,-2.568364 1.885201,-4.150595 0.109945,-3.287564 -2.470072,-6.039847 -5.750451,-6.154739 -0.198563,-0.0075 -0.38523,-0.01173 -0.580976,0 z m 1.56507,2.97657 c 1.457219,0 2.632171,0.792025 2.632167,1.766968 0,0.970021 -1.174948,1.766966 -2.632167,1.766968 -1.462139,0 -2.644018,-0.798591 -2.644018,-1.766968 0,-0.974941 1.181879,-1.766966 2.644018,-1.766968 z"
     id="path2445" />
</svg>
