<?xml version="1.0" encoding="UTF-8" standalone="no"?>
<!-- Created using Karbon, part of Calligra: http://www.calligra.org/karbon -->

<svg
   xmlns:dc="http://purl.org/dc/elements/1.1/"
   xmlns:cc="http://creativecommons.org/ns#"
   xmlns:rdf="http://www.w3.org/1999/02/22-rdf-syntax-ns#"
   xmlns:svg="http://www.w3.org/2000/svg"
   xmlns="http://www.w3.org/2000/svg"
   xmlns:sodipodi="http://sodipodi.sourceforge.net/DTD/sodipodi-0.dtd"
   xmlns:inkscape="http://www.inkscape.org/namespaces/inkscape"
   width="96"
   height="96"
   id="svg2"
   version="1.1"
   inkscape:version="0.48.4 r9939"
   sodipodi:docname="start-here-arch.svg">
  <metadata
     id="metadata12">
    <rdf:RDF>
      <cc:Work
         rdf:about="">
        <dc:format>image/svg+xml</dc:format>
        <dc:type
           rdf:resource="http://purl.org/dc/dcmitype/StillImage" />
        <dc:title />
      </cc:Work>
    </rdf:RDF>
  </metadata>
  <sodipodi:namedview
     pagecolor="#ffffff"
     bordercolor="#666666"
     borderopacity="1"
     objecttolerance="10"
     gridtolerance="10"
     guidetolerance="10"
     inkscape:pageopacity="0"
     inkscape:pageshadow="2"
     inkscape:window-width="1366"
     inkscape:window-height="709"
     id="namedview10"
     showgrid="false"
     inkscape:zoom="3.4978571"
     inkscape:cx="-22.908619"
     inkscape:cy="24.709903"
     inkscape:window-x="0"
     inkscape:window-y="-3"
     inkscape:window-maximized="1"
     inkscape:current-layer="svg2" />
  <defs
     id="defs4" />
  <g
     id="layer1"
     transform="matrix(1.8873226,0,0,1.8873225,2.6930427,2.6930433)">
    <rect
       id="shape0"
       transform="translate(4.00394,4.00394)"
       stroke-miterlimit="2.00000000000"
       width="40.004005"
       height="40.004005"
       x="0"
       y="0"
       style="fill:#2980b9;fill-rule:evenodd;stroke:#003bc3;stroke-width:0;stroke-linecap:square;stroke-linejoin:miter;stroke-miterlimit:2" />
  </g>
  <path
     inkscape:connector-curvature="0"
     d="m 47.993965,15.80325 c -2.8661,7.02692 -4.594795,11.62335 -7.785826,18.441388 1.956502,2.073889 4.358014,4.489039 8.258063,7.216721 C 44.273269,39.735993 41.413175,38.003766 39.275779,36.20623 35.191871,44.727936 28.793558,56.866722 15.809327,80.19675 26.014497,74.305128 33.925364,70.672878 41.297914,69.28691 40.981333,67.925301 40.801345,66.452459 40.81357,64.915706 l 0.01206,-0.326934 c 0.161925,-6.538182 3.563091,-11.566046 7.592088,-11.224662 4.029003,0.341378 7.160697,5.921554 6.99877,12.45974 -0.03047,1.230281 -0.169234,2.413794 -0.411693,3.511493 7.292505,1.426543 15.11878,5.049493 25.185873,10.861407 -1.985033,-3.654585 -3.756848,-6.948929 -5.448864,-10.086457 -2.665205,-2.065712 -5.445143,-4.754241 -11.115689,-7.664741 3.897605,1.012765 6.688243,2.181223 8.863491,3.487276 C 55.286428,33.903432 53.893335,29.647388 47.993965,15.80325 z"
     id="path2518"
     style="fill:#ffffff;fill-opacity:1;fill-rule:evenodd;stroke:none" />
</svg>
