<?xml version="1.0" encoding="UTF-8" standalone="no"?>
<!-- Created with Inkscape (http://www.inkscape.org/) -->

<svg
   xmlns:dc="http://purl.org/dc/elements/1.1/"
   xmlns:cc="http://creativecommons.org/ns#"
   xmlns:rdf="http://www.w3.org/1999/02/22-rdf-syntax-ns#"
   xmlns:svg="http://www.w3.org/2000/svg"
   xmlns="http://www.w3.org/2000/svg"
   xmlns:xlink="http://www.w3.org/1999/xlink"
   xmlns:sodipodi="http://sodipodi.sourceforge.net/DTD/sodipodi-0.dtd"
   xmlns:inkscape="http://www.inkscape.org/namespaces/inkscape"
   version="1.0"
   width="96"
   height="96"
   id="svg2408"
   inkscape:version="0.48.4 r9939"
   sodipodi:docname="thunderbird.svg">
  <sodipodi:namedview
     pagecolor="#ffffff"
     bordercolor="#666666"
     borderopacity="1"
     objecttolerance="10"
     gridtolerance="10"
     guidetolerance="10"
     inkscape:pageopacity="0"
     inkscape:pageshadow="2"
     inkscape:window-width="1680"
     inkscape:window-height="991"
     id="namedview238"
     showgrid="false"
     inkscape:zoom="2.7893226"
     inkscape:cx="-95.314889"
     inkscape:cy="82.124588"
     inkscape:window-x="0"
     inkscape:window-y="-3"
     inkscape:window-maximized="1"
     inkscape:current-layer="svg2408" />
  <defs
     id="defs2410">
    <linearGradient
       id="linearGradient3737">
      <stop
         id="stop3739"
         style="stop-color:#ffffff;stop-opacity:1"
         offset="0" />
      <stop
         id="stop3741"
         style="stop-color:#ffffff;stop-opacity:0"
         offset="1" />
    </linearGradient>
    <filter
       x="-0.192"
       y="-0.192"
       width="1.3839999"
       height="1.3839999"
       color-interpolation-filters="sRGB"
       id="filter3794">
      <feGaussianBlur
         id="feGaussianBlur3796"
         stdDeviation="5.28" />
    </filter>
    <linearGradient
       x1="48"
       y1="20.220806"
       x2="48"
       y2="138.66119"
       id="linearGradient3613"
       xlink:href="#linearGradient3737"
       gradientUnits="userSpaceOnUse" />
    <clipPath
       id="clipPath3613">
      <rect
         width="84"
         height="84"
         rx="6"
         ry="6"
         x="6"
         y="6"
         id="rect3615"
         style="fill:#ffffff;fill-opacity:1;fill-rule:nonzero;stroke:none" />
    </clipPath>
    <linearGradient
       x1="45.447727"
       y1="92.539597"
       x2="45.447727"
       y2="7.0165396"
       id="ButtonShadow-4"
       gradientUnits="userSpaceOnUse"
       gradientTransform="scale(1.0058652,0.994169)">
      <stop
         id="stop3750-6"
         style="stop-color:#000000;stop-opacity:1"
         offset="0" />
      <stop
         id="stop3752-9"
         style="stop-color:#000000;stop-opacity:0.58823532"
         offset="1" />
    </linearGradient>
    <filter
       color-interpolation-filters="sRGB"
       id="filter3174-2">
      <feGaussianBlur
         id="feGaussianBlur3176-2"
         stdDeviation="1.71" />
    </filter>
    <linearGradient
       x1="45.447727"
       y1="92.539597"
       x2="45.447727"
       y2="7.0165396"
       id="linearGradient2875"
       xlink:href="#ButtonShadow-4"
       gradientUnits="userSpaceOnUse"
       gradientTransform="scale(1.0058652,0.994169)" />
    <linearGradient
       id="linearGradient3737-1">
      <stop
         id="stop3739-1"
         style="stop-color:#ffffff;stop-opacity:1"
         offset="0" />
      <stop
         id="stop3741-0"
         style="stop-color:#ffffff;stop-opacity:0"
         offset="1" />
    </linearGradient>
    <linearGradient
       x1="48"
       y1="90"
       x2="48"
       y2="5.9877172"
       id="linearGradient2982"
       xlink:href="#ButtonColor-6"
       gradientUnits="userSpaceOnUse" />
    <linearGradient
       x1="31.714285"
       y1="6"
       x2="31.714285"
       y2="74.09301"
       id="linearGradient2984"
       xlink:href="#linearGradient3737-1"
       gradientUnits="userSpaceOnUse" />
    <radialGradient
       cx="47.967342"
       cy="89.688721"
       r="42"
       fx="47.967342"
       fy="89.688721"
       id="radialGradient2986"
       xlink:href="#linearGradient3737-1"
       gradientUnits="userSpaceOnUse"
       gradientTransform="matrix(1.3341109,0,0,0.95758929,-16.026413,2.1112584)" />
    <linearGradient
       x1="58.650177"
       y1="122"
       x2="58.650177"
       y2="5.4252338"
       id="ButtonColor-6"
       gradientUnits="userSpaceOnUse">
      <stop
         id="stop3189-4"
         style="stop-color:#dcdcdc;stop-opacity:1"
         offset="0" />
      <stop
         id="stop3191-0"
         style="stop-color:#f5f5f5;stop-opacity:1"
         offset="1" />
    </linearGradient>
    <clipPath
       id="clipPath4196">
      <rect
         width="37.780914"
         height="37.780914"
         x="154.06203"
         y="60.829136"
         id="rect4198"
         style="fill:#ffffff;fill-opacity:1;fill-rule:nonzero;stroke:none;display:inline" />
    </clipPath>
    <linearGradient
       x1="115.05"
       y1="222.03999"
       x2="170.24001"
       y2="126.46"
       id="linearGradient3958"
       xlink:href="#XMLID_15_"
       gradientUnits="userSpaceOnUse"
       gradientTransform="matrix(0.205043,0,0,0.205043,151.78653,56.733289)" />
    <linearGradient
       x1="115.05"
       y1="222.03999"
       x2="170.24001"
       y2="126.46"
       id="XMLID_15_"
       gradientUnits="userSpaceOnUse"
       gradientTransform="matrix(0.205043,0,0,0.205043,2.74915,1.042583)">
      <stop
         id="stop89"
         style="stop-color:#b4b4dc;stop-opacity:1"
         offset="0.01" />
      <stop
         id="stop91"
         style="stop-color:#000000;stop-opacity:1"
         offset="1" />
    </linearGradient>
    <linearGradient
       x1="139.21001"
       y1="224.10001"
       x2="168.19"
       y2="173.89999"
       id="linearGradient3960"
       xlink:href="#XMLID_16_"
       gradientUnits="userSpaceOnUse"
       gradientTransform="matrix(0.205043,0,0,0.205043,151.78653,56.733289)" />
    <linearGradient
       x1="139.21001"
       y1="224.10001"
       x2="168.19"
       y2="173.89999"
       id="XMLID_16_"
       gradientUnits="userSpaceOnUse"
       gradientTransform="matrix(0.205043,0,0,0.205043,2.74915,1.042583)">
      <stop
         id="stop94"
         style="stop-color:#b4b4dc;stop-opacity:1"
         offset="0.01" />
      <stop
         id="stop96"
         style="stop-color:#000000;stop-opacity:1"
         offset="1" />
    </linearGradient>
    <linearGradient
       x1="185.78999"
       y1="171.82001"
       x2="185.78999"
       y2="72.25"
       id="linearGradient3962"
       xlink:href="#XMLID_17_"
       gradientUnits="userSpaceOnUse"
       gradientTransform="matrix(0.205043,0,0,0.205043,151.78653,56.733289)" />
    <linearGradient
       x1="185.78999"
       y1="171.82001"
       x2="185.78999"
       y2="72.25"
       id="XMLID_17_"
       gradientUnits="userSpaceOnUse"
       gradientTransform="matrix(0.205043,0,0,0.205043,2.74915,1.042583)">
      <stop
         id="stop99"
         style="stop-color:#6498c1;stop-opacity:1"
         offset="0" />
      <stop
         id="stop101"
         style="stop-color:#0c418f;stop-opacity:1"
         offset="0.2" />
      <stop
         id="stop103"
         style="stop-color:#000040;stop-opacity:1"
         offset="1" />
    </linearGradient>
    <linearGradient
       x1="185.2"
       y1="149.75"
       x2="185.2"
       y2="60.68"
       id="linearGradient3964"
       xlink:href="#XMLID_18_"
       gradientUnits="userSpaceOnUse"
       gradientTransform="matrix(0.205043,0,0,0.205043,151.78653,56.733289)" />
    <linearGradient
       x1="185.2"
       y1="149.75"
       x2="185.2"
       y2="60.68"
       id="XMLID_18_"
       gradientUnits="userSpaceOnUse"
       gradientTransform="matrix(0.205043,0,0,0.205043,2.74915,1.042583)">
      <stop
         id="stop106"
         style="stop-color:#a4d8e5;stop-opacity:1"
         offset="0" />
      <stop
         id="stop108"
         style="stop-color:#0c418f;stop-opacity:1"
         offset="0.2" />
      <stop
         id="stop110"
         style="stop-color:#000040;stop-opacity:1"
         offset="0.5" />
    </linearGradient>
    <linearGradient
       x1="151.2"
       y1="134.73"
       x2="151.2"
       y2="83.480003"
       id="linearGradient3966"
       xlink:href="#XMLID_19_"
       gradientUnits="userSpaceOnUse"
       gradientTransform="matrix(0.205043,0,0,0.205043,151.78653,56.733289)" />
    <linearGradient
       x1="151.2"
       y1="134.73"
       x2="151.2"
       y2="83.480003"
       id="XMLID_19_"
       gradientUnits="userSpaceOnUse"
       gradientTransform="matrix(0.205043,0,0,0.205043,2.74915,1.042583)">
      <stop
         id="stop113"
         style="stop-color:#a4d8e5;stop-opacity:1"
         offset="0" />
      <stop
         id="stop115"
         style="stop-color:#0c418f;stop-opacity:1"
         offset="0.5" />
      <stop
         id="stop117"
         style="stop-color:#000060;stop-opacity:1"
         offset="1" />
    </linearGradient>
    <linearGradient
       x1="132.09"
       y1="33.560001"
       x2="171.09"
       y2="88.059998"
       id="linearGradient3968"
       xlink:href="#XMLID_20_"
       gradientUnits="userSpaceOnUse"
       gradientTransform="matrix(0.205043,0,0,0.205043,151.78653,56.733289)" />
    <linearGradient
       x1="132.09"
       y1="33.560001"
       x2="171.09"
       y2="88.059998"
       id="XMLID_20_"
       gradientUnits="userSpaceOnUse"
       gradientTransform="matrix(0.205043,0,0,0.205043,2.74915,1.042583)">
      <stop
         id="stop120"
         style="stop-color:#4187b8;stop-opacity:1"
         offset="0" />
      <stop
         id="stop122"
         style="stop-color:#074e92;stop-opacity:1"
         offset="1" />
    </linearGradient>
    <linearGradient
       x1="162.21001"
       y1="71.089996"
       x2="134.67999"
       y2="23.41"
       id="linearGradient3970"
       xlink:href="#XMLID_21_"
       gradientUnits="userSpaceOnUse"
       gradientTransform="matrix(0.205043,0,0,0.205043,151.78653,56.733289)" />
    <linearGradient
       x1="162.21001"
       y1="71.089996"
       x2="134.67999"
       y2="23.41"
       id="XMLID_21_"
       gradientUnits="userSpaceOnUse"
       gradientTransform="matrix(0.205043,0,0,0.205043,2.74915,1.042583)">
      <stop
         id="stop125"
         style="stop-color:#1b609d;stop-opacity:1"
         offset="0.01" />
      <stop
         id="stop127"
         style="stop-color:#9fd2e5;stop-opacity:1"
         offset="0.5" />
      <stop
         id="stop129"
         style="stop-color:#4187b8;stop-opacity:1"
         offset="1" />
    </linearGradient>
    <linearGradient
       x1="66.43"
       y1="24.35"
       x2="123.46"
       y2="81.379997"
       id="linearGradient3906"
       xlink:href="#XMLID_13_"
       gradientUnits="userSpaceOnUse"
       gradientTransform="matrix(0.205043,0,0,0.205043,131.78653,36.733289)" />
    <linearGradient
       x1="66.43"
       y1="24.35"
       x2="123.46"
       y2="81.379997"
       id="XMLID_13_"
       gradientUnits="userSpaceOnUse"
       gradientTransform="matrix(0.205043,0,0,0.205043,2.74915,1.042583)">
      <stop
         id="stop77"
         style="stop-color:#a4d8e5;stop-opacity:1"
         offset="0" />
      <stop
         id="stop79"
         style="stop-color:#0c418f;stop-opacity:1"
         offset="0.67000002" />
      <stop
         id="stop81"
         style="stop-color:#000040;stop-opacity:1"
         offset="1" />
    </linearGradient>
    <linearGradient
       x1="71.550003"
       y1="36.5"
       x2="61.5"
       y2="8.8800001"
       id="linearGradient3908"
       xlink:href="#XMLID_14_"
       gradientUnits="userSpaceOnUse"
       gradientTransform="matrix(0.205043,0,0,0.205043,131.78653,36.733289)" />
    <linearGradient
       x1="71.550003"
       y1="36.5"
       x2="61.5"
       y2="8.8800001"
       id="XMLID_14_"
       gradientUnits="userSpaceOnUse"
       gradientTransform="matrix(0.205043,0,0,0.205043,2.74915,1.042583)">
      <stop
         id="stop84"
         style="stop-color:#a4d8e5;stop-opacity:1"
         offset="0" />
      <stop
         id="stop86"
         style="stop-color:#0c418f;stop-opacity:1"
         offset="1" />
    </linearGradient>
    <linearGradient
       x1="50.32"
       y1="74.900002"
       x2="94.57"
       y2="30.65"
       id="linearGradient3910"
       xlink:href="#XMLID_22_"
       gradientUnits="userSpaceOnUse"
       gradientTransform="matrix(0.205043,0,0,0.205043,131.78653,36.733289)" />
    <linearGradient
       x1="50.32"
       y1="74.900002"
       x2="94.57"
       y2="30.65"
       id="XMLID_22_"
       gradientUnits="userSpaceOnUse"
       gradientTransform="matrix(0.205043,0,0,0.205043,2.74915,1.042583)">
      <stop
         id="stop132"
         style="stop-color:#a5b4d3;stop-opacity:1"
         offset="0" />
      <stop
         id="stop134"
         style="stop-color:#a5b4d3;stop-opacity:0.33000001"
         offset="1" />
    </linearGradient>
    <linearGradient
       x1="48.16"
       y1="72.75"
       x2="92.410004"
       y2="28.5"
       id="linearGradient3912"
       xlink:href="#XMLID_23_"
       gradientUnits="userSpaceOnUse"
       gradientTransform="matrix(0.205043,0,0,0.205043,131.78653,36.733289)" />
    <linearGradient
       x1="48.16"
       y1="72.75"
       x2="92.410004"
       y2="28.5"
       id="XMLID_23_"
       gradientUnits="userSpaceOnUse"
       gradientTransform="matrix(0.205043,0,0,0.205043,2.74915,1.042583)">
      <stop
         id="stop137"
         style="stop-color:#264b92;stop-opacity:1"
         offset="0" />
      <stop
         id="stop139"
         style="stop-color:#264b92;stop-opacity:0.33000001"
         offset="1" />
    </linearGradient>
    <radialGradient
       cx="58.580002"
       cy="67.169998"
       r="8.5100002"
       fx="58.580002"
       fy="67.169998"
       id="radialGradient3914"
       xlink:href="#eye_2_"
       gradientUnits="userSpaceOnUse"
       gradientTransform="matrix(0.205043,0,0,0.205043,131.78653,36.733289)" />
    <radialGradient
       cx="58.580002"
       cy="67.169998"
       r="8.5100002"
       fx="58.580002"
       fy="67.169998"
       id="eye_2_"
       gradientUnits="userSpaceOnUse"
       gradientTransform="matrix(0.205043,0,0,0.205043,2.74915,1.042583)">
      <stop
         id="stop142"
         style="stop-color:#600000;stop-opacity:1"
         offset="0" />
      <stop
         id="stop144"
         style="stop-color:#c00000;stop-opacity:1"
         offset="0.5" />
      <stop
         id="stop146"
         style="stop-color:#f6aa00;stop-opacity:1"
         offset="1" />
    </radialGradient>
    <radialGradient
       cx="59.610001"
       cy="65.110001"
       r="3.8"
       fx="59.610001"
       fy="65.110001"
       id="radialGradient3916"
       xlink:href="#pupil_1_"
       gradientUnits="userSpaceOnUse"
       gradientTransform="matrix(0.205043,0,0,0.205043,131.78653,36.733289)" />
    <radialGradient
       cx="59.610001"
       cy="65.110001"
       r="3.8"
       fx="59.610001"
       fy="65.110001"
       id="pupil_1_"
       gradientUnits="userSpaceOnUse"
       gradientTransform="matrix(0.205043,0,0,0.205043,2.74915,1.042583)">
      <stop
         id="stop149"
         style="stop-color:#ffffff;stop-opacity:1"
         offset="0.01" />
      <stop
         id="stop151"
         style="stop-color:#000000;stop-opacity:1"
         offset="1" />
    </radialGradient>
    <radialGradient
       cx="51.5"
       cy="87.5"
       r="12.97"
       fx="51.5"
       fy="87.5"
       id="radialGradient3918"
       xlink:href="#XMLID_24_"
       gradientUnits="userSpaceOnUse"
       gradientTransform="matrix(0.205043,0,0,0.205043,131.78653,36.733289)" />
    <radialGradient
       cx="51.5"
       cy="87.5"
       r="12.97"
       fx="51.5"
       fy="87.5"
       id="XMLID_24_"
       gradientUnits="userSpaceOnUse"
       gradientTransform="matrix(0.205043,0,0,0.205043,2.74915,1.042583)">
      <stop
         id="stop154"
         style="stop-color:#769eb8;stop-opacity:1"
         offset="0" />
      <stop
         id="stop156"
         style="stop-color:#ffffff;stop-opacity:1"
         offset="1" />
    </radialGradient>
    <radialGradient
       cx="47.25"
       cy="82.5"
       r="3.78"
       fx="47.25"
       fy="82.5"
       id="radialGradient3920"
       xlink:href="#XMLID_25_"
       gradientUnits="userSpaceOnUse"
       gradientTransform="matrix(0.205043,0,0,0.205043,131.78653,36.733289)" />
    <radialGradient
       cx="47.25"
       cy="82.5"
       r="3.78"
       fx="47.25"
       fy="82.5"
       id="XMLID_25_"
       gradientUnits="userSpaceOnUse"
       gradientTransform="matrix(0.205043,0,0,0.205043,2.74915,1.042583)">
      <stop
         id="stop159"
         style="stop-color:#ffffff;stop-opacity:1"
         offset="0.01" />
      <stop
         id="stop161"
         style="stop-color:#000000;stop-opacity:1"
         offset="1" />
    </radialGradient>
    <clipPath
       id="clipPath4200">
      <rect
         width="37.780914"
         height="37.780914"
         x="134.06201"
         y="60.829136"
         id="rect4202"
         style="fill:#ffffff;fill-opacity:1;fill-rule:nonzero;stroke:none;display:inline" />
    </clipPath>
    <radialGradient
       cx="111.25"
       cy="123.5"
       r="91"
       fx="111.25"
       fy="123.5"
       id="radialGradient3831"
       xlink:href="#XMLID_1_"
       gradientUnits="userSpaceOnUse"
       gradientTransform="matrix(0.205043,0,0,0.205043,131.78653,56.733289)" />
    <radialGradient
       cx="111.25"
       cy="123.5"
       r="91"
       fx="111.25"
       fy="123.5"
       id="XMLID_1_"
       gradientUnits="userSpaceOnUse"
       gradientTransform="matrix(0.205043,0,0,0.205043,2.74915,1.042583)">
      <stop
         id="stop5"
         style="stop-color:#000000;stop-opacity:1"
         offset="0" />
      <stop
         id="stop7"
         style="stop-color:#000000;stop-opacity:1"
         offset="0.5" />
      <stop
         id="stop9"
         style="stop-color:#000000;stop-opacity:0"
         offset="1" />
    </radialGradient>
    <radialGradient
       cx="151.75"
       cy="175.67"
       r="126.3"
       fx="151.75"
       fy="175.67"
       id="radialGradient3827"
       xlink:href="#XMLID_2_"
       gradientUnits="userSpaceOnUse"
       gradientTransform="matrix(0.205043,0,0,0.205043,131.78653,56.733289)" />
    <radialGradient
       cx="151.75"
       cy="175.67"
       r="126.3"
       fx="151.75"
       fy="175.67"
       id="XMLID_2_"
       gradientUnits="userSpaceOnUse"
       gradientTransform="matrix(0.205043,0,0,0.205043,2.74915,1.042583)">
      <stop
         id="stop12"
         style="stop-color:#f2be7f;stop-opacity:1"
         offset="0" />
      <stop
         id="stop14"
         style="stop-color:#ffffdc;stop-opacity:1"
         offset="1" />
    </radialGradient>
    <linearGradient
       x1="100.13"
       y1="79.080002"
       x2="94.449997"
       y2="45.619999"
       id="linearGradient3824"
       xlink:href="#XMLID_3_"
       gradientUnits="userSpaceOnUse"
       gradientTransform="matrix(0.205043,0,0,0.205043,131.78653,56.733289)" />
    <linearGradient
       x1="100.13"
       y1="79.080002"
       x2="94.449997"
       y2="45.619999"
       id="XMLID_3_"
       gradientUnits="userSpaceOnUse"
       gradientTransform="matrix(0.205043,0,0,0.205043,2.74915,1.042583)">
      <stop
         id="stop17"
         style="stop-color:#c3ad7b;stop-opacity:1"
         offset="0" />
      <stop
         id="stop19"
         style="stop-color:#a25f00;stop-opacity:1"
         offset="1" />
    </linearGradient>
    <radialGradient
       cx="149.75"
       cy="87"
       r="90.870003"
       fx="149.75"
       fy="87"
       id="radialGradient3820"
       xlink:href="#XMLID_4_"
       gradientUnits="userSpaceOnUse"
       gradientTransform="matrix(0.205043,0,0,0.205043,131.78653,56.733289)" />
    <radialGradient
       cx="149.75"
       cy="87"
       r="90.870003"
       fx="149.75"
       fy="87"
       id="XMLID_4_"
       gradientUnits="userSpaceOnUse"
       gradientTransform="matrix(0.205043,0,0,0.205043,2.74915,1.042583)">
      <stop
         id="stop22"
         style="stop-color:#f2be7f;stop-opacity:1"
         offset="0" />
      <stop
         id="stop24"
         style="stop-color:#ffffdc;stop-opacity:1"
         offset="1" />
    </radialGradient>
    <linearGradient
       x1="80.160004"
       y1="171.37"
       x2="82.470001"
       y2="164.25"
       id="linearGradient3817"
       xlink:href="#XMLID_5_"
       gradientUnits="userSpaceOnUse"
       gradientTransform="matrix(0.205043,0,0,0.205043,131.78653,56.733289)" />
    <linearGradient
       x1="80.160004"
       y1="171.37"
       x2="82.470001"
       y2="164.25"
       id="XMLID_5_"
       gradientUnits="userSpaceOnUse"
       gradientTransform="matrix(0.205043,0,0,0.205043,2.74915,1.042583)">
      <stop
         id="stop27"
         style="stop-color:#aa944b;stop-opacity:1"
         offset="0" />
      <stop
         id="stop29"
         style="stop-color:#aa944b;stop-opacity:0"
         offset="1" />
    </linearGradient>
    <linearGradient
       x1="34.919998"
       y1="84.019997"
       x2="34.919998"
       y2="58.060001"
       id="linearGradient3812"
       xlink:href="#XMLID_6_"
       gradientUnits="userSpaceOnUse"
       gradientTransform="matrix(0.205043,0,0,0.205043,131.78653,56.733289)" />
    <linearGradient
       x1="34.919998"
       y1="84.019997"
       x2="34.919998"
       y2="58.060001"
       id="XMLID_6_"
       gradientUnits="userSpaceOnUse"
       gradientTransform="matrix(0.205043,0,0,0.205043,2.74915,1.042583)">
      <stop
         id="stop32"
         style="stop-color:#d2b170;stop-opacity:1"
         offset="0.01" />
      <stop
         id="stop34"
         style="stop-color:#a25f00;stop-opacity:1"
         offset="1" />
    </linearGradient>
    <linearGradient
       x1="85.489998"
       y1="124.25"
       x2="85.489998"
       y2="71.330002"
       id="linearGradient3809"
       xlink:href="#XMLID_7_"
       gradientUnits="userSpaceOnUse"
       gradientTransform="matrix(0.205043,0,0,0.205043,131.78653,56.733289)" />
    <linearGradient
       x1="85.489998"
       y1="124.25"
       x2="85.489998"
       y2="71.330002"
       id="XMLID_7_"
       gradientUnits="userSpaceOnUse"
       gradientTransform="matrix(0.205043,0,0,0.205043,2.74915,1.042583)">
      <stop
         id="stop37"
         style="stop-color:#a25f00;stop-opacity:0"
         offset="0" />
      <stop
         id="stop39"
         style="stop-color:#a25f00;stop-opacity:1"
         offset="1" />
    </linearGradient>
    <linearGradient
       x1="29.23"
       y1="187.64"
       x2="29.23"
       y2="165.83"
       id="linearGradient3805"
       xlink:href="#XMLID_8_"
       gradientUnits="userSpaceOnUse"
       gradientTransform="matrix(0.205043,0,0,0.205043,131.78653,56.733289)" />
    <linearGradient
       x1="29.23"
       y1="187.64"
       x2="29.23"
       y2="165.83"
       id="XMLID_8_"
       gradientUnits="userSpaceOnUse"
       gradientTransform="matrix(0.205043,0,0,0.205043,2.74915,1.042583)">
      <stop
         id="stop42"
         style="stop-color:#a4d8e5;stop-opacity:1"
         offset="0" />
      <stop
         id="stop44"
         style="stop-color:#0c418f;stop-opacity:1"
         offset="0.5" />
      <stop
         id="stop46"
         style="stop-color:#000060;stop-opacity:1"
         offset="1" />
    </linearGradient>
    <linearGradient
       x1="15.71"
       y1="170.38"
       x2="15.71"
       y2="141.59"
       id="linearGradient3802"
       xlink:href="#XMLID_9_"
       gradientUnits="userSpaceOnUse"
       gradientTransform="matrix(0.205043,0,0,0.205043,131.78653,56.733289)" />
    <linearGradient
       x1="15.71"
       y1="170.38"
       x2="15.71"
       y2="141.59"
       id="XMLID_9_"
       gradientUnits="userSpaceOnUse"
       gradientTransform="matrix(0.205043,0,0,0.205043,2.74915,1.042583)">
      <stop
         id="stop49"
         style="stop-color:#a4d8e5;stop-opacity:1"
         offset="0" />
      <stop
         id="stop51"
         style="stop-color:#0c418f;stop-opacity:1"
         offset="0.5" />
      <stop
         id="stop53"
         style="stop-color:#000060;stop-opacity:1"
         offset="1" />
    </linearGradient>
    <radialGradient
       cx="41.75"
       cy="67"
       r="77.830002"
       fx="41.75"
       fy="67"
       id="radialGradient3799"
       xlink:href="#XMLID_10_"
       gradientUnits="userSpaceOnUse"
       gradientTransform="matrix(0.205043,0,0,0.205043,131.78653,56.733289)" />
    <radialGradient
       cx="41.75"
       cy="67"
       r="77.830002"
       fx="41.75"
       fy="67"
       id="XMLID_10_"
       gradientUnits="userSpaceOnUse"
       gradientTransform="matrix(0.205043,0,0,0.205043,2.74915,1.042583)">
      <stop
         id="stop56"
         style="stop-color:#000060;stop-opacity:1"
         offset="0" />
      <stop
         id="stop58"
         style="stop-color:#0c418f;stop-opacity:1"
         offset="0.5" />
      <stop
         id="stop60"
         style="stop-color:#a4d8e5;stop-opacity:1"
         offset="1" />
    </radialGradient>
    <radialGradient
       cx="57.5"
       cy="54.25"
       r="71.419998"
       fx="57.5"
       fy="54.25"
       id="radialGradient3795"
       xlink:href="#XMLID_11_"
       gradientUnits="userSpaceOnUse"
       gradientTransform="matrix(0.205043,0,0,0.205043,131.78653,56.733289)" />
    <radialGradient
       cx="57.5"
       cy="54.25"
       r="71.419998"
       fx="57.5"
       fy="54.25"
       id="XMLID_11_"
       gradientUnits="userSpaceOnUse"
       gradientTransform="matrix(0.205043,0,0,0.205043,2.74915,1.042583)">
      <stop
         id="stop63"
         style="stop-color:#000060;stop-opacity:1"
         offset="0" />
      <stop
         id="stop65"
         style="stop-color:#0c418f;stop-opacity:1"
         offset="0.5" />
      <stop
         id="stop67"
         style="stop-color:#a4d8e5;stop-opacity:1"
         offset="1" />
    </radialGradient>
    <linearGradient
       x1="46.73"
       y1="25.34"
       x2="9.2200003"
       y2="90.300003"
       id="linearGradient3792"
       xlink:href="#XMLID_12_"
       gradientUnits="userSpaceOnUse"
       gradientTransform="matrix(0.205043,0,0,0.205043,131.78653,56.733289)" />
    <linearGradient
       x1="46.73"
       y1="25.34"
       x2="9.2200003"
       y2="90.300003"
       id="XMLID_12_"
       gradientUnits="userSpaceOnUse"
       gradientTransform="matrix(0.205043,0,0,0.205043,2.74915,1.042583)">
      <stop
         id="stop70"
         style="stop-color:#1b609d;stop-opacity:1"
         offset="0.01" />
      <stop
         id="stop72"
         style="stop-color:#9fd2e5;stop-opacity:1"
         offset="0.5" />
      <stop
         id="stop74"
         style="stop-color:#4187b8;stop-opacity:1"
         offset="1" />
    </linearGradient>
    <clipPath
       id="clipPath4175">
      <path
         d="m 11.098025,2.9903889 c -4.5113565,0 -8.1709436,3.4413075 -8.527469,7.8577721 3.5280021,0.02442 6.3844399,2.895366 6.3844399,6.429086 0,3.548857 -2.8802307,6.429087 -6.4290863,6.429087 l 0,10.000801 c 3.5488556,0 6.4290863,2.88023 6.4290863,6.429086 0,3.548857 -2.8802307,6.429086 -6.4290863,6.429086 l 0,10.000801 c 3.5488556,0 6.4290863,2.880231 6.4290863,6.429086 0,3.548858 -2.8802307,6.429087 -6.4290863,6.429087 l 0,10.000801 c 3.5488556,0 6.4290863,2.88023 6.4290863,6.429086 0,3.548857 -2.8802307,6.429086 -6.4290863,6.429086 l 0,10.000806 c 3.5488556,-1e-5 6.4290863,2.88023 6.4290863,6.42908 0,3.53372 -2.8564378,6.40467 -6.3844399,6.42909 C 2.9270814,119.55869 6.5866685,123 11.098025,123 c 0,-3.54886 2.88023,-6.42909 6.429086,-6.42909 3.548857,0 6.429086,2.88023 6.429086,6.42909 l 10.000801,0 c 0,-3.54886 2.880231,-6.42909 6.429086,-6.42909 3.548858,0 6.429087,2.88023 6.429087,6.42909 l 10.000801,0 c 0,-3.54886 2.88023,-6.42909 6.429086,-6.42909 3.548857,0 6.429086,2.88023 6.429086,6.42909 l 10.000801,0 c 0,-3.54886 2.880231,-6.42909 6.429087,-6.42909 3.548857,0 6.429086,2.88023 6.429086,6.42909 l 10.000802,0 c -10e-6,-3.54886 2.88023,-6.42909 6.42909,-6.42909 3.50344,0 6.35668,2.80895 6.42908,6.29515 3.84108,-0.63593 6.78055,-3.7817 7.09878,-7.72383 -3.528,-0.0244 -6.38444,-2.89537 -6.38444,-6.42909 0,-3.54886 2.88023,-6.42908 6.42909,-6.42908 l 0,-10.000806 c -3.54886,2e-6 -6.42909,-2.88023 -6.42909,-6.429086 0,-3.548856 2.88023,-6.429086 6.42909,-6.429086 l 0,-10.000801 c -3.54886,1e-6 -6.42909,-2.880231 -6.42909,-6.429087 0,-3.548855 2.88023,-6.429086 6.42909,-6.429086 l 0,-10.000801 c -3.54886,2e-6 -6.42909,-2.88023 -6.42909,-6.429086 0,-3.548856 2.88023,-6.429086 6.42909,-6.429086 l 0,-10.000801 c -3.54886,1e-6 -6.42909,-2.880231 -6.42909,-6.429087 0,-3.53372 2.85644,-6.404664 6.38444,-6.429086 -0.31823,-3.9421345 -3.2577,-7.0879004 -7.09878,-7.7238328 -0.0724,3.4862044 -2.92563,6.295147 -6.42908,6.295147 -3.54887,0 -6.42909,-2.8802305 -6.42909,-6.4290863 l -10.000802,0 c 10e-7,3.5488562 -2.880231,6.4290863 -6.429086,6.4290863 -3.548856,0 -6.429087,-2.8802305 -6.429087,-6.4290863 l -10.000801,0 c 2e-6,3.5488562 -2.88023,6.4290863 -6.429086,6.4290863 -3.548856,0 -6.429086,-2.8802305 -6.429086,-6.4290863 l -10.000801,0 c 10e-7,3.5488562 -2.880231,6.4290863 -6.429087,6.4290863 -3.548855,0 -6.429086,-2.8802305 -6.429086,-6.4290863 l -10.000801,0 c 2e-6,3.5488562 -2.88023,6.4290863 -6.429086,6.4290863 -3.548856,0 -6.429086,-2.8802305 -6.429086,-6.4290863 z"
         inkscape:connector-curvature="0"
         id="path4177"
         style="fill:url(#linearGradient4179);fill-opacity:1;fill-rule:nonzero;stroke:none" />
    </clipPath>
    <linearGradient
       x1="48"
       y1="90"
       x2="48"
       y2="5.9877172"
       id="linearGradient4179"
       xlink:href="#ButtonColor-6"
       gradientUnits="userSpaceOnUse"
       gradientTransform="matrix(1.4286858,0,0,1.4286858,-6.0462055,-5.5817262)" />
    <linearGradient
       x1="45.447727"
       y1="92.539597"
       x2="45.447727"
       y2="7.0165396"
       id="ButtonShadow-9"
       gradientUnits="userSpaceOnUse"
       gradientTransform="scale(1.0058652,0.994169)">
      <stop
         id="stop3750-7"
         style="stop-color:#000000;stop-opacity:1"
         offset="0" />
      <stop
         id="stop3752-3"
         style="stop-color:#000000;stop-opacity:0.58823532"
         offset="1" />
    </linearGradient>
    <linearGradient
       x1="40.716122"
       y1="91.15094"
       x2="40.716122"
       y2="7.2913489"
       id="linearGradient3660"
       xlink:href="#ButtonShadow-9"
       gradientUnits="userSpaceOnUse"
       gradientTransform="matrix(1.0238095,0,0,1.0119048,-1.142857,-0.08333333)" />
    <linearGradient
       x1="40.716122"
       y1="91.15094"
       x2="40.716122"
       y2="7.2913489"
       id="linearGradient3643"
       xlink:href="#ButtonShadow-9"
       gradientUnits="userSpaceOnUse" />
    <linearGradient
       x1="40.716122"
       y1="91.15094"
       x2="40.716122"
       y2="7.2913489"
       id="linearGradient3652"
       xlink:href="#ButtonShadow-9"
       gradientUnits="userSpaceOnUse"
       gradientTransform="matrix(1.0238095,0,0,1.0119048,-1.142857,-0.08333343)" />
    <linearGradient
       x1="40.716122"
       y1="91.15094"
       x2="40.716122"
       y2="7.2913489"
       id="linearGradient3674"
       xlink:href="#ButtonShadow-9"
       gradientUnits="userSpaceOnUse"
       gradientTransform="matrix(1.0238095,0,0,1.0119048,-1.142857,-0.08333343)" />
    <linearGradient
       x1="40.716122"
       y1="91.15094"
       x2="40.716122"
       y2="7.2913489"
       id="linearGradient3733"
       xlink:href="#ButtonShadow-9"
       gradientUnits="userSpaceOnUse"
       gradientTransform="matrix(1.0238095,0,0,1.0119048,-1.142857,-0.08333333)" />
  </defs>
  <metadata
     id="metadata2413">
    <rdf:RDF>
      <cc:Work
         rdf:about="">
        <dc:format>image/svg+xml</dc:format>
        <dc:type
           rdf:resource="http://purl.org/dc/dcmitype/StillImage" />
        <dc:title />
      </cc:Work>
    </rdf:RDF>
  </metadata>
  <g
     id="layer2"
     style="display:none">
    <path
       d="m 11,7.0000001 c -2.8840938,0 -5.2600098,2.0142918 -5.84375,4.7187499 2.508553,0.0336 4.5312502,2.077266 4.53125,4.59375 0,2.53742 -2.0563306,4.59375 -4.59375,4.59375 -0.031404,0 -0.062496,6.28e-4 -0.09375,0 l 0,7.15625 c 0.031254,-6.28e-4 0.062346,0 0.09375,0 2.5374193,0 4.5937502,2.056331 4.59375,4.59375 0,2.53742 -2.0563306,4.593749 -4.59375,4.59375 -0.031404,0 -0.062496,6.28e-4 -0.09375,0 l 0,7.15625 c 0.031254,-6.28e-4 0.062346,0 0.09375,0 2.5374193,0 4.5937502,2.056331 4.59375,4.59375 0,2.53742 -2.0563306,4.593749 -4.59375,4.59375 -0.031404,0 -0.062496,6.28e-4 -0.09375,0 L 5,60.75 c 0.031254,-6.28e-4 0.062346,0 0.09375,0 2.5374193,0 4.5937502,2.056331 4.59375,4.59375 0,2.53742 -2.0563306,4.593753 -4.59375,4.59375 -0.031404,0 -0.062496,6.28e-4 -0.09375,0 l 0,7.15625 c 0.031254,-6.28e-4 0.062346,0 0.09375,0 2.5374193,-4e-6 4.5937502,2.056332 4.59375,4.59375 0,2.537416 -2.0563306,4.593753 -4.59375,4.59375 -0.031404,0 -0.062496,6.28e-4 -0.09375,0 C 5.1443858,89.475105 7.7692544,92 11,92 l 0.21875,0 c -6.28e-4,-0.03125 0,-0.06235 0,-0.09375 0,-2.53742 2.05633,-4.593748 4.59375,-4.59375 2.53742,0 4.59375,2.056327 4.59375,4.59375 0,0.0314 6.28e-4,0.0625 0,0.09375 l 7.15625,0 c -6.28e-4,-0.03125 0,-0.06235 0,-0.09375 0,-2.53742 2.056329,-4.593748 4.59375,-4.59375 2.53742,0 4.593752,2.056327 4.59375,4.59375 0,0.0314 6.28e-4,0.0625 0,0.09375 l 7.15625,0 c -6.28e-4,-0.03125 0,-0.06235 0,-0.09375 0,-2.53742 2.056329,-4.593748 4.59375,-4.59375 2.53742,0 4.593748,2.056327 4.59375,4.59375 0,0.0314 6.28e-4,0.0625 0,0.09375 L 60.25,92 c -6.28e-4,-0.03125 0,-0.06235 0,-0.09375 0,-2.53742 2.056333,-4.593748 4.59375,-4.59375 2.53742,0 4.593749,2.056327 4.59375,4.59375 0,0.0314 6.28e-4,0.0625 0,0.09375 l 7.15625,0 c -6.28e-4,-0.03125 0,-0.06235 0,-0.09375 -5e-6,-2.53742 2.056334,-4.593748 4.59375,-4.59375 2.537416,0 4.593749,2.056327 4.59375,4.59375 0,0.01047 7e-5,0.0208 0,0.03125 2.865173,-0.366463 5.086108,-2.72217 5.21875,-5.65625 -0.03125,6.28e-4 -0.06235,0 -0.09375,0 -2.53742,-3e-6 -4.593748,-2.05633 -4.59375,-4.59375 0,-2.537423 2.056327,-4.593752 4.59375,-4.59375 0.0314,0 0.0625,-6.28e-4 0.09375,0 l 0,-7.15625 c -0.03125,6.28e-4 -0.06235,0 -0.09375,0 -2.53742,10e-7 -4.593748,-2.056331 -4.59375,-4.59375 0,-2.537419 2.056327,-4.593749 4.59375,-4.59375 0.0314,0 0.0625,-6.28e-4 0.09375,0 l 0,-7.15625 c -0.03125,6.28e-4 -0.06235,0 -0.09375,0 -2.53742,10e-7 -4.593748,-2.056331 -4.59375,-4.59375 0,-2.537419 2.056327,-4.593749 4.59375,-4.59375 0.0314,0 0.0625,-6.28e-4 0.09375,0 L 91,37.25 c -0.03125,6.28e-4 -0.06235,0 -0.09375,0 -2.53742,10e-7 -4.593748,-2.056331 -4.59375,-4.59375 0,-2.537419 2.056327,-4.593749 4.59375,-4.59375 0.0314,0 0.0625,-6.28e-4 0.09375,0 l 0,-7.15625 c -0.03125,6.28e-4 -0.06235,0 -0.09375,0 -2.53742,1e-6 -4.593748,-2.056332 -4.59375,-4.59375 0,-2.516483 2.022694,-4.560154 4.53125,-4.59375 -0.537373,-2.4896402 -2.580279,-4.4005759 -5.15625,-4.6874999 -0.428865,2.094046 -2.279755,3.6562499 -4.5,3.6562499 -2.230714,0 -4.082641,-1.5787032 -4.5,-3.6874999 l -7.34375,0 c -0.417358,2.1087966 -2.269287,3.6874999 -4.5,3.6874999 -2.23071,0 -4.082641,-1.5787032 -4.5,-3.6874999 l -7.34375,0 C 52.582641,9.1087967 50.730709,10.6875 48.5,10.6875 c -2.23071,0 -4.082641,-1.5787032 -4.5,-3.6874999 l -7.34375,0 c -0.417359,2.1087966 -2.269291,3.6874999 -4.5,3.6874999 -2.23071,0 -4.082641,-1.5787032 -4.5,-3.6874999 l -7.34375,0 c -0.417359,2.1087966 -2.269291,3.6874999 -4.5,3.6874999 -2.23071,0 -4.082641,-1.5787032 -4.5,-3.6874999 l -0.3125,0 z"
       inkscape:connector-curvature="0"
       id="rect3745"
       style="opacity:0.9;fill:url(#linearGradient2875);fill-opacity:1;fill-rule:nonzero;stroke:none;display:inline;filter:url(#filter3174-2)" />
  </g>
  <g
     id="layer1">
    <path
       d="M 12,6 C 8.8423036,6 6.2807978,8.4087223 6.03125,11.5 8.5006537,11.517094 10.5,13.526594 10.5,16 c 0,2.484001 -2.016,4.5 -4.5,4.5 l 0,7 c 2.484,0 4.5,2.016 4.5,4.5 0,2.484001 -2.016,4.5 -4.5,4.5 l 0,7 c 2.484,0 4.5,2.016 4.5,4.5 0,2.484001 -2.016,4.5 -4.5,4.5 l 0,7 c 2.484,0 4.5,2.016 4.5,4.5 0,2.484001 -2.016,4.5 -4.5,4.5 l 0,7 c 2.484,-4e-6 4.5,2.016 4.5,4.5 0,2.473403 -1.9993463,4.482906 -4.46875,4.5 C 6.2807978,87.591278 8.8423036,90 12,90 c 0,-2.484 2.016,-4.5 4.5,-4.5 2.484001,0 4.5,2.016 4.5,4.5 l 7,0 c 0,-2.484 2.016,-4.5 4.5,-4.5 2.484001,0 4.5,2.016 4.5,4.5 l 7,0 c 0,-2.484 2.016,-4.5 4.5,-4.5 2.484001,0 4.5,2.016 4.5,4.5 l 7,0 c 0,-2.484 2.016,-4.5 4.5,-4.5 2.484001,0 4.5,2.016 4.5,4.5 l 7,0 c -4e-6,-2.484 2.016,-4.5 4.5,-4.5 2.452216,0 4.449324,1.966103 4.5,4.40625 C 87.688537,89.461133 89.746004,87.259273 89.96875,84.5 87.499346,84.482903 85.5,82.473406 85.5,80 c 0,-2.484004 2.016,-4.5 4.5,-4.5 l 0,-7 c -2.484,10e-7 -4.5,-2.016 -4.5,-4.5 0,-2.484 2.016,-4.5 4.5,-4.5 l 0,-7 c -2.484,10e-7 -4.5,-2.016 -4.5,-4.5 0,-2.484 2.016,-4.5 4.5,-4.5 l 0,-7 c -2.484,10e-7 -4.5,-2.016 -4.5,-4.5 0,-2.484 2.016,-4.5 4.5,-4.5 l 0,-7 c -2.484,1e-6 -4.5,-2.016 -4.5,-4.5 0,-2.473406 1.999346,-4.482906 4.46875,-4.5 C 89.746004,8.7407268 87.688537,6.538867 85,6.09375 84.949321,8.5338976 82.952219,10.5 80.5,10.5 78.015996,10.5 76,8.4840001 76,6 l -7,0 c 10e-7,2.4840004 -2.016,4.5 -4.5,4.5 C 62.016,10.5 60,8.4840001 60,6 l -7,0 c 10e-7,2.4840004 -2.016,4.5 -4.5,4.5 C 46.016,10.5 44,8.4840001 44,6 l -7,0 c 10e-7,2.4840004 -2.016,4.5 -4.5,4.5 C 30.016,10.5 28,8.4840001 28,6 l -7,0 c 1e-6,2.4840004 -2.016,4.5 -4.5,4.5 C 14.016,10.5 12,8.4840001 12,6 z"
       inkscape:connector-curvature="0"
       id="rect2419"
       style="fill:#e6e6e6;fill-opacity:1;fill-rule:nonzero;stroke:none" />
    <path
       style="fill:#e6e6e6;fill-opacity:1;fill-rule:nonzero;stroke:none"
       id="path3193"
       inkscape:connector-curvature="0"
       d="M 12,6 C 8.8423036,6 6.2807978,8.4087223 6.03125,11.5 8.5006537,11.517094 10.5,13.526594 10.5,16 c 0,2.484001 -2.016,4.5 -4.5,4.5 l 0,7 c 2.484,0 4.5,2.016 4.5,4.5 0,2.484001 -2.016,4.5 -4.5,4.5 l 0,7 c 2.484,0 4.5,2.016 4.5,4.5 0,2.484001 -2.016,4.5 -4.5,4.5 l 0,7 c 2.484,0 4.5,2.016 4.5,4.5 0,2.484001 -2.016,4.5 -4.5,4.5 l 0,7 c 2.484,-4e-6 4.5,2.016 4.5,4.5 0,2.473403 -1.9993463,4.482906 -4.46875,4.5 C 6.2807978,87.591278 8.8423036,90 12,90 c 0,-2.484 2.016,-4.5 4.5,-4.5 2.484001,0 4.5,2.016 4.5,4.5 l 7,0 c 0,-2.484 2.016,-4.5 4.5,-4.5 2.484001,0 4.5,2.016 4.5,4.5 l 7,0 c 0,-2.484 2.016,-4.5 4.5,-4.5 2.484001,0 4.5,2.016 4.5,4.5 l 7,0 c 0,-2.484 2.016,-4.5 4.5,-4.5 2.484001,0 4.5,2.016 4.5,4.5 l 7,0 c -4e-6,-2.484 2.016,-4.5 4.5,-4.5 2.452216,0 4.449324,1.966103 4.5,4.40625 C 87.688537,89.461133 89.746004,87.259273 89.96875,84.5 87.499346,84.482903 85.5,82.473406 85.5,80 c 0,-2.484004 2.016,-4.5 4.5,-4.5 l 0,-7 c -2.484,10e-7 -4.5,-2.016 -4.5,-4.5 0,-2.484 2.016,-4.5 4.5,-4.5 l 0,-7 c -2.484,10e-7 -4.5,-2.016 -4.5,-4.5 0,-2.484 2.016,-4.5 4.5,-4.5 l 0,-7 c -2.484,10e-7 -4.5,-2.016 -4.5,-4.5 0,-2.484 2.016,-4.5 4.5,-4.5 l 0,-7 c -2.484,1e-6 -4.5,-2.016 -4.5,-4.5 0,-2.473406 1.999346,-4.482906 4.46875,-4.5 C 89.746004,8.7407268 87.688537,6.538867 85,6.09375 84.949321,8.5338976 82.952219,10.5 80.5,10.5 78.015996,10.5 76,8.4840001 76,6 l -7,0 c 10e-7,2.4840004 -2.016,4.5 -4.5,4.5 C 62.016,10.5 60,8.4840001 60,6 l -7,0 c 10e-7,2.4840004 -2.016,4.5 -4.5,4.5 C 46.016,10.5 44,8.4840001 44,6 l -7,0 c 10e-7,2.4840004 -2.016,4.5 -4.5,4.5 C 30.016,10.5 28,8.4840001 28,6 l -7,0 c 1e-6,2.4840004 -2.016,4.5 -4.5,4.5 C 14.016,10.5 12,8.4840001 12,6 z" />
  </g>
  <g
     id="layer3">
    <rect
       width="63.999855"
       height="63.999855"
       x="16.00013"
       y="16.000145"
       id="rect2411"
       style="fill:#92b6c8;fill-opacity:1;fill-rule:nonzero;stroke:none;display:inline" />
    <g
       transform="matrix(1.6939731,0,0,1.6939731,-211.09731,-87.042774)"
       clip-path="url(#clipPath4200)"
       id="g3938"
       style="display:inline">
      <path
         d="m 173.25646,82.056089 c 0,10.305457 -8.35345,18.658901 -18.65275,18.658901 -10.29931,0 -18.66301,-8.353444 -18.66301,-18.658901 0,-10.305457 8.35345,-18.658905 18.6589,-18.658905 10.30546,0 18.65686,8.353448 18.65686,18.658905 z"
         inkscape:connector-curvature="0"
         id="path163"
         style="fill:url(#radialGradient3831);stroke:none" />
      <path
         d="m 138.0752,67.348361 -5.2409,6.709004 2.78038,14.14796 25.58731,8.285785 6.12053,-10.397726 -1.79413,-15.579161 -19.64516,-9.064947 -7.6645,5.716596 -0.14353,0.182489 z"
         inkscape:connector-curvature="0"
         id="path165"
         style="fill:#340000;stroke:none" />
      <path
         d="m 165.75599,76.079087 -19.56519,7.361041 -8.99319,-14.301743 -3.92452,5.023552 2.69632,13.727623 25.04599,8.109446 5.88473,-9.995841 -1.14414,-9.924078 z"
         inkscape:connector-curvature="0"
         id="path167"
         style="fill:url(#radialGradient3827);stroke:none" />
      <path
         d="m 172.07746,73.70059 -25.88666,9.739538 -9.38072,-14.916871 -0.34652,0.217345 9.5591,15.201881 26.19833,-9.858462 -0.14353,-0.383431 z"
         inkscape:connector-curvature="0"
         id="path171"
         style="fill:#340000;stroke:none" />
      <path
         d="m 165.75599,76.079087 -0.38753,-3.362702 -27.77922,-4.078305 -0.14763,0.18659 -0.244,0.313715 8.99319,14.301743 19.56519,-7.361041 z"
         inkscape:connector-curvature="0"
         id="path173"
         style="fill:url(#radialGradient3820);stroke:none" />
      <path
         d="m 144.65092,90.700698 -8.68151,-2.811138 -1.02932,-4.314104 -1.82078,-0.596674 c 0,0 1.89665,5.946244 5.2778,10.723744 6.85459,4.7775 5.17939,2.450263 5.18554,2.450263 1.22616,0.71765 2.04633,0.71765 2.05248,0.71765 -0.004,-0.71765 -3.07975,-0.871433 -3.94503,-5.741201 0.9186,1.845386 4.60937,2.8706 4.82056,2.665558 0.13533,-0.136696 -0.44972,-1.144823 -1.75517,-3.024383 l -0.10457,-0.06972 z"
         inkscape:connector-curvature="0"
         id="path185"
         style="fill:#000000;stroke:none" />
      <path
         d="m 142.08994,95.53766 c 0,0 -4.37767,-0.297312 -8.1033,-7.685009 -2.20011,-7.641948 2.90341,4.39612 8.10945,7.685009 l -0.006,0 z"
         inkscape:connector-curvature="0"
         id="path187"
         style="fill:#2d61a1;stroke:none;fill-opacity:1" />
      <path
         d="m 131.82139,78.681082 c 0,0 0.52901,11.525462 6.37888,13.42211 -2.97722,-4.049598 -3.822,-11.94375 -3.81585,-11.94375 l -2.56303,-1.47836 z"
         inkscape:connector-curvature="0"
         id="path189"
         style="fill:#2d61a1;stroke:none;fill-opacity:1" />
      <path
         d="m 151.0093,59.296326 c 0,0 -14.04544,2.255472 -17.6788,11.072317 -2.49127,6.229203 3.14741,11.560319 3.99834,10.713492 -0.004,0 -3.06129,-3.979883 -0.0492,-9.926128 2.00395,-3.964162 6.58051,-7.91739 13.72967,-11.859681 z"
         inkscape:connector-curvature="0"
         id="path193"
         style="fill:#000000;stroke:none" />
      <path
         d="m 151.0093,59.296326 c 0,0 -14.04544,2.255472 -17.6788,11.072317 -2.49127,6.229203 3.14741,11.560319 3.99834,10.713492 -0.004,0 -3.89992,-4.613466 -0.4593,-10.867275 2.28828,-4.169205 7.00154,-7.808717 14.13976,-10.918534 z"
         inkscape:connector-curvature="0"
         id="path195"
         style="fill:#092f82;stroke:none;fill-opacity:1" />
    </g>
    <g
       transform="matrix(1.6939731,0,0,1.6939731,-211.09731,-53.163325)"
       id="g3891"
       style="display:inline">
      <path
         d="m 164.77178,41.576403 c -1.06622,-0.996509 -3.54109,-1.662898 -4.94358,-1.947908 -1.2077,-0.24195 -2.49332,-0.319867 -3.71128,-0.410086 -0.84067,-0.05946 -3.23557,-0.01435 -4.25259,0.09022 -2.56713,0.266556 -3.5944,1.213854 -5.65918,2.67376 -1.89255,1.330728 -4.67703,2.780382 -5.49925,5.107619 -0.65204,1.29177 -0.0656,3.354501 -0.0349,4.623717 l 0.0349,0.893987 c -0.039,-0.06356 -0.0574,-0.102521 -0.0513,-0.102521 0.006,0 -1.14004,2.827542 0.13327,4.100859 0.0123,-0.114825 0.039,-0.227599 0.0841,-0.338321 l -0.082,0.338321 c 0,0 0.55566,-1.017014 1.57678,-1.548075 1.02111,-0.531061 1.95815,-1.000609 2.72091,-1.459906 0.76276,-0.459295 3.15356,-2.374396 5.10147,-2.239068 1.29861,0.09159 5.05773,0.752507 11.27736,1.982765 l 0.64999,-3.143308 -1.17695,-0.887836 c 0.12508,-0.330118 0.22145,-0.680742 0.40394,-0.980105 0.44699,-0.768911 0.50235,-1.439401 0.49415,-2.316985 1.03752,-0.246051 2.20011,-0.67254 2.8788,-1.554225 0.57822,-0.770961 0.85708,-2.132446 0.0615,-2.882903 l -0.006,0 z"
         inkscape:connector-curvature="0"
         id="path199"
         style="fill:#000000;stroke:none" />
      <path
         d="m 164.77178,41.576403 c -1.06622,-0.996509 -3.54109,-1.662898 -4.94358,-1.947908 -1.2077,-0.24195 -2.49332,-0.319867 -3.71128,-0.410086 -0.84067,-0.05946 -3.23557,-0.01435 -4.25259,0.09022 -2.56713,0.266556 -3.5944,1.213854 -5.65918,2.67376 -1.89255,1.330728 -4.67703,2.780382 -5.49925,5.107619 -0.65204,1.29177 -0.0656,3.354501 -0.0349,4.623717 l 0.0349,0.893987 c -0.039,-0.06356 -0.0574,-0.102521 -0.0513,-0.102521 0.006,0 -1.14004,2.827542 0.13327,4.100859 0.13738,-1.33278 2.25548,-2.357994 2.26163,-2.357994 l 1.56037,-0.785315 c 0.23785,-0.161984 0.89194,-0.559767 1.10108,-0.768911 1.24462,-0.7197 2.28828,-1.511166 3.76049,-1.656747 1.94176,-0.19479 3.77894,0.668441 5.7166,0.459297 1.58703,-0.172237 3.75843,-0.397783 5.13837,-1.277417 0.64794,-0.416238 0.66639,-1.261015 1.04162,-1.888446 0.44699,-0.76686 0.50236,-1.439401 0.49416,-2.316985 1.03751,-0.246051 2.20011,-0.67254 2.8788,-1.554225 0.55361,-0.770961 0.83247,-2.132446 0.0369,-2.882903 l -0.006,0 z"
         inkscape:connector-curvature="0"
         id="path201"
         style="fill:#145b9a;stroke:none;fill-opacity:1" />
      <path
         d="m 150.18913,38.16859 c -0.22349,0.09432 -0.45109,0.225547 -0.67459,0.38343 0.2276,-0.157883 0.4552,-0.291161 0.68074,-0.38343 l -0.006,0 z m 0,0 c -1.97456,1.281518 -2.70041,3.930672 -2.69426,3.930672 0.20094,-0.08612 0.49825,-0.463397 0.89809,-0.924743 -0.2399,0.276808 -0.44495,0.52491 -0.60693,0.695095 0.0102,-0.04921 0.81402,-2.183707 2.40925,-3.701024 l -0.006,0 z M 149.574,36.733289 c -4.40842,3.221224 -4.20543,5.806816 -4.19928,5.806816 0.0636,-0.03281 0.14559,-0.09227 0.24606,-0.172236 -0.008,-0.0021 -0.12508,-1.990967 3.95937,-5.63458 l -0.006,0 z m 1.09288,2.563037 c -1.01701,1.4353 -0.23785,1.742864 -0.2317,1.742864 0.006,0 -0.28911,-0.47775 0.2317,-1.742864 z m -1.08467,0.66844 c 0.32601,-0.264506 0.68689,-0.502356 1.09082,-0.66844 -0.42033,0.174286 -0.77916,0.410086 -1.08467,0.66844 -0.006,0 -0.006,0 0,0 l -0.006,0 z"
         inkscape:connector-curvature="0"
         id="path203"
         style="fill:#1a1a1a;stroke:none" />
      <path
         d="m 141.15904,46.14681 c 2.79269,-8.527735 8.41496,-9.413521 8.42111,-9.413521 -4.41252,3.221224 -4.20953,5.806816 -4.20338,5.806816 0.72176,-0.364977 3.03464,-3.619008 4.81851,-4.371515 -1.97661,1.281518 -2.70451,3.930672 -2.69836,3.930672 0.49005,-0.205043 1.51732,-2.109891 3.18021,-2.802936 -1.01906,1.4353 -0.24195,1.742864 -0.2358,1.742864 l -9.28229,5.10762 z"
         inkscape:connector-curvature="0"
         id="path205"
         style="fill:#145b9a;stroke:none;fill-opacity:1" />
      <path
         d="m 142.82399,52.812754 c 0.83863,-1.213854 3.67437,-5.929841 8.60155,-9.552949 -5.18348,3.007979 -10.58226,2.940316 -8.5954,9.552949 l -0.006,0 z"
         inkscape:connector-curvature="0"
         id="path237"
         style="fill:url(#linearGradient3912);stroke:none" />
      <path
         d="m 145.2804,50.916107 c -0.89603,0.896038 -1.96841,0.686894 -2.05247,-0.494153 -0.13123,-1.66905 1.65879,-1.845386 2.43796,-1.591133 0.26245,0.756609 -0.0697,1.494763 -0.37933,2.085286"
         inkscape:connector-curvature="0"
         id="path239"
         style="fill:#000064;stroke:none" />
      <path
         d="m 145.36652,50.69261 c -0.28911,0.539263 -0.9637,0.756609 -1.33688,0.553616 -0.38138,-0.202992 -0.37933,-0.881684 -0.0841,-1.420947 0.28501,-0.539263 1.54397,-0.297312 1.55012,-0.297312 0.006,0 0.15993,0.627431 -0.12918,1.164643 z"
         inkscape:connector-curvature="0"
         id="path241"
         style="fill:#ea8600;stroke:none;fill-opacity:1" />
      <path
         d="m 144.09321,50.725418 c 0.26245,0.328068 0.66434,0.444942 0.90219,0.260403 0.22759,-0.186588 0.33216,-0.734053 0.0738,-1.062121 -0.26656,-0.33012 -0.79762,-0.313716 -1.02316,-0.129177 -0.24195,0.184538 -0.21735,0.602826 0.0533,0.930895 l -0.006,0 z"
         inkscape:connector-curvature="0"
         id="path243"
         style="fill:#000000;stroke:none;fill-opacity:1" />
      <path
         d="m 143.09875,54.17834 c 0,0 0,-0.512607 -0.14763,-1.025214 -1.76542,0.598724 -2.31084,-0.647936 -2.30468,-0.647936 0.006,0 -1.14209,2.827542 0.13122,4.100859 0.13738,-1.33278 2.25547,-2.357994 2.26163,-2.357994"
         inkscape:connector-curvature="0"
         id="path245"
         style="fill:#ccdbe5;stroke:none;fill-opacity:1" />
      <path
         d="m 140.76946,54.342375 c 0,0 0.0143,-0.846828 0.39984,-1.00061 -0.004,0.166084 0.19274,0.295261 0.39163,0.295261 -0.53722,0.05331 -0.79147,0.705349 -0.78532,0.705349 l -0.006,0 z"
         inkscape:connector-curvature="0"
         id="path249"
         style="fill:#000000;stroke:none;fill-opacity:1" />
    </g>
    <g
       transform="matrix(1.6939731,0,0,1.6939731,-244.97678,-87.042774)"
       clip-path="url(#clipPath4196)"
       id="g3922"
       style="display:inline">
      <path
         d="m 194.57284,75.283521 -8.95423,-3.735881 -0.76891,8.663063 c 0.0984,0.559766 0.16403,1.164644 0.20709,1.804377 -0.0103,-0.106623 -0.0164,-0.209144 -0.0185,-0.313716 -0.74431,11.906842 -7.80803,18.004818 -11.35323,19.577496 4.45559,0.30757 7.19291,-1.24256 7.19906,-1.24256 0.006,0 -0.59667,0.72995 -2.18576,1.70391 1.99917,0 6.97146,-1.896648 7.95157,-3.895818 l 0.5085,0.205044 c -0.002,0 9.68623,-6.766416 7.42051,-22.765915 l -0.006,0 z"
         inkscape:connector-curvature="0"
         id="path207"
         style="fill:#145b9a;stroke:none;fill-opacity:1" />
      <path
         d="m 185.03014,81.701364 c -0.74021,11.906842 -7.80394,18.004818 -11.34913,19.577496 8.74303,-1.902796 11.84533,-12.847987 11.35528,-19.577496 l -0.006,0 z"
         inkscape:connector-curvature="0"
         id="path209"
         style="fill:#145b9a;stroke:none;fill-opacity:1" />
      <path
         d="m 178.69841,101.74021 c 0,0 7.02272,-2.768081 7.84905,-9.073151 3.27453,0.461347 -3.44062,8.099191 -7.8429,9.073151 l -0.006,0 z"
         inkscape:connector-curvature="0"
         id="path211"
         style="fill:#000000;stroke:none;fill-opacity:1" />
      <path
         d="m 179.93072,70.932511 c -2.28418,-3.338099 -5.80271,-4.39202 -9.08545,-4.39202 5.9565,0.752508 14.72208,9.210528 9.8072,18.591241 2.90546,-3.901966 1.9151,-10.342364 -0.7156,-14.199221 l -0.006,0 z"
         inkscape:connector-curvature="0"
         id="path213"
         style="fill:#000000;stroke:none" />
      <path
         d="m 185.05679,81.311783 c -1.59318,3.436519 -4.41047,3.819949 -4.40432,3.819949 0.006,0 2.35389,0.410086 4.3018,-1.947907 0.27886,-0.340372 0.28911,-0.996509 0.10868,-1.872042 l -0.006,0 z"
         inkscape:connector-curvature="0"
         id="path215"
         style="fill:#000000;stroke:none" />
      <path
         d="m 194.57284,75.283521 -8.95423,-3.735881 -0.76891,8.663063 c 0.082,0.469547 0.14148,0.971903 0.18454,1.498863 -0.002,-0.0041 -0.002,-0.0082 0.004,-0.0082 0.004,0.104572 0.0102,0.207093 0.0225,0.313716 -0.0103,-0.102521 -0.0185,-0.202992 -0.0205,-0.303463 -0.0308,0.43264 -0.0677,0.857079 -0.10457,1.275367 -0.11483,1.86589 -0.13123,5.329065 1.02316,7.426653 0.78532,-1.187198 1.57473,-2.669658 1.84949,-4.154168 0.12303,1.507065 -0.59052,3.44472 -1.28972,4.947685 0.2317,0.262455 0.50235,0.4798 0.81402,0.639733 0.11687,0.04921 0.2358,0.08612 0.36088,0.116875 0.98215,-1.213854 2.57738,-3.459074 2.99157,-5.704293 0.14353,1.77157 -0.86528,4.139815 -1.65469,5.694041 3.3668,-0.920643 5.66123,-8.306288 5.70839,-8.437516 -0.004,-0.0021 -0.004,-0.0021 0.002,-0.0041 0.26246,-2.413355 0.26861,-5.148627 -0.16198,-8.228372 l -0.006,0 z"
         inkscape:connector-curvature="0"
         id="path217"
         style="fill:#86bad4;stroke:none;fill-opacity:1" />
      <path
         d="m 187.56652,79.33927 c 0.56387,3.280686 -1.64034,8.099196 -1.63419,8.099196 0.006,0 3.29299,-0.645886 4.74674,-7.652202 0,0 -0.30961,4.865668 -0.9514,6.011857 -0.004,0 3.17406,-1.486561 3.84661,-7.535327 0.67254,-6.048765 -3.69488,-9.739537 -5.07892,-9.021888 -0.92269,0.478434 -1.2323,3.844555 -0.92884,10.098364 z"
         inkscape:connector-curvature="0"
         id="path223"
         style="fill:#0b3b88;stroke:none;fill-opacity:1" />
      <path
         d="m 194.68971,75.984768 c 0,-0.002 0,-0.002 0.006,-0.0041 -0.33217,-2.146799 -0.90834,-4.186976 -1.6834,-6.02211 -1.99507,-4.679079 -5.30856,-7.535327 -9.14287,-8.714324 -8.71842,-0.820171 -13.02432,5.296258 -13.01817,5.296258 3.28479,0 6.80332,1.053921 9.09365,4.39202 2.63275,3.856857 3.62311,10.297255 0.71765,14.199221 -0.004,0 6.04467,-0.820172 5.43569,-10.867274 -0.004,0 2.14885,4.20338 -0.61308,9.995842 -0.004,0 5.58332,-1.38404 3.84661,-12.148793 -0.004,0 1.27742,2.460515 0.87348,8.150456 -0.004,0 2.30263,-1.603435 2.30878,-6.510113 -0.004,0 1.58499,5.177334 0.002,8.458021 -0.004,0 0.0226,-0.09022 0.14353,-0.180438 0.49416,-0.418288 2.43386,-2.075034 2.03608,-6.044665 l -0.006,0 z"
         inkscape:connector-curvature="0"
         id="path225"
         style="fill:#145b9a;stroke:none;fill-opacity:1" />
      <path
         d="m 180.3162,71.537388 c 1.10928,1.839234 1.78182,3.955277 2.01967,6.085673 0.15994,0.434691 0.57617,1.131836 1.1503,0.971904 0.47159,-0.135329 0.90013,-0.678693 1.17899,-1.070324 0.35268,-0.510558 0.4921,-1.131838 0.83043,-1.650596 0.15788,-0.256304 0.37932,-0.48185 0.41008,-0.797617 0.006,-0.110723 -0.0328,-0.766861 0.19479,-0.746356 -0.006,-0.02255 -0.006,-0.04306 -0.002,-0.06561 -0.004,0 0.0102,0.03076 0.041,0.08407 0.15583,0.135329 0.21529,0.451095 0.28091,0.639735 0.0882,0.297312 0.16813,0.598724 0.2481,0.900138 0.12508,0.516708 0.4798,1.447603 1.14209,0.871433 0.30141,-0.268607 0.488,-0.676642 0.65204,-1.04367 0.14968,-0.356774 0.2399,-0.713548 0.29936,-1.099029 0.0984,-0.729953 0.0677,-1.726462 0.61103,-2.302632 -0.0144,-0.06766 -0.0246,-0.135328 -0.0287,-0.202993 -0.004,0 0.0369,0.07997 0.10867,0.239901 0.24195,0.161983 0.58027,0.315765 0.87144,0.155833 0.2645,-0.149682 0.38138,-0.488003 0.45929,-0.766861 0.10662,-0.426489 0.14558,-0.873483 0.2358,-1.308174 0.0943,-0.498254 0.19479,-1.008811 0.15994,-1.517317 0.21734,0.502355 0.45519,0.990357 0.65203,1.507065 0.15378,0.42854 0.31167,0.86118 0.34652,1.320476 0.0267,0.389582 0.0185,0.781213 0.0718,1.170795 0.0349,0.309615 0.10662,0.690995 0.38343,0.887836 0.11892,-1.662898 0.37523,-3.463174 -0.15788,-5.080963 -0.87144,-1.689554 -2.00122,-3.251981 -3.40577,-4.531448 -1.48451,-1.343031 -3.24583,-2.357994 -5.15067,-2.944417 -8.71843,-0.820171 -13.02433,5.298309 -13.01818,5.298309 1.77157,0 3.5657,0.307564 5.18964,1.062122 1.74901,0.844777 3.19662,2.226767 4.23208,3.932724 l -0.006,0 z"
         inkscape:connector-curvature="0"
         id="path227"
         style="fill:#145b9a;stroke:none;fill-opacity:1" />
    </g>
    <path
       d="m 16.431949,16.000145 c -0.256243,0.05454 -0.437531,0.283533 -0.431817,0.545453 l 0,62.908946 c 2.9e-5,0.301236 0.244221,0.545424 0.545453,0.545453 l 62.908946,0 c 0.301235,-2.9e-5 0.545425,-0.244217 0.545453,-0.545453 l 0,-62.908946 c -2.8e-5,-0.301233 -0.244218,-0.545423 -0.545453,-0.545453 l -13.40906,0 c 0.684479,0.332709 1.293451,0.690086 1.772723,1.090907 l 11.090883,0 0,61.818039 -61.818038,0 0,-61.818039 14.70451,0 c 0.259488,-0.386919 0.531546,-0.739893 0.795454,-1.090907 l -16.045418,0 c -0.03777,-0.004 -0.07586,-0.004 -0.113636,0 z m 19.977227,0 c -0.211035,0.408174 -0.3608,0.77738 -0.477272,1.090907 l 1.136361,0 c 0.301073,-0.328881 0.662615,-0.722927 0.999997,-1.090907 l -1.659086,0 z"
       inkscape:connector-curvature="0"
       id="rect4183"
       style="fill:#3e69a6;fill-opacity:1;fill-rule:nonzero;stroke:none;display:inline" />
  </g>
  <g
     id="layer4">
    <g
       transform="matrix(0.69994394,0,0,0.69994394,4.2320049,3.9068954)"
       clip-path="url(#clipPath4175)"
       id="g4297"
       style="opacity:0.4;display:inline">
      <path
         d="m 80.565369,102.02827 a 44.699646,44.699646 0 1 1 -89.3992923,0 44.699646,44.699646 0 1 1 89.3992923,0 z"
         transform="matrix(-0.7731136,0.1448245,-0.1448245,-0.7731136,112.47644,175.15278)"
         id="path4090"
         style="fill:none;stroke:none;display:inline" />
      <g
         transform="matrix(1.0999703,-0.8686176,0.8686176,1.0999703,-60.966992,18.730288)"
         id="g4118" />
    </g>
  </g>
  <g
     id="layer5" />
</svg>
