<?xml version="1.0" encoding="UTF-8" standalone="no"?>
<!-- Created with Inkscape (http://www.inkscape.org/) -->

<svg
   xmlns:dc="http://purl.org/dc/elements/1.1/"
   xmlns:cc="http://creativecommons.org/ns#"
   xmlns:rdf="http://www.w3.org/1999/02/22-rdf-syntax-ns#"
   xmlns:svg="http://www.w3.org/2000/svg"
   xmlns="http://www.w3.org/2000/svg"
   xmlns:xlink="http://www.w3.org/1999/xlink"
   xmlns:sodipodi="http://sodipodi.sourceforge.net/DTD/sodipodi-0.dtd"
   xmlns:inkscape="http://www.inkscape.org/namespaces/inkscape"
   version="1.0"
   width="96"
   height="96"
   id="svg2408"
   inkscape:version="0.48.4 r9939"
   sodipodi:docname="time-admin.svg">
  <sodipodi:namedview
     pagecolor="#ffffff"
     bordercolor="#666666"
     borderopacity="1"
     objecttolerance="10"
     gridtolerance="10"
     guidetolerance="10"
     inkscape:pageopacity="0"
     inkscape:pageshadow="2"
     inkscape:window-width="1680"
     inkscape:window-height="991"
     id="namedview131"
     showgrid="false"
     showguides="false"
     inkscape:guide-bbox="true"
     inkscape:zoom="4.6246922"
     inkscape:cx="71.082941"
     inkscape:cy="40.776885"
     inkscape:window-x="0"
     inkscape:window-y="-3"
     inkscape:window-maximized="1"
     inkscape:current-layer="svg2408">
    <sodipodi:guide
       orientation="0,1"
       position="22.305724,66.098615"
       id="guide3137" />
    <sodipodi:guide
       orientation="0,1"
       position="54.229514,74.079562"
       id="guide3139" />
  </sodipodi:namedview>
  <defs
     id="defs2410">
    <linearGradient
       id="linearGradient3741">
      <stop
         id="stop3743"
         style="stop-color:#1a1a1a;stop-opacity:1"
         offset="0" />
      <stop
         id="stop3749"
         style="stop-color:#0f0f0f;stop-opacity:1"
         offset="0.85000002" />
      <stop
         id="stop3745"
         style="stop-color:#000000;stop-opacity:1"
         offset="1" />
    </linearGradient>
    <linearGradient
       id="linearGradient3703">
      <stop
         id="stop3705"
         style="stop-color:#1a1a1a;stop-opacity:1"
         offset="0" />
      <stop
         id="stop3711"
         style="stop-color:#1e1e1e;stop-opacity:1"
         offset="0.34999999" />
      <stop
         id="stop3707"
         style="stop-color:#0a0a0a;stop-opacity:1"
         offset="1" />
    </linearGradient>
    <linearGradient
       id="linearGradient3224">
      <stop
         id="stop3226"
         style="stop-color:#282828;stop-opacity:1"
         offset="0" />
      <stop
         id="stop3228"
         style="stop-color:#464646;stop-opacity:1"
         offset="1" />
    </linearGradient>
    <linearGradient
       id="linearGradient3465">
      <stop
         id="stop3467"
         style="stop-color:#919191;stop-opacity:1"
         offset="0" />
      <stop
         id="stop3469"
         style="stop-color:#fdfdfd;stop-opacity:1"
         offset="1" />
    </linearGradient>
    <linearGradient
       id="linearGradient3187">
      <stop
         id="stop3189"
         style="stop-color:#b4b4b4;stop-opacity:1"
         offset="0" />
      <stop
         id="stop3191"
         style="stop-color:#e6e6e6;stop-opacity:1"
         offset="1" />
    </linearGradient>
    <linearGradient
       x1="45.447727"
       y1="92.539597"
       x2="45.447727"
       y2="7.0165396"
       id="ButtonShadow"
       gradientUnits="userSpaceOnUse"
       gradientTransform="scale(1.0058652,0.994169)">
      <stop
         id="stop3750"
         style="stop-color:#000000;stop-opacity:1"
         offset="0" />
      <stop
         id="stop3752"
         style="stop-color:#000000;stop-opacity:0.58823532"
         offset="1" />
    </linearGradient>
    <linearGradient
       id="linearGradient3737">
      <stop
         id="stop3739"
         style="stop-color:#ffffff;stop-opacity:1"
         offset="0" />
      <stop
         id="stop3741"
         style="stop-color:#ffffff;stop-opacity:0"
         offset="1" />
    </linearGradient>
    <filter
       color-interpolation-filters="sRGB"
       id="filter3174">
      <feGaussianBlur
         id="feGaussianBlur3176"
         stdDeviation="1.71" />
    </filter>
    <linearGradient
       x1="36.357143"
       y1="6"
       x2="36.357143"
       y2="63.893143"
       id="linearGradient3188"
       xlink:href="#linearGradient3737"
       gradientUnits="userSpaceOnUse" />
    <linearGradient
       x1="48"
       y1="90"
       x2="48"
       y2="5.9877172"
       id="linearGradient3427"
       xlink:href="#linearGradient3187"
       gradientUnits="userSpaceOnUse" />
    <linearGradient
       x1="43.17857"
       y1="13"
       x2="43.17857"
       y2="83.294571"
       id="linearGradient3279"
       xlink:href="#linearGradient3465"
       gradientUnits="userSpaceOnUse"
       gradientTransform="matrix(1.0294118,0,0,1.0294118,-1.4117647,-1.411765)" />
    <linearGradient
       id="linearGradient3737-7">
      <stop
         id="stop3739-2"
         style="stop-color:#ffffff;stop-opacity:1"
         offset="0" />
      <stop
         id="stop3741-7"
         style="stop-color:#ffffff;stop-opacity:0"
         offset="1" />
    </linearGradient>
    <radialGradient
       cx="48"
       cy="90.171875"
       r="42"
       fx="48"
       fy="90.171875"
       id="radialGradient2874"
       xlink:href="#linearGradient3737-7"
       gradientUnits="userSpaceOnUse"
       gradientTransform="matrix(1.1573129,0,0,0.99590774,-7.551021,0.1971319)" />
    <linearGradient
       id="linearGradient3737-4">
      <stop
         id="stop3739-8"
         style="stop-color:#ffffff;stop-opacity:1"
         offset="0" />
      <stop
         id="stop3741-71"
         style="stop-color:#ffffff;stop-opacity:0"
         offset="1" />
    </linearGradient>
    <clipPath
       id="clipPath3613">
      <rect
         width="84"
         height="84"
         rx="6"
         ry="6"
         x="6"
         y="6"
         id="rect3615"
         style="fill:#ffffff;fill-opacity:1;fill-rule:nonzero;stroke:none" />
    </clipPath>
    <filter
       x="-0.192"
       y="-0.192"
       width="1.3839999"
       height="1.3839999"
       color-interpolation-filters="sRGB"
       id="filter3794">
      <feGaussianBlur
         id="feGaussianBlur3796"
         stdDeviation="5.28" />
    </filter>
    <linearGradient
       x1="48"
       y1="20.220806"
       x2="48"
       y2="138.66119"
       id="linearGradient2908"
       xlink:href="#linearGradient3737-4"
       gradientUnits="userSpaceOnUse" />
    <linearGradient
       x1="39.285713"
       y1="19.75"
       x2="39.285713"
       y2="25.84864"
       id="linearGradient3709"
       xlink:href="#linearGradient3703"
       gradientUnits="userSpaceOnUse"
       spreadMethod="repeat" />
    <linearGradient
       x1="31.607143"
       y1="35.92857"
       x2="31.607143"
       y2="42.015106"
       id="linearGradient3719"
       xlink:href="#linearGradient3703"
       gradientUnits="userSpaceOnUse"
       spreadMethod="repeat" />
    <linearGradient
       x1="31.607143"
       y1="35.92857"
       x2="31.607143"
       y2="42.015106"
       id="linearGradient3723"
       xlink:href="#linearGradient3703"
       gradientUnits="userSpaceOnUse"
       gradientTransform="translate(30,28)"
       spreadMethod="repeat" />
    <linearGradient
       x1="61.785713"
       y1="36.035713"
       x2="61.785713"
       y2="48.041718"
       id="linearGradient3731"
       xlink:href="#linearGradient3703"
       gradientUnits="userSpaceOnUse"
       spreadMethod="repeat" />
    <radialGradient
       cx="32.410713"
       cy="65.73214"
       r="12.053572"
       fx="32.410713"
       fy="65.73214"
       id="radialGradient3747"
       xlink:href="#linearGradient3741"
       gradientUnits="userSpaceOnUse" />
    <linearGradient
       x1="44.758911"
       y1="82.362946"
       x2="44.758911"
       y2="13.924098"
       id="linearGradient3895"
       xlink:href="#linearGradient3224"
       gradientUnits="userSpaceOnUse" />
    <linearGradient
       x1="45.447727"
       y1="92.539597"
       x2="45.447727"
       y2="7.0165396"
       id="ButtonShadow-0"
       gradientUnits="userSpaceOnUse"
       gradientTransform="matrix(1.0058652,0,0,0.994169,100,0)">
      <stop
         id="stop3750-8"
         style="stop-color:#000000;stop-opacity:1"
         offset="0" />
      <stop
         id="stop3752-5"
         style="stop-color:#000000;stop-opacity:0.58823532"
         offset="1" />
    </linearGradient>
    <linearGradient
       x1="32.251034"
       y1="6.1317081"
       x2="32.251034"
       y2="90.238609"
       id="linearGradient3780"
       xlink:href="#ButtonShadow-0"
       gradientUnits="userSpaceOnUse"
       gradientTransform="matrix(1.0238095,0,0,1.0119048,-1.1428571,-98.071429)" />
    <linearGradient
       x1="32.251034"
       y1="6.1317081"
       x2="32.251034"
       y2="90.238609"
       id="linearGradient3772"
       xlink:href="#ButtonShadow-0"
       gradientUnits="userSpaceOnUse"
       gradientTransform="matrix(1.0238095,0,0,1.0119048,-1.1428571,-98.071429)" />
    <linearGradient
       x1="32.251034"
       y1="6.1317081"
       x2="32.251034"
       y2="90.238609"
       id="linearGradient3725"
       xlink:href="#ButtonShadow-0"
       gradientUnits="userSpaceOnUse"
       gradientTransform="matrix(1.0238095,0,0,1.0119048,-1.1428571,-98.071429)" />
    <linearGradient
       x1="32.251034"
       y1="6.1317081"
       x2="32.251034"
       y2="90.238609"
       id="linearGradient3721"
       xlink:href="#ButtonShadow-0"
       gradientUnits="userSpaceOnUse"
       gradientTransform="translate(0,-97)" />
    <linearGradient
       x1="32.251034"
       y1="6.1317081"
       x2="32.251034"
       y2="90.238609"
       id="linearGradient3173"
       xlink:href="#ButtonShadow-0"
       gradientUnits="userSpaceOnUse"
       gradientTransform="matrix(1.0238095,0,0,1.0119048,-1.1428571,-98.071429)" />
  </defs>
  <metadata
     id="metadata2413">
    <rdf:RDF>
      <cc:Work
         rdf:about="">
        <dc:format>image/svg+xml</dc:format>
        <dc:type
           rdf:resource="http://purl.org/dc/dcmitype/StillImage" />
      </cc:Work>
    </rdf:RDF>
  </metadata>
  <rect
     style="fill:#cbcbcb;fill-opacity:1;fill-rule:evenodd;stroke:none"
     id="rect3098"
     width="84.329933"
     height="84.329933"
     x="5.8382263"
     y="5.8318367"
     rx="0" />
  <g
     id="layer2"
     style="display:none">
    <rect
       width="86"
       height="85"
       rx="6"
       ry="6"
       x="5"
       y="7"
       id="rect3745"
       style="opacity:0.9;fill:url(#ButtonShadow);fill-opacity:1;fill-rule:nonzero;stroke:none;filter:url(#filter3174)" />
  </g>
  <g
     id="layer3">
    <rect
       width="77.914963"
       height="78.516495"
       rx="5.8527675"
       ry="6.1732869"
       x="8.1408806"
       y="8.2544327"
       id="rect3461"
       style="fill:url(#linearGradient3895);fill-opacity:1;stroke:none" />
    <rect
       width="56"
       height="12"
       rx="3"
       ry="3"
       x="20"
       y="20"
       id="rect3661"
       style="fill:#1e1e1e;fill-opacity:1;stroke:none" />
    <rect
       width="26"
       height="12"
       rx="3"
       ry="3"
       x="20"
       y="36"
       id="rect3663"
       style="fill:#1e1e1e;fill-opacity:1;stroke:none" />
    <rect
       width="26"
       height="24"
       rx="3"
       ry="3"
       x="50"
       y="36"
       id="rect3665"
       style="fill:#1e1e1e;fill-opacity:1;stroke:none" />
    <path
       d="m 44.464285,65.73214 a 12.053572,12.053572 0 1 1 -24.107144,0 12.053572,12.053572 0 1 1 24.107144,0 z"
       transform="matrix(0.99555553,0,0,0.99555553,-0.26666479,-1.439995)"
       id="path3669"
       style="fill:#1e1e1e;fill-opacity:1;stroke:none" />
    <path
       d="m 23,19 c -1.662,0 -3,1.338 -3,3 l 0,1 c 0,-1.662 1.338,-3 3,-3 l 50,0 c 1.662,0 3,1.338 3,3 l 0,-1 c 0,-1.662 -1.338,-3 -3,-3 l -50,0 z"
       inkscape:connector-curvature="0"
       id="rect3671"
       style="opacity:0.8;fill:#000000;fill-opacity:1;stroke:none" />
    <path
       d="m 23,35 c -1.662,0 -3,1.338 -3,3 l 0,1 c 0,-1.662 1.338,-3 3,-3 l 20,0 c 1.662,0 3,1.338 3,3 l 0,-1 c 0,-1.662 -1.338,-3 -3,-3 l -20,0 z"
       inkscape:connector-curvature="0"
       id="path3681"
       style="opacity:0.8;fill:#000000;fill-opacity:1;stroke:none" />
    <path
       d="m 53,35 c -1.662,0 -3,1.338 -3,3 l 0,1 c 0,-1.662 1.338,-3 3,-3 l 20,0 c 1.662,0 3,1.338 3,3 l 0,-1 c 0,-1.662 -1.338,-3 -3,-3 l -20,0 z"
       inkscape:connector-curvature="0"
       id="path3685"
       style="opacity:0.8;fill:#000000;fill-opacity:1;stroke:none" />
    <path
       d="m 53,63 c -1.662,0 -3,1.338 -3,3 l 0,1 c 0,-1.662 1.338,-3 3,-3 l 20,0 c 1.662,0 3,1.338 3,3 l 0,-1 c 0,-1.662 -1.338,-3 -3,-3 l -20,0 z"
       inkscape:connector-curvature="0"
       id="path3689"
       style="opacity:0.8;fill:#000000;fill-opacity:1;stroke:none" />
    <path
       d="m 32,51 c -6.627417,0 -12,5.372583 -12,12 0,0.170031 0.02425,0.33169 0.03125,0.5 C 20.297212,57.107991 25.542614,52 32,52 38.457386,52 43.702788,57.107991 43.96875,63.5 43.975753,63.33169 44,63.170031 44,63 44,56.372583 38.627417,51 32,51 z"
       inkscape:connector-curvature="0"
       id="path3693"
       style="opacity:0.6;fill:#000000;fill-opacity:1;stroke:none" />
    <rect
       width="26"
       height="12"
       rx="3"
       ry="3"
       x="50"
       y="64"
       id="rect3721"
       style="fill:#1e1e1e;fill-opacity:1;stroke:none" />
    <g
       id="text3751"
       style="font-size:11.29931068px;font-style:normal;font-variant:normal;font-weight:bold;font-stretch:normal;text-align:start;line-height:125%;writing-mode:lr-tb;text-anchor:start;fill:#f2f2f2;fill-opacity:1;stroke:none;font-family:Liberation Sans;-inkscape-font-specification:Abandoned Bitplane Bold">
      <path
         d="m 35.828965,29.889656 0,-1.075862 c 0.176551,-0.386205 0.391723,-0.733791 0.645517,-1.042759 0.253792,-0.312641 0.518619,-0.597698 0.794483,-0.855172 0.279538,-0.261146 0.5554,-0.502066 0.827586,-0.722759 0.275859,-0.224364 0.522296,-0.439536 0.73931,-0.645517 0.220686,-0.209651 0.399077,-0.419306 0.535173,-0.628966 0.136088,-0.20965 0.204134,-0.432178 0.204138,-0.667586 -4e-6,-0.345741 -0.08644,-0.601373 -0.259311,-0.766896 -0.172877,-0.165511 -0.42667,-0.24827 -0.761379,-0.248276 -0.331037,6e-6 -0.58483,0.09012 -0.761379,0.270345 -0.172876,0.176558 -0.28506,0.443224 -0.336552,0.8 l -1.561379,-0.08828 c 0.03678,-0.305282 0.112183,-0.592178 0.226207,-0.86069 0.114022,-0.268499 0.275861,-0.503901 0.485517,-0.706207 0.213332,-0.202291 0.478159,-0.360452 0.794483,-0.474483 0.319997,-0.117693 0.700687,-0.176543 1.142069,-0.176551 0.419306,8e-6 0.7908,0.04966 1.114482,0.148965 0.323674,0.09564 0.595858,0.237249 0.816552,0.424828 0.220685,0.187593 0.388041,0.417478 0.502069,0.689655 0.114017,0.268512 0.171029,0.575638 0.171035,0.921379 -6e-6,0.364144 -0.07173,0.693339 -0.215173,0.987587 -0.143453,0.294257 -0.327361,0.56644 -0.551724,0.816551 -0.224373,0.246441 -0.474487,0.478165 -0.750345,0.695173 -0.272188,0.217014 -0.537015,0.428508 -0.794483,0.634483 -0.257474,0.205979 -0.492876,0.413795 -0.706207,0.623448 -0.209657,0.209657 -0.365979,0.434024 -0.468965,0.673103 l 3.608276,0 0,1.274483 -5.44,0"
         inkscape:connector-curvature="0"
         id="path3856" />
      <path
         d="m 47.547586,26.000001 c -6e-6,0.742991 -0.06805,1.370117 -0.204138,1.881379 -0.136098,0.507588 -0.325523,0.919541 -0.568276,1.235862 -0.239085,0.312644 -0.524143,0.538851 -0.855173,0.678621 -0.32736,0.136092 -0.68598,0.204138 -1.075862,0.204138 -0.389888,0 -0.748508,-0.06805 -1.075862,-0.204138 -0.327358,-0.136092 -0.608737,-0.360459 -0.844138,-0.673104 -0.235403,-0.31632 -0.419311,-0.728274 -0.551724,-1.235862 -0.132414,-0.511261 -0.198621,-1.140226 -0.198621,-1.886896 0,-0.783444 0.06437,-1.4308 0.193104,-1.942069 0.132413,-0.514936 0.31816,-0.925051 0.557241,-1.230345 0.239079,-0.30528 0.524136,-0.518613 0.855173,-0.64 0.33471,-0.12505 0.704365,-0.187578 1.108965,-0.187586 0.378847,8e-6 0.730111,0.06254 1.053793,0.187586 0.327352,0.121387 0.608731,0.33472 0.844138,0.64 0.239075,0.305294 0.424822,0.715409 0.557242,1.230345 0.136086,0.511269 0.204132,1.158625 0.204138,1.942069 m -1.555862,0 c -5e-6,-0.548042 -0.02023,-1.000455 -0.06069,-1.357242 -0.04046,-0.360454 -0.104832,-0.645511 -0.193104,-0.855172 -0.08828,-0.213327 -0.204141,-0.362292 -0.347586,-0.446897 -0.139773,-0.08459 -0.310808,-0.12689 -0.513103,-0.126896 -0.217015,6e-6 -0.399083,0.04414 -0.546207,0.132414 -0.147129,0.0846 -0.266669,0.233569 -0.358621,0.446896 -0.08828,0.213339 -0.152646,0.500236 -0.193103,0.86069 -0.03678,0.356786 -0.05518,0.805522 -0.05517,1.346207 -2e-6,0.533336 0.02023,0.978394 0.06069,1.335172 0.04046,0.356784 0.104825,0.64368 0.193103,0.86069 0.08827,0.213335 0.204136,0.364139 0.347587,0.452414 0.143445,0.08828 0.319997,0.132415 0.529655,0.132414 0.202295,10e-7 0.375169,-0.04414 0.51862,-0.132414 0.143445,-0.08827 0.261146,-0.239079 0.353104,-0.452414 0.09195,-0.21701 0.158157,-0.503906 0.198621,-0.86069 0.04413,-0.356778 0.0662,-0.801836 0.06621,-1.335172"
         inkscape:connector-curvature="0"
         id="path3858" />
    </g>
    <rect
       width="56"
       height="0.5"
       x="20"
       y="25.5"
       id="rect3755"
       style="opacity:0.8;fill:#000000;fill-opacity:1;stroke:none" />
    <g
       id="text3771"
       style="font-size:11.29931068px;font-style:normal;font-variant:normal;font-weight:bold;font-stretch:normal;text-align:start;line-height:125%;writing-mode:lr-tb;text-anchor:start;fill:#f2f2f2;fill-opacity:1;stroke:none;font-family:Liberation Sans;-inkscape-font-specification:Abandoned Bitplane Bold">
      <path
         d="m 29.604137,43.649656 c -7e-6,0.353105 -0.06438,0.674944 -0.193103,0.965517 -0.128743,0.286898 -0.329202,0.533334 -0.60138,0.739311 -0.268511,0.205977 -0.614258,0.365977 -1.037241,0.48 -0.419315,0.110344 -0.919545,0.165517 -1.50069,0.165517 -0.514946,0 -0.969198,-0.04598 -1.362758,-0.137931 -0.393566,-0.09195 -0.731956,-0.228046 -1.015173,-0.408276 -0.279541,-0.180229 -0.507587,-0.402758 -0.684138,-0.667586 -0.172874,-0.268505 -0.297931,-0.575631 -0.375172,-0.92138 l 1.572414,-0.25931 c 0.04414,0.172876 0.108503,0.331037 0.193103,0.474483 0.0846,0.14345 0.200458,0.268507 0.347586,0.375172 0.150802,0.10299 0.336549,0.18391 0.557242,0.242759 0.224364,0.05517 0.494709,0.08276 0.811034,0.08276 0.55172,10e-7 0.972869,-0.08276 1.263449,-0.248276 0.294247,-0.169194 0.441373,-0.432182 0.441379,-0.788966 -6e-6,-0.213331 -0.05886,-0.388043 -0.176552,-0.524138 -0.117706,-0.136089 -0.274028,-0.248273 -0.468965,-0.336552 -0.194948,-0.08827 -0.419315,-0.161835 -0.673104,-0.220689 -0.253797,-0.05885 -0.518624,-0.115859 -0.794483,-0.171035 -0.220693,-0.05149 -0.441382,-0.104824 -0.662069,-0.16 -0.220692,-0.05517 -0.432186,-0.121375 -0.634482,-0.19862 -0.198623,-0.07724 -0.38437,-0.169192 -0.557242,-0.275863 -0.172875,-0.106662 -0.323679,-0.237237 -0.452414,-0.391724 -0.125058,-0.158156 -0.224368,-0.342064 -0.297931,-0.551724 -0.06988,-0.20965 -0.104828,-0.456086 -0.104827,-0.73931 -10e-7,-0.386201 0.07724,-0.717235 0.231724,-0.993104 0.154482,-0.275855 0.367815,-0.500222 0.64,-0.673103 0.27586,-0.176544 0.603216,-0.30528 0.982069,-0.386207 0.378848,-0.08091 0.79264,-0.121371 1.241379,-0.121379 0.507582,8e-6 0.941605,0.04047 1.302069,0.121379 0.364133,0.07725 0.667581,0.196789 0.910345,0.358621 0.246431,0.161846 0.439534,0.365984 0.57931,0.612413 0.143442,0.242766 0.24827,0.527823 0.314483,0.855173 l -1.577931,0.215172 c -0.08093,-0.334706 -0.246442,-0.58666 -0.496552,-0.755862 -0.246441,-0.169189 -0.601383,-0.253786 -1.064827,-0.253793 -0.2869,7e-6 -0.52598,0.02575 -0.717242,0.07724 -0.187589,0.04782 -0.338393,0.114029 -0.452413,0.19862 -0.110348,0.0846 -0.189428,0.183915 -0.237242,0.297931 -0.04782,0.110351 -0.07173,0.228052 -0.07172,0.353104 -2e-6,0.19127 0.04598,0.34943 0.137931,0.474482 0.09195,0.121385 0.220687,0.224373 0.386207,0.308966 0.165514,0.08093 0.362296,0.150809 0.590345,0.209655 0.23172,0.05518 0.485513,0.112189 0.761379,0.171035 0.242754,0.0515 0.483674,0.106671 0.722759,0.165517 0.239075,0.05518 0.467121,0.121384 0.684138,0.198621 0.217006,0.07724 0.419304,0.171038 0.606896,0.281379 0.18758,0.110349 0.349419,0.24644 0.485518,0.408276 0.139763,0.158164 0.248269,0.347589 0.325517,0.568276 0.08091,0.220692 0.121372,0.481841 0.121379,0.783448"
         inkscape:connector-curvature="0"
         id="path3870" />
      <path
         d="m 32.307586,39.920001 0,3.348965 c -3e-6,0.231727 0.01839,0.44506 0.05517,0.64 0.03678,0.191267 0.09747,0.356784 0.182069,0.496552 0.0846,0.136093 0.193101,0.24276 0.325517,0.32 0.136089,0.07724 0.301606,0.115863 0.496552,0.115862 0.187583,10e-7 0.356778,-0.04046 0.507586,-0.121379 0.154479,-0.0846 0.286893,-0.202298 0.397242,-0.353104 0.11034,-0.154481 0.194938,-0.336549 0.253793,-0.546207 0.06252,-0.213331 0.09379,-0.446894 0.09379,-0.700689 l 0,-3.2 1.550345,0 0,4.634483 c -7e-6,0.125058 -7e-6,0.257472 0,0.397241 0.0037,0.136093 0.0074,0.266667 0.01103,0.391724 0.0074,0.12138 0.01287,0.231725 0.01655,0.331035 0.0074,0.09563 0.01287,0.167356 0.01655,0.215172 l -1.478621,0 c -0.0037,-0.04414 -0.01104,-0.114023 -0.02207,-0.209655 -0.0074,-0.09931 -0.01472,-0.207816 -0.02207,-0.325517 -0.0037,-0.117701 -0.0092,-0.235402 -0.01655,-0.353104 -0.0037,-0.1177 -0.0055,-0.21701 -0.0055,-0.297931 l -0.02759,0 c -0.205982,0.452415 -0.46897,0.78161 -0.788966,0.987586 -0.316325,0.205977 -0.693336,0.308966 -1.131034,0.308966 -0.356784,0 -0.660232,-0.05885 -0.910345,-0.176552 -0.250117,-0.117701 -0.454254,-0.277701 -0.612414,-0.48 -0.154484,-0.205976 -0.266668,-0.448734 -0.336552,-0.728276 -0.06989,-0.279538 -0.104828,-0.581147 -0.104827,-0.904827 l 0,-3.790345 1.550345,0"
         inkscape:connector-curvature="0"
         id="path3872" />
      <path
         d="m 41.62069,45.889656 0,-3.348966 c -5e-6,-0.23172 -0.0184,-0.443214 -0.05517,-0.634482 -0.03679,-0.194939 -0.09748,-0.360456 -0.182068,-0.496552 -0.0846,-0.139766 -0.194947,-0.248271 -0.331035,-0.325517 -0.136096,-0.07724 -0.301613,-0.115857 -0.496552,-0.115862 -0.187589,5e-6 -0.358624,0.0423 -0.513103,0.126896 -0.150808,0.08092 -0.281382,0.198625 -0.391724,0.353104 -0.110348,0.150809 -0.196784,0.332877 -0.259311,0.546207 -0.05885,0.209658 -0.08828,0.441382 -0.08828,0.695172 l 0,3.2 -1.550344,0 0,-4.634483 c -1e-6,-0.128731 -0.0018,-0.261144 -0.0055,-0.397241 0,-0.136087 -0.0037,-0.264823 -0.01103,-0.386207 -0.0037,-0.125052 -0.0074,-0.235397 -0.01103,-0.331035 -0.0037,-0.0993 -0.0092,-0.172867 -0.01655,-0.220689 l 1.47862,0 c 0.0074,0.04414 0.01471,0.115868 0.02207,0.215172 0.0074,0.09564 0.01471,0.202305 0.02207,0.32 0.0074,0.117707 0.01287,0.235408 0.01655,0.353104 0.0074,0.117706 0.01103,0.217016 0.01103,0.297931 l 0.02207,0 c 0.209653,-0.456087 0.472641,-0.787121 0.788966,-0.993104 0.316318,-0.205971 0.69333,-0.308959 1.131035,-0.308965 0.360455,6e-6 0.663903,0.05886 0.910344,0.176551 0.25011,0.117707 0.452409,0.279546 0.606897,0.485518 0.158155,0.205982 0.272178,0.44874 0.342069,0.728276 0.06988,0.279544 0.104821,0.581153 0.104828,0.904827 l 0,3.790345 -1.544828,0"
         inkscape:connector-curvature="0"
         id="path3874" />
    </g>
    <rect
       width="26"
       height="0.5"
       x="20"
       y="41.5"
       id="rect3757"
       style="opacity:0.8;fill:#000000;fill-opacity:1;stroke:none" />
    <g
       transform="scale(0.95407876,1.0481315)"
       id="text3763"
       style="font-size:21.56086349px;font-style:normal;font-variant:normal;font-weight:bold;font-stretch:normal;text-align:start;line-height:125%;writing-mode:lr-tb;text-anchor:start;fill:#f2f2f2;fill-opacity:1;stroke:none;font-family:Liberation Sans;-inkscape-font-specification:Abandoned Bitplane Bold">
      <path
         d="m 65.100578,45.795783 c -1.1e-5,1.417745 -0.129853,2.6144 -0.389527,3.589968 -0.259695,0.968557 -0.621148,1.754629 -1.08436,2.358219 -0.456212,0.596574 -1.000146,1.028212 -1.631803,1.294915 -0.624655,0.259685 -1.308959,0.389527 -2.052915,0.389528 -0.743967,-10e-7 -1.428271,-0.129843 -2.052914,-0.389528 -0.624651,-0.259684 -1.161566,-0.687813 -1.610748,-1.284387 -0.449187,-0.60359 -0.800112,-1.389662 -1.052777,-2.358219 -0.252667,-0.975569 -0.379,-2.175733 -0.378999,-3.600496 -1e-6,-1.494934 0.122823,-2.730191 0.368472,-3.705774 0.252665,-0.982579 0.607099,-1.765142 1.063304,-2.347691 0.4562,-0.582523 1.000134,-0.989596 1.631804,-1.221221 0.638679,-0.238615 1.344039,-0.357929 2.11608,-0.357944 0.7229,1.5e-5 1.393167,0.119329 2.010804,0.357944 0.624638,0.231625 1.161554,0.638698 1.610748,1.221221 0.456193,0.582549 0.810627,1.365112 1.063304,2.347691 0.259674,0.975583 0.389516,2.21084 0.389527,3.705774 m -2.96883,0 c -8e-6,-1.04575 -0.03861,-1.909026 -0.115805,-2.589831 -0.07721,-0.687803 -0.200035,-1.231737 -0.368472,-1.631803 -0.168451,-0.407062 -0.389534,-0.691311 -0.663249,-0.852749 -0.26671,-0.161413 -0.59307,-0.242126 -0.979082,-0.242139 -0.414098,1.3e-5 -0.761514,0.08423 -1.042249,0.252667 -0.280745,0.161438 -0.508846,0.445687 -0.684305,0.852749 -0.168448,0.407084 -0.291272,0.954528 -0.368471,1.642331 -0.07019,0.680805 -0.105282,1.537062 -0.105278,2.568775 -4e-6,1.01769 0.0386,1.866929 0.115805,2.547719 0.0772,0.6808 0.200024,1.228243 0.368472,1.642331 0.16844,0.407077 0.389523,0.694835 0.663249,0.863277 0.273717,0.168447 0.610605,0.252669 1.010666,0.252667 0.386012,2e-6 0.715881,-0.08422 0.98961,-0.252667 0.273714,-0.168442 0.498307,-0.4562 0.673777,-0.863277 0.175455,-0.414088 0.301788,-0.961531 0.378999,-1.642331 0.08421,-0.68079 0.126325,-1.530029 0.126333,-2.547719"
         inkscape:connector-curvature="0"
         id="path3865" />
      <path
         d="m 67.35352,53.217857 0,-2.200303 3.67419,0 0,-10.117182 -3.558384,2.221358 0,-2.326636 3.716301,-2.410858 2.800385,0 0,12.633318 3.400469,0 0,2.200303 -10.032961,0"
         inkscape:connector-curvature="0"
         id="path3867" />
    </g>
    <rect
       width="26"
       height="0.5"
       x="50"
       y="47.5"
       id="rect3759"
       style="opacity:0.8;fill:#000000;fill-opacity:1;stroke:none" />
    <g
       id="text3767"
       style="font-size:11.29931068px;font-style:normal;font-variant:normal;font-weight:bold;font-stretch:normal;text-align:start;line-height:125%;writing-mode:lr-tb;text-anchor:start;fill:#f2f2f2;fill-opacity:1;stroke:none;font-family:Liberation Sans;-inkscape-font-specification:Abandoned Bitplane Bold">
      <path
         d="m 54.462068,73.997239 c -0.389888,0 -0.737473,-0.04046 -1.042759,-0.121379 -0.305289,-0.08092 -0.570116,-0.209655 -0.794482,-0.386207 -0.224369,-0.176551 -0.410116,-0.404597 -0.557242,-0.684138 -0.143448,-0.283217 -0.251954,-0.625286 -0.325517,-1.026207 l 1.616552,-0.237241 c 0.03678,0.217013 0.08827,0.400921 0.154483,0.551724 0.0662,0.147128 0.145285,0.268507 0.237241,0.364138 0.09563,0.09196 0.204135,0.160001 0.325517,0.204138 0.121377,0.04046 0.25379,0.06069 0.397242,0.06069 0.323674,10e-7 0.568272,-0.108504 0.733793,-0.325517 0.169191,-0.21701 0.253789,-0.527814 0.253793,-0.932414 l 0,-4.077241 -1.550345,0 0,-1.274483 3.172414,0 0,5.313103 c -6e-6,0.393566 -0.05702,0.750347 -0.171035,1.070345 -0.114028,0.316323 -0.283223,0.586668 -0.507586,0.811035 -0.220694,0.22069 -0.494717,0.391724 -0.822069,0.513103 -0.323682,0.117701 -0.697015,0.176552 -1.12,0.176552"
         inkscape:connector-curvature="0"
         id="path3849" />
      <path
         d="m 64.111723,73.886894 -0.689655,-1.986207 -2.962759,0 -0.689655,1.986207 -1.627586,0 2.835862,-7.773793 1.92,0 2.824828,7.773793 -1.611035,0 m -1.820689,-5.445517 c -0.04414,-0.12873 -0.08828,-0.257466 -0.132414,-0.386207 -0.04046,-0.132408 -0.07725,-0.251948 -0.110345,-0.358621 -0.02943,-0.110338 -0.05518,-0.200453 -0.07724,-0.270345 -0.0184,-0.06988 -0.02943,-0.108499 -0.0331,-0.115862 -0.0037,0.01104 -0.01472,0.0515 -0.0331,0.12138 -0.01839,0.06989 -0.04414,0.158167 -0.07724,0.264827 -0.02943,0.106673 -0.06621,0.226213 -0.110344,0.358621 -0.04046,0.128741 -0.08276,0.257477 -0.126897,0.386207 l -0.766897,2.234483 2.234483,0 -0.766896,-2.234483"
         inkscape:connector-curvature="0"
         id="path3851" />
      <path
         d="m 71.515862,73.886894 -3.387586,-5.986207 c 0.01839,0.161845 0.03494,0.323684 0.04966,0.485517 0.01471,0.139776 0.02575,0.29058 0.0331,0.452414 0.01103,0.161844 0.01655,0.316327 0.01655,0.463449 l 0,4.584827 -1.445517,0 0,-7.773793 1.85931,0 3.437242,6.035862 c -0.0184,-0.154481 -0.03495,-0.31632 -0.04966,-0.485517 -0.01472,-0.143446 -0.02759,-0.305285 -0.03862,-0.485517 -0.0074,-0.180227 -0.01104,-0.362296 -0.01103,-0.546207 l 0,-4.518621 1.445517,0 0,7.773793 -1.908966,0"
         inkscape:connector-curvature="0"
         id="path3853" />
    </g>
    <rect
       width="26"
       height="0.5"
       x="50"
       y="69.5"
       id="rect3761"
       style="opacity:0.8;fill:#000000;fill-opacity:1;stroke:none" />
    <g
       id="g3823"
       style="opacity:0.3">
      <rect
         width="1"
         height="3"
         x="32"
         y="53"
         id="rect3799"
         style="fill:#f2f2f2;fill-opacity:1;stroke:none" />
      <rect
         width="1"
         height="3"
         x="59.784241"
         y="28.406487"
         transform="matrix(0.8660254,0.5,-0.5,0.8660254,0,0)"
         id="rect3801"
         style="fill:#f2f2f2;fill-opacity:1;stroke:none" />
      <rect
         width="1"
         height="3"
         x="71.549339"
         y="-6.7842417"
         transform="matrix(0.5,0.8660254,-0.8660254,0.5,0,0)"
         id="rect3803"
         style="fill:#f2f2f2;fill-opacity:1;stroke:none" />
      <rect
         width="1"
         height="3"
         x="64.142853"
         y="-43.142857"
         transform="matrix(0,1,-1,0,0,0)"
         id="rect3805"
         style="fill:#f2f2f2;fill-opacity:1;stroke:none" />
      <rect
         width="1"
         height="3"
         x="39.549339"
         y="-70.927101"
         transform="matrix(-0.5,0.8660254,-0.8660254,-0.5,0,0)"
         id="rect3807"
         style="fill:#f2f2f2;fill-opacity:1;stroke:none" />
      <rect
         width="1"
         height="3"
         x="4.3586111"
         y="-82.6922"
         transform="matrix(-0.8660254,0.5,-0.5,-0.8660254,0,0)"
         id="rect3809"
         style="fill:#f2f2f2;fill-opacity:1;stroke:none" />
      <rect
         width="1"
         height="3"
         x="-32.000004"
         y="-75.285713"
         transform="scale(-1,-1)"
         id="rect3811"
         style="fill:#f2f2f2;fill-opacity:1;stroke:none" />
      <rect
         width="1"
         height="3"
         x="-59.784245"
         y="-50.6922"
         transform="matrix(-0.8660254,-0.5,0.5,-0.8660254,0,0)"
         id="rect3813"
         style="fill:#f2f2f2;fill-opacity:1;stroke:none" />
      <rect
         width="1"
         height="3"
         x="-71.549347"
         y="-15.501472"
         transform="matrix(-0.5,-0.8660254,0.8660254,-0.5,0,0)"
         id="rect3815"
         style="fill:#f2f2f2;fill-opacity:1;stroke:none" />
      <rect
         width="1"
         height="3"
         x="-64.14286"
         y="20.857143"
         transform="matrix(0,-1,1,0,0,0)"
         id="rect3817"
         style="fill:#f2f2f2;fill-opacity:1;stroke:none" />
      <rect
         width="1"
         height="3"
         x="-39.549347"
         y="48.641384"
         transform="matrix(0.5,-0.8660254,0.8660254,0.5,0,0)"
         id="rect3819"
         style="fill:#f2f2f2;fill-opacity:1;stroke:none" />
      <rect
         width="1"
         height="3"
         x="-4.3586187"
         y="60.406487"
         transform="matrix(0.8660254,-0.5,0.5,0.8660254,0,0)"
         id="rect3821"
         style="fill:#f2f2f2;fill-opacity:1;stroke:none" />
    </g>
    <rect
       width="1"
       height="11"
       x="-14.845207"
       y="-81.101463"
       transform="matrix(-0.96592583,0.25881905,-0.25881905,-0.96592583,0,0)"
       id="rect3844"
       style="fill:#d40000;fill-opacity:1;stroke:none" />
    <path
       d="m 33.84011,64.053925 a 1.8940361,1.8940361 0 1 1 -3.788073,0 1.8940361,1.8940361 0 1 1 3.788073,0 z"
       transform="matrix(1.0559461,0,0,1.0559461,-1.7333318,-3.6374918)"
       id="path3837"
       style="fill:#f2f2f2;fill-opacity:1;stroke:none" />
    <path
       d="m 25.948539,58.737752 0.811535,-0.811535 6.326497,4.987212 -2.173142,2.173142 -4.96489,-6.348819 z"
       inkscape:connector-curvature="0"
       id="rect3839"
       style="fill:#f2f2f2;fill-opacity:1;stroke:none" />
    <path
       d="m 40.381225,58.516708 0.573842,0.993923 -8.186745,5.820142 -1.536644,-2.661546 9.149547,-4.152519 z"
       inkscape:connector-curvature="0"
       id="path3842"
       style="fill:#f2f2f2;fill-opacity:1;stroke:none" />
    <path
       d="m 33.84011,64.053925 a 1.8940361,1.8940361 0 1 1 -3.788073,0 1.8940361,1.8940361 0 1 1 3.788073,0 z"
       transform="matrix(0.52261278,0,0,0.52261278,15.304574,30.524601)"
       id="path3846"
       style="fill:#000000;fill-opacity:1;stroke:none" />
    <path
       d="m 17,14 c -1.662,0 -3,1.338 -3,3 l 0,62 c 0,1.662 1.338,3 3,3 l 62,0 c 1.662,0 3,-1.338 3,-3 l 0,-62 c 0,-1.662 -1.338,-3 -3,-3 l -62,0 z m 0,0.96875 62,0 c 1.140081,0 2.03125,0.891169 2.03125,2.03125 l 0,62 c 0,1.140081 -0.891169,2.03125 -2.03125,2.03125 l -62,0 c -1.140081,0 -2.03125,-0.891169 -2.03125,-2.03125 l 0,-62 c 0,-1.140081 0.891169,-2.03125 2.03125,-2.03125 z"
       inkscape:connector-curvature="0"
       id="rect3977"
       style="opacity:0.6;color:#000000;fill:#000000;fill-opacity:1;fill-rule:nonzero;stroke:none;stroke-width:1;marker:none;visibility:visible;display:inline;overflow:visible;enable-background:accumulate" />
    <rect
       style="opacity:0.8;fill:#000000;fill-opacity:1;stroke:none"
       id="rect3953"
       y="41.5"
       x="20"
       height="0.5"
       width="26" />
    <rect
       style="opacity:0.8;fill:#000000;fill-opacity:1;stroke:none"
       id="rect3955"
       y="47.5"
       x="50"
       height="0.5"
       width="26" />
    <rect
       style="opacity:0.8;fill:#000000;fill-opacity:1;stroke:none"
       id="rect3957"
       y="69.5"
       x="50"
       height="0.5"
       width="26" />
  </g>
  <path
     style="font-size:21.56086349px;font-style:normal;font-variant:normal;font-weight:bold;font-stretch:normal;text-align:start;line-height:125%;writing-mode:lr-tb;text-anchor:start;fill:#f2f2f2;fill-opacity:1;stroke:none;font-family:Liberation Sans;-inkscape-font-specification:Abandoned Bitplane Bold"
     d="m 48.939172,29.916685 0,-1.156191 2.009676,0 0,-5.316277 -1.946332,1.167257 0,-1.222578 2.032708,-1.266833 1.531729,0 0,6.638431 1.859957,0 0,1.156191 -5.487738,0"
     inkscape:connector-curvature="0"
     id="path3867-6" />
  <g
     id="layer1"
     style="display:inline">
    <path
       d="M 12,6 C 6.0382086,6 6,5.918309 6,12 l 0,72 c 0,5.841892 0.1581083,6 6,6 l 72,0 c 5.961791,0 6,-0.03821 6,-6 L 90,12 C 90,5.918309 89.961791,6 84,6 z m 5,7 62,0 c 2.216001,0 4,1.784 4,4 l 0,62 c 10e-7,2.216001 -1.784,4 -4,4 l -62,0 c -2.215999,10e-7 -4,-1.784 -4,-4 l 0,-62 c 0,-2.215999 1.784,-4 4,-4 z"
       inkscape:connector-curvature="0"
       id="rect2419"
       style="fill:#cbcbcb;fill-opacity:1;fill-rule:nonzero;stroke:none"
       sodipodi:nodetypes="ssssssssssssssssss" />
  </g>
  <path
     style="font-size:21.56086349px;font-style:normal;font-variant:normal;font-weight:bold;font-stretch:normal;text-align:start;line-height:125%;writing-mode:lr-tb;text-anchor:start;fill:#f2f2f2;fill-opacity:1;stroke:none;font-family:Liberation Sans;-inkscape-font-specification:Abandoned Bitplane Bold"
     d="m 58.304353,29.943565 0,-6.7054 -2.43718,2.942257 -0.798424,-0.76651 3.32198,-3.478514 1.531729,0 0,8.008167"
     inkscape:connector-curvature="0"
     id="path3867-6-8"
     sodipodi:nodetypes="ccccccc" />
  <rect
     style="fill:#f2f2f2;fill-opacity:1;fill-rule:evenodd;stroke:none"
     id="rect3161"
     width="1.3519937"
     height="6.1469703"
     x="-27.815319"
     y="54.619442"
     rx="0.62584126"
     ry="0"
     transform="matrix(-0.01793716,-0.99983912,0.99981097,-0.01944301,0,0)" />
  <rect
     width="55.821522"
     height="0.5"
     x="20.074806"
     y="25.450903"
     id="rect3755-4"
     style="opacity:0.8;fill:#000000;fill-opacity:1;stroke:none" />
  <rect
     style="opacity:0.8;fill:#000000;fill-opacity:1;stroke:none"
     id="rect3951"
     y="25.450903"
     x="20.074806"
     height="0.5"
     width="55.821522" />
</svg>
