<?xml version="1.0" encoding="UTF-8" standalone="no"?>
<!-- Created with Inkscape (http://www.inkscape.org/) -->

<svg
   xmlns:dc="http://purl.org/dc/elements/1.1/"
   xmlns:cc="http://creativecommons.org/ns#"
   xmlns:rdf="http://www.w3.org/1999/02/22-rdf-syntax-ns#"
   xmlns:svg="http://www.w3.org/2000/svg"
   xmlns="http://www.w3.org/2000/svg"
   xmlns:xlink="http://www.w3.org/1999/xlink"
   xmlns:sodipodi="http://sodipodi.sourceforge.net/DTD/sodipodi-0.dtd"
   xmlns:inkscape="http://www.inkscape.org/namespaces/inkscape"
   version="1.0"
   width="96"
   height="96"
   id="svg2408"
   inkscape:version="0.48.4 r9939"
   sodipodi:docname="xbmc.svg">
  <sodipodi:namedview
     pagecolor="#ffffff"
     bordercolor="#666666"
     borderopacity="1"
     objecttolerance="10"
     gridtolerance="10"
     guidetolerance="10"
     inkscape:pageopacity="0"
     inkscape:pageshadow="2"
     inkscape:window-width="1680"
     inkscape:window-height="991"
     id="namedview57"
     showgrid="false"
     inkscape:zoom="6.6287901"
     inkscape:cx="108.44587"
     inkscape:cy="45.548511"
     inkscape:window-x="0"
     inkscape:window-y="-3"
     inkscape:window-maximized="1"
     inkscape:current-layer="svg2408" />
  <defs
     id="defs2410">
    <linearGradient
       id="linearGradient3710">
      <stop
         id="stop3712"
         style="stop-color:#d9822e;stop-opacity:1"
         offset="0" />
      <stop
         id="stop3714"
         style="stop-color:#d9822e;stop-opacity:0"
         offset="1" />
    </linearGradient>
    <linearGradient
       x1="45.447727"
       y1="92.539597"
       x2="45.447727"
       y2="7.0165396"
       id="ButtonShadow"
       gradientUnits="userSpaceOnUse"
       gradientTransform="scale(1.0058652,0.994169)">
      <stop
         id="stop3750"
         style="stop-color:#000000;stop-opacity:1"
         offset="0" />
      <stop
         id="stop3752"
         style="stop-color:#000000;stop-opacity:0.58823532"
         offset="1" />
    </linearGradient>
    <linearGradient
       id="linearGradient3737">
      <stop
         id="stop3739"
         style="stop-color:#ffffff;stop-opacity:1"
         offset="0" />
      <stop
         id="stop3741"
         style="stop-color:#ffffff;stop-opacity:0"
         offset="1" />
    </linearGradient>
    <linearGradient
       id="linearGradient3700">
      <stop
         id="stop3702"
         style="stop-color:#344262;stop-opacity:1"
         offset="0" />
      <stop
         id="stop3704"
         style="stop-color:#4a5e8c;stop-opacity:1"
         offset="1" />
    </linearGradient>
    <filter
       color-interpolation-filters="sRGB"
       id="filter3174">
      <feGaussianBlur
         id="feGaussianBlur3176"
         stdDeviation="1.71" />
    </filter>
    <linearGradient
       x1="36.357143"
       y1="6"
       x2="36.357143"
       y2="63.893143"
       id="linearGradient3188"
       xlink:href="#linearGradient3737"
       gradientUnits="userSpaceOnUse" />
    <filter
       x="-0.192"
       y="-0.192"
       width="1.3839999"
       height="1.3839999"
       color-interpolation-filters="sRGB"
       id="filter3794">
      <feGaussianBlur
         id="feGaussianBlur3796"
         stdDeviation="5.28" />
    </filter>
    <linearGradient
       x1="48"
       y1="20.220806"
       x2="48"
       y2="138.66119"
       id="linearGradient3613"
       xlink:href="#linearGradient3737"
       gradientUnits="userSpaceOnUse" />
    <radialGradient
       cx="48"
       cy="90.171875"
       r="42"
       fx="48"
       fy="90.171875"
       id="radialGradient3619"
       xlink:href="#linearGradient3737"
       gradientUnits="userSpaceOnUse"
       gradientTransform="matrix(1.1573129,0,0,0.99590774,-7.5510206,0.19713193)" />
    <clipPath
       id="clipPath3613">
      <rect
         width="84"
         height="84"
         rx="6"
         ry="6"
         x="6"
         y="6"
         id="rect3615"
         style="fill:#ffffff;fill-opacity:1;fill-rule:nonzero;stroke:none" />
    </clipPath>
    <linearGradient
       x1="48"
       y1="90"
       x2="48"
       y2="5.9877172"
       id="linearGradient3617"
       xlink:href="#linearGradient3700"
       gradientUnits="userSpaceOnUse" />
    <linearGradient
       x1="45.447727"
       y1="92.539597"
       x2="45.447727"
       y2="7.0165396"
       id="ButtonShadow-0"
       gradientUnits="userSpaceOnUse"
       gradientTransform="matrix(1.0058652,0,0,0.994169,100,0)">
      <stop
         id="stop3750-8"
         style="stop-color:#000000;stop-opacity:1"
         offset="0" />
      <stop
         id="stop3752-5"
         style="stop-color:#000000;stop-opacity:0.58823532"
         offset="1" />
    </linearGradient>
    <linearGradient
       x1="32.251034"
       y1="6.1317081"
       x2="32.251034"
       y2="90.238609"
       id="linearGradient3780"
       xlink:href="#ButtonShadow-0"
       gradientUnits="userSpaceOnUse"
       gradientTransform="matrix(1.0238095,0,0,1.0119048,-1.1428571,-98.071429)" />
    <linearGradient
       x1="32.251034"
       y1="6.1317081"
       x2="32.251034"
       y2="90.238609"
       id="linearGradient3772"
       xlink:href="#ButtonShadow-0"
       gradientUnits="userSpaceOnUse"
       gradientTransform="matrix(1.0238095,0,0,1.0119048,-1.1428571,-98.071429)" />
    <linearGradient
       x1="32.251034"
       y1="6.1317081"
       x2="32.251034"
       y2="90.238609"
       id="linearGradient3725"
       xlink:href="#ButtonShadow-0"
       gradientUnits="userSpaceOnUse"
       gradientTransform="matrix(1.0238095,0,0,1.0119048,-1.1428571,-98.071429)" />
    <linearGradient
       x1="32.251034"
       y1="6.1317081"
       x2="32.251034"
       y2="90.238609"
       id="linearGradient3721"
       xlink:href="#ButtonShadow-0"
       gradientUnits="userSpaceOnUse"
       gradientTransform="translate(0,-97)" />
    <linearGradient
       x1="32.251034"
       y1="6.1317081"
       x2="32.251034"
       y2="90.238609"
       id="linearGradient3026"
       xlink:href="#ButtonShadow-0"
       gradientUnits="userSpaceOnUse"
       gradientTransform="matrix(1.0238095,0,0,1.0119048,-1.1428571,-98.071429)" />
    <linearGradient
       x1="56"
       y1="64"
       x2="16"
       y2="64"
       id="linearGradient3716"
       xlink:href="#linearGradient3710"
       gradientUnits="userSpaceOnUse" />
  </defs>
  <metadata
     id="metadata2413">
    <rdf:RDF>
      <cc:Work
         rdf:about="">
        <dc:format>image/svg+xml</dc:format>
        <dc:type
           rdf:resource="http://purl.org/dc/dcmitype/StillImage" />
        <dc:title />
      </cc:Work>
    </rdf:RDF>
  </metadata>
  <g
     id="layer2"
     style="display:none">
    <rect
       width="86"
       height="85"
       rx="6"
       ry="6"
       x="5"
       y="7"
       id="rect3745"
       style="opacity:0.9;fill:url(#ButtonShadow);fill-opacity:1;fill-rule:nonzero;stroke:none;filter:url(#filter3174)" />
  </g>
  <g
     id="layer1"
     style="display:inline">
    <rect
       width="84"
       height="84"
       rx="6"
       ry="0"
       x="6"
       y="6"
       id="rect2419"
       style="fill:#445680;fill-opacity:1;fill-rule:nonzero;stroke:none" />
  </g>
  <g
     id="layer5"
     style="display:inline" />
  <g
     id="layer4">
    <path
       d="m 33.875,38.3125 c -0.205446,0 -0.230222,0.03412 -0.25,0.125 -0.0124,0.05696 -0.140937,0.902082 -0.28125,1.875 -0.140316,0.972917 -0.266855,1.766811 -0.28125,1.78125 -0.01438,0.01444 -1.030528,0.04737 -2.25,0.0625 -2.169003,0.02691 -2.237764,0.0069 -2.78125,0.125 -1.757434,0.38197 -3.251411,1.256689 -4.71875,2.6875 l -0.53125,0.5 L 22.6875,45.3125 C 22.143184,44.433573 21.752058,43.966633 21.1875,43.5 20.344847,42.80351 19.4162,42.394225 18.25,42.21875 17.883739,42.16364 17.264289,42.12522 15.28125,42.125 c -2.230294,-2.3e-4 -2.474997,0.02861 -2.5,0.09375 -0.05217,0.135933 -0.03386,0.849061 0.03125,1.09375 0.190732,0.716501 0.718675,1.314394 1.4375,1.59375 0.241603,0.09389 0.361968,0.09398 1.5625,0.125 1.433947,0.03706 1.747316,0.106836 2.3125,0.34375 0.927264,0.388693 1.733295,1.298502 2,2.34375 0.176432,0.691437 0.08586,1.72754 -0.1875,2.53125 -0.571144,1.679234 -2.122208,3.104858 -3.84375,3.5625 -0.400885,0.106569 -0.546542,0.123904 -1.8125,0.15625 -1.460399,0.03731 -1.620459,0.07555 -2.15625,0.3125 -0.568846,0.251572 -1.213294,0.770979 -1.59375,1.3125 -0.244209,0.347601 -0.512146,0.886433 -0.53125,1.125 l 0,0.15625 2.25,0.03125 c 2.352276,0.01413 2.980663,-0.02484 3.78125,-0.1875 1.678309,-0.341001 3.312979,-1.241449 4.75,-2.65625 0.251642,-0.247748 0.462614,-0.46875 0.46875,-0.46875 0.0061,0 0.09677,0.169474 0.21875,0.375 0.736694,1.241301 1.870161,2.147773 3.21875,2.59375 0.915092,0.302621 1.067105,0.323677 3.9375,0.34375 l 2.5625,0.03125 0.0625,-0.125 c 0.06824,-0.17949 0.04732,-0.760953 -0.03125,-1.0625 -0.204993,-0.787028 -0.776424,-1.412588 -1.53125,-1.65625 -0.271649,-0.08769 -0.451188,-0.09457 -1.65625,-0.125 -1.532146,-0.03869 -1.744185,-0.0618 -2.40625,-0.40625 -1.088422,-0.56626 -1.842088,-1.849057 -1.84375,-3.125 -7.58e-4,-0.667441 0.228202,-1.613383 0.53125,-2.21875 0.542575,-1.083852 1.632786,-2.157335 2.75,-2.6875 0.787361,-0.373634 1.495182,-0.499936 3.03125,-0.5 0.735098,-3.3e-5 0.971948,-0.02251 1.25,-0.09375 0.419545,-0.107485 0.770522,-0.249079 1.09375,-0.46875 0.135456,-0.09206 0.271135,-0.15625 0.28125,-0.15625 0.04825,0 -0.02482,0.445704 -0.34375,2.625 -0.444116,3.034729 -0.439162,3.02318 -0.4375,3.78125 0.0038,1.728875 0.582467,3.172901 1.84375,4.4375 0.71327,0.715148 1.424002,1.144278 2.34375,1.46875 0.36378,0.128337 1.147642,0.300067 1.5625,0.34375 0.358165,0.03771 1.352421,0.04428 1.71875,0 1.670853,-0.201974 3.097722,-0.820638 4.5,-1.9375 1.051084,-0.837148 1.890767,-1.820748 2.5,-2.96875 0.103429,-0.194894 0.20225,-0.330349 0.21875,-0.34375 -0.04533,0.215044 -0.07336,0.478651 -0.125,0.8125 -0.08963,0.617341 -0.240608,1.631335 -0.46875,3.1875 -0.116861,0.7971 -0.156055,1.199556 -0.125,1.21875 0.08031,0.04963 0.460796,0.03192 0.8125,-0.0625 0.270794,-0.0727 0.503314,-0.208366 0.75,-0.34375 0.086,-0.04719 0.167836,-0.10233 0.25,-0.15625 0.03563,-0.02338 0.09016,-0.03793 0.125,-0.0625 0.0808,-0.05701 0.142504,-0.124357 0.21875,-0.1875 0.529038,-0.438133 0.937306,-1.012278 1.15625,-1.65625 0.01373,-0.04027 0.05032,-0.05302 0.0625,-0.09375 0.0071,-0.02376 0.01922,-0.190959 0.03125,-0.25 0.01518,-0.07332 0.04078,-0.192808 0.0625,-0.3125 0.03802,-0.209665 0.07369,-0.404107 0.125,-0.71875 0.07151,-0.438434 0.141131,-0.905617 0.21875,-1.4375 0.190805,-1.307441 0.386307,-2.551087 0.4375,-2.75 0.05119,-0.198913 0.206746,-0.562011 0.34375,-0.84375 0.69649,-1.432305 2.028772,-2.549139 3.5,-2.9375 0.317465,-0.0838 0.502907,-0.09229 1.15625,-0.09375 0.907091,-0.002 1.232621,0.07378 1.875,0.40625 0.741786,0.383926 1.476937,1.257315 1.75,2.09375 0.296184,0.907277 0.2973,1.173208 -0.125,4.0625 -0.365395,2.499978 -0.409035,2.978149 -0.28125,3.46875 0.201427,0.773329 0.861898,1.464486 1.625,1.75 0.261377,0.0978 0.862013,0.202903 0.9375,0.15625 0.02447,-0.01513 0.288422,-1.724613 0.59375,-3.8125 0.540059,-3.692992 0.621362,-4.265072 0.8125,-4.75 0.542115,-1.37536 1.846752,-2.621201 3.21875,-3.125 0.590388,-0.21679 0.816775,-0.24832 1.625,-0.25 0.915253,-0.0019 1.15163,0.01917 1.8125,0.34375 0.697639,0.342632 1.289189,1.004104 1.65625,1.78125 0.27276,0.577479 0.345294,0.857225 0.34375,1.6875 -0.0012,0.676024 -0.03559,0.919556 -0.34375,2.96875 -0.381798,2.538741 -0.405883,2.848935 -0.1875,3.4375 0.289836,0.78115 1.006242,1.426643 1.78125,1.625 0.292651,0.0749 0.673718,0.107541 0.71875,0.0625 0.0148,-0.01481 0.12527,-0.705505 0.25,-1.5625 0.252142,-1.732452 0.284775,-1.78125 0.34375,-1.78125 0.02296,0 0.07676,0.111072 0.15625,0.25 0.372673,0.651371 1.165664,1.540013 1.8125,2 0.706412,0.502355 1.634366,0.857329 2.5625,1.03125 0.461009,0.08639 0.734189,0.105096 3.03125,0.125 1.387611,0.01202 2.563217,-0.0157 2.625,-0.03125 0.108473,-0.02722 0.09484,-0.01817 0.09375,-0.40625 -7.59e-4,-0.221041 -0.0051,-0.511779 -0.03125,-0.625 -0.142061,-0.616507 -0.673881,-1.259757 -1.25,-1.5625 -0.485835,-0.255299 -0.768266,-0.311579 -1.96875,-0.3125 -1.099905,-8.35e-4 -1.581396,-0.03803 -2.125,-0.21875 -0.853646,-0.283797 -1.713496,-1.100736 -2.125,-2 -0.606419,-1.325199 -0.387103,-3.038459 0.5625,-4.46875 0.283826,-0.427503 1.013704,-1.188252 1.46875,-1.5 0.450663,-0.308744 1.035496,-0.563065 1.5625,-0.71875 C 80.329538,45.040436 80.421425,45.034402 81.75,45 c 1.518399,-0.03932 1.6957,-0.08573 2.25,-0.34375 0.609642,-0.28378 1.263222,-0.88077 1.59375,-1.4375 0.180526,-0.304077 0.383663,-0.771476 0.40625,-1 l 0,-0.15625 -2.40625,0 c -2.490346,-0.01401 -2.938735,0.01331 -3.75,0.1875 -2.128137,0.456976 -4.24533,1.947339 -5.5625,3.90625 -0.321991,0.478871 -0.329491,0.484707 -0.5,0 -0.487619,-1.386201 -1.699126,-2.757065 -3.0625,-3.4375 -0.879622,-0.439002 -1.916541,-0.65087 -3,-0.65625 -0.650076,-0.0033 -1.328679,0.05819 -1.96875,0.21875 -1.53161,0.38419 -2.941618,1.192327 -4.125,2.3125 -0.214733,0.203264 -0.423348,0.34375 -0.4375,0.34375 -0.01416,0 -0.111,-0.128953 -0.25,-0.3125 C 60.600416,44.179888 59.983602,43.572119 59.53125,43.25 58.804716,42.732633 57.778908,42.323647 56.875,42.15625 56.332793,42.055835 54.865678,42.034018 54.34375,42.125 c -1.891292,0.329684 -3.492629,1.186134 -4.9375,2.625 -0.205892,0.205037 -0.388064,0.419404 -0.5625,0.625 -0.0092,0.01075 -0.02213,0.02047 -0.03125,0.03125 -0.0095,0.0113 -0.02184,0.01993 -0.03125,0.03125 -0.06634,0.07986 -0.125144,0.167824 -0.1875,0.25 -0.08072,0.104866 -0.174867,0.20428 -0.25,0.3125 -0.01284,0.01848 -0.0185,0.04394 -0.03125,0.0625 -0.284412,0.417101 -0.544246,0.859973 -0.78125,1.375 -0.05109,0.111099 -0.105887,0.225774 -0.15625,0.34375 l -0.03125,0.15625 -0.03125,0.03125 -0.09375,-0.5625 c -0.176974,-1.189664 -0.635519,-2.177591 -1.4375,-3.125 C 45.06757,43.438153 44.152951,42.800141 43.125,42.4375 42.111436,42.079932 41.387152,42.002147 38.3125,42 L 36.25,42 36.28125,41.75 C 36.44614,40.460556 36.256209,39.790803 35.5625,39.09375 35.058417,38.587248 34.472611,38.3125 33.875,38.3125 z M 35.84375,44.96875 38.40625,45 c 2.871267,0.01959 2.843066,0.01315 3.59375,0.375 1.406148,0.677789 2.249502,2.259052 2.0625,3.875 -0.141029,1.218689 -0.626658,2.253558 -1.4375,3.09375 -0.850229,0.881009 -1.689933,1.381842 -2.6875,1.59375 -0.491833,0.104479 -1.463283,0.09446 -1.9375,0 -1.411718,-0.281197 -2.576157,-1.493063 -2.84375,-2.96875 -0.107608,-0.593419 -0.06154,-1.128957 0.28125,-3.5 0.180639,-1.249488 0.350912,-2.316661 0.375,-2.375 l 0.03125,-0.125 z"
       inkscape:connector-curvature="0"
       id="path3723"
       style="opacity:0.3;fill:#000000;fill-opacity:1" />
    <path
       d="m 67.705486,41.055105 c -0.650076,-0.0033 -1.316248,0.07657 -1.956319,0.23713 -1.53161,0.38419 -2.954529,1.168127 -4.137911,2.2883 -0.214733,0.203264 -0.400825,0.36755 -0.414977,0.36755 -0.01416,0 -0.133699,-0.148434 -0.272699,-0.331981 -0.337084,-0.445112 -0.934856,-1.029519 -1.387208,-1.351638 -0.726534,-0.517367 -1.751943,-0.947113 -2.655851,-1.11451 -0.542207,-0.100415 -2.003502,-0.102832 -2.52543,-0.01185 -1.891292,0.329684 -3.511137,1.181416 -4.956008,2.620282 -0.823568,0.820149 -1.366344,1.603625 -1.861467,2.679564 -0.206728,0.47492 -0.2102,0.481055 -0.260843,1.233074 -0.07129,1.058843 -0.190773,1.676661 -0.509828,2.561 -0.0795,0.220371 -0.169424,0.636514 -0.272699,1.304211 -0.08963,0.617341 -0.234261,1.621372 -0.462403,3.177537 -0.116861,0.7971 -0.161476,1.21388 -0.130421,1.233074 0.08031,0.04963 0.454537,0.01142 0.806241,-0.083 0.270794,-0.0727 0.523984,-0.184741 0.77067,-0.320125 0.086,-0.04719 0.166823,-0.100214 0.248987,-0.154134 0.03563,-0.02338 0.07187,-0.04656 0.106708,-0.07113 0.0808,-0.05701 0.160884,-0.114704 0.23713,-0.177847 0.529038,-0.438133 0.94299,-1.015936 1.161934,-1.659908 0.03058,-0.102421 0.06355,-0.222345 0.09485,-0.367551 0.01518,-0.07332 0.03756,-0.188576 0.05928,-0.308268 0.03802,-0.209665 0.06725,-0.384889 0.118564,-0.699532 0.07151,-0.438434 0.147654,-0.914607 0.225273,-1.44649 0.190805,-1.307441 0.387497,-2.539934 0.43869,-2.738847 0.05119,-0.198913 0.206834,-0.583784 0.343838,-0.865523 0.69649,-1.432305 2.014577,-2.540189 3.485805,-2.92855 0.317465,-0.0838 0.508591,-0.105249 1.161934,-0.106708 0.907091,-0.002 1.242802,0.07065 1.885181,0.40312 0.741786,0.383926 1.469839,1.262161 1.742902,2.098596 0.296184,0.907277 0.291878,1.177481 -0.130422,4.066773 -0.365395,2.499978 -0.400483,2.97149 -0.272698,3.462091 0.201427,0.773329 0.849379,1.481102 1.612481,1.766616 0.261377,0.0978 0.861174,0.18893 0.936661,0.142277 0.02447,-0.01513 0.287497,-1.729899 0.592825,-3.817786 0.540059,-3.692992 0.638816,-4.257663 0.829954,-4.742591 0.542115,-1.37536 1.817394,-2.626312 3.189392,-3.130111 0.590388,-0.21679 0.816112,-0.247305 1.624337,-0.248985 0.915253,-0.0019 1.153171,0.04297 1.814041,0.367551 0.697639,0.342632 1.316559,1.001326 1.68362,1.778472 0.27276,0.577479 0.32167,0.841487 0.320126,1.671762 -0.0012,0.676024 -0.02382,0.914926 -0.331982,2.96412 -0.381798,2.538741 -0.39623,2.873527 -0.177847,3.462092 0.289836,0.78115 0.979751,1.42598 1.754759,1.624337 0.292651,0.0749 0.701926,0.104321 0.746958,0.05928 0.0148,-0.01481 0.124256,-0.719917 0.248986,-1.576912 0.252142,-1.732452 0.261149,-1.766615 0.320124,-1.766615 0.02296,0 0.09836,0.110058 0.177848,0.248986 0.372673,0.651371 1.167205,1.520045 1.814041,1.980032 0.706412,0.502355 1.609153,0.869449 2.537287,1.04337 0.461009,0.08639 0.738197,0.09866 3.035258,0.118564 1.387611,0.01202 2.570355,0.0037 2.632138,-0.01185 0.108473,-0.02722 0.107794,-0.03875 0.106708,-0.426832 -7.59e-4,-0.221041 -0.02132,-0.49146 -0.04743,-0.604681 -0.142061,-0.616507 -0.656954,-1.286025 -1.233073,-1.588768 -0.485835,-0.255299 -0.791405,-0.295491 -1.991889,-0.296412 -1.099905,-8.35e-4 -1.578706,-0.05641 -2.12231,-0.23713 -0.853646,-0.283797 -1.710804,-1.080768 -2.122308,-1.980032 -0.606419,-1.325199 -0.392349,-3.039601 0.557254,-4.469892 0.283826,-0.427503 1.03887,-1.182168 1.493916,-1.493916 0.450663,-0.308744 1.014338,-0.579417 1.541342,-0.735102 0.392038,-0.115814 0.485467,-0.119732 1.814042,-0.154134 1.518399,-0.03932 1.698431,-0.07396 2.252731,-0.331982 0.609642,-0.28378 1.281952,-0.877904 1.61248,-1.434634 0.180526,-0.304077 0.356821,-0.76742 0.379408,-0.995944 l 0.01183,-0.165991 -2.395008,-0.01185 c -2.490346,-0.01401 -2.935383,0.01551 -3.746648,0.189704 -2.128137,0.456976 -4.255375,1.94187 -5.572545,3.900781 -0.321991,0.478871 -0.339319,0.484707 -0.509828,0 -0.487619,-1.386201 -1.695592,-2.734236 -3.058966,-3.414671 -0.879622,-0.439002 -1.928086,-0.670439 -3.011545,-0.675819 z"
       inkscape:connector-curvature="0"
       id="path3672"
       style="fill:#bdd1e3;fill-opacity:1" />
    <path
       d="m 33.878953,37.320314 c -0.205446,0 -0.241064,0.01583 -0.260842,0.106708 -0.0124,0.05696 -0.132387,0.900406 -0.2727,1.873324 -0.140316,0.972917 -0.270161,1.775889 -0.284556,1.790328 -0.01438,0.01444 -1.021402,0.04415 -2.240874,0.05928 -2.169003,0.02691 -2.23093,0.02415 -2.774416,0.142278 -1.757434,0.38197 -3.275252,1.236896 -4.742591,2.667707 l -0.521686,0.497972 -0.083,-0.130421 c -0.544316,-0.878927 -0.953071,-1.371121 -1.517629,-1.837754 -0.842653,-0.69649 -1.774207,-1.105024 -2.940407,-1.280499 -0.366261,-0.05511 -0.969223,-0.07092 -2.952262,-0.07114 -2.230294,-2.3e-4 -2.488571,0.006 -2.513574,0.07114 -0.05217,0.135933 -0.02956,0.86982 0.03555,1.114509 0.190732,0.716501 0.727665,1.297555 1.44649,1.576911 0.241603,0.09389 0.364524,0.111254 1.565056,0.142279 1.433947,0.03706 1.746829,0.08321 2.312013,0.320124 0.927264,0.388693 1.713327,1.326048 1.980032,2.371296 0.176432,0.691437 0.107368,1.698007 -0.165991,2.501717 -0.571144,1.679234 -2.119957,3.123014 -3.841499,3.580656 -0.400885,0.106569 -0.55994,0.121788 -1.825898,0.154134 -1.460399,0.03731 -1.622087,0.05946 -2.157878,0.296412 -0.568846,0.251572 -1.208314,0.786405 -1.58877,1.327926 -0.244209,0.347601 -0.502581,0.899655 -0.521685,1.138222 l -0.01183,0.154134 2.264587,0.02372 c 2.352276,0.01413 2.957917,-0.01519 3.758504,-0.177847 1.678309,-0.341001 3.317427,-1.264763 4.754448,-2.679564 0.251642,-0.247748 0.456267,-0.450546 0.462403,-0.450546 0.0061,0 0.11515,0.162025 0.23713,0.367551 0.736694,1.241301 1.85266,2.150592 3.201249,2.596569 0.915092,0.302621 1.065956,0.311908 3.936351,0.331981 l 2.584711,0.02371 0.04743,-0.118565 c 0.06824,-0.17949 0.05485,-0.75368 -0.02372,-1.055227 -0.204993,-0.787028 -0.774659,-1.404388 -1.529485,-1.64805 -0.271649,-0.08769 -0.466702,-0.09999 -1.671764,-0.130422 -1.532146,-0.03869 -1.732943,-0.07053 -2.395008,-0.414976 -1.088422,-0.56626 -1.836093,-1.830454 -1.837755,-3.106397 -7.58e-4,-0.667441 0.230494,-1.635508 0.533542,-2.240875 0.542575,-1.083852 1.633489,-2.149399 2.750703,-2.679564 0.787361,-0.373634 1.487334,-0.486051 3.023402,-0.486115 0.735098,-3.3e-5 0.966878,-0.02361 1.24493,-0.09485 0.419545,-0.107485 0.767568,-0.254588 1.090796,-0.474259 0.135456,-0.09206 0.262584,-0.16599 0.272699,-0.16599 0.04825,0 -0.01305,0.440985 -0.331981,2.620281 -0.444116,3.034729 -0.440352,3.036003 -0.43869,3.794073 0.0038,1.728875 0.600184,3.157868 1.861467,4.422467 0.71327,0.715148 1.415978,1.169444 2.335726,1.493916 0.36378,0.128337 1.150197,0.288298 1.565055,0.331981 0.358165,0.03771 1.329148,0.03243 1.695477,-0.01185 1.670853,-0.201974 3.11504,-0.815744 4.517318,-1.932606 1.051084,-0.837148 1.880628,-1.827974 2.489861,-2.975976 0.110286,-0.207815 0.206678,-0.374291 0.213416,-0.36755 -0.232793,1.319573 -0.01131,0.340701 0.154135,-0.450546 0.319055,-0.884339 0.438533,-1.502158 0.509828,-2.561 l 0.02371,-0.711389 -0.083,-0.557254 c -0.176974,-1.189664 -0.632653,-2.182702 -1.434634,-3.130111 -0.71368,-0.843097 -1.639756,-1.486969 -2.667707,-1.84961 -1.013564,-0.357568 -1.727221,-0.41283 -4.801873,-0.414977 l -2.063028,-0.01185 0.03555,-0.237129 c 0.16489,-1.289444 -0.01768,-1.958798 -0.711389,-2.655851 -0.504083,-0.506502 -1.097864,-0.782528 -1.695475,-0.782528 l 3e-5,-1.8e-5 z m 1.968175,6.663335 2.549143,0.02372 c 2.871267,0.01959 2.853685,0.01756 3.604369,0.379408 1.406148,0.677789 2.238173,2.249264 2.051171,3.865212 -0.141029,1.218689 -0.623791,2.242493 -1.434633,3.082685 -0.850229,0.881009 -1.693854,1.376859 -2.691421,1.588767 -0.491833,0.104479 -1.446533,0.118171 -1.92075,0.02371 -1.411718,-0.281197 -2.577962,-1.512146 -2.845555,-2.987833 -0.107608,-0.593419 -0.07009,-1.114761 0.2727,-3.485804 0.180639,-1.249488 0.355318,-2.324814 0.379406,-2.383153 l 0.03557,-0.106708 z"
       inkscape:connector-curvature="0"
       id="path3670"
       style="fill:#85c226;fill-opacity:1" />
  </g>
</svg>
