<?xml version="1.0" encoding="UTF-8" standalone="no"?>
<!-- Created with Inkscape (http://www.inkscape.org/) -->

<svg
   xmlns:dc="http://purl.org/dc/elements/1.1/"
   xmlns:cc="http://creativecommons.org/ns#"
   xmlns:rdf="http://www.w3.org/1999/02/22-rdf-syntax-ns#"
   xmlns:svg="http://www.w3.org/2000/svg"
   xmlns="http://www.w3.org/2000/svg"
   xmlns:xlink="http://www.w3.org/1999/xlink"
   xmlns:sodipodi="http://sodipodi.sourceforge.net/DTD/sodipodi-0.dtd"
   xmlns:inkscape="http://www.inkscape.org/namespaces/inkscape"
   version="1.0"
   width="96"
   height="96"
   id="svg2408"
   inkscape:version="0.91 r13725"
   sodipodi:docname="preferences-desktop-notification.svg">
  <sodipodi:namedview
     pagecolor="#ffffff"
     bordercolor="#666666"
     borderopacity="1"
     objecttolerance="10"
     gridtolerance="10"
     guidetolerance="10"
     inkscape:pageopacity="0"
     inkscape:pageshadow="2"
     inkscape:window-width="1366"
     inkscape:window-height="697"
     id="namedview78"
     showgrid="false"
     inkscape:zoom="3.10787"
     inkscape:cx="74.792056"
     inkscape:cy="54.428336"
     inkscape:window-x="-4"
     inkscape:window-y="0"
     inkscape:window-maximized="1"
     inkscape:current-layer="svg2408" />
  <defs
     id="defs2410">
    <linearGradient
       id="linearGradient3739">
      <stop
         id="stop3742"
         style="stop-color:#ffffff;stop-opacity:1"
         offset="0" />
      <stop
         id="stop3744"
         style="stop-color:#ffffff;stop-opacity:0"
         offset="1" />
    </linearGradient>
    <linearGradient
       id="linearGradient3731">
      <stop
         id="stop3733"
         style="stop-color:#dcdcdc;stop-opacity:1"
         offset="0" />
      <stop
         id="stop3757"
         style="stop-color:#ebebeb;stop-opacity:1"
         offset="0.30654153" />
      <stop
         id="stop3737"
         style="stop-color:#ffffff;stop-opacity:1"
         offset="0.70706075" />
      <stop
         id="stop3759"
         style="stop-color:#fafafa;stop-opacity:1"
         offset="0.84501493" />
      <stop
         id="stop3735"
         style="stop-color:#f0f0f0;stop-opacity:1"
         offset="1" />
    </linearGradient>
    <linearGradient
       id="linearGradient2881">
      <stop
         id="stop2883"
         style="stop-color:#3e5e8e;stop-opacity:1"
         offset="0" />
      <stop
         id="stop2885"
         style="stop-color:#89a4cb;stop-opacity:1"
         offset="1" />
    </linearGradient>
    <linearGradient
       id="linearGradient3697">
      <stop
         id="stop3699"
         style="stop-color:#dcdcdc;stop-opacity:1"
         offset="0" />
      <stop
         id="stop3701"
         style="stop-color:#f0f0f0;stop-opacity:1"
         offset="1" />
    </linearGradient>
    <linearGradient
       id="linearGradient3614">
      <stop
         id="stop3616"
         style="stop-color:#65a31b;stop-opacity:1"
         offset="0" />
      <stop
         id="stop3618"
         style="stop-color:#a0de42;stop-opacity:1"
         offset="1" />
    </linearGradient>
    <linearGradient
       x1="45.447727"
       y1="92.539597"
       x2="45.447727"
       y2="7.0165396"
       id="ButtonShadow"
       gradientUnits="userSpaceOnUse"
       gradientTransform="scale(1.0058652,0.994169)">
      <stop
         id="stop3750"
         style="stop-color:#000000;stop-opacity:1"
         offset="0" />
      <stop
         id="stop3752"
         style="stop-color:#000000;stop-opacity:0.58823532"
         offset="1" />
    </linearGradient>
    <linearGradient
       id="linearGradient3737">
      <stop
         id="stop3739"
         style="stop-color:#ffffff;stop-opacity:1"
         offset="0" />
      <stop
         id="stop3741"
         style="stop-color:#ffffff;stop-opacity:0"
         offset="1" />
    </linearGradient>
    <filter
       color-interpolation-filters="sRGB"
       id="filter3174">
      <feGaussianBlur
         id="feGaussianBlur3176"
         stdDeviation="1.71" />
    </filter>
    <linearGradient
       x1="36.357143"
       y1="6"
       x2="36.357143"
       y2="63.893143"
       id="linearGradient3188"
       xlink:href="#linearGradient3737"
       gradientUnits="userSpaceOnUse" />
    <filter
       x="-0.192"
       y="-0.192"
       width="1.3839999"
       height="1.3839999"
       color-interpolation-filters="sRGB"
       id="filter3794">
      <feGaussianBlur
         id="feGaussianBlur3796"
         stdDeviation="5.28" />
    </filter>
    <linearGradient
       x1="48"
       y1="20.220806"
       x2="48"
       y2="138.66119"
       id="linearGradient3613"
       xlink:href="#linearGradient3737"
       gradientUnits="userSpaceOnUse" />
    <radialGradient
       cx="48"
       cy="90.171875"
       r="42"
       fx="48"
       fy="90.171875"
       id="radialGradient3619"
       xlink:href="#linearGradient3737"
       gradientUnits="userSpaceOnUse"
       gradientTransform="matrix(1.1573129,0,0,0.99590774,-7.5510206,0.19713193)" />
    <clipPath
       id="clipPath3613">
      <rect
         width="84"
         height="84"
         rx="6"
         ry="6"
         x="6"
         y="6"
         id="rect3615"
         style="fill:#ffffff;fill-opacity:1;fill-rule:nonzero;stroke:none" />
    </clipPath>
    <linearGradient
       x1="48"
       y1="90"
       x2="48"
       y2="5.9877172"
       id="linearGradient3617"
       xlink:href="#linearGradient3614"
       gradientUnits="userSpaceOnUse" />
    <linearGradient
       x1="71.671646"
       y1="62.025059"
       x2="71.671646"
       y2="26.413651"
       id="linearGradient3661"
       xlink:href="#linearGradient3697"
       gradientUnits="userSpaceOnUse"
       gradientTransform="translate(-125,0.65261)" />
    <linearGradient
       x1="48.082497"
       y1="75.561722"
       x2="46.654823"
       y2="16.972879"
       id="linearGradient3664"
       xlink:href="#linearGradient3731"
       gradientUnits="userSpaceOnUse"
       gradientTransform="translate(0,1)" />
    <linearGradient
       x1="15"
       y1="48.272732"
       x2="81"
       y2="48.272732"
       id="linearGradient3746"
       xlink:href="#linearGradient3739"
       gradientUnits="userSpaceOnUse" />
    <linearGradient
       x1="48"
       y1="90"
       x2="48"
       y2="5.9877172"
       id="linearGradient3662"
       xlink:href="#linearGradient2881"
       gradientUnits="userSpaceOnUse"
       gradientTransform="translate(100,0)" />
    <linearGradient
       x1="45.447727"
       y1="92.539597"
       x2="45.447727"
       y2="7.0165396"
       id="ButtonShadow-0"
       gradientUnits="userSpaceOnUse"
       gradientTransform="matrix(1.0058652,0,0,0.994169,100,0)">
      <stop
         id="stop3750-8"
         style="stop-color:#000000;stop-opacity:1"
         offset="0" />
      <stop
         id="stop3752-5"
         style="stop-color:#000000;stop-opacity:0.58823532"
         offset="1" />
    </linearGradient>
    <linearGradient
       x1="32.251034"
       y1="6.1317081"
       x2="32.251034"
       y2="90.238609"
       id="linearGradient3780"
       xlink:href="#ButtonShadow-0"
       gradientUnits="userSpaceOnUse"
       gradientTransform="matrix(1.0238095,0,0,1.0119048,-1.1428571,-98.071429)" />
    <linearGradient
       x1="32.251034"
       y1="6.1317081"
       x2="32.251034"
       y2="90.238609"
       id="linearGradient3772"
       xlink:href="#ButtonShadow-0"
       gradientUnits="userSpaceOnUse"
       gradientTransform="matrix(1.0238095,0,0,1.0119048,-1.1428571,-98.071429)" />
    <linearGradient
       x1="32.251034"
       y1="6.1317081"
       x2="32.251034"
       y2="90.238609"
       id="linearGradient3725"
       xlink:href="#ButtonShadow-0"
       gradientUnits="userSpaceOnUse"
       gradientTransform="matrix(1.0238095,0,0,1.0119048,-1.1428571,-98.071429)" />
    <linearGradient
       x1="32.251034"
       y1="6.1317081"
       x2="32.251034"
       y2="90.238609"
       id="linearGradient3721"
       xlink:href="#ButtonShadow-0"
       gradientUnits="userSpaceOnUse"
       gradientTransform="translate(0,-97)" />
    <linearGradient
       x1="32.251034"
       y1="6.1317081"
       x2="32.251034"
       y2="90.238609"
       id="linearGradient2918"
       xlink:href="#ButtonShadow-0"
       gradientUnits="userSpaceOnUse"
       gradientTransform="matrix(1.0238095,0,0,1.0119048,-1.1428571,-98.071429)" />
    <linearGradient
       inkscape:collect="always"
       xlink:href="#linearGradient3697"
       id="linearGradient3048"
       gradientUnits="userSpaceOnUse"
       gradientTransform="translate(-125,0.65261)"
       x1="71.671646"
       y1="62.025059"
       x2="71.671646"
       y2="26.413651" />
    <linearGradient
       inkscape:collect="always"
       xlink:href="#linearGradient2881"
       id="linearGradient3056"
       gradientUnits="userSpaceOnUse"
       gradientTransform="translate(100,0)"
       x1="48"
       y1="90"
       x2="48"
       y2="5.9877172" />
    <linearGradient
       inkscape:collect="always"
       xlink:href="#linearGradient2881"
       id="linearGradient3059"
       gradientUnits="userSpaceOnUse"
       gradientTransform="translate(100,0)"
       x1="48"
       y1="90"
       x2="48"
       y2="5.9877172" />
  </defs>
  <metadata
     id="metadata2413">
    <rdf:RDF>
      <cc:Work
         rdf:about="">
        <dc:format>image/svg+xml</dc:format>
        <dc:type
           rdf:resource="http://purl.org/dc/dcmitype/StillImage" />
      </cc:Work>
    </rdf:RDF>
  </metadata>
  <g
     id="layer2"
     style="display:none">
    <rect
       width="86"
       height="85"
       rx="6"
       ry="6"
       x="5"
       y="7"
       id="rect3745"
       style="opacity:0.9;fill:url(#ButtonShadow);fill-opacity:1;fill-rule:nonzero;stroke:none;filter:url(#filter3174)" />
  </g>
  <rect
     style="fill:#2ecc71;fill-opacity:1;fill-rule:nonzero;stroke:none"
     id="rect2419"
     y="6"
     x="6"
     ry="0"
     rx="6"
     height="84"
     width="84" />
  <g
     id="layer5"
     style="display:inline" />
  <path
     inkscape:connector-curvature="0"
     style="opacity:0.12000002;fill:#000000;fill-opacity:1;stroke:none;display:inline"
     id="path3716"
     d="m 48,17.03125 c -19.096863,0 -34.96875,12.7615 -34.96875,28.96875 0,9.812619 6.015233,18.310203 14.8125,23.5 -0.227788,1.047432 -0.613208,2.300814 -1.46875,3.625 -1.149033,1.778442 -2.947053,3.481431 -6.21875,4.40625 a 0.98625776,0.98625776 0 0 0 -0.03125,0 c 1.04e-4,-3.5e-5 -0.156351,0.06254 -0.15625,0.0625 1.01e-4,-4.3e-5 -0.156347,0.06255 -0.15625,0.0625 9.7e-5,-5.2e-5 -0.125092,0.09381 -0.125,0.09375 9.2e-5,-6e-5 -0.156337,0.09382 -0.15625,0.09375 8.7e-5,-6.7e-5 -0.125081,0.09382 -0.125,0.09375 8.1e-5,-7.4e-5 -0.09382,0.125081 -0.09375,0.125 7.4e-5,-8.1e-5 -0.125067,0.125087 -0.125,0.125 6.7e-5,-8.7e-5 -0.09381,0.156342 -0.09375,0.15625 6e-5,-9.2e-5 -0.0938,0.125097 -0.09375,0.125 5.2e-5,-9.7e-5 -0.06254,0.156351 -0.0625,0.15625 4.4e-5,-1.01e-4 -0.06254,0.156354 -0.0625,0.15625 3.5e-5,-1.04e-4 -0.03128,0.156357 -0.03125,0.15625 2.6e-5,-1.07e-4 -0.03127,0.156359 -0.03125,0.15625 1.7e-5,-1.09e-4 -0.03126,0.15636 -0.03125,0.15625 8e-6,-1.1e-4 2e-6,0.18761 0,0.1875 -2e-6,-1.1e-4 1.1e-5,0.156359 0,0.15625 -1.1e-5,-1.09e-4 0.03127,0.156358 0.03125,0.15625 -2e-5,-1.08e-4 0.03128,0.156356 0.03125,0.15625 -2.9e-5,-1.06e-4 0.06254,0.156353 0.0625,0.15625 -3.8e-5,-1.03e-4 0.06255,0.15635 0.0625,0.15625 -4.6e-5,-1e-4 0.06255,0.156345 0.0625,0.15625 -5.5e-5,-9.5e-5 0.09381,0.156341 0.09375,0.15625 -6.2e-5,-9.1e-5 0.09382,0.125085 0.09375,0.125 -7e-5,-8.5e-5 0.125077,0.125079 0.125,0.125 -7.7e-5,-7.9e-5 0.125083,0.09382 0.125,0.09375 -8.3e-5,-7.2e-5 0.125089,0.125065 0.125,0.125 -8.9e-5,-6.5e-5 0.125094,0.09381 0.125,0.09375 -9.4e-5,-5.7e-5 0.156348,0.06255 0.15625,0.0625 -9.8e-5,-4.9e-5 0.156352,0.06254 0.15625,0.0625 -1.02e-4,-4.1e-5 0.156355,0.06253 0.15625,0.0625 -1.05e-4,-3.2e-5 0.156358,0.03127 0.15625,0.03125 -1.08e-4,-2.3e-5 0.156359,0.03126 0.15625,0.03125 a 0.98625776,0.98625776 0 0 0 0.03125,0 c 9.754627,1.060137 16.452148,-3.359222 20.25,-7.0625 2.330745,0.410391 4.727971,0.6875 7.21875,0.6875 C 67.096863,74.96875 82.96875,62.20725 82.96875,46 82.96875,29.79275 67.096863,17.03125 48,17.03125 z m 2.78125,12.9375 c 0.790393,2.3e-5 1.214533,0.181891 1.78125,0.71875 a 0.98625776,0.98625776 0 0 0 0.03125,0 0.98625776,0.98625776 0 0 0 0,0.03125 c 0.542535,0.511264 0.68749,0.802522 0.6875,1.5 -1e-5,0.709605 -0.120504,1.003367 -0.6875,1.53125 -0.538375,0.493462 -1.013887,0.687517 -1.8125,0.6875 -0.800256,1.7e-5 -1.292584,-0.191183 -1.84375,-0.6875 -0.567006,-0.527879 -0.687505,-0.821669 -0.6875,-1.53125 -5e-6,-0.709505 0.12045,-1.003291 0.6875,-1.53125 0.568597,-0.529367 1.051877,-0.718727 1.84375,-0.71875 z m -4.1875,12.1875 c 1.400402,1.8e-5 2.209121,0.305553 2.75,0.75 a 0.98625776,0.98625776 0 0 0 0.03125,0.03125 0.98625776,0.98625776 0 0 0 0.09375,0.09375 c 0.625004,0.5481 0.812489,0.93249 0.8125,1.90625 -1.3e-5,0.19526 0.0075,0.671378 -0.0625,1.34375 -0.04926,0.591107 -0.16629,1.13761 -0.3125,1.625 l -1.875,6.65625 c -0.172996,0.605448 -0.336813,1.257794 -0.46875,2 -0.132655,0.746095 -0.218768,1.379571 -0.21875,1.9375 -1.5e-5,1.152626 0.245066,2.481629 1.3125,3.34375 -0.381048,0.05711 -0.658677,0.1875 -1.125,0.1875 -1.51633,0 -2.384567,-0.338037 -2.96875,-0.84375 -0.634059,-0.578784 -0.843752,-1.014548 -0.84375,-1.90625 -3e-6,-0.399671 0.02486,-0.879022 0.09375,-1.375 0.06933,-0.513038 0.194313,-1.093836 0.34375,-1.71875 l -0.03125,0 1.84375,-6.5625 a 0.98625776,0.98625776 0 0 0 0,-0.03125 l 0.03125,0 a 0.98625776,0.98625776 0 0 0 0,-0.0625 c 0.0114,-0.04369 0.02002,-0.08155 0.03125,-0.125 0.153963,-0.595707 0.300977,-1.167493 0.40625,-1.71875 0.0018,-0.0095 -0.0018,-0.02175 0,-0.03125 0.139511,-0.672961 0.218743,-1.318439 0.21875,-1.9375 -7e-6,-1.102116 -0.198175,-2.332154 -1.125,-3.21875 -0.06479,-0.06197 -0.151112,-0.06987 -0.21875,-0.125 0.425564,-0.0802 0.914036,-0.218742 1.28125,-0.21875 z" />
  <path
     style="fill:#ffffff;fill-opacity:1;stroke:none;display:inline"
     id="path3620"
     inkscape:connector-curvature="0"
     d="m 48,18 c -18.225397,0 -33,12.088312 -33,27 0,9.498438 5.99976,17.843462 15.0625,22.65625 -0.344625,2.508754 -1.914014,8.649817 -9.34375,10.75 9.622915,1.045823 16.013601,-3.646306 19.40625,-7.1875 C 42.648507,71.724251 45.286067,72 48,72 66.225397,72 81,59.911688 81,45 81,30.088312 66.225397,18 48,18 z m 2.78125,9 c 1.234272,3.5e-5 2.287664,0.427178 3.15625,1.25 0.883793,0.82289 1.312484,1.810687 1.3125,2.96875 -1.6e-5,1.158126 -0.428707,2.145922 -1.3125,2.96875 -0.868586,0.807646 -1.921978,1.218776 -3.15625,1.21875 -1.234296,2.6e-5 -2.303701,-0.411104 -3.1875,-1.21875 -0.883818,-0.822828 -1.312508,-1.810624 -1.3125,-2.96875 -8e-6,-1.158063 0.428682,-2.14586 1.3125,-2.96875 0.883799,-0.822822 1.953204,-1.249965 3.1875,-1.25 z m -4.1875,12.1875 c 1.813322,2.3e-5 3.21225,0.459962 4.1875,1.34375 0.990463,0.868591 1.468735,2.004366 1.46875,3.40625 -2e-5,0.289543 -0.01757,0.799839 -0.09375,1.53125 -0.06096,0.731444 -0.192156,1.390491 -0.375,2 l -1.875,6.65625 c -0.152392,0.533338 -0.284356,1.126791 -0.40625,1.8125 -0.12192,0.685719 -0.187511,1.212028 -0.1875,1.5625 -1.1e-5,0.883819 0.197549,1.492505 0.59375,1.8125 0.396179,0.320005 1.087249,0.46875 2.0625,0.46875 0.457129,0 0.983438,-0.06635 1.5625,-0.21875 0.579032,-0.167624 0.990935,-0.315585 1.25,-0.4375 l -0.5,2.0625 c -1.508586,0.594281 -2.725966,1.038988 -3.625,1.34375 C 49.757191,62.851255 48.719812,63 47.53125,63 45.702672,63 44.270947,62.57131 43.25,61.6875 c -1.005718,-0.899043 -1.500003,-2.034821 -1.5,-3.40625 -3e-6,-0.533328 0.0488,-1.076419 0.125,-1.625 0.07619,-0.563795 0.176128,-1.205288 0.34375,-1.90625 l 1.875,-6.65625 c 0.167613,-0.639985 0.299578,-1.248675 0.40625,-1.8125 0.1219,-0.579031 0.187495,-1.090102 0.1875,-1.5625 -5e-6,-0.853315 -0.18078,-1.445992 -0.53125,-1.78125 -0.350481,-0.335219 -1.009529,-0.53123 -2,-0.53125 -0.487622,2e-5 -0.981907,0.09765 -1.5,0.25 -0.502858,0.152401 -0.946787,0.300377 -1.3125,0.4375 l 0.5,-2.0625 c 1.234283,-0.502836 2.434878,-0.930752 3.5625,-1.28125 1.127613,-0.365692 2.181778,-0.562477 3.1875,-0.5625 z" />
</svg>
