<?xml version="1.0" encoding="UTF-8" standalone="no"?>
<!-- Created with Inkscape (http://www.inkscape.org/) -->

<svg
   xmlns:dc="http://purl.org/dc/elements/1.1/"
   xmlns:cc="http://creativecommons.org/ns#"
   xmlns:rdf="http://www.w3.org/1999/02/22-rdf-syntax-ns#"
   xmlns:svg="http://www.w3.org/2000/svg"
   xmlns="http://www.w3.org/2000/svg"
   xmlns:xlink="http://www.w3.org/1999/xlink"
   xmlns:sodipodi="http://sodipodi.sourceforge.net/DTD/sodipodi-0.dtd"
   xmlns:inkscape="http://www.inkscape.org/namespaces/inkscape"
   version="1.0"
   width="96"
   height="96"
   id="svg2408"
   inkscape:version="0.48.5 r10040"
   sodipodi:docname="xnview.svg">
  <sodipodi:namedview
     pagecolor="#ffffff"
     bordercolor="#666666"
     borderopacity="1"
     objecttolerance="10"
     gridtolerance="10"
     guidetolerance="10"
     inkscape:pageopacity="0"
     inkscape:pageshadow="2"
     inkscape:window-width="1680"
     inkscape:window-height="988"
     id="namedview76"
     showgrid="false"
     inkscape:zoom="5.4312291"
     inkscape:cx="18.811001"
     inkscape:cy="36.063163"
     inkscape:window-x="0"
     inkscape:window-y="-3"
     inkscape:window-maximized="1"
     inkscape:current-layer="svg2408" />
  <defs
     id="defs2410">
    <linearGradient
       id="linearGradient3687">
      <stop
         id="stop3689"
         style="stop-color:#ffffff;stop-opacity:1"
         offset="0" />
      <stop
         id="stop3691"
         style="stop-color:#ffffff;stop-opacity:0"
         offset="1" />
    </linearGradient>
    <linearGradient
       x1="58.650177"
       y1="122"
       x2="58.650177"
       y2="5.4252338"
       id="linearGradient3677"
       gradientUnits="userSpaceOnUse"
       gradientTransform="matrix(1.0172414,0,0,1.0172414,-1.1034483,-1.1034483)">
      <stop
         id="stop3679"
         style="stop-color:#2782e9;stop-opacity:1"
         offset="0" />
      <stop
         id="stop3681"
         style="stop-color:#193693;stop-opacity:1"
         offset="1" />
    </linearGradient>
    <linearGradient
       x1="45.447727"
       y1="92.539597"
       x2="45.447727"
       y2="7.0165396"
       id="ButtonShadow"
       gradientUnits="userSpaceOnUse"
       gradientTransform="scale(1.0058652,0.994169)">
      <stop
         id="stop3750"
         style="stop-color:#000000;stop-opacity:1"
         offset="0" />
      <stop
         id="stop3752"
         style="stop-color:#000000;stop-opacity:0.58823532"
         offset="1" />
    </linearGradient>
    <linearGradient
       id="linearGradient3737">
      <stop
         id="stop3739"
         style="stop-color:#ffffff;stop-opacity:1"
         offset="0" />
      <stop
         id="stop3741"
         style="stop-color:#ffffff;stop-opacity:0"
         offset="1" />
    </linearGradient>
    <filter
       color-interpolation-filters="sRGB"
       id="filter3174">
      <feGaussianBlur
         id="feGaussianBlur3176"
         stdDeviation="1.71" />
    </filter>
    <linearGradient
       x1="36.357143"
       y1="6"
       x2="36.357143"
       y2="63.893143"
       id="linearGradient3188"
       xlink:href="#linearGradient3737"
       gradientUnits="userSpaceOnUse" />
    <filter
       x="-0.192"
       y="-0.192"
       width="1.3839999"
       height="1.3839999"
       color-interpolation-filters="sRGB"
       id="filter3794">
      <feGaussianBlur
         id="feGaussianBlur3796"
         stdDeviation="5.28" />
    </filter>
    <linearGradient
       x1="48"
       y1="20.220806"
       x2="48"
       y2="138.66119"
       id="linearGradient3613"
       xlink:href="#linearGradient3737"
       gradientUnits="userSpaceOnUse" />
    <radialGradient
       cx="48"
       cy="90.171875"
       r="42"
       fx="48"
       fy="90.171875"
       id="radialGradient3619"
       xlink:href="#linearGradient3737"
       gradientUnits="userSpaceOnUse"
       gradientTransform="matrix(1.1573129,0,0,0.99590774,-7.5510206,0.19713193)" />
    <clipPath
       id="clipPath3613">
      <rect
         width="84"
         height="84"
         rx="6"
         ry="6"
         x="6"
         y="6"
         id="rect3615"
         style="fill:#ffffff;fill-opacity:1;fill-rule:nonzero;stroke:none" />
    </clipPath>
    <linearGradient
       x1="48"
       y1="90"
       x2="48"
       y2="5.9877172"
       id="linearGradient3617"
       xlink:href="#ButtonColor"
       gradientUnits="userSpaceOnUse" />
    <linearGradient
       x1="58.650177"
       y1="122"
       x2="58.650177"
       y2="5.4252338"
       id="ButtonColor"
       gradientUnits="userSpaceOnUse"
       gradientTransform="matrix(1.0172414,0,0,1.0172414,-1.1034483,-1.1034483)">
      <stop
         id="stop3189"
         style="stop-color:#183288;stop-opacity:1"
         offset="0" />
      <stop
         id="stop3191"
         style="stop-color:#5072e1;stop-opacity:1"
         offset="1" />
    </linearGradient>
    <linearGradient
       id="linearGradient3374">
      <stop
         id="stop3376"
         style="stop-color:#000000;stop-opacity:1"
         offset="0" />
      <stop
         id="stop3378"
         style="stop-color:#000000;stop-opacity:0"
         offset="1" />
    </linearGradient>
    <linearGradient
       id="linearGradient8650">
      <stop
         id="stop8652"
         style="stop-color:#ffffff;stop-opacity:1"
         offset="0" />
      <stop
         id="stop8654"
         style="stop-color:#ffffff;stop-opacity:0"
         offset="1" />
    </linearGradient>
    <linearGradient
       x1="48"
       y1="90"
       x2="48"
       y2="5.9877172"
       id="linearGradient3839"
       xlink:href="#ButtonColor"
       gradientUnits="userSpaceOnUse"
       gradientTransform="translate(0,-100)" />
    <linearGradient
       x1="48.800022"
       y1="16"
       x2="59.752357"
       y2="56.874668"
       id="linearGradient2943"
       xlink:href="#linearGradient3374"
       gradientUnits="userSpaceOnUse"
       gradientTransform="matrix(-0.67083322,0,0,-0.7083333,90.936318,93.33333)" />
    <linearGradient
       x1="48.800022"
       y1="16"
       x2="59.752357"
       y2="56.874668"
       id="linearGradient2947"
       xlink:href="#linearGradient8650"
       gradientUnits="userSpaceOnUse"
       gradientTransform="matrix(0.67083322,0,0,0.7083333,5.0666738,2.6666673)" />
    <radialGradient
       cx="48"
       cy="66.450142"
       r="23"
       fx="48"
       fy="66.450142"
       id="radialGradient3683"
       xlink:href="#linearGradient3677"
       gradientUnits="userSpaceOnUse"
       gradientTransform="matrix(1.3301229,-7.4935036e-8,9.5652174e-8,1.6978593,-15.845903,-37.548861)" />
    <linearGradient
       x1="35.102802"
       y1="6.8540382"
       x2="35.102802"
       y2="34.885773"
       id="linearGradient3703"
       xlink:href="#linearGradient3687"
       gradientUnits="userSpaceOnUse" />
    <linearGradient
       x1="62.339497"
       y1="48"
       x2="62.339497"
       y2="-6.5482373"
       id="linearGradient3725"
       xlink:href="#linearGradient3687"
       gradientUnits="userSpaceOnUse" />
    <linearGradient
       x1="45.447727"
       y1="92.539597"
       x2="45.447727"
       y2="7.0165396"
       id="ButtonShadow-0"
       gradientUnits="userSpaceOnUse"
       gradientTransform="matrix(1.0058652,0,0,0.994169,100,0)">
      <stop
         id="stop3750-8"
         style="stop-color:#000000;stop-opacity:1"
         offset="0" />
      <stop
         id="stop3752-5"
         style="stop-color:#000000;stop-opacity:0.58823532"
         offset="1" />
    </linearGradient>
    <linearGradient
       x1="32.251034"
       y1="6.1317081"
       x2="32.251034"
       y2="90.238609"
       id="linearGradient3780"
       xlink:href="#ButtonShadow-0"
       gradientUnits="userSpaceOnUse"
       gradientTransform="matrix(1.0238095,0,0,1.0119048,-1.1428571,-98.071429)" />
    <linearGradient
       x1="32.251034"
       y1="6.1317081"
       x2="32.251034"
       y2="90.238609"
       id="linearGradient3772"
       xlink:href="#ButtonShadow-0"
       gradientUnits="userSpaceOnUse"
       gradientTransform="matrix(1.0238095,0,0,1.0119048,-1.1428571,-98.071429)" />
    <linearGradient
       x1="32.251034"
       y1="6.1317081"
       x2="32.251034"
       y2="90.238609"
       id="linearGradient3725-0"
       xlink:href="#ButtonShadow-0"
       gradientUnits="userSpaceOnUse"
       gradientTransform="matrix(1.0238095,0,0,1.0119048,-1.1428571,-98.071429)" />
    <linearGradient
       x1="32.251034"
       y1="6.1317081"
       x2="32.251034"
       y2="90.238609"
       id="linearGradient3721"
       xlink:href="#ButtonShadow-0"
       gradientUnits="userSpaceOnUse"
       gradientTransform="translate(0,-97)" />
    <linearGradient
       x1="32.251034"
       y1="6.1317081"
       x2="32.251034"
       y2="90.238609"
       id="linearGradient3122"
       xlink:href="#ButtonShadow-0"
       gradientUnits="userSpaceOnUse"
       gradientTransform="matrix(1.0238095,0,0,1.0119048,-1.1428571,-98.071429)" />
  </defs>
  <metadata
     id="metadata2413">
    <rdf:RDF>
      <cc:Work
         rdf:about="">
        <dc:format>image/svg+xml</dc:format>
        <dc:type
           rdf:resource="http://purl.org/dc/dcmitype/StillImage" />
        <dc:title></dc:title>
      </cc:Work>
    </rdf:RDF>
  </metadata>
  <rect
     style="color:#000000;fill:#f29c33;stroke:none;stroke-width:2.59999989999999981;marker:none;visibility:visible;display:inline;overflow:visible;enable-background:accumulate;fill-opacity:1"
     id="rect3836"
     width="83.774773"
     height="83.958893"
     x="5.8918524"
     y="5.9651313"
     rx="1.5694326" />
  <g
     id="layer2"
     style="display:none">
    <rect
       width="86"
       height="85"
       rx="6"
       ry="6"
       x="5"
       y="7"
       id="rect3745"
       style="opacity:0.9;fill:url(#ButtonShadow);fill-opacity:1;fill-rule:nonzero;stroke:none;filter:url(#filter3174)" />
  </g>
  <g
     id="layer5" />
  <rect
     rx="1.4386466"
     y="9.463419"
     x="9.3824682"
     height="76.962318"
     width="76.793541"
     id="rect3838"
     style="color:#000000;fill:#ffffff;fill-opacity:1;stroke:none;stroke-width:2.59999989999999981;marker:none;visibility:visible;display:inline;overflow:visible;enable-background:accumulate" />
  <path
     sodipodi:type="spiral"
     style="fill:none;stroke:#d40000;stroke-width:2.5999999;stroke-linecap:butt;stroke-linejoin:miter;stroke-miterlimit:4;stroke-opacity:1;stroke-dasharray:none"
     id="path3815"
     sodipodi:cx="41.611206"
     sodipodi:cy="42.973328"
     sodipodi:expansion="1"
     sodipodi:revolution="1.9154465"
     sodipodi:radius="8.1257544"
     sodipodi:argument="-19.322119"
     sodipodi:t0="0.20982537"
     d="M 40.820988,44.484137 C 39.500225,44.345131 38.87035,42.86524 39.160626,41.69157 c 0.451688,-1.826297 2.527525,-2.646832 4.223877,-2.108592 2.332901,0.740212 3.351496,3.441223 2.556823,5.655187 -1.019775,2.841095 -4.357005,4.060169 -7.086497,3.005053 -3.350349,-1.295116 -4.771051,-5.273875 -3.453283,-8.517807 1.568147,-3.860288 6.191395,-5.483277 9.949116,-3.901514 0.212324,0.08937 0.420802,0.187879 0.624701,0.295088"
     transform="matrix(-1.1838052,0,0,1.1838052,98.680572,-5.6796223)" />
  <path
     style="fill:#f29c33;fill-opacity:1;stroke:none"
     d="m 81.984443,37.739943 c 0,0 -27.787441,-14.74405 -51.401837,-4.781566 -7.508246,3.167593 -16.835098,9.812171 -16.561153,14.66845 0.324879,5.759225 5.728135,12.543787 21.143488,17.208657 9.997615,3.025399 40.842544,0.99616 40.842544,0.99616 L 60.068931,51.486946 c 0,0 -15.739321,6.973117 -20.122423,1.195392 -4.383103,-5.777727 4.781566,-27.294773 42.037935,-14.942395 z"
     id="path3034"
     inkscape:connector-curvature="0"
     sodipodi:nodetypes="csssccsc" />
  <path
     style="color:#000000;fill:#800080;fill-opacity:1;fill-rule:nonzero;stroke:none;stroke-width:2;marker:none;visibility:visible;display:inline;overflow:visible;enable-background:accumulate"
     d="m 23.68066,15.532921 c -1.294995,0.512896 -1.9248,1.96875 -1.411903,3.263745 l 3.912342,9.878134 c 0.512898,1.294996 1.968751,1.924801 3.263747,1.411904 l 1.909772,-0.756387 c 1.294995,-0.512896 1.9248,-1.96875 1.411903,-3.263745 l -3.912342,-9.878134 c -0.512898,-1.294996 -1.968751,-1.924801 -3.263747,-1.411904 l -1.909772,0.756387 z m 1.111091,2.035932 1.350011,-0.534686 c 0.914115,-0.362045 1.949409,0.113105 2.311455,1.027225 l 2.751681,6.94762 c 0.362046,0.914117 -0.08018,1.936369 -0.994299,2.298414 l -1.350011,0.534687 c -0.914114,0.362045 -1.936367,-0.08018 -2.298413,-0.994298 l -2.751681,-6.947621 c -0.362045,-0.914115 0.06715,-1.969296 0.981257,-2.331341 z"
     id="rect3036"
     inkscape:connector-curvature="0" />
  <path
     id="path3041"
     d="m 38.737445,13.590017 c -1.225408,0.09437 -2.136207,1.157153 -2.041839,2.382561 l 0.719835,9.347324 c 0.09437,1.225408 1.157153,2.136207 2.382561,2.041839 l 1.807149,-0.139168 c 1.225408,-0.09437 2.136207,-1.157153 2.041839,-2.382561 l -0.719835,-9.347324 c -0.09437,-1.225408 -1.157153,-2.136207 -2.382561,-2.041839 l -1.807149,0.139168 z m 0.405226,2.006058 1.277468,-0.09838 c 0.864994,-0.06661 1.613646,0.604078 1.680259,1.469072 l 0.506284,6.574285 c 0.06661,0.864994 -0.572921,1.611247 -1.437915,1.677859 l -1.277468,0.09838 c -0.864994,0.06661 -1.611246,-0.572921 -1.677859,-1.437915 l -0.506284,-6.574284 c -0.06661,-0.864994 0.570521,-1.642405 1.435515,-1.709018 z"
     style="color:#000000;fill:#88aa00;fill-opacity:1;fill-rule:nonzero;stroke:none;stroke-width:2;marker:none;visibility:visible;display:inline;overflow:visible;enable-background:accumulate"
     inkscape:connector-curvature="0" />
  <path
     inkscape:connector-curvature="0"
     style="color:#000000;fill:#d40000;fill-opacity:1;fill-rule:nonzero;stroke:none;stroke-width:2;marker:none;visibility:visible;display:inline;overflow:visible;enable-background:accumulate"
     d="m 52.428465,15.849308 c -1.000458,-0.151048 -1.934161,0.57549 -2.093182,1.628759 l -1.212999,8.034262 c -0.159021,1.05327 0.51857,2.023077 1.519029,2.174124 l 1.47541,0.222755 c 1.000458,0.151048 1.934161,-0.57549 2.093182,-1.628759 l 1.212999,-8.034262 c 0.159021,-1.05327 -0.51857,-2.023077 -1.519029,-2.174124 l -1.47541,-0.222755 z m -0.05931,1.771482 1.042963,0.157464 c 0.706206,0.106622 1.177944,0.814371 1.065694,1.557855 l -0.853142,5.650763 c -0.11225,0.743484 -0.767865,1.253636 -1.474072,1.147014 l -1.042963,-0.157465 c -0.706207,-0.106622 -1.181989,-0.787589 -1.069739,-1.531074 l 0.853142,-5.650763 c 0.112251,-0.743485 0.77191,-1.280416 1.478115,-1.173794 z"
     id="path3043" />
  <path
     id="path3045"
     d="m 63.133477,20.430138 c -0.770676,-0.310207 -1.647539,0.07663 -1.965759,0.867216 l -2.427364,6.030531 c -0.318221,0.790585 0.04613,1.677027 0.816807,1.987234 l 1.136541,0.457472 c 0.770676,0.310207 1.647539,-0.07663 1.965759,-0.867216 l 2.427364,-6.030531 c 0.318221,-0.790584 -0.04613,-1.677027 -0.816807,-1.987234 l -1.136541,-0.457472 z m -0.369165,1.369714 0.803418,0.323386 c 0.544006,0.218969 0.791751,0.861502 0.567125,1.419563 l -1.707246,4.241473 c -0.224627,0.55806 -0.840332,0.829685 -1.384338,0.610716 l -0.803418,-0.323386 c -0.544007,-0.218969 -0.799842,-0.841401 -0.575215,-1.39946 l 1.707246,-4.241474 c 0.224626,-0.55806 0.848421,-0.849787 1.392428,-0.630818 z"
     style="color:#000000;fill:#ffd42a;fill-opacity:1;fill-rule:nonzero;stroke:none;stroke-width:2;marker:none;visibility:visible;display:inline;overflow:visible;enable-background:accumulate"
     inkscape:connector-curvature="0" />
</svg>
