<?xml version="1.0" encoding="UTF-8" standalone="no"?>
<!-- Created with Inkscape (http://www.inkscape.org/) -->

<svg
   xmlns:dc="http://purl.org/dc/elements/1.1/"
   xmlns:cc="http://creativecommons.org/ns#"
   xmlns:rdf="http://www.w3.org/1999/02/22-rdf-syntax-ns#"
   xmlns:svg="http://www.w3.org/2000/svg"
   xmlns="http://www.w3.org/2000/svg"
   xmlns:xlink="http://www.w3.org/1999/xlink"
   xmlns:sodipodi="http://sodipodi.sourceforge.net/DTD/sodipodi-0.dtd"
   xmlns:inkscape="http://www.inkscape.org/namespaces/inkscape"
   version="1.0"
   width="96"
   height="96"
   id="svg2408"
   inkscape:version="0.48.4 r9939"
   sodipodi:docname="younited.svg">
  <sodipodi:namedview
     pagecolor="#ffffff"
     bordercolor="#666666"
     borderopacity="1"
     objecttolerance="10"
     gridtolerance="10"
     guidetolerance="10"
     inkscape:pageopacity="0"
     inkscape:pageshadow="2"
     inkscape:window-width="1680"
     inkscape:window-height="991"
     id="namedview77"
     showgrid="false"
     inkscape:zoom="4.8815652"
     inkscape:cx="15.373326"
     inkscape:cy="32.885451"
     inkscape:window-x="-2"
     inkscape:window-y="-3"
     inkscape:window-maximized="1"
     inkscape:current-layer="svg2408" />
  <defs
     id="defs2410">
    <linearGradient
       id="linearGradient3771">
      <stop
         id="stop3773"
         style="stop-color:#154a99;stop-opacity:1"
         offset="0" />
      <stop
         id="stop3775"
         style="stop-color:#154a99;stop-opacity:0"
         offset="1" />
    </linearGradient>
    <linearGradient
       id="linearGradient3697">
      <stop
         id="stop3699"
         style="stop-color:#dcdcdc;stop-opacity:1"
         offset="0" />
      <stop
         id="stop3701"
         style="stop-color:#f0f0f0;stop-opacity:1"
         offset="1" />
    </linearGradient>
    <linearGradient
       id="linearGradient3614">
      <stop
         id="stop3616"
         style="stop-color:#2557a3;stop-opacity:1"
         offset="0" />
      <stop
         id="stop3618"
         style="stop-color:#5287d7;stop-opacity:1"
         offset="1" />
    </linearGradient>
    <linearGradient
       x1="45.447727"
       y1="92.539597"
       x2="45.447727"
       y2="7.0165396"
       id="ButtonShadow"
       gradientUnits="userSpaceOnUse"
       gradientTransform="scale(1.0058652,0.994169)">
      <stop
         id="stop3750"
         style="stop-color:#000000;stop-opacity:1"
         offset="0" />
      <stop
         id="stop3752"
         style="stop-color:#000000;stop-opacity:0.58823532"
         offset="1" />
    </linearGradient>
    <linearGradient
       id="linearGradient3737">
      <stop
         id="stop3739"
         style="stop-color:#ffffff;stop-opacity:1"
         offset="0" />
      <stop
         id="stop3741"
         style="stop-color:#ffffff;stop-opacity:0"
         offset="1" />
    </linearGradient>
    <filter
       color-interpolation-filters="sRGB"
       id="filter3174">
      <feGaussianBlur
         id="feGaussianBlur3176"
         stdDeviation="1.71" />
    </filter>
    <linearGradient
       x1="36.357143"
       y1="6"
       x2="36.357143"
       y2="63.893143"
       id="linearGradient3188"
       xlink:href="#linearGradient3737"
       gradientUnits="userSpaceOnUse" />
    <filter
       x="-0.192"
       y="-0.192"
       width="1.3839999"
       height="1.3839999"
       color-interpolation-filters="sRGB"
       id="filter3794">
      <feGaussianBlur
         id="feGaussianBlur3796"
         stdDeviation="5.28" />
    </filter>
    <linearGradient
       x1="48"
       y1="20.220806"
       x2="48"
       y2="138.66119"
       id="linearGradient3613"
       xlink:href="#linearGradient3737"
       gradientUnits="userSpaceOnUse" />
    <radialGradient
       cx="48"
       cy="90.171875"
       r="42"
       fx="48"
       fy="90.171875"
       id="radialGradient3619"
       xlink:href="#linearGradient3737"
       gradientUnits="userSpaceOnUse"
       gradientTransform="matrix(1.1573129,0,0,0.99590774,-7.5510206,0.19713193)" />
    <clipPath
       id="clipPath3613">
      <rect
         width="84"
         height="84"
         rx="6"
         ry="6"
         x="6"
         y="6"
         id="rect3615"
         style="fill:#ffffff;fill-opacity:1;fill-rule:nonzero;stroke:none" />
    </clipPath>
    <linearGradient
       x1="48"
       y1="90"
       x2="48"
       y2="5.9877172"
       id="linearGradient3617"
       xlink:href="#linearGradient3614"
       gradientUnits="userSpaceOnUse" />
    <clipPath
       id="clipPath3644">
      <path
         d="m 12,96 c -3.324,0 -6,2.676 -6,6 l 0,72 c 0,3.324 2.676,6 6,6 l 72,0 c 3.324,0 6,-2.676 6,-6 l 0,-72 c 0,-3.324 -2.676,-6 -6,-6 l -72,0 z m 36,11 c 18.225397,0 33,12.08831 33,27 0,14.91169 -14.774603,27 -33,27 -2.713933,0 -5.351493,-0.27575 -7.875,-0.78125 -3.392649,3.54119 -9.783335,8.23332 -19.40625,7.1875 7.429736,-2.10018 8.999125,-8.24125 9.34375,-10.75 C 20.99976,151.84346 15,143.49844 15,134 15,119.08831 29.774603,107 48,107 z"
         inkscape:connector-curvature="0"
         id="path3646"
         style="fill:url(#linearGradient3648);fill-opacity:1;fill-rule:nonzero;stroke:none" />
    </clipPath>
    <linearGradient
       x1="48"
       y1="90"
       x2="48"
       y2="5.9877172"
       id="linearGradient3648"
       xlink:href="#linearGradient3614"
       gradientUnits="userSpaceOnUse"
       gradientTransform="translate(0,90)" />
    <filter
       x="-0.17257486"
       y="-0.18809278"
       width="1.3451498"
       height="1.3761857"
       color-interpolation-filters="sRGB"
       id="filter3678">
      <feGaussianBlur
         id="feGaussianBlur3680"
         stdDeviation="4.745809" />
    </filter>
    <linearGradient
       x1="46.125015"
       y1="63.048103"
       x2="46.125015"
       y2="24.840103"
       id="linearGradient3703"
       xlink:href="#linearGradient3697"
       gradientUnits="userSpaceOnUse" />
    <linearGradient
       x1="46.125015"
       y1="63.048103"
       x2="46.125015"
       y2="24.840103"
       id="linearGradient3761"
       xlink:href="#linearGradient3697"
       gradientUnits="userSpaceOnUse" />
    <linearGradient
       x1="15"
       y1="47.277454"
       x2="106.50636"
       y2="47.024918"
       id="linearGradient3777"
       xlink:href="#linearGradient3771"
       gradientUnits="userSpaceOnUse" />
    <filter
       x="-0.18970989"
       y="-0.11606622"
       width="1.3794198"
       height="1.2321324"
       color-interpolation-filters="sRGB"
       id="filter3789">
      <feGaussianBlur
         id="feGaussianBlur3791"
         stdDeviation="1.8477742" />
    </filter>
    <linearGradient
       x1="45.447727"
       y1="92.539597"
       x2="45.447727"
       y2="7.0165396"
       id="ButtonShadow-0"
       gradientUnits="userSpaceOnUse"
       gradientTransform="matrix(1.0058652,0,0,0.994169,100,0)">
      <stop
         id="stop3750-8"
         style="stop-color:#000000;stop-opacity:1"
         offset="0" />
      <stop
         id="stop3752-5"
         style="stop-color:#000000;stop-opacity:0.58823532"
         offset="1" />
    </linearGradient>
    <linearGradient
       x1="32.251034"
       y1="6.1317081"
       x2="32.251034"
       y2="90.238609"
       id="linearGradient3780"
       xlink:href="#ButtonShadow-0"
       gradientUnits="userSpaceOnUse"
       gradientTransform="matrix(1.0238095,0,0,1.0119048,-1.1428571,-98.071429)" />
    <linearGradient
       x1="32.251034"
       y1="6.1317081"
       x2="32.251034"
       y2="90.238609"
       id="linearGradient3772"
       xlink:href="#ButtonShadow-0"
       gradientUnits="userSpaceOnUse"
       gradientTransform="matrix(1.0238095,0,0,1.0119048,-1.1428571,-98.071429)" />
    <linearGradient
       x1="32.251034"
       y1="6.1317081"
       x2="32.251034"
       y2="90.238609"
       id="linearGradient3725"
       xlink:href="#ButtonShadow-0"
       gradientUnits="userSpaceOnUse"
       gradientTransform="matrix(1.0238095,0,0,1.0119048,-1.1428571,-98.071429)" />
    <linearGradient
       x1="32.251034"
       y1="6.1317081"
       x2="32.251034"
       y2="90.238609"
       id="linearGradient3721"
       xlink:href="#ButtonShadow-0"
       gradientUnits="userSpaceOnUse"
       gradientTransform="translate(0,-97)" />
    <linearGradient
       x1="32.251034"
       y1="6.1317081"
       x2="32.251034"
       y2="90.238609"
       id="linearGradient2918"
       xlink:href="#ButtonShadow-0"
       gradientUnits="userSpaceOnUse"
       gradientTransform="matrix(1.0238095,0,0,1.0119048,-1.1428571,-98.071429)" />
  </defs>
  <metadata
     id="metadata2413">
    <rdf:RDF>
      <cc:Work
         rdf:about="">
        <dc:format>image/svg+xml</dc:format>
        <dc:type
           rdf:resource="http://purl.org/dc/dcmitype/StillImage" />
        <dc:title />
      </cc:Work>
    </rdf:RDF>
  </metadata>
  <g
     id="layer2"
     style="display:none">
    <rect
       width="86"
       height="85"
       rx="6"
       ry="6"
       x="5"
       y="7"
       id="rect3745"
       style="opacity:0.9;fill:url(#ButtonShadow);fill-opacity:1;fill-rule:nonzero;stroke:none;filter:url(#filter3174)" />
  </g>
  <g
     id="layer1"
     style="display:inline">
    <rect
       width="84"
       height="84"
       rx="6"
       ry="0"
       x="6"
       y="6"
       id="rect2419"
       style="fill:#396cba;fill-opacity:1;fill-rule:nonzero;stroke:none" />
  </g>
  <g
     id="layer5"
     style="display:none">
    <rect
       width="66"
       height="66"
       rx="12"
       ry="12"
       x="15"
       y="15"
       clip-path="url(#clipPath3613)"
       id="rect3171"
       style="opacity:0.1;fill:url(#linearGradient3613);fill-opacity:1;fill-rule:nonzero;stroke:#ffffff;stroke-width:0.5;stroke-linecap:round;stroke-linejoin:miter;stroke-miterlimit:4;stroke-opacity:1;stroke-dasharray:none;stroke-dashoffset:0;filter:url(#filter3794)" />
  </g>
  <g
     id="g3036">
    <path
       inkscape:connector-curvature="0"
       id="path3814"
       d="M 24.169572,60.310067 C 19.965591,60.136701 16.780932,59.726745 15.06074,59.137503 12.310578,58.19545 9.9071282,55.839919 8.7655953,52.967868 8.1966917,51.536529 7.9723103,50.337932 7.9723103,48.730316 c 0,-3.373157 1.1773138,-6.145298 3.7016477,-8.716011 2.324631,-2.367343 3.27737,-2.677134 9.796071,-3.185282 1.660904,-0.129471 3.194842,-0.259163 3.408745,-0.288204 l 0.388919,-0.0528 0,-2.60871 c 0,-3.810091 0.206925,-5.499175 0.961371,-7.847437 0.75807,-2.359539 1.810942,-4.186942 3.289724,-5.709761 1.728303,-1.779771 3.413913,-2.665621 5.617874,-2.952397 3.631774,-0.472563 8.025058,2.077716 9.784447,5.67982 0.832143,1.703695 1.345842,4.302001 1.574781,7.965282 0.177371,2.838135 0.08554,10.932953 -0.183424,16.169686 -0.163334,3.180026 -0.462703,5.233041 -0.926775,6.355619 -0.501083,1.21211 -1.734797,2.676328 -3.18664,3.782023 -1.001242,0.762525 -2.676165,1.701361 -3.618259,2.028122 -0.636187,0.220658 -2.175447,0.520421 -3.430026,0.66798 -2.40406,0.282757 -7.753655,0.42492 -10.981194,0.291823 z"
       style="color:#000000;fill:#ff8080;fill-opacity:1;fill-rule:nonzero;stroke:none;stroke-width:2;marker:none;visibility:visible;display:inline;overflow:visible;enable-background:accumulate" />
    <path
       sodipodi:nodetypes="csccssssssccssssscssss"
       inkscape:connector-curvature="0"
       id="path2996"
       d="M 14.393174,60.590841 C 10.113301,58.476031 7.4892823,54.625041 6.9930532,49.730461 6.1363246,41.280131 11.43967,35.013421 19.453754,35.006221 l 4.161106,-0.004 0.396802,-5.31971 c 0.228916,-3.06888 1.132336,-6.43978 2.135192,-7.96692 3.669835,-5.588411 11.086775,-7.295351 16.311129,-3.75385 4.872364,3.30289 5.665366,6.30028 5.665366,21.41409 0,13.18238 -0.05244,13.54222 -2.43155,16.68564 -1.337353,1.76698 -3.752928,3.82651 -5.367937,4.57672 -3.920705,1.82127 -22.216491,1.78767 -25.930688,-0.0476 z m 23.902785,-1.59242 c 1.768217,-0.54609 4.196789,-2.15353 5.396828,-3.57209 2.006064,-2.37135 2.206636,-3.51759 2.489079,-14.22433 0.376537,-14.27351 -0.540978,-18.26998 -4.878695,-21.25047 -7.518312,-5.165891 -15.666604,1.54277 -15.666604,12.89864 l 0,3.91193 -5.440048,0.43747 c -4.554877,0.3663 -5.876535,0.92275 -8.122541,3.41977 -5.3920159,5.99466 -3.4821333,15.3267 3.699553,18.0767 3.82492,1.46463 18.136985,1.65678 22.522428,0.30238 z"
       style="fill:#ffffff;fill-opacity:1" />
    <path
       style="color:#000000;fill:#5fbcd3;fill-opacity:1;fill-rule:nonzero;stroke:none;stroke-width:2;marker:none;visibility:visible;display:inline;overflow:visible;enable-background:accumulate"
       d="m 71.830428,60.822197 c 4.203981,-0.173366 7.38864,-0.583322 9.108832,-1.172564 2.750162,-0.942053 5.153612,-3.297584 6.295144,-6.169635 0.568904,-1.431339 0.793286,-2.629936 0.793286,-4.237552 0,-3.373157 -1.177314,-6.145298 -3.701648,-8.716011 -2.324631,-2.367343 -3.27737,-2.677134 -9.796071,-3.185282 -1.660905,-0.129471 -3.194842,-0.259163 -3.408745,-0.288204 l -0.388919,-0.0528 0,-2.60871 c 0,-3.810091 -0.206925,-5.499175 -0.961371,-7.847437 -0.75807,-2.359539 -1.810943,-4.186942 -3.289724,-5.709761 -1.728304,-1.779771 -3.413914,-2.665621 -5.617874,-2.952397 -3.631774,-0.472563 -8.025059,2.077716 -9.784447,5.67982 -0.832143,1.703695 -1.345842,4.302001 -1.574781,7.965282 -0.177371,2.838135 -0.08554,10.932953 0.183424,16.169686 0.163334,3.180026 0.462702,5.233041 0.926775,6.355619 0.501083,1.21211 1.734797,2.676328 3.18664,3.782023 1.001242,0.762525 2.676165,1.701361 3.618258,2.028122 0.636188,0.220658 2.175448,0.520421 3.430027,0.66798 2.40406,0.282757 7.753655,0.42492 10.981194,0.291823 z"
       id="path3828"
       inkscape:connector-curvature="0" />
    <path
       style="fill:#ffffff;fill-opacity:1"
       d="m 81.606826,61.102971 c 4.279873,-2.11481 6.903891,-5.9658 7.400121,-10.86038 0.856728,-8.45033 -4.446617,-14.71704 -12.460701,-14.72424 l -4.161107,-0.004 -0.396801,-5.31971 c -0.228916,-3.06888 -1.132336,-6.43978 -2.135193,-7.96692 -3.669834,-5.588411 -11.086775,-7.295351 -16.311128,-3.75385 -4.872364,3.30289 -5.665366,6.30028 -5.665366,21.41409 0,13.18238 0.05244,13.54222 2.43155,16.68564 1.337353,1.76698 3.752927,3.82651 5.367937,4.57672 3.920705,1.82127 22.21649,1.78767 25.930688,-0.0476 z m -23.902785,-1.59242 c -1.768217,-0.54609 -4.196789,-2.15353 -5.396828,-3.57209 -2.006064,-2.37135 -2.206636,-3.51759 -2.489079,-14.22433 -0.376537,-14.27351 0.540977,-18.26998 4.878695,-21.25047 7.518312,-5.165891 15.666604,1.54277 15.666604,12.89864 l 0,3.91193 5.440048,0.43747 c 4.554877,0.3663 5.876535,0.92275 8.122541,3.41977 5.392016,5.99466 3.482133,15.3267 -3.699553,18.0767 -3.82492,1.46463 -18.136985,1.65678 -22.522428,0.30238 z"
       id="path3830"
       inkscape:connector-curvature="0"
       sodipodi:nodetypes="csccssssssccssssscssss" />
  </g>
  <text
     xml:space="preserve"
     style="font-size:18px;font-style:normal;font-variant:normal;font-weight:normal;font-stretch:normal;line-height:125%;letter-spacing:0px;word-spacing:0px;fill:#ffffff;fill-opacity:1;stroke:none;font-family:DejaVu Sans;-inkscape-font-specification:DejaVu Sans"
     x="9.959672"
     y="79.816666"
     id="text3875"
     sodipodi:linespacing="125%"><tspan
       sodipodi:role="line"
       id="tspan3877"
       x="9.959672"
       y="79.816666"
       style="font-style:normal;font-variant:normal;font-stretch:normal;fill:#ffffff;font-family:URW Gothic L;-inkscape-font-specification:URW Gothic L Book">younited</tspan></text>
</svg>
