<?xml version="1.0" encoding="UTF-8" standalone="no"?>
<!-- Created with Inkscape (http://www.inkscape.org/) -->

<svg
   xmlns:dc="http://purl.org/dc/elements/1.1/"
   xmlns:cc="http://creativecommons.org/ns#"
   xmlns:rdf="http://www.w3.org/1999/02/22-rdf-syntax-ns#"
   xmlns:svg="http://www.w3.org/2000/svg"
   xmlns="http://www.w3.org/2000/svg"
   xmlns:xlink="http://www.w3.org/1999/xlink"
   xmlns:sodipodi="http://sodipodi.sourceforge.net/DTD/sodipodi-0.dtd"
   xmlns:inkscape="http://www.inkscape.org/namespaces/inkscape"
   width="16"
   height="16"
   id="svg3049"
   version="1.1"
   inkscape:version="0.91 r13725"
   sodipodi:docname="color-gradient.svg"
   inkscape:export-filename="/home/uri/.kde/share/icons/NITRUX-KDE/16x16/actions/view-right-new.png"
   inkscape:export-xdpi="30"
   inkscape:export-ydpi="30">
  <sodipodi:namedview
     id="base"
     pagecolor="#ffffff"
     bordercolor="#ffffff"
     borderopacity="1.0"
     inkscape:pageopacity="0.0"
     inkscape:pageshadow="2"
     inkscape:zoom="28.124999"
     inkscape:cx="1.2866063"
     inkscape:cy="4.6647042"
     inkscape:document-units="px"
     inkscape:current-layer="layer1-6"
     showgrid="true"
     fit-margin-top="0"
     fit-margin-left="0"
     fit-margin-right="0"
     fit-margin-bottom="0"
     inkscape:window-width="1920"
     inkscape:window-height="1002"
     inkscape:window-x="0"
     inkscape:window-y="26"
     inkscape:window-maximized="1"
     inkscape:showpageshadow="false"
     borderlayer="true"
     inkscape:snap-bbox="true"
     inkscape:snap-global="true">
    <inkscape:grid
       id="grid4085"
       type="xygrid" />
    <sodipodi:guide
       id="guide4075"
       orientation="12,0"
       position="2.0000044,14.00003" />
    <sodipodi:guide
       id="guide4077"
       orientation="0,12"
       position="2.0000044,2.0000296" />
    <sodipodi:guide
       id="guide4079"
       orientation="-12,0"
       position="14,9" />
    <sodipodi:guide
       id="guide4081"
       orientation="0,-12"
       position="14,14" />
  </sodipodi:namedview>
  <defs
     id="defs3051">
    <linearGradient
       y2="1033.3622"
       x2="19"
       y1="1049.3622"
       x1="3"
       gradientTransform="matrix(0.57142857,0,0,0.57143056,3.3809517,447.62954)"
       gradientUnits="userSpaceOnUse"
       id="linearGradient9212"
       xlink:href="#ffffffGradient4172-7"
       inkscape:collect="always" />
    <linearGradient
       y2="1033.3622"
       x2="19"
       y1="1049.3622"
       x1="3"
       gradientTransform="matrix(0.57142857,0,0,0.57143056,3.3809517,447.62954)"
       gradientUnits="userSpaceOnUse"
       id="linearGradient9212-393"
       xlink:href="#ffffffGradient4172-7-467"
       inkscape:collect="always" />
  </defs>
  <metadata
     id="metadata3054">
    <rdf:RDF>
      <cc:Work
         rdf:about="">
        <dc:format>image/svg+xml</dc:format>
        <dc:type
           rdf:resource="http://purl.org/dc/dcmitype/StillImage" />
        <dc:title />
      </cc:Work>
    </rdf:RDF>
  </metadata>
  <g
     transform="translate(-421.71429,-531.79074)"
     id="layer1"
     inkscape:groupmode="layer"
     inkscape:label="Capa 1">
    <g
       inkscape:label="Capa 1"
       id="layer1-0"
       transform="matrix(0.75,0,0,0.74999813,421.46429,-241.22897)">
      <g
         inkscape:label="Capa 1"
         id="layer1-6"
         transform="translate(6.2937501e-7,-2.041003e-4)">
        <path
           sodipodi:nodetypes="ccccccccccccc"
           id="rect4156"
           d="m 14.999999,1034.6957 -1.333333,1.3334 -8,0 0,8 -1.3333333,1.3333 0,2.6667 2.6666667,0 0,-1.3333 9.3333336,0 0,-8.0001 1.333333,0 0,-4 z"
           style="fill:url(#linearGradient9212-393);fill-opacity:1;stroke:none"
           inkscape:connector-curvature="0" />
        <path
           id="path4318"
           transform="matrix(1.3333333,0,0,1.3333367,0.3333327,1030.6957)"
           d="M 10 2 L 10 5.28125 L 9 6.28125 L 8.8125 6.46875 L 8 7.28125 L 7.28125 8 L 5.28125 10 L 2 10 L 2 14 L 6 14 L 6 10.71875 L 8.71875 8 L 9.53125 7.1875 L 9.71875 7 L 10.71875 6 L 14 6 L 14 2 L 10 2 z M 11 3 L 13 3 L 13 5 L 11 5 L 11 3 z M 3 11 L 5 11 L 5 13 L 3 13 L 3 11 z "
           style="fill:#d6d0cb;fill-opacity:1;stroke:none" />
      </g>
    </g>
  </g>
</svg>
