<?xml version="1.0" encoding="UTF-8" standalone="no"?>
<!-- Created with Inkscape (http://www.inkscape.org/) -->

<svg
   xmlns:dc="http://purl.org/dc/elements/1.1/"
   xmlns:cc="http://creativecommons.org/ns#"
   xmlns:rdf="http://www.w3.org/1999/02/22-rdf-syntax-ns#"
   xmlns:svg="http://www.w3.org/2000/svg"
   xmlns="http://www.w3.org/2000/svg"
   xmlns:xlink="http://www.w3.org/1999/xlink"
   xmlns:sodipodi="http://sodipodi.sourceforge.net/DTD/sodipodi-0.dtd"
   xmlns:inkscape="http://www.inkscape.org/namespaces/inkscape"
   width="16"
   height="16"
   id="svg3049"
   version="1.1"
   inkscape:version="0.91 r13725"
   sodipodi:docname="distribute-vertical-center.svg"
   inkscape:export-filename="/home/uri/.kde/share/icons/NITRUX-KDE/16x16/actions/view-right-new.png"
   inkscape:export-xdpi="30"
   inkscape:export-ydpi="30">
  <sodipodi:namedview
     id="base"
     pagecolor="#ffffff"
     bordercolor="#ffffff"
     borderopacity="1.0"
     inkscape:pageopacity="0.0"
     inkscape:pageshadow="2"
     inkscape:zoom="45.254834"
     inkscape:cx="4.1988935"
     inkscape:cy="8.1506417"
     inkscape:document-units="px"
     inkscape:current-layer="layer1-6"
     showgrid="true"
     fit-margin-top="0"
     fit-margin-left="0"
     fit-margin-right="0"
     fit-margin-bottom="0"
     inkscape:window-width="1920"
     inkscape:window-height="1002"
     inkscape:window-x="0"
     inkscape:window-y="26"
     inkscape:window-maximized="1"
     inkscape:showpageshadow="false"
     borderlayer="true"
     inkscape:snap-bbox="true"
     inkscape:snap-global="true"
     inkscape:object-nodes="true">
    <inkscape:grid
       id="grid4085"
       type="xygrid" />
    <sodipodi:guide
       id="guide4075"
       orientation="12,0"
       position="2.0000044,14.00003" />
    <sodipodi:guide
       id="guide4077"
       orientation="0,12"
       position="2.0000044,2.0000296" />
    <sodipodi:guide
       id="guide4079"
       orientation="-12,0"
       position="14,9" />
    <sodipodi:guide
       id="guide4081"
       orientation="0,-12"
       position="14.000004,14.00003" />
  </sodipodi:namedview>
  <defs
     id="defs3051">
    <linearGradient
       y2="1045.3622"
       x2="15"
       y1="1045.3622"
       x1="3"
       gradientUnits="userSpaceOnUse"
       id="linearGradient4123"
       xlink:href="#ffffffGradient4021-3"
       inkscape:collect="always"
       gradientTransform="translate(0,-1.9999941)" />
    <linearGradient
       id="linearGradient4021-3">
      <stop
         style="stop-color:#b3b3b3;stop-opacity:1;"
         offset="0"
         id="stop4023-0" />
      <stop
         style="stop-color:#292f34;stop-opacity:1;"
         offset="1"
         id="stop4025-2" />
    </linearGradient>
  </defs>
  <metadata
     id="metadata3054">
    <rdf:RDF>
      <cc:Work
         rdf:about="">
        <dc:format>image/svg+xml</dc:format>
        <dc:type
           rdf:resource="http://purl.org/dc/dcmitype/StillImage" />
        <dc:title />
      </cc:Work>
    </rdf:RDF>
  </metadata>
  <g
     transform="translate(-421.71429,-531.79074)"
     id="layer1"
     inkscape:groupmode="layer"
     inkscape:label="Capa 1">
    <g
       inkscape:label="Capa 1"
       id="layer1-0"
       transform="matrix(0.75,0,0,0.74999813,421.46429,-241.22897)">
      <g
         inkscape:label="Capa 1"
         id="layer1-6"
         transform="translate(6.2937501e-7,-2.041003e-4)">
        <path
           inkscape:connector-curvature="0"
           id="rect4109-3"
           d="m 12.333343,1038.6958 0,-5.3334 3.99999,2.6667 -3.99999,2.6667 z"
           style="fill:#d6d0cb;fill-opacity:1;stroke:none" />
        <path
           id="rect4109-3-8"
           d="m 9.6666674,1033.3625 0,5.3334 -3.9999916,-2.6667 3.9999916,-2.6667 z"
           style="fill:#d6d0cb;fill-opacity:1;stroke:none"
           inkscape:connector-curvature="0" />
        <path
           id="rect4147"
           transform="matrix(1.3333333,0,0,1.3333367,0.3333327,1030.6957)"
           d="M 11 6 L 11 7 L 9 7 L 9 12 L 9 13 L 11 13 L 11 14 L 12 14 L 12 13 L 13 13 L 14 13 L 14 7 L 13 7 L 12 7 L 12 6 L 11 6 z M 10 8 L 13 8 L 13 12 L 10 12 L 10 8 z "
           style="fill:#d6d0cb;fill-opacity:1;fill-rule:evenodd;stroke:none" />
        <path
           id="rect4147-3"
           d="m 5.6666661,1038.6957 0,1.3334 -2.6666667,0 0,6.6666 0,1.3334 2.6666667,0 0,1.3333 1.3333333,0 0,-1.3333 1.3333333,0 1.333333,0 0,-8 -1.333333,0 -1.3333333,0 0,-1.3334 -1.3333333,0 z m -1.3333334,2.6667 4,0 0,5.3333 -4,0 0,-5.3333 z"
           style="fill:#d6d0cb;fill-opacity:1;fill-rule:evenodd;stroke:none"
           inkscape:connector-curvature="0" />
      </g>
    </g>
  </g>
</svg>
