<?xml version="1.0" encoding="UTF-8" standalone="no"?>
<!-- Created with Inkscape (http://www.inkscape.org/) -->

<svg
   xmlns:dc="http://purl.org/dc/elements/1.1/"
   xmlns:cc="http://creativecommons.org/ns#"
   xmlns:rdf="http://www.w3.org/1999/02/22-rdf-syntax-ns#"
   xmlns:svg="http://www.w3.org/2000/svg"
   xmlns="http://www.w3.org/2000/svg"
   xmlns:sodipodi="http://sodipodi.sourceforge.net/DTD/sodipodi-0.dtd"
   xmlns:inkscape="http://www.inkscape.org/namespaces/inkscape"
   width="22"
   height="22"
   id="svg2"
   version="1.1"
   inkscape:version="0.91 r13725"
   viewBox="0 0 22 22"
   sodipodi:docname="edit-link.svg">
  <sodipodi:namedview
     id="base"
     pagecolor="#ffffff"
     bordercolor="#ffffff"
     borderopacity="1.0"
     inkscape:pageopacity="0.0"
     inkscape:pageshadow="2"
     inkscape:zoom="23"
     inkscape:cx="-3.4417471"
     inkscape:cy="12.02454"
     inkscape:document-units="px"
     inkscape:current-layer="layer1"
     showgrid="true"
     inkscape:showpageshadow="false"
     borderlayer="true"
     units="px"
     inkscape:window-width="1920"
     inkscape:window-height="1002"
     inkscape:window-x="0"
     inkscape:window-y="26"
     inkscape:window-maximized="1"
     inkscape:snap-bbox="true"
     showguides="true">
    <inkscape:grid
       id="grid4062"
       type="xygrid" />
    <sodipodi:guide
       id="guide3338"
       orientation="22,0"
       position="0,22.000017" />
    <sodipodi:guide
       id="guide3340"
       orientation="0,22"
       position="0,1.7382813e-05" />
    <sodipodi:guide
       id="guide3342"
       orientation="-22,0"
       position="22,1.7382813e-05" />
    <sodipodi:guide
       id="guide3344"
       orientation="0,-22"
       position="22,22.000017" />
    <sodipodi:guide
       id="guide3348"
       orientation="16,0"
       position="3,19.000017" />
    <sodipodi:guide
       id="guide3350"
       orientation="0,16"
       position="3,3.0000174" />
    <sodipodi:guide
       id="guide3352"
       orientation="-16,0"
       position="19,3.0000174" />
    <sodipodi:guide
       id="guide3354"
       orientation="0,-16"
       position="19,19.000017" />
  </sodipodi:namedview>
  <defs
     id="defs4" />
  <metadata
     id="metadata7">
    <rdf:RDF>
      <cc:Work
         rdf:about="">
        <dc:format>image/svg+xml</dc:format>
        <dc:type
           rdf:resource="http://purl.org/dc/dcmitype/StillImage" />
        <dc:title />
      </cc:Work>
    </rdf:RDF>
  </metadata>
  <g
     transform="translate(0,-1030.3622)"
     id="layer1"
     inkscape:groupmode="layer"
     inkscape:label="Capa 1">
    <path
       id="rect4161"
       transform="translate(0,1030.3622)"
       d="M 3 7 C 2.4459904 7 2 7.4459904 2 8 L 2 14 C 2 14.55401 2.4459904 15 3 15 L 9 15 C 9.55401 15 10 14.55401 10 14 L 10 13 L 12 13 L 12 14 C 12 14.554 12.44599 15 13 15 L 19 15 C 19.55401 15 20 14.554 20 14 L 20 8 C 20 7.446 19.55401 7 19 7 L 13 7 C 12.44599 7 12 7.446 12 8 L 12 9 L 10 9 L 10 8 C 10 7.4459904 9.55401 7 9 7 L 3 7 z M 3 8 L 7 8 L 9 8 L 9 9 C 8.4459904 9 8 9.4459904 8 10 L 8 12 C 8 12.55401 8.4459904 13 9 13 L 9 14 L 7 14 L 3 14 L 3 8 z M 13 8 L 16 8 L 19 8 L 19 14 L 16 14 L 13 14 L 13 13 C 13.55401 13 14 12.55401 14 12 L 14 10 C 14 9.4459904 13.55401 9 13 9 L 13 8 z M 9 10 L 13 10 L 13 12 L 9 12 L 9 10 z "
       style="opacity:1;fill:#d6d0cb;fill-opacity:1;stroke:none" />
  </g>
</svg>
