<?xml version="1.0" encoding="UTF-8" standalone="no"?>
<!-- Created with Inkscape (http://www.inkscape.org/) -->

<svg
   xmlns:dc="http://purl.org/dc/elements/1.1/"
   xmlns:cc="http://creativecommons.org/ns#"
   xmlns:rdf="http://www.w3.org/1999/02/22-rdf-syntax-ns#"
   xmlns:svg="http://www.w3.org/2000/svg"
   xmlns="http://www.w3.org/2000/svg"
   xmlns:sodipodi="http://sodipodi.sourceforge.net/DTD/sodipodi-0.dtd"
   xmlns:inkscape="http://www.inkscape.org/namespaces/inkscape"
   width="16"
   height="16"
   id="svg3049"
   version="1.1"
   inkscape:version="0.91 r13725"
   sodipodi:docname="format-list-ordered.svg"
   inkscape:export-filename="/home/uri/.kde/share/icons/NITRUX-KDE/16x16/actions/view-right-new.png"
   inkscape:export-xdpi="30"
   inkscape:export-ydpi="30">
  <sodipodi:namedview
     id="base"
     pagecolor="#ffffff"
     bordercolor="#ffffff"
     borderopacity="1.0"
     inkscape:pageopacity="0.0"
     inkscape:pageshadow="2"
     inkscape:zoom="24.411306"
     inkscape:cx="3.8864911"
     inkscape:cy="10.74609"
     inkscape:document-units="px"
     inkscape:current-layer="layer1"
     showgrid="true"
     fit-margin-top="0"
     fit-margin-left="0"
     fit-margin-right="0"
     fit-margin-bottom="0"
     inkscape:window-width="1407"
     inkscape:window-height="953"
     inkscape:window-x="505"
     inkscape:window-y="26"
     inkscape:window-maximized="0"
     inkscape:showpageshadow="false"
     borderlayer="true"
     inkscape:snap-bbox="true"
     inkscape:snap-global="true">
    <inkscape:grid
       id="grid4085"
       type="xygrid" />
    <sodipodi:guide
       id="guide4075"
       orientation="12,0"
       position="2,15" />
    <sodipodi:guide
       id="guide4077"
       orientation="0,12"
       position="17,2" />
    <sodipodi:guide
       id="guide4079"
       orientation="-12,0"
       position="14,13" />
    <sodipodi:guide
       id="guide4081"
       orientation="0,-12"
       position="0,14" />
  </sodipodi:namedview>
  <defs
     id="defs3051" />
  <metadata
     id="metadata3054">
    <rdf:RDF>
      <cc:Work
         rdf:about="">
        <dc:format>image/svg+xml</dc:format>
        <dc:type
           rdf:resource="http://purl.org/dc/dcmitype/StillImage" />
        <dc:title />
      </cc:Work>
    </rdf:RDF>
  </metadata>
  <g
     transform="translate(-421.71429,-531.79074)"
     id="layer1"
     inkscape:groupmode="layer"
     inkscape:label="Capa 1">
    <g
       inkscape:label="Capa 1"
       id="layer1-1"
       transform="translate(418.71429,-499.57146)" />
    <path
       id="path4174"
       transform="translate(421.71429,531.79074)"
       d="M 8 2 L 8 3 L 14 3 L 14 2 L 8 2 z M 8 4 L 8 5 L 12 5 L 12 4 L 8 4 z M 8 8 L 8 9 L 14 9 L 14 8 L 8 8 z M 8 10 L 8 11 L 10 11 L 10 10 L 8 10 z M 11 10 L 11 11 L 12.875 11 L 13 11 L 14 11 L 14 10 L 13 10 L 12.875 10 L 11 10 z M 12 13 L 12 14 L 14 14 L 14 13 L 12 13 z "
       style="fill:#d6d0cb;fill-opacity:1;stroke:none" />
    <path
       id="path4174-4-1"
       transform="translate(421.71429,531.79074)"
       d="M 2 8 L 2 9 L 3 9 L 3 11 L 2 11 L 2 12 L 5 12 L 7 12 L 7 11 L 6 11 L 6 9 L 7 9 L 7 8 L 2 8 z M 4 9 L 5 9 L 5 11 L 4 11 L 4 9 z "
       style="fill:#d6d0cb;fill-opacity:1;stroke:none" />
    <path
       inkscape:connector-curvature="0"
       id="path4174-4-6"
       d="m 424.71429,537.79074 0,-1 1,0 0,-2 -1,0 0,-1 3,0 0,1 -1,0 0,2 1,0 0,1 -3,0 z"
       style="fill:#d6d0cb;fill-opacity:1;stroke:none" />
  </g>
</svg>
