<?xml version="1.0" encoding="UTF-8" standalone="no"?>
<!-- Created with Inkscape (http://www.inkscape.org/) -->

<svg
   xmlns:dc="http://purl.org/dc/elements/1.1/"
   xmlns:cc="http://creativecommons.org/ns#"
   xmlns:rdf="http://www.w3.org/1999/02/22-rdf-syntax-ns#"
   xmlns:svg="http://www.w3.org/2000/svg"
   xmlns="http://www.w3.org/2000/svg"
   xmlns:sodipodi="http://sodipodi.sourceforge.net/DTD/sodipodi-0.dtd"
   xmlns:inkscape="http://www.inkscape.org/namespaces/inkscape"
   width="16"
   height="16"
   id="svg3049"
   version="1.1"
   inkscape:version="0.91 r13725"
   sodipodi:docname="go-home.svg"
   inkscape:export-filename="/home/uri/.kde/share/icons/NITRUX-KDE/16x16/actions/view-right-new.png"
   inkscape:export-xdpi="30"
   inkscape:export-ydpi="30">
  <sodipodi:namedview
     id="base"
     pagecolor="#ffffff"
     bordercolor="#ffffff"
     borderopacity="1.0"
     inkscape:pageopacity="0.0"
     inkscape:pageshadow="2"
     inkscape:zoom="39.774755"
     inkscape:cx="9.5374508"
     inkscape:cy="4.1598786"
     inkscape:document-units="px"
     inkscape:current-layer="layer1-6"
     showgrid="true"
     fit-margin-top="0"
     fit-margin-left="0"
     fit-margin-right="0"
     fit-margin-bottom="0"
     inkscape:window-width="1920"
     inkscape:window-height="1002"
     inkscape:window-x="0"
     inkscape:window-y="26"
     inkscape:window-maximized="1"
     inkscape:showpageshadow="false"
     borderlayer="true"
     inkscape:snap-bbox="true"
     inkscape:snap-global="true">
    <inkscape:grid
       id="grid4085"
       type="xygrid" />
    <sodipodi:guide
       id="guide4075"
       orientation="12,0"
       position="2.0000044,14.00003" />
    <sodipodi:guide
       id="guide4077"
       orientation="0,12"
       position="2.0000044,2.0000296" />
    <sodipodi:guide
       id="guide4079"
       orientation="-12,0"
       position="14,9" />
    <sodipodi:guide
       id="guide4081"
       orientation="0,-12"
       position="14,14" />
  </sodipodi:namedview>
  <defs
     id="defs3051" />
  <metadata
     id="metadata3054">
    <rdf:RDF>
      <cc:Work
         rdf:about="">
        <dc:format>image/svg+xml</dc:format>
        <dc:type
           rdf:resource="http://purl.org/dc/dcmitype/StillImage" />
        <dc:title />
      </cc:Work>
    </rdf:RDF>
  </metadata>
  <g
     transform="translate(-421.71429,-531.79074)"
     id="layer1"
     inkscape:groupmode="layer"
     inkscape:label="Capa 1">
    <g
       inkscape:label="Capa 1"
       id="layer1-0"
       transform="matrix(0.75,0,0,0.74999813,421.46429,-241.22897)">
      <g
         inkscape:label="Capa 1"
         id="layer1-6"
         transform="translate(6.2937501e-7,-2.041003e-4)">
        <g
           inkscape:label="Capa 1"
           id="layer1-9"
           transform="matrix(1.3333333,0,0,1.3333367,0.33333277,-351.12404)">
          <path
             inkscape:connector-curvature="0"
             style="fill:#d6d0cb;fill-opacity:1;stroke:none"
             d="M 8,2 7.2929688,2.6992188 7.296875,2.703125 2,7.9980469 2,8 l 0,1 1.0078125,0 0,4 L 3,13 3,14 13,14 13,13 13,9 14,9 14,8 14,7.99805 12.857422,6.8554688 12.15625,7.5566406 12.599609,8 12,8 12,13 9,13 9,10 7,10 7,13 4,13 4,9 4,8 3.4003906,8 7.9980469,3.4042969 8,3.40625 8.0019531,3.4042969 9.4433594,4.84375 10.144531,4.1425781 8.703125,2.703125 8.7070312,2.6992188 8,2 z m 3,1 0,3 1.007812,0 0,-3 L 11,3 z"
             transform="translate(0,1036.3622)"
             id="rect4077" />
        </g>
      </g>
    </g>
  </g>
</svg>
