<?xml version="1.0" encoding="UTF-8" standalone="no"?>
<svg
   xmlns:dc="http://purl.org/dc/elements/1.1/"
   xmlns:cc="http://creativecommons.org/ns#"
   xmlns:rdf="http://www.w3.org/1999/02/22-rdf-syntax-ns#"
   xmlns:svg="http://www.w3.org/2000/svg"
   xmlns="http://www.w3.org/2000/svg"
   xmlns:sodipodi="http://sodipodi.sourceforge.net/DTD/sodipodi-0.dtd"
   xmlns:inkscape="http://www.inkscape.org/namespaces/inkscape"
   width="16"
   viewBox="0 0 16 16"
   height="16"
   id="svg2"
   version="1.1"
   inkscape:version="0.91 r13725"
   sodipodi:docname="help-contents.svg">
  <sodipodi:namedview
     pagecolor="#ffffff"
     bordercolor="#ffffff"
     borderopacity="1"
     objecttolerance="10"
     gridtolerance="10000"
     guidetolerance="10"
     inkscape:pageopacity="0"
     inkscape:pageshadow="2"
     inkscape:window-width="1920"
     inkscape:window-height="1002"
     id="namedview8"
     showgrid="true"
     inkscape:showpageshadow="false"
     borderlayer="true"
     inkscape:zoom="64"
     inkscape:cx="6.6782881"
     inkscape:cy="8.3786027"
     inkscape:window-x="0"
     inkscape:window-y="26"
     inkscape:window-maximized="1"
     inkscape:current-layer="svg2">
    <inkscape:grid
       id="grid4141"
       type="xygrid" />
    <sodipodi:guide
       id="guide4147"
       orientation="16,0"
       position="0,16" />
    <sodipodi:guide
       id="guide4149"
       orientation="0,16"
       position="0,0" />
    <sodipodi:guide
       id="guide4151"
       orientation="-16,0"
       position="16,0" />
    <sodipodi:guide
       id="guide4153"
       orientation="0,-16"
       position="16,16" />
    <sodipodi:guide
       id="guide4155"
       orientation="12,0"
       position="2,14" />
    <sodipodi:guide
       id="guide4157"
       orientation="0,12"
       position="2,2" />
    <sodipodi:guide
       id="guide4159"
       orientation="-12,0"
       position="14,2" />
    <sodipodi:guide
       id="guide4161"
       orientation="0,-12"
       position="14,14" />
    <sodipodi:guide
       id="guide4182"
       orientation="6,0"
       position="2,8" />
    <sodipodi:guide
       id="guide4184"
       orientation="0,12"
       position="2,2" />
    <sodipodi:guide
       id="guide4186"
       orientation="-6,0"
       position="14,2" />
    <sodipodi:guide
       id="guide4188"
       orientation="0,-12"
       position="14,8" />
    <sodipodi:guide
       id="guide4196"
       orientation="3,0"
       position="2,11" />
    <sodipodi:guide
       id="guide4198"
       orientation="0,12"
       position="2,8" />
    <sodipodi:guide
       id="guide4200"
       orientation="-3,0"
       position="14,8" />
    <sodipodi:guide
       id="guide4202"
       orientation="0,-12"
       position="14,11" />
    <sodipodi:guide
       id="guide4225"
       orientation="0,1.4140625"
       position="8.546875,11" />
    <sodipodi:guide
       id="guide4229"
       orientation="0,-0.9609375"
       position="6.9609375,8" />
    <sodipodi:guide
       id="guide4237"
       orientation="0,1.4140625"
       position="8.546875,5" />
  </sodipodi:namedview>
  <metadata
     id="metadata12">
    <rdf:RDF>
      <cc:Work
         rdf:about="">
        <dc:format>image/svg+xml</dc:format>
        <dc:type
           rdf:resource="http://purl.org/dc/dcmitype/StillImage" />
        <dc:title />
      </cc:Work>
    </rdf:RDF>
  </metadata>
  <defs
     id="defs10" />
  <path
     id="path59"
     d="M 8 2 A 6 6 0 0 0 2 8 A 6 6 0 0 0 8 14 A 6 6 0 0 0 14 8 A 6 6 0 0 0 8 2 z M 2 3 L 2 5 L 4 3 L 2 3 z M 8 3 A 5 5 0 0 1 10.390625 3.609375 L 8.8691406 5.1308594 A 3 3 0 0 0 8 5 A 3 3 0 0 0 7.1308594 5.1308594 L 5.6132812 3.6132812 A 5 5 0 0 1 8 3 z M 12 3 L 14 5 L 14 3 L 12 3 z M 3.609375 5.609375 L 5.1308594 7.1308594 A 3 3 0 0 0 5 8 A 3 3 0 0 0 5.1308594 8.8691406 L 3.6132812 10.386719 A 5 5 0 0 1 3 8 A 5 5 0 0 1 3.609375 5.609375 z M 12.386719 5.6132812 A 5 5 0 0 1 13 8 A 5 5 0 0 1 12.390625 10.390625 L 10.869141 8.8691406 A 3 3 0 0 0 11 8 A 3 3 0 0 0 10.869141 7.1308594 L 12.386719 5.6132812 z M 8 6 A 2 2 0 0 1 10 8 A 2 2 0 0 1 8 10 A 2 2 0 0 1 6 8 A 2 2 0 0 1 8 6 z M 7.1308594 10.869141 A 3 3 0 0 0 8 11 A 3 3 0 0 0 8.8691406 10.869141 L 10.386719 12.386719 A 5 5 0 0 1 8 13 A 5 5 0 0 1 5.609375 12.390625 L 7.1308594 10.869141 z M 2 11 L 2 13 L 4 13 L 2 11 z M 14 11 L 12 13 L 14 13 L 14 11 z "
     style="opacity:1;fill:#d6d0cb;fill-opacity:1;stroke:none;stroke-opacity:1" />
</svg>
