<?xml version="1.0" encoding="UTF-8" standalone="no"?>
<!-- Created with Inkscape (http://www.inkscape.org/) -->

<svg
   xmlns:dc="http://purl.org/dc/elements/1.1/"
   xmlns:cc="http://creativecommons.org/ns#"
   xmlns:rdf="http://www.w3.org/1999/02/22-rdf-syntax-ns#"
   xmlns:svg="http://www.w3.org/2000/svg"
   xmlns="http://www.w3.org/2000/svg"
   xmlns:sodipodi="http://sodipodi.sourceforge.net/DTD/sodipodi-0.dtd"
   xmlns:inkscape="http://www.inkscape.org/namespaces/inkscape"
   width="16"
   height="16"
   id="svg3049"
   version="1.1"
   inkscape:version="0.91 r13725"
   sodipodi:docname="mail-attachment.svg"
   inkscape:export-filename="/home/uri/.kde/share/icons/NITRUX-KDE/16x16/actions/view-right-new.png"
   inkscape:export-xdpi="30"
   inkscape:export-ydpi="30">
  <sodipodi:namedview
     id="base"
     pagecolor="#ffffff"
     bordercolor="#ffffff"
     borderopacity="1.0"
     inkscape:pageopacity="0.0"
     inkscape:pageshadow="2"
     inkscape:zoom="48.822612"
     inkscape:cx="2.2365694"
     inkscape:cy="9.0353401"
     inkscape:document-units="px"
     inkscape:current-layer="layer1"
     showgrid="true"
     fit-margin-top="0"
     fit-margin-left="0"
     fit-margin-right="0"
     fit-margin-bottom="0"
     inkscape:window-width="1920"
     inkscape:window-height="1002"
     inkscape:window-x="0"
     inkscape:window-y="26"
     inkscape:window-maximized="1"
     inkscape:showpageshadow="false"
     borderlayer="true"
     inkscape:snap-bbox="true"
     inkscape:snap-global="true"
     inkscape:object-nodes="true">
    <inkscape:grid
       id="grid4085"
       type="xygrid" />
    <sodipodi:guide
       id="guide4075"
       orientation="12,0"
       position="2.0000044,14.00003" />
    <sodipodi:guide
       id="guide4077"
       orientation="0,12"
       position="2.0000044,2.0000296" />
    <sodipodi:guide
       id="guide4079"
       orientation="-12,0"
       position="14.000004,2.0000296" />
    <sodipodi:guide
       id="guide4081"
       orientation="0,-12"
       position="14.000004,14.00003" />
  </sodipodi:namedview>
  <defs
     id="defs3051" />
  <metadata
     id="metadata3054">
    <rdf:RDF>
      <cc:Work
         rdf:about="">
        <dc:format>image/svg+xml</dc:format>
        <dc:type
           rdf:resource="http://purl.org/dc/dcmitype/StillImage" />
        <dc:title />
      </cc:Work>
    </rdf:RDF>
  </metadata>
  <g
     transform="translate(-421.71429,-531.79074)"
     id="layer1"
     inkscape:groupmode="layer"
     inkscape:label="Capa 1">
    <path
       sodipodi:nodetypes="cscccsccsssssssssccsssccc"
       inkscape:connector-curvature="0"
       transform="translate(421.71429,531.79074)"
       id="rect4556"
       d="M 8.5,2 C 7.119294,2 6.0000083,3.1192857 6,4.5 l 0,6.035156 0.00195,0 C 6.0210337,11.349063 6.6858693,11.999164 7.5,12 8.3284271,12 9,11.328427 9,10.5 L 9,5 8,5 8,10.5 C 8,10.776142 7.7761424,11 7.5,11 7.2238576,11 7,10.776142 7,10.5 l 0,-6 C 7,3.6715729 7.6715729,3 8.5,3 9.3284271,3 10,3.6715729 10,4.5 l 0,6 C 10,11.880712 8.8807119,13 7.5,13 6.1192881,13 5,11.880712 5,10.5 L 5,4 4,4 4,10.5 c 0,1.933 1.567,3.500008 3.5,3.5 1.933,8e-6 3.500008,-1.567 3.5,-3.5 l 0,-6.0351562 -0.002,0 C 10.978825,3.0986385 9.866332,2.0009322 8.5,2 Z"
       style="fill:#d6d0cb;fill-opacity:1;fill-rule:evenodd;stroke:none" />
  </g>
</svg>
