<?xml version="1.0" encoding="UTF-8" standalone="no"?>
<!-- Created with Inkscape (http://www.inkscape.org/) -->

<svg
   xmlns:dc="http://purl.org/dc/elements/1.1/"
   xmlns:cc="http://creativecommons.org/ns#"
   xmlns:rdf="http://www.w3.org/1999/02/22-rdf-syntax-ns#"
   xmlns:svg="http://www.w3.org/2000/svg"
   xmlns="http://www.w3.org/2000/svg"
   xmlns:sodipodi="http://sodipodi.sourceforge.net/DTD/sodipodi-0.dtd"
   xmlns:inkscape="http://www.inkscape.org/namespaces/inkscape"
   width="16"
   height="16"
   id="svg3049"
   version="1.1"
   inkscape:version="0.91 r13725"
   sodipodi:docname="object-rotate-left.svg"
   inkscape:export-filename="/home/uri/.kde/share/icons/NITRUX-KDE/16x16/actions/view-right-new.png"
   inkscape:export-xdpi="30"
   inkscape:export-ydpi="30"
   viewBox="0 0 16 16">
  <sodipodi:namedview
     id="base"
     pagecolor="#ffffff"
     bordercolor="#ffffff"
     borderopacity="1.0"
     inkscape:pageopacity="0.0"
     inkscape:pageshadow="2"
     inkscape:zoom="45.254834"
     inkscape:cx="1.1313078"
     inkscape:cy="8.5373781"
     inkscape:document-units="px"
     inkscape:current-layer="layer1"
     showgrid="true"
     fit-margin-top="0"
     fit-margin-left="0"
     fit-margin-right="0"
     fit-margin-bottom="0"
     inkscape:window-width="1920"
     inkscape:window-height="1002"
     inkscape:window-x="0"
     inkscape:window-y="26"
     inkscape:window-maximized="1"
     inkscape:showpageshadow="false"
     borderlayer="true"
     inkscape:snap-bbox="true"
     inkscape:snap-global="true">
    <inkscape:grid
       id="grid4085"
       type="xygrid" />
    <sodipodi:guide
       id="guide4075"
       orientation="12,0"
       position="2,15" />
    <sodipodi:guide
       id="guide4077"
       orientation="0,12"
       position="17,2" />
    <sodipodi:guide
       id="guide4079"
       orientation="-12,0"
       position="14,13" />
    <sodipodi:guide
       id="guide4081"
       orientation="0,-12"
       position="0,14" />
  </sodipodi:namedview>
  <defs
     id="defs3051" />
  <metadata
     id="metadata3054">
    <rdf:RDF>
      <cc:Work
         rdf:about="">
        <dc:format>image/svg+xml</dc:format>
        <dc:type
           rdf:resource="http://purl.org/dc/dcmitype/StillImage" />
        <dc:title />
      </cc:Work>
    </rdf:RDF>
  </metadata>
  <g
     transform="translate(-421.71429,-531.79074)"
     id="layer1"
     inkscape:groupmode="layer"
     inkscape:label="Capa 1">
    <rect
       y="538.79071"
       x="404.71423"
       height="10.999983"
       width="0"
       id="rect4035"
       style="fill:#d6d0cb;fill-opacity:1;stroke:none" />
    <rect
       y="536.73938"
       x="422.755"
       height="10.999983"
       width="0"
       id="rect4035-5"
       style="fill:#d6d0cb;fill-opacity:1;stroke:none" />
    <rect
       y="538.79071"
       x="404.71423"
       height="10.999983"
       width="0"
       id="rect4035-8"
       style="fill:#d6d0cb;fill-opacity:1;stroke:none" />
    <rect
       y="538.79071"
       x="404.71423"
       height="10.999983"
       width="0"
       id="rect4035-59"
       style="fill:#d6d0cb;fill-opacity:1;stroke:none" />
    <text
       xml:space="preserve"
       style="font-style:normal;font-weight:normal;font-size:9px;line-height:125%;font-family:Sans;letter-spacing:0px;word-spacing:0px;fill:#ffffff;fill-opacity:1;stroke:none"
       x="420.15021"
       y="551.54797"
       id="text3781"
       sodipodi:linespacing="125%"><tspan
         y="551.54797"
         x="420.15021"
         sodipodi:role="line"
         id="tspan3783" /></text>
    <text
       xml:space="preserve"
       style="font-style:normal;font-weight:normal;font-size:9px;line-height:125%;font-family:Sans;letter-spacing:0px;word-spacing:0px;fill:#ffffff;fill-opacity:1;stroke:none"
       x="420.8869"
       y="545.68463"
       id="text3781-8"
       sodipodi:linespacing="125%"><tspan
         y="545.68463"
         x="420.8869"
         sodipodi:role="line"
         id="tspan3783-1" /></text>
    <path
       sodipodi:nodetypes="ssssscccccsssssssssssssss"
       inkscape:connector-curvature="0"
       id="rect4144-9"
       d="m 434.21429,536.79074 c 0.27614,0 0.5,0.22386 0.5,0.5 0,0.27614 -0.22386,0.5 -0.5,0.5 -0.27614,0 -0.5,-0.22386 -0.5,-0.5 0,-0.27614 0.22386,-0.5 0.5,-0.5 z m -6.96875,1.5625 3.90625,3.90625 -3.53125,3.53125 -3.90625,-3.90625 z m 7.96875,1.4375 c 0.27614,0 0.5,0.22386 0.5,0.5 0,0.27614 -0.22386,0.5 -0.5,0.5 -0.27614,0 -0.5,-0.22386 -0.5,-0.5 0,-0.27614 0.22386,-0.5 0.5,-0.5 z m -1,3 c 0.27614,0 0.5,0.22386 0.5,0.5 0,0.27614 -0.22386,0.5 -0.5,0.5 -0.27614,0 -0.5,-0.22386 -0.5,-0.5 0,-0.27614 0.22386,-0.5 0.5,-0.5 z m -3,1 c 0.27614,0 0.5,0.22386 0.5,0.5 0,0.27614 -0.22386,0.5 -0.5,0.5 -0.27614,0 -0.5,-0.22386 -0.5,-0.5 0,-0.27614 0.22386,-0.5 0.5,-0.5 z"
       style="color:#000000;text-decoration:none;text-decoration-line:none;display:inline;overflow:visible;visibility:visible;fill:#d6d0cb;fill-opacity:1;fill-rule:nonzero;stroke:none;enable-background:accumulate" />
    <path
       sodipodi:nodetypes="cccccccccccccc"
       inkscape:connector-curvature="0"
       id="rect4176"
       d="m 426.71471,536.29071 1.87891,1.8789 0.94922,0.94923 0.70703,-0.70703 -0.94922,-0.94921 -0.67188,-0.67188 h 4.08552 v -1.00001 h -4.08552 l 0.67188,-0.67187 0.94922,-0.94922 -0.70703,-0.70703 -0.94922,0.94922 z"
       style="fill:#d6d0cb;fill-opacity:1;stroke:none" />
  </g>
</svg>
