<?xml version="1.0" encoding="UTF-8" standalone="no"?>
<!-- Created with Inkscape (http://www.inkscape.org/) -->

<svg
   xmlns:dc="http://purl.org/dc/elements/1.1/"
   xmlns:cc="http://creativecommons.org/ns#"
   xmlns:rdf="http://www.w3.org/1999/02/22-rdf-syntax-ns#"
   xmlns:svg="http://www.w3.org/2000/svg"
   xmlns="http://www.w3.org/2000/svg"
   xmlns:sodipodi="http://sodipodi.sourceforge.net/DTD/sodipodi-0.dtd"
   xmlns:inkscape="http://www.inkscape.org/namespaces/inkscape"
   width="16"
   height="16"
   id="svg3049"
   version="1.1"
   inkscape:version="0.91 r13725"
   sodipodi:docname="stroke-cap-round.svg"
   inkscape:export-filename="/home/uri/.kde/share/icons/NITRUX-KDE/16x16/actions/view-right-new.png"
   inkscape:export-xdpi="30"
   inkscape:export-ydpi="30">
  <sodipodi:namedview
     id="base"
     pagecolor="#ffffff"
     bordercolor="#ffffff"
     borderopacity="1.0"
     inkscape:pageopacity="0.0"
     inkscape:pageshadow="2"
     inkscape:zoom="34.5228"
     inkscape:cx="-0.44439216"
     inkscape:cy="4.6638483"
     inkscape:document-units="px"
     inkscape:current-layer="layer1"
     showgrid="true"
     fit-margin-top="0"
     fit-margin-left="0"
     fit-margin-right="0"
     fit-margin-bottom="0"
     inkscape:window-width="1920"
     inkscape:window-height="1002"
     inkscape:window-x="0"
     inkscape:window-y="26"
     inkscape:window-maximized="1"
     inkscape:showpageshadow="false"
     borderlayer="true"
     inkscape:snap-bbox="true"
     inkscape:object-nodes="true"
     inkscape:snap-global="true">
    <inkscape:grid
       id="grid4085"
       type="xygrid" />
    <sodipodi:guide
       id="guide4075"
       orientation="12,0"
       position="2.0000044,14.00003" />
    <sodipodi:guide
       id="guide4077"
       orientation="0,12"
       position="2.0000044,2.0000296" />
    <sodipodi:guide
       id="guide4079"
       orientation="-12,0"
       position="14.000004,2.0000296" />
    <sodipodi:guide
       id="guide4081"
       orientation="0,-12"
       position="14.000004,14.00003" />
  </sodipodi:namedview>
  <defs
     id="defs3051" />
  <metadata
     id="metadata3054">
    <rdf:RDF>
      <cc:Work
         rdf:about="">
        <dc:format>image/svg+xml</dc:format>
        <dc:type
           rdf:resource="http://purl.org/dc/dcmitype/StillImage" />
        <dc:title />
      </cc:Work>
    </rdf:RDF>
  </metadata>
  <g
     transform="translate(-421.71429,-531.79074)"
     id="layer1"
     inkscape:groupmode="layer"
     inkscape:label="Capa 1">
    <path
       id="rect3355"
       transform="translate(421.71429,531.79074)"
       d="M 8 2 C 5.23 2 3 4.23 3 7 L 3 13 L 3 14 L 4 14 L 6 14 L 7 14 L 7 8 L 7 7 C 7 6.446 7.446 6 8 6 C 8.554 6 9 6.446 9 7 L 9 14 L 10 14 L 12 14 L 13 14 L 13 8 L 13 7 C 13 4.23 10.77 2 8 2 z M 8 3 C 10.216 3 12 4.784 12 7 L 12 13 L 10 13 L 10 8 L 10 7 C 10 5.892 9.108 5 8 5 C 6.892 5 6 5.892 6 7 L 6 13 L 4 13 L 4 8 L 4 7 C 4 4.784 5.784 3 8 3 z "
       style="opacity:1;fill:#d6d0cb;fill-opacity:1;stroke:none;stroke-width:2.79999995;stroke-miterlimit:4;stroke-dasharray:none;stroke-opacity:0.55026455" />
  </g>
</svg>
