<?xml version="1.0" encoding="UTF-8" standalone="no"?>
<!-- Created with Inkscape (http://www.inkscape.org/) -->

<svg
   xmlns:dc="http://purl.org/dc/elements/1.1/"
   xmlns:cc="http://creativecommons.org/ns#"
   xmlns:rdf="http://www.w3.org/1999/02/22-rdf-syntax-ns#"
   xmlns:svg="http://www.w3.org/2000/svg"
   xmlns="http://www.w3.org/2000/svg"
   xmlns:sodipodi="http://sodipodi.sourceforge.net/DTD/sodipodi-0.dtd"
   xmlns:inkscape="http://www.inkscape.org/namespaces/inkscape"
   width="16"
   height="16"
   id="svg3049"
   version="1.1"
   inkscape:version="0.91 r13725"
   sodipodi:docname="svn-commit.svg"
   inkscape:export-filename="/home/uri/.kde/share/icons/NITRUX-KDE/16x16/actions/view-right-new.png"
   inkscape:export-xdpi="30"
   inkscape:export-ydpi="30"
   viewBox="0 0 16 16">
  <sodipodi:namedview
     id="base"
     pagecolor="#ffffff"
     bordercolor="#ffffff"
     borderopacity="1.0"
     inkscape:pageopacity="0.0"
     inkscape:pageshadow="2"
     inkscape:zoom="34.5228"
     inkscape:cx="-0.33171636"
     inkscape:cy="6.519839"
     inkscape:document-units="px"
     inkscape:current-layer="layer1"
     showgrid="true"
     fit-margin-top="0"
     fit-margin-left="0"
     fit-margin-right="0"
     fit-margin-bottom="0"
     inkscape:window-width="1920"
     inkscape:window-height="1002"
     inkscape:window-x="0"
     inkscape:window-y="26"
     inkscape:window-maximized="1"
     inkscape:showpageshadow="false"
     borderlayer="true"
     inkscape:snap-bbox="true">
    <inkscape:grid
       id="grid4085"
       type="xygrid" />
    <sodipodi:guide
       id="guide4075"
       orientation="12,0"
       position="2.0000044,14.00003" />
    <sodipodi:guide
       id="guide4077"
       orientation="0,12"
       position="2.0000044,2.0000296" />
    <sodipodi:guide
       id="guide4079"
       orientation="-12,0"
       position="14.000004,2.0000296" />
    <sodipodi:guide
       id="guide4081"
       orientation="0,-12"
       position="14.000004,14.00003" />
  </sodipodi:namedview>
  <defs
     id="defs3051" />
  <metadata
     id="metadata3054">
    <rdf:RDF>
      <cc:Work
         rdf:about="">
        <dc:format>image/svg+xml</dc:format>
        <dc:type
           rdf:resource="http://purl.org/dc/dcmitype/StillImage" />
        <dc:title />
      </cc:Work>
    </rdf:RDF>
  </metadata>
  <g
     transform="translate(-421.71429,-531.79074)"
     id="layer1"
     inkscape:groupmode="layer"
     inkscape:label="Capa 1">
    <path
       inkscape:connector-curvature="0"
       id="path3010"
       transform="translate(421.71429,531.79074)"
       d="M 3.5,2 C 2.67157,2 2,2.67157 2,3.5 2,4.1558404 2.4135873,4.7024109 3,4.90625 v 6.1875 C 2.4135873,11.297589 2,11.84416 2,12.5 2,13.32843 2.67157,14 3.5,14 4.32843,14 5,13.32843 5,12.5 5,11.84416 4.5864127,11.297589 4,11.09375 v -6.1875 c 0.07716,-0.026821 0.1479033,-0.055264 0.21875,-0.09375 l 2.875,2.15625 C 7.0337918,7.1308525 7,7.317055 7,7.5 7,8.32843 7.67157,9 8.5,9 9.32843,9 10,8.32843 10,7.5 10,6.67157 9.32843,6 8.5,6 8.2152272,6 7.9455454,6.0809461 7.71875,6.21875 L 4.875,4.09375 C 4.9509039,3.9142923 5,3.7071075 5,3.5 5,2.67157 4.32843,2 3.5,2 Z m 0,1 C 3.77614,3 4,3.22386 4,3.5 4,3.77614 3.77614,4 3.5,4 3.22386,4 3,3.77614 3,3.5 3,3.22386 3.22386,3 3.5,3 Z m 5,4 C 8.77614,7 9,7.22386 9,7.5 9,7.77614 8.77614,8 8.5,8 8.22386,8 8,7.77614 8,7.5 8,7.22386 8.22386,7 8.5,7 Z m -5,5 C 3.77614,12 4,12.22386 4,12.5 4,12.77614 3.77614,13 3.5,13 3.22386,13 3,12.77614 3,12.5 3,12.22386 3.22386,12 3.5,12 Z"
       style="color:#000000;display:inline;overflow:visible;visibility:visible;fill:#d6d0cb;fill-opacity:1;fill-rule:nonzero;stroke:none;stroke-width:2;marker:none;enable-background:accumulate" />
    <rect
       y="534.79071"
       x="404.71429"
       height="10.999983"
       width="0"
       id="rect4035"
       style="fill:#d6d0cb;fill-opacity:1;stroke:none" />
    <path
       sodipodi:nodetypes="cccccccccccc"
       inkscape:connector-curvature="0"
       id="rect4071-8"
       d="m 432.71429,545.79074 v -4.09375 l -2.28125,2.28125 -0.71875,-0.6875 3.28125,-3.3125 0.21875,-0.1875 0.21875,0.1875 3.28125,3.3125 -0.71875,0.6875 -2.28125,-2.28125 v 4.09375 z"
       style="fill:#d6d0cb;fill-opacity:1;stroke:none" />
  </g>
</svg>
