<?xml version="1.0" encoding="UTF-8" standalone="no"?>
<!-- Created with Inkscape (http://www.inkscape.org/) -->

<svg
   xmlns:dc="http://purl.org/dc/elements/1.1/"
   xmlns:cc="http://creativecommons.org/ns#"
   xmlns:rdf="http://www.w3.org/1999/02/22-rdf-syntax-ns#"
   xmlns:svg="http://www.w3.org/2000/svg"
   xmlns="http://www.w3.org/2000/svg"
   xmlns:sodipodi="http://sodipodi.sourceforge.net/DTD/sodipodi-0.dtd"
   xmlns:inkscape="http://www.inkscape.org/namespaces/inkscape"
   width="16"
   height="16"
   id="svg3049"
   version="1.1"
   inkscape:version="0.91 r13725"
   sodipodi:docname="text_superscript.svg"
   inkscape:export-filename="/home/uri/.kde/share/icons/NITRUX-KDE/16x16/actions/view-right-new.png"
   inkscape:export-xdpi="30"
   inkscape:export-ydpi="30">
  <sodipodi:namedview
     id="base"
     pagecolor="#ffffff"
     bordercolor="#ffffff"
     borderopacity="1.0"
     inkscape:pageopacity="0.0"
     inkscape:pageshadow="2"
     inkscape:zoom="48.822612"
     inkscape:cx="5.8387831"
     inkscape:cy="12.408737"
     inkscape:document-units="px"
     inkscape:current-layer="layer1"
     showgrid="true"
     fit-margin-top="0"
     fit-margin-left="0"
     fit-margin-right="0"
     fit-margin-bottom="0"
     inkscape:window-width="1407"
     inkscape:window-height="953"
     inkscape:window-x="505"
     inkscape:window-y="26"
     inkscape:window-maximized="0"
     inkscape:showpageshadow="false"
     borderlayer="true"
     inkscape:snap-bbox="true"
     inkscape:snap-global="true">
    <inkscape:grid
       id="grid4085"
       type="xygrid" />
    <sodipodi:guide
       id="guide4075"
       orientation="12,0"
       position="2,15" />
    <sodipodi:guide
       id="guide4077"
       orientation="0,12"
       position="17,2" />
    <sodipodi:guide
       id="guide4079"
       orientation="-12,0"
       position="14,13" />
    <sodipodi:guide
       id="guide4081"
       orientation="0,-12"
       position="0,14" />
  </sodipodi:namedview>
  <defs
     id="defs3051" />
  <metadata
     id="metadata3054">
    <rdf:RDF>
      <cc:Work
         rdf:about="">
        <dc:format>image/svg+xml</dc:format>
        <dc:type
           rdf:resource="http://purl.org/dc/dcmitype/StillImage" />
        <dc:title />
      </cc:Work>
    </rdf:RDF>
  </metadata>
  <g
     transform="translate(-421.71429,-531.79074)"
     id="layer1"
     inkscape:groupmode="layer"
     inkscape:label="Capa 1">
    <path
       id="rect6367"
       d="m 432.71429,533.79074 0,5 1,0 1.5,0 c 0.82843,0 1.5,-0.67157 1.5,-1.5 0,-0.5333 -0.26819,-1.01527 -0.6875,-1.28125 0.11546,-0.21254 0.1875,-0.45987 0.1875,-0.71875 0,-0.82843 -0.67156,-1.5 -1.5,-1.5 l -1,0 -1,0 z m 1,1 1,0 c 0.27614,0 0.5,0.22386 0.5,0.5 0,0.27614 -0.22386,0.5 -0.5,0.5 l -1,0 0,-1 z m 0,2 1,0 0.5,0 c 0.27615,0 0.5,0.22386 0.5,0.5 0,0.27614 -0.22385,0.5 -0.5,0.5 l -1.5,0 0,-1 z"
       style="color:#000000;display:inline;overflow:visible;visibility:visible;opacity:1;fill:#d6d0cb;fill-opacity:1;fill-rule:nonzero;stroke:none;stroke-width:1;marker:none;enable-background:accumulate"
       inkscape:connector-curvature="0" />
    <path
       inkscape:connector-curvature="0"
       id="path6328-5-5"
       d="m 428.0971,533.79074 -4.38281,11 1.35742,0 1.18945,-3 4.92774,0 1.15234,3 1.37305,0 -4.25195,-11 -1.36524,0 z m 0.67969,1.32813 c 0.11316,0.37608 0.71147,2.08196 1.79687,5.11523 l 0.22461,0.55664 -4.14257,0 2.12109,-5.67187 z"
       style="font-style:normal;font-variant:normal;font-weight:normal;font-stretch:normal;font-size:14.99414539px;line-height:125%;font-family:Oxygen;-inkscape-font-specification:Oxygen;letter-spacing:0px;word-spacing:0px;fill:#d6d0cb;fill-opacity:1;stroke:none" />
  </g>
</svg>
