<?xml version="1.0" encoding="UTF-8" standalone="no"?>
<!-- Created with Inkscape (http://www.inkscape.org/) -->

<svg
   xmlns:dc="http://purl.org/dc/elements/1.1/"
   xmlns:cc="http://creativecommons.org/ns#"
   xmlns:rdf="http://www.w3.org/1999/02/22-rdf-syntax-ns#"
   xmlns:svg="http://www.w3.org/2000/svg"
   xmlns="http://www.w3.org/2000/svg"
   xmlns:sodipodi="http://sodipodi.sourceforge.net/DTD/sodipodi-0.dtd"
   xmlns:inkscape="http://www.inkscape.org/namespaces/inkscape"
   width="16"
   height="16"
   id="svg3049"
   version="1.1"
   inkscape:version="0.91 r13725"
   sodipodi:docname="text_letter_spacing.svg"
   inkscape:export-filename="/home/uri/.kde/share/icons/NITRUX-KDE/16x16/actions/view-right-new.png"
   inkscape:export-xdpi="30"
   inkscape:export-ydpi="30">
  <sodipodi:namedview
     id="base"
     pagecolor="#ffffff"
     bordercolor="#ffffff"
     borderopacity="1.0"
     inkscape:pageopacity="0.0"
     inkscape:pageshadow="2"
     inkscape:zoom="16"
     inkscape:cx="-12.892576"
     inkscape:cy="9.0173541"
     inkscape:document-units="px"
     inkscape:current-layer="layer1"
     showgrid="true"
     fit-margin-top="0"
     fit-margin-left="0"
     fit-margin-right="0"
     fit-margin-bottom="0"
     inkscape:window-width="1407"
     inkscape:window-height="1000"
     inkscape:window-x="511"
     inkscape:window-y="26"
     inkscape:window-maximized="0"
     inkscape:showpageshadow="false"
     borderlayer="true"
     inkscape:snap-bbox="true"
     inkscape:snap-global="true">
    <inkscape:grid
       id="grid4085"
       type="xygrid" />
    <sodipodi:guide
       id="guide4075"
       orientation="12,0"
       position="2,15" />
    <sodipodi:guide
       id="guide4077"
       orientation="0,12"
       position="17,2" />
    <sodipodi:guide
       id="guide4079"
       orientation="-12,0"
       position="14,13" />
    <sodipodi:guide
       id="guide4081"
       orientation="0,-12"
       position="0,14" />
  </sodipodi:namedview>
  <defs
     id="defs3051" />
  <metadata
     id="metadata3054">
    <rdf:RDF>
      <cc:Work
         rdf:about="">
        <dc:format>image/svg+xml</dc:format>
        <dc:type
           rdf:resource="http://purl.org/dc/dcmitype/StillImage" />
        <dc:title />
      </cc:Work>
    </rdf:RDF>
  </metadata>
  <g
     transform="translate(-421.71429,-531.79074)"
     id="layer1"
     inkscape:groupmode="layer"
     inkscape:label="Capa 1">
    <rect
       y="534.79071"
       x="417.71429"
       height="10.999983"
       width="0"
       id="rect4035"
       style="fill:#d6d0cb;fill-opacity:1;stroke:none" />
    <rect
       y="535.0567"
       x="411.57404"
       height="10.999983"
       width="0"
       id="rect4035-2"
       style="fill:#d6d0cb;fill-opacity:1;stroke:none" />
    <rect
       y="533.00537"
       x="429.61481"
       height="10.999983"
       width="0"
       id="rect4035-5"
       style="fill:#d6d0cb;fill-opacity:1;stroke:none" />
    <rect
       y="535.0567"
       x="411.57404"
       height="10.999983"
       width="0"
       id="rect4035-8"
       style="fill:#d6d0cb;fill-opacity:1;stroke:none" />
    <rect
       y="535.0567"
       x="411.57404"
       height="10.999983"
       width="0"
       id="rect4035-59"
       style="fill:#d6d0cb;fill-opacity:1;stroke:none" />
    <text
       xml:space="preserve"
       style="font-size:9px;font-style:normal;font-weight:normal;line-height:125%;letter-spacing:0px;word-spacing:0px;fill:#d6d0cb;fill-opacity:1;stroke:none;font-family:Sans"
       x="427.01001"
       y="547.81396"
       id="text3781"
       sodipodi:linespacing="125%"><tspan
         y="547.81396"
         x="427.01001"
         sodipodi:role="line"
         id="tspan3783" /></text>
    <text
       xml:space="preserve"
       style="font-size:9px;font-style:normal;font-weight:normal;line-height:125%;letter-spacing:0px;word-spacing:0px;fill:#d6d0cb;fill-opacity:1;stroke:none;font-family:Sans"
       x="427.7467"
       y="541.95062"
       id="text3781-8"
       sodipodi:linespacing="125%"><tspan
         y="541.95062"
         x="427.7467"
         sodipodi:role="line"
         id="tspan3783-1" /></text>
    <text
       xml:space="preserve"
       style="font-size:9px;font-style:normal;font-weight:normal;line-height:125%;letter-spacing:0px;word-spacing:0px;fill:#d6d0cb;fill-opacity:1;stroke:none;font-family:Sans"
       x="421.01001"
       y="548.81396"
       id="text3781-4"
       sodipodi:linespacing="125%"><tspan
         y="548.81396"
         x="421.01001"
         sodipodi:role="line"
         id="tspan3783-13" /></text>
    <rect
       y="535.0567"
       x="411.57404"
       height="10.999983"
       width="0"
       id="rect4035-9"
       style="fill:#d6d0cb;fill-opacity:1;stroke:none" />
    <rect
       y="533.00537"
       x="429.61481"
       height="10.999983"
       width="0"
       id="rect4035-5-7"
       style="fill:#d6d0cb;fill-opacity:1;stroke:none" />
    <rect
       y="535.0567"
       x="391.57404"
       height="10.999983"
       width="0"
       id="rect4035-9-0"
       style="fill:#d6d0cb;fill-opacity:1;stroke:none" />
    <rect
       y="533.00537"
       x="409.61481"
       height="10.999983"
       width="0"
       id="rect4035-5-7-5"
       style="fill:#d6d0cb;fill-opacity:1;stroke:none" />
    <rect
       y="535.79071"
       x="428.71429"
       height="1"
       width="1.9999956"
       id="rect4749"
       style="color:#000000;fill:#d6d0cb;fill-opacity:1;fill-rule:nonzero;stroke:none;stroke-width:2;marker:none;visibility:visible;display:inline;overflow:visible;enable-background:accumulate" />
    <path
       inkscape:connector-curvature="0"
       id="path4864"
       d="m 431.71429,533.79074 0,5 1,0 1.5,0 c 0.82843,0 1.5,-0.67157 1.5,-1.5 l 0,-2 c 0,-0.82843 -0.67157,-1.5 -1.5,-1.5 l -1.5,0 -1,0 z m 1,1 1.5,0 c 0.27614,0 0.5,0.22386 0.5,0.5 l 0,0.59375 0,0.8125 0,0.59375 c 0,0.27614 -0.22386,0.5 -0.5,0.5 l -1.5,0 0,-3 z"
       style="color:#000000;fill:#d6d0cb;fill-opacity:1;fill-rule:nonzero;stroke:none;stroke-width:0.5;marker:none;visibility:visible;display:inline;overflow:visible;enable-background:accumulate" />
    <path
       id="rect4148-4"
       transform="translate(421.71429,531.79074)"
       d="M 2 9 L 2 10 L 5 10 L 5 9 L 2 9 z M 7 9 L 7 10 L 9 10 L 9 9 L 7 9 z M 11 9 L 11 10 L 14 10 L 14 9 L 11 9 z M 6 11 L 2 12.5 L 6 14 L 6 11 z M 10 11 L 10 14 L 14 12.5 L 10 11 z M 8 12 C 7.7238576 12 7.5 12.223858 7.5 12.5 C 7.5 12.776142 7.7238576 13 8 13 C 8.2761424 13 8.5 12.776142 8.5 12.5 C 8.5 12.223858 8.2761424 12 8 12 z "
       style="fill:#d6d0cb;fill-opacity:1;stroke:none" />
    <path
       id="rect4985"
       transform="translate(421.71429,531.79074)"
       d="M 2 2 L 2 7 L 3 7 L 4.5 7 C 5.32843 7 6 6.32843 6 5.5 C 6 4.9666982 5.7318023 4.484728 5.3125 4.21875 C 5.4279583 4.00621 5.5 3.7588844 5.5 3.5 C 5.5 2.67157 4.82843 2 4 2 L 3 2 L 2.5 2 L 2 2 z M 3 3 L 4 3 C 4.27614 3 4.5 3.22386 4.5 3.5 C 4.5 3.77614 4.27614 4 4 4 L 3 4 L 3 3 z M 3 5 L 4.5 5 C 4.77614 5 5 5.22386 5 5.5 C 5 5.77614 4.77614 6 4.5 6 L 3 6 L 3 5 z "
       style="color:#000000;fill:#d6d0cb;fill-opacity:1;fill-rule:nonzero;stroke:none;stroke-width:0.50000000000000000;marker:none;visibility:visible;display:inline;overflow:visible;enable-background:accumulate;opacity:1" />
  </g>
</svg>
