<?xml version="1.0" encoding="UTF-8" standalone="no"?>
<!-- Created with Inkscape (http://www.inkscape.org/) -->

<svg
   xmlns:dc="http://purl.org/dc/elements/1.1/"
   xmlns:cc="http://creativecommons.org/ns#"
   xmlns:rdf="http://www.w3.org/1999/02/22-rdf-syntax-ns#"
   xmlns:svg="http://www.w3.org/2000/svg"
   xmlns="http://www.w3.org/2000/svg"
   xmlns:sodipodi="http://sodipodi.sourceforge.net/DTD/sodipodi-0.dtd"
   xmlns:inkscape="http://www.inkscape.org/namespaces/inkscape"
   width="16"
   height="16"
   id="svg2"
   version="1.1"
   inkscape:version="0.91 r13725"
   viewBox="0 0 16 16"
   sodipodi:docname="tools-media-optical-erase.svg">
  <sodipodi:namedview
     id="base"
     pagecolor="#ffffff"
     bordercolor="#ffffff"
     borderopacity="1.0"
     inkscape:pageopacity="0.0"
     inkscape:pageshadow="2"
     inkscape:zoom="89.6"
     inkscape:cx="8.3456943"
     inkscape:cy="6.1658679"
     inkscape:document-units="px"
     inkscape:current-layer="layer1"
     showgrid="true"
     inkscape:showpageshadow="false"
     borderlayer="true"
     inkscape:window-width="1920"
     inkscape:window-height="1002"
     inkscape:window-x="0"
     inkscape:window-y="26"
     inkscape:window-maximized="1"
     units="px"
     inkscape:object-nodes="true"
     inkscape:snap-bbox="true">
    <inkscape:grid
       id="grid4101"
       type="xygrid" />
    <sodipodi:guide
       id="guide4071"
       orientation="12,0"
       position="2,14.000017" />
    <sodipodi:guide
       id="guide4073"
       orientation="0,12"
       position="2,2.0000174" />
    <sodipodi:guide
       id="guide4075"
       orientation="-12,0"
       position="14,2.0000174" />
    <sodipodi:guide
       id="guide4077"
       orientation="0,-12"
       position="14,14.000017" />
  </sodipodi:namedview>
  <defs
     id="defs4" />
  <metadata
     id="metadata7">
    <rdf:RDF>
      <cc:Work
         rdf:about="">
        <dc:format>image/svg+xml</dc:format>
        <dc:type
           rdf:resource="http://purl.org/dc/dcmitype/StillImage" />
        <dc:title />
      </cc:Work>
    </rdf:RDF>
  </metadata>
  <g
     transform="translate(0,-1036.3622)"
     id="layer1"
     inkscape:groupmode="layer"
     inkscape:label="Capa 1">
    <path
       sodipodi:nodetypes="ccccc"
       inkscape:connector-curvature="0"
       id="path4302"
       transform="translate(0,1036.3622)"
       d="M 8,4 C 5.790861,4 4,5.790861 4,8 L 6,8 C 6,6.8954305 6.8954305,6 8,6 Z"
       style="fill:#d6d0cb;fill-opacity:1;fill-rule:evenodd;stroke:none" />
    <path
       id="path4201-0-7"
       transform="translate(0,1036.3622)"
       d="M 8 2 A 6 6.0000086 0 0 0 2 8 A 6 6.0000086 0 0 0 8 14 L 8 13 A 5 5 0 0 1 3 8 A 5 5 0 0 1 8 3 A 5 5 0 0 1 13 8 A 5 5 0 0 1 12.898438 9 L 13.914062 9 A 6 6.0000086 0 0 0 14 8 A 6 6.0000086 0 0 0 8 2 z "
       style="fill:#d6d0cb;fill-opacity:1;fill-rule:evenodd;stroke:none" />
    <circle
       r="1"
       cy="1044.3622"
       cx="8"
       id="path4307"
       style="fill:#d6d0cb;fill-opacity:1;fill-rule:evenodd;stroke:none" />
    <path
       sodipodi:nodetypes="cccccccccccc"
       inkscape:connector-curvature="0"
       id="path3349"
       d="m 10,1046.3622 -2,2 2,2 4,0 0,-4 z m 0.6,1 2.4,0 0,2 -2.4,0 -1,-1 z"
       style="fill:#d6d0cb;fill-opacity:1;fill-rule:evenodd;stroke:none;stroke-width:1px;stroke-linecap:butt;stroke-linejoin:miter;stroke-opacity:1" />
  </g>
</svg>
