<?xml version="1.0" encoding="UTF-8" standalone="no"?>
<!-- Created with Inkscape (http://www.inkscape.org/) -->

<svg
   xmlns:dc="http://purl.org/dc/elements/1.1/"
   xmlns:cc="http://creativecommons.org/ns#"
   xmlns:rdf="http://www.w3.org/1999/02/22-rdf-syntax-ns#"
   xmlns:svg="http://www.w3.org/2000/svg"
   xmlns="http://www.w3.org/2000/svg"
   xmlns:sodipodi="http://sodipodi.sourceforge.net/DTD/sodipodi-0.dtd"
   xmlns:inkscape="http://www.inkscape.org/namespaces/inkscape"
   width="16"
   height="16"
   id="svg3049"
   version="1.1"
   inkscape:version="0.91 r13725"
   sodipodi:docname="view-sort-descending.svg"
   inkscape:export-filename="/home/uri/.kde/share/icons/NITRUX-KDE/16x16/actions/view-right-new.png"
   inkscape:export-xdpi="30"
   inkscape:export-ydpi="30">
  <sodipodi:namedview
     id="base"
     pagecolor="#ffffff"
     bordercolor="#ffffff"
     borderopacity="1.0"
     inkscape:pageopacity="0.0"
     inkscape:pageshadow="2"
     inkscape:zoom="48.822612"
     inkscape:cx="-4.1662047"
     inkscape:cy="8.8229665"
     inkscape:document-units="px"
     inkscape:current-layer="layer1"
     showgrid="true"
     fit-margin-top="0"
     fit-margin-left="0"
     fit-margin-right="0"
     fit-margin-bottom="0"
     inkscape:window-width="1920"
     inkscape:window-height="1002"
     inkscape:window-x="0"
     inkscape:window-y="26"
     inkscape:window-maximized="1"
     inkscape:showpageshadow="false"
     borderlayer="true"
     inkscape:snap-bbox="true"
     inkscape:snap-global="true"
     inkscape:object-nodes="true">
    <inkscape:grid
       id="grid4085"
       type="xygrid" />
    <sodipodi:guide
       id="guide4075"
       orientation="12,0"
       position="2.0000044,14.00003" />
    <sodipodi:guide
       id="guide4077"
       orientation="0,12"
       position="2.0000044,2.0000296" />
    <sodipodi:guide
       id="guide4079"
       orientation="-12,0"
       position="14.000004,2.0000296" />
    <sodipodi:guide
       id="guide4081"
       orientation="0,-12"
       position="14.000004,14.00003" />
  </sodipodi:namedview>
  <defs
     id="defs3051" />
  <metadata
     id="metadata3054">
    <rdf:RDF>
      <cc:Work
         rdf:about="">
        <dc:format>image/svg+xml</dc:format>
        <dc:type
           rdf:resource="http://purl.org/dc/dcmitype/StillImage" />
        <dc:title />
      </cc:Work>
    </rdf:RDF>
  </metadata>
  <g
     transform="translate(-421.71429,-531.79074)"
     id="layer1"
     inkscape:groupmode="layer"
     inkscape:label="Capa 1">
    <rect
       y="534.79071"
       x="404.71429"
       height="10.999983"
       width="0"
       id="rect4035"
       style="fill:#d6d0cb;fill-opacity:1;stroke:none" />
    <path
       id="rect4071-8"
       transform="translate(421.71429,531.79074)"
       d="M 10 4 L 10 12.09375 L 7.71875 9.8125 L 7 10.5 L 10.28125 13.8125 L 10.5 14 L 10.71875 13.8125 L 14 10.5 L 13.28125 9.8125 L 11 12.09375 L 11 4 L 10 4 z "
       style="fill:#d6d0cb;fill-opacity:1;stroke:none" />
    <path
       sodipodi:nodetypes="cccscsccsscccssccccssccc"
       inkscape:connector-curvature="0"
       id="rect4071-79"
       d="m 425.80809,540.79071 c -0.78324,0.0182 -1.37534,0.14339 -1.8125,0.34375 l 0.25,0.90625 c 0.20947,-0.0729 1.00427,-0.3125 1.46875,-0.3125 l 0.0625,0 c 0.64663,0.0273 0.6875,0.25695 0.6875,0.8125 l 0,0.21875 -0.34375,0.0625 c -1.56649,0.22768 -2.40625,0.42281 -2.40625,1.625 0,0.83789 0.61657,1.34375 1.5,1.34375 0.6102,0 0.99642,-0.24767 1.40625,-0.59375 l 0.0937,0.59375 1,0 0,-3.46875 c 0,-1.02914 -0.7196,-1.53125 -1.8125,-1.53125 l -0.0937,0 z m 0.65625,2.6875 0,1.125 c -0.33697,0.2277 -0.59409,0.375 -1.03125,0.375 -0.39162,0 -0.59375,-0.24767 -0.59375,-0.59375 0,-0.65574 0.57997,-0.77482 1.28125,-0.875 l 0.34375,-0.0312 z"
       style="fill:#d6d0cb;fill-opacity:1;stroke:none" />
    <path
       sodipodi:nodetypes="ccccccccccc"
       inkscape:connector-curvature="0"
       id="rect4071-7-9"
       d="m 423.71429,533.79074 0,1 2.375,0 -2.375,3.31863 0,0.68134 4,3e-5 0,-1 -2,0 2,-3 0,-1 z"
       style="fill:#d6d0cb;fill-opacity:1;stroke:none" />
  </g>
</svg>
