<?xml version="1.0" encoding="UTF-8" standalone="no"?>
<!-- Created using Karbon, part of Calligra: http://www.calligra.org/karbon -->

<svg
   xmlns:dc="http://purl.org/dc/elements/1.1/"
   xmlns:cc="http://creativecommons.org/ns#"
   xmlns:rdf="http://www.w3.org/1999/02/22-rdf-syntax-ns#"
   xmlns:svg="http://www.w3.org/2000/svg"
   xmlns="http://www.w3.org/2000/svg"
   xmlns:sodipodi="http://sodipodi.sourceforge.net/DTD/sodipodi-0.dtd"
   xmlns:inkscape="http://www.inkscape.org/namespaces/inkscape"
   width="38.4pt"
   height="38.4pt"
   id="svg2"
   version="1.1"
   inkscape:version="0.48.4 r9939"
   sodipodi:docname="unlocked.svg">
  <metadata
     id="metadata19">
    <rdf:RDF>
      <cc:Work
         rdf:about="">
        <dc:format>image/svg+xml</dc:format>
        <dc:type
           rdf:resource="http://purl.org/dc/dcmitype/StillImage" />
      </cc:Work>
    </rdf:RDF>
  </metadata>
  <sodipodi:namedview
     pagecolor="#ffffff"
     bordercolor="#666666"
     borderopacity="1"
     objecttolerance="10"
     gridtolerance="10"
     guidetolerance="10"
     inkscape:pageopacity="0"
     inkscape:pageshadow="2"
     inkscape:window-width="1680"
     inkscape:window-height="991"
     id="namedview17"
     showgrid="false"
     inkscape:zoom="11.2856"
     inkscape:cx="9.8766147"
     inkscape:cy="31.101776"
     inkscape:window-x="0"
     inkscape:window-y="-3"
     inkscape:window-maximized="1"
     inkscape:current-layer="svg2"
     showguides="true"
     inkscape:guide-bbox="true" />
  <defs
     id="defs4" />
  <g
     style="stroke:none;stroke-width:0;stroke-miterlimit:4;stroke-opacity:1;stroke-dasharray:none;fill:#1a1a1a;fill-opacity:1"
     id="g3021"
     transform="matrix(0.73179044,0,0,0.76558889,6.8671409,6.9587721)">
    <g
       id="g3768"
       style="stroke:none;fill:#1a1a1a;fill-opacity:1">
      <g
         id="g3793"
         style="stroke:none;fill:#1a1a1a;fill-opacity:1">
        <g
           id="g3801"
           style="stroke:none;fill:#1a1a1a;fill-opacity:1">
          <path
             inkscape:connector-curvature="0"
             id="path3797"
             d="m 23.659758,-0.24361786 c -6.22099,0 -11.264683,4.65353446 -11.243195,10.43930886 l 0,3.986665 6.010785,0 0,-3.287971 c 0,-3.085766 2.649683,-5.5895509 5.967541,-5.5895513 3.317858,0 6.00061,2.3422426 6.010785,5.5895513 l 0.03972,12.677568 c 2.130839,3.82e-4 4.792372,0.03261 5.900997,0.0321 l 0.02683,-13.408362 c 0.01158,-5.7858 -4.978966,-10.43930886 -11.199956,-10.43930886 z"
             style="fill:#1a1a1a;fill-opacity:1;fill-rule:evenodd;stroke:none;stroke-width:0.13360073000000000;stroke-miterlimit:4;stroke-dasharray:none"
             sodipodi:nodetypes="scccsssccsss" />
          <path
             sodipodi:nodetypes="scccsssccsss"
             style="fill:#1a1a1a;fill-opacity:1;fill-rule:evenodd;stroke:none;stroke-opacity:1;stroke-width:0.66800364000000001;stroke-miterlimit:4;stroke-dasharray:none;opacity:1"
             d="m 23.647578,-0.08034485 c -6.143366,0 -11.124125,4.62167405 -11.102905,10.36783585 l 0,3.959371 5.935784,0 0,-3.26546 c 0,-3.0646396 2.616622,-5.5512823 5.89308,-5.5512827 3.276459,0 5.925736,2.3262064 5.935784,5.5512827 l 0.03923,12.590771 c 2.104251,3.79e-4 4.732574,0.03239 5.827366,0.03188 l 0.02649,-13.316562 C 36.213839,4.5413038 31.285567,-0.08034485 25.1422,-0.08034485 z"
             id="path3805"
             inkscape:connector-curvature="0" />
        </g>
      </g>
    </g>
    <path
       sodipodi:nodetypes="ccccc"
       inkscape:connector-curvature="0"
       style="fill:#1a1a1a;fill-opacity:1;fill-rule:evenodd;stroke:none;stroke-width:0;stroke-miterlimit:4;stroke-opacity:1;stroke-dasharray:none"
       d="m 7.8064342,23.423027 0,20.549248 31.8851998,0 0,-20.549248 c -11.413702,-0.210628 -27.855852,0 -31.8851998,0 z"
       id="path3013" />
    <path
       id="path3764"
       d="m 7.9528034,23.561506 0,20.235882 31.5924616,0 0,-20.235882 c -11.308912,-0.207416 -27.600107,0 -31.5924616,0 z"
       style="fill:#1a1a1a;fill-opacity:1;fill-rule:evenodd;stroke:none;stroke-width:0.66800364000000001;stroke-miterlimit:4;stroke-opacity:1;stroke-dasharray:none;opacity:1"
       inkscape:connector-curvature="0"
       sodipodi:nodetypes="ccccc" />
  </g>
</svg>
