<?xml version="1.0" encoding="UTF-8" standalone="no"?>
<!-- Created with Inkscape (http://www.inkscape.org/) -->

<svg
   xmlns:dc="http://purl.org/dc/elements/1.1/"
   xmlns:cc="http://creativecommons.org/ns#"
   xmlns:rdf="http://www.w3.org/1999/02/22-rdf-syntax-ns#"
   xmlns:svg="http://www.w3.org/2000/svg"
   xmlns="http://www.w3.org/2000/svg"
   xmlns:sodipodi="http://sodipodi.sourceforge.net/DTD/sodipodi-0.dtd"
   xmlns:inkscape="http://www.inkscape.org/namespaces/inkscape"
   width="48"
   height="48"
   id="svg2"
   version="1.1"
   inkscape:version="0.48.5 r10040"
   sodipodi:docname="locked.svg">
  <defs
     id="defs4" />
  <sodipodi:namedview
     id="base"
     pagecolor="#ffffff"
     bordercolor="#666666"
     borderopacity="1.0"
     inkscape:pageopacity="0.0"
     inkscape:pageshadow="2"
     inkscape:zoom="8.4432942"
     inkscape:cx="27.317411"
     inkscape:cy="19.223363"
     inkscape:document-units="px"
     inkscape:current-layer="layer1"
     showgrid="true"
     inkscape:window-width="1366"
     inkscape:window-height="706"
     inkscape:window-x="-2"
     inkscape:window-y="-3"
     inkscape:window-maximized="1" />
  <metadata
     id="metadata7">
    <rdf:RDF>
      <cc:Work
         rdf:about="">
        <dc:format>image/svg+xml</dc:format>
        <dc:type
           rdf:resource="http://purl.org/dc/dcmitype/StillImage" />
        <dc:title />
      </cc:Work>
    </rdf:RDF>
  </metadata>
  <g
     inkscape:label="Capa 1"
     inkscape:groupmode="layer"
     id="layer1"
     transform="translate(0,-1004.3622)">
    <rect
       style="fill:none;stroke:none"
       id="rect3260"
       width="30"
       height="30"
       x="9.0024233"
       y="1013.3622"
       ry="0" />
    <rect
       ry="0"
       y="1028.3622"
       x="13.002423"
       height="15"
       width="22"
       id="rect3272"
       style="fill:#4d4d4d;fill-opacity:1;fill-rule:evenodd;stroke:none" />
    <ellipse
       sodipodi:ry="3.5001078"
       sodipodi:rx="3.502425"
       sodipodi:cy="1028.3622"
       sodipodi:cx="12.497575"
       d="m 16,1028.3622 c 0,1.933 -1.568089,3.5001 -3.502425,3.5001 -1.934336,0 -3.5024251,-1.5671 -3.5024251,-3.5001 0,-1.9331 1.5680891,-3.5001 3.5024251,-3.5001 1.934336,0 3.502425,1.567 3.502425,3.5001 z"
       ry="3.5001078"
       rx="3.502425"
       cy="1028.3622"
       cx="12.497575"
       id="path3282"
       style="fill:none;stroke:none"
       transform="translate(0.00242376,4.8138809e-5)" />
    <ellipse
       sodipodi:ry="2.0000615"
       sodipodi:rx="2.0013857"
       sodipodi:cy="1028.3622"
       sodipodi:cx="10.998614"
       d="m 13,1028.3622 c 0,1.1046 -0.896051,2 -2.001386,2 -1.1053345,0 -2.0013854,-0.8954 -2.0013854,-2 0,-1.1046 0.8960509,-2.0001 2.0013854,-2.0001 1.105335,0 2.001386,0.8955 2.001386,2.0001 z"
       ry="2.0000615"
       rx="2.0013857"
       cy="1028.3622"
       cx="10.998614"
       style="fill:none;stroke:none"
       id="path3274"
       transform="translate(0.00242376,4.8138809e-5)" />
    <ellipse
       sodipodi:ry="3.5001078"
       sodipodi:rx="3.502425"
       sodipodi:cy="1028.3622"
       sodipodi:cx="35.497578"
       d="m 39.000003,1028.3622 c 0,1.933 -1.568089,3.5001 -3.502425,3.5001 -1.934336,0 -3.502425,-1.5671 -3.502425,-3.5001 0,-1.9331 1.568089,-3.5001 3.502425,-3.5001 1.934336,0 3.502425,1.567 3.502425,3.5001 z"
       ry="3.5001078"
       rx="3.502425"
       cy="1028.3622"
       cx="35.497578"
       style="fill:none;stroke:none"
       id="path3280"
       transform="translate(0.00242376,4.8138809e-5)" />
    <ellipse
       sodipodi:ry="2.0000615"
       sodipodi:rx="2.0013857"
       sodipodi:cy="1028.3622"
       sodipodi:cx="36.998615"
       d="m 39.000001,1028.3622 c 0,1.1046 -0.896051,2 -2.001386,2 -1.105335,0 -2.001385,-0.8954 -2.001385,-2 0,-1.1046 0.89605,-2.0001 2.001385,-2.0001 1.105335,0 2.001386,0.8955 2.001386,2.0001 z"
       ry="2.0000615"
       rx="2.0013857"
       cy="1028.3622"
       cx="36.998615"
       id="path3276"
       style="fill:none;stroke:none"
       transform="translate(0.00242376,4.8138809e-5)" />
    <path
       inkscape:connector-curvature="0"
       style="fill:#4d4d4d;fill-opacity:1;fill-rule:evenodd;stroke:none"
       d="m 23.502424,1013.3622 c -4.155,0 -7.5,3.345 -7.5,7.5 l 0,7.5 4,0 0,-6.9805 0.002,0 c -7.9e-5,-0.01 -0.002,-0.013 -0.002,-0.019 0,-2.216 1.784002,-4 4,-4 2.215998,0 4,1.784 4,4 0,0.01 -0.0019,0.013 -0.002,0.019 l 0.002,0 0,6.9805 4,0 0,-7.5 c 0,-4.155 -3.345,-7.5 -7.5,-7.5 l -1,0 z"
       id="rect3278" />
    <ellipse
       sodipodi:ry="2.0000615"
       sodipodi:rx="2.0013857"
       sodipodi:cy="1015.3622"
       sodipodi:cx="23.99861"
       d="m 25.999995,1015.3622 c 0,1.1046 -0.896051,2 -2.001385,2 -1.105335,0 -2.001386,-0.8954 -2.001386,-2 0,-1.1046 0.896051,-2.0001 2.001386,-2.0001 1.105334,0 2.001385,0.8955 2.001385,2.0001 z"
       ry="2.0000615"
       rx="2.0013857"
       cy="1015.3622"
       cx="23.99861"
       style="fill:none;stroke:none"
       id="path3286"
       transform="translate(0.00242376,4.8138809e-5)" />
    <path
       id="path2999"
       d="m 23.502424,1013.3622 c -4.155,0 -7.5,3.345 -7.5,7.5 l 0,7.5 4,0 0,-6.9805 0.002,0 c -7.9e-5,-0.01 -0.002,-0.013 -0.002,-0.019 0,-2.216 1.784002,-4 4,-4 2.215998,0 4,1.784 4,4 0,0.01 -0.0019,0.013 -0.002,0.019 l 0.002,0 0,6.9805 4,0 0,-7.5 c 0,-4.155 -3.345,-7.5 -7.5,-7.5 l -1,0 z"
       style="fill:#4d4d4d;fill-opacity:1;fill-rule:evenodd;stroke:none"
       inkscape:connector-curvature="0" />
  </g>
</svg>
