<?xml version="1.0" encoding="UTF-8" standalone="no"?>
<!-- Created using Karbon, part of Calligra: http://www.calligra.org/karbon -->

<svg
   xmlns:dc="http://purl.org/dc/elements/1.1/"
   xmlns:cc="http://creativecommons.org/ns#"
   xmlns:rdf="http://www.w3.org/1999/02/22-rdf-syntax-ns#"
   xmlns:svg="http://www.w3.org/2000/svg"
   xmlns="http://www.w3.org/2000/svg"
   xmlns:sodipodi="http://sodipodi.sourceforge.net/DTD/sodipodi-0.dtd"
   xmlns:inkscape="http://www.inkscape.org/namespaces/inkscape"
   width="38.4pt"
   height="38.4pt"
   id="svg2"
   version="1.1"
   inkscape:version="0.48.4 r9939"
   sodipodi:docname="task-accepted.svg">
  <metadata
     id="metadata11">
    <rdf:RDF>
      <cc:Work
         rdf:about="">
        <dc:format>image/svg+xml</dc:format>
        <dc:type
           rdf:resource="http://purl.org/dc/dcmitype/StillImage" />
        <dc:title></dc:title>
      </cc:Work>
    </rdf:RDF>
  </metadata>
  <sodipodi:namedview
     pagecolor="#ffffff"
     bordercolor="#666666"
     borderopacity="1"
     objecttolerance="10"
     gridtolerance="10"
     guidetolerance="10"
     inkscape:pageopacity="0"
     inkscape:pageshadow="2"
     inkscape:window-width="709"
     inkscape:window-height="478"
     id="namedview9"
     showgrid="false"
     inkscape:zoom="9.470257"
     inkscape:cx="26.350693"
     inkscape:cy="31.609331"
     inkscape:window-x="101"
     inkscape:window-y="325"
     inkscape:window-maximized="0"
     inkscape:current-layer="svg2" />
  <defs
     id="defs4" />
  <g
     id="g2992"
     transform="matrix(1.3508644,0,0,1.3508644,-6.5874423,5.6686207)">
    <rect
       ry="0.262306"
       y="12.808154"
       x="9.4619589"
       height="3.8179832"
       width="17.844921"
       id="rect2988"
       style="color:#000000;fill:#0064d4;fill-opacity:1;fill-rule:nonzero;stroke:none;stroke-width:1;marker:none;visibility:visible;display:inline;overflow:visible;enable-background:accumulate" />
    <path
       inkscape:transform-center-x="-1.4057022"
       transform="matrix(0.01141386,0.99993486,-0.99993486,0.01141386,31.24351,1.0622211)"
       inkscape:transform-center-y="0.032738293"
       d="m 8.726907,6.7124885 2.484016,-4.3024422 2.484017,-4.3024425 2.484016,4.3024423 2.484016,4.3024427 -4.968032,-1e-7 z"
       inkscape:randomized="0"
       inkscape:rounded="0"
       inkscape:flatsided="false"
       sodipodi:arg2="3.6651914"
       sodipodi:arg1="2.6179939"
       sodipodi:r2="2.868295"
       sodipodi:r1="5.7365899"
       sodipodi:cy="3.8441937"
       sodipodi:cx="13.69494"
       sodipodi:sides="3"
       id="path2990"
       style="color:#000000;fill:#0064d4;fill-opacity:1;fill-rule:nonzero;stroke:none;stroke-width:1;marker:none;visibility:visible;display:inline;overflow:visible;enable-background:accumulate"
       sodipodi:type="star" />
  </g>
  <path
     style="color:#000000;fill:#0064d4;fill-opacity:1;fill-rule:nonzero;stroke:none;stroke-width:1;marker:none;visibility:visible;display:inline;overflow:visible;enable-background:accumulate"
     d="M 14.25 13.09375 C 14.075983 13.09375 13.90625 13.241196 13.90625 13.4375 L 13.90625 17.90625 C 13.90625 18.102554 14.075983 18.25 14.25 18.25 L 34.96875 18.25 C 35.142767 18.25 35.28125 18.102554 35.28125 17.90625 L 35.28125 17.84375 L 34.3125 17.84375 L 33.71875 17.84375 L 14.875 17.84375 C 14.728987 17.84375 14.59375 17.695964 14.59375 17.53125 L 14.59375 13.8125 C 14.59375 13.647786 14.728987 13.5 14.875 13.5 L 34.25 13.5 L 34.3125 13.5 L 35.28125 13.5 L 35.28125 13.4375 C 35.28125 13.241196 35.142767 13.09375 34.96875 13.09375 L 14.25 13.09375 z "
     id="rect2998" />
  <path
     style="color:#000000;fill:#0064d4;fill-opacity:1;fill-rule:nonzero;stroke:none;stroke-width:1;marker:none;visibility:visible;display:inline;overflow:visible;enable-background:accumulate"
     d="m 34.40625,9.125 0.03785,4.344928 0.53125,0 c 0.0435,0 0.08755,0.01436 0.125,0.03125 l 0.28125,0 L 35.34375,10.5 l 4.625,2.625 4.625,2.59375 -4.5625,2.71875 -4.5625,2.6875 -0.005,-3.282215 -0.34375,0 c -0.03745,0.01689 -0.0815,0.03125 -0.125,0.03125 l -0.46875,0 0.03627,4.657215 5.78125,-3.40625 5.75,-3.4375 L 40.25,12.40625 z"
     id="path3000"
     inkscape:connector-curvature="0"
     sodipodi:nodetypes="ccscccccccccscccccc" />
</svg>
