<?xml version="1.0" encoding="UTF-8" standalone="no"?>
<!-- Created using Karbon, part of Calligra: http://www.calligra.org/karbon -->

<svg
   xmlns:dc="http://purl.org/dc/elements/1.1/"
   xmlns:cc="http://creativecommons.org/ns#"
   xmlns:rdf="http://www.w3.org/1999/02/22-rdf-syntax-ns#"
   xmlns:svg="http://www.w3.org/2000/svg"
   xmlns="http://www.w3.org/2000/svg"
   xmlns:sodipodi="http://sodipodi.sourceforge.net/DTD/sodipodi-0.dtd"
   xmlns:inkscape="http://www.inkscape.org/namespaces/inkscape"
   width="38.4pt"
   height="38.4pt"
   id="svg2"
   version="1.1"
   inkscape:version="0.48.5 r10040"
   sodipodi:docname="weather-showers-night.svg">
  <metadata
     id="metadata10">
    <rdf:RDF>
      <cc:Work
         rdf:about="">
        <dc:format>image/svg+xml</dc:format>
        <dc:type
           rdf:resource="http://purl.org/dc/dcmitype/StillImage" />
        <dc:title></dc:title>
      </cc:Work>
    </rdf:RDF>
  </metadata>
  <sodipodi:namedview
     pagecolor="#ffffff"
     bordercolor="#666666"
     borderopacity="1"
     objecttolerance="10"
     gridtolerance="10"
     guidetolerance="10"
     inkscape:pageopacity="0"
     inkscape:pageshadow="2"
     inkscape:window-width="971"
     inkscape:window-height="706"
     id="namedview8"
     showgrid="false"
     inkscape:zoom="7.792753"
     inkscape:cx="-2.3915418"
     inkscape:cy="18.934175"
     inkscape:window-x="341"
     inkscape:window-y="109"
     inkscape:window-maximized="0"
     inkscape:current-layer="svg2" />
  <defs
     id="defs4" />
  <path
     style="fill:#ffffff;fill-opacity:1"
     id="path5"
     d="m 43.207629,-17.131024 c 0.03568,-0.294879 0.05281,-0.594795 0.05281,-0.894658 0,-3.741025 -2.622689,-6.786151 -5.847893,-6.786151 -1.87032,0 -3.587819,1.025557 -4.675755,2.707197 -0.384042,-0.10773 -0.775212,-0.16239 -1.172137,-0.16239 -2.821152,0 -5.116906,2.664094 -5.116906,5.937881 0,0.08287 0.0014,0.164034 0.0043,0.245203 -2.114424,0.728981 -3.659227,3.005416 -3.659227,5.692679 0,3.2737869 2.295755,5.9378809 5.116906,5.9378809 h 12.426771 c 3.225205,0 5.847893,-3.043482 5.847893,-6.7861499 0,-2.473552 -1.172137,-4.708528 -2.97676,-5.891492 z M 40.336496,-6.1499191 H 27.909725 c -2.018802,0 -3.654933,-1.898691 -3.654933,-4.2413439 0,-2.342654 1.636176,-4.241344 3.654933,-4.241344 0.111384,0 0.217012,0.02651 0.325517,0.03812 -0.20559,-0.530168 -0.325517,-1.114996 -0.325517,-1.734657 0,-2.342706 1.636176,-4.241344 3.654933,-4.241344 0.659624,0 1.270683,0.218694 1.804623,0.573271 0.662456,-1.83242 2.22293,-3.118077 4.043269,-3.118077 2.422809,0 4.38592,2.278079 4.38592,5.089613 0,0.669337 -0.118512,1.305538 -0.321223,1.892063 1.866026,0.586472 3.245169,2.544807 3.245169,4.894087 0,2.8115339 -1.96311,5.0896129 -4.38592,5.0896129 z"
     inkscape:connector-curvature="0" />
  <g
     id="g3787">
    <path
       id="path3827"
       d="m 28.306685,1.7169435 c 0,7.4123645 -6.008908,13.4212735 -13.421273,13.4212735 -7.4123643,0 -13.421273,-6.008909 -13.421273,-13.4212735 0,-7.4123645 6.0089087,-13.4212735 13.421273,-13.4212735 7.412365,0 13.421273,6.008909 13.421273,13.4212735 z"
       style="color:#000000;fill:#f3f3ff;fill-opacity:1;fill-rule:nonzero;stroke:#b1ada3;stroke-width:0.44156069;stroke-linecap:butt;stroke-linejoin:miter;stroke-miterlimit:4;stroke-opacity:1;stroke-dasharray:none;stroke-dashoffset:0;marker:none;visibility:visible;display:inline;overflow:visible;enable-background:accumulate"
       transform="matrix(1.1323472,0,0,1.1323472,7.1445452,22.055824)"
       inkscape:connector-curvature="0" />
    <path
       inkscape:connector-curvature="0"
       style="color:#000000;fill:#f3f3ff;fill-opacity:1;fill-rule:nonzero;stroke:#b1ada3;stroke-width:0.5;stroke-linecap:butt;stroke-linejoin:miter;stroke-miterlimit:4;stroke-opacity:1;stroke-dasharray:none;stroke-dashoffset:0;marker:none;visibility:visible;display:inline;overflow:visible;enable-background:accumulate"
       d="m 29.693339,18.468809 c 0,1.976336 -1.602136,3.578473 -3.578472,3.578473 -1.976336,0 -3.578473,-1.602137 -3.578473,-3.578473 0,-1.976336 1.602137,-3.578472 3.578473,-3.578472 1.976336,0 3.578472,1.602136 3.578472,3.578472 z"
       id="path3832" />
    <path
       id="path3834"
       d="m 17.354633,24 c 0,1.181595 -0.957871,2.139467 -2.139466,2.139467 -1.181595,0 -2.139467,-0.957872 -2.139467,-2.139467 0,-1.181595 0.957872,-2.139466 2.139467,-2.139466 1.181595,0 2.139466,0.957871 2.139466,2.139466 z"
       style="color:#000000;fill:#f3f3ff;fill-opacity:1;fill-rule:nonzero;stroke:#b1ada3;stroke-width:0.5;stroke-linecap:butt;stroke-linejoin:miter;stroke-miterlimit:4;stroke-opacity:1;stroke-dasharray:none;stroke-dashoffset:0;marker:none;visibility:visible;display:inline;overflow:visible;enable-background:accumulate"
       inkscape:connector-curvature="0" />
    <path
       inkscape:connector-curvature="0"
       style="color:#000000;fill:#f3f3ff;fill-opacity:1;fill-rule:nonzero;stroke:#b1ada3;stroke-width:0.5;stroke-linecap:butt;stroke-linejoin:miter;stroke-miterlimit:4;stroke-opacity:1;stroke-dasharray:none;stroke-dashoffset:0;marker:none;visibility:visible;display:inline;overflow:visible;enable-background:accumulate"
       d="m 27.603605,32.459469 c 0,1.181595 -0.957871,2.139467 -2.139466,2.139467 -1.181595,0 -2.139467,-0.957872 -2.139467,-2.139467 0,-1.181595 0.957872,-2.139466 2.139467,-2.139466 1.181595,0 2.139466,0.957871 2.139466,2.139466 z"
       id="path3836" />
    <path
       id="path3838"
       d="m 18.516495,15.377849 c 0,0.745112 -0.604032,1.349144 -1.349143,1.349144 -0.745112,0 -1.349144,-0.604032 -1.349144,-1.349144 0,-0.745111 0.604032,-1.349143 1.349144,-1.349143 0.745111,0 1.349143,0.604032 1.349143,1.349143 z"
       style="color:#000000;fill:#f3f3ff;fill-opacity:1;fill-rule:nonzero;stroke:#b1ada3;stroke-width:0.5;stroke-linecap:butt;stroke-linejoin:miter;stroke-miterlimit:4;stroke-opacity:1;stroke-dasharray:none;stroke-dashoffset:0;marker:none;visibility:visible;display:inline;overflow:visible;enable-background:accumulate"
       inkscape:connector-curvature="0" />
  </g>
  <path
     style="color:#000000;fill:#ffffff;fill-opacity:1;fill-rule:nonzero;stroke:#b1ada3;stroke-width:0.4478251;stroke-miterlimit:4;stroke-opacity:1;stroke-dasharray:none;marker:none;visibility:visible;display:inline;overflow:visible;enable-background:accumulate"
     d="m 12.746631,29.84958 c -2.577169,-0.192083 -4.2407304,-1.105772 -5.1722094,-2.840773 -0.759981,-1.415566 -0.438762,-2.774661 0.979999,-4.146425 0.937752,-0.906689 2.1991674,-1.43282 3.7757044,-1.574827 l 1.210259,-0.109013 -0.143683,-1.37764 c -0.199157,-1.909512 0.237732,-2.838619 1.825429,-3.882013 1.622008,-1.065943 3.455677,-1.282547 6.311945,-0.745609 0.48176,0.09056 0.653832,0.0051 0.963095,-0.478663 0.456995,-0.714765 2.556189,-2.016402 3.804895,-2.359278 2.000735,-0.549371 4.373252,-0.198511 6.281387,0.928924 2.029929,1.199396 2.531954,2.049188 2.541812,4.3026 l 0.0081,1.879918 1.076959,0.51269 c 2.614797,1.244791 3.852547,2.787283 3.852547,4.801078 0,1.451686 -0.798431,2.714177 -2.336078,3.693846 -2.284758,1.455665 -1.806369,1.402184 -13.139643,1.468948 -5.530881,0.03258 -10.859177,-5.28e-4 -11.840655,-0.07376 l 0,0 z"
     id="path4111"
     inkscape:connector-curvature="0" />
  <g
     id="g4245"
     style="stroke:#0000ff;stroke-width:0.1;stroke-miterlimit:4;stroke-opacity:1;stroke-dasharray:none"
     transform="matrix(0.93090937,0,0,1,3.0282339,0)">
    <g
       id="g4211"
       style="stroke:#0000ff;stroke-width:0.1;stroke-miterlimit:4;stroke-opacity:1;stroke-dasharray:none">
      <path
         style="color:#000000;fill:#91c8e6;fill-opacity:1;fill-rule:nonzero;stroke:#0000ff;stroke-width:0.1;stroke-miterlimit:4;stroke-opacity:1;stroke-dasharray:none;marker:none;visibility:visible;display:inline;overflow:visible;enable-background:accumulate"
         d="m 22.994563,34.87298 c -0.146798,1.565452 0.218506,2.846937 0.488047,2.846937 0.26954,0 0.625274,-1.280617 0.488046,-2.846937 -0.181478,-2.071385 -0.218506,-4.162653 -0.488046,-4.162653 -0.269541,0 -0.306569,2.227377 -0.488047,4.162653 z"
         id="path4153"
         inkscape:connector-curvature="0"
         sodipodi:nodetypes="sssss" />
      <path
         sodipodi:nodetypes="sssss"
         inkscape:connector-curvature="0"
         id="path4156"
         d="m 25.977217,34.008253 c -0.09557,1.019201 0.14226,1.853523 0.317747,1.853523 0.175486,0 0.40709,-0.833757 0.317747,-1.853523 -0.118153,-1.348593 -0.142261,-2.710131 -0.317747,-2.710131 -0.175487,0 -0.199594,1.450153 -0.317747,2.710131 z"
         style="color:#000000;fill:#91c8e6;fill-opacity:1;fill-rule:nonzero;stroke:#0000ff;stroke-width:0.1;stroke-miterlimit:4;stroke-opacity:1;stroke-dasharray:none;marker:none;visibility:visible;display:inline;overflow:visible;enable-background:accumulate" />
      <path
         style="color:#000000;fill:#91c8e6;fill-opacity:1;fill-rule:nonzero;stroke:#0000ff;stroke-width:0.1;stroke-miterlimit:4;stroke-opacity:1;stroke-dasharray:none;marker:none;visibility:visible;display:inline;overflow:visible;enable-background:accumulate"
         d="m 24.616132,39.452594 c -0.09557,1.019201 0.14226,1.853523 0.317747,1.853523 0.175486,0 0.40709,-0.833757 0.317747,-1.853523 -0.118153,-1.348593 -0.142261,-2.710131 -0.317747,-2.710131 -0.175487,0 -0.199594,1.450153 -0.317747,2.710131 z"
         id="path4158"
         inkscape:connector-curvature="0"
         sodipodi:nodetypes="sssss" />
      <path
         sodipodi:nodetypes="sssss"
         inkscape:connector-curvature="0"
         id="path4160"
         d="m 28.780112,33.96303 c -0.125974,1.343437 0.187516,2.44318 0.418831,2.44318 0.231313,0 0.536596,-1.098998 0.418831,-2.44318 -0.155741,-1.777617 -0.187518,-3.572298 -0.418831,-3.572298 -0.231315,0 -0.263091,1.911487 -0.418831,3.572298 z"
         style="color:#000000;fill:#91c8e6;fill-opacity:1;fill-rule:nonzero;stroke:#0000ff;stroke-width:0.1;stroke-miterlimit:4;stroke-opacity:1;stroke-dasharray:none;marker:none;visibility:visible;display:inline;overflow:visible;enable-background:accumulate" />
      <path
         style="color:#000000;fill:#91c8e6;fill-opacity:1;fill-rule:nonzero;stroke:#0000ff;stroke-width:0.1;stroke-miterlimit:4;stroke-opacity:1;stroke-dasharray:none;marker:none;visibility:visible;display:inline;overflow:visible;enable-background:accumulate"
         d="m 27.338302,41.176635 c -0.09557,1.019201 0.14226,1.853523 0.317747,1.853523 0.175486,0 0.40709,-0.833757 0.317747,-1.853523 -0.118153,-1.348593 -0.142261,-2.710131 -0.317747,-2.710131 -0.175487,0 -0.199594,1.450153 -0.317747,2.710131 z"
         id="path4162"
         inkscape:connector-curvature="0"
         sodipodi:nodetypes="sssss" />
      <path
         sodipodi:nodetypes="sssss"
         inkscape:connector-curvature="0"
         id="path4164"
         d="m 31.149341,36.821162 c -0.09557,1.019201 0.14226,1.853523 0.317747,1.853523 0.175486,0 0.40709,-0.833757 0.317747,-1.853523 -0.118153,-1.348593 -0.142261,-2.710131 -0.317747,-2.710131 -0.175487,0 -0.199594,1.450153 -0.317747,2.710131 z"
         style="color:#000000;fill:#91c8e6;fill-opacity:1;fill-rule:nonzero;stroke:#0000ff;stroke-width:0.1;stroke-miterlimit:4;stroke-opacity:1;stroke-dasharray:none;marker:none;visibility:visible;display:inline;overflow:visible;enable-background:accumulate" />
      <path
         style="color:#000000;fill:#91c8e6;fill-opacity:1;fill-rule:nonzero;stroke:#0000ff;stroke-width:0.1;stroke-miterlimit:4;stroke-opacity:1;stroke-dasharray:none;marker:none;visibility:visible;display:inline;overflow:visible;enable-background:accumulate"
         d="m 32.595298,33.076824 c -0.06996,0.746075 0.104137,1.356815 0.232597,1.356815 0.128459,0 0.297998,-0.610327 0.232597,-1.356815 -0.08649,-0.987196 -0.104138,-1.983869 -0.232597,-1.983869 -0.12846,0 -0.146106,1.06154 -0.232597,1.983869 z"
         id="path4166"
         inkscape:connector-curvature="0"
         sodipodi:nodetypes="sssss" />
      <path
         sodipodi:nodetypes="sssss"
         inkscape:connector-curvature="0"
         id="path4168"
         d="m 30.145344,43.421072 c -0.06996,0.746075 0.104137,1.356815 0.232597,1.356815 0.128459,0 0.297998,-0.610327 0.232597,-1.356815 -0.08649,-0.987196 -0.104138,-1.983869 -0.232597,-1.983869 -0.12846,0 -0.146106,1.06154 -0.232597,1.983869 z"
         style="color:#000000;fill:#91c8e6;fill-opacity:1;fill-rule:nonzero;stroke:#0000ff;stroke-width:0.1;stroke-miterlimit:4;stroke-opacity:1;stroke-dasharray:none;marker:none;visibility:visible;display:inline;overflow:visible;enable-background:accumulate" />
      <path
         style="color:#000000;fill:#91c8e6;fill-opacity:1;fill-rule:nonzero;stroke:#0000ff;stroke-width:0.1;stroke-miterlimit:4;stroke-opacity:1;stroke-dasharray:none;marker:none;visibility:visible;display:inline;overflow:visible;enable-background:accumulate"
         d="m 34.133714,38.227764 c -0.125974,1.343437 0.187516,2.44318 0.418831,2.44318 0.231313,0 0.536596,-1.098998 0.418831,-2.44318 -0.155741,-1.777617 -0.187518,-3.572298 -0.418831,-3.572298 -0.231315,0 -0.263091,1.911487 -0.418831,3.572298 z"
         id="path4170"
         inkscape:connector-curvature="0"
         sodipodi:nodetypes="sssss" />
      <path
         style="color:#000000;fill:#91c8e6;fill-opacity:1;fill-rule:nonzero;stroke:#0000ff;stroke-width:0.1;stroke-miterlimit:4;stroke-opacity:1;stroke-dasharray:none;marker:none;visibility:visible;display:inline;overflow:visible;enable-background:accumulate"
         d="m 36.865899,33.463819 c -0.09557,1.019201 0.14226,1.853523 0.317747,1.853523 0.175486,0 0.40709,-0.833757 0.317747,-1.853523 -0.118153,-1.348593 -0.142261,-2.710131 -0.317747,-2.710131 -0.175487,0 -0.199594,1.450153 -0.317747,2.710131 z"
         id="path4172"
         inkscape:connector-curvature="0"
         sodipodi:nodetypes="sssss" />
    </g>
    <g
       transform="translate(-15.425633,0.45369509)"
       id="g4223"
       style="stroke:#0000ff;stroke-width:0.1;stroke-miterlimit:4;stroke-opacity:1;stroke-dasharray:none">
      <path
         sodipodi:nodetypes="sssss"
         inkscape:connector-curvature="0"
         id="path4225"
         d="m 22.994563,34.87298 c -0.146798,1.565452 0.218506,2.846937 0.488047,2.846937 0.26954,0 0.625274,-1.280617 0.488046,-2.846937 -0.181478,-2.071385 -0.218506,-4.162653 -0.488046,-4.162653 -0.269541,0 -0.306569,2.227377 -0.488047,4.162653 z"
         style="color:#000000;fill:#91c8e6;fill-opacity:1;fill-rule:nonzero;stroke:#0000ff;stroke-width:0.1;stroke-miterlimit:4;stroke-opacity:1;stroke-dasharray:none;marker:none;visibility:visible;display:inline;overflow:visible;enable-background:accumulate" />
      <path
         style="color:#000000;fill:#91c8e6;fill-opacity:1;fill-rule:nonzero;stroke:#0000ff;stroke-width:0.1;stroke-miterlimit:4;stroke-opacity:1;stroke-dasharray:none;marker:none;visibility:visible;display:inline;overflow:visible;enable-background:accumulate"
         d="m 25.977217,34.008253 c -0.09557,1.019201 0.14226,1.853523 0.317747,1.853523 0.175486,0 0.40709,-0.833757 0.317747,-1.853523 -0.118153,-1.348593 -0.142261,-2.710131 -0.317747,-2.710131 -0.175487,0 -0.199594,1.450153 -0.317747,2.710131 z"
         id="path4227"
         inkscape:connector-curvature="0"
         sodipodi:nodetypes="sssss" />
      <path
         sodipodi:nodetypes="sssss"
         inkscape:connector-curvature="0"
         id="path4229"
         d="m 24.616132,39.452594 c -0.09557,1.019201 0.14226,1.853523 0.317747,1.853523 0.175486,0 0.40709,-0.833757 0.317747,-1.853523 -0.118153,-1.348593 -0.142261,-2.710131 -0.317747,-2.710131 -0.175487,0 -0.199594,1.450153 -0.317747,2.710131 z"
         style="color:#000000;fill:#91c8e6;fill-opacity:1;fill-rule:nonzero;stroke:#0000ff;stroke-width:0.1;stroke-miterlimit:4;stroke-opacity:1;stroke-dasharray:none;marker:none;visibility:visible;display:inline;overflow:visible;enable-background:accumulate" />
      <path
         style="color:#000000;fill:#91c8e6;fill-opacity:1;fill-rule:nonzero;stroke:#0000ff;stroke-width:0.1;stroke-miterlimit:4;stroke-opacity:1;stroke-dasharray:none;marker:none;visibility:visible;display:inline;overflow:visible;enable-background:accumulate"
         d="m 28.780112,33.96303 c -0.125974,1.343437 0.187516,2.44318 0.418831,2.44318 0.231313,0 0.536596,-1.098998 0.418831,-2.44318 -0.155741,-1.777617 -0.187518,-3.572298 -0.418831,-3.572298 -0.231315,0 -0.263091,1.911487 -0.418831,3.572298 z"
         id="path4231"
         inkscape:connector-curvature="0"
         sodipodi:nodetypes="sssss" />
      <path
         sodipodi:nodetypes="sssss"
         inkscape:connector-curvature="0"
         id="path4233"
         d="m 27.338302,41.176635 c -0.09557,1.019201 0.14226,1.853523 0.317747,1.853523 0.175486,0 0.40709,-0.833757 0.317747,-1.853523 -0.118153,-1.348593 -0.142261,-2.710131 -0.317747,-2.710131 -0.175487,0 -0.199594,1.450153 -0.317747,2.710131 z"
         style="color:#000000;fill:#91c8e6;fill-opacity:1;fill-rule:nonzero;stroke:#0000ff;stroke-width:0.1;stroke-miterlimit:4;stroke-opacity:1;stroke-dasharray:none;marker:none;visibility:visible;display:inline;overflow:visible;enable-background:accumulate" />
      <path
         style="color:#000000;fill:#91c8e6;fill-opacity:1;fill-rule:nonzero;stroke:#0000ff;stroke-width:0.1;stroke-miterlimit:4;stroke-opacity:1;stroke-dasharray:none;marker:none;visibility:visible;display:inline;overflow:visible;enable-background:accumulate"
         d="m 31.149341,36.821162 c -0.09557,1.019201 0.14226,1.853523 0.317747,1.853523 0.175486,0 0.40709,-0.833757 0.317747,-1.853523 -0.118153,-1.348593 -0.142261,-2.710131 -0.317747,-2.710131 -0.175487,0 -0.199594,1.450153 -0.317747,2.710131 z"
         id="path4235"
         inkscape:connector-curvature="0"
         sodipodi:nodetypes="sssss" />
      <path
         sodipodi:nodetypes="sssss"
         inkscape:connector-curvature="0"
         id="path4237"
         d="m 32.595298,33.076824 c -0.06996,0.746075 0.104137,1.356815 0.232597,1.356815 0.128459,0 0.297998,-0.610327 0.232597,-1.356815 -0.08649,-0.987196 -0.104138,-1.983869 -0.232597,-1.983869 -0.12846,0 -0.146106,1.06154 -0.232597,1.983869 z"
         style="color:#000000;fill:#91c8e6;fill-opacity:1;fill-rule:nonzero;stroke:#0000ff;stroke-width:0.1;stroke-miterlimit:4;stroke-opacity:1;stroke-dasharray:none;marker:none;visibility:visible;display:inline;overflow:visible;enable-background:accumulate" />
      <path
         style="color:#000000;fill:#91c8e6;fill-opacity:1;fill-rule:nonzero;stroke:#0000ff;stroke-width:0.1;stroke-miterlimit:4;stroke-opacity:1;stroke-dasharray:none;marker:none;visibility:visible;display:inline;overflow:visible;enable-background:accumulate"
         d="m 30.145344,43.421072 c -0.06996,0.746075 0.104137,1.356815 0.232597,1.356815 0.128459,0 0.297998,-0.610327 0.232597,-1.356815 -0.08649,-0.987196 -0.104138,-1.983869 -0.232597,-1.983869 -0.12846,0 -0.146106,1.06154 -0.232597,1.983869 z"
         id="path4239"
         inkscape:connector-curvature="0"
         sodipodi:nodetypes="sssss" />
      <path
         sodipodi:nodetypes="sssss"
         inkscape:connector-curvature="0"
         id="path4241"
         d="m 34.133714,38.227764 c -0.125974,1.343437 0.187516,2.44318 0.418831,2.44318 0.231313,0 0.536596,-1.098998 0.418831,-2.44318 -0.155741,-1.777617 -0.187518,-3.572298 -0.418831,-3.572298 -0.231315,0 -0.263091,1.911487 -0.418831,3.572298 z"
         style="color:#000000;fill:#91c8e6;fill-opacity:1;fill-rule:nonzero;stroke:#0000ff;stroke-width:0.1;stroke-miterlimit:4;stroke-opacity:1;stroke-dasharray:none;marker:none;visibility:visible;display:inline;overflow:visible;enable-background:accumulate" />
      <path
         sodipodi:nodetypes="sssss"
         inkscape:connector-curvature="0"
         id="path4243"
         d="m 36.865899,33.463819 c -0.09557,1.019201 0.14226,1.853523 0.317747,1.853523 0.175486,0 0.40709,-0.833757 0.317747,-1.853523 -0.118153,-1.348593 -0.142261,-2.710131 -0.317747,-2.710131 -0.175487,0 -0.199594,1.450153 -0.317747,2.710131 z"
         style="color:#000000;fill:#91c8e6;fill-opacity:1;fill-rule:nonzero;stroke:#0000ff;stroke-width:0.1;stroke-miterlimit:4;stroke-opacity:1;stroke-dasharray:none;marker:none;visibility:visible;display:inline;overflow:visible;enable-background:accumulate" />
    </g>
  </g>
</svg>
