<?xml version="1.0" encoding="UTF-8" standalone="no"?>
<!-- Created using Karbon, part of Calligra: http://www.calligra.org/karbon -->

<svg
   xmlns:dc="http://purl.org/dc/elements/1.1/"
   xmlns:cc="http://creativecommons.org/ns#"
   xmlns:rdf="http://www.w3.org/1999/02/22-rdf-syntax-ns#"
   xmlns:svg="http://www.w3.org/2000/svg"
   xmlns="http://www.w3.org/2000/svg"
   xmlns:sodipodi="http://sodipodi.sourceforge.net/DTD/sodipodi-0.dtd"
   xmlns:inkscape="http://www.inkscape.org/namespaces/inkscape"
   width="38.4pt"
   height="38.4pt"
   id="svg2"
   version="1.1"
   inkscape:version="0.48.5 r10040"
   sodipodi:docname="weather-clouds-night.svg">
  <metadata
     id="metadata10">
    <rdf:RDF>
      <cc:Work
         rdf:about="">
        <dc:format>image/svg+xml</dc:format>
        <dc:type
           rdf:resource="http://purl.org/dc/dcmitype/StillImage" />
        <dc:title></dc:title>
      </cc:Work>
    </rdf:RDF>
  </metadata>
  <sodipodi:namedview
     pagecolor="#ffffff"
     bordercolor="#666666"
     borderopacity="1"
     objecttolerance="10"
     gridtolerance="10"
     guidetolerance="10"
     inkscape:pageopacity="0"
     inkscape:pageshadow="2"
     inkscape:window-width="971"
     inkscape:window-height="706"
     id="namedview8"
     showgrid="false"
     inkscape:zoom="6.1469579"
     inkscape:cx="15.21224"
     inkscape:cy="26.17917"
     inkscape:window-x="382"
     inkscape:window-y="160"
     inkscape:window-maximized="0"
     inkscape:current-layer="svg2" />
  <defs
     id="defs4" />
  <path
     id="path3836"
     d="m 27.603605,32.459469 c 0,1.181595 -0.957871,2.139467 -2.139466,2.139467 -1.181595,0 -2.139467,-0.957872 -2.139467,-2.139467 0,-1.181595 0.957872,-2.139466 2.139467,-2.139466 1.181595,0 2.139466,0.957871 2.139466,2.139466 z"
     style="color:#000000;fill:#f3f3ff;fill-opacity:1;fill-rule:nonzero;stroke:#b1ada3;stroke-width:0.132;stroke-linecap:butt;stroke-linejoin:miter;stroke-miterlimit:4;stroke-opacity:1;stroke-dashoffset:0;marker:none;visibility:visible;display:inline;overflow:visible;enable-background:accumulate;stroke-dasharray:none"
     inkscape:connector-curvature="0" />
  <g
     id="g3787">
    <path
       id="path3827"
       d="m 28.306685,1.7169435 c 0,7.4123645 -6.008908,13.4212735 -13.421273,13.4212735 -7.4123643,0 -13.421273,-6.008909 -13.421273,-13.4212735 0,-7.4123645 6.0089087,-13.4212735 13.421273,-13.4212735 7.412365,0 13.421273,6.008909 13.421273,13.4212735 z"
       style="color:#000000;fill:#f3f3ff;fill-opacity:1;fill-rule:nonzero;stroke:#b1ada3;stroke-width:0.44156069;stroke-linecap:butt;stroke-linejoin:miter;stroke-miterlimit:4;stroke-opacity:1;stroke-dasharray:none;stroke-dashoffset:0;marker:none;visibility:visible;display:inline;overflow:visible;enable-background:accumulate"
       transform="matrix(1.1323472,0,0,1.1323472,7.1445452,22.055824)"
       inkscape:connector-curvature="0" />
    <path
       inkscape:connector-curvature="0"
       style="color:#000000;fill:#f3f3ff;fill-opacity:1;fill-rule:nonzero;stroke:#b1ada3;stroke-width:0.5;stroke-linecap:butt;stroke-linejoin:miter;stroke-miterlimit:4;stroke-opacity:1;stroke-dasharray:none;stroke-dashoffset:0;marker:none;visibility:visible;display:inline;overflow:visible;enable-background:accumulate"
       d="m 29.693339,18.468809 c 0,1.976336 -1.602136,3.578473 -3.578472,3.578473 -1.976336,0 -3.578473,-1.602137 -3.578473,-3.578473 0,-1.976336 1.602137,-3.578472 3.578473,-3.578472 1.976336,0 3.578472,1.602136 3.578472,3.578472 z"
       id="path3832" />
    <path
       id="path3834"
       d="m 17.354633,24 c 0,1.181595 -0.957871,2.139467 -2.139466,2.139467 -1.181595,0 -2.139467,-0.957872 -2.139467,-2.139467 0,-1.181595 0.957872,-2.139466 2.139467,-2.139466 1.181595,0 2.139466,0.957871 2.139466,2.139466 z"
       style="color:#000000;fill:#f3f3ff;fill-opacity:1;fill-rule:nonzero;stroke:#b1ada3;stroke-width:0.5;stroke-linecap:butt;stroke-linejoin:miter;stroke-miterlimit:4;stroke-opacity:1;stroke-dasharray:none;stroke-dashoffset:0;marker:none;visibility:visible;display:inline;overflow:visible;enable-background:accumulate"
       inkscape:connector-curvature="0" />
    <path
       inkscape:connector-curvature="0"
       style="color:#000000;fill:#f3f3ff;fill-opacity:1;fill-rule:nonzero;stroke:#b1ada3;stroke-width:0.5;stroke-linecap:butt;stroke-linejoin:miter;stroke-miterlimit:4;stroke-opacity:1;stroke-dasharray:none;stroke-dashoffset:0;marker:none;visibility:visible;display:inline;overflow:visible;enable-background:accumulate"
       d="m 27.603605,32.459469 c 0,1.181595 -0.957871,2.139467 -2.139466,2.139467 -1.181595,0 -2.139467,-0.957872 -2.139467,-2.139467 0,-1.181595 0.957872,-2.139466 2.139467,-2.139466 1.181595,0 2.139466,0.957871 2.139466,2.139466 z"
       id="path3836-6" />
    <path
       id="path3838"
       d="m 18.516495,15.377849 c 0,0.745112 -0.604032,1.349144 -1.349143,1.349144 -0.745112,0 -1.349144,-0.604032 -1.349144,-1.349144 0,-0.745111 0.604032,-1.349143 1.349144,-1.349143 0.745111,0 1.349143,0.604032 1.349143,1.349143 z"
       style="color:#000000;fill:#f3f3ff;fill-opacity:1;fill-rule:nonzero;stroke:#b1ada3;stroke-width:0.5;stroke-linecap:butt;stroke-linejoin:miter;stroke-miterlimit:4;stroke-opacity:1;stroke-dasharray:none;stroke-dashoffset:0;marker:none;visibility:visible;display:inline;overflow:visible;enable-background:accumulate"
       inkscape:connector-curvature="0" />
  </g>
  <path
     style="color:#000000;fill:#ffffff;fill-opacity:1;fill-rule:nonzero;stroke:#b1ada3;stroke-width:0.29524538;stroke-miterlimit:4;stroke-opacity:1;stroke-dasharray:none;marker:none;visibility:visible;display:inline;overflow:visible;enable-background:accumulate"
     d="m 26.98583,23.81843 c -1.508553,-0.142633 -2.482323,-0.821103 -3.027567,-2.109444 -0.444858,-1.051143 -0.256831,-2.060354 0.573644,-3.078969 0.548917,-0.673271 1.287291,-1.063953 2.210122,-1.169403 l 0.708428,-0.08095 -0.08411,-1.022979 c -0.116576,-1.417927 0.139159,-2.107845 1.068522,-2.882627 0.949447,-0.791527 2.02279,-0.952369 3.694715,-0.553659 0.282001,0.06725 0.382722,0.0038 0.563751,-0.355436 0.267503,-0.530757 1.496273,-1.497299 2.227207,-1.751906 1.171136,-0.407939 2.559895,-0.147406 3.676828,0.689782 1.188226,0.890624 1.482087,1.521645 1.487857,3.194938 l 0.0048,1.395951 0.630401,0.380704 c 1.530579,0.924332 2.2551,2.069724 2.2551,3.565087 0,1.077964 -0.467364,2.01544 -1.367431,2.742902 -1.337389,1.080918 -1.057363,1.041205 -7.691329,1.090782 -3.237518,0.0242 -6.356452,-3.92e-4 -6.930963,-0.05477 l 0,0 z"
     id="path4111"
     inkscape:connector-curvature="0" />
  <path
     inkscape:connector-curvature="0"
     id="path2989"
     d="m 23.870111,33.467495 c 1.146428,-0.108394 1.886446,-0.623999 2.300804,-1.603076 0.338071,-0.798817 0.19518,-1.565769 -0.435941,-2.339867 -0.41715,-0.511654 -0.978279,-0.808553 -1.679586,-0.88869 l -0.538371,-0.06152 0.06392,-0.777415 c 0.08859,-1.077556 -0.105754,-1.60186 -0.812025,-2.190657 -0.721534,-0.601522 -1.537223,-0.723754 -2.807805,-0.420754 -0.214307,0.05111 -0.29085,0.0029 -0.428424,-0.270114 -0.203289,-0.40335 -1.137095,-1.137875 -1.692569,-1.331364 -0.890007,-0.310014 -1.945397,-0.112021 -2.794212,0.524201 -0.902994,0.676831 -1.126314,1.156377 -1.130699,2.427999 l -0.0036,1.060855 -0.479074,0.289316 c -1.163166,0.702448 -1.713767,1.572891 -1.713767,2.709294 0,0.819201 0.355174,1.531637 1.039181,2.084473 1.016351,0.821446 0.803545,0.791266 5.845038,0.828942 2.460358,0.01839 4.830597,-2.98e-4 5.267197,-0.04162 l 0,0 z"
     style="color:#000000;fill:#ffffff;fill-opacity:1;fill-rule:nonzero;stroke:#b1ada3;stroke-width:0.22437221;stroke-miterlimit:4;stroke-opacity:1;stroke-dasharray:none;marker:none;visibility:visible;display:inline;overflow:visible;enable-background:accumulate" />
</svg>
