<?xml version="1.0" encoding="UTF-8" standalone="no"?>
<!-- Created with Inkscape (http://www.inkscape.org/) -->

<svg
   xmlns:dc="http://purl.org/dc/elements/1.1/"
   xmlns:cc="http://creativecommons.org/ns#"
   xmlns:rdf="http://www.w3.org/1999/02/22-rdf-syntax-ns#"
   xmlns:svg="http://www.w3.org/2000/svg"
   xmlns="http://www.w3.org/2000/svg"
   xmlns:xlink="http://www.w3.org/1999/xlink"
   xmlns:sodipodi="http://sodipodi.sourceforge.net/DTD/sodipodi-0.dtd"
   xmlns:inkscape="http://www.inkscape.org/namespaces/inkscape"
   version="1.0"
   width="96"
   height="96"
   id="svg2408"
   inkscape:version="0.48.4 r9939"
   sodipodi:docname="media-flash-sd-mmc.svg">
  <sodipodi:namedview
     pagecolor="#ffffff"
     bordercolor="#666666"
     borderopacity="1"
     objecttolerance="10"
     gridtolerance="10"
     guidetolerance="10"
     inkscape:pageopacity="0"
     inkscape:pageshadow="2"
     inkscape:window-width="1366"
     inkscape:window-height="709"
     id="namedview90"
     showgrid="false"
     inkscape:zoom="3.8394562"
     inkscape:cx="5.544251"
     inkscape:cy="62.370471"
     inkscape:window-x="0"
     inkscape:window-y="-3"
     inkscape:window-maximized="1"
     inkscape:current-layer="svg2408" />
  <defs
     id="defs2410">
    <linearGradient
       id="linearGradient3829">
      <stop
         id="stop3831"
         style="stop-color:#000000;stop-opacity:0.34108528"
         offset="0" />
      <stop
         id="stop3837"
         style="stop-color:#7f7f7f;stop-opacity:0"
         offset="0.5" />
      <stop
         id="stop3833"
         style="stop-color:#ffffff;stop-opacity:0.20155039"
         offset="1" />
    </linearGradient>
    <linearGradient
       id="linearGradient3754">
      <stop
         id="stop3756"
         style="stop-color:#a4a4a4;stop-opacity:1"
         offset="0" />
      <stop
         id="stop3758"
         style="stop-color:#cecece;stop-opacity:1"
         offset="1" />
    </linearGradient>
    <linearGradient
       id="linearGradient3704">
      <stop
         id="stop3706"
         style="stop-color:#ff3300;stop-opacity:1"
         offset="0" />
      <stop
         id="stop3708"
         style="stop-color:#ff481a;stop-opacity:1"
         offset="1" />
    </linearGradient>
    <linearGradient
       id="linearGradient3682">
      <stop
         id="stop3684"
         style="stop-color:#ffffff;stop-opacity:1"
         offset="0" />
      <stop
         id="stop3686"
         style="stop-color:#dddddd;stop-opacity:1"
         offset="1" />
    </linearGradient>
    <linearGradient
       x1="45.447727"
       y1="92.539597"
       x2="45.447727"
       y2="7.0165396"
       id="ButtonShadow"
       gradientUnits="userSpaceOnUse"
       gradientTransform="scale(1.0058652,0.994169)">
      <stop
         id="stop3750"
         style="stop-color:#000000;stop-opacity:1"
         offset="0" />
      <stop
         id="stop3752"
         style="stop-color:#000000;stop-opacity:0.58823532"
         offset="1" />
    </linearGradient>
    <linearGradient
       id="linearGradient3737">
      <stop
         id="stop3739"
         style="stop-color:#ffffff;stop-opacity:1"
         offset="0" />
      <stop
         id="stop3741"
         style="stop-color:#ffffff;stop-opacity:0"
         offset="1" />
    </linearGradient>
    <linearGradient
       id="linearGradient3700">
      <stop
         id="stop3702"
         style="stop-color:#1e1e1e;stop-opacity:1"
         offset="0" />
      <stop
         id="stop3704"
         style="stop-color:#434343;stop-opacity:1"
         offset="1" />
    </linearGradient>
    <filter
       color-interpolation-filters="sRGB"
       id="filter3174">
      <feGaussianBlur
         id="feGaussianBlur3176"
         stdDeviation="1.71" />
    </filter>
    <filter
       x="-0.192"
       y="-0.192"
       width="1.3839999"
       height="1.3839999"
       color-interpolation-filters="sRGB"
       id="filter3794">
      <feGaussianBlur
         id="feGaussianBlur3796"
         stdDeviation="5.28" />
    </filter>
    <linearGradient
       x1="48"
       y1="20.220806"
       x2="48"
       y2="138.66119"
       id="linearGradient3613"
       xlink:href="#linearGradient3737"
       gradientUnits="userSpaceOnUse" />
    <radialGradient
       cx="48"
       cy="90.171875"
       r="42"
       fx="48"
       fy="90.171875"
       id="radialGradient3619"
       xlink:href="#linearGradient3737"
       gradientUnits="userSpaceOnUse"
       gradientTransform="matrix(1.1573129,0,0,0.99590774,-7.551021,0.19713193)" />
    <clipPath
       id="clipPath3613">
      <rect
         width="84"
         height="84"
         rx="6"
         ry="6"
         x="6"
         y="6"
         id="rect3615"
         style="fill:#ffffff;fill-opacity:1;fill-rule:nonzero;stroke:none" />
    </clipPath>
    <linearGradient
       x1="48"
       y1="90"
       x2="48"
       y2="5.9877172"
       id="linearGradient3617"
       xlink:href="#linearGradient3700"
       gradientUnits="userSpaceOnUse" />
    <linearGradient
       x1="45.447727"
       y1="92.539597"
       x2="45.447727"
       y2="7.0165396"
       id="ButtonShadow-0"
       gradientUnits="userSpaceOnUse"
       gradientTransform="matrix(1.0058652,0,0,0.994169,100,0)">
      <stop
         id="stop3750-8"
         style="stop-color:#000000;stop-opacity:1"
         offset="0" />
      <stop
         id="stop3752-5"
         style="stop-color:#000000;stop-opacity:0.58823532"
         offset="1" />
    </linearGradient>
    <linearGradient
       x1="48"
       y1="40"
       x2="48"
       y2="88"
       id="linearGradient3688"
       xlink:href="#linearGradient3682"
       gradientUnits="userSpaceOnUse"
       gradientTransform="matrix(0.9360134,0,0,0.95792792,3.1798569,3.7864872)" />
    <linearGradient
       x1="48"
       y1="90"
       x2="48"
       y2="84"
       id="linearGradient3710"
       xlink:href="#linearGradient3704"
       gradientUnits="userSpaceOnUse"
       gradientTransform="matrix(1,0,0,0.66666667,0,30)" />
    <linearGradient
       x1="36"
       y1="37"
       x2="36"
       y2="5.9355507"
       id="linearGradient3733"
       xlink:href="#linearGradient3737"
       gradientUnits="userSpaceOnUse" />
    <linearGradient
       x1="48"
       y1="36"
       x2="47.800915"
       y2="6.0639906"
       id="linearGradient3760"
       xlink:href="#linearGradient3754"
       gradientUnits="userSpaceOnUse" />
    <linearGradient
       x1="51"
       y1="23"
       x2="75"
       y2="30"
       id="linearGradient3796"
       xlink:href="#linearGradient3737"
       gradientUnits="userSpaceOnUse"
       spreadMethod="reflect" />
    <linearGradient
       x1="48"
       y1="90"
       x2="48"
       y2="5.9877172"
       id="linearGradient3820"
       xlink:href="#linearGradient3700"
       gradientUnits="userSpaceOnUse"
       gradientTransform="matrix(0.99718973,0,0,1.0049036,0.18635317,-0.03454004)" />
    <linearGradient
       x1="12"
       y1="79"
       x2="12"
       y2="85"
       id="linearGradient3835"
       xlink:href="#linearGradient3829"
       gradientUnits="userSpaceOnUse" />
    <linearGradient
       x1="12"
       y1="79"
       x2="12"
       y2="85"
       id="linearGradient3841"
       xlink:href="#linearGradient3829"
       gradientUnits="userSpaceOnUse"
       gradientTransform="translate(70,0)" />
    <linearGradient
       x1="24.153721"
       y1="5.8479066"
       x2="24.153721"
       y2="72.526596"
       id="linearGradient3896"
       xlink:href="#linearGradient3737"
       gradientUnits="userSpaceOnUse" />
    <linearGradient
       x1="48"
       y1="90"
       x2="48"
       y2="5.9877172"
       id="linearGradient3903"
       xlink:href="#ButtonShadow-0"
       gradientUnits="userSpaceOnUse"
       gradientTransform="translate(0,1)" />
    <linearGradient
       x1="48"
       y1="90"
       x2="48"
       y2="5.9877172"
       id="linearGradient3912"
       xlink:href="#ButtonShadow-0"
       gradientUnits="userSpaceOnUse"
       gradientTransform="matrix(1.0238095,0,0,1.0119048,-1.142857,0.92857143)" />
    <linearGradient
       x1="48"
       y1="90"
       x2="48"
       y2="5.9877172"
       id="linearGradient3920"
       xlink:href="#ButtonShadow-0"
       gradientUnits="userSpaceOnUse"
       gradientTransform="matrix(1.0238095,0,0,1.0119048,-1.142857,0.92857143)" />
    <linearGradient
       x1="48"
       y1="90"
       x2="48"
       y2="5.9877172"
       id="linearGradient3928"
       xlink:href="#ButtonShadow-0"
       gradientUnits="userSpaceOnUse"
       gradientTransform="matrix(1.0238095,0,0,1.0119048,-1.142857,0.92857143)" />
    <linearGradient
       x1="48"
       y1="90"
       x2="48"
       y2="5.9877172"
       id="linearGradient3936"
       xlink:href="#ButtonShadow-0"
       gradientUnits="userSpaceOnUse"
       gradientTransform="matrix(1.0238095,0,0,1.0119048,-1.142857,0.92857143)" />
    <linearGradient
       inkscape:collect="always"
       xlink:href="#linearGradient3737"
       id="linearGradient3069"
       gradientUnits="userSpaceOnUse"
       x1="48"
       y1="20.220806"
       x2="48"
       y2="138.66119" />
  </defs>
  <metadata
     id="metadata2413">
    <rdf:RDF>
      <cc:Work
         rdf:about="">
        <dc:format>image/svg+xml</dc:format>
        <dc:type
           rdf:resource="http://purl.org/dc/dcmitype/StillImage" />
        <dc:title />
      </cc:Work>
    </rdf:RDF>
  </metadata>
  <g
     id="layer2"
     style="display:none">
    <rect
       width="86"
       height="85"
       rx="6"
       ry="6"
       x="5"
       y="7"
       id="rect3745"
       style="opacity:0.9;fill:url(#ButtonShadow);fill-opacity:1;fill-rule:nonzero;stroke:none;filter:url(#filter3174)" />
  </g>
  <path
     style="fill:#1a1a1a;fill-opacity:1;fill-rule:evenodd;stroke:none"
     d="m 5.96875,5.78125 0,84.71875 84.25,0 0,-73.875 c 0,0 0.262131,-5.086228 -1.406182,-6.8270781 C 86.927615,7.4394648 84.837266,6.1602815 80.3125,5.78125 z"
     id="rect3082"
     inkscape:connector-curvature="0"
     sodipodi:nodetypes="ccccccc" />
  <g
     id="layer5" />
  <rect
     style="fill:#f1cb6d;fill-rule:evenodd;stroke:#003bc3;stroke-width:0;stroke-linecap:square;stroke-linejoin:miter;stroke-miterlimit:2"
     y="5.9152598"
     x="-35.82333"
     id="shape1"
     stroke-miterlimit="2.00000000000"
     width="9.7387953"
     height="18.649765"
     transform="scale(-1,1)" />
  <rect
     style="fill:#f1cb6d;fill-rule:evenodd;stroke:#003bc3;stroke-width:0;stroke-linecap:square;stroke-linejoin:miter;stroke-miterlimit:2"
     y="5.8756909"
     x="-22.979359"
     id="shape2"
     stroke-miterlimit="2.00000000000"
     width="9.7387953"
     height="18.649765"
     transform="scale(-1,1)" />
  <rect
     style="fill:#f1cb6d;fill-rule:evenodd;stroke:#003bc3;stroke-width:0;stroke-linecap:square;stroke-linejoin:miter;stroke-miterlimit:2"
     y="6.0142927"
     x="-61.704681"
     id="shape3"
     stroke-miterlimit="2.00000000000"
     width="9.7387953"
     height="18.649765"
     transform="scale(-1,1)" />
  <rect
     style="fill:#f1cb6d;fill-rule:evenodd;stroke:#003bc3;stroke-width:0;stroke-linecap:square;stroke-linejoin:miter;stroke-miterlimit:2"
     y="5.9747238"
     x="-48.860706"
     id="shape4"
     stroke-miterlimit="2.00000000000"
     width="9.7387953"
     height="18.649765"
     transform="scale(-1,1)" />
  <rect
     style="fill:#f1cb6d;fill-rule:evenodd;stroke:#003bc3;stroke-width:0;stroke-linecap:square;stroke-linejoin:miter;stroke-miterlimit:2"
     y="5.9800825"
     x="-74.734032"
     id="shape5"
     stroke-miterlimit="2.00000000000"
     width="9.7387953"
     height="18.649765"
     transform="scale(-1,1)" />
  <rect
     style="fill:#f1cb6d;fill-rule:evenodd;stroke:#003bc3;stroke-width:0;stroke-linecap:square;stroke-linejoin:miter;stroke-miterlimit:2"
     y="15.213974"
     x="-87.79435"
     id="shape6"
     stroke-miterlimit="2.00000000000"
     width="9.7387953"
     height="18.649765"
     transform="scale(-1,1)" />
  <g
     transform="matrix(0.07385015,0,0,0.12374751,16.229313,-25.20523)"
     id="layer1-0"
     style="fill:#ffffff">
    <g
       transform="translate(3.541339,3.537934)"
       id="g19013"
       style="fill:#ffffff">
      <path
         inkscape:connector-curvature="0"
         d="m 157.50794,537.58621 c 6.5926,-28.80453 -18.56063,-42.29388 -48.37937,-51.21921 -20.284871,-5.98409 -57.000442,-14.30086 -57.000442,-21.50202 0,-9.22957 24.646087,-8.92535 41.786808,-9.43245 18.763494,-0.50709 91.180424,-0.60853 91.180424,-0.60853 l 9.12818,-26.06603 c 0,0 -52.13208,-1.41997 -103.757046,1.11563 -74.546844,3.75271 -88.4419756,20.28484 -90.16620916,36.10711 -2.23132704,20.48762 25.45752216,34.68705 42.19251316,41.17823 15.923632,6.08542 41.27969,10.54807 41.27969,18.4592 0,6.38974 -9.533891,6.89685 -37.019864,6.38974 -42.4967785,-0.81141 -78.299551,-4.96978 -78.299551,-4.96978 l -16.633577,46.04666 c 0,0 40.5697179,2.83984 83.776468,2.83984 61.66595,0 112.580966,2.33271 121.911976,-38.33839"
         style="fill:#ffffff;fill-rule:nonzero;stroke:none"
         id="path15576" />
      <path
         inkscape:connector-curvature="0"
         d="m 282.5641,476.73167 c 0.50712,1.11565 0.91283,2.12986 1.11568,3.24559 0.60853,4.2598 -1.11568,8.51957 -5.07121,12.57657 -4.05698,4.05693 -10.34528,7.91105 -18.25638,11.25808 -8.01253,3.44847 -17.85069,6.2883 -28.8045,8.51968 -11.05524,2.12994 -29.51447,3.95556 -42.29392,4.36121 l -20.89341,58.92756 c 48.27797,-2.12994 181.85376,-1.62285 233.17446,-65.41871 6.49115,-10.14242 7.6068,-20.58916 2.02847,-30.73159 -6.18688,-11.46092 -18.05351,-20.28484 -32.35435,-27.38456 l -89.76049,22.61767 c 0.40568,0.70997 0.81139,1.41996 1.11565,2.0285"
         style="fill:#ffffff;fill-rule:nonzero;stroke:none"
         id="path15578" />
      <path
         inkscape:connector-curvature="0"
         d="m 275.05871,468.61767 c 0.40571,0.30431 0.70997,0.60853 1.21709,0.91285 l 75.86538,-25.15326 c -5.17262,-2.2313 -12.37375,-4.86833 -17.64784,-6.2883 l -65.72293,26.47178 c 1.82562,0.91278 4.76694,3.04272 6.2883,4.05693"
         style="fill:#ffffff;fill-rule:nonzero;stroke:none"
         id="path15580" />
      <path
         inkscape:connector-curvature="0"
         d="m 253.45534,459.79377 44.82954,-27.89167 c -10.85242,-1.52138 -19.87917,-2.23138 -25.15323,-2.43416 -20.99484,-0.50712 -29.31162,-0.91285 -52.53779,-0.81141 l -9.33104,26.26891 c 5.78119,0.10144 8.3168,-0.10144 18.05352,0.81141 8.82392,0.81133 16.93787,2.2313 24.139,4.05692"
         style="fill:#ffffff;fill-rule:nonzero;stroke:none"
         id="path15582" />
      <path
         inkscape:connector-curvature="0"
         d="m 365.52919,638.80769 -135.70573,0 c -5.27404,0.30424 -6.49113,1.92708 -6.49113,6.08542 l 0,29.5145 c 0,4.05692 1.21709,5.78118 6.49113,5.98398 l 135.70573,0 0,22.21198 -150.61507,0 c -11.76525,0 -18.05355,-4.46265 -18.05355,-14.19942 l 0,-57.60902 c 0,-9.63531 6.2883,-14.09799 18.05355,-14.09799 l 150.61507,0 0,22.11055 z m -202.54433,63.79588 -26.26888,0 0,-31.84731 -115.927971,0 0,31.84731 -26.4717342,0 0,-85.90643 26.4717342,0 0,31.84724 115.927971,0 0,-31.84724 26.26888,0 0,85.90643 z m 224.45198,-105.37984 -415.433911,0 c -9.736744,0 -17.749253,8.01249 -17.749253,17.74923 l 0,89.3548 c 0,9.73677 8.012509,17.74925 17.749253,17.74925 l 415.433911,0 c 9.73674,0 17.64784,-8.01248 17.64784,-17.74925 l 0,-89.3548 c 0,-9.73674 -7.9111,-17.74923 -17.64784,-17.74923"
         style="fill:#ffffff;fill-rule:nonzero;stroke:none"
         id="path15584" />
      <path
         inkscape:connector-curvature="0"
         d="m 415.12566,455.43253 3.347,-23.32756 7.50539,0 0.50715,-3.44844 -18.76352,0 -0.50712,3.44844 7.50542,0 -3.347,23.32756 3.75268,0 z"
         style="fill:#ffffff;fill-rule:nonzero;stroke:none"
         id="path15586" />
      <path
         inkscape:connector-curvature="0"
         d="m 453.76832,455.43253 0,-26.776 -3.44842,0 -9.73674,18.25632 -4.15839,-18.25632 -3.04274,0 -8.82392,26.776 3.54986,0 6.59259,-20.48772 0.10141,0 4.5641,20.48772 10.85239,-20.28484 0.10144,0 0,20.28484 3.44842,0 z"
         style="fill:#ffffff;fill-rule:nonzero;stroke:none"
         id="path15588" />
    </g>
  </g>
  <text
     xml:space="preserve"
     style="font-size:36px;font-style:normal;font-variant:normal;font-weight:normal;font-stretch:normal;line-height:125%;letter-spacing:0px;word-spacing:0px;fill:#000000;fill-opacity:1;stroke:none;font-family:Droid Sans Japanese;-inkscape-font-specification:Droid Sans Japanese"
     x="62.620049"
     y="56.317181"
     id="text3080"
     sodipodi:linespacing="125%"><tspan
       sodipodi:role="line"
       id="tspan3082" /></text>
  <g
     id="g3873"
     transform="matrix(0.77659317,0,0,0.77659317,15.595761,1.6741176)">
    <text
       transform="scale(0.99710319,1.0029052)"
       sodipodi:linespacing="125%"
       id="text3861"
       y="55.085339"
       x="56.188217"
       style="font-size:17.13249969px;font-style:normal;font-variant:normal;font-weight:normal;font-stretch:normal;line-height:125%;letter-spacing:0px;word-spacing:0px;fill:#ffffff;fill-opacity:1;stroke:none;font-family:Droid Sans Japanese;-inkscape-font-specification:Droid Sans Japanese"
       xml:space="preserve"><tspan
         y="55.085339"
         x="56.188217"
         id="tspan3863"
         sodipodi:role="line">10</tspan></text>
    <path
       inkscape:connector-curvature="0"
       id="path3865"
       d="m 65.268754,37.244076 c -6.950287,0.567698 -12.159001,6.250278 -11.631549,12.707839 0.527453,6.457561 6.589277,11.219566 13.539565,10.651867 2.731843,-0.223136 5.189741,-1.235657 7.140527,-2.778021 -0.754305,0.06442 -1.499369,0.04227 -2.222577,-0.03794 -1.523613,0.964518 -3.305726,1.586882 -5.251965,1.74585 -6.14833,0.502195 -11.533817,-3.833511 -12.0113,-9.679303 -0.477483,-5.845792 4.133035,-10.997969 10.281366,-11.500164 2.665229,-0.217695 5.170426,0.496888 7.208281,1.825493 0.745945,-0.114838 1.484637,-0.177502 2.207312,-0.148939 -2.4617,-1.982306 -5.735356,-3.074547 -9.25966,-2.786683 z"
       style="fill:#ffffff;fill-opacity:1;fill-rule:evenodd;stroke:none" />
  </g>
  <text
     xml:space="preserve"
     style="font-size:5.15873861px;font-style:normal;font-variant:normal;font-weight:500;font-stretch:normal;line-height:125%;letter-spacing:0px;word-spacing:0px;fill:#000000;fill-opacity:1;stroke:none;font-family:Century Schoolbook L;-inkscape-font-specification:Century Schoolbook L Medium"
     x="58.970154"
     y="71.626373"
     id="text3878"
     sodipodi:linespacing="125%"
     transform="scale(0.95006037,1.0525647)"><tspan
       sodipodi:role="line"
       id="tspan3880"
       x="58.970154"
       y="71.626373"
       style="font-size:8.59789753px;font-style:normal;font-variant:normal;font-weight:normal;font-stretch:normal;fill:#ffffff;font-family:Lato;-inkscape-font-specification:Lato">64 gb</tspan></text>
</svg>
