<?xml version="1.0" encoding="UTF-8" standalone="no"?>
<!-- Created with Inkscape (http://www.inkscape.org/) -->

<svg
   xmlns:dc="http://purl.org/dc/elements/1.1/"
   xmlns:cc="http://creativecommons.org/ns#"
   xmlns:rdf="http://www.w3.org/1999/02/22-rdf-syntax-ns#"
   xmlns:svg="http://www.w3.org/2000/svg"
   xmlns="http://www.w3.org/2000/svg"
   xmlns:sodipodi="http://sodipodi.sourceforge.net/DTD/sodipodi-0.dtd"
   xmlns:inkscape="http://www.inkscape.org/namespaces/inkscape"
   id="svg2"
   version="1.1"
   inkscape:version="0.91 r13725"
   width="512"
   height="512"
   sodipodi:docname="folder-print.svg"
   viewBox="0 0 512 512">
  <metadata
     id="metadata8">
    <rdf:RDF>
      <cc:Work
         rdf:about="">
        <dc:format>image/svg+xml</dc:format>
        <dc:type
           rdf:resource="http://purl.org/dc/dcmitype/StillImage" />
        <dc:title></dc:title>
      </cc:Work>
    </rdf:RDF>
  </metadata>
  <defs
     id="defs6" />
  <sodipodi:namedview
     pagecolor="#ffffff"
     bordercolor="#666666"
     borderopacity="1"
     objecttolerance="10"
     gridtolerance="10"
     guidetolerance="10"
     inkscape:pageopacity="0"
     inkscape:pageshadow="2"
     inkscape:window-width="1366"
     inkscape:window-height="695"
     id="namedview4"
     showgrid="false"
     showguides="true"
     inkscape:guide-bbox="true"
     inkscape:zoom="0.46003898"
     inkscape:cx="-276.35261"
     inkscape:cy="275.33982"
     inkscape:window-x="-4"
     inkscape:window-y="0"
     inkscape:window-maximized="1"
     inkscape:current-layer="svg2"
     inkscape:document-units="px" />
  <path
     style="fill:#107662;fill-opacity:1;fill-rule:evenodd;stroke:#000000;stroke-width:0;stroke-linecap:butt;stroke-linejoin:miter;stroke-miterlimit:4;stroke-dasharray:none;stroke-opacity:1"
     d="m 36.433505,79.280265 c -8.54981,0 -15.4335,6.88183 -15.4335,15.43164 l 0,40.790135 0,131.2722 0,132.81629 0,7.98465 c 0,6.5428 5.26673,11.80953 11.80953,11.80953 l 446.379065,0 c 6.5428,0 11.81139,-5.26673 11.81139,-11.80953 l 0,-140.80094 -0.002,0 0,-131.2722 c 0,-12.87594 -10.36546,-23.24141 -23.2414,-23.24141 l -239.27305,0 c -6.3555,0 -8.86637,-0.74873 -12.93638,-4.57732 L 191.54239,83.895805 c -0.0817,-0.0833 -0.1657,-0.16418 -0.24928,-0.24556 l -0.0484,-0.0465 -0.002,0.002 c -2.77262,-2.67603 -6.54334,-4.32533 -10.71936,-4.32533 z"
     id="rect2982-2"
     inkscape:connector-curvature="0"
     sodipodi:nodetypes="sscccssssccssccccccss" />
  <path
     style="fill:#16a085;fill-opacity:1;fill-rule:evenodd;stroke:#000000;stroke-width:0;stroke-linecap:butt;stroke-linejoin:miter;stroke-miterlimit:4;stroke-dasharray:none;stroke-opacity:1"
     d="m 44.241415,125.59565 c -12.87594,0 -23.24141,10.36549 -23.24141,23.24141 l 0,131.2722 0,132.8163 0,7.98465 c 0,6.5428 5.26673,11.80952 11.80953,11.80952 l 446.379065,0 c 6.5428,0 11.81139,-5.26672 11.81139,-11.80952 l 0,-140.80095 -0.002,0 0,-131.2722 c 0,-12.87593 -10.36546,-23.24141 -23.2414,-23.24141 l -423.515325,0 z"
     id="rect2982"
     inkscape:connector-curvature="0" />
  <path
     sodipodi:nodetypes="sscsssscsssscssssccssssssccccsssssssssssscccsssscc"
     inkscape:connector-curvature="0"
     style="display:inline;fill:#ffffff;fill-opacity:1;stroke:none"
     id="path3738-0"
     d="m 194.88893,163.77307 c -9.23335,0 -16.6667,8.57697 -16.6667,19.23077 l 0,70.51275 -5.55553,0 c -9.23335,0 -16.6667,8.57698 -16.6667,19.23077 l 0,64.10273 c 0,10.65371 7.43335,19.23057 16.6667,19.23057 l 5.55553,0 0,19.23087 c 0,10.6538 7.43335,19.23077 16.6667,19.23077 l 122.22214,0 c 9.23335,0 16.6668,-8.57697 16.6668,-19.23077 l 0,-19.23087 5.55543,0 c 9.23345,0 16.6667,-8.57686 16.6667,-19.23057 l 0,-64.10273 c 0,-10.65379 -7.43325,-19.23077 -16.6667,-19.23077 l -5.20824,0 -0.34739,0 0,-70.51275 c 0,-10.65379 -7.43335,-19.23077 -16.6666,-19.23077 z m 3.93469,12.23861 112.25975,0 c 12.69787,0 12.69787,0 12.69787,12.19742 l 0,63.85697 0,14.60228 -135.76814,0 0,-15.32754 0,-63.36248 c 0,-11.96665 0,-11.96665 10.81052,-11.96665 z M 306,291.97813 c 3.0667,0 5.55563,2.87196 5.55563,6.41033 0,3.53836 -2.48893,6.41032 -5.55563,6.41032 -3.0667,0 -5.55563,-2.87196 -5.55563,-6.41032 0,-3.53837 2.48893,-6.41033 5.55563,-6.41033 z m 22.22223,0 c 3.0667,0 5.55564,2.87196 5.55564,6.41033 0,3.53836 -2.48894,6.41032 -5.55564,6.41032 -3.0666,0 -5.55553,-2.87196 -5.55553,-6.41032 0,-3.53837 2.48883,-6.41033 5.55553,-6.41033 z m -140.20913,51.26979 135.76814,0 0,18.09786 0,14.21718 c 0,6.53786 0,6.53786 -6.55315,6.53786 l -122.3064,0 c -6.90859,0 -6.90859,0 -6.90859,-7.08238 l 0,-17.6669 z" />
</svg>
