<?xml version="1.0" encoding="UTF-8" standalone="no"?>
<!-- Created with Inkscape (http://www.inkscape.org/) -->

<svg
   xmlns:dc="http://purl.org/dc/elements/1.1/"
   xmlns:cc="http://creativecommons.org/ns#"
   xmlns:rdf="http://www.w3.org/1999/02/22-rdf-syntax-ns#"
   xmlns:svg="http://www.w3.org/2000/svg"
   xmlns="http://www.w3.org/2000/svg"
   xmlns:sodipodi="http://sodipodi.sourceforge.net/DTD/sodipodi-0.dtd"
   xmlns:inkscape="http://www.inkscape.org/namespaces/inkscape"
   id="svg2"
   version="1.1"
   inkscape:version="0.91 r13725"
   width="512"
   height="512"
   sodipodi:docname="folder-remote.svg"
   viewBox="0 0 512 512">
  <metadata
     id="metadata8">
    <rdf:RDF>
      <cc:Work
         rdf:about="">
        <dc:format>image/svg+xml</dc:format>
        <dc:type
           rdf:resource="http://purl.org/dc/dcmitype/StillImage" />
        <dc:title></dc:title>
      </cc:Work>
    </rdf:RDF>
  </metadata>
  <defs
     id="defs6" />
  <sodipodi:namedview
     pagecolor="#ffffff"
     bordercolor="#666666"
     borderopacity="1"
     objecttolerance="10"
     gridtolerance="10"
     guidetolerance="10"
     inkscape:pageopacity="0"
     inkscape:pageshadow="2"
     inkscape:window-width="1366"
     inkscape:window-height="695"
     id="namedview4"
     showgrid="false"
     showguides="true"
     inkscape:guide-bbox="true"
     inkscape:zoom="0.65059336"
     inkscape:cx="122.87102"
     inkscape:cy="339.54294"
     inkscape:window-x="-4"
     inkscape:window-y="0"
     inkscape:window-maximized="1"
     inkscape:current-layer="svg2"
     inkscape:document-units="px" />
  <path
     style="fill:#107662;fill-opacity:1;fill-rule:evenodd;stroke:#000000;stroke-width:0;stroke-linecap:butt;stroke-linejoin:miter;stroke-miterlimit:4;stroke-dasharray:none;stroke-opacity:1"
     d="m 36.433505,79.280265 c -8.54981,0 -15.4335,6.88183 -15.4335,15.43164 l 0,40.790135 0,131.2722 0,132.81629 0,7.98465 c 0,6.5428 5.26673,11.80953 11.80953,11.80953 l 446.379065,0 c 6.5428,0 11.81139,-5.26673 11.81139,-11.80953 l 0,-140.80094 -0.002,0 0,-131.2722 c 0,-12.87594 -10.36546,-23.24141 -23.2414,-23.24141 l -239.27305,0 c -6.3555,0 -8.86637,-0.74873 -12.93638,-4.57732 L 191.54239,83.895805 c -0.0817,-0.0833 -0.1657,-0.16418 -0.24928,-0.24556 l -0.0484,-0.0465 -0.002,0.002 c -2.77262,-2.67603 -6.54334,-4.32533 -10.71936,-4.32533 z"
     id="rect2982-2"
     inkscape:connector-curvature="0"
     sodipodi:nodetypes="sscccssssccssccccccss" />
  <path
     style="fill:#16a085;fill-opacity:1;fill-rule:evenodd;stroke:#000000;stroke-width:0;stroke-linecap:butt;stroke-linejoin:miter;stroke-miterlimit:4;stroke-dasharray:none;stroke-opacity:1"
     d="m 44.241415,125.59565 c -12.87594,0 -23.24141,10.36549 -23.24141,23.24141 l 0,131.2722 0,132.8163 0,7.98465 c 0,6.5428 5.26673,11.80952 11.80953,11.80952 l 446.379065,0 c 6.5428,0 11.81139,-5.26672 11.81139,-11.80952 l 0,-140.80095 -0.002,0 0,-131.2722 c 0,-12.87593 -10.36546,-23.24141 -23.2414,-23.24141 l -423.515325,0 z"
     id="rect2982"
     inkscape:connector-curvature="0" />
  <path
     inkscape:connector-curvature="0"
     style="color:#000000;fill:#ffffff;fill-opacity:1;fill-rule:nonzero"
     d="m 256,179.15769 c -3.4625,0 -6.9427,0.285 -10.3125,0.625 -6.7398,0.68 -13.1048,1.8079 -19.375,3.75 -31.3511,9.7104 -56.2271,34.5864 -65.9375,65.9375 -1.9421,6.2702 -3.0697,12.6352 -3.75,19.375 -0.34,3.3698 -0.625,6.85 -0.625,10.3125 0,3.4625 0.285,6.9426 0.625,10.3125 0.68,6.7397 1.8079,13.1048 3.75,19.375 9.7104,31.351 34.5864,56.227 65.9375,65.9375 6.2702,1.9421 12.6352,3.0696 19.375,3.75 3.3698,0.34 6.85,0.625 10.3125,0.625 3.4625,0 6.9426,-0.285 10.3125,-0.625 6.7397,-0.68 13.1047,-1.8079 19.375,-3.75 6.2625,-1.9479 12.4572,-4.7336 18.125,-7.8125 22.6746,-12.2871 40.0441,-33.0442 47.8125,-58.125 1.942,-6.2702 3.0696,-12.6353 3.75,-19.375 0.34,-3.3699 0.625,-6.85 0.625,-10.3125 0,-3.4518 -0.284,-6.9508 -0.625,-10.3125 -0.68,-6.7398 -1.808,-13.1048 -3.75,-19.375 -3.8842,-12.5405 -10.2987,-24.1924 -18.4375,-34.0625 -2.038,-2.4694 -4.3005,-4.613 -6.5625,-6.875 -9.0375,-9.0375 -19.5907,-16.5156 -31.5625,-21.5625 -2.991,-1.2651 -6.2437,-2.4636 -9.375,-3.4375 -6.2703,-1.9421 -12.6353,-3.0697 -19.375,-3.75 -3.3699,-0.34 -6.85,-0.625 -10.3125,-0.625 z m 0,10 c 15.133,0 29.3581,3.7141 41.875,10.3125 0.331,0.174 0.609,0.447 0.937,0.625 0.253,0.335 0.18,0.692 0.625,0.937 0.327,0.182 0.629,0.462 0.937,0.625 0.527,0.291 1.0465,0.74 0.937,1.25 -0.145,0.745 -1.366,0.704 -1.875,1.25 0.07,1.0542 -0.353,0.854 -0.625,1.5625 0.164,0.455 0.553,0.393 0.625,0.937 -0.09,0.582 -0.844,0.65 -0.625,1.25 0.982,0.764 1.8853,0.127 2.8125,0 2.0362,-0.255 3.7455,0.04 5,-0.937 -0.133,-0.778 0.611,-1 0.937,-1.5625 0.664,0.465 1.2245,1.0799 1.875,1.5625 -0.382,0.164 -1.217,0.407 -1.5625,0.625 -0.509,0.345 -0.668,0.868 -1.25,1.25 -0.418,0.291 -1.4386,1.25 -1.875,1.25 -0.527,0 -1.4932,-0.439 -1.875,-0.312 -0.546,0.164 -0.321,1.0319 -0.937,1.25 -1.1999,0.436 -3.3319,-1.174 -3.75,0.625 0.509,1.036 2.216,0.687 3.125,1.25 0.564,0.364 1.4171,2.1945 1.5625,2.8125 0.145,0.509 0.218,2.2673 0,2.8125 -0.564,1.454 -2.0775,1.2864 -3.75,1.25 -0.455,0 -0.832,0.04 -1.25,0 -2.8179,-0.182 -5.6023,-1.0798 -6.875,0.937 0.09,1.5449 0.346,2.405 0,3.75 -0.254,0.981 -1.3046,1.6457 -1.25,2.5 0.02,0.436 0.828,1.2751 0.937,1.875 0.07,0.327 -0.146,0.96 0,1.25 0.473,0.891 1.6637,-0.145 2.5,0 0.8,0.127 1.5625,1.2969 1.5625,2.1875 0,0.636 -0.225,1.882 -0.625,2.5 -0.8,1.1995 -2.2921,0.908 -3.4375,1.5625 -0.945,0.545 -1.3114,1.8673 -1.875,2.8125 -0.6,1.0178 -1.1742,1.3585 -0.937,2.8125 -0.818,1.6176 -1.7468,2.6559 -3.4375,3.4375 -0.491,0.218 -1.108,0.611 -1.5625,0.937 -0.364,0.254 -0.74,0.668 -1.25,1.25 -0.636,0.709 -1.5296,1.0172 -1.875,1.5625 -0.255,0.418 -0.04,1.3116 -0.312,1.875 -0.4,0.764 -1.0535,1.4241 -1.5625,2.1875 -0.236,0.364 -0.684,0.777 -0.937,1.25 -0.582,1.0542 -1.3591,1.8856 -1.25,2.8125 0.09,0.891 1.1955,1.0934 1.25,1.875 0.05,0.436 -0.331,0.777 -0.312,1.25 0.02,0.691 0.258,1.0172 0.312,1.5625 0.127,1.345 -0.684,1.8855 -0.937,2.8125 -0.127,0.436 0.109,0.905 0,1.25 -0.218,0.673 -1.2318,1.0753 -1.25,1.875 -0.02,0.564 0.883,1.0757 0.937,1.875 0.04,0.545 -0.422,1.0536 -0.312,1.5625 0.2,0.982 2.049,2.3616 2.8125,3.125 1.0363,1.0361 2.0456,1.7219 2.5,2.8125 0.382,0.927 0.541,2.4343 1.25,3.125 0.527,0.509 1.5149,0.723 2.1875,1.25 0.636,0.491 1.5148,0.723 2.1875,1.25 1.109,0.873 2.6114,2.6273 4.375,2.5 0.927,-0.07 1.7762,-0.444 2.8125,-0.625 1.0726,-0.182 2.3467,-0.734 3.4375,-0.625 0.836,0.09 1.6274,0.68 2.5,0.625 0.909,-0.05 2.0888,-0.483 3.125,-0.937 1.7999,-0.782 4.5696,-2.2567 7.1875,-1.875 1.9998,0.291 2.0376,2.5469 3.4375,3.4375 1.5998,0.145 2.7899,-0.309 4.0625,0 0.964,0.236 2.0966,2.0492 2.1875,2.8125 0.09,0.782 -0.516,1.3843 -0.625,1.875 -0.254,1.0542 -0.444,2.4525 -0.625,3.125 -0.145,0.527 -0.331,1.0354 -0.312,1.5625 0,0.473 0.759,1.5695 1.25,2.1875 0.6,0.764 1.4603,1.3514 2.1875,2.1875 1.3272,1.5267 1.8853,3.6074 2.8125,5.625 0.236,0.509 -0.218,0.614 0,1.25 -0.4,3.0536 -1.4377,5.0568 -3.4375,8.4375 -0.945,1.0905 -1.8932,2.3869 -1.875,3.75 -0.07,3.2716 1.708,4.9624 1.5625,8.125 -0.327,4.2531 0.02,4.9156 -0.312,7.1875 1.4363,0.727 0.73,2.8664 0.312,4.375 -0.618,1.7993 -1.2171,2.2379 -1.5625,3.4375 0.746,0.323 1.3703,0.403 2.1875,0.312 -16.3746,17.0242 -39.5137,27.5 -65,27.5 -11.93,0 -23.3313,-2.3471 -33.75,-6.5625 -0.04,-0.01 0.03,-0.298 0,-0.312 0.945,-0.4 2.7467,0.702 3.4375,-0.625 0.346,-0.636 -0.455,-1.8638 0,-2.5 0.327,-0.436 2.4524,-0.829 3.125,-0.937 0.964,-0.164 1.9546,0.03 2.5,-0.312 0.6,-0.382 1.3591,-1.3731 1.25,-2.5 -0.05,-0.527 -0.521,-0.778 -0.937,-1.25 -0.345,-0.4 -0.08,-0.886 -0.312,-1.25 -0.436,-0.636 -1.0682,-0.947 -1.25,-1.875 1.309,-0.254 3.1093,1.4649 5,0.937 0.891,-0.255 2.3943,-1.9765 2.8125,-2.8125 0.127,-0.255 -0.145,-1.253 0,-1.5625 0.164,-0.345 0.57,-0.444 0.625,-0.625 0.127,-0.491 -0.109,-0.63 0,-0.937 0.327,-0.927 1.3295,-1.515 1.875,-2.1875 0.418,-0.509 0.868,-1.0354 1.25,-1.5625 0.436,-0.564 0.647,-0.759 0.937,-1.25 0.273,-1.654 -1.025,-2.921 -0.625,-4.375 0.436,-1.6358 2.7934,-2.6923 4.375,-3.4375 0.545,-0.255 1.108,-0.774 1.5625,-0.937 1.0908,-0.382 2.4194,-0.262 3.4375,-0.625 1.709,-0.618 2.2886,-2.4995 3.125,-4.0625 0.4,-0.727 0.864,-1.3479 0.937,-1.875 0.07,-0.473 -0.09,-1.0169 0,-1.5625 0.09,-0.545 0.167,-0.963 0.312,-1.5625 0.2,-0.782 0.312,-2.2526 0.312,-3.125 0,-0.727 -0.295,-0.908 -0.312,-1.5625 -0.127,-2.3628 0.69,-2.4596 1.5625,-3.75 0.436,-0.636 0.629,-1.7332 0.937,-2.1875 1.4726,-2.1811 3.9318,-3.2546 3.75,-6.5625 -0.07,-1.0906 -0.45,-3.4046 -1.25,-3.75 -0.455,-0.2 -1.5148,-0.06 -2.1875,-0.312 -2.1453,-0.8 -3.7014,-3.2558 -5.9375,-3.4375 -0.473,-0.02 -0.723,0.02 -1.25,0 -0.873,-0.02 -1.8308,-0.829 -2.8125,-0.937 -0.618,-0.07 -1.8239,0.182 -2.1875,0 -0.564,-0.273 -0.484,-1.2535 -0.937,-1.5625 -0.364,-0.255 -0.999,-0.425 -1.5625,-0.625 -0.891,-0.345 -1.4637,-0.552 -2.5,-0.625 -0.327,-0.02 -1.1992,0.05 -1.5625,0 -0.564,-0.09 -1.0353,-0.61 -1.5625,-0.937 -0.654,-0.4 -0.977,-0.686 -1.25,-1.25 0.6,-1.963 -1.475,-2.2925 -1.875,-3.4375 -0.182,-0.527 0.182,-1.4024 0,-1.875 -0.236,-0.673 -0.817,-0.999 -1.5625,-1.5625 -1.309,-1.0179 -2.5024,-1.9513 -4.375,-2.1875 -0.836,-0.09 -1.8126,0.07 -2.8125,0 -1.0544,-0.07 -2.3251,-0.654 -3.125,-1.5625 -0.764,-0.891 -0.89,-1.7695 -1.5625,-2.1875 -0.636,-0.4 -1.7512,-0.521 -2.1875,-0.937 -0.2,-0.182 -0.131,-0.521 -0.312,-0.937 -0.327,-0.655 -1.025,-0.763 -0.625,-1.5625 -0.727,-0.364 -0.468,0.459 -1.25,0.312 -0.709,-1 -1.2127,-1.559 -2.8125,-1.25 -0.727,0.145 -1.333,1.2319 -2.1875,1.25 -0.709,0.02 -1.2603,-1.1228 -2.1875,-1.25 -0.709,-0.09 -1.6966,0.734 -2.1875,0.625 -0.782,-0.145 -0.854,-1.0891 -1.5625,-1.5625 -0.527,-0.346 -1.5841,-1.2681 -1.875,-1.25 -0.909,0.02 -1.5581,1.9225 -2.8125,1.25 -0.618,-0.782 1.0401,-0.836 0.312,-1.5625 -0.545,-0.545 -0.813,0.02 -1.25,0.312 -0.509,0.345 -0.999,0.738 -1.5625,0.937 -1.2545,0.473 -2.1433,0.43 -3.125,0.937 -0.909,0.473 -1.0353,1.2605 -1.5625,2.1875 -0.418,0.764 -1.2387,1.8386 -1.875,1.875 -0.764,0.05 -1.4966,-0.959 -2.1875,-1.25 -2.0907,-0.909 -3.2729,0.607 -5,0.625 -1.5999,0.02 -3.8227,-2.5538 -3.75,-4.0625 0.05,-0.927 0.516,-2.2925 0.625,-3.4375 0.09,-0.909 0.92,-1.6639 0.937,-2.5 0.02,-1.1087 -1.7728,-2.0602 -2.5,-2.1875 -1.709,-0.309 -3.9922,0.764 -5.9375,0 -0.364,-0.618 0.719,-0.963 0.937,-1.5625 0.127,-0.345 -0.127,-0.555 0,-0.937 0.218,-0.582 0.977,-0.944 1.25,-1.5625 0.2,-0.473 0.112,-1.2933 0.312,-1.875 0.236,-0.655 0.882,-1.0899 0.937,-1.5625 0.07,-0.618 -0.448,-1.4751 -0.937,-1.875 -1.509,0.09 -2.5648,0.229 -3.4375,0.625 -1.9634,0.891 -1.4558,3.4446 -3.4375,4.0625 -0.673,0.218 -1.7364,0.498 -2.5,0.625 1.2931,-6.5428 3.3095,-12.8005 5.9375,-18.75 0.691,0.127 1.2751,0.57 1.875,0.625 1.6726,0.127 1.7432,-1.148 3.125,-1.875 1.4181,0.2 2.1467,-0.145 3.4375,0 0.873,0.09 2.1217,1.1955 2.8125,1.25 0.582,0.02 0.704,-0.716 1.25,-0.625 0.545,0.09 1.4716,1.2206 1.5625,1.875 0.09,0.818 -0.55,1.5912 -0.312,2.5 0.855,0.873 2.5319,1.3661 3.75,1.875 0.8,-0.655 0.127,-2.1798 0,-3.125 -0.02,-0.418 0.05,-0.868 0,-1.25 -0.09,-0.654 -0.312,-1.3116 -0.312,-1.875 0,-2.5991 2.0047,-3.6696 3.75,-4.6875 0.745,-0.436 1.533,-1.2353 2.1875,-1.5625 0.927,-0.455 1.4239,-0.501 2.1875,-0.937 1.3816,-0.782 2.6773,-1.6093 3.75,-2.5 0.491,-1.1813 -0.05,-2.5868 0,-3.75 0.491,-0.309 0.723,0.05 1.25,0 0.836,-0.182 1.0897,-1.4025 1.5625,-1.875 0.273,-0.273 1.2349,-0.353 1.5625,-0.625 0.836,-0.655 0.835,-1.5841 1.5625,-1.875 0.255,-0.09 0.849,-0.204 1.25,-0.312 0.546,-0.145 1.3149,-0.63 2.1875,-0.937 0.564,-0.2 1.9693,-0.1 2.1875,-0.312 0.273,-0.273 -0.07,-1.4569 0,-1.875 0.436,-2.0538 3.4763,-2.1217 5.3125,-2.8125 1.2726,-0.491 2.6444,-1.5227 4.0625,-1.25 -0.273,0.981 -1.4864,0.693 -1.25,1.875 0.309,1.654 2.2307,-0.389 2.8125,-0.625 1.109,-0.473 3.233,-0.723 4.6875,-1.25 1.2726,-0.454 3.3873,-1.3403 2.1875,-2.8125 -1,-0.07 -1.3149,0.886 -2.1875,1.25 -0.6,0.09 -0.741,-0.276 -1.25,-0.312 -0.491,-0.02 -0.759,0.403 -1.25,0.312 -0.491,-0.09 -1.1773,-0.981 -1.25,-1.5625 -0.2,-1.5267 1.5695,-1.9981 2.1875,-3.125 -0.418,-1.3814 -2.274,-0.08 -3.4375,-0.625 0.127,-0.818 0.599,-1.7113 1.5625,-1.875 0.782,-0.127 2.6523,0.247 3.125,0.625 0.273,0.236 -0.105,0.867 0.312,1.25 0.473,0.418 1.2569,0.09 1.875,0 0.218,-1.036 -1.4318,-0.577 -1.25,-1.25 1.2362,-0.8 3.491,-0.425 5,-0.625 0.873,-0.127 1.7182,-0.832 2.5,-1.25 0.727,-0.418 1.4239,-1.0036 2.1875,-0.312 0.218,0.745 -0.521,1.1808 -0.937,1.5625 -1.3999,1.2359 -2.6592,2.6267 -3.75,4.0625 0.673,0.655 1.6853,0.186 2.8125,0.312 0.436,0.05 1.1079,0.24 1.5625,0.312 0.546,0.09 1.1261,-0.09 1.5625,0 0.764,0.182 0.799,1.25 1.5625,1.25 1.2363,0 1.3345,-1.0389 0.625,-1.875 0.218,-0.855 0.622,-1.5876 0.312,-2.1875 -0.564,-1.1269 -2.7034,0.185 -2.8125,-1.25 -0.07,-0.909 0.923,-1.1842 1.25,-1.875 -0.145,-1.7448 1.4318,-1.8562 1.25,-3.4375 -0.09,-0.655 -0.795,-0.633 -1.25,-1.25 -0.236,-0.327 -0.353,-1.0137 -0.625,-1.25 -0.945,-0.8 -2.7034,-0.661 -2.8125,-2.1875 -0.05,-0.909 0.127,-1.5186 0,-2.5 -0.127,-0.927 -1.0754,-3.5682 -1.875,-3.75 -1.0181,-0.218 -1.5944,1.6241 -2.8125,2.1875 -0.654,0.309 -1.8274,0.441 -2.5,0.312 -0.436,-0.09 -1.1954,-0.414 -1.25,-1.25 -0.05,-0.481 0.111,-0.652 0.312,-0.937 0.05,-0.07 -0.05,-0.242 0,-0.312 7.9099,-2.2733 16.3589,-3.4375 25,-3.4375 z m -37.1875,8.125 c -0.887,2.8411 -3.4554,4.463 -6.875,4.375 -0.836,0.8 -0.484,2.3287 -0.937,3.4375 -0.382,0.927 -1.5729,1.6353 -2.5,1.5625 -0.673,-0.05 -1.875,-0.926 -1.875,-1.5625 0,-0.521 0.504,-1.1103 0.625,-1.5625 3.6804,-2.3797 7.5387,-4.4192 11.5625,-6.25 z m 76.5625,3.125 c -0.335,0.06 -0.643,0.14 -0.937,0.312 -0.691,0.418 -0.723,1.0501 -1.25,1.25 -0.745,0.273 -1.7659,0.265 -1.875,0.937 -0.09,0.564 0.644,0.741 0.625,1.25 -0.273,0.673 -0.792,0.744 -0.937,1.5625 0.927,1.5086 3.2297,0.02 4.375,-0.312 0.509,-0.145 0.977,0.08 1.25,-0.312 0.309,-0.491 0.08,-1.4968 0.312,-2.1875 0.255,-0.764 1.0285,-0.578 0.937,-1.25 -0.07,-0.673 -1.3728,-1.359 -2.5,-1.25 z m -99.0625,11.5625 c 0.667,0.805 1.2246,1.9734 0,2.5 -0.182,0.09 -2.3762,0.403 -2.8125,0.312 -0.135,-0.02 -0.191,-0.228 -0.312,-0.312 0.956,-0.928 2.1289,-1.6146 3.125,-2.5 z m 2.5,3.125 c 0.436,0.02 0.741,0.901 1.25,0.937 0.491,0.04 1.2711,-0.403 1.5625,-0.312 0.764,0.2 1.0401,1.624 0.312,2.1875 -0.6,0.07 -0.814,-0.716 -1.25,-0.625 -1.2363,0.218 -1.5728,2.5727 -2.5,2.5 -0.873,-0.09 -1.5163,-1.8638 -0.625,-2.5 0.02,-0.546 -0.35,-0.704 -0.312,-1.25 0.273,-0.345 0.835,-0.992 1.5625,-0.937 z m -4.0625,0.625 c 0.255,0 0.221,-0.109 0.312,0 -0.127,0.963 -0.505,1.1081 -1.25,1.5625 -1.2908,0.782 -2.0818,1.7653 -2.5,3.4375 -0.127,0.491 -1.5694,2.0021 -2.1875,1.875 -1.4363,-0.309 0.61,-3.0195 0.937,-3.4375 0.364,-0.455 0.832,-0.74 1.25,-1.25 0.418,-0.509 0.538,-1.5842 0.937,-1.875 0.436,-0.309 1.7365,-0.349 2.5,-0.312 z m 123.125,2.5 c 1.4362,-0.09 2.158,1.6275 2.8125,2.5 0.545,0.709 2.234,1.6967 3.125,2.1875 0.509,0.273 0.999,0.684 1.5625,0.937 0.591,0.264 1.4897,0.609 2.1875,1.25 0.698,0.641 1.2227,1.6059 1.25,2.1875 0.02,0.582 -0.404,1.0172 -0.312,1.5625 0.63,0.102 0.956,-0.539 1.25,-1.25 2.3563,3.3613 4.3631,6.9484 6.25,10.625 -0.383,0.237 -0.548,0.469 -0.625,0.937 -0.182,1.0178 0.589,2.3183 -0.937,2.5 -0.963,0.127 -2.1104,-0.96 -3.4375,-1.25 -0.545,-0.127 -1.4387,0.145 -1.875,0 -1,-0.345 -0.708,-1.5877 -1.5625,-2.1875 -0.491,-0.346 -1.7182,-0.847 -2.5,-0.937 -0.491,-0.05 -0.741,0.07 -1.25,0 -0.618,-0.07 -1.6785,-0.004 -2.1875,-0.312 -0.491,-0.309 -1.7477,-0.832 -1.875,-1.25 -0.2,-0.673 1.5262,-1.624 1.5625,-2.1875 0.04,-0.436 -0.534,-0.596 -0.625,-1.25 -0.07,-0.4 0.09,-0.995 0,-1.25 -0.127,-0.473 -0.817,-0.919 -1.5625,-0.937 -0.655,0 -1.3114,0.312 -1.875,0.312 -0.8,0.02 -2.4376,-0.403 -3.4375,-0.312 -0.6,0.05 -0.999,0.276 -1.5625,0.312 -1.5817,0.127 -2.5137,-0.09 -3.75,0 -0.891,0.05 -2.6012,0.557 -3.4375,0.937 -0.418,0.2 -0.705,0.666 -1.25,0.937 -0.254,0.127 -0.61,0.168 -0.937,0.312 -0.509,0.236 -1.3841,0.811 -1.875,0.937 -0.709,0.182 -1.5217,-0.05 -2.8125,0 -0.927,0.05 -2.4818,-0.142 -2.5,-1.25 -0.02,-1.6903 3.0877,-0.96 4.6875,-1.25 0.6,-0.127 0.835,-0.832 1.5625,-1.25 0.346,-0.2 0.61,-0.407 0.937,-0.625 0.545,-0.382 1.4716,-1.1262 1.5625,-1.5625 0.07,-0.4 -0.368,-0.96 -0.312,-1.25 0.07,-0.382 0.759,-0.759 1.25,-1.25 0.764,-0.764 1.2421,-1.6968 2.1875,-2.1875 0.636,-0.345 1.8966,-0.429 2.1875,-0.937 0.07,-0.582 -0.02,-0.723 0,-1.25 0.4,-0.364 0.298,-0.553 0.625,-0.625 0.982,-0.218 1.9797,0.368 3.125,0.312 0.491,-0.02 1.0353,0.04 1.5625,-0.312 0.436,-0.291 0.814,-0.72 1.25,-0.937 0.473,-0.255 0.98,-0.901 1.5625,-0.937 z m -114.6875,0.937 c 0.241,-0.04 0.646,0.03 0.937,0 0.418,-0.02 0.795,0 1.25,0 0.455,0 1.0682,-0.182 1.25,0 -0.291,1.1996 -3.1171,0.75 -4.0625,0.312 0.02,-0.227 0.384,-0.274 0.625,-0.312 z m -3.4375,2.1875 c 0.309,0 0.61,-0.127 0.937,0 -0.836,0.709 -1.983,1.1081 -3.4375,1.5625 -0.691,0.218 -1.7477,0.451 -1.875,-0.312 -0.146,-0.945 0.632,-0.847 1.25,-0.937 0.8,-0.09 2.1978,-0.294 3.125,-0.312 z m 118.4375,0 c -0.6,0.2 -0.891,1.399 0,1.5625 0.418,-0.254 0.422,-0.799 0.312,-1.5625 -0.236,-0.254 -0.132,-0.07 -0.312,0 z m -0.312,2.5 c -0.291,0.09 -0.63,-0.02 -0.937,0.312 0.02,1.0178 0.2,1.6094 0,2.5 0.582,1.1269 1.8967,0.451 2.1875,-0.312 0.346,-1.8903 -0.377,-2.7363 -1.25,-2.5 z m 7.8125,5 c -0.8,-0.04 -1.4023,0.247 -1.875,0.625 0.673,1.0906 1.9285,1.2898 3.4375,1.5625 0.545,-0.4 0.371,-1.4968 0.625,-2.1875 -0.655,0 -1.0751,0.04 -1.875,0 l -0.312,0 z m -158.75,38.4375 c 0.639,0.814 1.3289,1.7626 2.1875,2.1875 0.455,0.236 0.981,0.186 1.5625,0.312 0.473,0.09 0.796,0.48 1.25,0.625 0.964,0.327 2.3615,0.28 3.125,0.625 1.1636,0.509 1.8125,2.5433 2.8125,3.125 0.05,0.582 -0.182,1.1263 0,1.5625 0.473,0.636 1.4238,0.832 2.1875,1.25 0.927,0.509 1.3149,1.7876 2.1875,2.1875 0.309,0.127 0.777,-0.145 1.25,0 1.1999,0.364 1.4637,2.1839 2.5,1.875 0.673,-0.2 0.828,-1.2207 0.937,-1.875 0.455,-0.491 0.853,-1.25 1.5625,-1.25 1.1271,-0.02 1.4568,1.3914 1.875,2.5 0.236,0.618 0.774,1.2207 0.937,1.875 0.273,1.1269 0.236,4.3275 0,5 -0.291,0.836 -1.4966,1.2787 -2.1875,2.1875 -0.327,0.436 -0.684,0.96 -0.937,1.25 -0.436,0.545 -0.922,0.76 -1.25,1.25 -0.182,0.273 -0.15,0.868 -0.312,1.25 -0.546,1.1632 -1.3923,2.0379 -0.937,3.4375 0.182,0.564 0.937,1.2026 0.937,1.875 0,0.8 -1.7477,1.0026 -1.875,1.875 -0.09,0.636 0.738,1.9582 0.937,2.8125 0.145,0.636 1.1807,1.1444 1.5625,1.5625 0.636,0.709 1.2932,1.5912 1.875,2.5 1.1453,1.763 1.6855,3.8983 2.8125,5.625 0.6,0.891 1.7875,1.5549 2.1875,2.5 0.2,0.473 -0.182,1.4389 0,1.875 0.654,1.4723 3.8399,3.023 5.3125,3.75 0.691,0.346 1.2388,0.573 1.875,0.937 0.964,0.546 2.9467,1.6458 3.4375,2.5 0.436,0.764 0.719,2.5323 0.937,3.75 0.273,1.5995 -0.07,2.9607 0,4.6875 0.05,0.945 0.312,1.5548 0.312,2.5 0,0.327 0.02,0.923 0,1.25 -0.02,1.1269 0.09,2.2925 0,3.4375 -0.05,0.618 -0.04,1.3479 0,1.875 0.05,0.564 0.589,0.759 0.625,1.25 0.04,0.527 -0.68,1.1445 -0.625,1.5625 0.127,1.1451 1.3443,2.0708 1.5625,3.125 0.182,0.836 0.421,2.7503 0.312,3.75 -0.07,0.527 -0.24,1.2934 -0.312,1.875 -0.05,0.455 0.07,0.832 0,1.25 -24.9172,-16.0054 -41.5625,-43.8105 -41.5625,-75.625 0,-4.0788 0.412,-7.9401 0.937,-11.875 z m 34.375,9.0625 c 0.873,-0.4 0.709,1.1409 0,1.25 -0.673,0.09 -0.654,-0.94 0,-1.25 z"
     id="path26" />
</svg>
