<?xml version="1.0" encoding="UTF-8" standalone="no"?>
<!-- Created with Inkscape (http://www.inkscape.org/) -->

<svg
   xmlns:dc="http://purl.org/dc/elements/1.1/"
   xmlns:cc="http://creativecommons.org/ns#"
   xmlns:rdf="http://www.w3.org/1999/02/22-rdf-syntax-ns#"
   xmlns:svg="http://www.w3.org/2000/svg"
   xmlns="http://www.w3.org/2000/svg"
   xmlns:sodipodi="http://sodipodi.sourceforge.net/DTD/sodipodi-0.dtd"
   xmlns:inkscape="http://www.inkscape.org/namespaces/inkscape"
   id="svg2"
   version="1.1"
   inkscape:version="0.91 r13725"
   width="512"
   height="512"
   sodipodi:docname="folder-images.svg"
   viewBox="0 0 512 512">
  <metadata
     id="metadata8">
    <rdf:RDF>
      <cc:Work
         rdf:about="">
        <dc:format>image/svg+xml</dc:format>
        <dc:type
           rdf:resource="http://purl.org/dc/dcmitype/StillImage" />
        <dc:title />
      </cc:Work>
    </rdf:RDF>
  </metadata>
  <defs
     id="defs6" />
  <sodipodi:namedview
     pagecolor="#ffffff"
     bordercolor="#666666"
     borderopacity="1"
     objecttolerance="10"
     gridtolerance="10"
     guidetolerance="10"
     inkscape:pageopacity="0"
     inkscape:pageshadow="2"
     inkscape:window-width="1366"
     inkscape:window-height="695"
     id="namedview4"
     showgrid="false"
     showguides="true"
     inkscape:guide-bbox="true"
     inkscape:zoom="0.65059336"
     inkscape:cx="455.96743"
     inkscape:cy="176.21435"
     inkscape:window-x="-4"
     inkscape:window-y="0"
     inkscape:window-maximized="1"
     inkscape:current-layer="svg2"
     inkscape:document-units="px" />
  <path
     style="fill:#107662;fill-opacity:1;fill-rule:evenodd;stroke:#000000;stroke-width:0;stroke-linecap:butt;stroke-linejoin:miter;stroke-miterlimit:4;stroke-dasharray:none;stroke-opacity:1"
     d="m 36.433505,79.280265 c -8.54981,0 -15.4335,6.88183 -15.4335,15.43164 l 0,40.790135 0,131.2722 0,132.81629 0,7.98465 c 0,6.5428 5.26673,11.80953 11.80953,11.80953 l 446.379065,0 c 6.5428,0 11.81139,-5.26673 11.81139,-11.80953 l 0,-140.80094 -0.002,0 0,-131.2722 c 0,-12.87594 -10.36546,-23.24141 -23.2414,-23.24141 l -239.27305,0 c -6.3555,0 -8.86637,-0.74873 -12.93638,-4.57732 L 191.54239,83.895805 c -0.0817,-0.0833 -0.1657,-0.16418 -0.24928,-0.24556 l -0.0484,-0.0465 -0.002,0.002 c -2.77262,-2.67603 -6.54334,-4.32533 -10.71936,-4.32533 z"
     id="rect2982-2"
     inkscape:connector-curvature="0"
     sodipodi:nodetypes="sscccssssccssccccccss" />
  <path
     style="fill:#16a085;fill-opacity:1;fill-rule:evenodd;stroke:#000000;stroke-width:0;stroke-linecap:butt;stroke-linejoin:miter;stroke-miterlimit:4;stroke-dasharray:none;stroke-opacity:1"
     d="m 51.194614,125.59565 c -12.87594,0 -23.24141,10.36549 -23.24141,23.24141 l 0,131.2722 0,132.8163 0,7.98465 c 0,6.5428 5.26673,11.80952 11.80953,11.80952 l 446.379066,0 c 6.5428,0 11.81139,-5.26672 11.81139,-11.80952 l 0,-140.80095 -0.002,0 0,-131.2722 c 0,-12.87593 -10.36546,-23.24141 -23.2414,-23.24141 l -423.515326,0 z"
     id="rect2982"
     inkscape:connector-curvature="0" />
  <g
     transform="matrix(7.125947,0,0,7.125947,91.004173,101.14359)"
     id="g3019">
    <path
       inkscape:transform-center-y="-3.7510421"
       transform="matrix(0,-0.93051909,0.93051909,0,-10.299203,42.059424)"
       d="m 30.124516,36.999985 -12.093387,6.98212 -12.0933868,6.98212 0,-13.964241 0,-13.964239 12.0933868,6.98212 z"
       inkscape:randomized="0"
       inkscape:rounded="0"
       inkscape:flatsided="false"
       sodipodi:arg2="1.0471976"
       sodipodi:arg1="0"
       sodipodi:r2="8.0622578"
       sodipodi:r1="16.124516"
       sodipodi:cy="36.999985"
       sodipodi:cx="14"
       sodipodi:sides="3"
       id="path3896"
       style="color:#000000;display:inline;overflow:visible;visibility:visible;fill:none;stroke:#ffffff;stroke-width:1.28960276;stroke-linecap:butt;stroke-linejoin:miter;stroke-miterlimit:4;stroke-dasharray:none;stroke-dashoffset:0;stroke-opacity:1;marker:none;enable-background:accumulate"
       sodipodi:type="star" />
    <path
       transform="matrix(0.33711635,0,0,-0.85185185,16.246325,51.513889)"
       inkscape:transform-center-y="1.4375"
       d="m 23.000002,24.375 2.922836,5.0625 2.922835,5.0625 -5.845671,0 -5.845672,0 2.922836,-5.0625 z"
       inkscape:randomized="0"
       inkscape:rounded="0"
       inkscape:flatsided="false"
       sodipodi:arg2="-0.52359878"
       sodipodi:arg1="-1.5707963"
       sodipodi:r2="3.375"
       sodipodi:r1="6.75"
       sodipodi:cy="31.125"
       sodipodi:cx="23.000002"
       sodipodi:sides="3"
       id="path3898"
       style="color:#000000;display:inline;overflow:visible;visibility:visible;fill:#ffffff;fill-opacity:1;stroke:none;stroke-width:1;marker:none;enable-background:accumulate"
       sodipodi:type="star" />
    <ellipse
       ry="1.0625"
       rx="0.99999952"
       cy="32.9375"
       cx="24"
       id="path3900"
       style="color:#000000;display:inline;overflow:visible;visibility:visible;fill:#ffffff;fill-opacity:1;fill-rule:evenodd;stroke:none;stroke-width:1;marker:none;enable-background:accumulate" />
  </g>
</svg>
