<?xml version="1.0" encoding="UTF-8" standalone="no"?>
<!-- Created with Inkscape (http://www.inkscape.org/) -->

<svg
   xmlns:dc="http://purl.org/dc/elements/1.1/"
   xmlns:cc="http://creativecommons.org/ns#"
   xmlns:rdf="http://www.w3.org/1999/02/22-rdf-syntax-ns#"
   xmlns:svg="http://www.w3.org/2000/svg"
   xmlns="http://www.w3.org/2000/svg"
   xmlns:sodipodi="http://sodipodi.sourceforge.net/DTD/sodipodi-0.dtd"
   xmlns:inkscape="http://www.inkscape.org/namespaces/inkscape"
   width="48"
   height="48"
   id="svg2"
   version="1.1"
   inkscape:version="0.48.4 r9939"
   sodipodi:docname="image-missing.svgz">
  <defs
     id="defs4" />
  <sodipodi:namedview
     id="base"
     pagecolor="#868686"
     bordercolor="#666666"
     borderopacity="1.0"
     inkscape:pageopacity="0.36078431"
     inkscape:pageshadow="2"
     inkscape:zoom="7.8856955"
     inkscape:cx="-8.1848528"
     inkscape:cy="21.942908"
     inkscape:document-units="px"
     inkscape:current-layer="layer1"
     showgrid="false"
     inkscape:window-width="1680"
     inkscape:window-height="991"
     inkscape:window-x="-2"
     inkscape:window-y="-3"
     inkscape:window-maximized="1"
     showguides="true" />
  <metadata
     id="metadata7">
    <rdf:RDF>
      <cc:Work
         rdf:about="">
        <dc:format>image/svg+xml</dc:format>
        <dc:type
           rdf:resource="http://purl.org/dc/dcmitype/StillImage" />
        <dc:title></dc:title>
      </cc:Work>
    </rdf:RDF>
  </metadata>
  <g
     inkscape:label="Capa 1"
     inkscape:groupmode="layer"
     id="layer1"
     transform="translate(0,-1004.3622)">
    <path
       transform="translate(-0.32959132,-0.01797876)"
       d="m 29.500001,1009.8622 c 0,3.0376 -2.464139,5.5002 -5.50381,5.5002 -3.039671,0 -5.50381,-2.4626 -5.50381,-5.5002 0,-3.0377 2.464139,-5.5002 5.50381,-5.5002 3.039671,0 5.50381,2.4625 5.50381,5.5002 z"
       sodipodi:ry="5.5001698"
       sodipodi:rx="5.5038104"
       sodipodi:cy="1009.8622"
       sodipodi:cx="23.996191"
       id="path3284"
       style="fill:none;stroke:none"
       sodipodi:type="arc" />
    <path
       sodipodi:type="arc"
       style="fill:none;stroke:none"
       id="path3274"
       sodipodi:cx="1028.3591"
       sodipodi:cy="-4.5"
       sodipodi:rx="4.5031176"
       sodipodi:ry="4.5001388"
       d="m 1032.8622,-4.5 c 0,2.485358 -2.0161,4.50013875961 -4.5031,4.50013875961 -2.487,0 -4.5031,-2.01478075961 -4.5031,-4.50013875961 0,-2.485358 2.0161,-4.5001388 4.5031,-4.5001388 2.487,0 4.5031,2.0147808 4.5031,4.5001388 z"
       transform="matrix(0,1,-1,0,-0.32959132,-0.01797876)" />
    <path
       d="m 1031.3623,-2.9999998 c 0,1.6569052 -1.3441,3.000092306409 -3.0021,3.000092306409 -1.658,0 -3.002,-1.343187106409 -3.002,-3.000092306409 0,-1.6569052 1.344,-3.0000922 3.002,-3.0000922 1.658,0 3.0021,1.343187 3.0021,3.0000922 z"
       sodipodi:ry="3.0000923"
       sodipodi:rx="3.0020785"
       sodipodi:cy="-2.9999998"
       sodipodi:cx="1028.3602"
       id="path3278"
       style="fill:none;stroke:none"
       sodipodi:type="arc"
       transform="matrix(0,1,-1,0,-0.32959132,-0.01797876)" />
    <rect
       style="fill:#c0392b;fill-opacity:1;fill-rule:evenodd;stroke:none"
       id="rect3280"
       width="29.999998"
       height="29.999998"
       x="8.6704073"
       y="1015.3441" />
    <rect
       style="fill:#800000;fill-opacity:1;fill-rule:evenodd;stroke:none"
       id="rect3340"
       width="4"
       height="20"
       x="32.670406"
       y="1019.3441" />
    <rect
       style="fill:#800000;fill-opacity:1;fill-rule:evenodd;stroke:none"
       id="rect3330"
       width="4"
       height="20"
       x="21.670408"
       y="1019.3441" />
    <rect
       y="1019.3441"
       x="10.670407"
       height="20"
       width="4"
       id="rect3334"
       style="fill:#800000;fill-opacity:1;fill-rule:evenodd;stroke:none" />
    <rect
       style="fill:#cccccc;fill-opacity:1;fill-rule:nonzero;stroke:none"
       id="rect3028"
       width="2.9024241"
       height="10.982065"
       x="25.164671"
       y="1022.3786"
       ry="3.4123089"
       rx="0" />
    <rect
       y="1015.3443"
       x="5.6704073"
       height="7"
       width="36"
       id="rect3282"
       style="fill:#c0392b;fill-opacity:1;fill-rule:evenodd;stroke:none" />
    <path
       transform="matrix(0,1,-1,0,-0.32959132,-0.01797876)"
       sodipodi:type="arc"
       style="fill:none;stroke:none"
       id="path3296"
       sodipodi:cx="1012.3601"
       sodipodi:cy="-12"
       sodipodi:rx="3.0020785"
       sodipodi:ry="3.0000923"
       d="m 1015.3622,-12 c 0,1.656905 -1.3441,3.0000923 -3.0021,3.0000923 -1.658,0 -3.0021,-1.3431873 -3.0021,-3.0000923 0,-1.656905 1.3441,-3.000092 3.0021,-3.000092 1.658,0 3.0021,1.343187 3.0021,3.000092 z" />
    <path
       d="m 1015.3622,-36 c 0,1.656905 -1.3441,3.000092 -3.0021,3.000092 -1.658,0 -3.0021,-1.343187 -3.0021,-3.000092 0,-1.656905 1.3441,-3.000092 3.0021,-3.000092 1.658,0 3.0021,1.343187 3.0021,3.000092 z"
       sodipodi:ry="3.0000923"
       sodipodi:rx="3.0020785"
       sodipodi:cy="-36"
       sodipodi:cx="1012.3601"
       id="path3298"
       style="fill:none;stroke:none"
       sodipodi:type="arc"
       transform="matrix(0,1,-1,0,-0.32959132,-0.01797876)" />
    <path
       inkscape:connector-curvature="0"
       style="fill:#c0392b;fill-opacity:1;fill-rule:evenodd;stroke:none"
       d="m 16.670409,1008.3442 -2,5 0,2 2,0 0,-2 0,-5 z m 14,0 0,5 0,2 2,0 0,-2 -2,-5 z"
       id="path3376" />
    <path
       inkscape:connector-curvature="0"
       style="fill:#800000;fill-opacity:1;fill-rule:evenodd;stroke:none"
       d="m 16.670409,1008.3442 0,5 14,0 0,-5 -14,0 z"
       id="path3381" />
    <path
       transform="translate(-0.32959132,-0.01797876)"
       d="m 25,1014.3622 c 0,0.5523 -0.448025,1 -1.000692,1 -0.552668,0 -1.000693,-0.4477 -1.000693,-1 0,-0.5523 0.448025,-1 1.000693,-1 0.552667,0 1.000692,0.4477 1.000692,1 z"
       sodipodi:ry="1.0000308"
       sodipodi:rx="1.0006928"
       sodipodi:cy="1014.3622"
       sodipodi:cx="23.999308"
       id="path3302"
       style="fill:none;stroke:none"
       sodipodi:type="arc" />
    <path
       transform="translate(-0.32959132,-0.01797876)"
       sodipodi:type="arc"
       style="fill:none;stroke:none"
       id="path3304"
       sodipodi:cx="15.999307"
       sodipodi:cy="1014.3622"
       sodipodi:rx="1.0006928"
       sodipodi:ry="1.0000308"
       d="m 17,1014.3622 c 0,0.5523 -0.448026,1 -1.000693,1 -0.552668,0 -1.000693,-0.4477 -1.000693,-1 0,-0.5523 0.448025,-1 1.000693,-1 0.552667,0 1.000693,0.4477 1.000693,1 z" />
    <path
       transform="translate(-0.32959132,-0.01797876)"
       sodipodi:type="arc"
       style="fill:none;stroke:none"
       id="path3306"
       sodipodi:cx="31.999308"
       sodipodi:cy="1014.3622"
       sodipodi:rx="1.0006928"
       sodipodi:ry="1.0000308"
       d="m 33,1014.3622 c 0,0.5523 -0.448025,1 -1.000692,1 -0.552668,0 -1.000693,-0.4477 -1.000693,-1 0,-0.5523 0.448025,-1 1.000693,-1 0.552667,0 1.000692,0.4477 1.000692,1 z" />
    <path
       transform="matrix(0,1,-1,0,-0.32959132,-0.01797876)"
       sodipodi:type="arc"
       style="fill:none;stroke:none"
       id="path3332"
       sodipodi:cx="1042.3599"
       sodipodi:cy="-24"
       sodipodi:rx="3.0020785"
       sodipodi:ry="3.0000923"
       d="m 1045.3619,-24 c 0,1.656905 -1.344,3.000092 -3.002,3.000092 -1.658,0 -3.0021,-1.343187 -3.0021,-3.000092 0,-1.656905 1.3441,-3.000092 3.0021,-3.000092 1.658,0 3.002,1.343187 3.002,3.000092 z" />
    <path
       d="m 1045.3619,-18 c 0,1.656905 -1.344,3.000092 -3.002,3.000092 -1.658,0 -3.0021,-1.343187 -3.0021,-3.000092 0,-1.656905 1.3441,-3.000092 3.0021,-3.000092 1.658,0 3.002,1.343187 3.002,3.000092 z"
       sodipodi:ry="3.0000923"
       sodipodi:rx="3.0020785"
       sodipodi:cy="-18"
       sodipodi:cx="1042.3599"
       id="path3336"
       style="fill:none;stroke:none"
       sodipodi:type="arc"
       transform="matrix(0,1,-1,0,-0.32959132,-0.01797876)" />
    <path
       d="m 1045.3619,-30 c 0,1.656905 -1.344,3.000092 -3.002,3.000092 -1.658,0 -3.0021,-1.343187 -3.0021,-3.000092 0,-1.656905 1.3441,-3.000092 3.0021,-3.000092 1.658,0 3.002,1.343187 3.002,3.000092 z"
       sodipodi:ry="3.0000923"
       sodipodi:rx="3.0020785"
       sodipodi:cy="-30"
       sodipodi:cx="1042.3599"
       id="path3338"
       style="fill:none;stroke:none"
       sodipodi:type="arc"
       transform="matrix(0,1,-1,0,-0.32959132,-0.01797876)" />
    <path
       transform="translate(-0.32959132,-0.01797876)"
       sodipodi:type="arc"
       style="fill:none;stroke:none"
       id="path3268"
       sodipodi:cx="23.998615"
       sodipodi:cy="1006.3622"
       sodipodi:rx="2.0013857"
       sodipodi:ry="2.0000615"
       d="m 26.000001,1006.3622 c 0,1.1046 -0.896051,2 -2.001386,2 -1.105335,0 -2.001385,-0.8954 -2.001385,-2 0,-1.1046 0.89605,-2.0001 2.001385,-2.0001 1.105335,0 2.001386,0.8955 2.001386,2.0001 z" />
    <path
       style="fill:#ffffff;fill-opacity:1;fill-rule:evenodd;stroke:none"
       d="m 30.170409,1022.3442 -0.676658,14.2162 5.176658,-3.2162 0,-11 z"
       id="path3423"
       inkscape:connector-curvature="0"
       sodipodi:nodetypes="ccccc" />
    <path
       style="fill:#ffffff;fill-opacity:1;fill-rule:evenodd;stroke:none"
       d="m 25.670409,1022.3442 0,11 5.284439,0.079 -0.784439,-11.0791 z"
       id="rect3405"
       inkscape:connector-curvature="0"
       sodipodi:nodetypes="ccccc" />
  </g>
</svg>
