<?xml version="1.0" encoding="UTF-8" standalone="no"?>
<!-- Created using Karbon, part of Calligra: http://www.calligra.org/karbon -->

<svg
   xmlns:dc="http://purl.org/dc/elements/1.1/"
   xmlns:cc="http://creativecommons.org/ns#"
   xmlns:rdf="http://www.w3.org/1999/02/22-rdf-syntax-ns#"
   xmlns:svg="http://www.w3.org/2000/svg"
   xmlns="http://www.w3.org/2000/svg"
   xmlns:sodipodi="http://sodipodi.sourceforge.net/DTD/sodipodi-0.dtd"
   xmlns:inkscape="http://www.inkscape.org/namespaces/inkscape"
   width="38.4pt"
   height="38.4pt"
   id="svg2"
   version="1.1"
   inkscape:version="0.48.4 r9939"
   sodipodi:docname="object-locked.svg">
  <metadata
     id="metadata19">
    <rdf:RDF>
      <cc:Work
         rdf:about="">
        <dc:format>image/svg+xml</dc:format>
        <dc:type
           rdf:resource="http://purl.org/dc/dcmitype/StillImage" />
      </cc:Work>
    </rdf:RDF>
  </metadata>
  <sodipodi:namedview
     pagecolor="#ffffff"
     bordercolor="#666666"
     borderopacity="1"
     objecttolerance="10"
     gridtolerance="10"
     guidetolerance="10"
     inkscape:pageopacity="0"
     inkscape:pageshadow="2"
     inkscape:window-width="1680"
     inkscape:window-height="991"
     id="namedview17"
     showgrid="false"
     inkscape:zoom="12.436576"
     inkscape:cx="30.702697"
     inkscape:cy="19.997575"
     inkscape:window-x="0"
     inkscape:window-y="-3"
     inkscape:window-maximized="1"
     inkscape:current-layer="svg2"
     showguides="true"
     inkscape:guide-bbox="true" />
  <defs
     id="defs4" />
  <path
     id="path3112"
     d="m 23.768118,9.3623148 c -4.495657,0 -8.130434,3.5416422 -8.114906,7.9408392 l 0.02812,7.968971 c 0,0 17.365864,0.06678 17.28367,-0.02813 l 0,-7.940841 c 0,-4.399225 -3.619248,-7.9408397 -8.114904,-7.9408397 z m 0.540994,4.2351142 c 2.397681,0 4.327949,1.888862 4.327949,4.235115 0,0.007 -0.002,0.01361 -0.0021,0.02068 l 0.0021,0 0,7.390773 -8.627769,0.02813 -0.02812,-7.4189 0.0021,0 c -8.5e-5,-0.007 -0.0021,-0.0136 -0.0021,-0.02068 0,-2.346254 1.930268,-4.235115 4.327949,-4.235115 z"
     style="fill:#1a1a1a;fill-opacity:1;fill-rule:evenodd;stroke:none"
     inkscape:connector-curvature="0"
     sodipodi:nodetypes="ssccsssssccccccss" />
  <path
     sodipodi:nodetypes="ssccsssssccccccss"
     inkscape:connector-curvature="0"
     style="fill:#1a1a1a;fill-opacity:1;fill-rule:evenodd;stroke:none"
     d="m 23.776694,9.4885698 c -4.424408,0 -8.001578,3.4855112 -7.986296,7.8149882 l 0.02768,7.842672 c 0,0 17.090638,0.06572 17.009748,-0.02768 l 0,-7.814991 c 0,-4.329503 -3.561889,-7.8149877 -7.986296,-7.8149877 z m 0.53242,4.1679942 c 2.359681,0 4.259357,1.858926 4.259357,4.167993 0,0.007 -0.002,0.01339 -0.0021,0.02035 l 0.0021,0.04523 0,7.27364 -8.491032,-0.01755 -0.02768,-7.301321 0.0021,0 c 0.006,0.448271 -0.0021,-0.01338 -0.0021,-0.02035 0,-2.309068 1.899675,-4.167994 4.259359,-4.167995 z"
     id="path3766" />
  <path
     id="path3013"
     d="m 12.579815,24.891181 0,15.732276 23.333284,0 0,-15.732276 c -8.352438,-0.161254 -20.384646,0 -23.333284,0 z"
     style="fill:#1a1a1a;fill-opacity:1;fill-rule:evenodd;stroke:none"
     inkscape:connector-curvature="0"
     sodipodi:nodetypes="ccccc" />
</svg>
