<?xml version="1.0" encoding="UTF-8" standalone="no"?>
<!-- Created using Karbon, part of Calligra: http://www.calligra.org/karbon -->

<svg
   xmlns:dc="http://purl.org/dc/elements/1.1/"
   xmlns:cc="http://creativecommons.org/ns#"
   xmlns:rdf="http://www.w3.org/1999/02/22-rdf-syntax-ns#"
   xmlns:svg="http://www.w3.org/2000/svg"
   xmlns="http://www.w3.org/2000/svg"
   xmlns:sodipodi="http://sodipodi.sourceforge.net/DTD/sodipodi-0.dtd"
   xmlns:inkscape="http://www.inkscape.org/namespaces/inkscape"
   width="38.4pt"
   height="38.4pt"
   id="svg2"
   version="1.1"
   inkscape:version="0.48.5 r10040"
   sodipodi:docname="weather-many-clouds.svg">
  <metadata
     id="metadata10">
    <rdf:RDF>
      <cc:Work
         rdf:about="">
        <dc:format>image/svg+xml</dc:format>
        <dc:type
           rdf:resource="http://purl.org/dc/dcmitype/StillImage" />
        <dc:title></dc:title>
      </cc:Work>
    </rdf:RDF>
  </metadata>
  <sodipodi:namedview
     pagecolor="#ffffff"
     bordercolor="#666666"
     borderopacity="1"
     objecttolerance="10"
     gridtolerance="10"
     guidetolerance="10"
     inkscape:pageopacity="0"
     inkscape:pageshadow="2"
     inkscape:window-width="971"
     inkscape:window-height="706"
     id="namedview8"
     showgrid="false"
     inkscape:zoom="6.1469579"
     inkscape:cx="13.748101"
     inkscape:cy="19.671886"
     inkscape:window-x="382"
     inkscape:window-y="160"
     inkscape:window-maximized="0"
     inkscape:current-layer="svg2" />
  <defs
     id="defs4">
    <filter
       inkscape:collect="always"
       id="filter3800">
      <feGaussianBlur
         inkscape:collect="always"
         stdDeviation="0.66067519"
         id="feGaussianBlur3802" />
    </filter>
  </defs>
  <path
     id="path3836"
     d="m 27.603605,32.459469 c 0,1.181595 -0.957871,2.139467 -2.139466,2.139467 -1.181595,0 -2.139467,-0.957872 -2.139467,-2.139467 0,-1.181595 0.957872,-2.139466 2.139467,-2.139466 1.181595,0 2.139466,0.957871 2.139466,2.139466 z"
     style="color:#000000;fill:#f3f3ff;fill-opacity:1;fill-rule:nonzero;stroke:#b1ada3;stroke-width:0.132;stroke-linecap:butt;stroke-linejoin:miter;stroke-miterlimit:4;stroke-opacity:1;stroke-dashoffset:0;marker:none;visibility:visible;display:inline;overflow:visible;enable-background:accumulate;stroke-dasharray:none"
     inkscape:connector-curvature="0" />
  <path
     style="color:#000000;fill:#b1ada3;fill-opacity:1;fill-rule:nonzero;stroke:#b1ada3;stroke-width:0.60000001999999997;stroke-miterlimit:4;stroke-opacity:1;stroke-dasharray:none;marker:none;visibility:visible;display:inline;overflow:visible;enable-background:accumulate;filter:url(#filter3800)"
     d="M 11.067024,37.342148 C 8.0013302,37.052289 6.0224271,35.673497 4.9143771,33.055319 4.0103331,30.919179 4.3924431,28.868253 6.0801421,26.798214 7.1956562,25.429988 5.9305885,21.870443 7.8059724,21.656148 l 1.439674,-0.164507 -0.170916,-2.078908 c -0.2369025,-2.881522 3.3737576,-1.680663 5.2624166,-3.255182 1.929474,-1.608547 4.850125,-3.562137 7.183067,-0.96247 1.87454,2.088856 0.77777,0.0077 1.145659,-0.722319 0.543622,-1.078608 3.040738,-3.042823 4.526147,-3.560235 2.379993,-0.82902 5.20224,-0.299561 7.472081,1.401779 2.414721,1.809933 3.01191,3.092298 3.023635,6.492779 l 0.0097,2.836862 1.281106,0.773669 c 3.110456,1.878435 4.582833,4.206111 4.582833,7.245 0,2.190647 -0.94978,4.095793 -2.778904,5.574147 -2.717853,2.196651 -2.148782,2.115946 -15.630381,2.216695 -6.57931,0.04917 -12.917633,-7.95e-4 -14.085159,-0.111312 l 0,0 z"
     id="path4111"
     inkscape:connector-curvature="0"
     sodipodi:nodetypes="cssscssscssccssssccc" />
</svg>
