<?xml version="1.0" encoding="UTF-8" standalone="no"?>
<!-- Created using Karbon, part of Calligra: http://www.calligra.org/karbon -->

<svg
   xmlns:dc="http://purl.org/dc/elements/1.1/"
   xmlns:cc="http://creativecommons.org/ns#"
   xmlns:rdf="http://www.w3.org/1999/02/22-rdf-syntax-ns#"
   xmlns:svg="http://www.w3.org/2000/svg"
   xmlns="http://www.w3.org/2000/svg"
   xmlns:xlink="http://www.w3.org/1999/xlink"
   xmlns:sodipodi="http://sodipodi.sourceforge.net/DTD/sodipodi-0.dtd"
   xmlns:inkscape="http://www.inkscape.org/namespaces/inkscape"
   width="38.4pt"
   height="38.4pt"
   id="svg2"
   version="1.1"
   inkscape:version="0.48.5 r10040"
   sodipodi:docname="weather-snow-scattered.svg">
  <metadata
     id="metadata10">
    <rdf:RDF>
      <cc:Work
         rdf:about="">
        <dc:format>image/svg+xml</dc:format>
        <dc:type
           rdf:resource="http://purl.org/dc/dcmitype/StillImage" />
        <dc:title></dc:title>
      </cc:Work>
    </rdf:RDF>
  </metadata>
  <sodipodi:namedview
     pagecolor="#ffffff"
     bordercolor="#666666"
     borderopacity="1"
     objecttolerance="10"
     gridtolerance="10"
     guidetolerance="10"
     inkscape:pageopacity="0"
     inkscape:pageshadow="2"
     inkscape:window-width="971"
     inkscape:window-height="706"
     id="namedview8"
     showgrid="false"
     inkscape:zoom="14.204009"
     inkscape:cx="23.868504"
     inkscape:cy="14.153604"
     inkscape:window-x="338"
     inkscape:window-y="110"
     inkscape:window-maximized="0"
     inkscape:current-layer="svg2" />
  <defs
     id="defs4" />
  <g
     id="g3787">
    <path
       id="path3827"
       d="m 28.306685,1.7169435 c 0,7.4123645 -6.008908,13.4212735 -13.421273,13.4212735 -7.4123643,0 -13.421273,-6.008909 -13.421273,-13.4212735 0,-7.4123645 6.0089087,-13.4212735 13.421273,-13.4212735 7.412365,0 13.421273,6.008909 13.421273,13.4212735 z"
       style="color:#000000;fill:#f3f3ff;fill-opacity:1;fill-rule:nonzero;stroke:#b1ada3;stroke-width:0.44156069;stroke-linecap:butt;stroke-linejoin:miter;stroke-miterlimit:4;stroke-opacity:1;stroke-dasharray:none;stroke-dashoffset:0;marker:none;visibility:visible;display:inline;overflow:visible;enable-background:accumulate"
       transform="matrix(1.1323472,0,0,1.1323472,7.1445452,22.055824)"
       inkscape:connector-curvature="0" />
    <path
       inkscape:connector-curvature="0"
       style="color:#000000;fill:#f3f3ff;fill-opacity:1;fill-rule:nonzero;stroke:#b1ada3;stroke-width:0.5;stroke-linecap:butt;stroke-linejoin:miter;stroke-miterlimit:4;stroke-opacity:1;stroke-dasharray:none;stroke-dashoffset:0;marker:none;visibility:visible;display:inline;overflow:visible;enable-background:accumulate"
       d="m 29.693339,18.468809 c 0,1.976336 -1.602136,3.578473 -3.578472,3.578473 -1.976336,0 -3.578473,-1.602137 -3.578473,-3.578473 0,-1.976336 1.602137,-3.578472 3.578473,-3.578472 1.976336,0 3.578472,1.602136 3.578472,3.578472 z"
       id="path3832" />
    <path
       id="path3834"
       d="m 17.354633,24 c 0,1.181595 -0.957871,2.139467 -2.139466,2.139467 -1.181595,0 -2.139467,-0.957872 -2.139467,-2.139467 0,-1.181595 0.957872,-2.139466 2.139467,-2.139466 1.181595,0 2.139466,0.957871 2.139466,2.139466 z"
       style="color:#000000;fill:#f3f3ff;fill-opacity:1;fill-rule:nonzero;stroke:#b1ada3;stroke-width:0.5;stroke-linecap:butt;stroke-linejoin:miter;stroke-miterlimit:4;stroke-opacity:1;stroke-dasharray:none;stroke-dashoffset:0;marker:none;visibility:visible;display:inline;overflow:visible;enable-background:accumulate"
       inkscape:connector-curvature="0" />
    <path
       inkscape:connector-curvature="0"
       style="color:#000000;fill:#f3f3ff;fill-opacity:1;fill-rule:nonzero;stroke:#b1ada3;stroke-width:0.5;stroke-linecap:butt;stroke-linejoin:miter;stroke-miterlimit:4;stroke-opacity:1;stroke-dasharray:none;stroke-dashoffset:0;marker:none;visibility:visible;display:inline;overflow:visible;enable-background:accumulate"
       d="m 27.603605,32.459469 c 0,1.181595 -0.957871,2.139467 -2.139466,2.139467 -1.181595,0 -2.139467,-0.957872 -2.139467,-2.139467 0,-1.181595 0.957872,-2.139466 2.139467,-2.139466 1.181595,0 2.139466,0.957871 2.139466,2.139466 z"
       id="path3836" />
    <path
       id="path3838"
       d="m 18.516495,15.377849 c 0,0.745112 -0.604032,1.349144 -1.349143,1.349144 -0.745112,0 -1.349144,-0.604032 -1.349144,-1.349144 0,-0.745111 0.604032,-1.349143 1.349144,-1.349143 0.745111,0 1.349143,0.604032 1.349143,1.349143 z"
       style="color:#000000;fill:#f3f3ff;fill-opacity:1;fill-rule:nonzero;stroke:#b1ada3;stroke-width:0.5;stroke-linecap:butt;stroke-linejoin:miter;stroke-miterlimit:4;stroke-opacity:1;stroke-dasharray:none;stroke-dashoffset:0;marker:none;visibility:visible;display:inline;overflow:visible;enable-background:accumulate"
       inkscape:connector-curvature="0" />
  </g>
  <path
     style="fill:#ffffff;fill-opacity:1"
     id="path5"
     d="m 43.207629,-17.131024 c 0.03568,-0.294879 0.05281,-0.594795 0.05281,-0.894658 0,-3.741025 -2.622689,-6.786151 -5.847893,-6.786151 -1.87032,0 -3.587819,1.025557 -4.675755,2.707197 -0.384042,-0.10773 -0.775212,-0.16239 -1.172137,-0.16239 -2.821152,0 -5.116906,2.664094 -5.116906,5.937881 0,0.08287 0.0014,0.164034 0.0043,0.245203 -2.114424,0.728981 -3.659227,3.005416 -3.659227,5.692679 0,3.2737869 2.295755,5.9378809 5.116906,5.9378809 h 12.426771 c 3.225205,0 5.847893,-3.043482 5.847893,-6.7861499 0,-2.473552 -1.172137,-4.708528 -2.97676,-5.891492 z M 40.336496,-6.1499191 H 27.909725 c -2.018802,0 -3.654933,-1.898691 -3.654933,-4.2413439 0,-2.342654 1.636176,-4.241344 3.654933,-4.241344 0.111384,0 0.217012,0.02651 0.325517,0.03812 -0.20559,-0.530168 -0.325517,-1.114996 -0.325517,-1.734657 0,-2.342706 1.636176,-4.241344 3.654933,-4.241344 0.659624,0 1.270683,0.218694 1.804623,0.573271 0.662456,-1.83242 2.22293,-3.118077 4.043269,-3.118077 2.422809,0 4.38592,2.278079 4.38592,5.089613 0,0.669337 -0.118512,1.305538 -0.321223,1.892063 1.866026,0.586472 3.245169,2.544807 3.245169,4.894087 0,2.8115339 -1.96311,5.0896129 -4.38592,5.0896129 z"
     inkscape:connector-curvature="0" />
  <path
     style="color:#000000;fill:#ffffff;fill-opacity:1;fill-rule:nonzero;stroke:#b1ada3;stroke-width:0.4478251;stroke-miterlimit:4;stroke-opacity:1;stroke-dasharray:none;marker:none;visibility:visible;display:inline;overflow:visible;enable-background:accumulate"
     d="m 12.746631,29.84958 c -2.577169,-0.192083 -4.2407304,-1.105772 -5.1722094,-2.840773 -0.759981,-1.415566 -0.438762,-2.774661 0.979999,-4.146425 0.937752,-0.906689 2.1991674,-1.43282 3.7757044,-1.574827 l 1.210259,-0.109013 -0.143683,-1.37764 c -0.199157,-1.909512 0.237732,-2.838619 1.825429,-3.882013 1.622008,-1.065943 3.455677,-1.282547 6.311945,-0.745609 0.48176,0.09056 0.653832,0.0051 0.963095,-0.478663 0.456995,-0.714765 2.556189,-2.016402 3.804895,-2.359278 2.000735,-0.549371 4.373252,-0.198511 6.281387,0.928924 2.029929,1.199396 2.531954,2.049188 2.541812,4.3026 l 0.0081,1.879918 1.076959,0.51269 c 2.614797,1.244791 3.852547,2.787283 3.852547,4.801078 0,1.451686 -0.798431,2.714177 -2.336078,3.693846 -2.284758,1.455665 -1.806369,1.402184 -13.139643,1.468948 -5.530881,0.03258 -10.859177,-5.28e-4 -11.840655,-0.07376 l 0,0 z"
     id="path4111"
     inkscape:connector-curvature="0" />
  <g
     id="g3857"
     transform="translate(-10.217395,-0.58624395)">
    <g
       id="g3808">
      <g
         id="g3793"
         transform="translate(-4.0729355,-2.9392318)">
        <rect
           inkscape:tile-y0="34.815449"
           inkscape:tile-x0="40.393444"
           inkscape:tile-h="2.2254183"
           inkscape:tile-w="0.29392317"
           inkscape:tile-cy="35.928158"
           inkscape:tile-cx="40.540406"
           ry="0"
           y="34.815449"
           x="40.393444"
           height="2.2254183"
           width="0.29392317"
           id="rect2999"
           style="color:#000000;fill:#b1ada3;fill-opacity:1;fill-rule:nonzero;stroke:none;stroke-width:0.5;marker:none;visibility:visible;display:inline;overflow:visible;enable-background:accumulate" />
        <use
           id="use3769"
           xlink:href="#rect2999"
           inkscape:tiled-clone-of="#rect2999"
           y="0"
           x="0"
           width="48"
           height="48" />
        <use
           id="use3771"
           transform="matrix(-0.17364818,0.98480775,-0.98480775,-0.17364818,82.962502,2.2425113)"
           xlink:href="#rect2999"
           inkscape:tiled-clone-of="#rect2999"
           y="0"
           x="0"
           width="48"
           height="48" />
        <use
           id="use3773"
           transform="matrix(-0.93969262,-0.34202014,0.34202014,-0.93969262,66.347772,83.555218)"
           xlink:href="#rect2999"
           inkscape:tiled-clone-of="#rect2999"
           y="0"
           x="0"
           width="48"
           height="48" />
        <use
           id="use3775"
           transform="matrix(0.5,-0.8660254,0.8660254,0.5,-10.844495,53.0731)"
           xlink:href="#rect2999"
           inkscape:tiled-clone-of="#rect2999"
           y="0"
           x="0"
           width="48"
           height="48" />
        <use
           id="use3777"
           transform="matrix(0.76604444,0.64278761,-0.64278761,0.76604444,32.578828,-17.653278)"
           xlink:href="#rect2999"
           inkscape:tiled-clone-of="#rect2999"
           y="0"
           x="0"
           width="48"
           height="48" />
        <use
           id="use3779"
           transform="matrix(-0.76604444,0.64278761,-0.64278761,-0.76604444,94.690333,37.391853)"
           xlink:href="#rect2999"
           inkscape:tiled-clone-of="#rect2999"
           y="0"
           x="0"
           width="48"
           height="48" />
        <use
           id="use3781"
           transform="matrix(-0.5,-0.8660254,0.8660254,-0.5,29.695911,89.001258)"
           xlink:href="#rect2999"
           inkscape:tiled-clone-of="#rect2999"
           y="0"
           x="0"
           width="48"
           height="48" />
        <use
           id="use3783"
           transform="matrix(0.93969262,-0.34202014,0.34202014,0.93969262,-9.8432681,16.032368)"
           xlink:href="#rect2999"
           inkscape:tiled-clone-of="#rect2999"
           y="0"
           x="0"
           width="48"
           height="48" />
        <use
           id="use3785"
           transform="matrix(0.17364818,0.98480775,-0.98480775,0.17364818,68.882967,-10.235207)"
           xlink:href="#rect2999"
           inkscape:tiled-clone-of="#rect2999"
           y="0"
           x="0"
           width="48"
           height="48" />
        <use
           id="use3787"
           transform="matrix(-1,0,0,-1,81.080811,71.856316)"
           xlink:href="#rect2999"
           inkscape:tiled-clone-of="#rect2999"
           y="0"
           x="0"
           width="48"
           height="48" />
        <use
           id="use3789"
           transform="matrix(0.17364818,-0.98480775,0.98480775,0.17364818,-1.8816904,69.613805)"
           xlink:href="#rect2999"
           inkscape:tiled-clone-of="#rect2999"
           y="0"
           x="0"
           width="48"
           height="48" />
        <use
           id="use3791"
           transform="matrix(0.93969262,0.34202014,-0.34202014,0.93969262,14.733039,-11.698902)"
           xlink:href="#rect2999"
           inkscape:tiled-clone-of="#rect2999"
           y="0"
           x="0"
           width="48"
           height="48" />
      </g>
      <path
         id="path3824"
         d="m 35.594328,32.988926 c 0,0.482223 0.390919,0.873142 0.873143,0.873142 0.482222,0 0.873142,-0.390919 0.873142,-0.873142 0,-0.482223 -0.39092,-0.873142 -0.873142,-0.873142 -0.482224,0 -0.873143,0.390919 -0.873143,0.873142 z"
         style="color:#000000;fill:#ffffff;fill-opacity:1;fill-rule:nonzero;stroke:none;stroke-width:0.41290522000000002;marker:none;visibility:visible;display:inline;overflow:visible;enable-background:accumulate"
         inkscape:connector-curvature="0" />
    </g>
  </g>
  <g
     id="g3825"
     transform="matrix(0.54840421,0,0,0.54840421,11.778605,20.131981)">
    <g
       id="g3827"
       transform="translate(-4.0729355,-2.9392318)">
      <rect
         inkscape:tile-y0="34.815449"
         inkscape:tile-x0="40.393444"
         inkscape:tile-h="2.2254183"
         inkscape:tile-w="0.29392317"
         inkscape:tile-cy="35.928158"
         inkscape:tile-cx="40.540406"
         ry="0"
         y="34.815449"
         x="40.393444"
         height="2.2254183"
         width="0.29392317"
         id="rect3829"
         style="color:#000000;fill:#b1ada3;fill-opacity:1;fill-rule:nonzero;stroke:none;stroke-width:0.5;marker:none;visibility:visible;display:inline;overflow:visible;enable-background:accumulate" />
      <use
         id="use3831"
         xlink:href="#rect2999"
         inkscape:tiled-clone-of="#rect2999"
         y="0"
         x="0"
         width="48"
         height="48" />
      <use
         id="use3833"
         transform="matrix(-0.17364818,0.98480775,-0.98480775,-0.17364818,82.962502,2.2425113)"
         xlink:href="#rect2999"
         inkscape:tiled-clone-of="#rect2999"
         y="0"
         x="0"
         width="48"
         height="48" />
      <use
         id="use3835"
         transform="matrix(-0.93969262,-0.34202014,0.34202014,-0.93969262,66.347772,83.555218)"
         xlink:href="#rect2999"
         inkscape:tiled-clone-of="#rect2999"
         y="0"
         x="0"
         width="48"
         height="48" />
      <use
         id="use3837"
         transform="matrix(0.5,-0.8660254,0.8660254,0.5,-10.844495,53.0731)"
         xlink:href="#rect2999"
         inkscape:tiled-clone-of="#rect2999"
         y="0"
         x="0"
         width="48"
         height="48" />
      <use
         id="use3839"
         transform="matrix(0.76604444,0.64278761,-0.64278761,0.76604444,32.578828,-17.653278)"
         xlink:href="#rect2999"
         inkscape:tiled-clone-of="#rect2999"
         y="0"
         x="0"
         width="48"
         height="48" />
      <use
         id="use3841"
         transform="matrix(-0.76604444,0.64278761,-0.64278761,-0.76604444,94.690333,37.391853)"
         xlink:href="#rect2999"
         inkscape:tiled-clone-of="#rect2999"
         y="0"
         x="0"
         width="48"
         height="48" />
      <use
         id="use3843"
         transform="matrix(-0.5,-0.8660254,0.8660254,-0.5,29.695911,89.001258)"
         xlink:href="#rect2999"
         inkscape:tiled-clone-of="#rect2999"
         y="0"
         x="0"
         width="48"
         height="48" />
      <use
         id="use3845"
         transform="matrix(0.93969262,-0.34202014,0.34202014,0.93969262,-9.8432681,16.032368)"
         xlink:href="#rect2999"
         inkscape:tiled-clone-of="#rect2999"
         y="0"
         x="0"
         width="48"
         height="48" />
      <use
         id="use3847"
         transform="matrix(0.17364818,0.98480775,-0.98480775,0.17364818,68.882967,-10.235207)"
         xlink:href="#rect2999"
         inkscape:tiled-clone-of="#rect2999"
         y="0"
         x="0"
         width="48"
         height="48" />
      <use
         id="use3849"
         transform="matrix(-1,0,0,-1,81.080811,71.856316)"
         xlink:href="#rect2999"
         inkscape:tiled-clone-of="#rect2999"
         y="0"
         x="0"
         width="48"
         height="48" />
      <use
         id="use3851"
         transform="matrix(0.17364818,-0.98480775,0.98480775,0.17364818,-1.8816904,69.613805)"
         xlink:href="#rect2999"
         inkscape:tiled-clone-of="#rect2999"
         y="0"
         x="0"
         width="48"
         height="48" />
      <use
         id="use3853"
         transform="matrix(0.93969262,0.34202014,-0.34202014,0.93969262,14.733039,-11.698902)"
         xlink:href="#rect2999"
         inkscape:tiled-clone-of="#rect2999"
         y="0"
         x="0"
         width="48"
         height="48" />
    </g>
    <path
       id="path3855"
       d="m 35.594328,32.988926 c 0,0.482223 0.390919,0.873142 0.873143,0.873142 0.482222,0 0.873142,-0.390919 0.873142,-0.873142 0,-0.482223 -0.39092,-0.873142 -0.873142,-0.873142 -0.482224,0 -0.873143,0.390919 -0.873143,0.873142 z"
       style="color:#000000;fill:#ffffff;fill-opacity:1;fill-rule:nonzero;stroke:none;stroke-width:0.41290522000000002;marker:none;visibility:visible;display:inline;overflow:visible;enable-background:accumulate"
       inkscape:connector-curvature="0" />
  </g>
  <g
     transform="translate(-0.41874616,-0.58624395)"
     id="g3875">
    <g
       id="g3877">
      <g
         transform="translate(-4.0729355,-2.9392318)"
         id="g3879">
        <rect
           style="color:#000000;fill:#b1ada3;fill-opacity:1;fill-rule:nonzero;stroke:none;stroke-width:0.5;marker:none;visibility:visible;display:inline;overflow:visible;enable-background:accumulate"
           id="rect3881"
           width="0.29392317"
           height="2.2254183"
           x="40.393444"
           y="34.815449"
           ry="0"
           inkscape:tile-cx="40.540406"
           inkscape:tile-cy="35.928158"
           inkscape:tile-w="0.29392317"
           inkscape:tile-h="2.2254183"
           inkscape:tile-x0="40.393444"
           inkscape:tile-y0="34.815449" />
        <use
           height="48"
           width="48"
           x="0"
           y="0"
           inkscape:tiled-clone-of="#rect2999"
           xlink:href="#rect2999"
           id="use3883" />
        <use
           height="48"
           width="48"
           x="0"
           y="0"
           inkscape:tiled-clone-of="#rect2999"
           xlink:href="#rect2999"
           transform="matrix(-0.17364818,0.98480775,-0.98480775,-0.17364818,82.962502,2.2425113)"
           id="use3885" />
        <use
           height="48"
           width="48"
           x="0"
           y="0"
           inkscape:tiled-clone-of="#rect2999"
           xlink:href="#rect2999"
           transform="matrix(-0.93969262,-0.34202014,0.34202014,-0.93969262,66.347772,83.555218)"
           id="use3887" />
        <use
           height="48"
           width="48"
           x="0"
           y="0"
           inkscape:tiled-clone-of="#rect2999"
           xlink:href="#rect2999"
           transform="matrix(0.5,-0.8660254,0.8660254,0.5,-10.844495,53.0731)"
           id="use3889" />
        <use
           height="48"
           width="48"
           x="0"
           y="0"
           inkscape:tiled-clone-of="#rect2999"
           xlink:href="#rect2999"
           transform="matrix(0.76604444,0.64278761,-0.64278761,0.76604444,32.578828,-17.653278)"
           id="use3891" />
        <use
           height="48"
           width="48"
           x="0"
           y="0"
           inkscape:tiled-clone-of="#rect2999"
           xlink:href="#rect2999"
           transform="matrix(-0.76604444,0.64278761,-0.64278761,-0.76604444,94.690333,37.391853)"
           id="use3893" />
        <use
           height="48"
           width="48"
           x="0"
           y="0"
           inkscape:tiled-clone-of="#rect2999"
           xlink:href="#rect2999"
           transform="matrix(-0.5,-0.8660254,0.8660254,-0.5,29.695911,89.001258)"
           id="use3895" />
        <use
           height="48"
           width="48"
           x="0"
           y="0"
           inkscape:tiled-clone-of="#rect2999"
           xlink:href="#rect2999"
           transform="matrix(0.93969262,-0.34202014,0.34202014,0.93969262,-9.8432681,16.032368)"
           id="use3897" />
        <use
           height="48"
           width="48"
           x="0"
           y="0"
           inkscape:tiled-clone-of="#rect2999"
           xlink:href="#rect2999"
           transform="matrix(0.17364818,0.98480775,-0.98480775,0.17364818,68.882967,-10.235207)"
           id="use3899" />
        <use
           height="48"
           width="48"
           x="0"
           y="0"
           inkscape:tiled-clone-of="#rect2999"
           xlink:href="#rect2999"
           transform="matrix(-1,0,0,-1,81.080811,71.856316)"
           id="use3901" />
        <use
           height="48"
           width="48"
           x="0"
           y="0"
           inkscape:tiled-clone-of="#rect2999"
           xlink:href="#rect2999"
           transform="matrix(0.17364818,-0.98480775,0.98480775,0.17364818,-1.8816904,69.613805)"
           id="use3903" />
        <use
           height="48"
           width="48"
           x="0"
           y="0"
           inkscape:tiled-clone-of="#rect2999"
           xlink:href="#rect2999"
           transform="matrix(0.93969262,0.34202014,-0.34202014,0.93969262,14.733039,-11.698902)"
           id="use3905" />
      </g>
      <path
         inkscape:connector-curvature="0"
         style="color:#000000;fill:#ffffff;fill-opacity:1;fill-rule:nonzero;stroke:none;stroke-width:0.41290522000000002;marker:none;visibility:visible;display:inline;overflow:visible;enable-background:accumulate"
         d="m 35.594328,32.988926 c 0,0.482223 0.390919,0.873142 0.873143,0.873142 0.482222,0 0.873142,-0.390919 0.873142,-0.873142 0,-0.482223 -0.39092,-0.873142 -0.873142,-0.873142 -0.482224,0 -0.873143,0.390919 -0.873143,0.873142 z"
         id="path3907" />
    </g>
  </g>
  <g
     id="g3909"
     transform="matrix(0.84946807,0,0,0.84946807,-8.5803362,13.759546)">
    <g
       id="g3911">
      <g
         id="g3913"
         transform="translate(-4.0729355,-2.9392318)">
        <rect
           inkscape:tile-y0="34.815449"
           inkscape:tile-x0="40.393444"
           inkscape:tile-h="2.2254183"
           inkscape:tile-w="0.29392317"
           inkscape:tile-cy="35.928158"
           inkscape:tile-cx="40.540406"
           ry="0"
           y="34.815449"
           x="40.393444"
           height="2.2254183"
           width="0.29392317"
           id="rect3915"
           style="color:#000000;fill:#b1ada3;fill-opacity:1;fill-rule:nonzero;stroke:none;stroke-width:0.5;marker:none;visibility:visible;display:inline;overflow:visible;enable-background:accumulate" />
        <use
           id="use3917"
           xlink:href="#rect2999"
           inkscape:tiled-clone-of="#rect2999"
           y="0"
           x="0"
           width="48"
           height="48" />
        <use
           id="use3919"
           transform="matrix(-0.17364818,0.98480775,-0.98480775,-0.17364818,82.962502,2.2425113)"
           xlink:href="#rect2999"
           inkscape:tiled-clone-of="#rect2999"
           y="0"
           x="0"
           width="48"
           height="48" />
        <use
           id="use3921"
           transform="matrix(-0.93969262,-0.34202014,0.34202014,-0.93969262,66.347772,83.555218)"
           xlink:href="#rect2999"
           inkscape:tiled-clone-of="#rect2999"
           y="0"
           x="0"
           width="48"
           height="48" />
        <use
           id="use3923"
           transform="matrix(0.5,-0.8660254,0.8660254,0.5,-10.844495,53.0731)"
           xlink:href="#rect2999"
           inkscape:tiled-clone-of="#rect2999"
           y="0"
           x="0"
           width="48"
           height="48" />
        <use
           id="use3925"
           transform="matrix(0.76604444,0.64278761,-0.64278761,0.76604444,32.578828,-17.653278)"
           xlink:href="#rect2999"
           inkscape:tiled-clone-of="#rect2999"
           y="0"
           x="0"
           width="48"
           height="48" />
        <use
           id="use3927"
           transform="matrix(-0.76604444,0.64278761,-0.64278761,-0.76604444,94.690333,37.391853)"
           xlink:href="#rect2999"
           inkscape:tiled-clone-of="#rect2999"
           y="0"
           x="0"
           width="48"
           height="48" />
        <use
           id="use3929"
           transform="matrix(-0.5,-0.8660254,0.8660254,-0.5,29.695911,89.001258)"
           xlink:href="#rect2999"
           inkscape:tiled-clone-of="#rect2999"
           y="0"
           x="0"
           width="48"
           height="48" />
        <use
           id="use3931"
           transform="matrix(0.93969262,-0.34202014,0.34202014,0.93969262,-9.8432681,16.032368)"
           xlink:href="#rect2999"
           inkscape:tiled-clone-of="#rect2999"
           y="0"
           x="0"
           width="48"
           height="48" />
        <use
           id="use3933"
           transform="matrix(0.17364818,0.98480775,-0.98480775,0.17364818,68.882967,-10.235207)"
           xlink:href="#rect2999"
           inkscape:tiled-clone-of="#rect2999"
           y="0"
           x="0"
           width="48"
           height="48" />
        <use
           id="use3935"
           transform="matrix(-1,0,0,-1,81.080811,71.856316)"
           xlink:href="#rect2999"
           inkscape:tiled-clone-of="#rect2999"
           y="0"
           x="0"
           width="48"
           height="48" />
        <use
           id="use3937"
           transform="matrix(0.17364818,-0.98480775,0.98480775,0.17364818,-1.8816904,69.613805)"
           xlink:href="#rect2999"
           inkscape:tiled-clone-of="#rect2999"
           y="0"
           x="0"
           width="48"
           height="48" />
        <use
           id="use3939"
           transform="matrix(0.93969262,0.34202014,-0.34202014,0.93969262,14.733039,-11.698902)"
           xlink:href="#rect2999"
           inkscape:tiled-clone-of="#rect2999"
           y="0"
           x="0"
           width="48"
           height="48" />
      </g>
      <path
         id="path3941"
         d="m 35.594328,32.988926 c 0,0.482223 0.390919,0.873142 0.873143,0.873142 0.482222,0 0.873142,-0.390919 0.873142,-0.873142 0,-0.482223 -0.39092,-0.873142 -0.873142,-0.873142 -0.482224,0 -0.873143,0.390919 -0.873143,0.873142 z"
         style="color:#000000;fill:#ffffff;fill-opacity:1;fill-rule:nonzero;stroke:none;stroke-width:0.41290522000000002;marker:none;visibility:visible;display:inline;overflow:visible;enable-background:accumulate"
         inkscape:connector-curvature="0" />
    </g>
  </g>
  <g
     transform="matrix(0.69893614,0,0,0.69893614,-6.9851522,11.648631)"
     id="g3943">
    <g
       id="g3945">
      <g
         transform="translate(-4.0729355,-2.9392318)"
         id="g3947">
        <rect
           style="color:#000000;fill:#b1ada3;fill-opacity:1;fill-rule:nonzero;stroke:none;stroke-width:0.5;marker:none;visibility:visible;display:inline;overflow:visible;enable-background:accumulate"
           id="rect3949"
           width="0.29392317"
           height="2.2254183"
           x="40.393444"
           y="34.815449"
           ry="0"
           inkscape:tile-cx="40.540406"
           inkscape:tile-cy="35.928158"
           inkscape:tile-w="0.29392317"
           inkscape:tile-h="2.2254183"
           inkscape:tile-x0="40.393444"
           inkscape:tile-y0="34.815449" />
        <use
           height="48"
           width="48"
           x="0"
           y="0"
           inkscape:tiled-clone-of="#rect2999"
           xlink:href="#rect2999"
           id="use3951" />
        <use
           height="48"
           width="48"
           x="0"
           y="0"
           inkscape:tiled-clone-of="#rect2999"
           xlink:href="#rect2999"
           transform="matrix(-0.17364818,0.98480775,-0.98480775,-0.17364818,82.962502,2.2425113)"
           id="use3953" />
        <use
           height="48"
           width="48"
           x="0"
           y="0"
           inkscape:tiled-clone-of="#rect2999"
           xlink:href="#rect2999"
           transform="matrix(-0.93969262,-0.34202014,0.34202014,-0.93969262,66.347772,83.555218)"
           id="use3955" />
        <use
           height="48"
           width="48"
           x="0"
           y="0"
           inkscape:tiled-clone-of="#rect2999"
           xlink:href="#rect2999"
           transform="matrix(0.5,-0.8660254,0.8660254,0.5,-10.844495,53.0731)"
           id="use3957" />
        <use
           height="48"
           width="48"
           x="0"
           y="0"
           inkscape:tiled-clone-of="#rect2999"
           xlink:href="#rect2999"
           transform="matrix(0.76604444,0.64278761,-0.64278761,0.76604444,32.578828,-17.653278)"
           id="use3959" />
        <use
           height="48"
           width="48"
           x="0"
           y="0"
           inkscape:tiled-clone-of="#rect2999"
           xlink:href="#rect2999"
           transform="matrix(-0.76604444,0.64278761,-0.64278761,-0.76604444,94.690333,37.391853)"
           id="use3961" />
        <use
           height="48"
           width="48"
           x="0"
           y="0"
           inkscape:tiled-clone-of="#rect2999"
           xlink:href="#rect2999"
           transform="matrix(-0.5,-0.8660254,0.8660254,-0.5,29.695911,89.001258)"
           id="use3963" />
        <use
           height="48"
           width="48"
           x="0"
           y="0"
           inkscape:tiled-clone-of="#rect2999"
           xlink:href="#rect2999"
           transform="matrix(0.93969262,-0.34202014,0.34202014,0.93969262,-9.8432681,16.032368)"
           id="use3965" />
        <use
           height="48"
           width="48"
           x="0"
           y="0"
           inkscape:tiled-clone-of="#rect2999"
           xlink:href="#rect2999"
           transform="matrix(0.17364818,0.98480775,-0.98480775,0.17364818,68.882967,-10.235207)"
           id="use3967" />
        <use
           height="48"
           width="48"
           x="0"
           y="0"
           inkscape:tiled-clone-of="#rect2999"
           xlink:href="#rect2999"
           transform="matrix(-1,0,0,-1,81.080811,71.856316)"
           id="use3969" />
        <use
           height="48"
           width="48"
           x="0"
           y="0"
           inkscape:tiled-clone-of="#rect2999"
           xlink:href="#rect2999"
           transform="matrix(0.17364818,-0.98480775,0.98480775,0.17364818,-1.8816904,69.613805)"
           id="use3971" />
        <use
           height="48"
           width="48"
           x="0"
           y="0"
           inkscape:tiled-clone-of="#rect2999"
           xlink:href="#rect2999"
           transform="matrix(0.93969262,0.34202014,-0.34202014,0.93969262,14.733039,-11.698902)"
           id="use3973" />
      </g>
      <path
         inkscape:connector-curvature="0"
         style="color:#000000;fill:#ffffff;fill-opacity:1;fill-rule:nonzero;stroke:none;stroke-width:0.41290522000000002;marker:none;visibility:visible;display:inline;overflow:visible;enable-background:accumulate"
         d="m 35.594328,32.988926 c 0,0.482223 0.390919,0.873142 0.873143,0.873142 0.482222,0 0.873142,-0.390919 0.873142,-0.873142 0,-0.482223 -0.39092,-0.873142 -0.873142,-0.873142 -0.482224,0 -0.873143,0.390919 -0.873143,0.873142 z"
         id="path3975" />
    </g>
  </g>
  <g
     id="g3977"
     transform="matrix(1.0350307,0,0,1.0350307,-24.852863,3.0318306)">
    <g
       id="g3979">
      <g
         id="g3981"
         transform="translate(-4.0729355,-2.9392318)">
        <rect
           inkscape:tile-y0="34.815449"
           inkscape:tile-x0="40.393444"
           inkscape:tile-h="2.2254183"
           inkscape:tile-w="0.29392317"
           inkscape:tile-cy="35.928158"
           inkscape:tile-cx="40.540406"
           ry="0"
           y="34.815449"
           x="40.393444"
           height="2.2254183"
           width="0.29392317"
           id="rect3983"
           style="color:#000000;fill:#b1ada3;fill-opacity:1;fill-rule:nonzero;stroke:none;stroke-width:0.5;marker:none;visibility:visible;display:inline;overflow:visible;enable-background:accumulate" />
        <use
           id="use3985"
           xlink:href="#rect2999"
           inkscape:tiled-clone-of="#rect2999"
           y="0"
           x="0"
           width="48"
           height="48" />
        <use
           id="use3987"
           transform="matrix(-0.17364818,0.98480775,-0.98480775,-0.17364818,82.962502,2.2425113)"
           xlink:href="#rect2999"
           inkscape:tiled-clone-of="#rect2999"
           y="0"
           x="0"
           width="48"
           height="48" />
        <use
           id="use3989"
           transform="matrix(-0.93969262,-0.34202014,0.34202014,-0.93969262,66.347772,83.555218)"
           xlink:href="#rect2999"
           inkscape:tiled-clone-of="#rect2999"
           y="0"
           x="0"
           width="48"
           height="48" />
        <use
           id="use3991"
           transform="matrix(0.5,-0.8660254,0.8660254,0.5,-10.844495,53.0731)"
           xlink:href="#rect2999"
           inkscape:tiled-clone-of="#rect2999"
           y="0"
           x="0"
           width="48"
           height="48" />
        <use
           id="use3993"
           transform="matrix(0.76604444,0.64278761,-0.64278761,0.76604444,32.578828,-17.653278)"
           xlink:href="#rect2999"
           inkscape:tiled-clone-of="#rect2999"
           y="0"
           x="0"
           width="48"
           height="48" />
        <use
           id="use3995"
           transform="matrix(-0.76604444,0.64278761,-0.64278761,-0.76604444,94.690333,37.391853)"
           xlink:href="#rect2999"
           inkscape:tiled-clone-of="#rect2999"
           y="0"
           x="0"
           width="48"
           height="48" />
        <use
           id="use3997"
           transform="matrix(-0.5,-0.8660254,0.8660254,-0.5,29.695911,89.001258)"
           xlink:href="#rect2999"
           inkscape:tiled-clone-of="#rect2999"
           y="0"
           x="0"
           width="48"
           height="48" />
        <use
           id="use3999"
           transform="matrix(0.93969262,-0.34202014,0.34202014,0.93969262,-9.8432681,16.032368)"
           xlink:href="#rect2999"
           inkscape:tiled-clone-of="#rect2999"
           y="0"
           x="0"
           width="48"
           height="48" />
        <use
           id="use4001"
           transform="matrix(0.17364818,0.98480775,-0.98480775,0.17364818,68.882967,-10.235207)"
           xlink:href="#rect2999"
           inkscape:tiled-clone-of="#rect2999"
           y="0"
           x="0"
           width="48"
           height="48" />
        <use
           id="use4003"
           transform="matrix(-1,0,0,-1,81.080811,71.856316)"
           xlink:href="#rect2999"
           inkscape:tiled-clone-of="#rect2999"
           y="0"
           x="0"
           width="48"
           height="48" />
        <use
           id="use4005"
           transform="matrix(0.17364818,-0.98480775,0.98480775,0.17364818,-1.8816904,69.613805)"
           xlink:href="#rect2999"
           inkscape:tiled-clone-of="#rect2999"
           y="0"
           x="0"
           width="48"
           height="48" />
        <use
           id="use4007"
           transform="matrix(0.93969262,0.34202014,-0.34202014,0.93969262,14.733039,-11.698902)"
           xlink:href="#rect2999"
           inkscape:tiled-clone-of="#rect2999"
           y="0"
           x="0"
           width="48"
           height="48" />
      </g>
      <path
         id="path4009"
         d="m 35.594328,32.988926 c 0,0.482223 0.390919,0.873142 0.873143,0.873142 0.482222,0 0.873142,-0.390919 0.873142,-0.873142 0,-0.482223 -0.39092,-0.873142 -0.873142,-0.873142 -0.482224,0 -0.873143,0.390919 -0.873143,0.873142 z"
         style="color:#000000;fill:#ffffff;fill-opacity:1;fill-rule:nonzero;stroke:none;stroke-width:0.41290522000000002;marker:none;visibility:visible;display:inline;overflow:visible;enable-background:accumulate"
         inkscape:connector-curvature="0" />
    </g>
  </g>
</svg>
