<?xml version="1.0" encoding="UTF-8" standalone="no"?>
<!-- Created using Karbon, part of Calligra: http://www.calligra.org/karbon -->

<svg
   xmlns:dc="http://purl.org/dc/elements/1.1/"
   xmlns:cc="http://creativecommons.org/ns#"
   xmlns:rdf="http://www.w3.org/1999/02/22-rdf-syntax-ns#"
   xmlns:svg="http://www.w3.org/2000/svg"
   xmlns="http://www.w3.org/2000/svg"
   xmlns:sodipodi="http://sodipodi.sourceforge.net/DTD/sodipodi-0.dtd"
   xmlns:inkscape="http://www.inkscape.org/namespaces/inkscape"
   width="38.4pt"
   height="38.4pt"
   id="svg2"
   version="1.1"
   inkscape:version="0.48.5 r10040"
   sodipodi:docname="weather-hail.svg">
  <metadata
     id="metadata10">
    <rdf:RDF>
      <cc:Work
         rdf:about="">
        <dc:format>image/svg+xml</dc:format>
        <dc:type
           rdf:resource="http://purl.org/dc/dcmitype/StillImage" />
        <dc:title></dc:title>
      </cc:Work>
    </rdf:RDF>
  </metadata>
  <sodipodi:namedview
     pagecolor="#ffffff"
     bordercolor="#666666"
     borderopacity="1"
     objecttolerance="10"
     gridtolerance="10"
     guidetolerance="10"
     inkscape:pageopacity="0"
     inkscape:pageshadow="2"
     inkscape:window-width="971"
     inkscape:window-height="706"
     id="namedview8"
     showgrid="false"
     inkscape:zoom="10.458268"
     inkscape:cx="10.234625"
     inkscape:cy="25.271669"
     inkscape:window-x="653"
     inkscape:window-y="159"
     inkscape:window-maximized="0"
     inkscape:current-layer="svg2" />
  <defs
     id="defs4" />
  <path
     style="fill:#ffffff;fill-opacity:1"
     id="path5"
     d="m 43.207629,-17.131024 c 0.03568,-0.294879 0.05281,-0.594795 0.05281,-0.894658 0,-3.741025 -2.622689,-6.786151 -5.847893,-6.786151 -1.87032,0 -3.587819,1.025557 -4.675755,2.707197 -0.384042,-0.10773 -0.775212,-0.16239 -1.172137,-0.16239 -2.821152,0 -5.116906,2.664094 -5.116906,5.937881 0,0.08287 0.0014,0.164034 0.0043,0.245203 -2.114424,0.728981 -3.659227,3.005416 -3.659227,5.692679 0,3.2737869 2.295755,5.9378809 5.116906,5.9378809 h 12.426771 c 3.225205,0 5.847893,-3.043482 5.847893,-6.7861499 0,-2.473552 -1.172137,-4.708528 -2.97676,-5.891492 z M 40.336496,-6.1499191 H 27.909725 c -2.018802,0 -3.654933,-1.898691 -3.654933,-4.2413439 0,-2.342654 1.636176,-4.241344 3.654933,-4.241344 0.111384,0 0.217012,0.02651 0.325517,0.03812 -0.20559,-0.530168 -0.325517,-1.114996 -0.325517,-1.734657 0,-2.342706 1.636176,-4.241344 3.654933,-4.241344 0.659624,0 1.270683,0.218694 1.804623,0.573271 0.662456,-1.83242 2.22293,-3.118077 4.043269,-3.118077 2.422809,0 4.38592,2.278079 4.38592,5.089613 0,0.669337 -0.118512,1.305538 -0.321223,1.892063 1.866026,0.586472 3.245169,2.544807 3.245169,4.894087 0,2.8115339 -1.96311,5.0896129 -4.38592,5.0896129 z"
     inkscape:connector-curvature="0" />
  <path
     style="color:#000000;fill:#ffffff;fill-opacity:1;fill-rule:nonzero;stroke:#b1ada3;stroke-width:0.4478251;stroke-miterlimit:4;stroke-opacity:1;stroke-dasharray:none;marker:none;visibility:visible;display:inline;overflow:visible;enable-background:accumulate"
     d="m 12.746631,29.84958 c -2.577169,-0.192083 -4.2407304,-1.105772 -5.1722094,-2.840773 -0.759981,-1.415566 -0.438762,-2.774661 0.979999,-4.146425 0.937752,-0.906689 2.1991674,-1.43282 3.7757044,-1.574827 l 1.210259,-0.109013 -0.143683,-1.37764 c -0.199157,-1.909512 0.237732,-2.838619 1.825429,-3.882013 1.622008,-1.065943 3.455677,-1.282547 6.311945,-0.745609 0.48176,0.09056 0.653832,0.0051 0.963095,-0.478663 0.456995,-0.714765 2.556189,-2.016402 3.804895,-2.359278 2.000735,-0.549371 4.373252,-0.198511 6.281387,0.928924 2.029929,1.199396 2.531954,2.049188 2.541812,4.3026 l 0.0081,1.879918 1.076959,0.51269 c 2.614797,1.244791 3.852547,2.787283 3.852547,4.801078 0,1.451686 -0.798431,2.714177 -2.336078,3.693846 -2.284758,1.455665 -1.806369,1.402184 -13.139643,1.468948 -5.530881,0.03258 -10.859177,-5.28e-4 -11.840655,-0.07376 l 0,0 z"
     id="path4111"
     inkscape:connector-curvature="0" />
  <g
     id="g3047">
    <path
       transform="matrix(0.72847201,0.68507557,-0.68507557,0.72847201,0,0)"
       style="color:#000000;fill:#f3f3ff;fill-opacity:1;fill-rule:nonzero;stroke:#b1ada3;stroke-width:0.30000001;stroke-linecap:butt;stroke-linejoin:miter;stroke-miterlimit:4;stroke-dashoffset:0;stroke-opacity:1;marker:none;visibility:visible;display:inline;overflow:visible;enable-background:accumulate"
       d="m 34.643463,10.394076 1.67664,0 0,1.67664 -1.67664,0 z"
       id="rect3037" />
    <path
       transform="matrix(0.72847201,0.68507557,-0.68507557,0.72847201,0,0)"
       style="color:#000000;fill:#f3f3ff;fill-opacity:1;fill-rule:nonzero;stroke:#b1ada3;stroke-width:0.23162834;stroke-linecap:butt;stroke-linejoin:miter;stroke-miterlimit:4;stroke-dashoffset:0;stroke-opacity:1;marker:none;visibility:visible;display:inline;overflow:visible;enable-background:accumulate"
       d="m 37.873478,12.089463 1.294524,0 0,1.294524 -1.294524,0 z"
       id="rect3039" />
    <path
       transform="matrix(0.72847201,0.68507557,-0.68507557,0.72847201,0,0)"
       style="color:#000000;fill:#f3f3ff;fill-opacity:1;fill-rule:nonzero;stroke:#b1ada3;stroke-width:0.23162834;stroke-linecap:butt;stroke-linejoin:miter;stroke-miterlimit:4;stroke-dashoffset:0;stroke-opacity:1;marker:none;visibility:visible;display:inline;overflow:visible;enable-background:accumulate"
       d="m 37.487198,7.5336032 1.294524,0 0,1.2945239 -1.294524,0 z"
       id="rect3041" />
    <path
       transform="matrix(0.72847201,0.68507557,-0.68507557,0.72847201,0,0)"
       style="color:#000000;fill:#f3f3ff;fill-opacity:1;fill-rule:nonzero;stroke:#b1ada3;stroke-width:0.23162834;stroke-linecap:butt;stroke-linejoin:miter;stroke-miterlimit:4;stroke-dashoffset:0;stroke-opacity:1;marker:none;visibility:visible;display:inline;overflow:visible;enable-background:accumulate"
       d="m 34.760544,14.552885 1.294524,0 0,1.294524 -1.294524,0 z"
       id="rect3043" />
    <path
       transform="matrix(0.72847201,0.68507557,-0.68507557,0.72847201,0,0)"
       style="color:#000000;fill:#f3f3ff;fill-opacity:1;fill-rule:nonzero;stroke:#b1ada3;stroke-width:0.15565981;stroke-linecap:butt;stroke-linejoin:miter;stroke-miterlimit:4;stroke-dashoffset:0;stroke-opacity:1;marker:none;visibility:visible;display:inline;overflow:visible;enable-background:accumulate"
       d="m 31.912184,13.188429 0.869951,0 0,0.869951 -0.869951,0 z"
       id="rect3045" />
  </g>
  <g
     id="g3059"
     transform="translate(10.716538,-0.54089783)">
    <path
       id="path3061"
       d="m 34.643463,10.394076 1.67664,0 0,1.67664 -1.67664,0 z"
       style="color:#000000;fill:#f3f3ff;fill-opacity:1;fill-rule:nonzero;stroke:#b1ada3;stroke-width:0.30000001;stroke-linecap:butt;stroke-linejoin:miter;stroke-miterlimit:4;stroke-opacity:1;stroke-dashoffset:0;marker:none;visibility:visible;display:inline;overflow:visible;enable-background:accumulate"
       transform="matrix(0.72847201,0.68507557,-0.68507557,0.72847201,0,0)"
       inkscape:connector-curvature="0" />
    <path
       id="path3063"
       d="m 37.873478,12.089463 1.294524,0 0,1.294524 -1.294524,0 z"
       style="color:#000000;fill:#f3f3ff;fill-opacity:1;fill-rule:nonzero;stroke:#b1ada3;stroke-width:0.23162834;stroke-linecap:butt;stroke-linejoin:miter;stroke-miterlimit:4;stroke-opacity:1;stroke-dashoffset:0;marker:none;visibility:visible;display:inline;overflow:visible;enable-background:accumulate"
       transform="matrix(0.72847201,0.68507557,-0.68507557,0.72847201,0,0)"
       inkscape:connector-curvature="0" />
    <path
       id="path3065"
       d="m 37.487198,7.5336032 1.294524,0 0,1.2945239 -1.294524,0 z"
       style="color:#000000;fill:#f3f3ff;fill-opacity:1;fill-rule:nonzero;stroke:#b1ada3;stroke-width:0.23162834;stroke-linecap:butt;stroke-linejoin:miter;stroke-miterlimit:4;stroke-opacity:1;stroke-dashoffset:0;marker:none;visibility:visible;display:inline;overflow:visible;enable-background:accumulate"
       transform="matrix(0.72847201,0.68507557,-0.68507557,0.72847201,0,0)"
       inkscape:connector-curvature="0" />
    <path
       id="path3067"
       d="m 34.760544,14.552885 1.294524,0 0,1.294524 -1.294524,0 z"
       style="color:#000000;fill:#f3f3ff;fill-opacity:1;fill-rule:nonzero;stroke:#b1ada3;stroke-width:0.23162834;stroke-linecap:butt;stroke-linejoin:miter;stroke-miterlimit:4;stroke-opacity:1;stroke-dashoffset:0;marker:none;visibility:visible;display:inline;overflow:visible;enable-background:accumulate"
       transform="matrix(0.72847201,0.68507557,-0.68507557,0.72847201,0,0)"
       inkscape:connector-curvature="0" />
    <path
       id="path3069"
       d="m 31.912184,13.188429 0.869951,0 0,0.869951 -0.869951,0 z"
       style="color:#000000;fill:#f3f3ff;fill-opacity:1;fill-rule:nonzero;stroke:#b1ada3;stroke-width:0.15565981;stroke-linecap:butt;stroke-linejoin:miter;stroke-miterlimit:4;stroke-opacity:1;stroke-dashoffset:0;marker:none;visibility:visible;display:inline;overflow:visible;enable-background:accumulate"
       transform="matrix(0.72847201,0.68507557,-0.68507557,0.72847201,0,0)"
       inkscape:connector-curvature="0" />
  </g>
  <g
     transform="translate(3.7186724,5.6456211)"
     id="g3071">
    <path
       inkscape:connector-curvature="0"
       transform="matrix(0.72847201,0.68507557,-0.68507557,0.72847201,0,0)"
       style="color:#000000;fill:#f3f3ff;fill-opacity:1;fill-rule:nonzero;stroke:#b1ada3;stroke-width:0.30000001;stroke-linecap:butt;stroke-linejoin:miter;stroke-miterlimit:4;stroke-opacity:1;stroke-dashoffset:0;marker:none;visibility:visible;display:inline;overflow:visible;enable-background:accumulate"
       d="m 34.643463,10.394076 1.67664,0 0,1.67664 -1.67664,0 z"
       id="path3073" />
    <path
       inkscape:connector-curvature="0"
       transform="matrix(0.72847201,0.68507557,-0.68507557,0.72847201,0,0)"
       style="color:#000000;fill:#f3f3ff;fill-opacity:1;fill-rule:nonzero;stroke:#b1ada3;stroke-width:0.23162834;stroke-linecap:butt;stroke-linejoin:miter;stroke-miterlimit:4;stroke-opacity:1;stroke-dashoffset:0;marker:none;visibility:visible;display:inline;overflow:visible;enable-background:accumulate"
       d="m 37.873478,12.089463 1.294524,0 0,1.294524 -1.294524,0 z"
       id="path3075" />
    <path
       inkscape:connector-curvature="0"
       transform="matrix(0.72847201,0.68507557,-0.68507557,0.72847201,0,0)"
       style="color:#000000;fill:#f3f3ff;fill-opacity:1;fill-rule:nonzero;stroke:#b1ada3;stroke-width:0.23162834;stroke-linecap:butt;stroke-linejoin:miter;stroke-miterlimit:4;stroke-opacity:1;stroke-dashoffset:0;marker:none;visibility:visible;display:inline;overflow:visible;enable-background:accumulate"
       d="m 37.487198,7.5336032 1.294524,0 0,1.2945239 -1.294524,0 z"
       id="path3077" />
    <path
       inkscape:connector-curvature="0"
       transform="matrix(0.72847201,0.68507557,-0.68507557,0.72847201,0,0)"
       style="color:#000000;fill:#f3f3ff;fill-opacity:1;fill-rule:nonzero;stroke:#b1ada3;stroke-width:0.23162834;stroke-linecap:butt;stroke-linejoin:miter;stroke-miterlimit:4;stroke-opacity:1;stroke-dashoffset:0;marker:none;visibility:visible;display:inline;overflow:visible;enable-background:accumulate"
       d="m 34.760544,14.552885 1.294524,0 0,1.294524 -1.294524,0 z"
       id="path3079" />
    <path
       inkscape:connector-curvature="0"
       transform="matrix(0.72847201,0.68507557,-0.68507557,0.72847201,0,0)"
       style="color:#000000;fill:#f3f3ff;fill-opacity:1;fill-rule:nonzero;stroke:#b1ada3;stroke-width:0.15565981;stroke-linecap:butt;stroke-linejoin:miter;stroke-miterlimit:4;stroke-opacity:1;stroke-dashoffset:0;marker:none;visibility:visible;display:inline;overflow:visible;enable-background:accumulate"
       d="m 31.912184,13.188429 0.869951,0 0,0.869951 -0.869951,0 z"
       id="path3081" />
  </g>
</svg>
