<?xml version="1.0" encoding="UTF-8" standalone="no"?>
<!-- Created using Karbon, part of Calligra: http://www.calligra.org/karbon -->

<svg
   xmlns:dc="http://purl.org/dc/elements/1.1/"
   xmlns:cc="http://creativecommons.org/ns#"
   xmlns:rdf="http://www.w3.org/1999/02/22-rdf-syntax-ns#"
   xmlns:svg="http://www.w3.org/2000/svg"
   xmlns="http://www.w3.org/2000/svg"
   xmlns:xlink="http://www.w3.org/1999/xlink"
   xmlns:sodipodi="http://sodipodi.sourceforge.net/DTD/sodipodi-0.dtd"
   xmlns:inkscape="http://www.inkscape.org/namespaces/inkscape"
   width="38.4pt"
   height="38.4pt"
   id="svg2"
   version="1.1"
   inkscape:version="0.48.5 r10040"
   sodipodi:docname="weather-clear.svg">
  <metadata
     id="metadata10">
    <rdf:RDF>
      <cc:Work
         rdf:about="">
        <dc:format>image/svg+xml</dc:format>
        <dc:type
           rdf:resource="http://purl.org/dc/dcmitype/StillImage" />
        <dc:title></dc:title>
      </cc:Work>
    </rdf:RDF>
  </metadata>
  <sodipodi:namedview
     pagecolor="#ffffff"
     bordercolor="#666666"
     borderopacity="1"
     objecttolerance="10"
     gridtolerance="10"
     guidetolerance="10"
     inkscape:pageopacity="0"
     inkscape:pageshadow="2"
     inkscape:window-width="971"
     inkscape:window-height="706"
     id="namedview8"
     showgrid="false"
     inkscape:zoom="6.1469579"
     inkscape:cx="20.66209"
     inkscape:cy="39.193738"
     inkscape:window-x="653"
     inkscape:window-y="159"
     inkscape:window-maximized="0"
     inkscape:current-layer="svg2" />
  <defs
     id="defs4" />
  <g
     id="layer0">
    <path
       id="shape0"
       transform="translate(9.00002, 9.00002)"
       fill="#f1c40f"
       fill-rule="evenodd"
       stroke="#003bc3"
       stroke-width="0.00000000000"
       stroke-linecap="square"
       stroke-linejoin="miter"
       stroke-miterlimit="2.01260185242"
       d="M29.9909 14.2133C29.5572 6.01457 22.615 -0.313379 14.4113 0.0120057C6.20754 0.337391 -0.211615 7.19528 0.00534112 15.4026C0.222297 23.6098 6.9948 30.119 15.2043 30.0106C23.4138 29.9021 30.0119 23.2162 30.0119 15.006" />
  </g>
  <g
     id="g4054"
     transform="matrix(2.3537608,0,0,2.3537608,-31.331179,12.683346)">
    <path
       inkscape:connector-curvature="0"
       inkscape:tile-y0="1.4729202"
       inkscape:tile-x0="22.775493"
       inkscape:tile-h="6.6699662"
       inkscape:tile-w="1.464139"
       inkscape:tile-cy="4.8079033"
       inkscape:tile-cx="23.507562"
       id="path4027"
       d="m 24.239632,4.8079033 c 0,4.9864997 -0.327759,9.0288567 -0.732069,9.0288567 -0.404311,0 -0.73207,-4.042357 -0.73207,-9.0288567 0,-4.98649974 0.327759,-9.0288565 0.73207,-9.0288565 0.40431,0 0.732069,4.04235676 0.732069,9.0288565 z"
       style="color:#000000;fill:#f1c40f;fill-opacity:1;fill-rule:nonzero;stroke:none;stroke-width:0.60000002;marker:none;visibility:visible;display:inline;overflow:visible;enable-background:accumulate" />
    <use
       id="use4030"
       xlink:href="#path4027"
       inkscape:tiled-clone-of="#path4027"
       y="0"
       x="0"
       width="48"
       height="48" />
    <use
       id="use4032"
       transform="matrix(-0.17364818,0.98480775,-0.98480775,-0.17364818,32.324468,-17.507643)"
       xlink:href="#path4027"
       inkscape:tiled-clone-of="#path4027"
       y="0"
       x="0"
       width="48"
       height="48" />
    <use
       id="use4034"
       transform="matrix(-0.93969262,-0.34202014,0.34202014,-0.93969262,43.953046,17.365914)"
       xlink:href="#path4027"
       inkscape:tiled-clone-of="#path4027"
       y="0"
       x="0"
       width="48"
       height="48" />
    <use
       id="use4036"
       transform="matrix(0.5,-0.8660254,0.8660254,0.5,7.5900149,22.762098)"
       xlink:href="#path4027"
       inkscape:tiled-clone-of="#path4027"
       y="0"
       x="0"
       width="48"
       height="48" />
    <use
       id="use4038"
       transform="matrix(0.76604444,0.64278761,-0.64278761,0.76604444,8.5901855,-13.985534)"
       xlink:href="#path4027"
       inkscape:tiled-clone-of="#path4027"
       y="0"
       x="0"
       width="48"
       height="48" />
    <use
       id="use4040"
       transform="matrix(-0.76604444,0.64278761,-0.64278761,-0.76604444,44.605861,-6.619399)"
       xlink:href="#path4027"
       inkscape:tiled-clone-of="#path4027"
       y="0"
       x="0"
       width="48"
       height="48" />
    <use
       id="use4042"
       transform="matrix(-0.5,-0.8660254,0.8660254,-0.5,31.097577,27.570001)"
       xlink:href="#path4027"
       inkscape:tiled-clone-of="#path4027"
       y="0"
       x="0"
       width="48"
       height="48" />
    <use
       id="use4044"
       transform="matrix(0.93969262,-0.34202014,0.34202014,0.93969262,-0.22672029,8.3300119)"
       xlink:href="#path4027"
       inkscape:tiled-clone-of="#path4027"
       y="0"
       x="0"
       width="48"
       height="48" />
    <use
       id="use4046"
       transform="matrix(0.17364818,0.98480775,-0.98480775,0.17364818,24.160378,-19.17741)"
       xlink:href="#path4027"
       inkscape:tiled-clone-of="#path4027"
       y="0"
       x="0"
       width="48"
       height="48" />
    <use
       id="use4048"
       transform="matrix(-1,0,0,-1,47.015125,9.6158066)"
       xlink:href="#path4027"
       inkscape:tiled-clone-of="#path4027"
       y="0"
       x="0"
       width="48"
       height="48" />
    <use
       id="use4050"
       transform="matrix(0.17364818,-0.98480775,0.98480775,0.17364818,14.690657,27.123449)"
       xlink:href="#path4027"
       inkscape:tiled-clone-of="#path4027"
       y="0"
       x="0"
       width="48"
       height="48" />
    <use
       id="use4052"
       transform="matrix(0.93969262,0.34202014,-0.34202014,0.93969262,3.0620793,-7.7501078)"
       xlink:href="#path4027"
       inkscape:tiled-clone-of="#path4027"
       y="0"
       x="0"
       width="48"
       height="48" />
  </g>
  <path
     style="fill:#ffffff;fill-opacity:1"
     id="path5"
     d="m 43.207629,-17.131024 c 0.03568,-0.294879 0.05281,-0.594795 0.05281,-0.894658 0,-3.741025 -2.622689,-6.786151 -5.847893,-6.786151 -1.87032,0 -3.587819,1.025557 -4.675755,2.707197 -0.384042,-0.10773 -0.775212,-0.16239 -1.172137,-0.16239 -2.821152,0 -5.116906,2.664094 -5.116906,5.937881 0,0.08287 0.0014,0.164034 0.0043,0.245203 -2.114424,0.728981 -3.659227,3.005416 -3.659227,5.692679 0,3.2737869 2.295755,5.9378809 5.116906,5.9378809 h 12.426771 c 3.225205,0 5.847893,-3.043482 5.847893,-6.7861499 0,-2.473552 -1.172137,-4.708528 -2.97676,-5.891492 z M 40.336496,-6.1499191 H 27.909725 c -2.018802,0 -3.654933,-1.898691 -3.654933,-4.2413439 0,-2.342654 1.636176,-4.241344 3.654933,-4.241344 0.111384,0 0.217012,0.02651 0.325517,0.03812 -0.20559,-0.530168 -0.325517,-1.114996 -0.325517,-1.734657 0,-2.342706 1.636176,-4.241344 3.654933,-4.241344 0.659624,0 1.270683,0.218694 1.804623,0.573271 0.662456,-1.83242 2.22293,-3.118077 4.043269,-3.118077 2.422809,0 4.38592,2.278079 4.38592,5.089613 0,0.669337 -0.118512,1.305538 -0.321223,1.892063 1.866026,0.586472 3.245169,2.544807 3.245169,4.894087 0,2.8115339 -1.96311,5.0896129 -4.38592,5.0896129 z"
     inkscape:connector-curvature="0" />
  <path
     style="color:#000000;fill:#ffffff;fill-opacity:1;fill-rule:nonzero;stroke:#b1ada3;stroke-width:0.59999999999999998;marker:none;visibility:visible;display:inline;overflow:visible;enable-background:accumulate;stroke-miterlimit:4;stroke-dasharray:none;stroke-opacity:1"
     d="M 13.242618,42.335003 C 10.176924,42.045144 8.1980206,40.666352 7.0899709,38.048174 6.1859275,35.912034 6.5680366,33.861108 8.2557365,31.791069 9.3712496,30.422843 10.871778,29.628894 12.747162,29.414599 l 1.439674,-0.164507 -0.170916,-2.078908 c -0.236909,-2.881522 0.282798,-4.283577 2.171457,-5.858096 1.929474,-1.608547 4.110731,-1.935412 7.508431,-1.125152 0.573083,0.136671 0.77777,0.0077 1.145659,-0.722319 0.543622,-1.078608 3.040738,-3.042823 4.526147,-3.560235 2.379993,-0.82902 5.20224,-0.299561 7.472081,1.401779 2.414721,1.809933 3.01191,3.092298 3.023635,6.492779 l 0.0097,2.836862 1.281106,0.773669 c 3.110456,1.878435 4.582833,4.206111 4.582833,7.245 0,2.190647 -0.94978,4.095793 -2.778904,5.574147 -2.717853,2.196651 -2.148782,2.115946 -15.630381,2.216695 -6.57931,0.04917 -12.917633,-7.95e-4 -14.085159,-0.111312 l 0,0 z"
     id="path4111"
     inkscape:connector-curvature="0" />
</svg>
